<svg width="644" height="405" viewBox="0 0 644 405" fill="none" xmlns="http://www.w3.org/2000/svg">
<rect width="643.623" height="404.208" rx="24.8743" fill="#EAF3ED"/>
<g style="mix-blend-mode:multiply">
<circle cx="138.363" cy="262.735" r="108.825" fill="#F4B72B"/>
</g>
<path d="M548.79 273.617V351.349" stroke="#4ECA53" stroke-width="12.4372"/>
<path d="M587.656 312.484L509.924 312.484" stroke="#4ECA53" stroke-width="12.4372"/>
<path d="M582.449 293.051L515.131 331.917" stroke="#4ECA53" stroke-width="12.4372"/>
<path d="M568.223 278.82L529.357 346.138" stroke="#4ECA53" stroke-width="12.4372"/>
<path d="M568.222 346.145L529.356 278.826" stroke="#4ECA53" stroke-width="12.4372"/>
<path d="M582.449 331.918L515.131 293.052" stroke="#4ECA53" stroke-width="12.4372"/>
<g style="mix-blend-mode:multiply">
<g style="mix-blend-mode:multiply">
<path d="M499.456 105.715H614.085L577.913 202.103H463.284L499.456 105.715Z" fill="#FB514D"/>
</g>
</g>
<g style="mix-blend-mode:multiply">
<rect x="270.508" y="34.2031" width="259.626" height="105.716" fill="#248EFF"/>
</g>
<g style="mix-blend-mode:multiply">
<path d="M231.94 174.119C211.245 186.067 196.079 205.634 189.778 228.515C183.477 251.396 186.558 275.717 198.342 296.128C210.126 316.538 229.648 331.366 252.615 337.35C275.581 343.334 300.109 339.983 320.804 328.035" stroke="#E46C24" stroke-width="46.6394"/>
</g>
</svg>
