<svg width="64" height="64" viewBox="0 0 64 64" fill="none" xmlns="http://www.w3.org/2000/svg">
<rect width="64" height="64" rx="32" fill="#03011C"/>
<path d="M17 47C17 42.8579 20.3579 39.5 24.5 39.5H31.9997V47C31.9997 51.1422 28.6422 54.5001 24.5 54.5001C20.3579 54.5001 17 51.1422 17 47Z" fill="#24CB71"/>
<path d="M32 9.5V24.4997H39.5C43.6422 24.4997 47.0001 21.1422 47.0001 17C47.0001 12.8579 43.6422 9.5 39.5 9.5H32Z" fill="#FF7237"/>
<path d="M39.4375 39.5C43.5796 39.5 46.9375 36.1421 46.9375 32C46.9375 27.8578 43.5796 24.5 39.4375 24.5C35.2954 24.5 31.9375 27.8578 31.9375 32C31.9375 36.1421 35.2954 39.5 39.4375 39.5Z" fill="#00B6FF"/>
<path d="M17 17C17 21.1422 20.3579 24.5001 24.5 24.5001H31.9997V9.5H24.5C20.3579 9.5 17 12.8579 17 17Z" fill="#FF3737"/>
<path d="M17 31.9997C17 36.1418 20.3579 39.4997 24.5 39.4997H31.9997V24.5H24.5C20.3579 24.5 17 27.8575 17 31.9997Z" fill="#874FFF"/>
</svg>
