<svg width="64" height="64" viewBox="0 0 64 64" fill="none" xmlns="http://www.w3.org/2000/svg">
<path fill-rule="evenodd" clip-rule="evenodd" d="M31.9047 1C14.2622 1 0 15.3673 0 33.1417C0 47.3497 9.13828 59.3765 21.8155 63.6331C23.4005 63.9531 23.9811 62.9415 23.9811 62.0906C23.9811 61.3455 23.9288 58.7913 23.9288 56.1301C15.0537 58.0462 13.2056 52.2986 13.2056 52.2986C11.7793 48.5736 9.66596 47.6162 9.66596 47.6162C6.76114 45.6472 9.87755 45.6472 9.87755 45.6472C13.0998 45.8601 14.7905 48.9464 14.7905 48.9464C17.6425 53.8418 22.238 52.4586 24.0869 51.607C24.3507 49.5316 25.1964 48.0949 26.0944 47.2968C19.0158 46.5517 11.5683 43.7847 11.5683 31.4385C11.5683 27.9264 12.8353 25.0529 14.8428 22.8181C14.526 22.0201 13.4165 18.7202 15.1602 14.3035C15.1602 14.3035 17.854 13.4519 23.9282 17.6028C26.5287 16.8992 29.2106 16.5413 31.9047 16.5383C34.5985 16.5383 37.3447 16.9112 39.8805 17.6028C45.9553 13.4519 48.6491 14.3035 48.6491 14.3035C50.3928 18.7202 49.2826 22.0201 48.9659 22.8181C51.0263 25.0529 52.241 27.9264 52.241 31.4385C52.241 43.7847 44.7935 46.4981 37.662 47.2968C38.8245 48.3078 39.8276 50.2232 39.8276 53.2566C39.8276 57.5669 39.7753 61.0261 39.7753 62.09C39.7753 62.9415 40.3566 63.9531 41.9409 63.6338C54.6181 59.3758 63.7564 47.3497 63.7564 33.1417C63.8087 15.3673 49.4942 1 31.9047 1Z" fill="#000000"/>
</svg>
