<svg width="120" height="45" viewBox="0 0 120 45" fill="none" xmlns="http://www.w3.org/2000/svg">
<mask id="mask0_10570_3712" style="mask-type:luminance" maskUnits="userSpaceOnUse" x="0" y="0" width="120" height="45">
<path d="M119.824 0H0V44.9224H119.824V0Z" fill="white"/>
</mask>
<g mask="url(#mask0_10570_3712)">
<path d="M25.2878 13.4022C21.7756 13.3052 16.8585 13.4991 13.2878 13.4991V31.6543H18.4V17.9216C18.4 17.9216 22.9463 17.7664 24.5854 17.9603C26.1268 18.1349 26.6927 19.0853 26.7512 21.0638C26.7903 23.3138 26.7512 24.497 26.7512 31.6543H31.8634C31.8634 31.6543 31.922 23.469 31.8634 20.6177C31.7854 15.5552 30.0098 13.5185 25.2878 13.4022Z" fill="#00306D"/>
<path d="M48.9366 13.3438C43.8829 13.3438 39.7659 17.4558 39.7659 22.5183C39.7659 27.5808 43.8829 31.6929 48.9366 31.6929C53.9903 31.6929 58.1073 27.5808 58.1073 22.5183C58.1073 17.4558 53.9903 13.3438 48.9366 13.3438ZM48.9366 27.3093C46.2829 27.3093 44.1366 25.1562 44.1366 22.4989C44.1366 19.8416 46.2829 17.6886 48.9366 17.6886C51.5903 17.6886 53.7366 19.8416 53.7366 22.4989C53.7366 25.1756 51.5903 27.3093 48.9366 27.3093Z" fill="#00306D"/>
<path d="M106.42 22.5183C106.42 17.4558 102.302 13.3438 97.2488 13.3438C92.1951 13.3438 88.0781 17.4558 88.0781 22.5183C88.0781 25.486 89.4439 28.0269 91.5707 29.7144C93.0537 30.8782 95.122 31.6929 97.8927 31.6929C99.239 31.6929 102.732 31.3244 105.249 28.5506L103.181 25.7963C102.302 26.5722 100.098 27.6584 98.3415 27.6584C96.1171 27.6584 94.7708 27.2317 93.7951 26.32C93.1903 25.7769 92.761 24.9429 92.5659 23.9149H106.283C106.361 23.4494 106.42 23.0032 106.42 22.5183ZM92.6049 20.8502C93.1122 18.6972 94.6342 17.1067 97.2293 17.1067C99.9415 17.1067 101.366 18.8136 101.834 20.8502H92.6049Z" fill="#00306D"/>
<path d="M75.4732 11.6562H70.6927V16.7575H65.7756V21.2188H70.6927V26.514H75.4732V21.2188H80.3902V16.7575H75.4732V11.6562Z" fill="#00306D"/>
</g>
</svg>
