<svg width="64" height="64" viewBox="0 0 64 64" fill="none" xmlns="http://www.w3.org/2000/svg">
<g clip-path="url(#clip0_10570_3317)">
<path d="M32.7442 36.7209C42.6083 36.7209 50.6047 28.7245 50.6047 18.8605C50.6047 8.9964 42.6083 1 32.7442 1C22.8801 1 14.8837 8.9964 14.8837 18.8605C14.8837 28.7245 22.8801 36.7209 32.7442 36.7209Z" fill="#036C70"/>
<path d="M47.6279 51.6036C56.67 51.6036 64 44.2735 64 35.2315C64 26.1894 56.67 18.8594 47.6279 18.8594C38.5858 18.8594 31.2558 26.1894 31.2558 35.2315C31.2558 44.2735 38.5858 51.6036 47.6279 51.6036Z" fill="#1A9BA1"/>
<path d="M34.9767 63.5132C41.9638 63.5132 47.6279 57.8491 47.6279 50.8621C47.6279 43.8751 41.9638 38.2109 34.9767 38.2109C27.9897 38.2109 22.3256 43.8751 22.3256 50.8621C22.3256 57.8491 27.9897 63.5132 34.9767 63.5132Z" fill="#37C6D0"/>
<path opacity="0.1" d="M35.7209 17.1183V48.8801C35.7136 49.9838 35.0448 50.9752 34.0242 51.3954C33.6992 51.5329 33.35 51.6037 32.9972 51.6038H22.3405C22.3256 51.3508 22.3256 51.1127 22.3256 50.8596C22.3207 50.6112 22.3306 50.3627 22.3554 50.1154C22.6278 45.3578 25.5587 41.1601 29.9312 39.2652V36.4968C20.2001 34.9548 13.5615 25.816 15.1036 16.0849C15.1143 16.0175 15.1253 15.9502 15.1368 15.8829C15.2109 15.3809 15.3153 14.8839 15.4493 14.3945H32.9973C34.4991 14.4002 35.7152 15.6164 35.7209 17.1183Z" fill="black"/>
<path opacity="0.2" d="M31.5088 15.8828H15.1367C13.4828 25.5964 20.0165 34.8116 29.73 36.4655C30.0242 36.5155 30.3195 36.5582 30.6158 36.5935C26.0018 38.7814 22.6396 44.9954 22.3538 50.1154C22.3291 50.3626 22.3191 50.6111 22.324 50.8596C22.324 51.1126 22.324 51.3507 22.3389 51.6037C22.3658 52.104 22.4305 52.6016 22.5324 53.0921H31.5073C32.6109 53.0847 33.6024 52.4159 34.0226 51.3954C34.1601 51.0704 34.2309 50.7212 34.231 50.3684V18.6065C34.2254 17.1052 33.0101 15.8894 31.5088 15.8828Z" fill="black"/>
<path opacity="0.2" d="M31.5089 15.8828H15.1368C13.4832 25.5973 20.0179 34.8129 29.7324 36.4665C29.9311 36.5003 30.1303 36.5307 30.3301 36.5578C25.865 38.9035 22.6352 45.1026 22.3554 50.1154H31.5089C33.0084 50.104 34.2213 48.8912 34.2326 47.3917V18.6065C34.2269 17.1046 33.0108 15.8885 31.5089 15.8828Z" fill="black"/>
<path opacity="0.2" d="M30.0205 15.8828H15.1368C13.5754 25.0534 19.3217 33.8848 28.3386 36.1723C24.9244 40.0732 22.8303 44.9532 22.3554 50.1154H30.0205C31.5224 50.1097 32.7385 48.8936 32.7442 47.3917V18.6065C32.7434 17.1026 31.5244 15.8836 30.0205 15.8828Z" fill="black"/>
<path d="M2.72819 15.8828H30.016C31.5227 15.8828 32.7442 17.1043 32.7442 18.611V45.8988C32.7442 47.4055 31.5227 48.627 30.016 48.627H2.72819C1.22145 48.627 0 47.4055 0 45.8988V18.611C0 17.1043 1.22145 15.8828 2.72819 15.8828Z" fill="url(#paint0_linear_10570_3317)"/>
<path d="M12.1853 31.9221C11.5459 31.498 11.0119 30.9335 10.624 30.2715C10.2481 29.5795 10.0607 28.8009 10.0807 28.0136C10.0472 26.9478 10.4069 25.9068 11.0913 25.089C11.8105 24.2702 12.74 23.6638 13.7793 23.3357C14.9637 22.9458 16.2043 22.7537 17.4511 22.7671C19.0908 22.7072 20.7281 22.9365 22.2883 23.4444V26.8676C21.6104 26.457 20.872 26.1556 20.1004 25.9746C19.2631 25.7693 18.404 25.6663 17.5419 25.668C16.6328 25.6346 15.7295 25.8258 14.9119 26.2246C14.2807 26.4969 13.8714 27.1179 13.8701 27.8053C13.8675 28.2223 14.0277 28.6238 14.3166 28.9246C14.6578 29.2791 15.0614 29.5677 15.5073 29.7759C16.0034 30.023 16.7476 30.3514 17.7398 30.7612C17.8491 30.7958 17.9556 30.8386 18.0583 30.8892C19.0349 31.2709 19.977 31.7355 20.8744 32.2779C21.5539 32.6969 22.1242 33.2713 22.5384 33.9538C22.963 34.7275 23.1688 35.6022 23.1337 36.484C23.1822 37.5783 22.8474 38.6553 22.1871 39.5292C21.529 40.3327 20.649 40.9249 19.6569 41.2319C18.4899 41.5977 17.2719 41.7746 16.049 41.7558C14.9519 41.7608 13.8564 41.6712 12.7746 41.4879C11.8612 41.3385 10.9699 41.0765 10.1209 40.708V37.0987C10.9324 37.6783 11.8391 38.1115 12.8 38.3787C13.7575 38.6771 14.753 38.8365 15.7559 38.852C16.6841 38.9108 17.6106 38.7142 18.4349 38.2835C19.0124 37.9576 19.3636 37.3404 19.3488 36.6775C19.3527 36.2163 19.1702 35.773 18.8428 35.4481C18.4356 35.0484 17.9641 34.7199 17.4482 34.4762C16.8528 34.1785 15.9762 33.7861 14.8182 33.2989C13.897 32.9285 13.015 32.4674 12.1853 31.9221Z" fill="white"/>
</g>
<defs>
<linearGradient id="paint0_linear_10570_3317" x1="5.68833" y1="13.7511" x2="27.0559" y2="50.7588" gradientUnits="userSpaceOnUse">
<stop stop-color="#058F92"/>
<stop offset="0.5" stop-color="#038489"/>
<stop offset="1" stop-color="#026D71"/>
</linearGradient>
<clipPath id="clip0_10570_3317">
<rect width="64" height="62.5116" fill="white" transform="translate(0 1)"/>
</clipPath>
</defs>
</svg>
