<svg width="64" height="64" viewBox="0 0 64 64" fill="none" xmlns="http://www.w3.org/2000/svg">
<g clip-path="url(#clip0_10570_6247)">
<path d="M44.6407 24.3242H61.1721C62.7339 24.3242 64 25.5903 64 27.1521V42.21C64 47.9501 59.3468 52.6033 53.6067 52.6033H53.5576C47.8175 52.6041 43.1636 47.9515 43.1628 42.2114C43.1628 42.211 43.1628 42.2105 43.1628 42.21V25.8022C43.1628 24.9859 43.8245 24.3242 44.6407 24.3242Z" fill="#5059C9"/>
<path d="M55.8139 21.3485C59.513 21.3485 62.5116 18.3498 62.5116 14.6508C62.5116 10.9518 59.513 7.95312 55.8139 7.95312C52.1149 7.95312 49.1163 10.9518 49.1163 14.6508C49.1163 18.3498 52.1149 21.3485 55.8139 21.3485Z" fill="#5059C9"/>
<path d="M34.9767 21.3489C40.3198 21.3489 44.6512 17.0175 44.6512 11.6744C44.6512 6.33139 40.3198 2 34.9767 2C29.6337 2 25.3023 6.33139 25.3023 11.6744C25.3023 17.0175 29.6337 21.3489 34.9767 21.3489Z" fill="#7B83EB"/>
<path d="M47.8765 24.3242H20.5886C19.0454 24.3624 17.8247 25.6431 17.8605 27.1864V44.3607C17.645 53.6217 24.9718 61.3069 34.2326 61.5335C43.4933 61.3069 50.8202 53.6217 50.6047 44.3607V27.1864C50.6404 25.6431 49.4197 24.3624 47.8765 24.3242Z" fill="#7B83EB"/>
<path opacity="0.1" d="M35.7209 24.3242V48.3912C35.7135 49.4948 35.0447 50.4863 34.0242 50.9065C33.6993 51.044 33.35 51.1148 32.9972 51.1149H19.1702C18.9768 50.6238 18.7982 50.1326 18.6493 49.6266C18.1283 47.9187 17.8625 46.1433 17.8604 44.3577V27.1819C17.8247 25.6411 19.0434 24.3624 20.5842 24.3242H35.7209Z" fill="black"/>
<path opacity="0.2" d="M34.2326 24.3242V49.8796C34.2325 50.2324 34.1617 50.5816 34.0242 50.9065C33.604 51.9271 32.6125 52.5959 31.5089 52.6033H19.8698C19.6167 52.1121 19.3786 51.621 19.1702 51.1149C18.9619 50.6089 18.7982 50.1326 18.6493 49.6266C18.1283 47.9187 17.8625 46.1433 17.8604 44.3577V27.1819C17.8247 25.6411 19.0434 24.3624 20.5842 24.3242H34.2326Z" fill="black"/>
<path opacity="0.2" d="M34.2326 24.3242V46.9028C34.2212 48.4024 33.0084 49.6152 31.5089 49.6266H18.6493C18.1283 47.9187 17.8625 46.1433 17.8605 44.3577V27.1819C17.8247 25.6411 19.0435 24.3624 20.5842 24.3242H34.2326Z" fill="black"/>
<path opacity="0.2" d="M32.7442 24.3242V46.9028C32.7329 48.4024 31.52 49.6152 30.0205 49.6266H18.6493C18.1283 47.9187 17.8625 46.1433 17.8605 44.3577V27.1819C17.8247 25.6411 19.0435 24.3624 20.5842 24.3242H32.7442Z" fill="black"/>
<path opacity="0.1" d="M35.7209 16.6299V21.3183C35.4679 21.3332 35.2298 21.3481 34.9767 21.3481C34.7237 21.3481 34.4856 21.3332 34.2325 21.3183C33.7302 21.285 33.2319 21.2053 32.7442 21.0802C29.7302 20.3664 27.2402 18.2527 26.0465 15.3946C25.8411 14.9146 25.6817 14.4163 25.5702 13.9062H32.9972C34.4991 13.9119 35.7152 15.128 35.7209 16.6299Z" fill="black"/>
<path opacity="0.2" d="M34.2326 18.1182V21.3182C33.7302 21.2849 33.2319 21.2052 32.7442 21.0801C29.7302 20.3663 27.2402 18.2526 26.0465 15.3945H31.5089C33.0107 15.4002 34.2269 16.6163 34.2326 18.1182Z" fill="black"/>
<path opacity="0.2" d="M34.2326 18.1182V21.3182C33.7302 21.2849 33.2319 21.2052 32.7442 21.0801C29.7302 20.3663 27.2402 18.2526 26.0465 15.3945H31.5089C33.0107 15.4002 34.2269 16.6163 34.2326 18.1182Z" fill="black"/>
<path opacity="0.2" d="M32.7442 18.1183V21.0801C29.7302 20.3663 27.2402 18.2526 26.0465 15.3945H30.0205C31.5224 15.4002 32.7385 16.6164 32.7442 18.1183Z" fill="black"/>
<path d="M2.72817 15.3945H30.016C31.5227 15.3945 32.7442 16.616 32.7442 18.1227V45.4105C32.7442 46.9172 31.5227 48.1387 30.016 48.1387H2.72817C1.22143 48.1387 0 46.9172 0 45.4105V18.1227C0 16.616 1.22146 15.3945 2.72817 15.3945Z" fill="url(#paint0_linear_10570_6247)"/>
<path d="M23.552 25.7799H18.0971V40.6339H14.6218V25.7799H9.1922V22.8984H23.552V25.7799Z" fill="white"/>
</g>
<defs>
<linearGradient id="paint0_linear_10570_6247" x1="5.68833" y1="13.2628" x2="27.0559" y2="50.2705" gradientUnits="userSpaceOnUse">
<stop stop-color="#5A62C3"/>
<stop offset="0.5" stop-color="#4D55BD"/>
<stop offset="1" stop-color="#3940AB"/>
</linearGradient>
<clipPath id="clip0_10570_6247">
<rect width="64" height="59.5349" fill="white" transform="translate(0 2)"/>
</clipPath>
</defs>
</svg>
