<svg width="414" height="260" viewBox="0 0 644 405" fill="none" xmlns="http://www.w3.org/2000/svg">
<rect width="644" height="404.444" rx="16" fill="var(--_illustration-system-composition-background, #EFF2FC)"/>
<g style="mix-blend-mode:multiply">
<path d="M537.232 158.667C537.232 170.481 518.916 178.56 514.655 188.852C510.394 199.145 517.311 218.153 509.288 226.177C501.264 234.2 482.616 227.145 471.964 231.544C461.311 235.943 453.592 254.121 441.778 254.121C429.964 254.121 421.885 235.805 411.592 231.544C401.3 227.283 382.292 234.2 374.268 226.177C366.244 218.153 373.3 199.505 368.9 188.852C364.501 178.2 346.323 170.481 346.323 158.667C346.323 146.852 364.639 138.773 368.9 128.481C373.161 118.188 366.244 99.1805 374.268 91.1568C382.292 83.1331 400.94 90.1884 411.592 85.7892C422.244 81.39 429.964 63.2122 441.778 63.2122C453.592 63.2122 461.671 81.5284 471.964 85.7892C482.256 90.0501 501.264 83.1331 509.288 91.1568C517.311 99.1805 510.256 117.829 514.655 128.481C519.054 139.133 537.232 146.852 537.232 158.667Z" fill="var(--_illustration-system-composition-tertiary-2, #00A3AF)"/>
</g>
<g style="mix-blend-mode:multiply">
<path fill-rule="evenodd" clip-rule="evenodd" d="M476.363 304.744L498.823 291.777H472.889L472.889 280.666H498.823L476.363 267.699L481.919 258.077L504.375 271.042L491.41 248.587L501.033 243.031L514 265.491V239.556H525.111V265.487L538.077 243.029L547.7 248.585L534.733 271.045L557.193 258.077L562.748 267.7L540.29 280.666H566.222V291.777H540.29L562.748 304.744L557.193 314.366L534.731 301.398L547.7 323.86L538.077 329.416L525.111 306.958V332.889H514V306.955L501.033 329.414L491.411 323.858L504.377 301.401L481.919 314.367L476.363 304.744Z" fill="var(--_illustration-system-composition-tertiary-1, #8FAEFE)"/>
</g>
<g style="mix-blend-mode:multiply">
<path d="M208.399 129.111L56.4672 129.111L164.935 325.111L316.867 325.111L208.399 129.111Z" fill="var(--_illustration-system-composition-primary, #0A69CF)"/>
</g>
<g style="mix-blend-mode:multiply">
<rect x="186.667" y="56.0005" width="124.444" height="124.444" fill="var(--_illustration-system-composition-accent, #F84258)"/>
</g>
<g style="mix-blend-mode:multiply">
<path fill-rule="evenodd" clip-rule="evenodd" d="M130.667 301.778C130.667 286.314 118.131 273.778 102.667 273.778V242.667C135.313 242.667 161.778 269.132 161.778 301.778C161.778 334.425 135.313 360.889 102.667 360.889V329.778C118.131 329.778 130.667 317.242 130.667 301.778Z" fill="var(--_illustration-system-composition-secondary, #428CFE)"/>
</g>
</svg>
