<svg width="172" height="172" viewBox="0 0 172 172" fill="none" xmlns="http://www.w3.org/2000/svg">
<rect width="172" height="172" rx="86" fill="white"/>
<g style="mix-blend-mode:multiply">
<path d="M82.9785 60.4635L131.449 96.9083L82.9785 133.353L34.5077 96.9083L82.9785 60.4635Z" fill="var(--_illustration-system-composition-primary, #0A69CF)"/>
</g>
<g style="mix-blend-mode:multiply">
<path fill-rule="evenodd" clip-rule="evenodd" d="M34.0453 118.024L43.181 112.75H32.6318L32.6318 108.23H43.181L34.0453 102.956L36.3051 99.0417L45.4394 104.315L40.1659 95.1813L44.08 92.9215L49.3546 102.057V91.5078H53.8743V102.056L59.1486 92.9208L63.0627 95.1806L57.788 104.317L66.924 99.0419L69.1838 102.956L60.0485 108.23H70.5969V112.75H60.0485L69.1838 118.024L66.924 121.938L57.7873 116.663L63.0626 125.8L59.1484 128.06L53.8743 118.925V129.473H49.3546V118.924L44.0801 128.059L40.166 125.799L45.4401 116.664L36.3051 121.939L34.0453 118.024Z" fill="var(--_illustration-system-composition-tertiary-1, #8FAEFE)"/>
</g>
<g style="mix-blend-mode:multiply">
<path fill-rule="evenodd" clip-rule="evenodd" d="M109.184 71.4492C118.96 71.4492 126.886 63.5237 126.886 53.7472C126.886 43.9707 118.96 36.0452 109.184 36.0452C99.4072 36.0452 91.4818 43.9707 91.4818 53.7472C91.4818 63.5237 99.4072 71.4492 109.184 71.4492ZM109.184 82.7483C125.201 82.7483 138.185 69.7641 138.185 53.7472C138.185 37.7303 125.201 24.7461 109.184 24.7461C93.1669 24.7461 80.1826 37.7303 80.1826 53.7472C80.1826 69.7641 93.1669 82.7483 109.184 82.7483Z" fill="var(--_illustration-system-composition-accent, #F84258)"/>
</g>
</svg>
