<svg width="172" height="172" viewBox="0 0 172 172" fill="none" xmlns="http://www.w3.org/2000/svg">
<rect width="172" height="172" rx="86" fill="white"/>
<g style="mix-blend-mode:multiply">
<path fill-rule="evenodd" clip-rule="evenodd" d="M94.1225 60.402C94.1225 46.3072 82.6964 34.881 68.6016 34.881V16.3203C92.9472 16.3203 112.683 36.0564 112.683 60.402C112.683 84.7476 92.9472 104.484 68.6016 104.484V85.923C82.6964 85.923 94.1225 74.4968 94.1225 60.402Z" fill="var(--_illustration-system-composition-primary, #0A69CF)"/>
</g>
<g style="mix-blend-mode:multiply">
<path d="M109.39 103.31C109.39 105.816 113.275 107.53 114.179 109.713C115.083 111.896 113.615 115.928 115.317 117.63C117.019 119.332 120.975 117.836 123.235 118.769C125.494 119.702 127.132 123.558 129.638 123.558C132.144 123.558 133.858 119.673 136.041 118.769C138.224 117.865 142.256 119.332 143.958 117.63C145.66 115.928 144.163 111.972 145.097 109.713C146.03 107.453 149.886 105.816 149.886 103.31C149.886 100.804 146 99.09 145.097 96.9067C144.193 94.7235 145.66 90.6915 143.958 88.9895C142.256 87.2874 138.3 88.784 136.041 87.8509C133.781 86.9177 132.144 83.0618 129.638 83.0618C127.132 83.0618 125.418 86.947 123.235 87.8509C121.051 88.7547 117.019 87.2874 115.317 88.9895C113.615 90.6915 115.112 94.6472 114.179 96.9067C113.246 99.1663 109.39 100.804 109.39 103.31Z" fill="var(--_illustration-system-composition-accent, #F84258)"/>
</g>
<g style="mix-blend-mode:multiply">
<path d="M38.7392 93.9077H92.7141L78.1409 139.606H24.166L38.7392 93.9077Z" fill="var(--_illustration-system-composition-tertiary-1, #8FAEFE)"/>
</g>
</svg>
