<svg width="172" height="172" viewBox="0 0 172 172" fill="none" xmlns="http://www.w3.org/2000/svg">
<rect width="172" height="172" rx="86" fill="white"/>
<g style="mix-blend-mode:multiply">
<ellipse cx="86.0023" cy="60.4017" rx="36.9105" ry="36.9105" fill="var(--_illustration-system-composition-primary, #0A69CF)"/>
</g>
<g style="mix-blend-mode:multiply">
<path fill-rule="evenodd" clip-rule="evenodd" d="M132.958 107.479C127.511 110.624 120.545 108.758 117.4 103.31L106.44 109.638C113.08 121.138 127.786 125.078 139.286 118.439C150.786 111.799 154.727 97.0935 148.087 85.5931L137.127 91.9207C140.272 97.3682 138.406 104.334 132.958 107.479Z" fill="var(--_illustration-system-composition-accent, #F84258)"/>
</g>
<g style="mix-blend-mode:multiply">
<path d="M82.3655 116.779C82.3655 119.716 77.8125 121.724 76.7533 124.283C75.6941 126.841 77.4136 131.566 75.419 133.561C73.4245 135.555 68.7889 133.801 66.141 134.895C63.493 135.988 61.5742 140.507 58.6374 140.507C55.7006 140.507 53.6923 135.954 51.1338 134.895C48.5752 133.836 43.8502 135.555 41.8557 133.561C39.8611 131.566 41.615 126.93 40.5214 124.283C39.4279 121.635 34.9092 119.716 34.9092 116.779C34.9092 113.842 39.4622 111.834 40.5214 109.275C41.5806 106.717 39.8611 101.992 41.8557 99.9973C43.8502 98.0027 48.4858 99.7566 51.1338 98.663C53.7817 97.5695 55.7006 93.0508 58.6374 93.0508C61.5742 93.0508 63.5825 97.6038 66.141 98.663C68.6995 99.7222 73.4245 98.0027 75.419 99.9973C77.4136 101.992 75.6598 106.627 76.7533 109.275C77.8469 111.923 82.3655 113.842 82.3655 116.779Z" fill="var(--_illustration-system-composition-tertiary-1, #8FAEFE)"/>
</g>
</svg>
