<svg width="172" height="172" viewBox="0 0 172 172" fill="none" xmlns="http://www.w3.org/2000/svg">
<rect width="172" height="172" rx="86" fill="white"/>
<g style="mix-blend-mode:multiply">
<path d="M43.8193 80.0777C43.8193 80.0777 53.1598 90.9849 64.6481 90.9849C70.3968 90.9849 75.6909 88.1624 79.5679 85.3132C83.4448 82.464 88.6231 82.5085 92.4288 85.3132C96.2345 88.1178 101.6 90.9849 107.348 90.9849C118.846 90.9849 128.186 80.0777 128.186 80.0777L127.812 30.6173C122.295 30.6173 117.402 33.1816 113.792 35.8616C109.933 38.7286 104.648 38.8177 100.762 35.9952C96.8762 33.1727 91.6712 30.4392 86.0028 30.4392C80.3343 30.4392 75.0759 33.2083 71.2078 36.0219C67.3397 38.8355 62.0724 38.7732 58.2221 35.924C54.3719 33.0747 49.5947 30.6173 44.0332 30.6173" fill="var(--_illustration-system-composition-primary, #0A69CF)"/>
</g>
<g style="mix-blend-mode:multiply">
<path d="M115.92 85.3821H156.002L143.354 121.238H103.272L115.92 85.3821Z" fill="var(--_illustration-system-composition-accent, #F84258)"/>
</g>
<g style="mix-blend-mode:multiply">
<path fill-rule="evenodd" clip-rule="evenodd" d="M80.4718 125.876L69.5094 119.547H82.168L82.168 113.615H69.5078L80.4718 107.285L77.5058 102.148L66.5444 108.476L72.8728 97.5151L67.7355 94.5491L61.4059 105.512V92.8528H55.4738V105.511L49.1444 94.5485L44.0071 97.5145L50.3366 108.478L39.3734 102.148L36.4073 107.285L47.3707 113.615H34.7116V119.547H47.3691L36.4073 125.876L39.3734 131.013L50.3378 124.683L44.0073 135.648L49.1446 138.614L55.4738 127.651V140.309H61.4059V127.65L67.7353 138.613L72.8726 135.647L66.5433 124.684L77.5058 131.014L80.4718 125.876Z" fill="var(--_illustration-system-composition-tertiary-1, #8FAEFE)"/>
</g>
</svg>
