<svg width="172" height="172" viewBox="0 0 172 172" fill="none" xmlns="http://www.w3.org/2000/svg">
<rect width="172" height="172" rx="86" fill="white"/>
<g style="mix-blend-mode:multiply">
<rect x="76.0781" y="93.6406" width="48.2096" height="48.2096" fill="var(--_illustration-system-composition-tertiary-2, #00A3AF)"/>
</g>
<g style="mix-blend-mode:multiply">
<path fill-rule="evenodd" clip-rule="evenodd" d="M62.6741 79.7037C72.6407 89.6703 88.7997 89.6703 98.7662 79.7037L111.891 92.8281C94.6757 110.043 66.7647 110.043 49.5497 92.8281C32.3347 75.6131 32.3347 47.7022 49.5497 30.4872L62.6741 43.6116C52.7075 53.5782 52.7075 69.7371 62.6741 79.7037Z" fill="var(--_illustration-system-composition-primary, #0A69CF)"/>
</g>
<g style="mix-blend-mode:multiply">
<path d="M112.133 109.45H124.588C127.717 109.45 130.72 108.206 132.935 105.99L141.745 97.1803C143.961 94.9648 145.205 91.9625 145.205 88.833V76.3785C145.205 73.2489 143.961 70.2467 141.745 68.0311L132.935 59.221C130.72 57.0054 127.717 55.7617 124.588 55.7617L112.133 55.7617C109.004 55.7617 106.002 57.0054 103.786 59.221L94.9759 68.0311C92.7603 70.2467 91.5166 73.2489 91.5166 76.3785V88.833C91.5166 91.9625 92.7603 94.9648 94.9759 97.1803L103.786 105.99C106.002 108.206 109.004 109.45 112.133 109.45Z" fill="var(--_illustration-system-composition-accent, #F84258)"/>
</g>
</svg>
