<svg width="172" height="172" viewBox="0 0 172 172" fill="none" xmlns="http://www.w3.org/2000/svg">
<rect width="172" height="172" rx="86" fill="white"/>
<g style="mix-blend-mode:multiply">
<path d="M98.1826 58.1602L40.7633 115.579L73.5744 148.39L130.994 90.9712L98.1826 58.1602Z" fill="var(--_illustration-system-composition-primary, #0A69CF)"/>
</g>
<g style="mix-blend-mode:multiply">
<path d="M94.2139 93.1016L135.973 51.3421L112.111 27.4795L70.3513 69.239L94.2139 93.1016Z" fill="var(--_illustration-system-composition-accent, #F84258)"/>
</g>
<g style="mix-blend-mode:multiply">
<path d="M28.3896 68.3106C28.3896 70.8166 32.2749 72.5304 33.1787 74.7136C34.0826 76.8969 32.6153 80.9289 34.3173 82.6309C36.0193 84.3329 39.975 82.8363 42.2346 83.7695C44.4942 84.7027 46.1316 88.5586 48.6377 88.5586C51.1438 88.5586 52.8575 84.6733 55.0408 83.7695C57.224 82.8657 61.256 84.3329 62.9581 82.6309C64.6601 80.9289 63.1635 76.9732 64.0966 74.7136C65.0298 72.4541 68.8857 70.8166 68.8857 68.3106C68.8857 65.8045 65.0005 64.0907 64.0966 61.9075C63.1928 59.7242 64.6601 55.6922 62.9581 53.9902C61.256 52.2882 57.3003 53.7848 55.0408 52.8516C52.7812 51.9184 51.1438 48.0625 48.6377 48.0625C46.1316 48.0625 44.4179 51.9478 42.2346 52.8516C40.0513 53.7554 36.0193 52.2882 34.3173 53.9902C32.6153 55.6922 34.1119 59.6479 33.1787 61.9075C32.2456 64.167 28.3896 65.8045 28.3896 68.3106Z" fill="var(--_illustration-system-composition-secondary, #428CFE)"/>
</g>
</svg>
