<svg width="172" height="172" viewBox="0 0 172 172" fill="none" xmlns="http://www.w3.org/2000/svg">
<rect width="172" height="172" rx="86" fill="white"/>
<g style="mix-blend-mode:multiply">
<path d="M98.1826 58.1602L40.7633 115.579L73.5744 148.39L130.994 90.9712L98.1826 58.1602Z" fill="var(--_illustration-system-composition-primary, #0A69CF)"/>
</g>
<g style="mix-blend-mode:multiply">
<path d="M94.2139 93.1L135.973 51.3405L112.111 27.4779L70.3513 69.2374L94.2139 93.1Z" fill="var(--_illustration-system-composition-accent, #F84258)"/>
</g>
<g style="mix-blend-mode:multiply">
<path d="M28.3896 68.3098C28.3896 70.8159 32.2749 72.5296 33.1787 74.7129C34.0826 76.8962 32.6153 80.9282 34.3173 82.6302C36.0193 84.3322 39.975 82.8356 42.2346 83.7688C44.4942 84.7019 46.1316 88.5579 48.6377 88.5579C51.1438 88.5579 52.8575 84.6726 55.0408 83.7688C57.224 82.8649 61.256 84.3322 62.9581 82.6302C64.6601 80.9282 63.1635 76.9725 64.0966 74.7129C65.0298 72.4533 68.8857 70.8159 68.8857 68.3098C68.8857 65.8038 65.0005 64.09 64.0966 61.9067C63.1928 59.7235 64.6601 55.6915 62.9581 53.9895C61.256 52.2874 57.3003 53.784 55.0408 52.8509C52.7812 51.9177 51.1438 48.0618 48.6377 48.0618C46.1316 48.0618 44.4179 51.947 42.2346 52.8509C40.0513 53.7547 36.0193 52.2874 34.3173 53.9895C32.6153 55.6915 34.1119 59.6472 33.1787 61.9067C32.2456 64.1663 28.3896 65.8038 28.3896 68.3098Z" fill="var(--ex-getStartedIcon, #CC9FD9)"/>
</g>
</svg>
