<svg width="170" height="172" viewBox="0 0 170 172" fill="none" xmlns="http://www.w3.org/2000/svg">
<rect width="170" height="172" rx="85" fill="white"/>
<g style="mix-blend-mode:multiply">
<path fill-rule="evenodd" clip-rule="evenodd" d="M92.174 126.583C100.69 131.557 111.579 128.605 116.496 119.989C121.412 111.373 118.495 100.356 109.979 95.3813C101.463 90.4068 90.5737 93.3589 85.6571 101.975C80.7404 110.591 83.6582 121.608 92.174 126.583ZM78.2321 107.94C78.627 104.905 79.609 101.978 81.1219 99.3267L74.4704 95.4413C72.4532 98.9763 71.1439 102.879 70.6173 106.926C70.0907 110.973 70.3571 115.085 71.4013 119.028C72.4455 122.971 74.247 126.667 76.7031 129.905C79.1591 133.144 82.2215 135.861 85.7154 137.902C89.2094 139.943 93.0664 141.268 97.0664 141.8C101.066 142.333 105.131 142.064 109.028 141.007C112.925 139.951 116.578 138.128 119.779 135.643C122.979 133.158 125.665 130.06 127.682 126.525L121.031 122.639C119.518 125.29 117.504 127.614 115.103 129.478C112.703 131.342 109.963 132.709 107.04 133.501C104.117 134.293 101.069 134.496 98.0689 134.096C95.0689 133.696 92.1761 132.703 89.5557 131.172C86.9352 129.641 84.6384 127.603 82.7964 125.175C80.9544 122.746 79.6032 119.974 78.8201 117.017C78.0369 114.06 77.8371 110.975 78.2321 107.94Z" fill="var(--_illustration-system-composition-tertiary-2, #00A3AF)"/>
</g>
<g style="mix-blend-mode:multiply">
<path fill-rule="evenodd" clip-rule="evenodd" d="M70.2795 76.9858C84.2105 76.9858 95.5037 65.5597 95.5037 51.4648L113.849 51.4648C113.849 75.8105 94.3421 95.5465 70.2795 95.5465C46.217 95.5465 26.7104 75.8105 26.7104 51.4648L45.0553 51.4648C45.0553 65.5597 56.3486 76.9858 70.2795 76.9858Z" fill="var(--_illustration-system-composition-primary, #0A69CF)"/>
</g>
<g style="mix-blend-mode:multiply">
<ellipse cx="116.984" cy="79.9221" rx="26.5319" ry="26.844" fill="var(--_illustration-system-composition-accent, #F84258)"/>
</g>
</svg>
