<svg width="172" height="172" viewBox="0 0 172 172" fill="none" xmlns="http://www.w3.org/2000/svg">
<rect width="172" height="172" rx="86" fill="white"/>
<g style="mix-blend-mode:multiply">
<path fill-rule="evenodd" clip-rule="evenodd" d="M105.658 125.289C99.0683 131.878 88.3846 131.878 81.7952 125.289L71.5684 135.516C83.8059 147.753 103.647 147.753 115.885 135.516C128.122 123.278 128.122 103.437 115.885 91.1995L105.658 101.426C112.247 108.016 112.247 118.699 105.658 125.289Z" fill="var(--_illustration-system-composition-tertiary-2, #00A3AF)"/>
</g>
<g style="mix-blend-mode:multiply">
<path fill-rule="evenodd" clip-rule="evenodd" d="M105.469 83.1716L88.9961 73.661H108.018L108.018 64.0739H88.9953L105.469 54.5628L100.675 46.2601L84.2052 55.7691L93.7141 39.2992L85.4114 34.5056L75.9007 50.9787V31.957H66.3135V50.9771L56.8032 34.5048L48.5005 39.2984L58.0117 55.7722L41.538 46.2611L36.7445 54.5638L53.2163 64.0739H34.1966V73.661H53.2155L36.7445 83.1706L41.538 91.4733L58.0126 81.9617L48.5009 98.4365L56.8036 103.23L66.3135 86.7584V105.778H75.9007V86.7568L85.411 103.229L93.7138 98.4357L84.2042 81.9647L100.675 91.4743L105.469 83.1716Z" fill="var(--_illustration-system-composition-primary, #0A69CF)"/>
</g>
<g style="mix-blend-mode:multiply">
<path d="M127.22 49.7031L85.4603 91.4626L109.323 115.325L151.082 73.5657L127.22 49.7031Z" fill="var(--_illustration-system-composition-accent, #F84258)"/>
</g>
</svg>
