<svg width="172" height="172" viewBox="0 0 172 172" fill="none" xmlns="http://www.w3.org/2000/svg">
<rect width="172" height="172" rx="86" fill="white"/>
<g style="mix-blend-mode:multiply">
<path fill-rule="evenodd" clip-rule="evenodd" d="M82.9785 121.732C96.6657 121.732 107.761 110.636 107.761 96.9492C107.761 83.2621 96.6657 72.1664 82.9785 72.1664C69.2914 72.1664 58.1957 83.2621 58.1957 96.9492C58.1957 110.636 69.2914 121.732 82.9785 121.732ZM82.9785 137.551C105.402 137.551 123.58 119.373 123.58 96.9492C123.58 74.5256 105.402 56.3477 82.9785 56.3477C60.5549 56.3477 42.377 74.5256 42.377 96.9492C42.377 119.373 60.5549 137.551 82.9785 137.551Z" fill="var(--_illustration-system-composition-primary, #0A69CF)"/>
</g>
<g style="mix-blend-mode:multiply">
<path d="M46.0772 132.637L74.4139 104.3L58.2215 88.1075L29.8847 116.444L46.0772 132.637Z" fill="var(--_illustration-system-composition-tertiary-1, #8FAEFE)"/>
</g>
<g style="mix-blend-mode:multiply">
<path d="M136.527 53.9734C136.527 57.3297 131.323 59.6249 130.113 62.5489C128.902 65.473 130.867 70.873 128.588 73.1524C126.309 75.4319 121.011 73.4276 117.984 74.6773C114.958 75.9271 112.765 81.0913 109.409 81.0913C106.053 81.0913 103.757 75.8878 100.833 74.6773C97.9094 73.4669 92.5094 75.4319 90.2299 73.1524C87.9504 70.873 89.9548 65.5751 88.705 62.5489C87.4552 59.5227 82.291 57.3297 82.291 53.9734C82.291 50.6171 87.4945 48.3219 88.705 45.3978C89.9155 42.4738 87.9504 37.0738 90.2299 34.7943C92.5094 32.5149 97.8072 34.5192 100.833 33.2694C103.86 32.0197 106.053 26.8555 109.409 26.8555C112.765 26.8555 115.06 32.059 117.984 33.2694C120.909 34.4799 126.309 32.5149 128.588 34.7943C130.867 37.0738 128.863 42.3716 130.113 45.3978C131.363 48.424 136.527 50.6171 136.527 53.9734Z" fill="var(--_illustration-system-composition-accent, #F84258)"/>
</g>
</svg>
