<svg width="172" height="172" viewBox="0 0 172 172" fill="none" xmlns="http://www.w3.org/2000/svg">
<rect width="172" height="172" rx="86" fill="white"/>
<g style="mix-blend-mode:multiply">
<path d="M74.4164 133.86H91.5413C95.8444 133.86 99.9726 132.15 103.019 129.104L115.133 116.99C118.179 113.943 119.889 109.815 119.889 105.512V88.3871C119.889 84.084 118.179 79.9559 115.133 76.9095L103.019 64.7956C99.9726 61.7492 95.8444 60.0391 91.5413 60.0391H74.4164C70.1133 60.0391 65.9852 61.7492 62.9388 64.7956L50.8248 76.9095C47.7785 79.9559 46.0684 84.084 46.0684 88.3871V105.512C46.0684 109.815 47.7785 113.943 50.8248 116.99L62.9388 129.104C65.9852 132.15 70.1133 133.86 74.4164 133.86Z" fill="var(--_illustration-system-composition-primary, #0A69CF)"/>
</g>
<g style="mix-blend-mode:multiply">
<path fill-rule="evenodd" clip-rule="evenodd" d="M51.6136 107.958C57.9039 107.958 63.0032 113.057 63.0032 119.348L75.6582 119.348C75.6582 106.068 64.8931 95.3031 51.6136 95.3031C38.3342 95.3031 27.5691 106.068 27.5691 119.348L40.2241 119.348C40.2241 113.057 45.3234 107.958 51.6136 107.958Z" fill="var(--_illustration-system-composition-tertiary-1, #8FAEFE)"/>
</g>
<g style="mix-blend-mode:multiply">
<path fill-rule="evenodd" clip-rule="evenodd" d="M109.183 58.5687C118.502 58.5687 126.057 51.0142 126.057 41.6953L140.52 41.6953C140.52 59.0019 126.49 73.0316 109.183 73.0316C91.8767 73.0316 77.847 59.0019 77.847 41.6953L92.3099 41.6953C92.3099 51.0142 99.8644 58.5687 109.183 58.5687Z" fill="var(--_illustration-system-composition-accent, #F84258)"/>
</g>
</svg>
