<svg width="172" height="172" viewBox="0 0 172 172" fill="none" xmlns="http://www.w3.org/2000/svg">
<rect width="172" height="172" rx="86" fill="white"/>
<g style="mix-blend-mode:multiply">
<path d="M106.18 56.3477L59.7779 56.3477V137.551L106.18 137.551L106.18 56.3477Z" fill="var(--_illustration-system-composition-primary, #0A69CF)"/>
</g>
<g style="mix-blend-mode:multiply">
<path fill-rule="evenodd" clip-rule="evenodd" d="M54.935 114.658C49.4874 117.803 42.5217 115.936 39.3766 110.489L28.417 116.816C35.0567 128.317 49.7621 132.257 61.2625 125.617C72.7628 118.978 76.7031 104.272 70.0634 92.7719L59.1038 99.0994C62.2489 104.547 60.3825 111.513 54.935 114.658Z" fill="var(--_illustration-system-composition-tertiary-1, #8FAEFE)"/>
</g>
<g style="mix-blend-mode:multiply">
<path fill-rule="evenodd" clip-rule="evenodd" d="M102.259 62.5828C110.875 67.5573 121.892 64.6052 126.867 55.9891C131.841 47.3731 128.889 36.3558 120.273 31.3813C111.657 26.4068 100.64 29.3589 95.6652 37.9749C90.6907 46.591 93.6428 57.6083 102.259 62.5828ZM88.1529 43.9401C88.5525 40.9048 89.546 37.978 91.0767 35.3267L84.347 31.4413C82.306 34.9763 80.9813 38.8788 80.4485 42.9258C79.9157 46.9728 80.1853 51.0851 81.2418 55.0279C82.2982 58.9707 84.121 62.6669 86.6059 65.9053C89.0908 69.1437 92.1892 71.8609 95.7243 73.9019C99.2593 75.9428 103.162 77.2675 107.209 77.8003C111.256 78.3331 115.368 78.0636 119.311 77.0071C123.254 75.9506 126.95 74.1279 130.188 71.643C133.427 69.1581 136.144 66.0596 138.185 62.5246L131.455 58.6392C129.924 61.2905 127.886 63.6143 125.458 65.478C123.029 67.3417 120.257 68.7087 117.3 69.5011C114.343 70.2934 111.258 70.4956 108.223 70.096C105.188 69.6964 102.261 68.7029 99.6097 67.1721C96.9584 65.6414 94.6346 63.6035 92.7709 61.1747C90.9072 58.7459 89.5402 55.9738 88.7478 53.0167C87.9554 50.0595 87.7533 46.9753 88.1529 43.9401Z" fill="var(--_illustration-system-composition-accent, #F84258)"/>
</g>
</svg>
