<svg width="172" height="172" viewBox="0 0 172 172" fill="none" xmlns="http://www.w3.org/2000/svg">
<rect width="172" height="172" rx="86" fill="white"/>
<g style="mix-blend-mode:multiply">
<path fill-rule="evenodd" clip-rule="evenodd" d="M101.318 122.383C92.3169 124.795 83.0646 119.453 80.6527 110.452L66.6826 114.195C71.1619 130.912 88.3447 140.833 105.062 136.353C121.778 131.874 131.699 114.691 127.22 97.9745L113.25 101.718C115.661 110.719 110.32 119.971 101.318 122.383Z" fill="var(--_illustration-system-composition-tertiary-2, #00A3AF)"/>
</g>
<g style="mix-blend-mode:multiply">
<path d="M28.9238 88.5421C28.9238 88.5421 38.2643 99.4492 49.7526 99.4492C55.5013 99.4492 60.7954 96.6267 64.6723 93.7775C68.5493 90.9283 73.7276 90.9728 77.5333 93.7775C81.339 96.5822 86.7043 99.4492 92.453 99.4492C103.95 99.4492 113.291 88.5421 113.291 88.5421L112.916 39.0816C107.399 39.0816 102.506 41.6459 98.8968 44.326C95.0377 47.193 89.7525 47.282 85.8666 44.4595C81.9807 41.637 76.7757 38.9036 71.1073 38.9036C65.4388 38.9036 60.1804 41.6726 56.3123 44.4862C52.4442 47.2998 47.1769 47.2375 43.3266 44.3883C39.4764 41.5391 34.6992 39.0816 29.1377 39.0816" fill="var(--_illustration-system-composition-primary, #0A69CF)"/>
</g>
<g style="mix-blend-mode:multiply">
<path d="M145.205 52.6953L91.5171 52.6953V112.519L145.205 112.519L145.205 52.6953Z" fill="var(--_illustration-system-composition-accent, #F84258)"/>
</g>
</svg>
