<svg width="172" height="172" viewBox="0 0 172 172" fill="none" xmlns="http://www.w3.org/2000/svg">
<rect width="172" height="172" rx="86" fill="white"/>
<g style="mix-blend-mode:multiply">
<rect x="65.6699" y="94.7383" width="69.0274" height="46.0183" fill="var(--_illustration-system-composition-tertiary-2, #00A3AF)"/>
</g>
<g style="mix-blend-mode:multiply">
<path d="M110.654 68.8673C110.654 73.7619 103.065 77.1091 101.3 81.3733C99.5345 85.6375 102.4 93.5125 99.076 96.8367C95.7518 100.161 88.0258 97.2379 83.6126 99.0605C79.1993 100.883 76.0012 108.414 71.1065 108.414C66.2119 108.414 62.8647 100.826 58.6005 99.0605C54.3363 97.2953 46.4613 100.161 43.1371 96.8367C39.8129 93.5125 42.7359 85.7865 40.9133 81.3733C39.0907 76.9601 31.5596 73.7619 31.5596 68.8673C31.5596 63.9726 39.148 60.6255 40.9133 56.3613C42.6786 52.0971 39.8129 44.2221 43.1371 40.8978C46.4613 37.5736 54.1873 40.4966 58.6005 38.674C63.0137 36.8514 66.2119 29.3203 71.1065 29.3203C76.0012 29.3203 79.3484 36.9087 83.6126 38.674C87.8768 40.4393 95.7518 37.5736 99.076 40.8978C102.4 44.2221 99.4772 51.9481 101.3 56.3613C103.122 60.7745 110.654 63.9726 110.654 68.8673Z" fill="var(--_illustration-system-composition-primary, #0A69CF)"/>
</g>
<g style="mix-blend-mode:multiply">
<path fill-rule="evenodd" clip-rule="evenodd" d="M112.456 82.6063C112.456 72.3555 120.766 64.0456 131.017 64.0456V50.5469C113.311 50.5469 98.9572 64.9004 98.9572 82.6063C98.9572 100.312 113.311 114.666 131.017 114.666V101.167C120.766 101.167 112.456 92.8571 112.456 82.6063Z" fill="var(--_illustration-system-composition-accent, #F84258)"/>
</g>
</svg>
