<svg width="160" height="172" viewBox="0 0 160 172" fill="none" xmlns="http://www.w3.org/2000/svg">
<rect width="160" height="172" rx="80" fill="white"/>
<g style="mix-blend-mode:multiply">
<rect x="61.0879" y="94.7383" width="64.2116" height="46.0183" fill="var(--_illustration-system-composition-tertiary-2, #00A3AF)"/>
</g>
<g style="mix-blend-mode:multiply">
<path d="M102.934 68.8673C102.934 73.7619 95.8752 77.1091 94.233 81.3733C92.5909 85.6375 95.2567 93.5125 92.1644 96.8367C89.0721 100.161 81.8851 97.2379 77.7798 99.0605C73.6745 100.883 70.6994 108.414 66.1463 108.414C61.5931 108.414 58.4795 100.826 54.5128 99.0605C50.5461 97.2953 43.2205 100.161 40.1282 96.8367C37.0359 93.5125 39.755 85.7865 38.0595 81.3733C36.3641 76.9601 29.3584 73.7619 29.3584 68.8673C29.3584 63.9726 36.4174 60.6255 38.0595 56.3613C39.7017 52.0971 37.0359 44.2221 40.1282 40.8978C43.2205 37.5736 50.4075 40.4966 54.5128 38.674C58.6181 36.8514 61.5931 29.3203 66.1463 29.3203C70.6994 29.3203 73.8131 36.9087 77.7798 38.674C81.7465 40.4393 89.0721 37.5736 92.1644 40.8978C95.2567 44.2221 92.5376 51.9481 94.233 56.3613C95.9285 60.7745 102.934 63.9726 102.934 68.8673Z" fill="var(--_illustration-system-composition-primary, #0A69CF)"/>
</g>
<g style="mix-blend-mode:multiply">
<path fill-rule="evenodd" clip-rule="evenodd" d="M104.609 82.6063C104.609 72.3555 112.339 64.0456 121.875 64.0456V50.5469C105.404 50.5469 92.0523 64.9004 92.0523 82.6063C92.0523 100.312 105.404 114.666 121.875 114.666V101.167C112.339 101.167 104.609 92.8571 104.609 82.6063Z" fill="var(--_illustration-system-composition-accent, #F84258)"/>
</g>
</svg>
