<svg width="128" height="80" viewBox="0 0 128 80" fill="none" xmlns="http://www.w3.org/2000/svg">
<path d="M19.6797 43.68C19.6797 38.56 20.9064 33.8267 23.3597 29.48C25.813 25.1333 29.1464 21.64 33.3597 19C37.573 16.3333 42.213 14.8667 47.2797 14.6V21C43.3864 21.2667 39.813 22.44 36.5597 24.52C33.333 26.6 30.773 29.3333 28.8797 32.72C27.013 36.08 26.0797 39.7333 26.0797 43.68C26.0797 47.6267 27.013 51.2933 28.8797 54.68C30.773 58.04 33.333 60.76 36.5597 62.84C39.813 64.92 43.3864 66.0933 47.2797 66.36V72.76C42.213 72.4933 37.573 71.04 33.3597 68.4C29.1464 65.7333 25.813 62.2267 23.3597 57.88C20.9064 53.5333 19.6797 48.8 19.6797 43.68ZM50.3197 66.36C54.213 66.0933 57.773 64.92 60.9997 62.84C64.253 60.76 66.813 58.04 68.6797 54.68C70.573 51.2933 71.5197 47.6267 71.5197 43.68C71.5197 39.7333 70.573 36.08 68.6797 32.72C66.813 29.3333 64.253 26.6 60.9997 24.52C57.773 22.44 54.213 21.2667 50.3197 21V14.6C55.3864 14.8667 60.0264 16.3333 64.2397 19C68.453 21.64 71.7864 25.1333 74.2397 29.48C76.693 33.8267 77.9197 38.56 77.9197 43.68C77.9197 48.8 76.693 53.5333 74.2397 57.88C71.7864 62.2267 68.453 65.7333 64.2397 68.4C60.0264 71.04 55.3864 72.4933 50.3197 72.76V66.36ZM86.7266 25.76C88.7532 25.76 90.6199 25.2667 92.3266 24.28C94.0599 23.2667 95.4199 21.9067 96.4066 20.2C97.4199 18.4667 97.9266 16.5867 97.9266 14.56H104.327C104.327 17.76 103.54 20.7067 101.967 23.4C100.393 26.0933 98.2599 28.2267 95.5666 29.8C92.8732 31.3733 89.9266 32.16 86.7266 32.16V25.76ZM104.327 33.68V72.8H97.9266V33.68H104.327Z" fill="var(--web-system-color-impression-onTertiary, #073165)"/>
</svg>
