<svg width="128" height="80" viewBox="0 0 128 80" fill="none" xmlns="http://www.w3.org/2000/svg">
<path d="M11.8281 43.68C11.8281 38.56 13.0548 33.8267 15.5081 29.48C17.9615 25.1333 21.2948 21.64 25.5081 19C29.7215 16.3333 34.3615 14.8667 39.4281 14.6V21C35.5348 21.2667 31.9615 22.44 28.7081 24.52C25.4815 26.6 22.9215 29.3333 21.0281 32.72C19.1615 36.08 18.2281 39.7333 18.2281 43.68C18.2281 47.6267 19.1615 51.2933 21.0281 54.68C22.9215 58.04 25.4815 60.76 28.7081 62.84C31.9615 64.92 35.5348 66.0933 39.4281 66.36V72.76C34.3615 72.4933 29.7215 71.04 25.5081 68.4C21.2948 65.7333 17.9615 62.2267 15.5081 57.88C13.0548 53.5333 11.8281 48.8 11.8281 43.68ZM42.4681 66.36C46.3615 66.0933 49.9215 64.92 53.1481 62.84C56.4015 60.76 58.9615 58.04 60.8281 54.68C62.7215 51.2933 63.6681 47.6267 63.6681 43.68C63.6681 39.7333 62.7215 36.08 60.8281 32.72C58.9615 29.3333 56.4015 26.6 53.1481 24.52C49.9215 22.44 46.3615 21.2667 42.4681 21V14.6C47.5348 14.8667 52.1748 16.3333 56.3881 19C60.6015 21.64 63.9348 25.1333 66.3881 29.48C68.8415 33.8267 70.0681 38.56 70.0681 43.68C70.0681 48.8 68.8415 53.5333 66.3881 57.88C63.9348 62.2267 60.6015 65.7333 56.3881 68.4C52.1748 71.04 47.5348 72.4933 42.4681 72.76V66.36ZM114.155 20.96H78.875V14.56H114.155V20.96ZM87.835 42.04L105.275 24H114.155L96.715 42.04H87.835ZM108.075 37.52C109.968 39.4133 111.448 41.6267 112.515 44.16C113.608 46.6667 114.155 49.32 114.155 52.12C114.155 55.8533 113.222 59.3067 111.355 62.48C109.515 65.6533 107.008 68.1733 103.835 70.04C100.662 71.88 97.2083 72.8 93.475 72.8C90.675 72.8 88.0083 72.2667 85.475 71.2C82.9683 70.1067 80.7683 68.6133 78.875 66.72L83.395 62.2C84.7283 63.5333 86.2617 64.5733 87.995 65.32C89.7283 66.04 91.555 66.4 93.475 66.4C96.0617 66.4 98.4483 65.76 100.635 64.48C102.822 63.2 104.555 61.4667 105.835 59.28C107.115 57.0933 107.755 54.7067 107.755 52.12C107.755 50.2 107.382 48.3733 106.635 46.64C105.915 44.9067 104.888 43.3733 103.555 42.04L108.075 37.52Z"  fill="var(--web-system-color-component-background-onSurface, #073165)"/>
</svg>
