<svg width="128" height="80" viewBox="0 0 128 80" fill="none" xmlns="http://www.w3.org/2000/svg">
<path d="M8.70312 43.68C8.70312 38.56 9.92979 33.8267 12.3831 29.48C14.8365 25.1333 18.1698 21.64 22.3831 19C26.5965 16.3333 31.2365 14.8667 36.3031 14.6V21C32.4098 21.2667 28.8365 22.44 25.5831 24.52C22.3565 26.6 19.7965 29.3333 17.9031 32.72C16.0365 36.08 15.1031 39.7333 15.1031 43.68C15.1031 47.6267 16.0365 51.2933 17.9031 54.68C19.7965 58.04 22.3565 60.76 25.5831 62.84C28.8365 64.92 32.4098 66.0933 36.3031 66.36V72.76C31.2365 72.4933 26.5965 71.04 22.3831 68.4C18.1698 65.7333 14.8365 62.2267 12.3831 57.88C9.92979 53.5333 8.70312 48.8 8.70312 43.68ZM39.3431 66.36C43.2365 66.0933 46.7965 64.92 50.0231 62.84C53.2765 60.76 55.8365 58.04 57.7031 54.68C59.5965 51.2933 60.5431 47.6267 60.5431 43.68C60.5431 39.7333 59.5965 36.08 57.7031 32.72C55.8365 29.3333 53.2765 26.6 50.0231 24.52C46.7965 22.44 43.2365 21.2667 39.3431 21V14.6C44.4098 14.8667 49.0498 16.3333 53.2631 19C57.4765 21.64 60.8098 25.1333 63.2631 29.48C65.7165 33.8267 66.9431 38.56 66.9431 43.68C66.9431 48.8 65.7165 53.5333 63.2631 57.88C60.8098 62.2267 57.4765 65.7333 53.2631 68.4C49.0498 71.04 44.4098 72.4933 39.3431 72.76V66.36ZM75.75 34.92C75.75 31.24 76.6567 27.84 78.47 24.72C80.31 21.6 82.79 19.1333 85.91 17.32C89.03 15.48 92.43 14.56 96.11 14.56C99.79 14.56 103.19 15.48 106.31 17.32C109.43 19.1333 111.91 21.6 113.75 24.72C115.59 27.84 116.51 31.24 116.51 34.92H110.11C110.11 32.4133 109.483 30.0933 108.23 27.96C106.977 25.8 105.27 24.0933 103.11 22.84C100.977 21.5867 98.6433 20.96 96.11 20.96C93.6033 20.96 91.27 21.5867 89.11 22.84C86.9767 24.0933 85.2833 25.8 84.03 27.96C82.7767 30.0933 82.15 32.4133 82.15 34.92H75.75ZM116.51 37.96L97.39 63.36H90.99L110.11 37.96H116.51ZM118.11 72.8H75.75V66.4H118.11V72.8Z" fill="var(--web-system-color-component-background-onSurface, #073165)"/>
</svg>
