<svg width="414" height="260" viewBox="0 0 414 260" fill="none" xmlns="http://www.w3.org/2000/svg">
<rect width="414" height="260" rx="16" fill="var(--_illustration-system-composition-background, #EFF2FC)"/>
<g style="mix-blend-mode:multiply">
<rect x="194" y="102" width="180" height="120" fill="var(--_illustration-system-composition-primary, #0A69CF)"/>
</g>
<g style="mix-blend-mode:multiply">
<path fill-rule="evenodd" clip-rule="evenodd" d="M90.6283 205.296C77.9941 212.59 61.8389 208.261 54.5445 195.627C47.2502 182.993 51.579 166.838 64.2132 159.543C76.8473 152.249 93.0026 156.578 100.297 169.212C107.591 181.846 103.262 198.001 90.6283 205.296ZM111.313 177.959C110.727 173.509 109.27 169.217 107.025 165.329L116.894 159.632C119.886 164.815 121.829 170.538 122.61 176.472C123.391 182.406 122.996 188.436 121.447 194.218C119.898 200 117.225 205.419 113.581 210.168C109.937 214.917 105.394 218.901 100.21 221.894C95.0268 224.887 89.3045 226.829 83.3702 227.61C77.4358 228.392 71.4058 227.996 65.6242 226.447C59.8426 224.898 54.4227 222.225 49.6741 218.582C44.9255 214.938 40.941 210.394 37.9482 205.211L47.8164 199.513C50.061 203.401 53.0493 206.809 56.6108 209.541C60.1723 212.274 64.2372 214.279 68.5734 215.441C72.9095 216.603 77.4321 216.899 81.8829 216.313C86.3336 215.727 90.6253 214.27 94.5131 212.026C98.4008 209.781 101.808 206.793 104.541 203.231C107.274 199.67 109.279 195.605 110.44 191.269C111.602 186.933 111.899 182.41 111.313 177.959Z" fill="var(--_illustration-system-composition-secondary, #428CFE)"/>
</g>
<g style="mix-blend-mode:multiply">
<path fill-rule="evenodd" clip-rule="evenodd" d="M323.143 83.9999C323.143 66.3267 308.816 51.9999 291.143 51.9999V24.5713C323.964 24.5713 350.571 51.1784 350.571 83.9999C350.571 116.821 323.964 143.428 291.143 143.428V116C308.816 116 323.143 101.673 323.143 83.9999Z" fill="var(--_illustration-system-composition-accent, #F84258)"/>
</g>
<g style="mix-blend-mode:multiply">
<path d="M117.941 146.857L38.7451 67.6615L84 22.4066L163.196 101.603L117.941 146.857Z" fill="var(--_illustration-system-composition-tertiary-2, #00A3AF)"/>
</g>
<g style="mix-blend-mode:multiply">
<rect x="100.571" y="48.7148" width="102.857" height="68.5714" fill="var(--_illustration-system-composition-tertiary-1, #8FAEFE)"/>
</g>
</svg>
