<svg width="24" height="24" viewBox="0 0 24 24" fill="none" xmlns="http://www.w3.org/2000/svg">
<path d="M3.8749 4.68115C3.40546 4.68115 3.0249 5.06171 3.0249 5.53115V15.7499C3.0249 16.2193 3.40546 16.5999 3.8749 16.5999H7.86459L10.4803 12.6764C11.2032 11.5919 12.7968 11.5919 13.5198 12.6764L16.1355 16.5999H20.1249C20.5943 16.5999 20.9749 16.2193 20.9749 15.7499V5.53115C20.9749 5.06171 20.5943 4.68115 20.1249 4.68115H3.8749Z" fill="black"/>
<path d="M12.1673 12.8799C12.0387 12.8537 11.9049 12.858 11.7781 12.893C11.5965 12.943 11.4292 13.0557 11.3123 13.2311L8.11067 18.0336C8.01409 18.1785 7.97038 18.3363 7.97046 18.4902C7.97059 18.9199 8.31227 19.3188 8.79841 19.3188H15.2017C15.6879 19.3188 16.0296 18.9199 16.0297 18.4902C16.0298 18.3363 15.9861 18.1785 15.8895 18.0336L12.6878 13.2311C12.5592 13.0382 12.3697 12.9211 12.1673 12.8799Z" fill="black"/>
</svg>
