<svg width="24" height="24" viewBox="0 0 24 24" fill="none" xmlns="http://www.w3.org/2000/svg">
<path fill-rule="evenodd" clip-rule="evenodd" d="M8.10355 2C7.87812 2 7.66192 2.08955 7.50251 2.24896L2.24896 7.50254C2.08955 7.66194 2 7.87815 2 8.10358V15.8965C2 16.1219 2.08955 16.3381 2.24896 16.4975L7.50251 21.7511C7.66192 21.9105 7.87812 22 8.10355 22H15.8965C16.1219 22 16.3381 21.9105 16.4975 21.7511L21.7514 16.4975C21.9108 16.3381 22.0004 16.1219 22.0004 15.8965V8.10358C22.0004 7.87814 21.9108 7.66192 21.7514 7.50252L16.4975 2.24894C16.3381 2.08955 16.1219 2 15.8965 2H8.10355ZM11.3999 14.1001V6.1001H12.5999V14.1001H11.3999ZM12.8 17.0999C12.8 16.6581 12.4418 16.2999 12 16.2999C11.5581 16.2999 11.2 16.6581 11.2 17.0999C11.2 17.5417 11.5581 17.8999 12 17.8999C12.4418 17.8999 12.8 17.5417 12.8 17.0999Z" fill="black"/>
</svg>
