<svg width="24" height="24" viewBox="0 0 24 24" fill="none" xmlns="http://www.w3.org/2000/svg">
<path fill-rule="evenodd" clip-rule="evenodd" d="M2.75843 18.4928C2.28461 19.2912 2.85999 20.3017 3.78836 20.3017L20.2119 20.3017C21.1279 20.3017 21.7048 19.3153 21.2558 18.5169L13.2644 4.30901C12.8127 3.5058 11.661 3.49241 11.1906 4.28489L2.75843 18.4928ZM11.6338 14.6995V8.30176H12.8338V14.6995H11.6338ZM13.0338 17.0994C13.0338 16.6576 12.6757 16.2994 12.2338 16.2994C11.792 16.2994 11.4338 16.6576 11.4338 17.0994C11.4338 17.5412 11.792 17.8994 12.2338 17.8994C12.6757 17.8994 13.0338 17.5412 13.0338 17.0994Z" fill="black"/>
</svg>
