<svg width="24" height="24" viewBox="0 0 24 24" fill="none" xmlns="http://www.w3.org/2000/svg">
<path fill-rule="evenodd" clip-rule="evenodd" d="M21.375 12C21.375 17.1777 17.1777 21.375 12 21.375C6.82233 21.375 2.625 17.1777 2.625 12C2.625 6.82233 6.82233 2.625 12 2.625C17.1777 2.625 21.375 6.82233 21.375 12ZM11.3999 14.1001V6.1001H12.5999V14.1001H11.3999ZM12.8 17.0999C12.8 16.6581 12.4418 16.2999 12 16.2999C11.5581 16.2999 11.2 16.6581 11.2 17.0999C11.2 17.5417 11.5581 17.8999 12 17.8999C12.4418 17.8999 12.8 17.5417 12.8 17.0999Z" fill="black"/>
</svg>
