<svg width="24" height="24" viewBox="0 0 24 24" fill="none" xmlns="http://www.w3.org/2000/svg">
<path fill-rule="evenodd" clip-rule="evenodd" d="M9.0249 5.07363C9.0249 3.43059 10.3569 2.09863 11.9999 2.09863C13.643 2.09863 14.9749 3.43059 14.9749 5.07363C14.9749 6.51115 13.9553 7.71053 12.5999 7.9881V20.7547C16.9681 20.4597 20.4597 16.9681 20.7547 12.5999H18.9999V11.3999H21.9749V11.9999C21.9749 17.5089 17.5089 21.9749 11.9999 21.9749C6.49086 21.9749 2.0249 17.5089 2.0249 11.9999V11.3999H4.9999V12.5999H3.24509C3.54006 16.9681 7.03172 20.4597 11.3999 20.7547V7.9881C10.0445 7.71053 9.0249 6.51115 9.0249 5.07363Z" fill="black"/>
</svg>
