<svg width="24" height="24" viewBox="0 0 24 24" fill="none" xmlns="http://www.w3.org/2000/svg">
<path fill-rule="evenodd" clip-rule="evenodd" d="M7.6249 3.44995C5.42957 3.44995 3.6499 5.22962 3.6499 7.42495C3.6499 9.62028 5.42957 11.4 7.6249 11.4C9.82023 11.4 11.5999 9.62028 11.5999 7.42495C11.5999 5.22962 9.82023 3.44995 7.6249 3.44995Z" fill="black"/>
<path fill-rule="evenodd" clip-rule="evenodd" d="M7.6249 12.6001C5.42957 12.6001 3.6499 14.3798 3.6499 16.5751C3.6499 18.7704 5.42957 20.5501 7.6249 20.5501C9.82023 20.5501 11.5999 18.7704 11.5999 16.5751C11.5999 14.3798 9.82023 12.6001 7.6249 12.6001Z" fill="black"/>
<path fill-rule="evenodd" clip-rule="evenodd" d="M16.3749 3.44995C14.1796 3.44995 12.3999 5.22962 12.3999 7.42495C12.3999 9.62028 14.1796 11.4 16.3749 11.4C18.5702 11.4 20.3499 9.62028 20.3499 7.42495C20.3499 5.22962 18.5702 3.44995 16.3749 3.44995Z" fill="black"/>
<path fill-rule="evenodd" clip-rule="evenodd" d="M16.3749 12.6001C14.1796 12.6001 12.3999 14.3798 12.3999 16.5751C12.3999 18.7704 14.1796 20.5501 16.3749 20.5501C18.5702 20.5501 20.3499 18.7704 20.3499 16.5751C20.3499 14.3798 18.5702 12.6001 16.3749 12.6001Z" fill="black"/>
</svg>
