<svg width="24" height="24" viewBox="0 0 24 24" fill="none" xmlns="http://www.w3.org/2000/svg">
<path d="M4.4999 3.44995C4.03046 3.44995 3.6499 3.83051 3.6499 4.29995V10.55C3.6499 11.0194 4.03046 11.4 4.4999 11.4H10.7499C11.2193 11.4 11.5999 11.0194 11.5999 10.55V4.29995C11.5999 3.83051 11.2193 3.44995 10.7499 3.44995H4.4999Z" fill="black"/>
<path d="M4.4999 12.6001C4.03046 12.6001 3.6499 12.9807 3.6499 13.4501V19.7001C3.6499 20.1695 4.03046 20.5501 4.4999 20.5501H10.7499C11.2193 20.5501 11.5999 20.1695 11.5999 19.7001V13.4501C11.5999 12.9807 11.2193 12.6001 10.7499 12.6001H4.4999Z" fill="black"/>
<path d="M13.2499 3.44995C12.7805 3.44995 12.3999 3.83051 12.3999 4.29995V10.55C12.3999 11.0194 12.7805 11.4 13.2499 11.4H19.4999C19.9693 11.4 20.3499 11.0194 20.3499 10.55V4.29995C20.3499 3.83051 19.9693 3.44995 19.4999 3.44995H13.2499Z" fill="black"/>
<path d="M13.2499 12.6001C12.7805 12.6001 12.3999 12.9807 12.3999 13.4501V19.7001C12.3999 20.1695 12.7805 20.5501 13.2499 20.5501H19.4999C19.9693 20.5501 20.3499 20.1695 20.3499 19.7001V13.4501C20.3499 12.9807 19.9693 12.6001 19.4999 12.6001H13.2499Z" fill="black"/>
</svg>
