<svg width="24" height="24" viewBox="0 0 24 24" fill="none" xmlns="http://www.w3.org/2000/svg">
<path d="M5.03119 8.5836L8.12699 5.48779L8.97552 6.33632L6.72712 8.58472H12.6578V9.78472H6.72728L8.97596 12.0334L8.12743 12.8819L5.03119 9.78568C4.69924 9.45373 4.69924 8.91554 5.03119 8.5836Z" fill="black"/>
<path d="M19.2178 13.5485C19.2178 12.232 18.6948 10.9694 17.764 10.0386C16.8331 9.10768 15.5705 8.58472 14.2541 8.58472V9.78472C15.2523 9.78472 16.2096 10.1813 16.9154 10.8871C17.6213 11.5929 18.0178 12.5502 18.0178 13.5485C18.0178 14.5467 17.6213 15.504 16.9154 16.2098C16.2096 16.9156 15.2523 17.3122 14.2541 17.3122V18.5122C15.5705 18.5122 16.8331 17.9892 17.764 17.0583C18.6948 16.1275 19.2178 14.8649 19.2178 13.5485Z" fill="black"/>
<path d="M12.7095 17.3999H8.6333V18.5999H12.7095V17.3999Z" fill="black"/>
</svg>
