<svg width="24" height="24" viewBox="0 0 24 24" fill="none" xmlns="http://www.w3.org/2000/svg">
<path fill-rule="evenodd" clip-rule="evenodd" d="M10.4516 4.78223C11.7681 4.78223 13.0306 5.30519 13.9615 6.23607C14.8924 7.16695 15.4153 8.42949 15.4153 9.74596H14.2153C14.2153 8.74775 13.8188 7.79043 13.113 7.0846C12.4071 6.37876 11.4498 5.98223 10.4516 5.98223C9.45339 5.98223 8.49607 6.37876 7.79024 7.0846C7.0844 7.79044 6.68787 8.74776 6.68787 9.74596H5.48787C5.48787 8.4295 6.01083 7.16695 6.94171 6.23607C7.87259 5.30519 9.13513 4.78223 10.4516 4.78223ZM14.2153 17.273L11.9664 15.0241L11.1179 15.8726L14.2141 18.9688C14.5461 19.3008 15.0843 19.3008 15.4162 18.9688L18.512 15.873L17.6635 15.0245L15.4153 17.2727V11.3418H14.2153L14.2153 17.273ZM6.68779 15.4185L6.68779 11.3418H5.48779V15.4185H6.68779Z" fill="black"/>
</svg>
