<svg width="24" height="24" viewBox="0 0 24 24" fill="none" xmlns="http://www.w3.org/2000/svg">
<path fill-rule="evenodd" clip-rule="evenodd" d="M15.8728 5.48779L18.9686 8.5836C19.3006 8.91554 19.3006 9.45373 18.9686 9.78568L15.8724 12.8819L15.0238 12.0334L17.2725 9.78472H11.3413V8.58472H17.2727L15.0243 6.33632L15.8728 5.48779ZM4.78223 13.5485C4.78223 12.232 5.30519 10.9694 6.23607 10.0386C7.16695 9.10768 8.4295 8.58472 9.74596 8.58472V9.78472C8.74776 9.78472 7.79044 10.1813 7.0846 10.8871C6.37876 11.5929 5.98223 12.5502 5.98223 13.5485C5.98223 14.5467 6.37876 15.504 7.0846 16.2098C7.79044 16.9156 8.74776 17.3122 9.74596 17.3122V18.5122C8.4295 18.5122 7.16695 17.9892 6.23607 17.0583C5.30519 16.1275 4.78223 14.8649 4.78223 13.5485ZM15.4185 17.312H11.3413V18.512H15.4185V17.312Z" fill="black"/>
</svg>
