<svg width="24" height="24" viewBox="0 0 24 24" fill="none" xmlns="http://www.w3.org/2000/svg">
<path fill-rule="evenodd" clip-rule="evenodd" d="M18.512 8.12699L15.4162 5.03119C15.0843 4.69924 14.5461 4.69924 14.2141 5.03119L11.1179 8.12743L11.9664 8.97596L14.2153 6.72704L14.2153 12.6582H15.4153V6.72736L17.6635 8.97552L18.512 8.12699ZM10.4516 19.2178C11.7681 19.2178 13.0306 18.6948 13.9615 17.764C14.8924 16.8331 15.4153 15.5705 15.4153 14.2541H14.2153C14.2153 15.2523 13.8188 16.2096 13.113 16.9154C12.4071 17.6213 11.4498 18.0178 10.4516 18.0178C9.45339 18.0178 8.49607 17.6213 7.79024 16.9154C7.0844 16.2096 6.68787 15.2523 6.68787 14.2541H5.48787C5.48787 15.5705 6.01083 16.8331 6.94171 17.764C7.87259 18.6948 9.13513 19.2178 10.4516 19.2178ZM6.68779 8.58158L6.68779 12.6582H5.48779V8.58158H6.68779Z" fill="black"/>
</svg>
