<svg width="24" height="24" viewBox="0 0 24 24" fill="none" xmlns="http://www.w3.org/2000/svg">
<path fill-rule="evenodd" clip-rule="evenodd" d="M4.3999 4.2499C4.3999 3.78046 4.78046 3.3999 5.2499 3.3999H18.7499C19.2193 3.3999 19.5999 3.78046 19.5999 4.2499V19.7499C19.5999 20.2193 19.2193 20.5999 18.7499 20.5999H5.2499C4.78046 20.5999 4.3999 20.2193 4.3999 19.7499V4.2499ZM9.19961 9C9.19961 8.50294 9.60255 8.1 10.0996 8.1C10.5967 8.1 10.9996 8.50294 10.9996 9C10.9996 9.49706 10.5967 9.9 10.0996 9.9C9.60255 9.9 9.19961 9.49706 9.19961 9ZM10.0996 6.9C8.93981 6.9 7.99961 7.8402 7.99961 9C7.99961 10.1598 8.93981 11.1 10.0996 11.1C11.2594 11.1 12.1996 10.1598 12.1996 9C12.1996 7.8402 11.2594 6.9 10.0996 6.9ZM16 14.1H8V12.9H16V14.1ZM8 17.1H16V15.9H8V17.1Z" fill="black"/>
</svg>
