<svg width="24" height="24" viewBox="0 0 24 24" fill="none" xmlns="http://www.w3.org/2000/svg">
<path fill-rule="evenodd" clip-rule="evenodd" d="M2.0249 11.9999C2.0249 6.49086 6.49086 2.0249 11.9999 2.0249C17.5089 2.0249 21.9749 6.49086 21.9749 11.9999C21.9749 17.5089 17.5089 21.9749 11.9999 21.9749C6.49086 21.9749 2.0249 17.5089 2.0249 11.9999ZM4.28112 12C4.28112 7.73711 7.73687 4.28137 11.9997 4.28137C16.2626 4.28137 19.7184 7.73711 19.7184 12C19.7184 13.5788 19.2443 15.047 18.4308 16.2698C17.3558 15.6975 16.5999 14.5087 16.5999 13.1142V12.0029L16.5999 11.9999C16.5999 9.45939 14.5404 7.3999 11.9999 7.3999C9.45939 7.3999 7.3999 9.45939 7.3999 11.9999C7.3999 14.5404 9.45939 16.5999 11.9999 16.5999C13.5051 16.5999 14.8414 15.877 15.6806 14.7594C16.0502 15.8034 16.7622 16.6773 17.6814 17.2246C16.2707 18.7579 14.2474 19.7186 11.9997 19.7186C7.73687 19.7186 4.28112 16.2629 4.28112 12ZM15.3999 11.9999V12C15.3998 13.8777 13.8776 15.3999 11.9999 15.3999C10.1221 15.3999 8.5999 13.8777 8.5999 11.9999C8.5999 10.1221 10.1221 8.5999 11.9999 8.5999C13.8777 8.5999 15.3999 10.1221 15.3999 11.9999ZM11.9997 3.22583C7.15391 3.22583 3.22559 7.15415 3.22559 12C3.22559 16.8458 7.15391 20.7741 11.9997 20.7741C16.8456 20.7741 20.7739 16.8458 20.7739 12C20.7739 7.15415 16.8456 3.22583 11.9997 3.22583Z" fill="black"/>
</svg>
