<svg width="24" height="24" viewBox="0 0 24 24" fill="none" xmlns="http://www.w3.org/2000/svg">
<path fill-rule="evenodd" clip-rule="evenodd" d="M14.0837 5.41274C14.308 5.18839 14.5753 5.00909 14.8712 4.8865C15.3148 4.70276 15.8029 4.65469 16.2739 4.74836C16.7448 4.84203 17.1773 5.07323 17.5168 5.41274C17.8563 5.75225 18.0875 6.18481 18.1812 6.65572C18.2749 7.12663 18.2268 7.61474 18.0431 8.05833C17.9205 8.35428 17.7412 8.62155 17.5168 8.84591L18.3654 9.69443C18.7006 9.3592 18.9685 8.95981 19.1517 8.51755C19.4263 7.85469 19.4981 7.1253 19.3582 6.42161C19.2182 5.71792 18.8727 5.07154 18.3654 4.56421C17.858 4.05688 17.2116 3.71139 16.508 3.57141C15.8043 3.43144 15.0749 3.50328 14.412 3.77785C13.9698 3.96104 13.5704 4.22898 13.2351 4.56421L14.0837 5.41274ZM9.06726 14.7116C8.98317 14.7959 8.91595 14.8962 8.86995 15.0073C8.80079 15.1743 8.78269 15.358 8.81795 15.5353C8.85321 15.7125 8.94024 15.8754 9.06804 16.0032C9.19584 16.131 9.35866 16.218 9.53592 16.2532C9.71318 16.2885 9.89692 16.2704 10.0639 16.2012C10.1679 16.1582 10.2625 16.0965 10.3433 16.0198L16.3865 9.97657L17.235 10.8251L11.2087 16.8515L11.2089 16.8517C11.2003 16.8602 11.1917 16.8687 11.183 16.8771L11.084 16.9761L11.079 16.9712C10.9132 17.1113 10.7259 17.2259 10.5231 17.3099C10.1369 17.4699 9.71185 17.5118 9.30181 17.4302C8.89177 17.3486 8.51513 17.1473 8.21951 16.8517C7.92389 16.5561 7.72257 16.1794 7.64101 15.7694C7.55944 15.3593 7.6013 14.9343 7.76129 14.5481C7.8453 14.3453 7.9599 14.1579 8.10012 13.9921L8.09492 13.9869L8.21951 13.8623L14.2459 7.83594L15.0944 8.68447L9.06804 14.7108L9.06726 14.7116ZM6.07205 13.8484C6.27108 13.3679 6.5622 12.934 6.92644 12.5697L6.0779 11.7212C5.60279 12.1963 5.22303 12.7624 4.96339 13.3892C4.57425 14.3287 4.47243 15.3624 4.67081 16.3598C4.8692 17.3571 5.35887 18.2732 6.07791 18.9923C6.79695 19.7113 7.71306 20.201 8.7104 20.3994C9.70774 20.5977 10.7415 20.4959 11.681 20.1068C12.3078 19.8471 12.8738 19.4674 13.349 18.9923L12.5004 18.1437C12.1362 18.508 11.7023 18.7991 11.2218 18.9981C10.5016 19.2964 9.70907 19.3745 8.94451 19.2224C8.17995 19.0703 7.47765 18.695 6.92644 18.1437C6.37522 17.5925 5.99984 16.8902 5.84776 16.1257C5.69568 15.3611 5.77373 14.5686 6.07205 13.8484ZM7.21137 10.5877L12.1045 5.69459L12.953 6.54311L8.0599 11.4363L7.21137 10.5877ZM18.5274 12.1172L13.6342 17.0104L14.4827 17.8589L19.3759 12.9657L18.5274 12.1172Z" fill="black"/>
</svg>
