<svg width="24" height="24" viewBox="0 0 24 24" fill="none" xmlns="http://www.w3.org/2000/svg">
<path fill-rule="evenodd" clip-rule="evenodd" d="M6.44995 8.87495C6.44995 5.80977 8.93477 3.32495 12 3.32495C15.0651 3.32495 17.55 5.80977 17.55 8.87495C17.55 11.9401 15.0651 14.425 12 14.425C8.93477 14.425 6.44995 11.9401 6.44995 8.87495ZM16.2998 14.0784C15.1321 15.0444 13.6338 15.625 12 15.625C10.3653 15.625 8.86638 15.0439 7.69844 14.0771V19.8238C7.69844 20.5243 8.49809 20.9241 9.05844 20.5038L11.9991 18.2983L14.9398 20.5038C15.5002 20.9241 16.2998 20.5243 16.2998 19.8238V14.0784Z" fill="black"/>
</svg>
