<svg width="24" height="24" viewBox="0 0 24 24" fill="none" xmlns="http://www.w3.org/2000/svg">
<path fill-rule="evenodd" clip-rule="evenodd" d="M13.9213 12.4292C14.5446 11.5623 13.9251 10.3538 12.8574 10.3538L11.6445 10.3538L11.6445 7.89857C11.6445 7.47118 11.4605 7.12805 11.188 6.8999H16.7499C17.2193 6.8999 17.5999 7.28046 17.5999 7.7499V16.2499C17.5999 16.7193 17.2193 17.0999 16.7499 17.0999H10.518C10.5955 17.0325 10.668 16.9535 10.7335 16.8624L13.9213 12.4292ZM8.82029 17.0999H3.2499C2.78046 17.0999 2.3999 16.7193 2.3999 16.2499V7.7499C2.3999 7.28046 2.78046 6.8999 3.2499 6.8999H9.48136C9.40547 6.96644 9.33459 7.04411 9.27034 7.13343L6.08167 11.5667C5.45818 12.4336 6.07767 13.6423 7.14546 13.6423H8.35921V16.0974C8.35921 16.5272 8.54525 16.8718 8.82029 17.0999ZM10.6975 11.2937C10.8621 11.4603 11.0853 11.5539 11.3181 11.5539L12.8574 11.5538C12.9474 11.5538 12.9995 11.6556 12.947 11.7286L12.8574 11.8532L9.75919 16.1618C9.69661 16.2489 9.55921 16.2046 9.55921 16.0974V13.3306C9.55921 13.095 9.4699 12.869 9.30532 12.7024C9.14074 12.5358 8.91805 12.4423 8.6853 12.4423H7.14546C7.05552 12.4423 7.00334 12.3404 7.05585 12.2674L10.2445 7.83412C10.3071 7.7471 10.4445 7.79138 10.4445 7.89857V10.6655C10.4445 10.9011 10.5329 11.127 10.6975 11.2937ZM18.5991 10.2499C18.5991 9.78046 18.9797 9.3999 19.4491 9.3999H20.7495C21.219 9.3999 21.5995 9.78046 21.5995 10.2499V13.7499C21.5995 14.2193 21.219 14.5999 20.7495 14.5999H19.4491C18.9797 14.5999 18.5991 14.2193 18.5991 13.7499V10.2499Z" fill="black"/>
</svg>
