<svg width="24" height="24" viewBox="0 0 24 24" fill="none" xmlns="http://www.w3.org/2000/svg">
<path fill-rule="evenodd" clip-rule="evenodd" d="M3.2499 6.8999C2.78046 6.8999 2.3999 7.28046 2.3999 7.7499V16.2499C2.3999 16.7193 2.78046 17.0999 3.2499 17.0999H16.7499C17.2193 17.0999 17.5999 16.7193 17.5999 16.2499V7.7499C17.5999 7.28046 17.2193 6.8999 16.7499 6.8999H3.2499Z" fill="black"/>
<path fill-rule="evenodd" clip-rule="evenodd" d="M19.4496 9.3999C18.9802 9.3999 18.5996 9.78046 18.5996 10.2499V13.7499C18.5996 14.2193 18.9802 14.5999 19.4496 14.5999H20.75C21.2194 14.5999 21.6 14.2193 21.6 13.7499V10.2499C21.6 9.78046 21.2194 9.3999 20.75 9.3999H19.4496Z" fill="black"/>
</svg>
