<svg width="24" height="24" viewBox="0 0 24 24" fill="none" xmlns="http://www.w3.org/2000/svg">
<path d="M13.4142 3.18588C13.7893 3.56096 14 4.06966 14 4.6001L10 4.6001C10 4.06966 10.2107 3.56096 10.5858 3.18588C10.9609 2.81081 11.4696 2.6001 12 2.6001C12.5304 2.6001 13.0391 2.81081 13.4142 3.18588Z" fill="black"/>
<path fill-rule="evenodd" clip-rule="evenodd" d="M10 4.6001C10 4.16486 10.1419 3.74426 10.4 3.4001C10.4564 3.32482 10.5185 3.2532 10.5858 3.18588C10.9609 2.81081 11.4696 2.6001 12 2.6001C12.5304 2.6001 13.0391 2.81081 13.4142 3.18588C13.4815 3.2532 13.5436 3.32482 13.6 3.4001C13.8581 3.74426 14 4.16486 14 4.6001L10 4.6001Z" fill="black"/>
<path d="M12 21.4001C13.1046 21.4001 14 20.5047 14 19.4001H10C10 20.5047 10.8954 21.4001 12 21.4001Z" fill="black"/>
<path fill-rule="evenodd" clip-rule="evenodd" d="M10 19.4001H14C14 19.8504 13.8512 20.2659 13.6001 20.6001C13.2353 21.0859 12.6543 21.4001 12 21.4001C11.3457 21.4001 10.7647 21.0859 10.3999 20.6001C10.1488 20.2659 10 19.8504 10 19.4001Z" fill="black"/>
<path fill-rule="evenodd" clip-rule="evenodd" d="M5.3999 12C5.3999 10.2496 6.09526 8.57086 7.333 7.33312C8.57074 6.09538 10.2495 5.40002 11.9999 5.40002C13.7503 5.40002 15.4292 6.09538 16.6669 7.33312C17.9046 8.57086 18.6 10.2496 18.6 12V16C18.6 16.3713 18.7475 16.7274 19.0101 16.99C19.2726 17.2525 19.6287 17.4 20 17.4V18.6L4.03292 18.6L4.0001 18.6002L4 17.4C4.3713 17.4 4.7274 17.2525 4.98995 16.99C5.2525 16.7274 5.4 16.3713 5.4 16L5.3999 12Z" fill="black"/>
</svg>
