<svg width="24" height="24" viewBox="0 0 24 24" fill="none" xmlns="http://www.w3.org/2000/svg">
<path d="M3.08984 3.93896L3.93837 3.09044L20.9089 20.061L20.0604 20.9095L3.08984 3.93896Z" fill="black"/>
<path d="M6.04413 9.15594C5.62397 10.0358 5.3999 11.0064 5.3999 12L5.4 16C5.4 16.3713 5.2525 16.7274 4.98995 16.99C4.7274 17.2525 4.3713 17.4 4 17.4L4.0001 18.6002L4.03292 18.6L15.4882 18.6L6.04413 9.15594Z" fill="black"/>
<path d="M19.448 18.6H17.7509L6.92785 7.77693C7.05558 7.62354 7.1907 7.47541 7.333 7.33312C7.47515 7.19097 7.62312 7.05597 7.77634 6.92836L19.448 18.6Z" fill="black"/>
<path d="M18.6 15.4893V12C18.6 10.2496 17.9046 8.57086 16.6669 7.33312C15.4292 6.09538 13.7503 5.40002 11.9999 5.40002C11.006 5.40002 10.0353 5.62419 9.15525 6.04452L18.6 15.4893Z" fill="black"/>
<path d="M10 19.4001H14C14 19.8504 13.8512 20.2659 13.6001 20.6001C13.2353 21.0859 12.6543 21.4001 12 21.4001C11.3457 21.4001 10.7647 21.0859 10.3999 20.6001C10.1488 20.2659 10 19.8504 10 19.4001Z" fill="black"/>
<path d="M13.4142 3.18588C13.7893 3.56096 14 4.06966 14 4.6001L10 4.6001C10 4.06966 10.2107 3.56096 10.5858 3.18588C10.9609 2.81081 11.4696 2.6001 12 2.6001C12.5304 2.6001 13.0391 2.81081 13.4142 3.18588Z" fill="black"/>
<path fill-rule="evenodd" clip-rule="evenodd" d="M10 4.6001C10 4.16486 10.1419 3.74426 10.4 3.4001C10.4564 3.32482 10.5185 3.2532 10.5858 3.18588C10.9609 2.81081 11.4696 2.6001 12 2.6001C12.5304 2.6001 13.0391 2.81081 13.4142 3.18588C13.4815 3.2532 13.5436 3.32482 13.6 3.4001C13.8581 3.74426 14 4.16486 14 4.6001L10 4.6001Z" fill="black"/>
</svg>
