<svg width="24" height="24" viewBox="0 0 24 24" fill="none" xmlns="http://www.w3.org/2000/svg">
<path fill-rule="evenodd" clip-rule="evenodd" d="M11.4381 4.82593L15.4868 4.82769C15.8897 4.82787 16.2371 5.11079 16.3188 5.50525L17.1842 9.68224L17.1848 9.68511L17.5959 11.6218L16.4221 11.871L16.1304 10.4968L5.81556 12.2867C5.29578 12.3769 4.82023 11.9768 4.82023 11.4492V9.23593H3.44043V8.03593H7.40043V9.23593H6.02023V11.0333L15.884 9.32164L15.2015 6.02757L11.4376 6.02593L11.4381 4.82593Z" fill="black"/>
<path d="M5.41926 13.1352C3.75171 13.1352 2.3999 14.487 2.3999 16.1546C2.3999 17.8221 3.75171 19.1739 5.41926 19.1739C7.0868 19.1739 8.43861 17.8221 8.43861 16.1546C8.43861 14.487 7.0868 13.1352 5.41926 13.1352Z" fill="black"/>
<path d="M18.2499 12.4738C16.3997 12.4738 14.8999 13.9737 14.8999 15.8238C14.8999 17.674 16.3997 19.1738 18.2499 19.1738C20.1001 19.1738 21.5999 17.674 21.5999 15.8238C21.5999 13.9737 20.1001 12.4738 18.2499 12.4738Z" fill="black"/>
</svg>
