<svg width="24" height="24" viewBox="0 0 24 24" fill="none" xmlns="http://www.w3.org/2000/svg">
<path d="M6.531 21.45C7.55108 21.45 8.39279 20.6864 8.51559 19.6995C8.53264 19.5625 8.41907 19.45 8.281 19.45H4.78101C4.64293 19.45 4.52937 19.5625 4.54642 19.6995C4.66922 20.6864 5.51093 21.45 6.531 21.45Z" fill="black"/>
<path fill-rule="evenodd" clip-rule="evenodd" d="M8.13988 20.6383C8.19149 20.5686 8.23867 20.4953 8.281 20.419C8.40201 20.201 8.48344 19.9579 8.51559 19.6995C8.53264 19.5625 8.41907 19.45 8.281 19.45H4.78101C4.64293 19.45 4.52937 19.5625 4.54642 19.6995C4.57857 19.9579 4.66 20.201 4.78101 20.419C4.82334 20.4953 4.87052 20.5686 4.92213 20.6383C4.92502 20.6422 4.92793 20.6462 4.93086 20.65C5.29574 21.1358 5.87668 21.45 6.531 21.45C7.18533 21.45 7.76627 21.1358 8.13115 20.65C8.13407 20.6462 8.13698 20.6422 8.13988 20.6383Z" fill="black"/>
<path d="M16.531 21.45C17.5511 21.45 18.3928 20.6864 18.5156 19.6995C18.5326 19.5625 18.4191 19.45 18.281 19.45H14.781C14.6429 19.45 14.5294 19.5625 14.5464 19.6995C14.6692 20.6864 15.5109 21.45 16.531 21.45Z" fill="black"/>
<path fill-rule="evenodd" clip-rule="evenodd" d="M18.1399 20.6383C18.1915 20.5686 18.2387 20.4953 18.281 20.419C18.402 20.201 18.4834 19.9579 18.5156 19.6995C18.5326 19.5625 18.4191 19.45 18.281 19.45H14.781C14.6429 19.45 14.5294 19.5625 14.5464 19.6995C14.5786 19.9579 14.66 20.201 14.781 20.419C14.8233 20.4953 14.8705 20.5686 14.9221 20.6383C14.925 20.6422 14.9279 20.6462 14.9309 20.65C15.2957 21.1358 15.8767 21.45 16.531 21.45C17.1853 21.45 17.7663 21.1358 18.1312 20.65C18.1341 20.6462 18.137 20.6422 18.1399 20.6383Z" fill="black"/>
<path d="M15.0309 2.55005H11.7809V3.75005H14.6809V13.05H11.602L9.85435 10.4286C9.6967 10.1921 9.43131 10.05 9.14711 10.05H4.49773C4.07472 10.05 3.71609 10.3611 3.65627 10.7798L2.7277 17.2798C2.65454 17.7919 3.05189 18.25 3.56915 18.25H19.943C20.5143 18.25 20.9229 17.6977 20.7558 17.1514L18.2809 9.06034V5.40005C18.2809 4.93061 17.9003 4.55005 17.4309 4.55005H15.8809V3.40005C15.8809 2.93061 15.5003 2.55005 15.0309 2.55005Z" fill="black"/>
<path d="M20.6952 8.56427C20.3794 8.88008 19.9689 9.07937 19.5304 9.13446C19.3934 9.15167 19.281 9.03813 19.281 8.90006V5.40006C19.281 5.26198 19.3934 5.14844 19.5304 5.16565C19.9689 5.22074 20.3794 5.42003 20.6952 5.73584C21.0703 6.11092 21.281 6.61962 21.281 7.15006C21.281 7.68049 21.0703 8.1892 20.6952 8.56427Z" fill="black"/>
<path fill-rule="evenodd" clip-rule="evenodd" d="M20.4692 5.54129C20.3989 5.48932 20.3254 5.44217 20.2493 5.40006C20.0275 5.27738 19.7836 5.19747 19.5304 5.16565C19.3934 5.14844 19.281 5.26198 19.281 5.40006V8.90006C19.281 9.03813 19.3934 9.15167 19.5304 9.13446C19.7836 9.10264 20.0275 9.02273 20.2493 8.90006C20.3254 8.85794 20.3989 8.81079 20.4692 8.75882C20.4732 8.75592 20.4771 8.753 20.481 8.75007C20.5563 8.69361 20.6279 8.63159 20.6952 8.56427C21.0703 8.1892 21.281 7.68049 21.281 7.15006C21.281 6.61962 21.0703 6.11092 20.6952 5.73584C20.6279 5.66853 20.5563 5.60651 20.481 5.55005C20.4771 5.54711 20.4732 5.54419 20.4692 5.54129Z" fill="black"/>
</svg>
