<svg width="24" height="24" viewBox="0 0 24 24" fill="none" xmlns="http://www.w3.org/2000/svg">
<path fill-rule="evenodd" clip-rule="evenodd" d="M12.5999 5.44863V10.5516L15.1514 8.0001L12.5999 5.44863ZM11.3999 10.5516V4.60366C11.3999 3.84639 12.3155 3.46715 12.851 4.00262L16.2474 7.39906C16.5794 7.73101 16.5794 8.2692 16.2474 8.60114L12.8485 12.0001L16.2474 15.3991C16.5794 15.731 16.5794 16.2692 16.2474 16.6011L12.851 19.9976C12.3155 20.5331 11.3999 20.1538 11.3999 19.3966V13.4486L8.42421 16.4244L7.57568 15.5758L11.1514 12.0001L7.57568 8.42437L8.42421 7.57584L11.3999 10.5516ZM12.5999 13.4486V18.5516L15.1514 16.0001L12.5999 13.4486Z" fill="black"/>
</svg>
