<svg width="24" height="24" viewBox="0 0 24 24" fill="none" xmlns="http://www.w3.org/2000/svg">
<path fill-rule="evenodd" clip-rule="evenodd" d="M9.8999 3.3999H5.8999V20.5999H11.8999V19.3999H7.0999V12.5999H9.8999V11.3999H7.0999V4.5999H9.8999V3.3999ZM14.7528 11.2528C15.6155 10.3901 16.1001 9.22009 16.1001 8.0001C16.1001 6.7801 15.6155 5.61007 14.7528 4.74741C13.8901 3.88474 12.7201 3.4001 11.5001 3.4001V4.6001C12.4018 4.6001 13.2666 4.95831 13.9043 5.59593C14.5419 6.23356 14.9001 7.09836 14.9001 8.0001C14.9001 8.90183 14.5419 9.76664 13.9043 10.4043C13.2672 11.0413 12.4035 11.3994 11.5026 11.4001L11.5001 11.4001V12.6001H13.5001C14.4018 12.6001 15.2666 12.9583 15.9043 13.5959C16.5419 14.2336 16.9001 15.0984 16.9001 16.0001C16.9001 16.9018 16.5419 17.7666 15.9043 18.4043C15.2666 19.0419 14.4018 19.4001 13.5001 19.4001V20.6001C14.7201 20.6001 15.8901 20.1155 16.7528 19.2528C17.6155 18.3901 18.1001 17.2201 18.1001 16.0001C18.1001 14.7801 17.6155 13.6101 16.7528 12.7474C16.1246 12.1193 15.3335 11.6915 14.4788 11.5054C14.5732 11.4252 14.6646 11.341 14.7528 11.2528Z" fill="black"/>
</svg>
