<svg width="24" height="24" viewBox="0 0 24 24" fill="none" xmlns="http://www.w3.org/2000/svg">
<path fill-rule="evenodd" clip-rule="evenodd" d="M4.3999 4.2499C4.3999 3.78046 4.78046 3.3999 5.2499 3.3999H18.7499C19.2193 3.3999 19.5999 3.78046 19.5999 4.2499V19.7499C19.5999 20.2193 19.2193 20.5999 18.7499 20.5999H6.9999C6.31034 20.5999 5.64902 20.326 5.16142 19.8384C4.67383 19.3508 4.3999 18.6895 4.3999 17.9999V4.2499ZM18.3999 19.3999H6.9999C6.6286 19.3999 6.2725 19.2524 6.00995 18.9899C5.7474 18.7273 5.5999 18.3712 5.5999 17.9999C5.5999 17.6286 5.7474 17.2725 6.00995 17.01C6.2725 16.7474 6.6286 16.5999 6.9999 16.5999H18.3999V19.3999Z" fill="black"/>
</svg>
