<svg width="24" height="24" viewBox="0 0 24 24" fill="none" xmlns="http://www.w3.org/2000/svg">
<path fill-rule="evenodd" clip-rule="evenodd" d="M20.75 18.4H14C13.6286 18.4 13.2726 18.5475 13.01 18.81C12.7519 19.0681 12.605 19.4166 12.6001 19.7811L12.6 19.7927V4.60902C13.0148 4.34396 13.5 4.19995 14 4.19995H20.75C21.2194 4.19995 21.6 4.58051 21.6 5.04995L21.6 17.55C21.6 18.0194 21.2194 18.4 20.75 18.4ZM11.4 4.60896C10.9852 4.34394 10.5001 4.19995 10.0001 4.19995H3.25015C2.7807 4.19995 2.40015 4.58051 2.40015 5.04995V17.55C2.40015 18.0194 2.7807 18.4 3.25015 18.4H10.0001C10.3714 18.4 10.7275 18.5475 10.9901 18.81C11.2479 19.0678 11.3947 19.4157 11.4 19.7796V4.60896ZM11.4 19.7866L11.4 19.8H11.4V19.7866Z" fill="black"/>
</svg>
