<svg width="24" height="24" viewBox="0 0 24 24" fill="none" xmlns="http://www.w3.org/2000/svg">
<path fill-rule="evenodd" clip-rule="evenodd" d="M2.8999 9.65015C2.8999 9.1807 3.28046 8.80015 3.7499 8.80015H20.2499C20.7193 8.80015 21.0999 9.1807 21.0999 9.65015V20.1501C21.0999 20.6196 20.7193 21.0001 20.2499 21.0001H3.7499C3.28046 21.0001 2.8999 20.6196 2.8999 20.1501V9.65015ZM6.8999 11.6002V18.2002H8.0999V11.6002H6.8999ZM15.8999 11.6002V18.2002H17.0999V11.6002H15.8999Z" fill="black"/>
<path fill-rule="evenodd" clip-rule="evenodd" d="M8.74731 3.94741C9.60998 3.08474 10.78 2.6001 12 2.6001C13.22 2.6001 14.39 3.08474 15.2527 3.94741C16.1154 4.81007 16.6 5.9801 16.6 7.2001H15.4C15.4 6.29836 15.0418 5.43356 14.4042 4.79593C13.7665 4.15831 12.9017 3.8001 12 3.8001C11.0983 3.8001 10.2335 4.15831 9.59584 4.79593C8.95821 5.43356 8.6 6.29836 8.6 7.2001H7.4C7.4 5.9801 7.88464 4.81007 8.74731 3.94741Z" fill="black"/>
</svg>
