<svg width="24" height="24" viewBox="0 0 24 24" fill="none" xmlns="http://www.w3.org/2000/svg">
<path fill-rule="evenodd" clip-rule="evenodd" d="M10.0638 2.93601C10.5648 2.43502 11.2443 2.15356 11.9528 2.15356C12.6613 2.15356 13.3408 2.43502 13.8418 2.93601C14.3428 3.437 14.6243 4.11649 14.6243 4.82499V5.29642L9.2814 5.29642V4.82499C9.2814 4.11649 9.56285 3.437 10.0638 2.93601ZM6.26068 9.85551C7.25418 7.67824 9.45024 6.16504 11.9997 6.16504C14.5493 6.16504 16.7454 7.67833 17.7389 9.85571C18.3642 9.84765 18.9622 9.59575 19.405 9.15296C19.8551 8.70288 20.1079 8.09243 20.1079 7.45591H21.3079C21.3079 8.41069 20.9286 9.32636 20.2535 10.0015C19.6809 10.5741 18.9353 10.9339 18.1395 11.03C18.2328 11.4292 18.2881 11.8431 18.3015 12.2676H16.5079V15.8676H18.3017C18.2888 16.2881 18.2346 16.6982 18.1433 17.094C18.9376 17.1908 19.6818 17.5503 20.2535 18.122C20.9286 18.7972 21.3079 19.7128 21.3079 20.6676H20.1079C20.1079 20.0311 19.8551 19.4207 19.405 18.9706C18.9639 18.5295 18.369 18.2779 17.7463 18.2679C16.7565 20.4541 14.5557 21.975 11.9997 21.975C9.44384 21.975 7.24316 20.4542 6.25323 18.2682C5.63531 18.2814 5.0455 18.5326 4.60753 18.9706C4.15745 19.4207 3.90459 20.0311 3.90459 20.6676H2.70459C2.70459 19.7128 3.08387 18.7972 3.75901 18.122C4.32766 17.5534 5.06697 17.1946 5.85656 17.0956C5.76496 16.6993 5.71072 16.2886 5.69776 15.8676H7.49282V12.2676H5.69792C5.71132 11.8426 5.76679 11.4282 5.8603 11.0284C5.0693 10.93 4.32856 10.571 3.75901 10.0015C3.08387 9.32636 2.70459 8.41069 2.70459 7.45591H3.90459C3.90459 8.09243 4.15745 8.70288 4.60753 9.15296C5.04726 9.59269 5.64006 9.84416 6.26068 9.85551ZM18.3047 14.6676H17.7079V13.4676H18.3047L20.7079 13.4676V14.6676L18.3047 14.6676ZM3.29287 13.4676L5.69473 13.4676H6.29282V14.6676H5.69473L3.29287 14.6676L3.29287 13.4676ZM12.6118 19.5168V15.3818H11.4118V19.5168H12.6118Z" fill="black"/>
</svg>
