<svg width="24" height="24" viewBox="0 0 24 24" fill="none" xmlns="http://www.w3.org/2000/svg">
<path fill-rule="evenodd" clip-rule="evenodd" d="M20.0582 5.7735C20.0582 5.04925 19.7704 4.35467 19.2583 3.84255C18.7462 3.33043 18.0516 3.04272 17.3274 3.04272V3.04279H6.67272V3.04272C5.94847 3.04272 5.25389 3.33043 4.74177 3.84255C4.23047 4.35385 3.94286 5.04703 3.94194 5.77003H3.94194V5.7735V7.37012H2.92178C2.45234 7.37012 2.07178 7.75067 2.07178 8.22012V11.3794H3.27178V8.57012H3.94194V16.2811V16.36V20.1074C3.94194 20.5768 4.3225 20.9574 4.79194 20.9574H6.84887C7.31832 20.9574 7.69887 20.5768 7.69887 20.1074V18.5603H11.9997V18.0001H12V18.5602H16.3004V20.1073C16.3004 20.5768 16.681 20.9573 17.1504 20.9573H19.2073C19.6768 20.9573 20.0573 20.5767 20.0573 20.1073V16.36H20.0574V8.57012H20.7283V11.3794H21.9283V8.22012C21.9283 7.75067 21.5478 7.37012 21.0783 7.37012H20.0574V5.7735H20.0582ZM6.45947 12.1678H17.5387V10.9678H6.45947V12.1678ZM8.16104 13.3984C7.40696 13.3984 6.79565 14.0097 6.79565 14.7638C6.79565 15.5179 7.40696 16.1292 8.16104 16.1292C8.91513 16.1292 9.52643 15.5179 9.52643 14.7638C9.52643 14.0097 8.91513 13.3984 8.16104 13.3984ZM15.9423 13.3984C15.1882 13.3984 14.5769 14.0097 14.5769 14.7638C14.5769 15.5179 15.1882 16.1292 15.9423 16.1292C16.6964 16.1292 17.3077 15.5179 17.3077 14.7638C17.3077 14.0097 16.6964 13.3984 15.9423 13.3984Z" fill="black"/>
</svg>
