<svg width="24" height="24" viewBox="0 0 24 24" fill="none" xmlns="http://www.w3.org/2000/svg">
<path fill-rule="evenodd" clip-rule="evenodd" d="M7.8499 2H8.5499C9.35072 2 9.9999 2.64919 9.9999 3.45V4H14V3.45C14 2.64919 14.6492 2 15.45 2H16.15C16.9508 2 17.6 2.64919 17.6 3.45V4H20.1495C20.619 4 20.9995 4.38056 20.9995 4.85V21.15C20.9995 21.6194 20.619 22 20.1495 22H3.84951C3.38007 22 2.99951 21.6194 2.99951 21.15V4.85C2.99951 4.38056 3.38007 4 3.84951 4H6.3999V3.45C6.3999 2.64919 7.04909 2 7.8499 2ZM5.40039 11.1999L18.5991 11.1999V9.99985L5.40039 9.99985V11.1999Z" fill="black"/>
</svg>
