<svg width="24" height="24" viewBox="0 0 24 24" fill="none" xmlns="http://www.w3.org/2000/svg">
<path fill-rule="evenodd" clip-rule="evenodd" d="M3.78809 6.8999H2.85C2.38056 6.8999 2 7.28046 2 7.7499V20.2499C2 20.7193 2.38056 21.0999 2.85 21.0999H17.9881L14.0092 17.121C13.4162 17.4577 12.7304 17.65 11.9998 17.65C9.74924 17.65 7.9248 15.8256 7.9248 13.575C7.9248 12.8444 8.1171 12.1586 8.45383 11.5656L3.78809 6.8999ZM15.2215 16.0706L20.0605 20.9095L20.909 20.061L15.8266 14.9786C15.6811 15.3752 15.4758 15.7428 15.2215 16.0706ZM10.5962 9.74819C10.1996 9.89368 9.83202 10.099 9.50423 10.3533L6.05083 6.8999L7.43967 6.8999C7.45138 6.81089 7.46567 6.7224 7.4825 6.63452L10.5962 9.74819ZM16.0208 12.9101C15.7389 11.1922 14.3826 9.8359 12.6647 9.55397L8.1279 5.01717C8.30488 4.74111 8.51221 4.48271 8.7477 4.24721C9.61037 3.38454 10.7804 2.8999 12.0004 2.8999C13.2204 2.8999 14.3904 3.38454 15.2531 4.24721C15.9731 4.96722 16.4298 5.90133 16.5611 6.8999H21.15C21.6194 6.8999 22 7.28046 22 7.7499V18.8893L16.0208 12.9101Z" fill="black"/>
<path d="M3.08984 3.93896L3.93837 3.09044L20.909 20.061L20.0605 20.9095L3.08984 3.93896Z" fill="black"/>
</svg>
