<svg width="24" height="24" viewBox="0 0 24 24" fill="none" xmlns="http://www.w3.org/2000/svg">
<path fill-rule="evenodd" clip-rule="evenodd" d="M8.7477 4.24721C9.61037 3.38454 10.7804 2.8999 12.0004 2.8999C13.2204 2.8999 14.3904 3.38454 15.2531 4.24721C15.9731 4.96722 16.4298 5.90133 16.5611 6.8999H21.15C21.6194 6.8999 22 7.28046 22 7.7499V20.2499C22 20.7193 21.6194 21.0999 21.15 21.0999H2.85C2.38056 21.0999 2 20.7193 2 20.2499V7.7499C2 7.28046 2.38056 6.8999 2.85 6.8999L7.43967 6.8999C7.57102 5.90133 8.0277 4.96722 8.7477 4.24721ZM16.075 13.575C16.075 15.8256 14.2506 17.65 12 17.65C9.74949 17.65 7.92505 15.8256 7.92505 13.575C7.92505 11.3244 9.74949 9.5 12 9.5C14.2506 9.5 16.075 11.3244 16.075 13.575Z" fill="black"/>
</svg>
