<svg width="24" height="24" viewBox="0 0 24 24" fill="none" xmlns="http://www.w3.org/2000/svg">
<path fill-rule="evenodd" clip-rule="evenodd" d="M3.40002 17.1249V11.1625C3.40002 11.0778 3.41269 10.9935 3.43761 10.9125L5.37226 4.62493C5.482 4.26828 5.81151 4.0249 6.18467 4.0249H17.8154C18.1885 4.0249 18.5181 4.26828 18.6278 4.62493L20.5624 10.9125C20.5874 10.9935 20.6 11.0778 20.6 11.1625V17.1615H20.5996V19.1249C20.5996 19.5943 20.2191 19.9749 19.7496 19.9749H17.8496C17.3802 19.9749 16.9996 19.5943 16.9996 19.1249V17.7249H12H12H7.00002V19.1249C7.00002 19.5943 6.61947 19.9749 6.15002 19.9749H4.25002C3.78058 19.9749 3.40002 19.5943 3.40002 19.1249V17.1615V17.1249ZM6.19995 14.125C6.19995 13.407 6.78198 12.825 7.49995 12.825C8.21792 12.825 8.79995 13.407 8.79995 14.125C8.79995 14.8429 8.21792 15.425 7.49995 15.425C6.78198 15.425 6.19995 14.8429 6.19995 14.125ZM16.5 12.825C15.782 12.825 15.2 13.407 15.2 14.125C15.2 14.8429 15.782 15.425 16.5 15.425C17.2179 15.425 17.8 14.8429 17.8 14.125C17.8 13.407 17.2179 12.825 16.5 12.825ZM5.7998 11.7249H18.199V10.5249H5.7998V11.7249Z" fill="black"/>
</svg>
