<svg width="24" height="24" viewBox="0 0 24 24" fill="none" xmlns="http://www.w3.org/2000/svg">
<path fill-rule="evenodd" clip-rule="evenodd" d="M3.2002 15.1063C4.17978 15.1063 5.11925 15.4955 5.81192 16.1881C6.50459 16.8808 6.89373 17.8203 6.89373 18.7999H5.69373C5.69373 18.1385 5.43102 17.5043 4.96339 17.0367C4.49576 16.569 3.86152 16.3063 3.2002 16.3063L3.2002 15.1063Z" fill="black"/>
<path fill-rule="evenodd" clip-rule="evenodd" d="M3.2002 12.27C4.93187 12.27 6.59262 12.9579 7.81709 14.1823C9.04157 15.4068 9.72948 17.0676 9.72948 18.7992L8.52948 18.7992C8.52948 17.3858 7.968 16.0303 6.96857 15.0309C5.96913 14.0314 4.61361 13.47 3.2002 13.47L3.2002 12.27Z" fill="black"/>
<path d="M5.85009 7.59995C5.71202 7.59995 5.60009 7.71187 5.60009 7.84995V11.4519C6.74517 11.826 7.79795 12.4661 8.66567 13.3338C9.53353 14.2016 10.1737 15.2546 10.5477 16.3999H18.1501C18.2882 16.3999 18.4001 16.288 18.4001 16.1499V7.84995C18.4001 7.71187 18.2882 7.59995 18.1501 7.59995H5.85009Z" fill="black"/>
<path fill-rule="evenodd" clip-rule="evenodd" d="M3.20078 6.00495C3.20078 5.56036 3.56119 5.19995 4.00578 5.19995L19.995 5.19996C20.4396 5.19996 20.8 5.56037 20.8 6.00496V17.995C20.8 18.4395 20.4396 18.8 19.995 18.8L11.3306 18.7999L11.3306 17.5999L19.6 17.6V6.39996L4.40078 6.39995V10.3699H3.20078V6.00495Z" fill="black"/>
</svg>
