<svg width="24" height="24" viewBox="0 0 24 24" fill="none" xmlns="http://www.w3.org/2000/svg">
<path fill-rule="evenodd" clip-rule="evenodd" d="M6.308 4.58206C8.10764 3.20115 10.3479 2.52157 12.6114 2.66993C14.875 2.81829 17.0074 3.78447 18.6114 5.38847C20.2154 6.99246 21.1815 9.12487 21.3299 11.3884C21.4783 13.6519 20.7987 15.8922 19.4178 17.6918C18.0369 19.4915 16.0488 20.7277 13.824 21.1703C11.6748 21.5978 9.44618 21.2564 7.52623 20.2102L4.06602 20.9171C3.48051 21.0367 2.96314 20.5193 3.08275 19.9338L3.78965 16.4736C2.74344 14.5537 2.40207 12.3251 2.82958 10.1758C3.27212 7.95102 4.50837 5.96297 6.308 4.58206Z" fill="black"/>
</svg>
