<svg width="24" height="24" viewBox="0 0 24 24" fill="none" xmlns="http://www.w3.org/2000/svg">
<path fill-rule="evenodd" clip-rule="evenodd" d="M11.7557 2.07686C11.915 2.02907 12.0848 2.02907 12.2442 2.07686L19.9941 4.40186C20.3537 4.50972 20.5999 4.84064 20.5999 5.21601V13.4C20.5999 18.1497 16.7496 22 11.9999 22C7.25025 22 3.3999 18.1497 3.3999 13.4V5.21601C3.3999 4.84064 3.64612 4.50972 4.00566 4.40186L11.7557 2.07686ZM7.07568 12.2821L9.96959 15.176C10.3015 15.508 10.8397 15.508 11.1717 15.176L16.9242 9.42348L16.0757 8.57495L10.5706 14.08L7.92421 11.4336L7.07568 12.2821Z" fill="black"/>
</svg>
