<svg width="24" height="24" viewBox="0 0 24 24" fill="none" xmlns="http://www.w3.org/2000/svg">
<path fill-rule="evenodd" clip-rule="evenodd" d="M8.10355 2C7.87812 2 7.66192 2.08955 7.50251 2.24896L2.24896 7.50254C2.08955 7.66194 2 7.87815 2 8.10358V15.8965C2 16.1219 2.08955 16.3381 2.24896 16.4975L7.50251 21.7511C7.66192 21.9105 7.87812 22 8.10355 22H15.8965C16.1219 22 16.3381 21.9105 16.4975 21.7511L21.7514 16.4975C21.9108 16.3381 22.0004 16.1219 22.0004 15.8965V8.10358C22.0004 7.87814 21.9108 7.66192 21.7514 7.50252L16.4975 2.24894C16.3381 2.08955 16.1219 2 15.8965 2H8.10355ZM11.1516 12L8.02012 8.86855L8.86865 8.02002L12.0001 11.1515L15.1315 8.02012L15.98 8.86865L12.8486 12L15.98 15.1313L15.1315 15.9799L12.0001 12.8485L8.86865 15.98L8.02012 15.1315L11.1516 12Z" fill="black"/>
</svg>
