<svg width="24" height="24" viewBox="0 0 24 24" fill="none" xmlns="http://www.w3.org/2000/svg">
<path fill-rule="evenodd" clip-rule="evenodd" d="M5.80497 8.70001C5.80497 5.27584 8.5808 2.5 12.005 2.5C15.4291 2.5 18.205 5.27584 18.205 8.70001V10.6047C20.4017 11.3616 21.9799 13.4467 21.9799 15.9005C21.9799 18.9933 19.4727 21.5005 16.3799 21.5005V21.5H7.63027C4.53748 21.5 2.03027 18.9928 2.03027 15.9C2.03027 13.4463 3.60836 11.3612 5.80497 10.6042V8.70001ZM11.9793 15.9C11.9793 13.47 13.9492 11.5 16.3793 11.5C16.8795 11.5 17.359 11.5833 17.8055 11.7362L18.1943 10.6009C17.6243 10.4057 17.0135 10.3 16.3793 10.3C13.2865 10.3 10.7793 12.8073 10.7793 15.9H11.9793Z" fill="black"/>
</svg>
