<svg width="24" height="24" viewBox="0 0 24 24" fill="none" xmlns="http://www.w3.org/2000/svg">
<path fill-rule="evenodd" clip-rule="evenodd" d="M5.80756 8.51898C5.80583 8.57911 5.80497 8.63946 5.80497 8.70001V10.6042C3.60836 11.3612 2.03027 13.4463 2.03027 15.9C2.03027 18.9928 4.53748 21.5 7.63027 21.5H16.3799C17.0959 21.5 17.7805 21.3661 18.4098 21.1213L12.112 14.8234C12.0253 15.1679 11.9793 15.5286 11.9793 15.9H10.7793C10.7793 15.184 10.9137 14.4994 11.1586 13.87L5.80756 8.51898ZM12.8386 13.2873L19.8485 20.2972C20.1633 20.0485 20.4507 19.7668 20.7056 19.4572L13.6763 12.4279C13.3596 12.6749 13.0775 12.9642 12.8386 13.2873ZM12.8227 11.5743C12.5131 11.8291 12.2313 12.1166 11.9826 12.4313L6.16481 6.61349C6.30898 6.21001 6.49377 5.82583 6.71427 5.46589L12.8227 11.5743ZM15.1773 11.6662C15.5594 11.558 15.9626 11.5 16.3793 11.5C16.8795 11.5 17.359 11.5833 17.8055 11.7362L18.1943 10.6009C17.6243 10.4057 17.0135 10.3 16.3793 10.3C15.6201 10.3 14.8962 10.4511 14.236 10.7249L7.72518 4.21407C8.83798 3.15211 10.3453 2.5 12.005 2.5C15.4291 2.5 18.205 5.27584 18.205 8.70001V10.6047C20.4017 11.3616 21.9799 13.4467 21.9799 15.9005C21.9799 16.6597 21.8288 17.3837 21.555 18.0439L15.1773 11.6662Z" fill="black"/>
<path d="M3.09033 3.53906L3.93886 2.69053L20.9094 19.6611L20.0609 20.5096L3.09033 3.53906Z" fill="black"/>
</svg>
