<svg width="24" height="24" viewBox="0 0 24 24" fill="none" xmlns="http://www.w3.org/2000/svg">
<path d="M18.5351 14.4746C19.522 14.3518 20.2856 13.51 20.2856 12.49C20.2856 11.4699 19.522 10.6282 18.5351 10.5054C18.3981 10.4883 18.2856 10.6019 18.2856 10.74V14.24C18.2856 14.378 18.3981 14.4916 18.5351 14.4746Z" fill="black"/>
<path fill-rule="evenodd" clip-rule="evenodd" d="M19.4739 10.8811C19.4042 10.8295 19.3309 10.7823 19.2546 10.74C19.0366 10.619 18.7935 10.5375 18.5351 10.5054C18.3981 10.4883 18.2856 10.6019 18.2856 10.74V14.24C18.2856 14.378 18.3981 14.4916 18.5351 14.4746C18.7935 14.4424 19.0366 14.361 19.2546 14.24C19.3309 14.1976 19.4042 14.1505 19.4739 14.0989C19.4778 14.096 19.4818 14.093 19.4856 14.0901C19.9714 13.7252 20.2856 13.1443 20.2856 12.49C20.2856 11.8356 19.9714 11.2547 19.4856 10.8898C19.4818 10.8869 19.4778 10.884 19.4739 10.8811Z" fill="black"/>
<path d="M3.96426 10.4941C3.49482 10.4941 3.11426 10.8747 3.11426 11.3441L3.11488 13.3881C3.16515 17.1634 6.24125 20.2084 10.0285 20.2084C13.8158 20.2084 16.8926 17.1634 16.9428 13.3881V11.3441C16.9428 10.8747 16.5623 10.4941 16.0928 10.4941H3.96426Z" fill="black"/>
<path fill-rule="evenodd" clip-rule="evenodd" d="M12.7901 4.55303C12.3025 5.04062 12.0285 5.70194 12.0285 6.3915C12.0285 7.08107 12.3025 7.74239 12.7901 8.22998C13.2777 8.71758 13.939 8.9915 14.6285 8.9915V7.7915C14.2572 7.7915 13.9011 7.644 13.6386 7.38145C13.376 7.1189 13.2285 6.76281 13.2285 6.3915C13.2285 6.0202 13.376 5.66411 13.6386 5.40155C13.9011 5.139 14.2572 4.9915 14.6285 4.9915V3.7915C13.939 3.7915 13.2777 4.06543 12.7901 4.55303Z" fill="black"/>
<path fill-rule="evenodd" clip-rule="evenodd" d="M5.58987 4.55303C5.10227 5.04062 4.82834 5.70194 4.82834 6.3915C4.82834 7.08107 5.10227 7.74239 5.58987 8.22998C6.07746 8.71758 6.73878 8.9915 7.42834 8.9915V7.7915C7.05704 7.7915 6.70095 7.644 6.43839 7.38145C6.17584 7.1189 6.02834 6.76281 6.02834 6.3915C6.02834 6.0202 6.17584 5.66411 6.43839 5.40155C6.70095 5.139 7.05704 4.9915 7.42834 4.9915L7.42834 3.7915C6.73878 3.7915 6.07746 4.06543 5.58987 4.55303Z" fill="black"/>
<path fill-rule="evenodd" clip-rule="evenodd" d="M9.18996 4.55303C8.70237 5.04062 8.42844 5.70194 8.42844 6.3915C8.42844 7.08107 8.70237 7.74239 9.18996 8.22998C9.67756 8.71758 10.3389 8.9915 11.0284 8.9915V7.7915C10.6571 7.7915 10.301 7.644 10.0385 7.38145C9.77594 7.1189 9.62844 6.76281 9.62844 6.3915C9.62844 6.0202 9.77594 5.66411 10.0385 5.40155C10.301 5.139 10.6571 4.9915 11.0284 4.9915L11.0284 3.7915C10.3389 3.7915 9.67756 4.06543 9.18996 4.55303Z" fill="black"/>
</svg>
