<svg width="24" height="24" viewBox="0 0 24 24" fill="none" xmlns="http://www.w3.org/2000/svg">
<path fill-rule="evenodd" clip-rule="evenodd" d="M5.3999 2.47049C3.68975 2.80791 2.40005 4.31582 2.40005 6.12495C2.40005 7.93408 3.68975 9.44199 5.3999 9.77941V8.54428C4.35881 8.23268 3.60005 7.26742 3.60005 6.12495C3.60005 4.98248 4.35881 4.01722 5.3999 3.70562V2.47049ZM6.5999 8.64995H8.65005V6.12495C8.65005 4.89275 7.76742 3.8667 6.5999 3.64453V2.42993C8.43293 2.66315 9.85005 4.22856 9.85005 6.12495V8.64995H14.15V6.00014H14.1521C14.2127 4.16036 15.6074 2.65819 17.3999 2.42997V3.64459C16.2325 3.86688 15.3501 4.89286 15.3501 6.12495H15.35V8.64995H17.3999V9.84995H15.35V14.1501H17.3999V15.3501H15.35V17.8751C15.35 19.1072 16.2325 20.1332 17.3999 20.3555V21.5701C15.567 21.3368 14.15 19.7714 14.15 17.8751V15.3501H9.85005V18H9.84797C9.7874 19.8398 8.39255 21.3421 6.5999 21.5702V20.3556C7.76741 20.1334 8.65002 19.1073 8.65002 17.8751H8.65005V15.3501H6.5999V14.1501H8.65005V9.84995H6.5999V8.64995ZM5.3999 14.2207C3.68974 14.5581 2.40002 16.066 2.40002 17.8751C2.40002 19.6843 3.68974 21.1922 5.3999 21.5296V20.2945C4.3588 19.9829 3.60002 19.0176 3.60002 17.8751C3.60002 16.7327 4.3588 15.7674 5.3999 15.4558V14.2207ZM20.4001 6.12495C20.4001 7.26754 19.6412 8.23287 18.5999 8.54437V9.77947C20.3102 9.44217 21.6001 7.93419 21.6001 6.12495C21.6001 4.31571 20.3102 2.80773 18.5999 2.47043V3.70553C19.6412 4.01703 20.4001 4.98236 20.4001 6.12495ZM18.5999 15.4557V14.2206C20.3102 14.5579 21.6 16.0659 21.6 17.8751C21.6 19.6844 20.3102 21.1924 18.5999 21.5297V20.2946C19.6411 19.9831 20.4 19.0177 20.4 17.8751C20.4 16.7326 19.6411 15.7672 18.5999 15.4557ZM14.15 9.84995H9.85005V14.1501H14.15V9.84995Z" fill="black"/>
</svg>
