<svg width="24" height="24" viewBox="0 0 24 24" fill="none" xmlns="http://www.w3.org/2000/svg">
<path fill-rule="evenodd" clip-rule="evenodd" d="M22 12C22 17.5228 17.5228 22 12 22C6.47715 22 2 17.5228 2 12C2 6.47715 6.47715 2 12 2C17.5228 2 22 6.47715 22 12ZM14.7742 8.2127C15.4824 7.91879 16.1871 8.63905 15.8777 9.3407L14.0095 13.5781C13.9227 13.7748 13.7646 13.9314 13.567 14.0162L9.27654 15.8582C8.57099 16.1611 7.85724 15.4474 8.16015 14.7418L10.0009 10.4543C10.0883 10.2508 10.2516 10.0894 10.4562 10.0045L14.7742 8.2127Z" fill="black"/>
</svg>
