<svg width="24" height="24" viewBox="0 0 24 24" fill="none" xmlns="http://www.w3.org/2000/svg">
<path fill-rule="evenodd" clip-rule="evenodd" d="M17.3739 5.33798L16.6854 4.64954C17.4289 3.93035 18.6146 3.93786 19.3489 4.67208C20.083 5.40626 20.0906 6.59191 19.3715 7.33538L18.6821 6.646L17.7637 7.5644L18.4533 8.25398L11.4695 15.2378C11.3458 15.3614 11.1796 15.433 11.0048 15.4377L9.23692 15.4855C8.84522 15.4961 8.52489 15.1757 8.53547 14.784L8.58325 13.0161C8.58797 12.8414 8.6595 12.6751 8.78312 12.5515L15.7668 5.56776L16.4555 6.25638L17.3739 5.33798ZM15.2377 4.39985H5.2499C4.78046 4.39985 4.3999 4.78041 4.3999 5.24985V18.7499C4.3999 19.2193 4.78046 19.5999 5.2499 19.5999H18.7499C19.2193 19.5999 19.5999 19.2193 19.5999 18.7499V8.80444L12.318 16.0863C11.9773 16.4271 11.5189 16.6242 11.0372 16.6372L9.26933 16.685C8.18968 16.7142 7.30673 15.8313 7.33591 14.7516L7.38369 12.9837C7.39671 12.502 7.59387 12.0437 7.93459 11.7029L15.2377 4.39985Z" fill="black"/>
</svg>
