<svg width="24" height="24" viewBox="0 0 24 24" fill="none" xmlns="http://www.w3.org/2000/svg">
<path d="M4.2499 6.6C3.78046 6.6 3.3999 6.98056 3.3999 7.45V19.75C3.3999 20.2194 3.78046 20.6 4.2499 20.6H16.5493C17.0188 20.6 17.3993 20.2194 17.3993 19.75V7.45C17.3993 6.98056 17.0188 6.6 16.5493 6.6H4.2499Z" fill="black"/>
<path fill-rule="evenodd" clip-rule="evenodd" d="M6.60058 4.2499C6.60058 3.78046 6.98114 3.3999 7.45058 3.3999H19.75C20.2194 3.3999 20.6 3.78046 20.6 4.2499V16.5499C20.6 17.0193 20.2194 17.3999 19.75 17.3999H18.6004V16.1999H19.4V4.5999H7.80058V5.3999H6.60058V4.2499Z" fill="black"/>
</svg>
