<svg width="24" height="24" viewBox="0 0 24 24" fill="none" xmlns="http://www.w3.org/2000/svg">
<path fill-rule="evenodd" clip-rule="evenodd" d="M11.1519 4.78226L4.78809 4.78223V5.98223L11.1636 5.98226C12.1576 5.98535 13.1102 6.38154 13.8133 7.08461C14.5185 7.78982 14.9149 8.74606 14.9156 9.74329L14.9156 9.74597L14.9156 17.273L12.6667 15.0241L11.8182 15.8726L14.9144 18.9688C15.2464 19.3008 15.7846 19.3008 16.1165 18.9688L19.2123 15.873L18.3638 15.0245L16.1156 17.2727L16.1156 9.74597V9.74585V9.743C16.1148 8.42761 15.592 7.16626 14.6618 6.23608C13.7309 5.3052 12.4684 4.78224 11.1519 4.78224V4.78226Z" fill="black"/>
</svg>
