<svg width="24" height="24" viewBox="0 0 24 24" fill="none" xmlns="http://www.w3.org/2000/svg">
<path fill-rule="evenodd" clip-rule="evenodd" d="M12.8485 4.78226L19.2123 4.78223V5.98223L12.8368 5.98226C11.8428 5.98535 10.8902 6.38154 10.1871 7.08461C9.48175 7.79 9.08527 8.74656 9.08477 9.74408L9.08477 9.74597L9.08477 17.2727L11.3334 15.0241L12.182 15.8726L9.08573 18.9688C8.75378 19.3008 8.21559 19.3008 7.88364 18.9688L4.78784 15.873L5.63637 15.0245L7.88477 17.2729L7.88477 9.74597L7.88477 9.743C7.88555 8.42761 8.40843 7.16626 9.33861 6.23608C10.2695 5.3052 11.532 4.78224 12.8485 4.78224V4.78226Z" fill="black"/>
</svg>
