<svg width="24" height="24" viewBox="0 0 24 24" fill="none" xmlns="http://www.w3.org/2000/svg">
<path fill-rule="evenodd" clip-rule="evenodd" d="M18.7499 4.43188H14.6001V2H13.4001V4.43188H10.6001V2H9.4001L9.4001 4.43188H5.24988C4.79812 4.43188 4.43188 4.79812 4.43188 5.24988V9.3999H2V10.5999H4.43188V13.3999H2V14.5999H4.43188V18.7499C4.43188 19.2017 4.79812 19.5679 5.24988 19.5679H9.4001L9.4001 22H10.6001V19.5679H13.4001V22H14.6001V19.5679H18.7499C19.2017 19.5679 19.5679 19.2017 19.5679 18.7499V14.5999H22V13.3999H19.5679V10.5999H22V9.3999H19.5679V5.24988C19.5679 4.79812 19.2017 4.43188 18.7499 4.43188ZM9.77525 9.573C9.66355 9.573 9.573 9.66355 9.573 9.77525V14.2248C9.573 14.3365 9.66355 14.427 9.77525 14.427H14.2248C14.3365 14.427 14.427 14.3365 14.427 14.2248V9.77525C14.427 9.66355 14.3365 9.573 14.2248 9.573H9.77525Z" fill="black"/>
</svg>
