<svg width="24" height="24" viewBox="0 0 24 24" fill="none" xmlns="http://www.w3.org/2000/svg">
<path fill-rule="evenodd" clip-rule="evenodd" d="M2.02502 5.45303C2.02502 4.98359 2.40558 4.60303 2.87502 4.60303H21.125C21.5945 4.60303 21.975 4.98359 21.975 5.45303V18.5468C21.975 19.0162 21.5945 19.3968 21.125 19.3968H2.87502C2.40558 19.3968 2.02502 19.0162 2.02502 18.5468V5.45303ZM18.1998 14.9999C18.1998 15.4417 17.8416 15.7999 17.3998 15.7999C16.958 15.7999 16.5998 15.4417 16.5998 14.9999H15.3998C15.3998 16.1045 16.2952 16.9999 17.3998 16.9999C18.5044 16.9999 19.3998 16.1045 19.3998 14.9999H18.1998ZM19.5701 7.80005V9.00005H4.43005V7.80005H19.5701ZM19.5701 10.2H4.43005V11.4H19.5701V10.2Z" fill="black"/>
</svg>
