<svg width="24" height="24" viewBox="0 0 24 24" fill="none" xmlns="http://www.w3.org/2000/svg">
<path fill-rule="evenodd" clip-rule="evenodd" d="M11.5494 2.68535C11.825 2.51309 12.1748 2.51308 12.4504 2.68535L20.0064 7.40783L19.6912 7.59692L11.9999 12.4039L4.3395 7.61613L4.03071 7.38453L11.5494 2.68535ZM3.3999 8.41143V15.9728C3.3999 16.2659 3.55088 16.5382 3.7994 16.6936L11.3999 21.4439V13.444L3.68189 8.62022C3.66749 8.61122 3.65348 8.60161 3.63989 8.59142L3.3999 8.41143ZM12.5999 21.4439L20.2004 16.6936C20.4489 16.5382 20.5999 16.2659 20.5999 15.9728V8.45113L20.3133 8.62311L12.5999 13.444V21.4439Z" fill="black"/>
</svg>
