<svg width="24" height="24" viewBox="0 0 24 24" fill="none" xmlns="http://www.w3.org/2000/svg">
<path d="M18.2499 13.687C16.3997 13.687 14.8999 15.1869 14.8999 17.037C14.8999 18.8872 16.3997 20.387 18.2499 20.387C20.1001 20.387 21.5999 18.8872 21.5999 17.037C21.5999 15.1869 20.1001 13.687 18.2499 13.687Z" fill="black"/>
<path d="M5.7499 13.687C3.89975 13.687 2.3999 15.1869 2.3999 17.037C2.3999 18.8872 3.89975 20.387 5.7499 20.387C7.60006 20.387 9.0999 18.8872 9.0999 17.037C9.0999 15.1869 7.60006 13.687 5.7499 13.687Z" fill="black"/>
<path d="M16.2499 3.61304C14.814 3.61304 13.6499 4.7771 13.6499 6.21304C13.6499 7.64898 14.814 8.81304 16.2499 8.81304C17.6858 8.81304 18.8499 7.64898 18.8499 6.21304C18.8499 4.7771 17.6858 3.61304 16.2499 3.61304Z" fill="black"/>
<path d="M13.7372 8.66611C13.7268 8.53156 13.6711 8.39973 13.5697 8.29528C13.339 8.05743 12.9592 8.05164 12.7213 8.28236L8.08215 12.7824C7.84429 13.0131 7.83851 13.3929 8.06923 13.6308C8.1869 13.7521 8.34337 13.813 8.5 13.813C10.652 13.813 12.3965 15.5577 12.3965 17.7097H13.5965C13.5965 15.3464 11.9879 13.3588 9.80593 12.7821L12.7979 9.87986C13.4369 11.544 15.1187 12.6555 16.9831 12.4924L16.8785 11.2969C15.2848 11.4364 13.8795 10.2589 13.7372 8.66611Z" fill="black"/>
</svg>
