<svg width="24" height="24" viewBox="0 0 24 24" fill="none" xmlns="http://www.w3.org/2000/svg">
<path fill-rule="evenodd" clip-rule="evenodd" d="M12 2.8999C9.94162 2.8999 8.05316 3.17714 6.65856 3.64201C5.9644 3.87341 5.35936 4.16216 4.91554 4.51193C4.47848 4.85638 4.11438 5.33054 4.11438 5.92849V5.96557C4.12364 5.98293 4.13881 6.00665 4.16329 6.03637C4.23526 6.12372 4.36453 6.23494 4.57182 6.35976C4.9865 6.60946 5.6117 6.85354 6.39803 7.0666C7.9627 7.49054 10.0343 7.75703 12 7.75703C13.9658 7.75703 16.0374 7.49054 17.602 7.0666C18.3884 6.85355 19.0136 6.60946 19.4282 6.35976C19.6355 6.23494 19.7648 6.12372 19.8368 6.03637C19.8612 6.00665 19.8764 5.98294 19.8857 5.96557V5.92849C19.8857 5.33054 19.5216 4.85638 19.0845 4.51194C18.6407 4.16216 18.0357 3.87341 17.3415 3.64201C15.9469 3.17714 14.0585 2.8999 12 2.8999ZM19.8857 7.48056C19.3549 7.77161 18.6724 8.01986 17.9159 8.22484C16.2365 8.67987 14.0581 8.95703 12 8.95703C9.94202 8.95703 7.76361 8.67987 6.08421 8.22484C5.32768 8.01986 4.6452 7.77161 4.11438 7.48056V12.0371C4.12364 12.0545 4.13881 12.0782 4.16329 12.1079C4.23526 12.1952 4.36453 12.3065 4.57182 12.4313C4.9865 12.681 5.6117 12.9251 6.39803 13.1381C7.9627 13.5621 10.0343 13.8286 12 13.8286C13.9658 13.8286 16.0374 13.5621 17.602 13.1381C18.3884 12.9251 19.0136 12.681 19.4282 12.4313C19.6355 12.3065 19.7648 12.1953 19.8368 12.1079C19.8612 12.0782 19.8764 12.0545 19.8857 12.0371V7.48056ZM4.11438 18.0714V13.5521C4.6452 13.8431 5.32768 14.0914 6.08421 14.2964C7.76361 14.7514 9.94202 15.0286 12 15.0286C14.0581 15.0286 16.2365 14.7514 17.9159 14.2964C18.6724 14.0914 19.3549 13.8431 19.8857 13.5521V18.0714C19.8857 18.6693 19.5216 19.1435 19.0845 19.4879C18.6407 19.8377 18.0357 20.1264 17.3415 20.3578C15.9469 20.8227 14.0585 21.0999 12 21.0999C9.94162 21.0999 8.05316 20.8227 6.65856 20.3578C5.9644 20.1264 5.35936 19.8377 4.91554 19.4879C4.47848 19.1435 4.11438 18.6693 4.11438 18.0714Z" fill="black"/>
</svg>
