<svg width="24" height="24" viewBox="0 0 24 24" fill="none" xmlns="http://www.w3.org/2000/svg">
<path fill-rule="evenodd" clip-rule="evenodd" d="M9.05166 5.3999C8.82622 5.3999 8.61002 5.48946 8.45062 5.64886L2.70062 11.3989C2.36868 11.7308 2.36867 12.269 2.70062 12.6009L8.45062 18.3509C8.61003 18.5103 8.82623 18.5999 9.05166 18.5999H20.6981C21.1675 18.5999 21.5481 18.2193 21.5481 17.7499V6.2499C21.5481 5.78046 21.1675 5.3999 20.6981 5.3999H9.05166ZM13.0996 12L10.5238 9.42421L11.3723 8.57568L13.9481 11.1515L16.5238 8.57579L17.3723 9.42432L14.7966 12L17.3723 14.5757L16.5238 15.4242L13.9481 12.8485L11.3723 15.4243L10.5238 14.5758L13.0996 12Z" fill="black"/>
</svg>
