<svg width="24" height="24" viewBox="0 0 24 24" fill="none" xmlns="http://www.w3.org/2000/svg">
<path fill-rule="evenodd" clip-rule="evenodd" d="M2.0249 11.9999C2.0249 6.49086 6.49086 2.0249 11.9999 2.0249C17.5089 2.0249 21.9749 6.49086 21.9749 11.9999C21.9749 17.5089 17.5089 21.9749 11.9999 21.9749C6.49086 21.9749 2.0249 17.5089 2.0249 11.9999ZM9.2249 11.9999C9.2249 10.4673 10.4673 9.2249 11.9999 9.2249C13.5325 9.2249 14.7749 10.4673 14.7749 11.9999C14.7749 13.5325 13.5325 14.7749 11.9999 14.7749C10.4673 14.7749 9.2249 13.5325 9.2249 11.9999ZM11.9999 8.0249C9.80457 8.0249 8.0249 9.80457 8.0249 11.9999C8.0249 14.1952 9.80457 15.9749 11.9999 15.9749C14.1952 15.9749 15.9749 14.1952 15.9749 11.9999C15.9749 9.80457 14.1952 8.0249 11.9999 8.0249Z" fill="black"/>
</svg>
