<svg width="24" height="24" viewBox="0 0 24 24" fill="none" xmlns="http://www.w3.org/2000/svg">
<path fill-rule="evenodd" clip-rule="evenodd" d="M12.0001 3.5249C13.5741 3.5249 14.8501 4.80089 14.8501 6.3749C14.8501 7.94891 13.5741 9.2249 12.0001 9.2249C10.4261 9.2249 9.1501 7.94891 9.1501 6.3749C9.1501 4.80089 10.4261 3.5249 12.0001 3.5249ZM12.0001 14.7749C13.5741 14.7749 14.8501 16.0509 14.8501 17.6249C14.8501 19.1989 13.5741 20.4749 12.0001 20.4749C10.4261 20.4749 9.1501 19.1989 9.1501 17.6249C9.1501 16.0509 10.4261 14.7749 12.0001 14.7749ZM21 11.3999H3V12.5999H21V11.3999Z" fill="black"/>
</svg>
