<svg width="24" height="24" viewBox="0 0 24 24" fill="none" xmlns="http://www.w3.org/2000/svg">
<path d="M11.4722 3H12.5106V21H11.4722V3Z" fill="black"/>
<path fill-rule="evenodd" clip-rule="evenodd" d="M10.2722 5.1001H9.75001C8.75544 5.1001 7.80162 5.49519 7.09835 6.19845C6.39509 6.90171 6 7.85554 6 8.8501C6 9.84467 6.39509 10.7985 7.09835 11.5018C7.80161 12.205 8.75544 12.6001 9.75001 12.6001H10.2722V11.4001H9.75001C9.0737 11.4001 8.4251 11.1315 7.94688 10.6532C7.46866 10.175 7.2 9.52641 7.2 8.8501C7.2 8.1738 7.46866 7.5252 7.94688 7.04698C8.4251 6.56876 9.0737 6.3001 9.75001 6.3001H10.2722V5.1001ZM13.7107 11.4001V12.6001H14.124C14.8411 12.6001 15.5244 12.8743 16.0246 13.3553C16.524 13.8355 16.8 14.4816 16.8 15.1502C16.8 15.8187 16.524 16.4648 16.0246 16.945C15.5244 17.426 14.8411 17.7002 14.124 17.7002H13.7107V18.9002H14.124C15.1445 18.9002 16.1278 18.5106 16.8563 17.81C17.5857 17.1088 18 16.1525 18 15.1502C18 14.1478 17.5857 13.1915 16.8563 12.4903C16.1578 11.8186 15.2252 11.4328 14.25 11.4021V11.4001H13.7107ZM10.2722 17.7002V18.9002H6.59997L6.59997 17.7002H10.2722ZM13.7107 6.3001V5.1001H17.4V6.3001H13.7107Z" fill="black"/>
</svg>
