<svg width="24" height="24" viewBox="0 0 24 24" fill="none" xmlns="http://www.w3.org/2000/svg">
<path fill-rule="evenodd" clip-rule="evenodd" d="M11.4006 14.5511L8.18202 11.3328L7.33366 12.1815L11.3996 16.2471C11.7315 16.579 12.2697 16.579 12.6017 16.2471L16.6673 12.1815L15.8188 11.3329L12.6006 14.5511L12.6004 2.00024L11.4004 2.00027L11.4006 14.5511ZM5.79505 5.795C4.56784 7.0222 3.7321 8.58576 3.39352 10.2879C3.05493 11.9901 3.2287 13.7545 3.89286 15.3579C4.55702 16.9613 5.68174 18.3318 7.12478 19.296C8.56782 20.2602 10.2644 20.7749 11.9999 20.7749C13.7354 20.7749 15.432 20.2602 16.875 19.296C18.3181 18.3318 19.4428 16.9613 20.107 15.3579C20.7711 13.7545 20.9449 11.9901 20.6063 10.2879C20.2677 8.58576 19.432 7.02221 18.2048 5.795L19.0533 4.94647C20.4483 6.3415 21.3984 8.11888 21.7832 10.0538C22.1681 11.9888 21.9706 13.9944 21.2156 15.8171C20.4606 17.6398 19.1821 19.1977 17.5417 20.2938C15.9013 21.3898 13.9728 21.9749 11.9999 21.9749C10.027 21.9749 8.09847 21.3898 6.45809 20.2938C4.81771 19.1977 3.53919 17.6398 2.78421 15.8171C2.02922 13.9944 1.83169 11.9888 2.21657 10.0538C2.60146 8.11887 3.55149 6.3415 4.94652 4.94647L5.79505 5.795Z" fill="black"/>
</svg>
