<svg width="24" height="24" viewBox="0 0 24 24" fill="none" xmlns="http://www.w3.org/2000/svg">
<path fill-rule="evenodd" clip-rule="evenodd" d="M11.4709 19.074L8.91793 16.5211C8.8203 16.4235 8.66201 16.4235 8.56438 16.5211L8.06941 17.0161C7.97178 17.1137 7.97178 17.272 8.06942 17.3696L11.5653 20.8654C11.8457 21.1458 12.3002 21.1458 12.5805 20.8654L16.0769 17.3691C16.1745 17.2715 16.1745 17.1132 16.0769 17.0156L15.5819 16.5206C15.4843 16.423 15.326 16.423 15.2284 16.5206L12.6709 19.078L12.6714 12.7744C12.6714 12.6363 12.5595 12.5244 12.4215 12.5243L11.7215 12.5243C11.5834 12.5243 11.4714 12.6362 11.4714 12.7743L11.4709 19.074Z" fill="black"/>
<path d="M7.03465 7.92865C7.03465 5.1648 9.2753 2.92432 12.0392 2.92432C14.8031 2.92432 17.0438 5.1648 17.0438 7.92865V9.05944C19.5424 9.06492 21.5663 11.092 21.5663 13.5919C21.5663 15.6977 20.1307 17.4666 18.1858 17.9764L18.1484 17.9862L17.072 18.1244H17.0109C17.49 17.5547 17.4616 16.7032 16.9254 16.167L16.4304 15.672C15.8642 15.1057 14.9461 15.1057 14.3798 15.672L13.8711 16.1807L13.8714 12.7744C13.8715 11.9736 13.2223 11.3243 12.4215 11.3243L11.7215 11.3242C10.9207 11.3242 10.2715 11.9733 10.2714 12.7741L10.2711 16.1772L9.7664 15.6725C9.20013 15.1062 8.28204 15.1063 7.71579 15.6725L7.22082 16.1675C6.68483 16.7035 6.6562 17.5547 7.13491 18.1244H7.00008L5.92887 18.0043L5.89184 17.9953C3.90743 17.5127 2.43359 15.7247 2.43359 13.5911C2.43359 11.0878 4.46296 9.05863 6.96623 9.05863H7.03465V7.92865Z" fill="black"/>
</svg>
