<svg width="24" height="24" viewBox="0 0 24 24" fill="none" xmlns="http://www.w3.org/2000/svg">
<path fill-rule="evenodd" clip-rule="evenodd" d="M14.8622 7.71067L15.7108 6.86214L12.6008 3.75213C12.2688 3.42019 11.7306 3.42019 11.3987 3.75213L8.28824 6.86258L9.13676 7.71111L11.9997 4.84815L14.8622 7.71067ZM14.8622 16.2895L15.7108 17.138L12.6008 20.248C12.2688 20.58 11.7306 20.58 11.3987 20.248L8.28824 17.1376L9.13676 16.289L11.9997 19.152L14.8622 16.2895ZM6.86214 8.28914L7.71067 9.13767L4.84815 12.0002L7.71111 14.8631L6.86258 15.7117L3.75213 12.6012C3.42019 12.2693 3.42019 11.7311 3.75213 11.3991L6.86214 8.28914ZM16.2895 9.13767L17.138 8.28914L20.248 11.3991C20.58 11.7311 20.58 12.2693 20.248 12.6012L17.1376 15.7117L16.289 14.8631L19.152 12.0002L16.2895 9.13767ZM12.0001 10.0001C10.8955 10.0001 10.0001 10.8955 10.0001 12.0001C10.0001 13.1046 10.8955 14.0001 12.0001 14.0001C13.1046 14.0001 14.0001 13.1046 14.0001 12.0001C14.0001 10.8955 13.1046 10.0001 12.0001 10.0001Z" fill="black"/>
</svg>
