<svg width="24" height="24" viewBox="0 0 24 24" fill="none" xmlns="http://www.w3.org/2000/svg">
<path fill-rule="evenodd" clip-rule="evenodd" d="M19.7854 20.2001H4.7854V19.0001H19.7854V20.2001Z" fill="black"/>
<path fill-rule="evenodd" clip-rule="evenodd" d="M15.1431 5.94192L14.3389 5.13767C15.2074 4.29787 16.5922 4.30674 17.4497 5.16429C18.3073 6.02188 18.3162 7.40682 17.4762 8.27527L16.6711 7.47008L15.5983 8.54288L16.4037 9.34829L8.24579 17.5062C8.1014 17.6506 7.90715 17.7341 7.70302 17.7396L5.63795 17.7955C5.1804 17.8078 4.80622 17.4336 4.81858 16.9761L4.8744 14.911C4.87991 14.7069 4.96347 14.5126 5.10786 14.3682L13.2659 6.21024L14.0703 7.01471L15.1431 5.94192Z" fill="black"/>
</svg>
