<svg width="24" height="24" viewBox="0 0 24 24" fill="none" xmlns="http://www.w3.org/2000/svg">
<path fill-rule="evenodd" clip-rule="evenodd" d="M11.9999 4.5999C7.913 4.5999 4.5999 7.913 4.5999 11.9999C4.5999 16.0868 7.913 19.3999 11.9999 19.3999C16.0868 19.3999 19.3999 16.0868 19.3999 11.9999H20.5999C20.5999 16.7496 16.7496 20.5999 11.9999 20.5999C7.25025 20.5999 3.3999 16.7496 3.3999 11.9999C3.3999 7.25025 7.25025 3.3999 11.9999 3.3999V4.5999ZM19.3996 5.44944L19.3999 9.60011L20.5999 9.59986L20.5996 4.24994C20.5996 3.7805 20.219 3.39995 19.7496 3.39995L14.3999 3.39995L14.3998 4.59995L18.5521 4.59995L11.5759 11.5757L12.4244 12.4243L19.3996 5.44944Z" fill="black"/>
</svg>
