<svg width="24" height="24" viewBox="0 0 24 24" fill="none" xmlns="http://www.w3.org/2000/svg">
<path d="M4.63075 7.74246C3.05512 9.46848 2.07777 11.7501 2.02677 14.2591C2.02542 14.3255 2.02472 14.392 2.02467 14.4586L2.01978 14.4622C2.06265 14.5204 2.10602 14.5782 2.14989 14.6356C4.41251 17.5968 7.98271 19.509 11.9993 19.509C13.3261 19.509 14.6041 19.3003 15.8024 18.9141L11.963 15.0747C10.2939 15.0552 8.94459 13.7058 8.92502 12.0367L4.63075 7.74246Z" fill="black"/>
<path d="M8.30718 5.19635L19.8308 16.7199C20.5822 16.1061 21.2602 15.406 21.8495 14.6346C21.8931 14.5775 21.9362 14.5201 21.9788 14.4622L21.9747 14.4592C21.9746 14.392 21.9739 14.325 21.9726 14.2581C21.862 8.84473 17.4394 4.49062 11.9997 4.49062C10.6952 4.49062 9.44923 4.74101 8.30718 5.19635Z" fill="black"/>
<path d="M3.08984 3.93886L3.93837 3.09033L20.9089 20.0609L20.0604 20.9094L3.08984 3.93886Z" fill="black"/>
</svg>
