<svg width="24" height="24" viewBox="0 0 24 24" fill="none" xmlns="http://www.w3.org/2000/svg">
<path fill-rule="evenodd" clip-rule="evenodd" d="M21.9749 14.4593C21.9749 14.3921 21.9742 14.3251 21.9728 14.2582C21.8622 8.84483 17.4396 4.49072 11.9999 4.49072C6.55987 4.49072 2.13707 8.84539 2.02701 14.2593C2.02566 14.3256 2.02496 14.3921 2.02492 14.4587L2.02002 14.4623C2.0629 14.5205 2.10627 14.5783 2.15013 14.6357C4.41275 17.5969 7.98295 19.5091 11.9995 19.5091C16.0166 19.5091 19.5871 17.5965 21.8497 14.6347C21.8933 14.5776 21.9364 14.5202 21.979 14.4623L21.9749 14.4593ZM12 15.075C13.6983 15.075 15.075 13.6983 15.075 12C15.075 10.3018 13.6983 8.92505 12 8.92505C10.3018 8.92505 8.92505 10.3018 8.92505 12C8.92505 13.6983 10.3018 15.075 12 15.075Z" fill="black"/>
</svg>
