<svg width="24" height="24" viewBox="0 0 24 24" fill="none" xmlns="http://www.w3.org/2000/svg">
<path fill-rule="evenodd" clip-rule="evenodd" d="M9.50241 3.64886C9.66182 3.48946 9.87802 3.3999 10.1035 3.3999H18.7499C19.2193 3.3999 19.5999 3.78046 19.5999 4.2499V19.7499C19.5999 20.2193 19.2193 20.5999 18.7499 20.5999H5.2499C4.78046 20.5999 4.3999 20.2193 4.3999 19.7499V9.10346C4.3999 8.87802 4.48946 8.66182 4.64886 8.50242L9.50241 3.64886ZM12.5999 13.5506L14.3921 11.7584L15.2407 12.6069L12.6004 15.2472C12.2684 15.5791 11.7302 15.5791 11.3983 15.2472L8.75761 12.6065L9.60613 11.758L11.3999 13.5517L11.3995 8.9999L12.5995 8.9998L12.5999 13.5506Z" fill="black"/>
</svg>
