<svg width="24" height="24" viewBox="0 0 24 24" fill="none" xmlns="http://www.w3.org/2000/svg">
<path fill-rule="evenodd" clip-rule="evenodd" d="M9.50241 3.64886C9.66182 3.48946 9.87802 3.3999 10.1035 3.3999H18.7499C19.2193 3.3999 19.5999 3.78046 19.5999 4.2499V19.7499C19.5999 20.2193 19.2193 20.5999 18.7499 20.5999H5.2499C4.78046 20.5999 4.3999 20.2193 4.3999 19.7499V9.10346C4.3999 8.87802 4.48946 8.66182 4.64886 8.50242L9.50241 3.64886ZM12.5999 10.4489L14.3921 12.2412L15.2407 11.3926L12.6004 8.75233C12.2684 8.42038 11.7302 8.42038 11.3983 8.75233L8.75761 11.393L9.60613 12.2415L11.3999 10.4478L11.3995 14.9999L12.5995 15L12.5999 10.4489Z" fill="black"/>
</svg>
