<svg width="24" height="24" viewBox="0 0 24 24" fill="none" xmlns="http://www.w3.org/2000/svg">
<path fill-rule="evenodd" clip-rule="evenodd" d="M2.55688 3.37489C2.55688 2.92312 2.92312 2.55688 3.37488 2.55688H20.6249C21.0767 2.55688 21.4429 2.92312 21.4429 3.37488V20.6249C21.4429 21.0767 21.0767 21.4429 20.6249 21.4429H3.37489C2.92312 21.4429 2.55688 21.0767 2.55688 20.6249V3.37489ZM3.69288 8.0999V11.3999H6.3999V8.0999H3.69288ZM3.69288 12.5999H6.3999V15.3999H3.69288V12.5999ZM3.69288 16.5999H6.3999V20.3069H3.69288V16.5999ZM3.69288 3.69288H6.3999V6.8999H3.69288V3.69288ZM20.3069 20.3069H17.5999V16.5999H20.3069V20.3069ZM20.3069 15.3999H17.5999V12.5999H20.3069V15.3999ZM20.3069 11.3999H17.5999V8.0999H20.3069V11.3999ZM20.3069 6.8999H17.5999V3.69288H20.3069V6.8999ZM6.40234 12.5999L17.5977 12.5999V11.3999L6.40234 11.3999V12.5999Z" fill="black"/>
</svg>
