<svg width="24" height="24" viewBox="0 0 24 24" fill="none" xmlns="http://www.w3.org/2000/svg">
<path fill-rule="evenodd" clip-rule="evenodd" d="M19.4727 7.39991C18.7659 6.25186 17.798 5.27212 16.6338 4.54818C14.7419 3.37169 12.4732 2.95889 10.2881 3.39354C8.10299 3.82819 6.16501 5.07773 4.8673 6.88869C3.95139 8.16684 3.40282 9.6571 3.26155 11.2H2.05713C2.2014 9.40721 2.82909 7.67284 3.89188 6.18972C5.36707 4.1311 7.57006 2.71068 10.054 2.2166C12.5379 1.72251 15.1168 2.19175 17.2675 3.52914C18.4106 4.23994 19.3872 5.16768 20.1498 6.24822V3.99991H21.3498V7.68741C21.3498 8.19137 20.9412 8.59991 20.4373 8.59991H16.7498V7.39991H19.4727ZM2.05715 12.8C2.07062 12.9673 2.08835 13.1347 2.11036 13.3019C2.44093 15.8129 3.71423 18.104 5.67195 19.7107C7.62968 21.3174 10.1252 22.1192 12.6524 21.9536C15.1796 21.7879 17.5492 20.6672 19.2804 18.8188C20.8285 17.1659 21.7626 15.0417 21.9429 12.8H20.7385C20.5613 14.7365 19.7443 16.5681 18.4046 17.9985C16.8816 19.6245 14.7971 20.6104 12.5739 20.7561C10.3508 20.9019 8.15544 20.1965 6.43323 18.7831C4.71101 17.3697 3.5909 15.3542 3.3001 13.1453C3.28495 13.0302 3.27211 12.9151 3.26156 12.8H2.05715ZM8.82488 8.64835L8.82488 15.3515H10.0249V8.64835H8.82488ZM12.4253 9.84982V14.1498H13.9753V9.84982H12.4253ZM11.2253 9.49982C11.2253 9.03037 11.6058 8.64982 12.0753 8.64982H14.3253C14.7947 8.64982 15.1753 9.03037 15.1753 9.49982V14.4998C15.1753 14.9693 14.7947 15.3498 14.3253 15.3498H12.0753C11.6058 15.3498 11.2253 14.9693 11.2253 14.4998V9.49982Z" fill="black"/>
</svg>
