<svg width="24" height="24" viewBox="0 0 24 24" fill="none" xmlns="http://www.w3.org/2000/svg">
<path fill-rule="evenodd" clip-rule="evenodd" d="M16.6338 4.54818C17.798 5.27212 18.7659 6.25186 19.4727 7.39991H16.7498V8.59991H20.4373C20.9412 8.59991 21.3498 8.19137 21.3498 7.68741V3.99991H20.1498V6.24822C19.3872 5.16768 18.4106 4.23994 17.2675 3.52914C15.1168 2.19175 12.5379 1.72251 10.054 2.2166C7.57006 2.71068 5.36707 4.1311 3.89188 6.18972C2.82909 7.67284 2.2014 9.40721 2.05713 11.2H3.26155C3.40282 9.6571 3.95139 8.16684 4.8673 6.88869C6.16501 5.07773 8.10299 3.82819 10.2881 3.39354C12.4732 2.95889 14.7419 3.37169 16.6338 4.54818ZM2.11036 13.3019C2.08835 13.1347 2.07062 12.9673 2.05715 12.8H3.26156C3.27211 12.9151 3.28495 13.0302 3.3001 13.1453C3.5909 15.3542 4.71101 17.3697 6.43323 18.7831C8.15544 20.1965 10.3508 20.9019 12.5739 20.7561C14.7971 20.6104 16.8816 19.6245 18.4046 17.9985C19.7443 16.5681 20.5613 14.7365 20.7385 12.8H21.9429C21.7626 15.0417 20.8285 17.1659 19.2804 18.8188C17.5492 20.6672 15.1796 21.7879 12.6524 21.9536C10.1252 22.1192 7.62968 21.3174 5.67195 19.7107C3.71423 18.104 2.44093 15.8129 2.11036 13.3019ZM14.7502 9.84982H10.3086V11.3998H14.1511C14.5602 11.3998 14.8919 11.7315 14.8919 12.1407V14.609C14.8919 15.0181 14.5602 15.3498 14.1511 15.3498H9.25024V14.1498H13.6919V12.5998H9.84941C9.44026 12.5998 9.10857 12.2681 9.10857 11.859V9.39066C9.10857 8.9815 9.44026 8.64982 9.84941 8.64982H14.7502V9.84982Z" fill="black"/>
</svg>
