<svg width="24" height="24" viewBox="0 0 24 24" fill="none" xmlns="http://www.w3.org/2000/svg">
<path fill-rule="evenodd" clip-rule="evenodd" d="M2.0249 11.9999C2.0249 6.49086 6.49086 2.0249 11.9999 2.0249C17.5089 2.0249 21.9749 6.49086 21.9749 11.9999C21.9749 17.5089 17.5089 21.9749 11.9999 21.9749C6.49086 21.9749 2.0249 17.5089 2.0249 11.9999ZM8.0999 8.9999C8.0999 8.77899 8.27899 8.5999 8.4999 8.5999C8.72082 8.5999 8.8999 8.77899 8.8999 8.9999C8.8999 9.22082 8.72082 9.3999 8.4999 9.3999C8.27899 9.3999 8.0999 9.22082 8.0999 8.9999ZM8.4999 7.3999C7.61625 7.3999 6.8999 8.11625 6.8999 8.9999C6.8999 9.88356 7.61625 10.5999 8.4999 10.5999C9.38356 10.5999 10.0999 9.88356 10.0999 8.9999C10.0999 8.11625 9.38356 7.3999 8.4999 7.3999ZM15.4999 8.5999C15.279 8.5999 15.0999 8.77899 15.0999 8.9999C15.0999 9.22082 15.279 9.3999 15.4999 9.3999C15.7208 9.3999 15.8999 9.22082 15.8999 8.9999C15.8999 8.77899 15.7208 8.5999 15.4999 8.5999ZM13.8999 8.9999C13.8999 8.11625 14.6162 7.3999 15.4999 7.3999C16.3836 7.3999 17.0999 8.11625 17.0999 8.9999C17.0999 9.88356 16.3836 10.5999 15.4999 10.5999C14.6162 10.5999 13.8999 9.88356 13.8999 8.9999ZM11.9999 13.6C10.1221 13.6 8.5999 15.1222 8.5999 17H7.3999C7.3999 14.4595 9.45939 12.4 11.9999 12.4C14.5404 12.4 16.5999 14.4595 16.5999 17H15.3999C15.3999 15.1222 13.8777 13.6 11.9999 13.6Z" fill="black"/>
</svg>
