<svg width="24" height="24" viewBox="0 0 24 24" fill="none" xmlns="http://www.w3.org/2000/svg">
<path fill-rule="evenodd" clip-rule="evenodd" d="M9.3996 2.85C9.3996 2.38056 9.78016 2 10.2496 2H13.7496C14.219 2 14.5996 2.38056 14.5996 2.85L14.5996 4.52089C15.5551 4.853 16.4268 5.36273 17.1755 6.01012L18.6247 5.1734C19.0312 4.93868 19.5511 5.07798 19.7858 5.48452L21.5358 8.51561C21.7705 8.92216 21.6312 9.44202 21.2247 9.67673L19.7764 10.5129C19.8681 10.9951 19.916 11.4923 19.916 12.0003C19.916 12.5083 19.8681 13.0056 19.7764 13.4878L21.224 14.3236C21.6305 14.5583 21.7698 15.0781 21.5351 15.4847L19.7851 18.5158C19.5504 18.9223 19.0305 19.0616 18.624 18.8269L17.1753 17.9905C16.4267 18.6379 15.555 19.1476 14.5996 19.4796L14.5996 21.1505C14.5996 21.6199 14.219 22.0005 13.7496 22.0005H10.2496C9.78016 22.0005 9.3996 21.6199 9.3996 21.1505L9.3996 19.4796C8.4444 19.1476 7.57287 18.6381 6.82439 17.991L5.37623 18.8271C4.96968 19.0618 4.44983 18.9225 4.2151 18.5159L2.4651 15.4849L2.77623 14.3237L4.22297 13.4885L9.3996 4.52089M9.3996 4.52089L9.3996 2.85L9.3996 4.52089ZM9.3996 4.52089C8.44422 4.85296 7.57256 5.36262 6.82398 6.00992L5.37548 5.17363C4.96893 4.93891 4.44908 5.0782 4.21436 5.48475L2.46436 8.51584C2.22964 8.92239 2.36893 9.44224 2.77548 9.67696L4.22287 10.5126C4.19733 10.6468 4.17519 10.7823 4.15653 10.9188C4.10815 11.2726 4.0832 11.6337 4.0832 12.0003C4.0832 12.3668 4.10815 12.7279 4.15653 13.0818C4.17522 13.2185 4.19739 13.3541 4.22297 13.4885L2.77623 14.3237C2.36968 14.5585 2.23038 15.0783 2.4651 15.4849L2.77623 14.3237L4.22297 13.4885M12.0003 8.33024C9.97338 8.33024 8.33027 9.97335 8.33027 12.0002C8.33027 14.0271 9.97338 15.6702 12.0003 15.6702C14.0272 15.6702 15.6703 14.0271 15.6703 12.0002C15.6703 9.97335 14.0272 8.33024 12.0003 8.33024Z" fill="black"/>
</svg>
