<svg width="24" height="24" viewBox="0 0 24 24" fill="none" xmlns="http://www.w3.org/2000/svg">
<path fill-rule="evenodd" clip-rule="evenodd" d="M9.74209 2.6499C8.16363 2.6499 6.88403 3.9295 6.88403 5.50796C6.88403 6.40569 7.29793 7.20675 7.94531 7.73071H4.902C4.43256 7.73071 4.052 8.11127 4.052 8.58071V12.2205C4.052 12.6899 4.43256 13.0705 4.902 13.0705H11.3996L11.3996 7.71875H11.5536C11.719 7.583 11.869 7.42903 12.0004 7.25992C12.1318 7.42903 12.2817 7.583 12.4472 7.71875H12.5996L12.5996 13.0705H19.0982C19.5676 13.0705 19.9482 12.6899 19.9482 12.2205V8.58071C19.9482 8.11127 19.5676 7.73071 19.0982 7.73071H16.0555C16.7029 7.20675 17.1168 6.40569 17.1168 5.50796C17.1168 3.9295 15.8372 2.6499 14.2587 2.6499C13.3404 2.6499 12.5233 3.08297 12.0004 3.75601C11.4775 3.08297 10.6604 2.6499 9.74209 2.6499ZM4.8811 14.9999C4.8811 14.5305 5.26166 14.1499 5.7311 14.1499H11.3996L11.3996 21.3499H5.7311C5.26166 21.3499 4.8811 20.9693 4.8811 20.4999V14.9999ZM12.5996 21.3499L12.5996 14.1499H18.2714C18.7408 14.1499 19.1214 14.5305 19.1214 14.9999V20.4999C19.1214 20.9693 18.7408 21.3499 18.2714 21.3499H12.5996Z" fill="black"/>
</svg>
