<svg width="24" height="24" viewBox="0 0 24 24" fill="none" xmlns="http://www.w3.org/2000/svg">
<path fill-rule="evenodd" clip-rule="evenodd" d="M17.6788 9.79985L21.7571 9.79985C20.9256 6.0962 18.0393 3.16951 14.3581 2.27957L14.5529 2.76649L17.6788 9.79985ZM21.7571 14.1998H17.6789L14.5486 21.2435L14.537 21.2682L14.3045 21.733C18.0113 20.8586 20.9216 17.9215 21.7571 14.1998ZM16.3657 14.1998H12.6002V21.9822C12.6828 21.9773 12.7651 21.9714 12.8471 21.9645L13.4576 20.7437L16.3657 14.1998ZM7.63464 14.1998H11.4002V21.9822C11.3176 21.9773 11.2352 21.9714 11.1532 21.9646L10.5428 20.7438L7.63464 14.1998ZM2.24264 9.79985L6.32152 9.79985L9.66623 2.27365C5.97328 3.15645 3.076 6.08794 2.24264 9.79985ZM7.63469 9.79985H11.4002V2.01758C11.2939 2.02387 11.188 2.03182 11.0826 2.0414L7.63469 9.79985ZM12.6002 9.79985V2.01762C12.7249 2.025 12.849 2.03468 12.9725 2.04659L13.4429 3.22267L13.4517 3.24352L16.3656 9.79985H12.6002ZM2.24262 14.1998H6.32148L9.45178 21.2436L9.46341 21.2682L9.69588 21.7332C5.98876 20.859 3.07817 17.9217 2.24262 14.1998Z" fill="black"/>
<path d="M2.0001 12.5999L2.0001 11.3999L22.0001 11.3999V12.5999L2.0001 12.5999Z" fill="black"/>
</svg>
