<svg width="24" height="24" viewBox="0 0 24 24" fill="none" xmlns="http://www.w3.org/2000/svg">
<path d="M6.19981 5.2207C4.39506 5.2207 2.93203 6.68374 2.93203 8.48848C2.93203 10.2932 4.39506 11.7563 6.19981 11.7563C6.94737 11.7563 7.6363 11.5052 8.1869 11.0829C8.06543 10.6913 8 10.275 8 9.84346C8 8.74754 8.42193 7.75018 9.11221 7.00495C8.57166 5.94589 7.47042 5.2207 6.19981 5.2207Z" fill="black"/>
<path d="M6.55702 12.6685C7.6813 12.6685 8.7008 13.1148 9.44866 13.8391C8.18449 14.6027 7.28131 15.9037 7.05547 17.4255H3.24998C2.79178 17.4255 2.37455 17.0455 2.41008 16.5339C2.56008 14.3738 4.35914 12.6685 6.55702 12.6685Z" fill="black"/>
<path d="M14.789 6.58128C15.7445 7.34699 16.3563 8.52377 16.3563 9.84346C16.3563 10.4092 16.2439 10.9487 16.0402 11.4408C16.4652 11.643 16.9408 11.7563 17.4428 11.7563C19.2476 11.7563 20.7106 10.2932 20.7106 8.48848C20.7106 6.68374 19.2476 5.2207 17.4428 5.2207C16.3499 5.2207 15.3823 5.75724 14.789 6.58128Z" fill="black"/>
<path d="M17.4427 12.6685C16.3645 12.6685 15.3827 13.0789 14.6445 13.7514C15.9875 14.5006 16.9539 15.8437 17.1887 17.4255H20.7498C21.208 17.4255 21.6252 17.0455 21.5897 16.5339C21.4397 14.3738 19.6406 12.6685 17.4427 12.6685Z" fill="black"/>
<path d="M12.1771 14.0225C9.97926 14.0225 8.18019 15.7278 8.03019 17.8879C7.99467 18.3995 8.4119 18.7795 8.8701 18.7795H15.4842C15.9424 18.7795 16.3596 18.3995 16.3241 17.8879C16.1741 15.7278 14.375 14.0225 12.1771 14.0225Z" fill="black"/>
<path d="M12.1765 6.57568C10.3717 6.57568 8.90869 8.03872 8.90869 9.84346C8.90869 11.6482 10.3717 13.1112 12.1765 13.1112C13.9812 13.1112 15.4443 11.6482 15.4443 9.84346C15.4443 8.03872 13.9812 6.57568 12.1765 6.57568Z" fill="black"/>
</svg>
