<svg width="24" height="24" viewBox="0 0 24 24" fill="none" xmlns="http://www.w3.org/2000/svg">
<path fill-rule="evenodd" clip-rule="evenodd" d="M4.3999 4.2499C4.3999 3.78046 4.78046 3.3999 5.2499 3.3999H18.7499C19.2193 3.3999 19.5999 3.78046 19.5999 4.2499V13.3999H4.3999V4.2499ZM4.3999 14.5999V19.7499C4.3999 20.2193 4.78046 20.5999 5.2499 20.5999H18.7499C19.2193 20.5999 19.5999 20.2193 19.5999 19.7499V14.5999H4.3999ZM11.6024 16.5999C11.3815 16.5999 11.2024 16.779 11.2024 16.9999C11.2024 17.2208 11.3815 17.3999 11.6024 17.3999C11.8234 17.3999 12.0024 17.2208 12.0024 16.9999C12.0024 16.779 11.8234 16.5999 11.6024 16.5999ZM10.0024 16.9999C10.0024 16.1162 10.7188 15.3999 11.6024 15.3999C12.4861 15.3999 13.2024 16.1162 13.2024 16.9999C13.2024 17.8836 12.4861 18.5999 11.6024 18.5999C10.7188 18.5999 10.0024 17.8836 10.0024 16.9999ZM15.4007 16.9999C15.4007 16.779 15.5798 16.5999 15.8007 16.5999C16.0216 16.5999 16.2007 16.779 16.2007 16.9999C16.2007 17.2208 16.0216 17.3999 15.8007 17.3999C15.5798 17.3999 15.4007 17.2208 15.4007 16.9999ZM15.8007 15.3999C14.917 15.3999 14.2007 16.1162 14.2007 16.9999C14.2007 17.8836 14.917 18.5999 15.8007 18.5999C16.6843 18.5999 17.4007 17.8836 17.4007 16.9999C17.4007 16.1162 16.6843 15.3999 15.8007 15.3999Z" fill="black"/>
</svg>
