<svg width="24" height="24" viewBox="0 0 24 24" fill="none" xmlns="http://www.w3.org/2000/svg">
<path d="M4.94644 5.63157C6.81714 3.7609 9.35434 2.70996 11.9999 2.70996C14.6455 2.70996 17.1827 3.7609 19.0534 5.63157C20.9241 7.50225 21.9749 10.0247 21.9749 12.6703V17.9399C21.9749 19.79 20.475 21.2899 18.6249 21.2899H18.0249V14.5899H18.6249C19.4432 14.5899 20.1931 14.8833 20.7749 15.3707V12.6703C20.7749 10.343 19.8505 8.12573 18.2048 6.4801C16.5592 4.83447 14.3272 3.90996 11.9999 3.90996C9.67261 3.90996 7.44063 4.83447 5.79498 6.4801C4.14933 8.12573 3.22491 10.343 3.22491 12.6703V15.3707C3.80673 14.8833 4.55656 14.5899 5.37493 14.5899H5.97494V21.2899H5.37493C3.52476 21.2899 2.0249 19.79 2.0249 17.9399V12.6703C2.0249 10.0247 3.07575 7.50224 4.94644 5.63157Z" fill="black"/>
<path fill-rule="evenodd" clip-rule="evenodd" d="M6.98 21.2892L6.98 14.59H8.18V21.2892H6.98Z" fill="black"/>
<path fill-rule="evenodd" clip-rule="evenodd" d="M16.03 21.2892V14.59H17.23L17.23 21.2892H16.03Z" fill="black"/>
</svg>
