<svg width="24" height="24" viewBox="0 0 24 24" fill="none" xmlns="http://www.w3.org/2000/svg">
<path fill-rule="evenodd" clip-rule="evenodd" d="M7.36622 4.54818C6.20204 5.27212 5.23411 6.25186 4.52736 7.39991H7.25002V8.59991H3.50002C3.03058 8.59991 2.65002 8.21936 2.65002 7.74991V3.99991H3.85002V6.24857C4.61266 5.16788 5.58936 4.24002 6.73254 3.52914C8.88323 2.19175 11.4621 1.72251 13.946 2.2166C16.43 2.71068 18.633 4.1311 20.1082 6.18972C21.171 7.67284 21.7986 9.40721 21.9429 11.2H20.7385C20.5972 9.6571 20.0487 8.16684 19.1327 6.88869C17.835 5.07773 15.8971 3.82819 13.7119 3.39354C11.5268 2.95889 9.25818 3.37169 7.36622 4.54818ZM20.7385 12.8H21.9429C21.9294 12.9673 21.9117 13.1347 21.8897 13.3019C21.5591 15.8129 20.2858 18.104 18.3281 19.7107C16.3704 21.3174 13.8748 22.1192 11.3476 21.9536C8.82044 21.7879 6.45089 20.6672 4.71962 18.8188C3.17151 17.1659 2.23744 15.0417 2.05713 12.8H3.26154C3.43878 14.7365 4.25576 16.5681 5.59546 17.9985C7.11845 19.6245 9.20295 20.6104 11.4261 20.7561C13.6493 20.9019 15.8446 20.1965 17.5668 18.7831C19.289 17.3697 20.4091 15.3542 20.6999 13.1453C20.7151 13.0302 20.7279 12.9151 20.7385 12.8ZM11.4 5.99991V11.8964C11.4 12.1218 11.4896 12.338 11.649 12.4974L15.5758 16.4242L16.4243 15.5756L12.6 11.7514V5.99991H11.4Z" fill="black"/>
</svg>
