<svg width="24" height="24" viewBox="0 0 24 24" fill="none" xmlns="http://www.w3.org/2000/svg">
<path fill-rule="evenodd" clip-rule="evenodd" d="M12.5658 2.42554C12.2433 2.13744 11.7558 2.13745 11.4333 2.42558L3.28372 9.70593C3.1032 9.86719 2.99999 10.0978 3 10.3399L3.00038 20.9407C3.00039 21.4101 3.38095 21.7907 3.85038 21.7907H8.77046C9.2399 21.7907 9.62046 21.4101 9.62046 20.9407V13.8907H14.3977L14.3893 16.1885L14.3893 16.1907V18.9907L14.3799 20.9366C14.3777 21.4076 14.7589 21.7907 15.2299 21.7907H20.1504C20.6198 21.7907 21.0004 21.4101 21.0004 20.9407V10.3398C21.0004 10.0978 20.8972 9.86716 20.7166 9.7059L12.5658 2.42554Z" fill="black"/>
</svg>
