<svg width="24" height="24" viewBox="0 0 24 24" fill="none" xmlns="http://www.w3.org/2000/svg">
<path fill-rule="evenodd" clip-rule="evenodd" d="M2.8749 3.3999C2.40546 3.3999 2.0249 3.78046 2.0249 4.2499V19.7499C2.0249 20.2193 2.40546 20.5999 2.8749 20.5999H21.1249C21.5943 20.5999 21.9749 20.2193 21.9749 19.7499V4.2499C21.9749 3.78046 21.5943 3.3999 21.1249 3.3999H2.8749ZM10.5846 14.2622C9.51496 13.6993 8.19364 14.0196 7.50057 15.0098L5.51681 17.8441L4.53369 17.1561L6.51745 14.3217C7.55705 12.8364 9.53903 12.3559 11.1434 13.2003L18.3047 16.9691L17.7458 18.0311L10.5846 14.2622ZM17.4251 9.5999C17.4251 10.8149 16.4402 11.7999 15.2251 11.7999C14.0101 11.7999 13.0251 10.8149 13.0251 9.5999C13.0251 8.38488 14.0101 7.3999 15.2251 7.3999C16.4402 7.3999 17.4251 8.38488 17.4251 9.5999Z" fill="black"/>
</svg>
