<svg width="24" height="24" viewBox="0 0 24 24" fill="none" xmlns="http://www.w3.org/2000/svg">
<path fill-rule="evenodd" clip-rule="evenodd" d="M2.5249 4.7499C2.5249 4.28046 2.90546 3.8999 3.3749 3.8999H20.6249C21.0943 3.8999 21.4749 4.28046 21.4749 4.7499V11.3751H20.2801V5.8501C20.2801 5.43589 19.9443 5.1001 19.5301 5.1001H4.4802C4.06599 5.1001 3.7302 5.43588 3.7302 5.8501V11.3751H2.5249V4.7499ZM2.5249 12.9751V19.2499C2.5249 19.7193 2.90546 20.0999 3.3749 20.0999H20.6249C21.0943 20.0999 21.4749 19.7193 21.4749 19.2499V12.9751L20.2801 12.9751L15.9703 12.9751C15.8687 15.0799 14.13 16.7551 12 16.7551C9.87007 16.7551 8.13139 15.0799 8.02972 12.9751L3.7302 12.9751L2.5249 12.9751Z" fill="black"/>
</svg>
