<svg width="24" height="24" viewBox="0 0 24 24" fill="none" xmlns="http://www.w3.org/2000/svg">
<path fill-rule="evenodd" clip-rule="evenodd" d="M21.375 12C21.375 17.1777 17.1777 21.375 12 21.375C6.82233 21.375 2.625 17.1777 2.625 12C2.625 6.82233 6.82233 2.625 12 2.625C17.1777 2.625 21.375 6.82233 21.375 12ZM11.9997 6.4C12.4415 6.4 12.7997 6.75817 12.7997 7.2C12.7997 7.64183 12.4415 8 11.9997 8C11.5579 8 11.1997 7.64183 11.1997 7.2C11.1997 6.75817 11.5579 6.4 11.9997 6.4ZM11.3997 17.6001V9.6001H12.5997V17.6001H11.3997Z" fill="black"/>
</svg>
