<svg width="24" height="24" viewBox="0 0 24 24" fill="none" xmlns="http://www.w3.org/2000/svg">
<path fill-rule="evenodd" clip-rule="evenodd" d="M12.3488 3.79337C12.127 3.69355 11.873 3.69355 11.6512 3.79337L3.77939 7.33567C3.10112 7.64089 3.11429 8.6085 3.80062 8.89515L11.6724 12.1828C11.882 12.2703 12.1179 12.2703 12.3276 12.1828L20.1993 8.89515C20.8857 8.6085 20.8988 7.6409 20.2206 7.33567L12.3488 3.79337Z" fill="black"/>
<path fill-rule="evenodd" clip-rule="evenodd" d="M12 14.5434L3.71819 11.3104L3.28181 12.4282L11.6852 15.7087C11.8876 15.7877 12.1124 15.7877 12.3148 15.7087L20.7182 12.4282L20.2818 11.3104L12 14.5434Z" fill="black"/>
<path fill-rule="evenodd" clip-rule="evenodd" d="M12 18.0616L3.71819 14.8286L3.28181 15.9464L11.6852 19.2269C11.8876 19.3059 12.1124 19.3059 12.3148 19.2269L20.7182 15.9464L20.2818 14.8286L12 18.0616Z" fill="black"/>
</svg>
