<svg width="24" height="24" viewBox="0 0 24 24" fill="none" xmlns="http://www.w3.org/2000/svg">
<path fill-rule="evenodd" clip-rule="evenodd" d="M9.5999 20.5999H14.3999V15.2815L9.5999 15.2815V20.5999ZM9.5999 14.0815V9.5999L14.3999 9.5999V14.0815H9.5999ZM15.5999 15.2815V20.5999H20.7499C21.2193 20.5999 21.5999 20.2193 21.5999 19.7499V15.2815H15.5999ZM21.5999 14.0815L15.5999 14.0815V9.5999L21.5999 9.5999V14.0815ZM8.3999 14.0815L2.3999 14.0815V9.5999L8.3999 9.5999V14.0815ZM2.3999 15.2815H8.3999V20.5999H3.2499C2.78046 20.5999 2.3999 20.2193 2.3999 19.7499V15.2815ZM9.5999 8.3999L14.3999 8.3999V3.3999H9.5999V8.3999ZM15.5999 8.3999L21.5999 8.3999V4.2499C21.5999 3.78046 21.2193 3.3999 20.7499 3.3999H15.5999V8.3999ZM8.3999 3.3999V8.3999L2.3999 8.3999V4.2499C2.3999 3.78046 2.78046 3.3999 3.2499 3.3999H8.3999Z" fill="black"/>
</svg>
