<svg width="24" height="24" viewBox="0 0 24 24" fill="none" xmlns="http://www.w3.org/2000/svg">
<path fill-rule="evenodd" clip-rule="evenodd" d="M5.38347 4.53494C7.14417 2.97323 9.46129 2.0249 11.9999 2.0249C14.4666 2.0249 16.7241 2.92023 18.4653 4.40363L14.1881 8.6808C13.5605 8.26621 12.8084 8.02486 12 8.02486C11.1187 8.02486 10.3045 8.31161 9.64543 8.79691L5.38347 4.53494ZM4.53494 5.38347C2.97323 7.14417 2.0249 9.46129 2.0249 11.9999C2.0249 14.4666 2.92022 16.7241 4.40361 18.4653L8.68089 14.188C8.26631 13.5604 8.02496 12.8083 8.02496 11.9999C8.02496 11.1187 8.31168 10.3045 8.79692 9.64545L4.53494 5.38347ZM5.23522 19.3307C7.0131 20.9721 9.38939 21.9749 11.9999 21.9749C14.5386 21.9749 16.8557 21.0265 18.6164 19.4648L14.3545 15.2028C13.6954 15.6881 12.8812 15.9749 12 15.9749C11.0465 15.9749 10.1714 15.6391 9.48647 15.0795L5.23522 19.3307ZM19.465 18.6162C21.0266 16.8555 21.9749 14.5385 21.9749 11.9999C21.9749 9.3894 20.9721 7.01312 19.3307 5.23524L15.0796 9.48639C15.6393 10.1713 15.975 11.0464 15.975 11.9999C15.975 12.881 15.6882 13.6952 15.203 14.3543L19.465 18.6162ZM9.22496 11.9999C9.22496 10.4673 10.4674 9.22486 12 9.22486C13.5326 9.22486 14.775 10.4673 14.775 11.9999C14.775 13.5324 13.5326 14.7749 12 14.7749C10.4674 14.7749 9.22496 13.5324 9.22496 11.9999Z" fill="black"/>
</svg>
