<svg width="24" height="24" viewBox="0 0 24 24" fill="none" xmlns="http://www.w3.org/2000/svg">
<path fill-rule="evenodd" clip-rule="evenodd" d="M12.0555 2.95692C12.5132 2.32834 13.5078 2.65208 13.5078 3.42963V9.21502C13.5078 9.5628 13.6395 9.88774 13.8759 10.1241C14.117 10.3653 14.444 10.5007 14.785 10.5007H18.0424C18.6989 10.5007 19.0781 11.2457 18.6917 11.7764L11.9463 21.043C11.4887 21.6717 10.4939 21.348 10.4939 20.5704L10.4939 14.7851C10.4939 14.4388 10.3615 14.1134 10.124 13.876C9.88293 13.6349 9.55591 13.4994 9.21492 13.4994H5.9576C5.30104 13.4994 4.92191 12.7544 5.30837 12.2236M5.30837 12.2236L12.0555 2.95692L5.30837 12.2236Z" fill="black"/>
</svg>
