<svg width="24" height="24" viewBox="0 0 24 24" fill="none" xmlns="http://www.w3.org/2000/svg">
<path fill-rule="evenodd" clip-rule="evenodd" d="M5.15484 6.30005L5.15484 8.90005H5.75484L5.75484 6.30005H5.15484ZM19.8299 7L8.65989 7V8.2L19.8299 8.2V7ZM19.8299 11.3999L8.65989 11.3999V12.5999H19.8299V11.3999ZM8.65989 15.8H19.8299V17H8.65989V15.8ZM6.14175 11.3H4.26997V10.7H6.19175C6.49551 10.7 6.74175 10.9462 6.74175 11.25V11.75C6.74175 12.0537 6.49551 12.3 6.19175 12.3H4.76992V12.7H6.64002V13.3H4.71992C4.41617 13.3 4.16992 13.0537 4.16992 12.75V12.25C4.16992 11.9462 4.41616 11.7 4.71992 11.7H6.14175V11.3ZM4.26997 15.7001H6.14175V16.1001H4.26997V16.7001H6.14175V17.1001H4.26994V17.7001H6.19175C6.49551 17.7001 6.74175 17.4539 6.74175 17.1501V15.6501C6.74175 15.3463 6.49551 15.1001 6.19175 15.1001H4.26997V15.7001Z" fill="black"/>
</svg>
