<svg width="24" height="24" viewBox="0 0 24 24" fill="none" xmlns="http://www.w3.org/2000/svg">
<path fill-rule="evenodd" clip-rule="evenodd" d="M8.81687 6.99998L19.9869 6.99998L19.9869 8.19998L8.81687 8.19998V6.99998Z" fill="black"/>
<path fill-rule="evenodd" clip-rule="evenodd" d="M8.81687 11.4L19.9869 11.4L19.9869 12.6H8.81687V11.4Z" fill="black"/>
<path fill-rule="evenodd" clip-rule="evenodd" d="M8.81687 15.8H19.9869L19.9869 17H8.81687V15.8Z" fill="black"/>
<path d="M7.21294 7.6C7.21294 6.71634 6.4966 6 5.61294 6C4.72928 6 4.01294 6.71634 4.01294 7.6C4.01294 8.48366 4.72928 9.2 5.61294 9.2C6.4966 9.2 7.21294 8.48366 7.21294 7.6Z" fill="black"/>
<path d="M7.21294 11.9999C7.21294 11.1162 6.4966 10.3999 5.61294 10.3999C4.72928 10.3999 4.01294 11.1162 4.01294 11.9999C4.01294 12.8836 4.72928 13.5999 5.61294 13.5999C6.4966 13.5999 7.21294 12.8836 7.21294 11.9999Z" fill="black"/>
<path d="M7.21294 16.4C7.21294 15.5164 6.4966 14.8 5.61294 14.8C4.72928 14.8 4.01294 15.5164 4.01294 16.4C4.01294 17.2837 4.72928 18 5.61294 18C6.4966 18 7.21294 17.2837 7.21294 16.4Z" fill="black"/>
</svg>
