<svg width="24" height="24" viewBox="0 0 24 24" fill="none" xmlns="http://www.w3.org/2000/svg">
<path fill-rule="evenodd" clip-rule="evenodd" d="M8.74721 3.34731C9.60988 2.48464 10.7799 2 11.9999 2C13.2199 2 14.3899 2.48464 15.2526 3.34731C16.1153 4.20998 16.5999 5.38 16.5999 6.6V7.60002H15.3999V6.6C15.3999 5.69826 15.0417 4.83346 14.4041 4.19584C13.7664 3.55821 12.9016 3.2 11.9999 3.2C11.0982 3.2 10.2334 3.55821 9.59574 4.19584C8.95812 4.83346 8.5999 5.69826 8.5999 6.6V7.60002H7.3999V6.6C7.3999 5.38 7.88454 4.20998 8.74721 3.34731ZM4.2499 9.19995C3.78046 9.19995 3.3999 9.58051 3.3999 10.05V21.15C3.3999 21.6194 3.78046 22 4.2499 22H19.7499C20.2193 22 20.5999 21.6194 20.5999 21.15V10.05C20.5999 9.58051 20.2193 9.19995 19.7499 9.19995H4.2499ZM10.4331 15.6C10.4331 14.7321 11.1367 14.0286 12.0045 14.0286C12.8724 14.0286 13.576 14.7321 13.576 15.6C13.576 16.4679 12.8724 17.1714 12.0045 17.1714C11.1367 17.1714 10.4331 16.4679 10.4331 15.6Z" fill="black"/>
</svg>
