<svg width="24" height="24" viewBox="0 0 24 24" fill="none" xmlns="http://www.w3.org/2000/svg">
<path fill-rule="evenodd" clip-rule="evenodd" d="M12 2C10.78 2 9.60998 2.48464 8.74731 3.34731L9.59584 4.19584C10.2335 3.55821 11.0983 3.2 12 3.2C12.9017 3.2 13.7665 3.55821 14.4042 4.19584C15.0418 4.83346 15.4 5.69826 15.4 6.6V7.60002H16.6V6.6C16.6 5.38 16.1154 4.20998 15.2527 3.34731C14.39 2.48464 13.22 2 12 2ZM3.3999 10.05C3.3999 9.58051 3.78046 9.19995 4.2499 9.19995H19.7499C20.2193 9.19995 20.5999 9.58051 20.5999 10.05V21.15C20.5999 21.6194 20.2193 22 19.7499 22H4.2499C3.78046 22 3.3999 21.6194 3.3999 21.15V10.05ZM10.4329 15.6C10.4329 14.7321 11.1364 14.0286 12.0043 14.0286C12.8722 14.0286 13.5757 14.7321 13.5757 15.6C13.5757 16.4679 12.8722 17.1714 12.0043 17.1714C11.1364 17.1714 10.4329 16.4679 10.4329 15.6Z" fill="black"/>
</svg>
