<svg width="24" height="24" viewBox="0 0 24 24" fill="none" xmlns="http://www.w3.org/2000/svg">
<path fill-rule="evenodd" clip-rule="evenodd" d="M10.3131 3.39352C12.0153 3.05493 13.7796 3.22871 15.3831 3.89286C16.9865 4.55702 18.3569 5.68174 19.3211 7.12478C20.2854 8.56782 20.8 10.2644 20.8 11.9999C20.8 13.7354 20.2854 15.432 19.3211 16.875C18.3569 18.3181 16.9865 19.4428 15.383 20.1069C13.7796 20.7711 12.0153 20.9449 10.3131 20.6063C8.61091 20.2677 7.04735 19.432 5.82015 18.2048L4.97162 19.0533C6.36665 20.4483 8.14402 21.3983 10.079 21.7832C12.0139 22.1681 14.0196 21.9706 15.8423 21.2156C17.665 20.4606 19.2228 19.1821 20.3189 17.5417C21.415 15.9013 22 13.9728 22 11.9999C22 10.027 21.415 8.09847 20.3189 6.45809C19.2228 4.81771 17.665 3.53919 15.8423 2.78421C14.0196 2.02922 12.0139 1.83169 10.079 2.21657C8.14402 2.60146 6.36665 3.55149 4.97162 4.94651L5.82015 5.79504C7.04735 4.56784 8.61091 3.7321 10.3131 3.39352ZM12.4306 12.6001L9.5355 15.4955L10.3842 16.3438L14.167 12.5607C14.4989 12.2287 14.4989 11.6905 14.167 11.3586L10.3841 7.57577L9.53561 8.42428L12.5114 11.4001L2 11.4001V12.6001H12.4306Z" fill="black"/>
</svg>
