<svg width="24" height="24" viewBox="0 0 24 24" fill="none" xmlns="http://www.w3.org/2000/svg">
<path fill-rule="evenodd" clip-rule="evenodd" d="M13.7118 3.39352C12.0096 3.05493 10.2453 3.22871 8.64185 3.89286C7.03843 4.55702 5.66796 5.68174 4.70376 7.12478C3.73955 8.56782 3.2249 10.2644 3.2249 11.9999C3.2249 13.7354 3.73955 15.432 4.70376 16.875C5.66797 18.3181 7.03843 19.4428 8.64185 20.1069C10.2453 20.7711 12.0096 20.9449 13.7118 20.6063C15.414 20.2677 16.9776 19.432 18.2048 18.2048L19.0533 19.0533C17.6583 20.4483 15.8809 21.3983 13.9459 21.7832C12.011 22.1681 10.0053 21.9706 8.18263 21.2156C6.35994 20.4606 4.80206 19.1821 3.70599 17.5417C2.60993 15.9013 2.0249 13.9728 2.0249 11.9999C2.0249 10.027 2.60993 8.09847 3.70599 6.45809C4.80206 4.81771 6.35994 3.53919 8.18263 2.78421C10.0053 2.02922 12.011 1.83169 13.9459 2.21657C15.8809 2.60146 17.6583 3.55149 19.0533 4.94651L18.2048 5.79504C16.9776 4.56784 15.414 3.7321 13.7118 3.39352ZM18.0744 16.3438L17.2257 15.4955L20.1208 12.6001L11 12.6001L11 11.4001L20.2016 11.4001L17.2258 8.42428L18.0743 7.57577L21.8572 11.3586C22.1891 11.6905 22.1891 12.2287 21.8572 12.5607L18.0744 16.3438Z" fill="black"/>
</svg>
