<svg width="24" height="24" viewBox="0 0 24 24" fill="none" xmlns="http://www.w3.org/2000/svg">
<path fill-rule="evenodd" clip-rule="evenodd" d="M9.39673 3.77811C9.13359 3.6441 8.81975 3.65627 8.56777 3.81026L3.80667 6.71982C3.55401 6.87422 3.3999 7.14899 3.3999 7.44511V19.3078C3.3999 19.9685 4.12068 20.3766 4.68722 20.0367L8.3999 17.8091V6.7493H9.5999V17.7202L14.6088 20.2246C14.8688 20.3546 15.1771 20.3428 15.4263 20.1932L20.1872 17.3367C20.4432 17.1831 20.5999 16.9064 20.5999 16.6078V4.69511C20.5999 4.03132 19.8731 3.62368 19.3067 3.96982L15.5999 6.23506V17.2493H14.3999V6.32602L9.39673 3.77811Z" fill="black"/>
</svg>
