<svg width="24" height="24" viewBox="0 0 24 24" fill="none" xmlns="http://www.w3.org/2000/svg">
<path fill-rule="evenodd" clip-rule="evenodd" d="M3.3999 8.10015V6.50015C3.3999 4.78806 4.78782 3.40015 6.4999 3.40015H8.0999V4.60015L6.4999 4.60015C5.45056 4.60015 4.5999 5.45081 4.5999 6.50015L4.5999 8.10015H3.3999ZM20.6001 6.50015V8.10015H19.4001V6.50015C19.4001 5.45081 18.5494 4.60015 17.5001 4.60015L15.9001 4.60015V3.40015H17.5001C19.2122 3.40015 20.6001 4.78806 20.6001 6.50015ZM20.6001 17.4999V15.8999H19.4001V17.4999C19.4001 18.5493 18.5494 19.3999 17.5001 19.3999H15.9001V20.5999H17.5001C19.2122 20.5999 20.6001 19.212 20.6001 17.4999ZM3.3999 17.4999V15.8999H4.5999L4.5999 17.4999C4.5999 18.5493 5.45056 19.3999 6.4999 19.3999H8.0999V20.5999H6.4999C4.78782 20.5999 3.3999 19.212 3.3999 17.4999Z" fill="black"/>
</svg>
