<svg width="24" height="24" viewBox="0 0 24 24" fill="none" xmlns="http://www.w3.org/2000/svg">
<path d="M3.08984 3.93896L3.93837 3.09044L20.9089 20.061L20.0604 20.9095L3.08984 3.93896Z" fill="black"/>
<path d="M6.81533 9.36147V12.2067C6.81533 13.5816 7.36151 14.9002 8.33372 15.8724C9.30594 16.8446 10.6245 17.3908 11.9994 17.3908C12.8067 17.3908 13.5945 17.2025 14.3042 16.8503L6.81533 9.36147Z" fill="black"/>
<path d="M16.7751 19.3212C15.3732 20.2621 13.7131 20.775 12.0002 20.775C9.72773 20.775 7.54837 19.8723 5.94151 18.2654C4.33466 16.6586 3.43193 14.4792 3.43193 12.2068L2.23193 12.2068C2.23193 14.7975 3.26108 17.2821 5.09298 19.114C6.92488 20.9459 9.40947 21.975 12.0002 21.975C14.0327 21.975 15.9999 21.3416 17.6378 20.184L16.7751 19.3212Z" fill="black"/>
<path d="M18.5786 19.4277L17.7291 18.5782C17.8414 18.4771 17.9514 18.3728 18.0588 18.2654C18.2355 18.0887 18.4037 17.9051 18.5631 17.7152L19.4145 18.5665C19.253 18.7547 19.0839 18.9374 18.9074 19.114C18.8 19.2213 18.6904 19.3259 18.5786 19.4277Z" fill="black"/>
<path d="M20.1448 17.5998C21.1959 16.0123 21.7684 14.1391 21.7684 12.2068H20.5684C20.5684 13.8189 20.1141 15.3841 19.2764 16.7314L20.1448 17.5998Z" fill="black"/>
<path d="M16.7732 14.2282C17.0415 13.5947 17.1836 12.908 17.1836 12.2067V7.20902C17.1836 5.83411 16.6374 4.51551 15.6652 3.5433C14.693 2.57108 13.3744 2.0249 11.9994 2.0249C10.6245 2.0249 9.30594 2.57108 8.33372 3.54329C7.94902 3.928 7.63102 4.36694 7.38718 4.84215L16.7732 14.2282Z" fill="black"/>
<path d="M6.81533 7.66442V7.20902C6.81533 6.82957 6.85693 6.45441 6.93761 6.08964L16.1546 15.3066C16.0062 15.5056 15.8428 15.6948 15.6652 15.8724C15.5576 15.9799 15.4458 16.0823 15.3302 16.1793L6.81533 7.66442Z" fill="black"/>
</svg>
