<svg width="24" height="24" viewBox="0 0 24 24" fill="none" xmlns="http://www.w3.org/2000/svg">
<path fill-rule="evenodd" clip-rule="evenodd" d="M11.9997 2.0249C10.6248 2.0249 9.3062 2.57108 8.33399 3.54329C7.36178 4.51551 6.8156 5.83411 6.8156 7.20902V12.2067C6.8156 13.5816 7.36178 14.9002 8.33399 15.8724C9.3062 16.8446 10.6248 17.3908 11.9997 17.3908C13.3746 17.3908 14.6932 16.8446 15.6654 15.8724C16.6377 14.9002 17.1838 13.5816 17.1838 12.2067V7.20902C17.1838 5.83411 16.6377 4.51551 15.6654 3.5433C14.6932 2.57108 13.3746 2.0249 11.9997 2.0249Z" fill="black"/>
<path fill-rule="evenodd" clip-rule="evenodd" d="M5.09274 19.114C6.92464 20.9459 9.40923 21.975 11.9999 21.975C14.5906 21.975 17.0752 20.9459 18.9071 19.114C20.739 17.2821 21.7682 14.7975 21.7682 12.2068H20.5682C20.5682 14.4792 19.6654 16.6586 18.0586 18.2654C16.4517 19.8723 14.2724 20.775 11.9999 20.775C9.72749 20.775 7.54812 19.8723 5.94127 18.2654C4.33441 16.6586 3.43169 14.4792 3.43169 12.2068L2.23169 12.2068C2.23169 14.7975 3.26084 17.2821 5.09274 19.114Z" fill="black"/>
</svg>
