<svg width="24" height="24" viewBox="0 0 24 24" fill="none" xmlns="http://www.w3.org/2000/svg">
<path fill-rule="evenodd" clip-rule="evenodd" d="M10.6502 7.54995V5.94995H9.4502V7.54995C9.4502 8.59929 8.59954 9.44995 7.5502 9.44995H5.9502V10.65H7.5502C9.26228 10.65 10.6502 9.26203 10.6502 7.54995ZM10.6502 16.45V18.05H9.4502V16.45C9.4502 15.4007 8.59954 14.55 7.5502 14.55H5.9502V13.35H7.5502C9.26228 13.35 10.6502 14.738 10.6502 16.45ZM13.3499 18.05V16.45C13.3499 14.738 14.7378 13.35 16.4499 13.35H18.0499V14.55H16.4499C15.4006 14.55 14.5499 15.4007 14.5499 16.45V18.05H13.3499ZM13.3499 7.54995V5.94995H14.5499V7.54995C14.5499 8.59929 15.4006 9.44995 16.4499 9.44995H18.0499V10.65H16.4499C14.7378 10.65 13.3499 9.26203 13.3499 7.54995Z" fill="black"/>
</svg>
