<svg width="24" height="24" viewBox="0 0 24 24" fill="none" xmlns="http://www.w3.org/2000/svg">
<path fill-rule="evenodd" clip-rule="evenodd" d="M11.1553 4.1901C11.346 3.89397 11.3205 3.54434 11.1644 3.29108C11.0044 3.03149 10.6839 2.84212 10.3093 2.91526C6.08675 3.73965 2.8999 7.45821 2.8999 11.9224C2.8999 16.991 7.00877 21.0998 12.0773 21.0998C16.5413 21.0998 20.2597 17.9133 21.0844 13.691C21.1575 13.3164 20.9682 12.996 20.7086 12.8359C20.4553 12.6797 20.1057 12.6542 19.8096 12.845C18.8337 13.4736 17.6721 13.8384 16.4235 13.8384C12.9651 13.8384 10.1616 11.0349 10.1616 7.5765C10.1616 6.32777 10.5265 5.16609 11.1553 4.1901Z" fill="black"/>
</svg>
