<svg width="24" height="24" viewBox="0 0 24 24" fill="none" xmlns="http://www.w3.org/2000/svg">
<path fill-rule="evenodd" clip-rule="evenodd" d="M14.9774 4.13652H9.62241V17.2645C9.62241 19.3625 7.92165 21.0633 5.82366 21.0633C3.72566 21.0633 2.0249 19.3625 2.0249 17.2645C2.0249 15.1665 3.72566 13.4658 5.82366 13.4658C6.82891 13.4658 7.74295 13.8562 8.42241 14.4938V3.78652C8.42241 3.31708 8.80297 2.93652 9.27241 2.93652H14.9774V4.13652ZM21.125 2.93652H14.9774V4.13652H20.775V14.4938C20.0955 13.8562 19.1814 13.4658 18.1762 13.4658C16.0782 13.4658 14.3774 15.1665 14.3774 17.2645C14.3774 19.3625 16.0782 21.0633 18.1762 21.0633C20.2742 21.0633 21.975 19.3625 21.975 17.2645V3.78652C21.975 3.31708 21.5944 2.93652 21.125 2.93652Z" fill="black"/>
</svg>
