<svg width="24" height="24" viewBox="0 0 24 24" fill="none" xmlns="http://www.w3.org/2000/svg">
<path fill-rule="evenodd" clip-rule="evenodd" d="M12.4504 2.68535C12.1748 2.51308 11.825 2.51309 11.5494 2.68535L9.04328 4.25168L16.9787 9.26556C16.9858 9.26999 16.9928 9.2745 16.9997 9.27908L19.6912 7.59692L20.0064 7.40783L12.4504 2.68535ZM14.8738 10.6077L6.93182 5.57134L4.03071 7.38453L4.3395 7.61613L11.9999 12.4039L14.8738 10.6077ZM3.3999 15.9728V8.41143L3.63989 8.59142C3.65348 8.60161 3.66749 8.61122 3.68189 8.62022L11.3999 13.444V21.4439L3.7994 16.6936C3.55088 16.5382 3.3999 16.2659 3.3999 15.9728ZM20.2004 16.6936L12.5999 21.4439V13.444L20.3133 8.62311L20.5999 8.45113V15.9728C20.5999 16.2659 20.4489 16.5382 20.2004 16.6936Z" fill="black"/>
</svg>
