<svg width="24" height="24" viewBox="0 0 24 24" fill="none" xmlns="http://www.w3.org/2000/svg">
<path fill-rule="evenodd" clip-rule="evenodd" d="M21.375 12C21.375 17.1777 17.1777 21.375 12 21.375C6.82233 21.375 2.625 17.1777 2.625 12C2.625 6.82233 6.82233 2.625 12 2.625C17.1777 2.625 21.375 6.82233 21.375 12ZM8.87495 8.32495C8.57119 8.32495 8.32495 8.57119 8.32495 8.87495V15.125C8.32495 15.4287 8.57119 15.675 8.87495 15.675H10.625C10.9287 15.675 11.175 15.4287 11.175 15.125V8.87495C11.175 8.57119 10.9287 8.32495 10.625 8.32495H8.87495ZM13.375 8.32495C13.0712 8.32495 12.825 8.57119 12.825 8.87495V15.125C12.825 15.4287 13.0712 15.675 13.375 15.675H15.125C15.4287 15.675 15.675 15.4287 15.675 15.125V8.87495C15.675 8.57119 15.4287 8.32495 15.125 8.32495H13.375Z" fill="black"/>
</svg>
