<svg width="24" height="24" viewBox="0 0 24 24" fill="none" xmlns="http://www.w3.org/2000/svg">
<path fill-rule="evenodd" clip-rule="evenodd" d="M6.2499 5.3999C5.78046 5.3999 5.3999 5.78046 5.3999 6.2499V17.7499C5.3999 18.2193 5.78046 18.5999 6.2499 18.5999H9.7499C10.2193 18.5999 10.5999 18.2193 10.5999 17.7499V6.2499C10.5999 5.78046 10.2193 5.3999 9.7499 5.3999H6.2499ZM14.2499 5.3999C13.7805 5.3999 13.3999 5.78046 13.3999 6.2499V17.7499C13.3999 18.2193 13.7805 18.5999 14.2499 18.5999H17.7499C18.2193 18.5999 18.5999 18.2193 18.5999 17.7499V6.2499C18.5999 5.78046 18.2193 5.3999 17.7499 5.3999H14.2499Z" fill="black"/>
</svg>
