<svg width="24" height="24" viewBox="0 0 24 24" fill="none" xmlns="http://www.w3.org/2000/svg">
<path fill-rule="evenodd" clip-rule="evenodd" d="M12.9452 10.0828C12.2725 9.41019 11.2571 9.28924 10.4612 9.71996L5.05938 4.31812L16.7785 7.76492C17.0979 7.85886 17.3331 8.1306 17.3801 8.46017L17.8948 12.0627L11.9549 18.0025L8.35242 17.4879C8.02285 17.4408 7.75111 17.2057 7.65717 16.8863L4.20996 5.16575L9.61262 10.5684C9.18168 11.3644 9.30258 12.3799 9.9753 13.0527C10.7954 13.8728 12.125 13.8728 12.9452 13.0527C13.7653 12.2326 13.7653 10.9029 12.9452 10.0828ZM12.0966 10.9313C11.7452 10.5799 11.1753 10.5799 10.8238 10.9313C10.4724 11.2828 10.4724 11.8527 10.8238 12.2041C11.1753 12.5556 11.7452 12.5556 12.0966 12.2041C12.4481 11.8527 12.4481 11.2828 12.0966 10.9313ZM14.3946 19.5935L13.2278 18.4267L18.319 13.3356L19.4858 14.5024C19.8177 14.8343 19.8177 15.3725 19.4858 15.7044L15.5967 19.5935C15.2648 19.9255 14.7266 19.9255 14.3946 19.5935Z" fill="black"/>
</svg>
