<svg width="24" height="24" viewBox="0 0 24 24" fill="none" xmlns="http://www.w3.org/2000/svg">
<path fill-rule="evenodd" clip-rule="evenodd" d="M7.50015 4.3999C9.21223 4.3999 10.6001 5.78782 10.6001 7.4999C10.6001 9.21198 9.21223 10.5999 7.50015 10.5999C5.78806 10.5999 4.40015 9.21198 4.40015 7.4999C4.40015 5.78782 5.78806 4.3999 7.50015 4.3999ZM18.5758 4.57568L4.57579 18.5757L5.42432 19.4242L19.4243 5.42421L18.5758 4.57568ZM19.6001 16.4999C19.6001 14.7878 18.2122 13.3999 16.5001 13.3999C14.788 13.3999 13.4001 14.7878 13.4001 16.4999C13.4001 18.212 14.788 19.5999 16.5001 19.5999C18.2122 19.5999 19.6001 18.212 19.6001 16.4999Z" fill="black"/>
</svg>
