<svg width="24" height="24" viewBox="0 0 24 24" fill="none" xmlns="http://www.w3.org/2000/svg">
<path fill-rule="evenodd" clip-rule="evenodd" d="M4.9621 5.41683C4.21665 6.16229 3.79785 7.17335 3.79785 8.22758C3.79785 9.28182 4.21665 10.2929 4.9621 11.0383L12.9171 18.9933C13.6625 19.7387 14.6736 20.1575 15.7278 20.1575C16.782 20.1575 17.7931 19.7387 18.5386 18.9933L19.9528 17.5791C20.2847 17.2471 20.2847 16.7089 19.9528 16.377L17.1243 13.5486C16.7924 13.2166 16.2542 13.2166 15.9223 13.5486L14.2252 15.2456L8.70977 9.73019L10.4068 8.03313C10.7388 7.70118 10.7388 7.16299 10.4068 6.83105L7.5784 4.00262C7.24645 3.67068 6.70826 3.67068 6.37632 4.00262L4.9621 5.41683Z" fill="black"/>
</svg>
