<svg width="24" height="24" viewBox="0 0 24 24" fill="none" xmlns="http://www.w3.org/2000/svg">
<path fill-rule="evenodd" clip-rule="evenodd" d="M9.79991 2.26831C5.34936 3.27012 2.0249 7.24678 2.0249 11.9999C2.0249 17.5089 6.49086 21.9749 11.9999 21.9749C16.753 21.9749 20.7297 18.6504 21.7315 14.1999C21.7293 14.1999 21.7271 14.1999 21.7249 14.1999H11.6499C10.6282 14.1999 9.7999 13.3716 9.7999 12.3499V2.2749C9.7999 2.2727 9.79991 2.27051 9.79991 2.26831Z" fill="black"/>
<path d="M12.2499 12.6001H21.1249C21.5923 12.6001 21.9841 12.2173 21.9714 11.7337C21.8324 6.43618 17.5639 2.16768 12.2663 2.02862C11.7828 2.01593 11.3999 2.40769 11.3999 2.87513V11.7501C11.3999 12.2196 11.7805 12.6001 12.2499 12.6001Z" fill="black"/>
</svg>
