<svg width="24" height="24" viewBox="0 0 24 24" fill="none" xmlns="http://www.w3.org/2000/svg">
<mask id="mask0_13018_30106" style="mask-type:alpha" maskUnits="userSpaceOnUse" x="2" y="2" width="20" height="20">
<path d="M2 4C2 2.89543 2.89543 2 4 2H20C21.1046 2 22 2.89543 22 4V20C22 21.1046 21.1046 22 20 22H4C2.89543 22 2 21.1046 2 20V4Z" fill="#D9D9D9"/>
</mask>
<g mask="url(#mask0_13018_30106)">
<path fill-rule="evenodd" clip-rule="evenodd" d="M24.5602 5.37998C20.5833 2.04296 14.6541 2.56169 11.3171 6.5386L10.3979 5.76725C14.1609 1.28266 20.8469 0.697709 25.3315 4.46073L24.5602 5.37998Z" fill="black"/>
<path fill-rule="evenodd" clip-rule="evenodd" d="M-3.48793 7.69191C0.48897 11.0289 6.41807 10.5102 9.75509 6.53329L10.6743 7.30464C6.91132 11.7892 0.225315 12.3742 -4.25928 8.61116L-3.48793 7.69191Z" fill="black"/>
<path fill-rule="evenodd" clip-rule="evenodd" d="M-4.95204 2.2278C-0.975142 5.56481 4.95396 5.04609 8.29098 1.06918L9.21023 1.84053C5.44721 6.32512 -1.2388 6.91007 -5.72339 3.14705L-4.95204 2.2278Z" fill="black"/>
<path fill-rule="evenodd" clip-rule="evenodd" d="M27.4884 16.3082C23.5115 12.9712 17.5824 13.4899 14.2454 17.4668L13.3261 16.6955C17.0891 12.2109 23.7751 11.6259 28.2597 15.389L27.4884 16.3082Z" fill="black"/>
<path fill-rule="evenodd" clip-rule="evenodd" d="M-0.559711 18.6201C3.41719 21.9571 9.34629 21.4384 12.6833 17.4615L13.6026 18.2329C9.83955 22.7175 3.15354 23.3024 -1.33106 19.5394L-0.559711 18.6201Z" fill="black"/>
<path fill-rule="evenodd" clip-rule="evenodd" d="M28.9527 21.7723C24.9758 18.4353 19.0467 18.954 15.7097 22.9309L14.7905 22.1596C18.5535 17.675 25.2395 17.09 29.7241 20.8531L28.9527 21.7723Z" fill="black"/>
<path fill-rule="evenodd" clip-rule="evenodd" d="M26.0243 10.8441C22.0474 7.50708 16.1183 8.02581 12.7812 12.0027L11.862 11.2314C15.625 6.74677 22.311 6.16182 26.7956 9.92484L26.0243 10.8441Z" fill="black"/>
<path fill-rule="evenodd" clip-rule="evenodd" d="M-2.02382 13.156C1.95308 16.493 7.88218 15.9743 11.2192 11.9974L12.1385 12.7688C8.37543 17.2533 1.68942 17.8383 -2.79517 14.0753L-2.02382 13.156Z" fill="black"/>
</g>
</svg>
