<svg width="24" height="24" viewBox="0 0 24 24" fill="none" xmlns="http://www.w3.org/2000/svg">
<path fill-rule="evenodd" clip-rule="evenodd" d="M11.9999 2.03003C11.3103 2.03003 10.649 2.30396 10.1614 2.79155C9.67383 3.27915 9.3999 3.94047 9.3999 4.63003V8.53003L3.7399 12.775C3.52587 12.9356 3.3999 13.1875 3.3999 13.455V15.4832C3.3999 16.0633 3.96829 16.473 4.5187 16.2896L9.3999 14.6625V18.03L7.7399 19.275C7.52587 19.4356 7.3999 19.6875 7.3999 19.955V21.0098C7.3999 21.5628 7.91958 21.9686 8.45606 21.8345L11.9999 20.9485L15.5437 21.8345C16.0802 21.9686 16.5999 21.5628 16.5999 21.0098V19.955C16.5999 19.6875 16.4739 19.4356 16.2599 19.275L14.5999 18.03V14.6625L19.4811 16.2896C20.0315 16.473 20.5999 16.0633 20.5999 15.4832V13.455C20.5999 13.1875 20.4739 12.9356 20.2599 12.775L14.5999 8.53003V4.63003C14.5999 3.94047 14.326 3.27915 13.8384 2.79155C13.3508 2.30396 12.6895 2.03003 11.9999 2.03003Z" fill="black"/>
</svg>
