<svg width="24" height="24" viewBox="0 0 24 24" fill="none" xmlns="http://www.w3.org/2000/svg">
<path fill-rule="evenodd" clip-rule="evenodd" d="M3.2499 7.44946C2.78046 7.44946 2.3999 7.83002 2.3999 8.29946V17.7819C2.3999 18.2513 2.78046 18.6319 3.2499 18.6319H6.3999V16.2995C6.3999 15.83 6.78046 15.4495 7.2499 15.4495H16.7499C17.2193 15.4495 17.5999 15.83 17.5999 16.2995V18.6319H20.7499C21.2193 18.6319 21.5999 18.2513 21.5999 17.7819V8.29946C21.5999 7.83002 21.2193 7.44946 20.7499 7.44946H3.2499ZM17.1997 10.6472C17.6415 10.6472 17.9997 10.289 17.9997 9.84717H19.1997C19.1997 10.9517 18.3043 11.8472 17.1997 11.8472C16.0951 11.8472 15.1997 10.9517 15.1997 9.84717H16.3997C16.3997 10.289 16.7579 10.6472 17.1997 10.6472Z" fill="black"/>
<path d="M7.60156 16.8385C7.60156 16.7336 7.70003 16.6484 7.82148 16.6484H16.1785C16.3 16.6484 16.3984 16.7336 16.3984 16.8385V20.2606C16.3984 20.3656 16.3 20.4507 16.1785 20.4507H7.82148C7.70002 20.4507 7.60156 20.3656 7.60156 20.2606V16.8385Z" fill="black"/>
<path d="M16.75 3.54956H7.25C7.11193 3.54956 7 3.66149 7 3.79956V5.59956C7 5.73763 7.11193 5.84956 7.25 5.84956H16.75C16.8881 5.84956 17 5.73763 17 5.59956V3.79956C17 3.66149 16.8881 3.54956 16.75 3.54956Z" fill="black"/>
</svg>
