<svg width="24" height="24" viewBox="0 0 24 24" fill="none" xmlns="http://www.w3.org/2000/svg">
<path fill-rule="evenodd" clip-rule="evenodd" d="M21.3752 12C21.3752 17.1777 17.1779 21.375 12.0002 21.375C6.82257 21.375 2.62524 17.1777 2.62524 12C2.62524 6.82233 6.82257 2.625 12.0002 2.625C17.1779 2.625 21.3752 6.82233 21.3752 12ZM9.85744 6.6657C10.4427 6.3278 11.1066 6.1499 11.7824 6.1499C12.4583 6.1499 13.1222 6.3278 13.7074 6.6657C14.2927 7.00361 14.7787 7.48963 15.1166 8.0749C15.4545 8.66018 15.6324 9.32409 15.6324 9.9999C15.6324 10.6757 15.4545 11.3396 15.1166 11.9249C14.7787 12.5102 14.2927 12.9962 13.7074 13.3341C13.1222 13.672 12.4583 13.8499 11.7824 13.8499V12.6499C12.2476 12.6499 12.7046 12.5275 13.1074 12.2949C13.5103 12.0623 13.8448 11.7278 14.0774 11.3249C14.31 10.9221 14.4324 10.4651 14.4324 9.9999C14.4324 9.53473 14.31 9.07775 14.0774 8.6749C13.8448 8.27205 13.5103 7.93752 13.1074 7.70494C12.7046 7.47235 12.2476 7.3499 11.7824 7.3499C11.3173 7.3499 10.8603 7.47235 10.4574 7.70494C10.0546 7.93752 9.72006 8.27205 9.48747 8.6749L8.44824 8.0749C8.78615 7.48963 9.27217 7.00361 9.85744 6.6657ZM12.8 16.45C12.8 16.0082 12.4418 15.65 12 15.65C11.5581 15.65 11.2 16.0082 11.2 16.45C11.2 16.8918 11.5581 17.25 12 17.25C12.4418 17.25 12.8 16.8918 12.8 16.45Z" fill="black"/>
</svg>
