<svg width="24" height="24" viewBox="0 0 24 24" fill="none" xmlns="http://www.w3.org/2000/svg">
<path fill-rule="evenodd" clip-rule="evenodd" d="M11.2003 2.06494C9.62794 2.19146 8.09445 2.69022 6.73265 3.53704C5.58937 4.24798 4.6126 5.17594 3.84993 6.25675V4.00016H2.64993V7.68766C2.64993 8.19162 3.05847 8.60016 3.56243 8.60016H7.24993V7.40016H4.53218C5.23852 6.25541 6.20473 5.27841 7.36633 4.55609C8.53651 3.82842 9.8508 3.3929 11.2003 3.26935V2.06494ZM11.2003 20.8889C10.8846 20.8612 10.5694 20.8163 10.2558 20.7539C8.07067 20.3193 6.13269 19.0697 4.83498 17.2588C3.53726 15.4478 2.97697 13.211 3.26778 11.0022L2.07804 10.8455C1.74747 13.3565 2.38438 15.8991 3.85956 17.9577C5.33475 20.0164 7.53774 21.4368 10.0217 21.9309C10.4129 22.0087 10.8064 22.0626 11.2003 22.093V20.8889ZM12.8003 22.0877V20.8829C14.1383 20.7554 15.4408 20.3211 16.6015 19.5993C17.8152 18.8445 18.8156 17.8118 19.5292 16.6001H16.8116V15.4001H20.4991C21.0031 15.4001 21.4116 15.8086 21.4116 16.3126V20.0001H20.2116V17.7634C19.4359 18.9021 18.4258 19.8779 17.2352 20.6183C15.8828 21.4593 14.3612 21.957 12.8003 22.0877ZM12.8003 3.26937V2.06495C13.1832 2.09578 13.5658 2.14885 13.9461 2.2245C16.4301 2.71859 18.6331 4.13901 20.1083 6.19762C21.5835 8.25624 22.2204 10.7989 21.8898 13.3098L20.7001 13.1532C20.9909 10.9443 20.4306 8.70756 19.1329 6.89659C17.8351 5.08563 15.8972 3.83609 13.712 3.40145C13.4093 3.34123 13.105 3.29728 12.8003 3.26937Z" fill="black"/>
</svg>
