<svg width="24" height="24" viewBox="0 0 24 24" fill="none" xmlns="http://www.w3.org/2000/svg">
<path fill-rule="evenodd" clip-rule="evenodd" d="M5.76531 3.82389C6.32566 3.40363 7.12531 3.80345 7.12531 4.50389V9.2296C7.12531 9.92096 6.34385 10.3231 5.78126 9.92127L2.55395 7.61605C2.08611 7.28188 2.07806 6.58933 2.538 6.24437L5.76531 3.82389ZM14.0472 6.34106H8.72932V7.54106H14.0472C16.2394 7.54106 18.0165 9.31814 18.0165 11.5103V12.3153H19.2165V11.5103C19.2165 8.6554 16.9021 6.34106 14.0472 6.34106ZM9.47802 17.8218L15.2696 17.8218V16.6218L9.47802 16.6218C7.28589 16.6218 5.50881 14.8447 5.50881 12.6526V11.6835L4.30881 11.6835V12.6526C4.30881 15.5074 6.62315 17.8218 9.47802 17.8218ZM18.2343 20.1761C17.674 20.5964 16.8743 20.1966 16.8743 19.4961V14.7704C16.8743 14.079 17.6558 13.6769 18.2184 14.0787L21.4457 16.384C21.9135 16.7181 21.9216 17.4107 21.4617 17.7556L18.2343 20.1761Z" fill="black"/>
</svg>
