<svg width="24" height="24" viewBox="0 0 24 24" fill="none" xmlns="http://www.w3.org/2000/svg">
<path fill-rule="evenodd" clip-rule="evenodd" d="M4.52736 7.39991C5.23411 6.25186 6.20204 5.27212 7.36622 4.54818C9.25818 3.37169 11.5268 2.95889 13.7119 3.39354C15.8971 3.82819 17.835 5.07773 19.1327 6.88869C20.0487 8.16684 20.5972 9.6571 20.7385 11.2H21.9429C21.7986 9.40721 21.171 7.67284 20.1082 6.18972C18.633 4.1311 16.43 2.71068 13.946 2.2166C11.4621 1.72251 8.88323 2.19175 6.73254 3.52914C5.58936 4.24002 4.61266 5.16788 3.85002 6.24857V3.99991H2.65002V7.68741C2.65002 8.19137 3.05856 8.59991 3.56252 8.59991H7.25002V7.39991H4.52736ZM20.6999 13.1453C20.7151 13.0302 20.7279 12.9151 20.7385 12.8H21.9429C21.9294 12.9673 21.9117 13.1347 21.8897 13.3019C21.5591 15.8129 20.2858 18.104 18.3281 19.7107C16.3704 21.3174 13.8748 22.1192 11.3476 21.9536C8.82044 21.7879 6.45089 20.6672 4.71962 18.8188C3.17151 17.1659 2.23744 15.0417 2.05713 12.8H3.26154C3.43878 14.7365 4.25576 16.5681 5.59546 17.9985C7.11845 19.6245 9.20295 20.6104 11.4261 20.7561C13.6493 20.9019 15.8446 20.1965 17.5668 18.7831C19.289 17.3697 20.4091 15.3542 20.6999 13.1453ZM8.90002 15.3515L8.90002 8.64835H10.1V15.3515H8.90002ZM15.1501 9.84982H12.7253V11.3998H14.3753C14.8447 11.3998 15.2253 11.7804 15.2253 12.2498V14.4998C15.2253 14.9693 14.8447 15.3498 14.3753 15.3498H11.6001V14.1498H14.0253V12.5998H12.3753C11.9058 12.5998 11.5253 12.2193 11.5253 11.7498V9.49982C11.5253 9.03037 11.9058 8.64982 12.3753 8.64982H15.1501V9.84982Z" fill="black"/>
</svg>
