<svg width="24" height="24" viewBox="0 0 24 24" fill="none" xmlns="http://www.w3.org/2000/svg">
<path fill-rule="evenodd" clip-rule="evenodd" d="M4 8.3999C7.07651 8.3999 10.027 9.62204 12.2024 11.7975C14.3779 13.9729 15.6 16.9234 15.6 19.9999H14.4C14.4 17.2417 13.3043 14.5964 11.3539 12.646C9.40353 10.6956 6.75825 9.5999 4 9.5999L4 8.3999Z" fill="black"/>
<path fill-rule="evenodd" clip-rule="evenodd" d="M4 3.3999C8.40259 3.3999 12.6249 5.14883 15.738 8.26193C18.8511 11.375 20.6 15.5973 20.6 19.9999H19.4C19.4 15.9156 17.7775 11.9985 14.8894 9.11046C12.0014 6.2224 8.08433 4.5999 4 4.5999L4 3.3999Z" fill="black"/>
<path fill-rule="evenodd" clip-rule="evenodd" d="M6.85 14.3C5.27599 14.3 4 15.5759 4 17.15C4 18.724 5.27599 20 6.85 20C8.42401 20 9.7 18.724 9.7 17.15C9.7 15.5759 8.42401 14.3 6.85 14.3Z" fill="black"/>
</svg>
