<svg width="24" height="24" viewBox="0 0 24 24" fill="none" xmlns="http://www.w3.org/2000/svg">
<path fill-rule="evenodd" clip-rule="evenodd" d="M14.3326 2.87598C12.8967 2.87598 11.7326 4.04004 11.7326 5.47598C11.7326 6.91192 12.8967 8.07598 14.3326 8.07598C15.7685 8.07598 16.9326 6.91192 16.9326 5.47598C16.9326 4.04004 15.7685 2.87598 14.3326 2.87598Z" fill="black"/>
<path fill-rule="evenodd" clip-rule="evenodd" d="M8.62324 12.9662C9.12719 11.0855 10.9226 9.89563 12.7997 10.0951L12.1227 12.4644L12.1193 12.4634L10.9802 16.4634C10.4623 18.2675 8.58018 19.3105 6.77583 18.7931L6.44507 19.9466C8.73017 20.6018 11.1075 19.4074 11.977 17.2501C13.9316 17.4594 15.4538 19.1141 15.4538 21.1243H16.6538C16.6538 18.5742 14.781 16.4616 12.3358 16.0869L13.5403 11.8708C14.327 13.2759 15.83 14.2257 17.5549 14.2257V13.0257C15.6835 13.0257 14.1654 11.5128 14.1572 9.64331C14.1643 9.37613 13.9909 9.12765 13.722 9.05083L13.7097 9.04743C10.9889 8.32004 8.19313 9.93498 7.46413 12.6556L8.62324 12.9662Z" fill="black"/>
</svg>
