<svg width="24" height="24" viewBox="0 0 24 24" fill="none" xmlns="http://www.w3.org/2000/svg">
<path fill-rule="evenodd" clip-rule="evenodd" d="M4.28562 3.3999C3.79645 3.3999 3.3999 3.79645 3.3999 4.28562V19.7142C3.3999 20.2034 3.79645 20.5999 4.28562 20.5999H7.3999V14.2856C7.3999 13.7964 7.79645 13.3999 8.28562 13.3999H15.7142C16.2034 13.3999 16.5999 13.7965 16.5999 14.2856V20.5999H19.7142C20.2034 20.5999 20.5999 20.2034 20.5999 19.7142V7.54682C20.5999 7.31192 20.5066 7.08663 20.3405 6.92053L17.0793 3.65932C16.9132 3.49322 16.6879 3.3999 16.453 3.3999H4.28562ZM8.5999 14.5999V20.3999H15.3999V14.5999H8.5999ZM8.5999 6.20005C8.5999 7.24939 9.45056 8.10005 10.4999 8.10005C11.5492 8.10005 12.3999 7.24939 12.3999 6.20005H13.5999C13.5999 7.91213 12.212 9.30005 10.4999 9.30005C8.78782 9.30005 7.3999 7.91213 7.3999 6.20005H8.5999Z" fill="black"/>
</svg>
