<svg width="24" height="24" viewBox="0 0 24 24" fill="none" xmlns="http://www.w3.org/2000/svg">
<path fill-rule="evenodd" clip-rule="evenodd" d="M12.5291 2.14793C12.2187 1.89958 11.7776 1.89958 11.4671 2.14793L8.80048 4.28125L5.40768 4.65823C5.01256 4.70213 4.70065 5.01404 4.65674 5.40916L4.27938 8.80544L2.14769 11.4701C1.89934 11.7805 1.89934 12.2216 2.14769 12.532L4.27991 15.1973L4.65699 18.5911C4.7009 18.9862 5.01281 19.2981 5.40793 19.342L8.80097 19.719L11.4671 21.8519C11.7776 22.1003 12.2187 22.1003 12.5291 21.8519L15.195 19.7192L18.59 19.342C18.9851 19.2981 19.297 18.9862 19.3409 18.5911L19.7178 15.1994L21.8517 12.532C22.1 12.2216 22.1 11.7805 21.8517 11.4701L19.7183 8.80335L19.3412 5.40916C19.2973 5.01404 18.9854 4.70213 18.5903 4.65823L15.1955 4.28103L12.5291 2.14793Z" fill="black"/>
</svg>
