<svg width="24" height="24" viewBox="0 0 24 24" fill="none" xmlns="http://www.w3.org/2000/svg">
<path d="M5.8499 7.9999C5.8499 7.77899 6.02899 7.5999 6.2499 7.5999C6.47082 7.5999 6.6499 7.77899 6.6499 7.9999C6.6499 8.22082 6.47082 8.3999 6.2499 8.3999C6.02899 8.3999 5.8499 8.22082 5.8499 7.9999Z" fill="black"/>
<path fill-rule="evenodd" clip-rule="evenodd" d="M2.5249 5.2499C2.5249 4.78046 2.90546 4.3999 3.3749 4.3999H20.6249C21.0943 4.3999 21.4749 4.78046 21.4749 5.2499V10.7499C21.4749 11.2193 21.0943 11.5999 20.6249 11.5999H3.3749C2.90546 11.5999 2.5249 11.2193 2.5249 10.7499V5.2499ZM6.2499 6.3999C5.36625 6.3999 4.6499 7.11625 4.6499 7.9999C4.6499 8.88356 5.36625 9.5999 6.2499 9.5999C7.13356 9.5999 7.8499 8.88356 7.8499 7.9999C7.8499 7.11625 7.13356 6.3999 6.2499 6.3999Z" fill="black"/>
<path d="M5.8499 15.9999C5.8499 15.779 6.02899 15.5999 6.2499 15.5999C6.47082 15.5999 6.6499 15.779 6.6499 15.9999C6.6499 16.2208 6.47082 16.3999 6.2499 16.3999C6.02899 16.3999 5.8499 16.2208 5.8499 15.9999Z" fill="black"/>
<path fill-rule="evenodd" clip-rule="evenodd" d="M2.5249 13.2499C2.5249 12.7805 2.90546 12.3999 3.3749 12.3999H20.6249C21.0943 12.3999 21.4749 12.7805 21.4749 13.2499V18.7499C21.4749 19.2193 21.0943 19.5999 20.6249 19.5999H3.3749C2.90546 19.5999 2.5249 19.2193 2.5249 18.7499V13.2499ZM6.2499 14.3999C5.36625 14.3999 4.6499 15.1162 4.6499 15.9999C4.6499 16.8836 5.36625 17.5999 6.2499 17.5999C7.13356 17.5999 7.8499 16.8836 7.8499 15.9999C7.8499 15.1162 7.13356 14.3999 6.2499 14.3999Z" fill="black"/>
</svg>
