<svg width="24" height="24" viewBox="0 0 24 24" fill="none" xmlns="http://www.w3.org/2000/svg">
<path fill-rule="evenodd" clip-rule="evenodd" d="M8.18202 7.92788L7.33366 7.07919L11.3996 3.01361C11.7315 2.68167 12.2697 2.68166 12.6017 3.0136L16.6673 7.0792L15.8188 7.92774L12.6 4.70901L12.6 15.2605L11.4 15.2605V4.71019L8.18202 7.92788ZM3.22502 11.2605C3.22503 12.4073 3.44986 13.5488 3.89299 14.6186C4.55714 16.222 5.68186 17.5924 7.1249 18.5566C8.56794 19.5209 10.2645 20.0355 12 20.0355C13.7356 20.0355 15.4321 19.5209 16.8752 18.5567C18.3182 17.5924 19.4429 16.222 20.1071 14.6186C20.5502 13.5488 20.775 12.4073 20.775 11.2605L21.975 11.2605C21.975 12.5641 21.7194 13.8617 21.2157 15.0778C20.4607 16.9005 19.1822 18.4583 17.5418 19.5544C15.9015 20.6505 13.9729 21.2355 12 21.2355C10.0272 21.2355 8.09859 20.6505 6.45821 19.5544C4.81783 18.4583 3.53931 16.9005 2.78433 15.0778C2.28061 13.8617 2.02503 12.5641 2.02502 11.2605L3.22502 11.2605Z" fill="black"/>
</svg>
