<svg width="24" height="24" viewBox="0 0 24 24" fill="none" xmlns="http://www.w3.org/2000/svg">
<path fill-rule="evenodd" clip-rule="evenodd" d="M16.6426 3.31421C15.0015 3.31421 13.6711 4.64456 13.6711 6.28564C13.6711 6.56715 13.7103 6.83952 13.7834 7.0976L8.62251 10.0773C8.07747 9.43566 7.26474 9.02856 6.35693 9.02856C4.71586 9.02856 3.3855 10.3589 3.3855 12C3.3855 13.6411 4.71586 14.9714 6.35693 14.9714C7.26474 14.9714 8.07746 14.5643 8.6225 13.9227L13.7834 16.9024C13.7103 17.1605 13.6711 17.4328 13.6711 17.7143C13.6711 19.3554 15.0015 20.6858 16.6426 20.6858C18.2837 20.6858 19.614 19.3554 19.614 17.7143C19.614 16.0733 18.2837 14.7429 16.6426 14.7429C15.7761 14.7429 14.9963 15.1138 14.4531 15.7054L9.2457 12.6989C9.29974 12.4748 9.32837 12.2407 9.32837 12C9.32837 11.7593 9.29974 11.5252 9.2457 11.301L14.4531 8.29456C14.9963 8.8862 15.7761 9.25706 16.6426 9.25706C18.2837 9.25706 19.614 7.92671 19.614 6.28564C19.614 4.64456 18.2837 3.31421 16.6426 3.31421Z" fill="black"/>
</svg>
