<svg width="24" height="24" viewBox="0 0 24 24" fill="none" xmlns="http://www.w3.org/2000/svg">
<path d="M3.09058 3.91846L3.9391 3.06993L20.9097 20.0405L20.0611 20.889L3.09058 3.91846Z" fill="black"/>
<path fill-rule="evenodd" clip-rule="evenodd" d="M3.39966 6.49023V13.7795H3.40879C3.61774 18.3435 7.38407 21.9795 11.9997 21.9795C13.9382 21.9795 15.727 21.3381 17.1653 20.2559L3.39966 6.49023ZM19.101 18.2318C18.873 18.565 18.622 18.8812 18.3506 19.1784L3.71049 4.53833C3.79559 4.46846 3.89518 4.41442 4.00541 4.38135L4.96323 4.09401L19.101 18.2318ZM19.9044 16.7725C20.3021 15.8473 20.542 14.8384 20.5905 13.7795H20.5997V5.1955C20.5997 4.82013 20.3534 4.48921 19.9939 4.38135L12.2439 2.05636C12.0846 2.00856 11.9147 2.00856 11.7554 2.05636L6.7038 3.57184L19.9044 16.7725Z" fill="black"/>
</svg>
