<svg width="24" height="24" viewBox="0 0 24 24" fill="none" xmlns="http://www.w3.org/2000/svg">
<path fill-rule="evenodd" clip-rule="evenodd" d="M8.25005 15.8404C7.59363 15.8404 6.96411 16.1012 6.49995 16.5653C6.18001 16.8853 5.95671 17.2838 5.84883 17.7155H7.12498C7.18366 17.6055 7.25868 17.5037 7.34848 17.4139C7.58759 17.1748 7.91189 17.0404 8.25005 17.0404C8.5882 17.0404 8.9125 17.1748 9.15161 17.4139C9.24141 17.5037 9.31643 17.6055 9.37511 17.7155H10.6513C10.5434 17.2838 10.3201 16.8853 10.0001 16.5653C9.53599 16.1012 8.90646 15.8404 8.25005 15.8404ZM10.8751 18.9155C10.9338 19.0255 11.0088 19.1272 11.0985 19.217C11.3376 19.4561 11.6619 19.5904 12.0001 19.5904C12.3382 19.5904 12.6625 19.4561 12.9016 19.217C12.9914 19.1272 13.0663 19.0255 13.125 18.9155H14.4012C14.2933 19.3472 14.07 19.7456 13.7502 20.0655C13.286 20.5297 12.6565 20.7904 12.0001 20.7904C11.3436 20.7904 10.7141 20.5297 10.25 20.0655C9.93007 19.7456 9.70679 19.3472 9.5989 18.9155H10.8751ZM6.90119 18.9155H5.62498C5.56632 19.0255 5.49134 19.1272 5.4016 19.217C5.16249 19.4561 4.83819 19.5904 4.50004 19.5904C4.16188 19.5904 3.83758 19.4561 3.59847 19.217C3.50873 19.1272 3.43375 19.0255 3.37509 18.9155H2.09888C2.20677 19.3472 2.43005 19.7456 2.74994 20.0655C3.2141 20.5297 3.84362 20.7904 4.50004 20.7904C5.15645 20.7904 5.78598 20.5297 6.25013 20.0655C6.57002 19.7456 6.7933 19.3472 6.90119 18.9155ZM14.625 17.7155H13.3489C13.4567 17.2838 13.68 16.8853 14 16.5653C14.4641 16.1012 15.0937 15.8404 15.7501 15.8404C16.4065 15.8404 17.036 16.1012 17.5002 16.5653C17.8201 16.8853 18.0434 17.2838 18.1513 17.7155H16.8751C16.8165 17.6055 16.7414 17.5037 16.6516 17.4139C16.4125 17.1748 16.0882 17.0404 15.7501 17.0404C15.4119 17.0404 15.0876 17.1748 14.8485 17.4139C14.7587 17.5037 14.6837 17.6055 14.625 17.7155ZM17.0989 18.9155C17.2068 19.3472 17.4301 19.7456 17.75 20.0655C18.2141 20.5297 18.8437 20.7904 19.5001 20.7904C20.1565 20.7904 20.786 20.5297 21.2502 20.0655C21.5701 19.7456 21.7933 19.3472 21.9012 18.9155H20.625C20.5664 19.0255 20.4914 19.1272 20.4016 19.217C20.1625 19.4561 19.8382 19.5904 19.5001 19.5904C19.1619 19.5904 18.8376 19.4561 18.5985 19.217C18.5088 19.1272 18.4338 19.0255 18.3751 18.9155H17.0989Z" fill="black"/>
<path d="M10.4154 3.79526C10.4795 3.85941 10.5389 3.92747 10.5932 3.99887L10.61 4.02123C10.6618 4.09139 10.7092 4.16535 10.7512 4.24122C10.8739 4.46295 10.9538 4.70687 10.9856 4.96011C11.0028 5.09711 10.8893 5.20947 10.7512 5.20947L7.25119 5.20947C7.11311 5.20947 6.99957 5.09711 7.01678 4.96011C7.04777 4.71346 7.12439 4.47565 7.2417 4.25857L7.25119 4.24122C7.29114 4.169 7.33563 4.09913 7.38448 4.03207L7.39242 4.02123L7.40118 4.00947C7.45764 3.93419 7.51966 3.86257 7.58697 3.79526C7.96205 3.42019 8.47075 3.20947 9.00119 3.20947C9.53162 3.20947 10.0403 3.42019 10.4154 3.79526Z" fill="black"/>
<path d="M6.60108 7.20972V9.60974H5.40108V6.85972C5.40108 6.39028 5.78164 6.00972 6.25108 6.00972H15.8209C16.1868 6.00972 16.5116 6.24383 16.6273 6.59092L17.5703 9.42001L16.4319 9.79948L15.5686 7.20972H6.60108Z" fill="black"/>
<path d="M2.34136 11.5154C2.24393 10.9926 2.64514 10.5097 3.17697 10.5097H20.7927C21.3594 10.5097 21.7674 11.0537 21.6087 11.5977L20.0046 17.0977C19.8988 17.4604 19.5664 17.7097 19.1886 17.7097H19.1806L19.1214 17.473C18.97 16.8669 18.6565 16.3074 18.2072 15.8581C17.5555 15.2064 16.6717 14.8403 15.75 14.8403C14.8284 14.8403 13.9445 15.2064 13.2928 15.8581C12.8436 16.3074 12.5301 16.8669 12.3787 17.473L12.3195 17.7097H11.6806L11.6214 17.473C11.47 16.8669 11.1565 16.3074 10.7072 15.8581C10.0556 15.2064 9.17167 14.8403 8.25004 14.8403C7.32842 14.8403 6.44454 15.2064 5.79285 15.8581C5.34361 16.3074 5.0301 16.8669 4.87866 17.473L4.81953 17.7097H4.20193C3.79254 17.7097 3.44131 17.4179 3.36631 17.0154L2.34136 11.5154Z" fill="black"/>
<path d="M7.12805 17.7097H5.85027C5.94224 17.3453 6.11647 17.0048 6.36166 16.7154C6.40551 16.6637 6.45163 16.6137 6.49995 16.5653C6.96411 16.1012 7.59363 15.8404 8.25005 15.8404C8.90646 15.8404 9.53599 16.1012 10.0001 16.5653C10.0485 16.6137 10.0946 16.6637 10.1384 16.7154C10.3836 17.0048 10.5578 17.3453 10.6498 17.7097H9.37203C9.31382 17.6019 9.23985 17.5021 9.15161 17.4139C8.9125 17.1748 8.5882 17.0404 8.25005 17.0404C7.91189 17.0404 7.58759 17.1748 7.34848 17.4139C7.26024 17.5021 7.18627 17.6019 7.12805 17.7097Z" fill="black"/>
<path d="M14.6281 17.7097H13.3503C13.4422 17.3453 13.6165 17.0048 13.8617 16.7154C13.9055 16.6637 13.9516 16.6137 14 16.5653C14.4641 16.1012 15.0937 15.8404 15.7501 15.8404C16.4065 15.8404 17.036 16.1012 17.5002 16.5653C17.5485 16.6137 17.5946 16.6637 17.6384 16.7154C17.8836 17.0048 18.0579 17.3453 18.1498 17.7097H16.872C16.8138 17.6019 16.7399 17.5021 16.6516 17.4139C16.4125 17.1748 16.0882 17.0404 15.7501 17.0404C15.4119 17.0404 15.0876 17.1748 14.8485 17.4139C14.7603 17.5021 14.6863 17.6019 14.6281 17.7097Z" fill="black"/>
</svg>
