<svg width="24" height="24" viewBox="0 0 24 24" fill="none" xmlns="http://www.w3.org/2000/svg">
<path fill-rule="evenodd" clip-rule="evenodd" d="M8.5968 3.43474C9.49951 2.53203 10.7238 2.0249 12.0004 2.0249C13.2771 2.0249 14.5014 2.53203 15.4041 3.43474C16.3068 4.33744 16.8139 5.56176 16.8139 6.83838V6.9599H15.6139V6.83838C15.6139 5.88002 15.2332 4.96092 14.5556 4.28326C13.8779 3.60561 12.9588 3.2249 12.0004 3.2249C11.0421 3.2249 10.123 3.60561 9.44533 4.28326C8.76767 4.96092 8.38697 5.88002 8.38697 6.83838V6.9599H7.18697V6.83838C7.18697 5.56176 7.6941 4.33744 8.5968 3.43474Z" fill="black"/>
<path fill-rule="evenodd" clip-rule="evenodd" d="M4.02686 9.40582C4.02686 8.93638 4.40741 8.55582 4.87686 8.55582H19.124C19.5935 8.55582 19.974 8.93638 19.974 9.40582V21.1249C19.974 21.5944 19.5935 21.9749 19.124 21.9749H4.87686C4.40741 21.9749 4.02686 21.5944 4.02686 21.1249V9.40582ZM15.614 10.7558C15.614 12.7514 13.9962 14.3692 12.0005 14.3692C10.0048 14.3692 8.38702 12.7514 8.38702 10.7558L7.18702 10.7558C7.18702 13.4142 9.34208 15.5692 12.0005 15.5692C14.6589 15.5693 16.814 13.4142 16.814 10.7558H15.614Z" fill="black"/>
</svg>
