<svg width="24" height="24" viewBox="0 0 24 24" fill="none" xmlns="http://www.w3.org/2000/svg">
<path d="M15.6552 20.8192C16.5531 20.8192 17.281 20.0913 17.281 19.1934H14.0294C14.0294 20.0913 14.7573 20.8192 15.6552 20.8192Z" fill="black"/>
<path fill-rule="evenodd" clip-rule="evenodd" d="M14.0294 19.1934C14.0294 19.6686 14.2332 20.0961 14.5582 20.3934C14.8474 20.6579 15.2324 20.8192 15.6552 20.8192C16.0779 20.8192 16.463 20.6579 16.7521 20.3934C17.0771 20.0961 17.281 19.6686 17.281 19.1934H14.0294Z" fill="black"/>
<path d="M7.29385 20.8192C8.19175 20.8192 8.91965 20.0913 8.91965 19.1934H5.66804C5.66804 20.0913 6.39594 20.8192 7.29385 20.8192Z" fill="black"/>
<path fill-rule="evenodd" clip-rule="evenodd" d="M5.66804 19.1934C5.66804 19.6686 5.87189 20.0961 6.1969 20.3934C6.48606 20.6579 6.87111 20.8192 7.29385 20.8192C7.71658 20.8192 8.10164 20.6579 8.39079 20.3934C8.7158 20.0961 8.91965 19.6686 8.91965 19.1934H5.66804Z" fill="black"/>
<path d="M5.33689 7.10279C4.86745 7.10279 4.48689 7.48335 4.48689 7.95279V16.7431C4.48689 17.2126 4.86745 17.5931 5.33689 17.5931H18.2465C18.6366 17.5931 18.9766 17.3277 19.0712 16.9493L21.2687 8.15894C21.4029 7.62247 20.9971 7.10279 20.4441 7.10279H5.33689Z" fill="black"/>
<path fill-rule="evenodd" clip-rule="evenodd" d="M5.68699 5.50339C5.68699 4.72828 5.37907 3.98491 4.83098 3.43682C4.28289 2.88873 3.53952 2.58081 2.7644 2.58081L2.7644 3.78081C3.22126 3.78081 3.65941 3.9623 3.98245 4.28534C4.3055 4.60839 4.48698 5.04654 4.48699 5.50339L5.68699 5.50339Z" fill="black"/>
</svg>
