<svg width="24" height="24" viewBox="0 0 24 24" fill="none" xmlns="http://www.w3.org/2000/svg">
<path fill-rule="evenodd" clip-rule="evenodd" d="M17.9385 9.16549C17.3781 9.58576 16.5784 9.18594 16.5784 8.48549V3.42816C16.5784 2.73678 17.3599 2.33463 17.9225 2.73649L21.3762 5.20348C21.844 5.53765 21.8521 6.23019 21.3922 6.57514L17.9385 9.16549ZM8.62166 9.20719C8.27819 8.42745 7.79095 7.71014 7.17683 7.096C5.87437 5.79351 4.10784 5.06177 2.26587 5.06177V6.26177C3.78957 6.26177 5.25087 6.86707 6.32829 7.94452C7.40572 9.02197 8.01101 10.4833 8.01101 12.0071C8.01101 13.5308 7.40572 14.9922 6.32829 16.0696C5.25087 17.1471 3.78957 17.7524 2.26587 17.7524V18.9524C4.10784 18.9524 5.87437 18.2206 7.17683 16.9181C7.79095 16.304 8.27819 15.5867 8.62166 14.807C8.96513 15.5867 9.45236 16.304 10.0665 16.9181C11.3689 18.2206 13.1355 18.9524 14.9774 18.9524V17.7524C13.4537 17.7524 11.9924 17.1471 10.915 16.0696C9.8376 14.9922 9.2323 13.5308 9.2323 12.0071C9.2323 10.4833 9.83759 9.02198 10.915 7.94452C11.9924 6.86707 13.4537 6.26177 14.9774 6.26177L14.9774 5.06177C13.1355 5.06177 11.3689 5.79351 10.0665 7.09601C9.45236 7.71014 8.96513 8.42745 8.62166 9.20719ZM16.5804 20.5717C16.5804 21.2721 17.3801 21.6719 17.9404 21.2517L21.3941 18.6613C21.854 18.3164 21.846 17.6238 21.3782 17.2897L17.9245 14.8227C17.3619 14.4208 16.5804 14.823 16.5804 15.5143V20.5717Z" fill="black"/>
</svg>
