<svg width="24" height="24" viewBox="0 0 24 24" fill="none" xmlns="http://www.w3.org/2000/svg">
<path fill-rule="evenodd" clip-rule="evenodd" d="M7.61913 13.0974L7.57549 2.4978L6.3755 2.50274L6.41914 13.1024L7.61913 13.0974ZM20.5755 6.09951C20.5755 4.11129 18.9637 2.49951 16.9755 2.49951C14.9873 2.49951 13.3755 4.11129 13.3755 6.09951C13.3755 8.08773 14.9873 9.69951 16.9755 9.69951C18.9637 9.69951 20.5755 8.08773 20.5755 6.09951ZM10.6243 17.8996C10.6243 15.9114 9.01255 14.2996 7.02432 14.2996C5.03609 14.2996 3.42432 15.9114 3.42432 17.8996C3.42432 19.8878 5.03609 21.4996 7.02432 21.4996C9.01255 21.4996 10.6243 19.8878 10.6243 17.8996ZM17.5755 10.8979L17.6191 21.4976L16.4191 21.5025L16.3755 10.9029L17.5755 10.8979Z" fill="black"/>
</svg>
