<svg width="24" height="24" viewBox="0 0 24 24" fill="none" xmlns="http://www.w3.org/2000/svg">
<path fill-rule="evenodd" clip-rule="evenodd" d="M5.6 4.42407C3.61178 4.42407 2 6.03583 2 8.02404C2 10.0123 3.61178 11.624 5.6 11.624C7.58822 11.624 9.2 10.0123 9.2 8.02404C9.2 6.03583 7.58822 4.42407 5.6 4.42407ZM18.3998 12.3757C16.4116 12.3757 14.7998 13.9875 14.7998 15.9757C14.7998 17.964 16.4116 19.5757 18.3998 19.5757C20.3881 19.5757 21.9999 17.964 21.9999 15.9757C21.9999 13.9875 20.3881 12.3757 18.3998 12.3757ZM10.7979 7.42425L20.9979 7.38061L21.003 8.5806L10.803 8.62424L10.7979 7.42425ZM13.1978 15.3806L2.99781 15.4243L3.00294 16.6242L13.2029 16.5806L13.1978 15.3806Z" fill="black"/>
</svg>
