<svg width="24" height="24" viewBox="0 0 24 24" fill="none" xmlns="http://www.w3.org/2000/svg">
<path fill-rule="evenodd" clip-rule="evenodd" d="M6.39053 2.0249C5.92109 2.0249 5.54053 2.40546 5.54053 2.8749V21.1249C5.54053 21.5943 5.92109 21.9749 6.39053 21.9749H17.6093C18.0787 21.9749 18.4593 21.5943 18.4593 21.1249V2.8749C18.4593 2.40546 18.0787 2.0249 17.6093 2.0249H6.39053ZM11.9999 16.0249C10.9091 16.0249 10.0249 16.9091 10.0249 17.9999C10.0249 19.0907 10.9091 19.9749 11.9999 19.9749C13.0907 19.9749 13.9749 19.0907 13.9749 17.9999C13.9749 16.9091 13.0907 16.0249 11.9999 16.0249ZM10 5.7H14V4.5H10V5.7Z" fill="black"/>
</svg>
