<svg width="24" height="24" viewBox="0 0 24 24" fill="none" xmlns="http://www.w3.org/2000/svg">
<path fill-rule="evenodd" clip-rule="evenodd" d="M6.2499 3.3999C5.78046 3.3999 5.3999 3.78046 5.3999 4.2499V19.7499C5.3999 20.2193 5.78046 20.5999 6.2499 20.5999H17.7499C18.2193 20.5999 18.5999 20.2193 18.5999 19.7499V4.2499C18.5999 3.78046 18.2193 3.3999 17.7499 3.3999H6.2499ZM11.9999 7.0999C11.779 7.0999 11.5999 7.27899 11.5999 7.4999C11.5999 7.72082 11.779 7.8999 11.9999 7.8999C12.2208 7.8999 12.3999 7.72082 12.3999 7.4999C12.3999 7.27899 12.2208 7.0999 11.9999 7.0999ZM10.3999 7.4999C10.3999 6.61625 11.1162 5.8999 11.9999 5.8999C12.8836 5.8999 13.5999 6.61625 13.5999 7.4999C13.5999 8.38356 12.8836 9.0999 11.9999 9.0999C11.1162 9.0999 10.3999 8.38356 10.3999 7.4999ZM9.5999 14.4999C9.5999 13.1744 10.6744 12.0999 11.9999 12.0999C13.3254 12.0999 14.3999 13.1744 14.3999 14.4999C14.3999 15.8254 13.3254 16.8999 11.9999 16.8999C10.6744 16.8999 9.5999 15.8254 9.5999 14.4999ZM11.9999 10.8999C10.0117 10.8999 8.3999 12.5117 8.3999 14.4999C8.3999 16.4881 10.0117 18.0999 11.9999 18.0999C13.9881 18.0999 15.5999 16.4881 15.5999 14.4999C15.5999 12.5117 13.9881 10.8999 11.9999 10.8999Z" fill="black"/>
</svg>
