<svg width="24" height="24" viewBox="0 0 24 24" fill="none" xmlns="http://www.w3.org/2000/svg">
<path d="M16.625 12C16.625 14.5543 14.5543 16.625 12 16.625C9.4457 16.625 7.37502 14.5543 7.37502 12C7.37502 9.44566 9.4457 7.37498 12 7.37498C14.5543 7.37498 16.625 9.44566 16.625 12Z" fill="black"/>
<path fill-rule="evenodd" clip-rule="evenodd" d="M12.6002 19.5998V21.9998H11.4002V19.5998H12.6002Z" fill="black"/>
<path fill-rule="evenodd" clip-rule="evenodd" d="M12.6 2V4.4H11.4V2L12.6 2Z" fill="black"/>
<path fill-rule="evenodd" clip-rule="evenodd" d="M4.40012 12.5999H2.00012L2.00012 11.3999L4.40012 11.3999L4.40012 12.5999Z" fill="black"/>
<path fill-rule="evenodd" clip-rule="evenodd" d="M21.9999 12.5999H19.5999V11.3999L21.9999 11.3999V12.5999Z" fill="black"/>
<path fill-rule="evenodd" clip-rule="evenodd" d="M7.05021 17.7981L5.35316 19.4951L4.50463 18.6466L6.20169 16.9495L7.05021 17.7981Z" fill="black"/>
<path fill-rule="evenodd" clip-rule="evenodd" d="M19.495 5.35325L17.798 7.0503L16.9494 6.20178L18.6465 4.50472L19.495 5.35325Z" fill="black"/>
<path fill-rule="evenodd" clip-rule="evenodd" d="M16.9498 17.798L18.6468 19.4951L19.4954 18.6466L17.7983 16.9495L16.9498 17.798Z" fill="black"/>
<path fill-rule="evenodd" clip-rule="evenodd" d="M4.50447 5.35322L6.20152 7.05028L7.05005 6.20175L5.35299 4.50469L4.50447 5.35322Z" fill="black"/>
</svg>
