<svg width="24" height="24" viewBox="0 0 24 24" fill="none" xmlns="http://www.w3.org/2000/svg">
<path fill-rule="evenodd" clip-rule="evenodd" d="M4.36865 2.8749C4.36865 2.40546 4.74921 2.0249 5.21865 2.0249H18.7812C19.2506 2.0249 19.6312 2.40546 19.6312 2.8749V21.1249C19.6312 21.5943 19.2506 21.9749 18.7812 21.9749H5.21865C4.74921 21.9749 4.36865 21.5943 4.36865 21.1249V2.8749ZM11.2249 17.9999C11.2249 17.5719 11.5719 17.2249 11.9999 17.2249C12.4279 17.2249 12.7749 17.5719 12.7749 17.9999C12.7749 18.4279 12.4279 18.7749 11.9999 18.7749C11.5719 18.7749 11.2249 18.4279 11.2249 17.9999ZM11.9999 16.0249C10.9091 16.0249 10.0249 16.9091 10.0249 17.9999C10.0249 19.0907 10.9091 19.9749 11.9999 19.9749C13.0907 19.9749 13.9749 19.0907 13.9749 17.9999C13.9749 16.9091 13.0907 16.0249 11.9999 16.0249Z" fill="black"/>
</svg>
