<svg width="24" height="24" viewBox="0 0 24 24" fill="none" xmlns="http://www.w3.org/2000/svg">
<path fill-rule="evenodd" clip-rule="evenodd" d="M4.69165 3.73584C4.23403 3.74016 3.86197 4.10602 3.84997 4.56351L3.67534 11.2211C3.66923 11.4541 3.75913 11.6795 3.92401 11.8444L12.1566 20.0769C12.4885 20.4089 13.0267 20.4089 13.3586 20.0769L20.0762 13.3594C20.4081 13.0275 20.4081 12.4893 20.0762 12.1573L11.8419 3.92303C11.6805 3.76166 11.461 3.67195 11.2328 3.67411L4.69165 3.73584ZM7.58705 8.15362C7.43084 7.99741 7.43084 7.74415 7.58705 7.58794C7.74326 7.43173 7.99652 7.43173 8.15273 7.58794C8.30894 7.74415 8.30894 7.99741 8.15273 8.15362C7.99652 8.30983 7.74326 8.30983 7.58705 8.15362ZM6.73852 6.73941C6.11368 7.36425 6.11368 8.37731 6.73852 9.00215C7.36336 9.62699 8.37642 9.62699 9.00126 9.00215C9.6261 8.37731 9.6261 7.36425 9.00126 6.73941C8.37642 6.11457 7.36336 6.11457 6.73852 6.73941Z" fill="black"/>
</svg>
