<svg width="24" height="24" viewBox="0 0 24 24" fill="none" xmlns="http://www.w3.org/2000/svg">
<path fill-rule="evenodd" clip-rule="evenodd" d="M11.9999 3.2249C7.1536 3.2249 3.2249 7.1536 3.2249 11.9999C3.2249 16.8462 7.1536 20.7749 11.9999 20.7749C16.8462 20.7749 20.7749 16.8462 20.7749 11.9999C20.7749 7.1536 16.8462 3.2249 11.9999 3.2249ZM2.0249 11.9999C2.0249 6.49086 6.49086 2.0249 11.9999 2.0249C17.5089 2.0249 21.9749 6.49086 21.9749 11.9999C21.9749 17.5089 17.5089 21.9749 11.9999 21.9749C6.49086 21.9749 2.0249 17.5089 2.0249 11.9999Z" fill="black"/>
<path fill-rule="evenodd" clip-rule="evenodd" d="M5.5248 11.9998C5.5248 8.42376 8.42376 5.5248 11.9998 5.5248C15.5758 5.5248 18.4748 8.42376 18.4748 11.9998C18.4748 15.5758 15.5758 18.4748 11.9998 18.4748C8.42376 18.4748 5.5248 15.5758 5.5248 11.9998ZM12 13.7725C12.9789 13.7725 13.7725 12.9789 13.7725 12C13.7725 11.021 12.9789 10.2274 12 10.2274C11.021 10.2274 10.2274 11.021 10.2274 12C10.2274 12.9789 11.021 13.7725 12 13.7725Z" fill="black"/>
</svg>
