<svg width="24" height="24" viewBox="0 0 24 24" fill="none" xmlns="http://www.w3.org/2000/svg">
<path fill-rule="evenodd" clip-rule="evenodd" d="M12 2.02002C11.2044 2.02002 10.4413 2.33609 9.87868 2.8987C9.31607 3.46131 9 4.22437 9 5.02002V5.2251H6.18455C5.81139 5.2251 5.48187 5.46847 5.37213 5.82512L3.43749 12.1127C3.41257 12.1937 3.3999 12.278 3.3999 12.3627V18.3251V18.3313V20.3251C3.3999 20.7945 3.78046 21.1751 4.2499 21.1751H6.1499C6.61934 21.1751 6.9999 20.7945 6.9999 20.3251V18.9251H11.9999V18.5001H12V18.9251H16.9996V20.3251C16.9996 20.7945 17.3802 21.1751 17.8496 21.1751H19.7496C20.2191 21.1751 20.5996 20.7945 20.5996 20.3251V18.4521H20.5999V12.3627C20.5999 12.278 20.5872 12.1937 20.5623 12.1127L18.6277 5.82512C18.5179 5.46847 18.1884 5.2251 17.8153 5.2251H15V5.02002C15 4.22437 14.6839 3.46131 14.1213 2.8987C13.5587 2.33609 12.7957 2.02002 12 2.02002ZM6.19995 15.3249C6.19995 14.6069 6.78198 14.0249 7.49995 14.0249C8.21792 14.0249 8.79995 14.6069 8.79995 15.3249C8.79995 16.0429 8.21792 16.6249 7.49995 16.6249C6.78198 16.6249 6.19995 16.0429 6.19995 15.3249ZM15.2 15.3249C15.2 14.6069 15.782 14.0249 16.5 14.0249C17.2179 14.0249 17.8 14.6069 17.8 15.3249C17.8 16.0429 17.2179 16.6249 16.5 16.6249C15.782 16.6249 15.2 16.0429 15.2 15.3249ZM5.7998 12.9251H18.199V11.7251H5.7998V12.9251Z" fill="black"/>
</svg>
