<svg width="24" height="24" viewBox="0 0 24 24" fill="none" xmlns="http://www.w3.org/2000/svg">
<path fill-rule="evenodd" clip-rule="evenodd" d="M11.8348 17.6962C11.5554 18.5345 10.7709 19.0999 9.8873 19.0999C8.75354 19.0999 7.83445 18.1808 7.83445 17.0471V14.5999H3.71559C3.20679 14.5999 2.81196 14.1559 2.87141 13.6506L3.81259 5.65059C3.86295 5.22252 4.22574 4.8999 4.65677 4.8999H14.5846C15.054 4.8999 15.4346 5.28046 15.4346 5.7499V12.2499C15.4346 12.7193 15.054 13.0999 14.5846 13.0999H13.3669L11.8348 17.6962Z" fill="black"/>
<path d="M21.1346 8.9999C21.1346 10.0873 20.7026 11.1301 19.9337 11.899C19.2341 12.5987 18.3077 13.0193 17.3272 13.0895C16.8137 13.1262 16.4346 12.707 16.4346 12.2499V5.7499C16.4346 5.29281 16.8137 4.87362 17.3272 4.91035C18.3077 4.98046 19.2341 5.40112 19.9337 6.10076C20.7026 6.86966 21.1346 7.91251 21.1346 8.9999Z" fill="black"/>
</svg>
