<svg width="24" height="24" viewBox="0 0 24 24" fill="none" xmlns="http://www.w3.org/2000/svg">
<path fill-rule="evenodd" clip-rule="evenodd" d="M14.1127 4.8999C13.2291 4.8999 12.4446 5.46532 12.1652 6.30358L10.6331 10.8999H9.41543C8.94599 10.8999 8.56543 11.2805 8.56543 11.7499V18.2499C8.56543 18.7193 8.94599 19.0999 9.41543 19.0999H19.3432C19.7742 19.0999 20.137 18.7773 20.1874 18.3492L21.1286 10.3492C21.188 9.8439 20.7932 9.3999 20.2844 9.3999H16.1655V6.95275C16.1655 5.81899 15.2464 4.8999 14.1127 4.8999Z" fill="black"/>
<path fill-rule="evenodd" clip-rule="evenodd" d="M2.86548 15C2.86548 13.9126 3.29744 12.8698 4.06634 12.1009C4.76598 11.4012 5.69242 10.9806 6.67288 10.9104C7.1864 10.8737 7.56548 11.2929 7.56548 11.75L7.56548 18.25C7.56548 18.7071 7.1864 19.1263 6.67288 19.0896C5.69242 19.0194 4.76598 18.5988 4.06634 17.8991C3.29744 17.1302 2.86548 16.0874 2.86548 15Z" fill="black"/>
</svg>
