<svg width="24" height="24" viewBox="0 0 24 24" fill="none" xmlns="http://www.w3.org/2000/svg">
<path fill-rule="evenodd" clip-rule="evenodd" d="M18.7687 6.21253C19.1569 5.82433 19.852 5.88849 20.1174 6.43175C21.2053 8.65841 20.825 11.4226 18.9733 13.2743C17.2421 15.0055 14.7134 15.4504 12.5723 14.6123L8.30596 18.8787L4.92593 15.4987L9.19228 11.2323C8.35414 9.09128 8.79908 6.56248 10.5303 4.83128C12.382 2.97958 15.1461 2.59931 17.3728 3.68713C17.916 3.95254 17.9802 4.64767 17.592 5.03587L14.1658 8.46209L15.3425 9.63876L18.7687 6.21253ZM3.79456 16.6301L3.77962 16.645C2.84625 17.5784 2.84625 19.0917 3.77962 20.025C4.71299 20.9584 6.22628 20.9584 7.15965 20.025L7.17459 20.0101L3.79456 16.6301Z" fill="black"/>
</svg>
