<svg width="24" height="24" viewBox="0 0 24 24" fill="none" xmlns="http://www.w3.org/2000/svg">
<path fill-rule="evenodd" clip-rule="evenodd" d="M3.94189 5.73078C3.94189 5.00653 4.2296 4.31195 4.74172 3.79983C5.25384 3.28771 5.94842 3.00006 6.67267 3.00006L17.3273 3C18.0516 3 18.7462 3.28771 19.2583 3.79983C19.7704 4.31195 20.0578 5.00653 20.0578 5.73078V17.6838C20.0578 18.1533 19.6773 18.5338 19.2078 18.5338H4.79238C4.32294 18.5338 3.94238 18.1533 3.94238 17.6838L3.94189 5.73078ZM17.54 19.7573L6.45996 19.7573V20.9573H17.54V19.7573ZM6.74048 10.2555H11.3996V5.77661H12.5996V10.2555H17.2605V11.4555H6.74048V10.2555ZM8.16104 13.3557C7.40696 13.3557 6.79565 13.967 6.79565 14.7211C6.79565 15.4752 7.40696 16.0865 8.16104 16.0865C8.91513 16.0865 9.52643 15.4752 9.52643 14.7211C9.52643 13.967 8.91513 13.3557 8.16104 13.3557ZM15.9423 13.3557C15.1882 13.3557 14.5769 13.967 14.5769 14.7211C14.5769 15.4752 15.1882 16.0865 15.9423 16.0865C16.6964 16.0865 17.3077 15.4752 17.3077 14.7211C17.3077 13.967 16.6964 13.3557 15.9423 13.3557Z" fill="black"/>
</svg>
