<svg width="24" height="24" viewBox="0 0 24 24" fill="none" xmlns="http://www.w3.org/2000/svg">
<path d="M14.5456 3.08444C15.1497 3.68858 15.517 4.48533 15.5875 5.33035C15.6013 5.49546 15.4657 5.63003 15.3 5.63003L8.7 5.63003C8.53431 5.63003 8.3987 5.49546 8.41249 5.33035C8.48304 4.48533 8.85028 3.68858 9.45442 3.08444C10.1295 2.40931 11.0452 2.03003 12 2.03003C12.9548 2.03003 13.8705 2.40931 14.5456 3.08444Z" fill="black"/>
<path fill-rule="evenodd" clip-rule="evenodd" d="M3 8.43001H5.40005L5.4 21.15C5.4 21.6194 5.78056 22 6.25 22H17.7499C18.2195 22 18.6001 21.6193 18.5999 21.1497L18.5963 10.031L18.599 8.43001H21V7.23001H3V8.43001ZM9.4002 17.5L9.4 11.5L10.6 11.5L10.6002 17.5L9.4002 17.5ZM13.4 11.5L13.3998 17.5L14.5998 17.5L14.6 11.5L13.4 11.5Z" fill="black"/>
</svg>
