<svg width="24" height="24" viewBox="0 0 24 24" fill="none" xmlns="http://www.w3.org/2000/svg">
<path fill-rule="evenodd" clip-rule="evenodd" d="M7.82136 17.9367C7.45513 18.4014 6.88726 18.6997 6.24971 18.6997C5.59539 18.6997 5.01445 18.3855 4.64957 17.8997C4.64665 17.8958 4.64374 17.8919 4.64084 17.888C4.6398 17.8866 4.63876 17.8852 4.63772 17.8838C4.58733 17.8153 4.5412 17.7435 4.49972 17.6687C4.49426 17.6589 4.48888 17.649 4.48358 17.639C4.37146 17.4287 4.29583 17.1959 4.26513 16.9492C4.24808 16.8122 4.36164 16.6997 4.49972 16.6997H7.99971C8.13778 16.6997 8.25135 16.8122 8.2343 16.9492C8.20215 17.2076 8.12072 17.4506 7.99971 17.6687C7.99971 17.6687 7.99971 17.6687 7.99971 17.6687M7.85859 17.888C7.8557 17.8919 7.85279 17.8958 7.84986 17.8997C7.84051 17.9122 7.831 17.9245 7.82136 17.9367M7.85859 17.888C7.90805 17.8211 7.95344 17.7511 7.9944 17.6782L7.85859 17.888Z" fill="black"/>
<path fill-rule="evenodd" clip-rule="evenodd" d="M17.8214 17.9367C17.4551 18.4014 16.8873 18.6997 16.2497 18.6997C15.5954 18.6997 15.0145 18.3855 14.6496 17.8997C14.6466 17.8958 14.6437 17.8919 14.6408 17.888C14.6398 17.8866 14.6388 17.8852 14.6377 17.8838C14.5873 17.8153 14.5412 17.7435 14.4997 17.6687C14.4943 17.6589 14.4889 17.649 14.4836 17.639C14.3715 17.4287 14.2958 17.1959 14.2651 16.9492C14.2481 16.8122 14.3616 16.6997 14.4997 16.6997H17.9997C18.1378 16.6997 18.2514 16.8122 18.2343 16.9492C18.2021 17.2076 18.1207 17.4506 17.9997 17.6687C17.998 17.6719 17.9962 17.6751 17.9944 17.6782C17.9534 17.7511 17.9081 17.8211 17.8586 17.888C17.8557 17.8919 17.8528 17.8958 17.8499 17.8997C17.8405 17.9122 17.831 17.9245 17.8214 17.9367Z" fill="black"/>
<path fill-rule="evenodd" clip-rule="evenodd" d="M2.9999 4.7002C2.53046 4.7002 2.1499 5.08075 2.1499 5.5502V15.0502C2.1499 15.5196 2.53046 15.9002 2.9999 15.9002H14.2999C14.7693 15.9002 15.1499 15.5196 15.1499 15.0502V5.5502C15.1499 5.08075 14.7693 4.7002 14.2999 4.7002H2.9999Z" fill="black"/>
<path fill-rule="evenodd" clip-rule="evenodd" d="M15.9497 8.55022C15.9497 8.08077 16.3303 7.7002 16.7997 7.7002H19.5768C19.9312 7.7002 20.2483 7.91998 20.3727 8.25174L21.8501 12.1914V15.0502C21.8501 15.5196 21.4695 15.9002 21.0001 15.9002H16.7999C16.3305 15.9002 15.9499 15.5197 15.9499 15.0502L15.9497 8.55022ZM19.375 9.01562L20.293 11.4597C20.3308 11.5737 20.2562 11.6953 20.1484 11.6953H18.7554C18.6702 11.6953 18.6011 11.6172 18.6011 11.5209V9.07952C18.6011 8.98321 18.6702 8.90514 18.7554 8.90514L19.2305 8.90247C19.2948 8.90247 19.3524 8.94756 19.375 9.01562Z" fill="black"/>
</svg>
