<svg width="24" height="24" viewBox="0 0 24 24" fill="none" xmlns="http://www.w3.org/2000/svg">
<path fill-rule="evenodd" clip-rule="evenodd" d="M17.5456 20.3456C16.8705 21.0207 15.9548 21.4 15 21.4C14.0452 21.4 13.1295 21.0207 12.4544 20.3456C11.7793 19.6704 11.4 18.7548 11.4 17.8H12.6C12.6 18.4365 12.8529 19.047 13.3029 19.497C13.753 19.9471 14.3635 20.2 15 20.2C15.6365 20.2 16.247 19.9471 16.6971 19.497C17.1471 19.047 17.4 18.4365 17.4 17.8H18.6C18.6 18.7548 18.2207 19.6704 17.5456 20.3456Z" fill="black"/>
<path fill-rule="evenodd" clip-rule="evenodd" d="M5.21173 5.41187C7.01208 3.61152 9.45388 2.6001 12 2.6001C14.546 2.6001 16.9878 3.61152 18.7882 5.41187C20.5256 7.14928 21.5283 9.48405 21.5963 11.9334C21.6098 12.4201 21.215 12.8001 20.75 12.8001H12.5999V16.2H11.3999V12.8001H3.24996C2.78493 12.8001 2.39015 12.4201 2.40366 11.9334C2.47165 9.48405 3.47433 7.14928 5.21173 5.41187Z" fill="black"/>
</svg>
