<svg width="24" height="24" viewBox="0 0 24 24" fill="none" xmlns="http://www.w3.org/2000/svg">
<path fill-rule="evenodd" clip-rule="evenodd" d="M17.069 9.60998L17.069 3.72998H18.269V9.60998H17.069ZM12 17.4822C10.3374 17.4822 8.7428 16.8217 7.56712 15.646C6.39145 14.4703 5.73096 12.8758 5.73096 11.2131H6.93096C6.93096 12.5575 7.46502 13.8469 8.41565 14.7975C9.36628 15.7481 10.6556 16.2822 12 16.2822C13.3444 16.2822 14.6337 15.7481 15.5844 14.7975C16.535 13.8469 17.0691 12.5575 17.0691 11.2131H18.2691C18.2691 12.8758 17.6086 14.4703 16.4329 15.646C15.2572 16.8217 13.6627 17.4822 12 17.4822ZM4.82617 20.2801H19.174V19.0801H4.82617V20.2801ZM5.73115 3.72998L5.73115 9.60998H6.93115L6.93115 3.72998H5.73115Z" fill="black"/>
</svg>
