<svg width="24" height="24" viewBox="0 0 24 24" fill="none" xmlns="http://www.w3.org/2000/svg">
<path fill-rule="evenodd" clip-rule="evenodd" d="M12.6709 14.2465L15.2284 16.8039C15.326 16.9015 15.4843 16.9015 15.5819 16.8039L16.0769 16.3089C16.1745 16.2113 16.1745 16.053 16.0769 15.9553L12.5805 12.459C12.3002 12.1787 11.8457 12.1787 11.5653 12.459L8.06942 15.9548C7.97178 16.0525 7.97178 16.2107 8.06941 16.3084L8.56438 16.8034C8.66201 16.901 8.8203 16.901 8.91793 16.8034L11.4709 14.2505L11.4714 20.5502C11.4714 20.6883 11.5834 20.8002 11.7215 20.8002L12.4215 20.8001C12.5595 20.8001 12.6714 20.6882 12.6714 20.5501L12.6709 14.2465Z" fill="black"/>
<path d="M7.03465 8.20429C7.03465 5.44044 9.2753 3.19995 12.0392 3.19995C14.8031 3.19995 17.0438 5.44044 17.0438 8.20429V9.33507C19.5424 9.34055 21.5663 11.3677 21.5663 13.8675C21.5663 15.9733 20.1307 17.7423 18.1858 18.2521L18.1484 18.2619L17.072 18.4001H13.8712L13.8711 17.1438L14.3798 17.6525C14.9461 18.2187 15.8642 18.2187 16.4304 17.6524L16.9254 17.1574C17.4917 16.5912 17.4916 15.6731 16.9254 15.1068L13.429 11.6105C12.68 10.8616 11.4657 10.8616 10.7168 11.6105L7.22085 15.1063C6.65459 15.6726 6.65457 16.5907 7.22082 17.1569L7.71579 17.6519C8.28204 18.2182 9.20013 18.2182 9.7664 17.652L10.2711 17.1473L10.2712 18.4001H7.00008L5.92887 18.2799L5.89184 18.2709C3.90743 17.7883 2.43359 16.0004 2.43359 13.8667C2.43359 11.3635 4.46296 9.33427 6.96623 9.33427H7.03465V8.20429Z" fill="black"/>
</svg>
