<svg width="24" height="24" viewBox="0 0 24 24" fill="none" xmlns="http://www.w3.org/2000/svg">
<path fill-rule="evenodd" clip-rule="evenodd" d="M9.98526 3.71045C7.64457 3.71045 5.74707 5.60795 5.74707 7.94864C5.74707 10.2893 7.64457 12.1868 9.98526 12.1868C12.3259 12.1868 14.2235 10.2893 14.2235 7.94864C14.2235 5.60795 12.3259 3.71045 9.98526 3.71045ZM9.98501 13.7122C6.77688 13.7122 4.15933 16.2393 4.0141 19.4119C3.99133 19.9092 4.39547 20.2894 4.85776 20.2894H15.1123C15.5745 20.2894 15.9787 19.9092 15.9559 19.4119C15.8107 16.2393 13.1931 13.7122 9.98501 13.7122Z" fill="black"/>
<path fill-rule="evenodd" clip-rule="evenodd" d="M16.3867 13.2894V15.6895H17.5867V13.2894H19.9866V12.0894H17.5867V9.68945H16.3867V12.0894H13.9866V13.2894H16.3867Z" fill="black"/>
</svg>
