<svg width="24" height="24" viewBox="0 0 24 24" fill="none" xmlns="http://www.w3.org/2000/svg">
<path d="M10.0143 3.71045C7.67363 3.71045 5.77612 5.60795 5.77612 7.94864C5.77612 10.2893 7.67363 12.1868 10.0143 12.1868C12.355 12.1868 14.2525 10.2893 14.2525 7.94864C14.2525 5.60795 12.355 3.71045 10.0143 3.71045Z" fill="black"/>
<path d="M10.0143 13.7122C6.80617 13.7122 4.18863 16.2393 4.0434 19.4119C4.02063 19.9092 4.42477 20.2894 4.88706 20.2894H15.1416C15.6038 20.2894 16.008 19.9092 15.9852 19.4119C15.84 16.2393 13.2224 13.7122 10.0143 13.7122Z" fill="black"/>
<path fill-rule="evenodd" clip-rule="evenodd" d="M15.4737 14.4841L13.6033 12.6137L14.4519 11.7652L16.0747 13.388L19.1092 10.3535L19.9577 11.2021L16.6758 14.4841C16.3438 14.816 15.8056 14.816 15.4737 14.4841Z" fill="black"/>
</svg>
