<svg width="24" height="24" viewBox="0 0 24 24" fill="none" xmlns="http://www.w3.org/2000/svg">
<path fill-rule="evenodd" clip-rule="evenodd" d="M9.98502 3.71045C7.64433 3.71045 5.74683 5.60795 5.74683 7.94864C5.74683 10.2893 7.64433 12.1868 9.98502 12.1868C12.3257 12.1868 14.2232 10.2893 14.2232 7.94864C14.2232 5.60795 12.3257 3.71045 9.98502 3.71045ZM9.98501 13.7122C6.77688 13.7122 4.15933 16.2393 4.0141 19.4119C3.99133 19.9092 4.39547 20.2894 4.85776 20.2894H15.1123C15.5745 20.2894 15.9787 19.9092 15.9559 19.4119C15.8107 16.2393 13.1931 13.7122 9.98501 13.7122Z" fill="black"/>
<path fill-rule="evenodd" clip-rule="evenodd" d="M19.9866 13.2895H13.9866V12.0895H19.9866V13.2895Z" fill="black"/>
</svg>
