<svg width="24" height="24" viewBox="0 0 24 24" fill="none" xmlns="http://www.w3.org/2000/svg">
<path fill-rule="evenodd" clip-rule="evenodd" d="M12.0004 22C17.5232 22 22.0004 17.5228 22.0004 12C22.0004 6.47715 17.5232 2 12.0004 2C6.47752 2 2.00037 6.47715 2.00037 12C2.00037 17.5228 6.47752 22 12.0004 22ZM12 15.0999C10.1223 15.0999 8.60002 16.6221 8.60002 18.4999H7.40002C7.40002 15.9594 9.45951 13.8999 12 13.8999C14.5405 13.8999 16.6 15.9594 16.6 18.4999H15.4C15.4 16.6221 13.8778 15.0999 12 15.0999ZM9.60002 9.1249C9.60002 7.79942 10.6745 6.7249 12 6.7249C13.3255 6.7249 14.4 7.79942 14.4 9.1249C14.4 10.4504 13.3255 11.5249 12 11.5249C10.6745 11.5249 9.60002 10.4504 9.60002 9.1249ZM12 5.5249C10.0118 5.5249 8.40002 7.13668 8.40002 9.1249C8.40002 11.1131 10.0118 12.7249 12 12.7249C13.9882 12.7249 15.6 11.1131 15.6 9.1249C15.6 7.13668 13.9882 5.5249 12 5.5249Z" fill="black"/>
</svg>
