<svg width="24" height="24" viewBox="0 0 24 24" fill="none" xmlns="http://www.w3.org/2000/svg">
<path d="M10.2123 3.71045C7.87162 3.71045 5.97412 5.60795 5.97412 7.94864C5.97412 10.2893 7.87162 12.1868 10.2123 12.1868C12.553 12.1868 14.4505 10.2893 14.4505 7.94864C14.4505 5.60795 12.553 3.71045 10.2123 3.71045Z" fill="black"/>
<path d="M10.2123 13.7122C7.00417 13.7122 4.38663 16.2393 4.2414 19.4119C4.21863 19.9092 4.62276 20.2894 5.08506 20.2894H15.3396C15.8018 20.2894 16.206 19.9092 16.1832 19.4119C16.038 16.2393 13.4204 13.7122 10.2123 13.7122Z" fill="black"/>
<path d="M17.214 13.538L18.911 15.235L19.7595 14.3864L18.0625 12.6895L19.7595 10.9924L18.911 10.1439L17.214 11.8409L15.5168 10.1438L14.6683 10.9923L16.3654 12.6895L14.6684 14.3865L15.5169 15.2351L17.214 13.538Z" fill="black"/>
</svg>
