<svg width="24" height="24" viewBox="0 0 24 24" fill="none" xmlns="http://www.w3.org/2000/svg">
<path d="M12.1793 4.59762C12.9913 3.45844 14.3233 2.71558 15.8289 2.71558C18.3025 2.71558 20.3077 4.7208 20.3077 7.19436C20.3077 9.66793 18.3025 11.6732 15.8289 11.6732C15.1332 11.6732 14.4746 11.5146 13.8872 11.2315C14.1207 10.5863 14.248 9.89021 14.248 9.1644C14.248 7.34421 13.4475 5.71099 12.1793 4.59762Z" fill="black"/>
<path d="M21.7502 18.9003C21.6194 15.9203 19.162 13.5444 16.1497 13.5444C14.6272 13.5444 13.2464 14.1514 12.2362 15.1365C13.6524 16.074 14.7255 17.4882 15.2266 19.1504H21.5057C21.6437 19.1504 21.7563 19.0382 21.7502 18.9003Z" fill="black"/>
<path fill-rule="evenodd" clip-rule="evenodd" d="M8.1719 4.68555C5.69834 4.68555 3.69312 6.69077 3.69312 9.16433C3.69312 11.6379 5.69834 13.6431 8.1719 13.6431C10.6455 13.6431 12.6507 11.6379 12.6507 9.16433C12.6507 6.69077 10.6455 4.68555 8.1719 4.68555ZM2.24975 21.0343C2.38059 18.0543 4.83796 15.6785 7.85023 15.6785C10.8625 15.6785 13.3199 18.0543 13.4507 21.0343C13.4568 21.1722 13.3443 21.2844 13.2062 21.2844H2.49426C2.35619 21.2844 2.24369 21.1722 2.24975 21.0343Z" fill="black"/>
</svg>
