<svg width="24" height="24" viewBox="0 0 24 24" fill="none" xmlns="http://www.w3.org/2000/svg">
<path fill-rule="evenodd" clip-rule="evenodd" d="M2.54126 6.2499C2.54126 5.78046 2.92182 5.3999 3.39126 5.3999H14.8913C15.3607 5.3999 15.7413 5.78046 15.7413 6.2499V17.7499C15.7413 18.2193 15.3607 18.5999 14.8913 18.5999H3.39126C2.92182 18.5999 2.54126 18.2193 2.54126 17.7499V6.2499Z" fill="black"/>
<path fill-rule="evenodd" clip-rule="evenodd" d="M20.0787 6.85475C20.6354 6.41057 21.4588 6.80697 21.4588 7.51919V16.4806C21.4588 17.1928 20.6354 17.5892 20.0787 17.1451L17.0595 14.7362C16.8574 14.5749 16.7396 14.3304 16.7396 14.0718V9.92804C16.7396 9.66943 16.8574 9.42489 17.0595 9.2636L20.0787 6.85475Z" fill="black"/>
</svg>
