<svg width="24" height="24" viewBox="0 0 24 24" fill="none" xmlns="http://www.w3.org/2000/svg">
<path d="M3.0188 3.93886L3.86733 3.09033L20.8379 20.0609L19.9894 20.9094L3.0188 3.93886Z" fill="black"/>
<path d="M2.92313 5.54021C2.69304 5.69231 2.54126 5.95333 2.54126 6.2498V17.7498C2.54126 18.2192 2.92182 18.5998 3.39126 18.5998H14.8913C15.1877 18.5998 15.4487 18.448 15.6008 18.2179L2.92313 5.54021Z" fill="black"/>
<path d="M15.7413 14.9642V16.6613L4.47977 5.3998H6.17683L15.7413 14.9642Z" fill="black"/>
<path d="M17.8048 15.3308L16.7697 14.2956C16.7499 14.2234 16.7396 14.1481 16.7396 14.0717V9.92793C16.7396 9.66932 16.8574 9.42478 17.0595 9.2635L20.0787 6.85465C20.6354 6.41046 21.4588 6.80687 21.4588 7.51908V16.4805C21.4588 17.1927 20.6354 17.5891 20.0787 17.1449L17.8048 15.3308Z" fill="black"/>
<path d="M15.7413 13.2672L7.87388 5.3998H14.8913C15.3607 5.3998 15.7413 5.78036 15.7413 6.2498V13.2672Z" fill="black"/>
</svg>
