<svg width="24" height="24" viewBox="0 0 24 24" fill="none" xmlns="http://www.w3.org/2000/svg">
<path fill-rule="evenodd" clip-rule="evenodd" d="M2.3999 11.9999C2.3999 9.80457 4.17957 8.0249 6.3749 8.0249C8.57023 8.0249 10.3499 9.80457 10.3499 11.9999C10.3499 13.0795 9.91951 14.0586 9.22095 14.7749H14.6958C13.9973 14.0586 13.5669 13.0795 13.5669 11.9999C13.5669 9.80457 15.3466 8.0249 17.5419 8.0249C19.7372 8.0249 21.5169 9.80457 21.5169 11.9999C21.5169 14.1952 19.7372 15.9749 17.5419 15.9749C17.541 15.9749 17.54 15.9749 17.5391 15.9749L6.375 15.9749C6.37497 15.9749 6.37493 15.9749 6.3749 15.9749C4.17957 15.9749 2.3999 14.1952 2.3999 11.9999Z" fill="black"/>
</svg>
