<svg width="24" height="24" viewBox="0 0 24 24" fill="none" xmlns="http://www.w3.org/2000/svg">
<path d="M3.19971 12C3.19971 11.0452 3.57899 10.1295 4.25412 9.45442C4.85827 8.85027 5.65501 8.48305 6.50005 8.41249C7.02081 8.36901 7.39971 8.7952 7.39971 9.25L7.39971 14.75C7.39971 15.2048 7.02081 15.631 6.50005 15.5875C5.65501 15.517 4.85827 15.1497 4.25412 14.5456C3.57899 13.8705 3.19971 12.9548 3.19971 12Z" fill="black"/>
<path d="M15.5998 4.53375C15.5998 3.81309 14.7593 3.41941 14.2057 3.88076L8.70551 8.4641C8.51171 8.6256 8.39966 8.86483 8.39966 9.1171V14.8829C8.39966 15.1352 8.51171 15.3744 8.70551 15.5359L14.2057 20.1192C14.7593 20.5806 15.5998 20.1869 15.5998 19.4663V4.53375Z" fill="black"/>
<path fill-rule="evenodd" clip-rule="evenodd" d="M19.7453 9.45442C20.4204 10.1295 20.7997 11.0452 20.7997 12C20.7997 12.9548 20.4204 13.8705 19.7453 14.5456C19.0702 15.2207 18.1545 15.6 17.1997 15.6V14.4C17.8362 14.4 18.4467 14.1471 18.8968 13.6971C19.3469 13.247 19.5997 12.6365 19.5997 12C19.5997 11.3635 19.3469 10.753 18.8968 10.3029C18.4467 9.85286 17.8362 9.6 17.1997 9.6V8.4C18.1545 8.4 19.0702 8.77928 19.7453 9.45442Z" fill="black"/>
</svg>
