<svg width="24" height="24" viewBox="0 0 24 24" fill="none" xmlns="http://www.w3.org/2000/svg">
<path d="M2.0249 12C2.0249 11.0452 2.40419 10.1295 3.07932 9.45442C3.68346 8.85027 4.4802 8.48305 5.32524 8.41249C5.846 8.36901 6.2249 8.7952 6.2249 9.25L6.2249 14.75C6.2249 15.2048 5.846 15.631 5.32524 15.5875C4.4802 15.517 3.68346 15.1497 3.07932 14.5456C2.40419 13.8705 2.0249 12.9548 2.0249 12Z" fill="black"/>
<path d="M14.4243 4.53375C14.4243 3.8131 13.5838 3.41941 13.0301 3.88076L7.52997 8.4641C7.33617 8.6256 7.22412 8.86483 7.22412 9.1171V14.8829C7.22412 15.1352 7.33617 15.3744 7.52997 15.5359L13.0301 20.1192C13.5838 20.5806 14.4243 20.1869 14.4243 19.4663V4.53375Z" fill="black"/>
<path fill-rule="evenodd" clip-rule="evenodd" d="M18.4282 9.59421C19.0663 10.2323 19.4247 11.0977 19.4247 12C19.4247 12.9024 19.0663 13.7677 18.4282 14.4058C17.7901 15.0439 16.9247 15.4023 16.0224 15.4023V14.2023C16.6065 14.2023 17.1667 13.9703 17.5797 13.5573C17.9927 13.1443 18.2247 12.5841 18.2247 12C18.2247 11.4159 17.9927 10.8557 17.5797 10.4427C17.1667 10.0297 16.6065 9.79769 16.0224 9.79769V8.59769C16.9247 8.59769 17.7901 8.95615 18.4282 9.59421Z" fill="black"/>
<path fill-rule="evenodd" clip-rule="evenodd" d="M20.2452 7.7778C21.3649 8.8976 21.994 10.4164 21.994 12C21.994 13.5836 21.3649 15.1024 20.2451 16.2222C19.1254 17.342 17.6066 17.9711 16.0229 17.9711V16.7711C17.2883 16.7711 18.5019 16.2684 19.3966 15.3737C20.2914 14.4789 20.794 13.2654 20.794 12C20.794 10.7346 20.2914 9.52108 19.3966 8.62633C18.5019 7.73157 17.2883 7.22891 16.0229 7.22891V6.02891C17.6066 6.02891 19.1254 6.658 20.2452 7.7778Z" fill="black"/>
</svg>
