<svg width="24" height="24" viewBox="0 0 24 24" fill="none" xmlns="http://www.w3.org/2000/svg">
<path d="M5.3999 12C5.3999 11.0452 5.77919 10.1295 6.45432 9.45442C7.05846 8.85027 7.8552 8.48305 8.70024 8.41249C9.221 8.36901 9.5999 8.7952 9.5999 9.25V14.75C9.5999 15.2048 9.221 15.631 8.70024 15.5875C7.8552 15.517 7.05846 15.1497 6.45432 14.5456C5.77919 13.8705 5.3999 12.9548 5.3999 12Z" fill="black"/>
<path d="M17.7993 4.53375C17.7993 3.81309 16.9588 3.41941 16.4051 3.88076L10.905 8.4641C10.7112 8.6256 10.5991 8.86483 10.5991 9.1171V14.8829C10.5991 15.1352 10.7112 15.3744 10.905 15.5359L16.4051 20.1192C16.9588 20.5806 17.7993 20.1869 17.7993 19.4663V4.53375Z" fill="black"/>
</svg>
