<svg width="24" height="24" viewBox="0 0 24 24" fill="none" xmlns="http://www.w3.org/2000/svg">
<path d="M2.0249 12C2.0249 11.0452 2.40419 10.1295 3.07932 9.45442C3.68346 8.85027 4.4802 8.48305 5.32524 8.41249C5.846 8.36901 6.2249 8.7952 6.2249 9.25L6.2249 14.75C6.2249 15.2048 5.846 15.631 5.32524 15.5875C4.4802 15.517 3.68346 15.1497 3.07932 14.5456C2.40419 13.8705 2.0249 12.9548 2.0249 12Z" fill="black"/>
<path d="M14.4243 4.53375C14.4243 3.81309 13.5838 3.41941 13.0301 3.88076L7.52997 8.4641C7.33617 8.6256 7.22412 8.86483 7.22412 9.1171V14.8829C7.22412 15.1352 7.33617 15.3744 7.52997 15.5359L13.0301 20.1192C13.5838 20.5806 14.4243 20.1869 14.4243 19.4663V4.53375Z" fill="black"/>
<path fill-rule="evenodd" clip-rule="evenodd" d="M18.9619 12.8485L21.1041 14.9907L21.9526 14.1421L19.8105 12L21.9526 9.85786L21.1041 9.00933L18.9619 11.1515L16.8198 9.00933L15.9713 9.85786L18.1134 12L15.9713 14.1421L16.8198 14.9907L18.9619 12.8485Z" fill="black"/>
</svg>
