<svg width="24" height="24" viewBox="0 0 24 24" fill="none" xmlns="http://www.w3.org/2000/svg">
<path d="M11.75 2.75C10.3141 2.75 9.15005 3.91406 9.15005 5.35C9.15005 6.78594 10.3141 7.95 11.75 7.95C13.186 7.95 14.35 6.78594 14.35 5.35C14.35 3.91406 13.186 2.75 11.75 2.75Z" fill="black"/>
<path fill-rule="evenodd" clip-rule="evenodd" d="M12.35 8.65015V8.55005H11.15V8.55121C8.65576 8.60446 6.65015 10.6431 6.65015 13.1501H7.85015C7.85015 11.3059 9.31858 9.80454 11.15 9.75159V16.15C11.15 18.304 9.40406 20.0501 7.25015 20.0501V21.2501C9.85163 21.2501 11.9982 19.3023 12.3109 16.7855C14.4762 17.061 16.1501 18.9101 16.1501 21.1501H17.3501C17.3501 18.26 15.1608 15.8812 12.35 15.5819V11.9365C13.2856 13.0456 14.6856 13.7501 16.2501 13.7501V12.5501C14.0962 12.5501 12.35 10.8041 12.35 8.65015Z" fill="black"/>
</svg>
