<svg width="24" height="24" viewBox="0 0 24 24" fill="none" xmlns="http://www.w3.org/2000/svg">
<path d="M16.0256 16.9514C14.9274 17.8453 13.5262 18.3812 11.9999 18.3812C10.4736 18.3812 9.07248 17.8453 7.97437 16.9515C7.97445 16.9892 7.97684 17.0274 7.98165 17.066L8.47826 21.039C8.53619 21.5024 8.9301 21.8501 9.39709 21.8501H14.6028C15.0698 21.8501 15.4637 21.5024 15.5216 21.039L16.0183 17.066C16.0231 17.0274 16.0255 16.9892 16.0256 16.9514Z" fill="black"/>
<path d="M8.47826 2.96103C8.53619 2.49764 8.9301 2.1499 9.39709 2.1499H14.6028C15.0698 2.1499 15.4637 2.49764 15.5216 2.96102L16.0183 6.93407C16.0231 6.97255 16.0255 7.01073 16.0256 7.04844C14.9274 6.15455 13.5262 5.61865 11.9999 5.61865C10.4736 5.61865 9.07248 6.1545 7.97437 7.04834C7.97446 7.01066 7.97685 6.97252 7.98165 6.93407L8.47826 2.96103Z" fill="black"/>
<path fill-rule="evenodd" clip-rule="evenodd" d="M12 17.1914C14.8671 17.1914 17.1914 14.8671 17.1914 12C17.1914 9.13287 14.8671 6.80859 12 6.80859C9.13287 6.80859 6.80859 9.13287 6.80859 12C6.80859 14.8671 9.13287 17.1914 12 17.1914ZM11.3999 8.53125V11.8803C11.3999 12.1161 11.4936 12.3422 11.6603 12.5089L13.8881 14.7368L14.7367 13.8882L12.5999 11.7515V8.53125H11.3999Z" fill="black"/>
</svg>
