<svg width="24" height="24" viewBox="0 0 24 24" fill="none" xmlns="http://www.w3.org/2000/svg">
<path fill-rule="evenodd" clip-rule="evenodd" d="M3.57568 10.0756C6.08706 7.56426 8.85147 6.58618 12 6.58618C15.1597 6.58618 18.19 7.84138 20.4242 10.0756L19.5757 10.9242C17.5665 8.91495 14.8414 7.78618 12 7.78618C9.14728 7.78618 6.69515 8.65322 4.42421 10.9242L3.57568 10.0756Z" fill="black"/>
<path fill-rule="evenodd" clip-rule="evenodd" d="M6.57568 13.0756C8.19038 11.4609 9.97668 10.8288 12 10.8288C14.0345 10.8288 15.9856 11.637 17.4242 13.0756L16.5757 13.9242C15.3621 12.7106 13.7162 12.0288 12 12.0288C10.2725 12.0288 8.79847 12.5499 7.42421 13.9242L6.57568 13.0756Z" fill="black"/>
<path fill-rule="evenodd" clip-rule="evenodd" d="M10.8244 14.8268C11.4736 14.1776 12.5263 14.1776 13.1755 14.8268C13.8248 15.4761 13.8248 16.5287 13.1755 17.178C12.5263 17.8272 11.4736 17.8272 10.8244 17.178C10.1751 16.5287 10.1751 15.4761 10.8244 14.8268Z" fill="black"/>
</svg>
