<svg width="24" height="24" viewBox="0 0 24 24" fill="none" xmlns="http://www.w3.org/2000/svg">
<path d="M4.50415 5.35317L5.35268 4.50464L19.4948 18.6468L18.6463 19.4953L4.50415 5.35317Z" fill="black"/>
<path fill-rule="evenodd" clip-rule="evenodd" d="M5.41962 8.53139C4.78936 8.96375 4.17531 9.47596 3.57568 10.0756L4.42421 10.9241C5.03001 10.3183 5.64871 9.81242 6.28446 9.39623L5.41962 8.53139ZM8.51745 11.6292C7.84237 11.9794 7.19635 12.4549 6.57568 13.0756L7.42421 13.9241C8.06193 13.2864 8.72113 12.8324 9.41717 12.5289L8.51745 11.6292ZM11.357 14.4687L13.5335 16.6453C13.4525 16.8389 13.3331 17.0203 13.1755 17.1779C12.5263 17.8272 11.4736 17.8272 10.8244 17.1779C10.1751 16.5287 10.1751 15.476 10.8244 14.8268C10.982 14.6692 11.1634 14.5498 11.357 14.4687ZM16.8053 13.6945L14.289 11.1783C15.4614 11.5448 16.5397 12.191 17.4242 13.0756L16.8053 13.6945ZM10.9394 7.82858C11.2868 7.79993 11.6402 7.78614 12 7.78614C14.8414 7.78614 17.5665 8.9149 19.5757 10.9241L20.4242 10.0756C18.19 7.84133 15.1597 6.58614 12 6.58614C11.2673 6.58614 10.5555 6.6391 9.86278 6.75201L10.9394 7.82858Z" fill="black"/>
</svg>
