<svg fill="none" height="180" viewBox="0 0 180 180" width="180" xmlns="http://www.w3.org/2000/svg"><circle cx="90" cy="90" fill="#fff" r="90"/><g clip-rule="evenodd" fill-rule="evenodd"><path d="m79.203 111.763c3.0851-4.582 7.0478-8.503 11.6625-11.537 4.6148-3.033 9.7865-5.1157 15.2155-6.1309s11.006-.9424 16.411.2067c5.405 1.149 10.532 3.3515 15.094 6.4752 4.561 3.124 8.47 7.11 11.507 11.731l-20.055 13.183c-1.327-2.018-3.031-3.755-5.014-5.113-1.982-1.357-4.2-2.307-6.523-2.801-2.322-.494-4.703-.522-7.009-.091-2.305.431-4.494 1.314-6.444 2.596-1.949 1.281-3.628 2.94-4.9374 4.886-1.3101 1.945-2.2285 4.143-2.6962 6.47-.4677 2.328-.4753 4.741-.0151 7.099.4604 2.358 1.3789 4.612 2.7052 6.63l-20.0551 13.183c-3.0373-4.62-5.1466-9.79-6.2056-15.216s-1.0476-11.006.041-16.424c1.0886-5.417 3.2333-10.566 6.3182-15.147z" fill="#f84258"/><path d="m99.5753 118.489c-7.6268.651-15.3012-.22-22.5827-2.565-7.2816-2.345-14.0217-6.116-19.8354-11.095-5.8135-4.9793-10.5835-11.0652-14.0431-17.9054-3.4594-6.8399-5.5409-14.3001-6.133-21.9535-.592-7.6531.3165-15.3539 2.6709-22.6648l22.8446 7.357c-1.3997 4.3461-1.938 8.9194-1.587 13.4567.351 4.537 1.5839 8.9447 3.6211 12.9727 2.0371 4.0276 4.8382 7.5966 8.2381 10.5085 3.3997 2.9116 7.3348 5.1121 11.5808 6.4795 4.2459 1.3674 8.7256 1.8769 13.1856 1.4964 4.4598-.3805 8.8178-1.6441 12.8218-3.7261 4.005-2.0821 7.579-4.9419 10.511-8.4214 2.933-3.4797 5.165-7.5077 6.565-11.8538l22.844 7.357c-2.354 7.3109-6.11 14.0946-11.057 19.9639s-10.991 10.7133-17.792 14.2483c-6.801 3.536-14.226 5.695-21.8527 6.345z" fill="#428cfe"/></g></svg>