<svg fill="none" height="255" viewBox="0 0 367 255" width="367" xmlns="http://www.w3.org/2000/svg"><path d="m13.006 7.20896c-.0653.07467-.1307.14933-.196.224-.0653.06533-.1167.13533-.154.21-.2613.42933-.5787.896-.952 1.4-.364.504-.7793 1.02204-1.246 1.55404-.46667.532-.97533 1.0546-1.526 1.568-.54133.5133-1.12467.994-1.75 1.442l-.868-.77c.56933-.392 1.10133-.8167 1.596-1.274.49467-.4574.94733-.9194 1.358-1.386.42-.47604.784-.92871 1.092-1.35804.3173-.42933.5647-.812.742-1.148-.1773 0-.4433 0-.798 0-.35467 0-.76533 0-1.232 0s-.96133 0-1.484 0c-.51333 0-1.02667 0-1.54 0-.504 0-.97533 0-1.414 0s-.81667 0-1.134 0c-.308 0-.518 0-.63 0-.17733 0-.35933.00467-.546.014s-.35933.01867-.518.028c-.14933.00933-.27067.02333-.364.042v-1.26c.13067.01867.27533.03733.434.056s.322.03267.49.042c.17733.00933.34533.014.504.014h.602 1.12 1.414 1.554 1.512 1.288.854c.4013 0 .7047-.03733.91-.112zm-6.594 6.65004c-.21467-.2147-.46667-.4527-.756-.714-.28-.2614-.574-.5227-.882-.784-.308-.2707-.59733-.5134-.868-.728-.27067-.224-.504-.4014-.7-.532l.91-.742c.15867.1213.36867.2893.63.504.26133.2053.546.4386.854.7.31733.2613.63.5273.938.798.308.2706.588.532.84.784.29867.28.60667.588.924.924.32667.336.63467.6626.924.98.28933.3173.532.602.728.854l-1.022.812c-.168-.2427-.39667-.5274-.686-.854-.28-.336-.58333-.6767-.91-1.022-.32667-.3547-.63467-.6814-.924-.98zm9.016-3.836c.14.0093.3127.0233.518.042.2053.0093.4293.0186.672.028h.756.686 1.106 1.33 1.414 1.344 1.106.686c.3547 0 .658-.0094.91-.028.252-.0187.4527-.0327.602-.042v1.372c-.14-.0094-.35-.0234-.63-.042-.2707-.0187-.56-.028-.868-.028-.1493 0-.3827 0-.7 0s-.686 0-1.106 0c-.4107 0-.854 0-1.33 0s-.952 0-1.428 0c-.4667 0-.91 0-1.33 0-.4107 0-.7747 0-1.092 0s-.5507 0-.7 0c-.3827 0-.7467.0093-1.092.028-.3453.0093-.63.0233-.854.042zm24.78-2.68804c-.0653.09333-.126.21467-.182.364-.056.14-.1027.266-.14.378-.1213.46667-.2987.98-.532 1.54-.2333.55064-.5133 1.11064-.84 1.68004-.3267.56-.7 1.092-1.12 1.596-.6347.7746-1.3953 1.484-2.282 2.128-.8773.6346-1.974 1.1946-3.29 1.68l-1.008-.91c.8587-.252 1.6287-.5554 2.31-.91.6813-.364 1.2927-.7654 1.834-1.204.5413-.4387 1.022-.9054 1.442-1.4.364-.4294.6953-.9007.994-1.414.308-.5134.5693-1.02671.784-1.54004.2147-.52267.3687-.994.462-1.414h-5.194l.448-1.008h.63 1.05 1.19 1.022.574c.1867 0 .3593-.00933.518-.028.1587-.028.2893-.06533.392-.112zm-4.69-2.128c-.1213.18667-.238.38733-.35.602-.112.20533-.2007.37333-.266.504-.28.51333-.63 1.06867-1.05 1.666-.42.588-.9193 1.17133-1.498 1.75-.5787.57864-1.246 1.12004-2.002 1.62404l-.966-.728c.6067-.3547 1.148-.74204 1.624-1.16204s.8913-.84467 1.246-1.274c.364-.42933.672-.84.924-1.232s.4527-.74667.602-1.064c.0747-.12133.154-.28933.238-.504.0933-.224.1587-.42467.196-.602zm12.418 0c-.0187.13067-.042.27067-.07.42-.028.14-.056.28-.084.42-.0373.15867-.0793.38267-.126.672s-.1027.59733-.168.924c-.056.31733-.1167.62533-.182.924-.1027.392-.224.84-.364 1.344-.1307.49464-.2893 1.02664-.476 1.59604-.1773.56-.378 1.134-.602 1.722-.224.5786-.4713 1.1526-.742 1.722-.2707.5693-.5647 1.1106-.882 1.624l-1.134-.462c.3173-.42.616-.896.896-1.428s.5367-1.0827.77-1.652c.2333-.5787.4433-1.148.63-1.708s.3453-1.078.476-1.55404c.14-.48533.2473-.90067.322-1.246.1307-.55067.238-1.12933.322-1.736s.126-1.176.126-1.708zm4.816 1.624c.224.28.4573.63467.7 1.064.252.42933.4947.882.728 1.358.2427.476.462.93804.658 1.38604.2053.448.364.8353.476 1.162l-1.078.518c-.1027-.364-.2473-.7747-.434-1.232-.1773-.4574-.3827-.9194-.616-1.38604-.224-.476-.462-.924-.714-1.344-.2427-.42933-.49-.784-.742-1.064zm-9.856 1.456c.224.00933.434.014.63.014s.406-.00467.63-.014c.2053-.00933.4713-.02333.798-.042.336-.028.6953-.056 1.078-.084.3827-.03733.7653-.07 1.148-.098.3827-.03733.7327-.06533 1.05-.084.3173-.028.5693-.042.756-.042.42 0 .798.07 1.134.21.3453.13067.6207.36867.826.714.2147.336.322.82133.322 1.45604 0 .5506-.028 1.148-.084 1.792-.056.6346-.1447 1.2413-.266 1.82-.112.5693-.266 1.05-.462 1.442-.2147.4666-.4947.7746-.84.924-.3453.1586-.7467.238-1.204.238-.2707 0-.56-.0234-.868-.07-.2987-.0374-.56-.0794-.784-.126l-.182-1.176c.196.0653.4013.1213.616.168.2147.0373.42.07.616.098.196.0186.3547.028.476.028.2613 0 .4947-.042.7-.126.2053-.0934.3827-.294.532-.602.1493-.3174.2707-.714.364-1.19.1027-.476.1773-.9847.224-1.526.0467-.5414.07-1.064.07-1.568 0-.4294-.0607-.75137-.182-.96604s-.294-.35933-.518-.434-.4853-.112-.784-.112c-.2333 0-.5507.01867-.952.056-.4013.028-.8307.06533-1.288.112-.4573.03733-.882.07933-1.274.126-.3827.04667-.6813.07933-.896.098-.168.01867-.378.04667-.63.084-.2427.028-.4527.056-.63.084zm10.024-3.486c.1213.15867.2473.35467.378.588.14.224.28.45733.42.7.14.23333.2567.44333.35.63l-.77.336c-.084-.18667-.1913-.39667-.322-.63s-.266-.46667-.406-.7-.2753-.43867-.406-.616zm1.54-.574c.1213.17733.2567.38267.406.616s.294.46667.434.7c.14.224.252.42467.336.602l-.756.336c-.1493-.308-.3313-.63933-.546-.994-.2147-.364-.42-.67667-.616-.938zm6.3662 7.95464h-2.6592v-1.0732h2.6592c.5149 0 .9319-.082 1.2509-.2461.3191-.1641.5515-.3919.6973-.6836.1504-.29166.2256-.62434.2256-.99804 0-.34179-.0752-.66308-.2256-.96386-.1458-.30078-.3782-.54232-.6973-.72461-.319-.18685-.736-.28028-1.2509-.28028h-2.3516v8.87309h-1.3193v-9.95316h3.6709c.7519 0 1.3877.12988 1.9072.38964.5195.25977.9137.6198 1.1826 1.08008.2689.45573.4033.97754.4033 1.56543 0 .63802-.1344 1.18261-.4033 1.63381s-.6631.7952-1.1826 1.0322c-.5195.2324-1.1553.3486-1.9072.3486zm6.2343-2.33101v6.23441h-1.2646v-7.39652h1.2305zm2.3106-1.20313-.0068 1.17578c-.1049-.02278-.2051-.03646-.3008-.04101-.0912-.00912-.196-.01368-.3145-.01368-.2916 0-.5491.04558-.7724.13672-.2233.09115-.4125.21873-.5674.38283-.155.164-.278.36-.3692.5879-.0865.2233-.1435.4694-.1709.7383l-.3554.205c0-.4466.0433-.8658.1299-1.2578.0911-.3919.2301-.73826.4169-1.03904.1869-.30534.4239-.54232.711-.71094.2917-.17317.638-.25976 1.039-.25976.0912 0 .196.01139.3145.03418.1185.01823.2005.03873.2461.06152zm2.543.04102v7.39652h-1.2715v-7.39652zm-1.3672-1.96192c0-.20508.0615-.37825.1845-.51953.1276-.14127.3145-.21191.5606-.21191.2415 0 .4261.07064.5537.21191.1322.14128.1982.31445.1982.51953 0 .19597-.066.36459-.1982.50586-.1276.13672-.3122.20508-.5537.20508-.2461 0-.433-.06836-.5606-.20508-.123-.14127-.1845-.30989-.1845-.50586zm4.6552 3.43164v5.9268h-1.2714v-7.39652h1.2031zm-.2597 1.9482-.5879-.0205c.0045-.5058.0706-.9729.1982-1.4013.1276-.433.3168-.80895.5674-1.12796.2507-.31901.5628-.5651.9365-.73828.3737-.17774.8067-.2666 1.2989-.2666.3463 0 .6653.05013.957.15039.2917.0957.5446.24837.7588.45801.2142.20963.3805.47851.499.80664.1185.3281.1777.7246.1777 1.1894v4.9288h-1.2646v-4.8672c0-.3874-.0661-.6973-.1982-.9297-.1276-.2324-.3099-.40106-.5469-.50587-.237-.10938-.515-.16407-.834-.16407-.3737 0-.6859.06608-.9365.19825-.2507.13216-.4512.31449-.6016.54689s-.2598.499-.3281.7998c-.0638.2962-.0957.6107-.0957.9433zm4.792-.6972-.8477.2597c.0046-.4056.0707-.7952.1983-1.1689.1321-.3737.3212-.70638.5673-.99805.2507-.29166.5583-.52181.9229-.69043.3646-.17317.7816-.25976 1.251-.25976.3965 0 .7474.05241 1.0527.15722.3099.10482.5697.26661.7793.48536.2142.21419.376.4899.4854.82716.1093.3372.164.7383.164 1.2031v4.8604h-1.2715v-4.8741c0-.4147-.066-.736-.1982-.9638-.1276-.2325-.3099-.39424-.5469-.48538-.2324-.0957-.5104-.14356-.834-.14356-.278 0-.5241.04786-.7382.14356-.2142.0957-.3943.22786-.5401.39648-.1458.1641-.2575.3532-.3349.5674-.073.2142-.1094.442-.1094.6836zm10.8486 3.4111v-3.8076c0-.2917-.0592-.5446-.1777-.7588-.114-.2187-.2871-.38736-.5196-.50585-.2324-.11849-.5195-.17774-.8613-.17774-.319 0-.5993.05469-.8408.16407-.237.10937-.4238.25292-.5606.43062-.1321.1778-.1982.3692-.1982.5743h-1.2646c0-.2644.0683-.5264.205-.78618.1368-.25976.3327-.49446.5879-.7041.2598-.21419.5697-.38281.9297-.50586.3646-.1276.7702-.1914 1.2168-.1914.5378 0 1.0117.09114 1.4219.27344.4147.18229.7383.458.9707.82714.237.36456.3555.82256.3555 1.37406v3.4453c0 .2461.0205.5081.0615.7861.0456.278.1116.5173.1982.7178v.1094h-1.3193c-.0638-.1459-.1139-.3396-.1504-.5811-.0365-.2461-.0547-.474-.0547-.6836zm.2188-3.2197.0136.8887h-1.2783c-.36 0-.6813.0296-.9639.0888-.2825.0547-.5195.139-.7109.253-.1914.1139-.3372.2574-.4375.4306-.1003.1686-.1504.3669-.1504.5947 0 .2325.0524.4444.1572.6358.1049.1914.2621.3441.4717.458.2142.1094.4763.1641.7862.1641.3873 0 .7291-.0821 1.0253-.2461.2963-.1641.531-.3646.7041-.6016.1778-.237.2735-.4671.2872-.6904l.54.6084c-.0319.1914-.1185.4033-.2598.6357-.1412.2324-.3304.4557-.5674.6699-.2324.2097-.5104.3851-.8339.5264-.319.1367-.6791.2051-1.0801.2051-.5013 0-.9411-.098-1.3194-.294-.3737-.1959-.6653-.458-.875-.7861-.205-.3327-.3076-.7041-.3076-1.1143 0-.3964.0775-.7451.2325-1.0459.1549-.3053.3782-.5582.6699-.7587.2916-.2051.6426-.3601 1.0527-.4649.4102-.1048.8682-.1572 1.374-.1572zm4.2998-1.75001v6.23441h-1.2647v-7.39652h1.2305zm2.3105-1.20313-.0068 1.17578c-.1048-.02278-.2051-.03646-.3008-.04101-.0912-.00912-.196-.01368-.3145-.01368-.2916 0-.5491.04558-.7724.13672-.2233.09115-.4125.21873-.5674.38283-.155.164-.278.36-.3691.5879-.0866.2233-.1436.4694-.1709.7383l-.3555.205c0-.4466.0433-.8658.1299-1.2578.0911-.3919.2301-.73826.417-1.03904.1868-.30534.4238-.54232.7109-.71094.2917-.17317.638-.25976 1.0391-.25976.0911 0 .1959.01139.3144.03418.1185.01823.2005.03873.2461.06152zm3.3699 6.67184 2.058-6.63082h1.353l-2.966 8.53812c-.069.1823-.16.3782-.274.5879-.109.2141-.251.4169-.424.6084-.173.1914-.383.3463-.6286.4648-.2415.123-.5309.1846-.8682.1846-.1002 0-.2278-.0137-.3828-.0411-.1549-.0273-.2643-.0501-.3281-.0683l-.0068-1.0254c.0364.0046.0934.0091.1709.0137.082.0091.1389.0136.1708.0136.2872 0 .531-.0387.7315-.1162.2005-.0729.3691-.1982.5059-.3759.1414-.1732.2624-.4125.3624-.7178zm-1.5105-6.63082 1.9205 5.74222.329 1.333-.91.4648-2.7204-7.54002zm10.4655-2.55664-4.149 10.80766h-1.087l4.156-10.80766zm7.492 4.18356v1.5176c0 .8158-.072 1.5039-.218 2.0645-.146.5605-.356 1.0117-.629 1.3535-.274.3418-.604.5901-.991.7451-.383.1504-.816.2256-1.299.2256-.383 0-.736-.0479-1.06-.1436-.323-.0957-.615-.2483-.875-.458-.255-.2142-.474-.4922-.656-.834s-.321-.7565-.417-1.2441-.144-1.0573-.144-1.709v-1.5176c0-.81573.073-1.49932.219-2.05075.151-.55143.362-.99349.636-1.32617.273-.33724.601-.57878.984-.72461.388-.14584.821-.21875 1.299-.21875.387 0 .743.04785 1.067.14355.328.09115.619.23926.875.44434.255.20052.471.4694.649.80664.182.33268.321.74056.417 1.22363s.143 1.05046.143 1.70212zm-1.271 1.7227v-1.9346c0-.4466-.027-.83853-.082-1.17577-.05-.34179-.125-.63346-.226-.875-.1-.24153-.227-.4375-.382-.58789-.151-.15039-.326-.25976-.527-.32812-.196-.07292-.417-.10938-.663-.10938-.301 0-.567.05697-.8.1709-.232.10938-.428.28483-.588.52637-.155.24154-.273.55827-.355.95019-.082.39193-.123.86817-.123 1.4287v1.9346c0 .4466.025.8408.075 1.1826.055.3418.135.638.239.8887.105.2461.233.4489.383.6084.151.1595.324.278.52.3554.2.073.421.1094.663.1094.31 0 .581-.0592.813-.1777.233-.1185.426-.3031.581-.5537.16-.2552.278-.5811.356-.9776.077-.401.116-.8795.116-1.4355zm7.055-5.96095v10.00785h-1.265v-8.42875l-2.55.92969v-1.1416l3.616-1.36719zm6.487 5.25685v1.039h-3.336v-1.039zm7.349-1.0186v1.5176c0 .8158-.073 1.5039-.219 2.0645-.146.5605-.356 1.0117-.629 1.3535s-.604.5901-.991.7451c-.383.1504-.816.2256-1.299.2256-.383 0-.736-.0479-1.06-.1436-.323-.0957-.615-.2483-.875-.458-.255-.2142-.474-.4922-.656-.834s-.321-.7565-.417-1.2441-.143-1.0573-.143-1.709v-1.5176c0-.81573.072-1.49932.218-2.05075.151-.55143.363-.99349.636-1.32617.274-.33724.602-.57878.984-.72461.388-.14584.821-.21875 1.299-.21875.388 0 .743.04785 1.067.14355.328.09115.619.23926.875.44434.255.20052.471.4694.649.80664.182.33268.321.74056.417 1.22363s.144 1.05046.144 1.70212zm-1.272 1.7227v-1.9346c0-.4466-.027-.83853-.082-1.17577-.05-.34179-.125-.63346-.225-.875-.101-.24153-.228-.4375-.383-.58789-.151-.15039-.326-.25976-.527-.32812-.196-.07292-.417-.10938-.663-.10938-.301 0-.567.05697-.8.1709-.232.10938-.428.28483-.587.52637-.155.24154-.274.55827-.356.95019-.082.39193-.123.86817-.123 1.4287v1.9346c0 .4466.025.8408.075 1.1826.055.3418.135.638.24.8887.104.2461.232.4489.382.6084.151.1595.324.278.52.3554.2.073.421.1094.663.1094.31 0 .581-.0592.813-.1777.233-.1185.427-.3031.581-.5537.16-.2552.278-.5811.356-.9776.077-.401.116-.8795.116-1.4355zm9.42 3.0078v1.0391h-6.515v-.9092l3.261-3.6299c.401-.4466.711-.8249.93-1.1348.223-.3144.378-.59469.465-.84079.091-.25065.136-.50586.136-.76562 0-.32813-.068-.62435-.205-.88867-.132-.26888-.328-.48308-.588-.64258-.259-.15951-.574-.23926-.943-.23926-.442 0-.811.08659-1.107.25977-.292.16862-.511.40559-.657.71093-.145.30534-.218.65625-.218 1.05274h-1.265c0-.56055.123-1.07324.369-1.53809.246-.46484.611-.83398 1.094-1.10742.483-.278 1.078-.41699 1.784-.41699.629 0 1.167.11165 1.613.33496.447.21875.789.52864 1.026.92969.241.39648.362.86132.362 1.39453 0 .29166-.05.58789-.15.88867-.096.29622-.23.59243-.404.88863-.168.2963-.367.5879-.594.875-.224.2872-.463.5697-.718.8477l-2.666 2.8916zm4.348 1.8231c-.298-.3734-.625-.7467-.98-1.12-.354-.3734-.714-.7327-1.078-1.078-.354-.3454-.7-.6534-1.036-.924l.91-.798c.336.2706.691.5833 1.064.938.374.3546.738.7186 1.092 1.092.364.3733.691.7326.98 1.078zm11.751-10.73716h1.278l3.261 8.11426 3.254-8.11426h1.285l-4.047 9.95316h-.998zm-.417 0h1.128l.184 6.07026v3.8829h-1.312zm8.777 0h1.128v9.95316h-1.313v-3.8829zm7.779 8.24416v-5.68752h1.272v7.39652h-1.21zm.24-1.5586.526-.0137c0 .4922-.052.9479-.157 1.3672-.101.4147-.265.7747-.492 1.0801-.228.3053-.527.5446-.896.7178-.369.1686-.818.2529-1.347.2529-.36 0-.69-.0524-.991-.1572-.296-.1049-.551-.2666-.765-.4854-.215-.2187-.381-.5036-.499-.8545-.114-.3509-.171-.7725-.171-1.2646v-4.77152h1.264v4.78512c0 .3327.037.6084.11.8272.077.2142.18.3851.307.5127.132.123.278.2096.438.2597.164.0502.332.0752.506.0752.537 0 .963-.1025 1.278-.3076.314-.2096.54-.4899.677-.8408.141-.3555.212-.7497.212-1.1826zm4.334-7.23244v10.50004h-1.272v-10.50004zm5.127 3.10352v.9707h-3.999v-.9707zm-2.646-1.79786h1.265v7.36228c0 .2507.038.4398.116.5674.077.1276.178.2119.301.2529.123.0411.255.0616.396.0616.105 0 .214-.0091.328-.0274.119-.0228.208-.041.267-.0547l.007 1.0323c-.101.0319-.233.0615-.397.0888-.159.0319-.353.0479-.581.0479-.31 0-.595-.0615-.854-.1846-.26-.123-.467-.3281-.622-.6152-.151-.2917-.226-.6836-.226-1.1758zm5.503 1.79786v7.39652h-1.272v-7.39652zm-1.367-1.96192c0-.20508.061-.37825.184-.51953.128-.14127.315-.21191.561-.21191.241 0 .426.07064.554.21191.132.14128.198.31445.198.51953 0 .19597-.066.36459-.198.50586-.128.13672-.313.20508-.554.20508-.246 0-.433-.06836-.561-.20508-.123-.14127-.184-.30989-.184-.50586zm7.8-.59472-4.15 10.80766h-1.087l4.157-10.80766zm7.492 4.18356v1.5176c0 .8158-.073 1.5039-.219 2.0645-.146.5605-.355 1.0117-.629 1.3535-.273.3418-.604.5901-.991.7451-.383.1504-.816.2256-1.299.2256-.383 0-.736-.0479-1.059-.1436-.324-.0957-.616-.2483-.875-.458-.256-.2142-.474-.4922-.657-.834-.182-.3418-.321-.7565-.417-1.2441-.095-.4876-.143-1.0573-.143-1.709v-1.5176c0-.81573.073-1.49932.218-2.05075.151-.55143.363-.99349.636-1.32617.274-.33724.602-.57878.985-.72461.387-.14584.82-.21875 1.298-.21875.388 0 .743.04785 1.067.14355.328.09115.62.23926.875.44434.255.20052.471.4694.649.80664.183.33268.322.74056.417 1.22363.096.48307.144 1.05046.144 1.70212zm-1.272 1.7227v-1.9346c0-.4466-.027-.83853-.082-1.17577-.05-.34179-.125-.63346-.225-.875-.101-.24153-.228-.4375-.383-.58789-.151-.15039-.326-.25976-.527-.32812-.195-.07292-.417-.10938-.663-.10938-.3 0-.567.05697-.799.1709-.233.10938-.429.28483-.588.52637-.155.24154-.274.55827-.356.95019-.082.39193-.123.86817-.123 1.4287v1.9346c0 .4466.025.8408.075 1.1826.055.3418.135.638.24.8887.104.2461.232.4489.382.6084.151.1595.324.278.52.3554.201.073.422.1094.663.1094.31 0 .581-.0592.814-.1777.232-.1185.426-.3031.581-.5537.159-.2552.278-.5811.355-.9776.078-.401.116-.8795.116-1.4355zm9.42 3.0078v1.0391h-6.514v-.9092l3.26-3.6299c.401-.4466.711-.8249.93-1.1348.223-.3144.378-.59469.465-.84079.091-.25065.137-.50586.137-.76562 0-.32813-.069-.62435-.206-.88867-.132-.26888-.328-.48308-.587-.64258-.26-.15951-.575-.23926-.944-.23926-.442 0-.811.08659-1.107.25977-.292.16862-.511.40559-.656.71093-.146.30534-.219.65625-.219 1.05274h-1.265c0-.56055.123-1.07324.369-1.53809.246-.46484.611-.83398 1.094-1.10742.483-.278 1.078-.41699 1.784-.41699.629 0 1.167.11165 1.614.33496.446.21875.788.52864 1.025.92969.241.39648.362.86132.362 1.39453 0 .29166-.05.58789-.15.88867-.096.29622-.23.59243-.404.88863-.168.2963-.366.5879-.594.875-.224.2872-.463.5697-.718.8477l-2.666 2.8916zm2.639-.4648v1.0185c0 .4147-.105.8522-.315 1.3125-.209.4649-.503.8522-.881 1.1621l-.718-.499c.146-.2005.269-.4056.369-.6152.1-.2051.175-.4193.226-.6426.054-.2188.082-.4512.082-.6973v-1.039zm11.197-4.2657v1.5176c0 .8158-.073 1.5039-.219 2.0645-.145.5605-.355 1.0117-.629 1.3535-.273.3418-.603.5901-.991.7451-.383.1504-.815.2256-1.299.2256-.382 0-.736-.0479-1.059-.1436-.324-.0957-.615-.2483-.875-.458-.255-.2142-.474-.4922-.656-.834-.183-.3418-.322-.7565-.417-1.2441-.096-.4876-.144-1.0573-.144-1.709v-1.5176c0-.81573.073-1.49932.219-2.05075.15-.55143.362-.99349.636-1.32617.273-.33724.601-.57878.984-.72461.387-.14584.82-.21875 1.299-.21875.387 0 .743.04785 1.066.14355.328.09115.62.23926.875.44434.255.20052.472.4694.65.80664.182.33268.321.74056.417 1.22363.095.48307.143 1.05046.143 1.70212zm-1.271 1.7227v-1.9346c0-.4466-.028-.83853-.082-1.17577-.05-.34179-.126-.63346-.226-.875-.1-.24153-.228-.4375-.383-.58789-.15-.15039-.326-.25976-.526-.32812-.196-.07292-.417-.10938-.663-.10938-.301 0-.568.05697-.8.1709-.232.10938-.428.28483-.588.52637-.155.24154-.273.55827-.355.95019-.082.39193-.123.86817-.123 1.4287v1.9346c0 .4466.025.8408.075 1.1826.054.3418.134.638.239.8887.105.2461.232.4489.383.6084.15.1595.323.278.519.3554.201.073.422.1094.663.1094.31 0 .582-.0592.814-.1777s.426-.3031.581-.5537c.159-.2552.278-.5811.355-.9776.078-.401.117-.8795.117-1.4355zm4.744-1.5518h.902c.442 0 .807-.0729 1.094-.2187.292-.1504.508-.35321.649-.60842.146-.25977.219-.55143.219-.875 0-.38281-.064-.7041-.191-.96387-.128-.25976-.319-.45573-.575-.58789-.255-.13216-.578-.19824-.97-.19824-.356 0-.67.07064-.944.21191-.269.13672-.48.33269-.635.58789-.151.25521-.226.55599-.226.90235h-1.265c0-.50586.128-.96615.383-1.38086s.613-.74512 1.073-.99121c.465-.2461 1.003-.36914 1.614-.36914.601 0 1.128.10709 1.579.32129.451.20963.802.52408 1.053.94336.25.41471.376.93196.376 1.55175 0 .25065-.06.51953-.178.80664-.114.28256-.294.54684-.54.79294-.242.2461-.556.4489-.944.6084-.387.155-.852.2325-1.394.2325h-1.08zm0 1.0391v-.7588h1.08c.633 0 1.157.0752 1.572.2256s.741.3509.978.6016c.241.2506.41.5263.506.8271.1.2962.15.5924.15.8887 0 .4648-.08.8772-.239 1.2373-.155.36-.376.6653-.663.916-.283.2506-.616.4398-.998.5674-.383.1276-.8.1914-1.251.1914-.433 0-.841-.0615-1.224-.1846-.378-.123-.713-.3008-1.005-.5332-.292-.237-.519-.5264-.684-.8682-.164-.3463-.246-.7405-.246-1.1826h1.265c0 .3464.075.6494.226.9092.155.2598.373.4626.656.6084.287.1413.624.2119 1.012.2119.387 0 .72-.0661.998-.1982.282-.1367.499-.3418.649-.6153.155-.2734.232-.6175.232-1.0322s-.086-.7542-.259-1.0185c-.173-.2689-.42-.4672-.739-.5948-.314-.1321-.685-.1982-1.114-.1982zm7.314 3.0557v1.0185c0 .4147-.105.8522-.314 1.3125-.21.4649-.504.8522-.882 1.1621l-.718-.499c.146-.2005.269-.4056.369-.6152.101-.2051.176-.4193.226-.6426.055-.2188.082-.4512.082-.6973v-1.039zm11.198-4.2657v1.5176c0 .8158-.073 1.5039-.219 2.0645-.146.5605-.356 1.0117-.629 1.3535-.274.3418-.604.5901-.991.7451-.383.1504-.816.2256-1.299.2256-.383 0-.736-.0479-1.06-.1436-.323-.0957-.615-.2483-.875-.458-.255-.2142-.474-.4922-.656-.834s-.321-.7565-.417-1.2441-.144-1.0573-.144-1.709v-1.5176c0-.81573.073-1.49932.219-2.05075.151-.55143.363-.99349.636-1.32617.273-.33724.602-.57878.984-.72461.388-.14584.821-.21875 1.299-.21875.388 0 .743.04785 1.067.14355.328.09115.619.23926.875.44434.255.20052.471.4694.649.80664.182.33268.321.74056.417 1.22363s.144 1.05046.144 1.70212zm-1.272 1.7227v-1.9346c0-.4466-.027-.83853-.082-1.17577-.05-.34179-.125-.63346-.226-.875-.1-.24153-.227-.4375-.382-.58789-.151-.15039-.326-.25976-.527-.32812-.196-.07292-.417-.10938-.663-.10938-.301 0-.567.05697-.8.1709-.232.10938-.428.28483-.588.52637-.154.24154-.273.55827-.355.95019-.082.39193-.123.86817-.123 1.4287v1.9346c0 .4466.025.8408.075 1.1826.055.3418.135.638.239.8887.105.2461.233.4489.383.6084.151.1595.324.278.52.3554.2.073.421.1094.663.1094.31 0 .581-.0592.813-.1777.233-.1185.426-.3031.581-.5537.16-.2552.278-.5811.356-.9776.077-.401.116-.8795.116-1.4355zm7.752-5.91994h.109v1.07325h-.109c-.67 0-1.23.10937-1.682.32812-.451.21419-.809.50358-1.073.86817-.264.36002-.456.76562-.574 1.21679-.114.45121-.171.90921-.171 1.37401v1.4629c0 .4421.052.834.157 1.1758.105.3372.249.6221.431.8545s.387.4079.615.5263c.233.1185.474.1778.725.1778.291 0 .551-.0547.779-.1641.228-.1139.419-.2711.574-.4717.16-.205.281-.4466.363-.7246s.123-.5833.123-.916c0-.2962-.037-.581-.11-.8545-.073-.278-.184-.5241-.335-.7383-.15-.2187-.339-.3896-.567-.5127-.223-.1276-.49-.1914-.8-.1914-.351 0-.679.0866-.984.2598-.301.1686-.549.3919-.745.6699-.192.2735-.301.572-.329.8955l-.669-.0068c.063-.5104.182-.9456.355-1.3057.178-.3645.396-.6608.656-.8886.265-.23246.559-.40108.882-.5059.328-.10937.675-.16406 1.039-.16406.497 0 .925.09343 1.285.28027.36.18689.657.43749.889.75199.232.3099.403.6608.513 1.0527.114.3874.171.7861.171 1.1963 0 .4694-.067.9092-.199 1.3193-.132.4102-.33.7702-.594 1.0801-.26.3099-.581.5514-.964.7246s-.827.2598-1.333.2598c-.538 0-1.007-.1094-1.408-.3281-.402-.2234-.734-.5196-.999-.8887-.264-.3692-.462-.7793-.594-1.2305s-.198-.9092-.198-1.374v-.5947c0-.7019.07-1.39.211-2.06449.142-.67448.386-1.28516.732-1.83203.351-.54688.836-.9821 1.456-1.30566.62-.32357 1.41-.48536 2.372-.48536zm4.307 8.46294v1.0185c0 .4147-.105.8522-.315 1.3125-.209.4649-.503.8522-.882 1.1621l-.717-.499c.145-.2005.268-.4056.369-.6152.1-.2051.175-.4193.225-.6426.055-.2188.082-.4512.082-.6973v-1.039zm11.197-4.2657v1.5176c0 .8158-.073 1.5039-.219 2.0645-.146.5605-.355 1.0117-.629 1.3535-.273.3418-.604.5901-.991.7451-.383.1504-.816.2256-1.299.2256-.383 0-.736-.0479-1.059-.1436-.324-.0957-.616-.2483-.875-.458-.256-.2142-.474-.4922-.657-.834-.182-.3418-.321-.7565-.417-1.2441-.095-.4876-.143-1.0573-.143-1.709v-1.5176c0-.81573.073-1.49932.219-2.05075.15-.55143.362-.99349.635-1.32617.274-.33724.602-.57878.985-.72461.387-.14584.82-.21875 1.299-.21875.387 0 .742.04785 1.066.14355.328.09115.62.23926.875.44434.255.20052.472.4694.649.80664.183.33268.322.74056.417 1.22363.096.48307.144 1.05046.144 1.70212zm-1.272 1.7227v-1.9346c0-.4466-.027-.83853-.082-1.17577-.05-.34179-.125-.63346-.225-.875-.1-.24153-.228-.4375-.383-.58789-.15-.15039-.326-.25976-.526-.32812-.196-.07292-.417-.10938-.663-.10938-.301 0-.568.05697-.8.1709-.233.10938-.429.28483-.588.52637-.155.24154-.274.55827-.356.95019-.082.39193-.123.86817-.123 1.4287v1.9346c0 .4466.025.8408.076 1.1826.054.3418.134.638.239.8887.105.2461.232.4489.383.6084.15.1595.323.278.519.3554.201.073.422.1094.663.1094.31 0 .581-.0592.814-.1777.232-.1185.426-.3031.581-.5537.159-.2552.278-.5811.355-.9776.078-.401.116-.8795.116-1.4355zm9.331-5.90626v.71093l-4.122 9.24223h-1.333l4.116-8.9141h-5.387v-1.03906zm8.512.39112c-.094.728-.215 1.48867-.364 2.282-.14.79333-.322 1.56334-.546 2.31004-.28.9613-.593 1.764-.938 2.408-.336.644-.7 1.1293-1.092 1.456-.392.3266-.803.49-1.232.49-.411 0-.808-.1494-1.19-.448-.383-.2987-.696-.728-.938-1.288-.243-.5694-.364-1.2367-.364-2.002 0-.7654.154-1.4887.462-2.17004.317-.68133.751-1.28333 1.302-1.806.56-.532 1.213-.952 1.96-1.26.746-.308 1.544-.462 2.394-.462.821 0 1.558.13533 2.212.406.662.27067 1.227.644 1.694 1.12.466.46667.826 1.01267 1.078 1.638.252.616.378 1.27864.378 1.98804 0 .98-.21 1.8433-.63 2.59-.411.7466-1.008 1.3533-1.792 1.82-.775.4666-1.718.7746-2.828.924l-.658-1.036c.224-.028.438-.056.644-.084.205-.028.392-.0607.56-.098.448-.1027.882-.2614 1.302-.476.429-.224.812-.504 1.148-.84.336-.3454.602-.7514.798-1.218.205-.476.308-1.0174.308-1.624 0-.5694-.094-1.0967-.28-1.58204-.187-.49467-.462-.92867-.826-1.302s-.808-.66733-1.33-.882c-.523-.21467-1.12-.322-1.792-.322-.766 0-1.461.14-2.086.42-.616.28-1.144.64867-1.582 1.106-.43.448-.761.94267-.994 1.48404-.234.532-.35 1.0546-.35 1.568 0 .588.074 1.0733.224 1.456.158.3733.345.6486.56.826.224.1773.443.266.658.266.224 0 .452-.1074.686-.322.233-.224.471-.5787.714-1.064.242-.4947.48-1.134.714-1.918.205-.672.378-1.38604.518-2.14204.149-.756.256-1.498.322-2.226zm10.738 3.55604h8.82v.91h-8.82zm1.582 1.89h6.09v.868h-6.09zm.672-1.554.924.238c-.364.7746-.845 1.4933-1.442 2.156-.588.6533-1.204 1.1993-1.848 1.638-.047-.056-.117-.126-.21-.21-.084-.084-.173-.168-.266-.252-.094-.084-.178-.1447-.252-.182.644-.392 1.241-.882 1.792-1.47.56-.588.994-1.2274 1.302-1.918zm5.222 1.554h.994s-.005.056-.014.168c0 .1026-.005.1866-.014.252-.075.9706-.154 1.7546-.238 2.352-.075.5973-.159 1.0546-.252 1.372-.094.3173-.206.546-.336.686-.112.1306-.234.2193-.364.266-.131.0466-.28.0746-.448.084-.15.0186-.35.028-.602.028-.243 0-.504-.0094-.784-.028 0-.1307-.024-.28-.07-.448-.047-.1587-.103-.2987-.168-.42.261.028.499.0466.714.056.214.0093.373.014.476.014.093 0 .172-.0094.238-.028.074-.0187.135-.0607.182-.126.102-.0934.191-.2847.266-.574.084-.2894.158-.714.224-1.274.074-.5694.14-1.3067.196-2.212zm-5.152-4.57804v1.106h4.508v-1.106zm0-1.862v1.106h4.508v-1.106zm-.952-.784h6.44v4.55h-6.44zm-5.264 2.604h4.144v1.008h-4.144zm1.638-2.912h.994v8.61004h-.994zm-1.904 9.15604c.354-.1494.765-.3267 1.232-.532.466-.2054.966-.4294 1.498-.672.532-.2427 1.064-.4807 1.596-.714l.224.924c-.719.3546-1.442.714-2.17 1.078-.728.3546-1.386.6766-1.974.966zm9.856-1.456.728.392c-.168.588-.406 1.1853-.714 1.792-.308.6066-.654 1.1666-1.036 1.68-.383.5133-.784.9333-1.204 1.26-.094-.1027-.215-.21-.364-.322-.14-.112-.28-.2054-.42-.28.438-.2987.854-.6907 1.246-1.176.401-.4854.751-1.022 1.05-1.61.308-.588.546-1.1667.714-1.736zm-2.198.028.728.42c-.243.504-.556 1.0173-.938 1.54-.374.5133-.789.9893-1.246 1.428-.458.4386-.915.8073-1.372 1.106-.084-.112-.192-.2287-.322-.35-.122-.1214-.248-.224-.378-.308.457-.252.914-.5834 1.372-.994.457-.4107.872-.8634 1.246-1.358.382-.4947.686-.9894.91-1.484zm9.338-3.26204h7.07v.938h-7.07zm-.252 6.79004h7.504v.938h-7.504zm-.476-4.088h8.568v5.614h-1.064v-4.662h-6.468v4.662h-1.036zm4.228-6.21604c-.383.56933-.882 1.15733-1.498 1.764-.607.60667-1.284 1.19-2.03 1.75-.738.56-1.508 1.05467-2.31 1.48404-.047-.0747-.108-.1634-.182-.266-.075-.1027-.154-.20537-.238-.30804s-.164-.18667-.238-.252c.821-.42 1.61-.91933 2.366-1.498.765-.57867 1.451-1.19 2.058-1.834.616-.644 1.106-1.26933 1.47-1.876h1.078c.373.52267.798 1.03133 1.274 1.526.485.49467.998.96133 1.54 1.4.55.43867 1.11.84 1.68 1.204.578.35467 1.143.65333 1.694.896-.122.13067-.243.28-.364.448-.122.168-.234.33134-.336.49004-.551-.2987-1.106-.63471-1.666-1.00804s-1.106-.77467-1.638-1.204c-.532-.43867-1.027-.88667-1.484-1.344-.458-.46667-.85-.924-1.176-1.372z" fill="#000"/><rect fill="#000" height="16" rx="8" width="16" y="38.085"/><path d="m26.348 47.845c0 .536-.068 1.012-.204 1.428s-.332.768-.588 1.056c-.248.288-.552.508-.912.66-.36.144-.764.216-1.212.216-.408 0-.788-.072-1.14-.216-.352-.152-.656-.372-.912-.66s-.456-.64-.6-1.056c-.136-.416-.204-.896-.204-1.44 0-.712.116-1.316.348-1.812s.564-.872.996-1.128c.44-.264.96-.396 1.56-.396.56 0 1.056.132 1.488.396.432.256.768.632 1.008 1.128.248.496.372 1.104.372 1.824zm-4.428 0c0 .48.052.896.156 1.248.112.344.28.608.504.792.232.184.524.276.876.276.36 0 .652-.092.876-.276.232-.184.4-.448.504-.792.112-.352.168-.768.168-1.248 0-.496-.056-.912-.168-1.248s-.28-.592-.504-.768c-.224-.184-.52-.276-.888-.276-.536 0-.924.2-1.164.6s-.36.964-.36 1.692zm9.0741-3.348c.704 0 1.244.188 1.62.564.384.376.576.98.576 1.812v4.212h-1.296v-4.032c0-.504-.1-.88-.3-1.128-.192-.256-.492-.384-.9-.384-.6 0-1.012.196-1.236.588s-.336.956-.336 1.692v3.264h-1.296v-6.468h1.02l.18.864h.072c.136-.224.3-.408.492-.552s.408-.252.648-.324.492-.108.756-.108zm7.6284 6.588-2.352-7.284h-.048c.016.16.028.376.036.648.016.272.028.564.036.876.016.312.024.62.024.924v4.836h-1.212v-8.568h1.872l2.256 6.876h.036l2.292-6.876h1.872v8.568h-1.272v-4.908c0-.28.004-.568.012-.864.008-.304.02-.588.036-.852s.028-.48.036-.648h-.048l-2.412 7.272zm9.2297-6.588c.76 0 1.332.18 1.716.54.392.352.588.908.588 1.668v4.38h-.924l-.252-.9h-.048c-.184.232-.368.424-.552.576-.176.152-.384.264-.624.336-.232.072-.52.108-.864.108-.36 0-.684-.068-.972-.204-.288-.144-.516-.36-.684-.648-.168-.296-.252-.664-.252-1.104 0-.656.232-1.156.696-1.5.472-.344 1.188-.532 2.148-.564l1.032-.036v-.36c0-.48-.1-.816-.3-1.008-.192-.192-.464-.288-.816-.288-.296 0-.588.048-.876.144s-.568.212-.84.348l-.396-.924c.296-.16.632-.292 1.008-.396.384-.112.788-.168 1.212-.168zm.228 3.504c-.656.032-1.112.156-1.368.372-.256.208-.384.504-.384.888 0 .336.088.58.264.732.184.152.42.228.708.228.44 0 .808-.14 1.104-.42.304-.28.456-.7.456-1.26v-.564zm6.9471-3.504c.104 0 .22.008.348.024.128.008.236.02.324.036l-.132 1.188c-.088-.024-.188-.044-.3-.06s-.224-.024-.336-.024c-.216 0-.424.048-.624.144-.2.088-.38.22-.54.396-.16.168-.288.376-.384.624s-.144.532-.144.852v3.408h-1.296v-6.468h1.02l.168 1.152h.072c.12-.232.268-.444.444-.636.184-.192.392-.344.624-.456.232-.12.484-.18.756-.18zm3.0635 2.028c0 .168-.008.36-.024.576s-.032.416-.048.6h.048c.048-.08.112-.176.192-.288.088-.12.176-.24.264-.36.096-.12.184-.224.264-.312l1.812-2.124h1.488l-2.412 2.772 2.568 3.696h-1.536l-1.92-2.892-.696.624v2.268h-1.296v-9.12h1.296zm5.2579 4.56v-8.568h1.332v7.452h3.408v1.116zm8.4215-6.588c.76 0 1.332.18 1.716.54.392.352.588.908.588 1.668v4.38h-.924l-.252-.9h-.048c-.184.232-.368.424-.552.576-.176.152-.384.264-.624.336-.232.072-.52.108-.864.108-.36 0-.684-.068-.972-.204-.288-.144-.516-.36-.684-.648-.168-.296-.252-.664-.252-1.104 0-.656.232-1.156.696-1.5.472-.344 1.188-.532 2.148-.564l1.032-.036v-.36c0-.48-.1-.816-.3-1.008-.192-.192-.464-.288-.816-.288-.296 0-.588.048-.876.144s-.568.212-.84.348l-.396-.924c.296-.16.632-.292 1.008-.396.384-.112.788-.168 1.212-.168zm.228 3.504c-.656.032-1.112.156-1.368.372-.256.208-.384.504-.384.888 0 .336.088.58.264.732.184.152.42.228.708.228.44 0 .808-.14 1.104-.42.304-.28.456-.7.456-1.26v-.564zm5.159-3.84c0 .264-.008.516-.024.756-.008.232-.02.416-.036.552h.06c.168-.272.396-.5.684-.684.296-.184.672-.276 1.128-.276.728 0 1.312.28 1.752.84.448.56.672 1.392.672 2.496 0 .744-.1 1.364-.3 1.86s-.484.872-.852 1.128c-.368.248-.796.372-1.284.372-.464 0-.84-.088-1.128-.264-.28-.184-.504-.4-.672-.648h-.096l-.228.792h-.972v-9.12h1.296zm1.476 1.38c-.36 0-.648.08-.864.24s-.372.404-.468.732-.144.744-.144 1.248v.096c0 .744.104 1.316.312 1.716.216.392.616.588 1.2.588.456 0 .8-.2 1.032-.6.24-.4.36-.976.36-1.728 0-.76-.12-1.332-.36-1.716-.232-.384-.588-.576-1.068-.576zm6.6956-1.044c.536 0 1 .12 1.392.36.392.232.692.568.9 1.008.216.44.324.96.324 1.56v.696h-4.068c.016.664.176 1.172.48 1.524s.732.528 1.284.528c.392 0 .74-.036 1.044-.108.312-.08.628-.196.948-.348v1.056c-.304.144-.616.252-.936.324-.312.072-.692.108-1.14.108-.584 0-1.104-.124-1.56-.372s-.812-.616-1.068-1.104c-.256-.496-.384-1.104-.384-1.824 0-.728.116-1.344.348-1.848s.556-.888.972-1.152c.424-.272.912-.408 1.464-.408zm0 .984c-.408 0-.736.148-.984.444s-.392.716-.432 1.26h2.748c0-.336-.048-.632-.144-.888s-.244-.456-.444-.6c-.192-.144-.44-.216-.744-.216zm5.3636 5.604h-1.296v-9.12h1.296z" fill="#696966"/><path d="m0 66.085c0-2.2092 1.79086-4 4-4h318c2.209 0 4 1.7908 4 4v16c0 2.2091-1.791 4-4 4h-318.00001c-2.20914 0-3.99999-1.7909-3.99999-4z" fill="#fff"/><path d="m11.324 79.205c-.4 0-.784-.036-1.152-.108-.368-.064-.7-.16-.996-.288v-1.188c.296.136.628.26.996.372.368.104.784.156 1.248.156s.8-.068 1.008-.204.312-.34.312-.612c0-.168-.044-.304-.132-.408s-.244-.208-.468-.312c-.216-.104-.524-.236-.924-.396-.392-.176-.736-.344-1.032-.504s-.524-.352-.684-.576-.24-.512-.24-.864c0-.4.104-.732.312-.996s.5-.46.876-.588c.384-.128.832-.192 1.344-.192.376 0 .74.036 1.092.108s.708.184 1.068.336l-.384.984c-.336-.136-.648-.232-.936-.288-.28-.056-.564-.084-.852-.084-.432 0-.752.056-.96.168-.2.104-.3.276-.3.516 0 .168.052.308.156.42s.268.22.492.324c.224.096.512.22.864.372.408.16.76.316 1.056.468.304.152.536.344.696.576.16.224.24.532.24.924 0 .416-.104.764-.312 1.044-.2.28-.5.492-.9.636-.4.136-.896.204-1.488.204zm7.0513 0c-.4 0-.76-.072-1.08-.216-.32-.152-.592-.372-.816-.66-.216-.288-.384-.64-.504-1.056-.112-.424-.168-.908-.168-1.452 0-.696.096-1.292.288-1.788.2-.496.5-.876.9-1.14s.9-.396 1.5-.396c.296 0 .556.04.78.12.232.072.432.18.6.324.168.136.308.304.42.504h.06c-.008-.112-.02-.228-.036-.348s-.028-.244-.036-.372-.012-.252-.012-.372v-2.388h1.248v9.12h-1.008l-.192-.864h-.06c-.12.2-.272.376-.456.528-.176.144-.384.256-.624.336-.232.08-.5.12-.804.12zm.348-1.044c.536 0 .932-.18 1.188-.54.264-.368.396-.876.396-1.524v-.228c0-.448-.048-.848-.144-1.2s-.256-.628-.48-.828-.532-.3-.924-.3c-.536 0-.948.2-1.236.6-.28.392-.42.988-.42 1.788 0 .752.132 1.312.396 1.68s.672.552 1.224.552zm7.2673 1.044c-.248 0-.452-.072-.612-.216s-.24-.368-.24-.672c0-.32.08-.548.24-.684s.364-.204.612-.204.448.072.6.216c.16.136.24.36.24.672 0 .296-.08.52-.24.672-.152.144-.352.216-.6.216zm6.9193 0c-.4 0-.784-.036-1.152-.108-.368-.064-.7-.16-.996-.288v-1.188c.296.136.628.26.996.372.368.104.784.156 1.248.156s.8-.068 1.008-.204.312-.34.312-.612c0-.168-.044-.304-.132-.408s-.244-.208-.468-.312c-.216-.104-.524-.236-.924-.396-.392-.176-.736-.344-1.032-.504s-.524-.352-.684-.576-.24-.512-.24-.864c0-.4.104-.732.312-.996s.5-.46.876-.588c.384-.128.832-.192 1.344-.192.376 0 .74.036 1.092.108s.708.184 1.068.336l-.384.984c-.336-.136-.648-.232-.936-.288-.28-.056-.564-.084-.852-.084-.432 0-.752.056-.96.168-.2.104-.3.276-.3.516 0 .168.052.308.156.42s.268.22.492.324c.224.096.512.22.864.372.408.16.76.316 1.056.468.304.152.536.344.696.576.16.224.24.532.24.924 0 .416-.104.764-.312 1.044-.2.28-.5.492-.9.636-.4.136-.896.204-1.488.204zm5.4914 2.82c-.152 0-.304-.012-.456-.036-.152-.016-.288-.036-.408-.06v-1.02c.096.016.208.032.336.048s.248.024.36.024c.248 0 .452-.044.612-.132.168-.08.312-.204.432-.372.128-.168.244-.384.348-.648l.276-.72-2.664-6.492h1.296l1.452 3.78c.096.224.184.472.264.744.088.264.164.528.228.792h.036c.048-.184.096-.364.144-.54.056-.176.108-.348.156-.516.056-.176.108-.34.156-.492l1.224-3.768h1.332l-2.652 7.164c-.168.464-.356.864-.5641 1.2-.1999.336-.4519.592-.7559.768-.304.184-.688.276-1.152.276zm8.8993-2.82c-.4 0-.784-.036-1.152-.108-.368-.064-.7-.16-.996-.288v-1.188c.296.136.628.26.996.372.368.104.784.156 1.248.156s.8-.068 1.008-.204.312-.34.312-.612c0-.168-.044-.304-.132-.408s-.244-.208-.468-.312c-.216-.104-.524-.236-.924-.396-.392-.176-.736-.344-1.032-.504s-.524-.352-.684-.576-.24-.512-.24-.864c0-.4.104-.732.312-.996s.5-.46.876-.588c.384-.128.832-.192 1.344-.192.376 0 .74.036 1.092.108s.708.184 1.068.336l-.384.984c-.336-.136-.648-.232-.936-.288-.28-.056-.564-.084-.852-.084-.432 0-.752.056-.96.168-.2.104-.3.276-.3.516 0 .168.052.308.156.42s.268.22.492.324c.224.096.512.22.864.372.408.16.76.316 1.056.468.304.152.536.344.696.576.16.224.24.532.24.924 0 .416-.104.764-.312 1.044-.2.28-.5.492-.9.636-.4.136-.896.204-1.488.204zm8.6593 0c-.488 0-.916-.064-1.284-.192-.368-.136-.656-.36-.864-.672-.2-.32-.3-.752-.3-1.296v-3.372h-1.68v-.84l1.716-.24.24-1.668h.996v1.692h2.496v1.056h-2.496v3.168c0 .32.048.576.144.768s.244.332.444.42.444.132.732.132c.208 0 .424-.02.648-.06.232-.04.456-.08.672-.12v1.008c-.224.064-.46.116-.708.156s-.5.06-.756.06zm6.4993 0c-.712 0-1.324-.128-1.836-.384-.504-.264-.892-.644-1.164-1.14s-.408-1.104-.408-1.824c0-.696.124-1.292.372-1.788.256-.504.612-.892 1.068-1.164s.996-.408 1.62-.408c.576 0 1.068.124 1.476.372.416.248.736.6.96 1.056.224.448.336.988.336 1.62v.6h-4.56c.016.488.12.88.312 1.176s.452.512.78.648c.328.128.704.192 1.128.192.336 0 .676-.044 1.02-.132.352-.096.704-.22 1.056-.372v1.092c-.36.16-.724.276-1.092.348s-.724.108-1.068.108zm1.2-4.02c-.008-.352-.076-.652-.204-.9-.12-.248-.292-.44-.516-.576s-.496-.204-.816-.204c-.488 0-.888.152-1.2.456-.312.296-.504.704-.576 1.224zm2.4313 3.9v-6.468h.876l.168.744h.06c.104-.216.212-.384.324-.504.12-.128.252-.22.396-.276s.304-.084.48-.084c.336 0 .592.084.768.252.184.16.32.4.408.72h.048c.136-.312.304-.552.504-.72.208-.168.48-.252.816-.252s.596.088.78.264c.192.168.328.428.408.78.08.344.12.788.12 1.332v4.212h-1.128v-4.188c0-.28-.012-.516-.036-.708s-.076-.34-.156-.444c-.08-.112-.208-.168-.384-.168s-.324.076-.444.228c-.12.144-.212.364-.276.66-.056.288-.084.656-.084 1.104v3.516h-1.128v-4.188c0-.288-.02-.528-.06-.72-.032-.192-.092-.34-.18-.444s-.22-.156-.396-.156c-.192 0-.344.08-.456.24s-.192.388-.24.684c-.048.288-.072.644-.072 1.068v3.516zm10.2673.12c-.248 0-.452-.072-.612-.216s-.24-.368-.24-.672c0-.32.08-.548.24-.684s.364-.204.612-.204.448.072.6.216c.16.136.24.36.24.672 0 .296-.08.52-.24.672-.152.144-.352.216-.6.216zm7.6513 0c-.656 0-1.216-.116-1.68-.348-.456-.232-.804-.592-1.044-1.08s-.36-1.112-.36-1.872c0-.8.128-1.452.384-1.956.264-.504.636-.872 1.116-1.104s1.04-.348 1.68-.348c.36 0 .704.036 1.032.108s.636.18.924.324l-.372 1.032c-.272-.136-.532-.232-.78-.288s-.496-.084-.744-.084c-.448 0-.816.088-1.104.264-.288.168-.5.42-.636.756s-.204.76-.204 1.272c0 .528.072.956.216 1.284s.36.568.648.72.644.228 1.068.228c.32 0 .632-.036.936-.108.312-.08.6-.184.864-.312v1.128c-.272.128-.58.224-.924.288-.336.064-.676.096-1.02.096zm6.7513 0c-.44 0-.844-.072-1.212-.216s-.688-.356-.96-.636c-.264-.288-.468-.64-.612-1.056s-.216-.9-.216-1.452c0-.736.124-1.348.372-1.836.256-.496.608-.872 1.056-1.128s.964-.384 1.548-.384 1.1.128 1.548.384c.456.248.812.62 1.068 1.116s.384 1.116.384 1.86c0 .544-.072 1.024-.216 1.44s-.348.768-.612 1.056c-.256.28-.568.492-.936.636-.36.144-.764.216-1.212.216zm0-1.032c.376 0 .688-.092.936-.276.256-.192.444-.464.564-.816.128-.352.192-.764.192-1.236 0-.48-.064-.892-.192-1.236-.12-.344-.308-.608-.564-.792-.248-.192-.564-.288-.948-.288-.576 0-1.008.208-1.296.624-.28.408-.42.972-.42 1.692 0 .472.064.884.192 1.236s.32.624.576.816c.256.184.576.276.96.276zm4.4714.912v-.828l2.292-.228v-7.008l-2.112-.216v-.84h3.396v8.064l2.0522.228v.828zm9.9192.12c-.44 0-.844-.072-1.212-.216s-.688-.356-.96-.636c-.264-.288-.468-.64-.612-1.056s-.216-.9-.216-1.452c0-.736.124-1.348.372-1.836.256-.496.608-.872 1.056-1.128s.964-.384 1.548-.384 1.1.128 1.548.384c.456.248.812.62 1.068 1.116s.384 1.116.384 1.86c0 .544-.072 1.024-.216 1.44s-.348.768-.612 1.056c-.256.28-.568.492-.936.636-.36.144-.764.216-1.212.216zm0-1.032c.376 0 .688-.092.936-.276.256-.192.444-.464.564-.816.128-.352.192-.764.192-1.236 0-.48-.064-.892-.192-1.236-.12-.344-.308-.608-.564-.792-.248-.192-.564-.288-.948-.288-.576 0-1.008.208-1.296.624-.28.408-.42.972-.42 1.692 0 .472.064.884.192 1.236s.32.624.576.816c.256.184.576.276.96.276zm4.255.912v-.828l1.884-.228v-4.356l-1.656-.168v-.888h2.652l.168 1.152h.06c.224-.408.476-.72.756-.936.288-.224.656-.336 1.104-.336.232 0 .452.02.66.06.216.04.416.104.6.192l-.336 1.14c-.128-.064-.28-.116-.456-.156-.168-.048-.348-.072-.54-.072-.352 0-.66.1-.924.3-.256.2-.456.468-.6.804-.136.336-.204.708-.204 1.116v2.148l1.824.228v.828zm10.124.12c-.248 0-.452-.072-.612-.216s-.24-.368-.24-.672c0-.32.08-.548.24-.684s.364-.204.612-.204.448.072.6.216c.16.136.24.36.24.672 0 .296-.08.52-.24.672-.152.144-.352.216-.6.216zm7.651 0c-.656 0-1.216-.116-1.68-.348-.456-.232-.804-.592-1.044-1.08s-.36-1.112-.36-1.872c0-.8.128-1.452.384-1.956.264-.504.636-.872 1.116-1.104s1.04-.348 1.68-.348c.36 0 .704.036 1.032.108s.636.18.924.324l-.372 1.032c-.272-.136-.532-.232-.78-.288s-.496-.084-.744-.084c-.448 0-.816.088-1.104.264-.288.168-.5.42-.636.756s-.204.76-.204 1.272c0 .528.072.956.216 1.284s.36.568.648.72.644.228 1.068.228c.32 0 .632-.036.936-.108.312-.08.6-.184.864-.312v1.128c-.272.128-.58.224-.924.288-.336.064-.676.096-1.02.096zm4.015-.12v-9.12h1.272v2.376c0 .184-.008.396-.024.636-.008.24-.016.444-.024.612h.072c.136-.248.3-.452.492-.612s.412-.28.66-.36c.256-.08.528-.12.816-.12.688 0 1.232.192 1.632.576.408.384.612.98.612 1.788v4.224h-1.272v-3.936c0-.568-.116-.976-.348-1.224-.232-.256-.56-.384-.984-.384-.336 0-.628.088-.876.264-.248.168-.436.424-.564.768-.128.336-.192.752-.192 1.248v3.264zm9.188.12c-.648 0-1.16-.164-1.536-.492s-.564-.804-.564-1.428c0-.472.108-.86.324-1.164.224-.312.548-.544.972-.696.432-.16.952-.248 1.56-.264l1.404-.036v-.276c0-.496-.136-.84-.408-1.032-.264-.192-.632-.288-1.104-.288-.328 0-.648.04-.96.12s-.62.196-.924.348l-.42-.936c.32-.16.672-.292 1.056-.396.392-.112.828-.168 1.308-.168.84 0 1.488.184 1.944.552s.684.94.684 1.716v4.32h-.996l-.168-.876h-.048c-.184.232-.384.42-.6.564-.208.144-.44.252-.696.324s-.532.108-.828.108zm.312-1.02c.336 0 .644-.06.924-.18.28-.128.504-.312.672-.552.168-.248.252-.552.252-.912v-.564l-1.104.024c-.456.016-.828.072-1.116.168-.28.096-.488.232-.624.408-.128.176-.192.388-.192.636 0 .344.108.592.324.744.224.152.512.228.864.228zm4.687.9v-.828l1.884-.228v-4.356l-1.656-.168v-.888h2.652l.168 1.152h.06c.224-.408.476-.72.756-.936.288-.224.656-.336 1.104-.336.232 0 .452.02.66.06.216.04.416.104.6.192l-.336 1.14c-.128-.064-.28-.116-.456-.156-.168-.048-.348-.072-.54-.072-.352 0-.66.1-.924.3-.256.2-.456.468-.6.804-.136.336-.204.708-.204 1.116v2.148l1.824.228v.828zm11.311.12c-.488 0-.916-.064-1.284-.192-.368-.136-.656-.36-.864-.672-.2-.32-.3-.752-.3-1.296v-3.372h-1.68v-.84l1.716-.24.24-1.668h.996v1.692h2.496v1.056h-2.496v3.168c0 .32.048.576.144.768s.244.332.444.42.444.132.732.132c.208 0 .424-.02.648-.06.232-.04.456-.08.672-.12v1.008c-.224.064-.46.116-.708.156s-.5.06-.756.06zm6.008 0c-.248 0-.452-.072-.612-.216s-.24-.368-.24-.672c0-.32.08-.548.24-.684s.364-.204.612-.204.448.072.6.216c.16.136.24.36.24.672 0 .296-.08.52-.24.672-.152.144-.352.216-.6.216zm7.651 0c-.656 0-1.216-.116-1.68-.348-.456-.232-.804-.592-1.044-1.08s-.36-1.112-.36-1.872c0-.8.128-1.452.384-1.956.264-.504.636-.872 1.116-1.104s1.04-.348 1.68-.348c.36 0 .704.036 1.032.108s.636.18.924.324l-.372 1.032c-.272-.136-.532-.232-.78-.288s-.496-.084-.744-.084c-.448 0-.816.088-1.104.264-.288.168-.5.42-.636.756s-.204.76-.204 1.272c0 .528.072.956.216 1.284s.36.568.648.72.644.228 1.068.228c.32 0 .632-.036.936-.108.312-.08.6-.184.864-.312v1.128c-.272.128-.58.224-.924.288-.336.064-.676.096-1.02.096zm6.751 0c-.44 0-.844-.072-1.212-.216s-.688-.356-.96-.636c-.264-.288-.468-.64-.612-1.056s-.216-.9-.216-1.452c0-.736.124-1.348.372-1.836.256-.496.608-.872 1.056-1.128s.964-.384 1.548-.384 1.1.128 1.548.384c.456.248.812.62 1.068 1.116s.384 1.116.384 1.86c0 .544-.072 1.024-.216 1.44s-.348.768-.612 1.056c-.256.28-.568.492-.936.636-.36.144-.764.216-1.212.216zm0-1.032c.376 0 .688-.092.936-.276.256-.192.444-.464.564-.816.128-.352.192-.764.192-1.236 0-.48-.064-.892-.192-1.236-.12-.344-.308-.608-.564-.792-.248-.192-.564-.288-.948-.288-.576 0-1.008.208-1.296.624-.28.408-.42.972-.42 1.692 0 .472.064.884.192 1.236s.32.624.576.816c.256.184.576.276.96.276zm4.112.912v-6.468h.876l.168.744h.06c.104-.216.212-.384.324-.504.12-.128.252-.22.396-.276s.304-.084.48-.084c.336 0 .592.084.768.252.184.16.32.4.408.72h.048c.136-.312.304-.552.504-.72.208-.168.48-.252.816-.252s.596.088.78.264c.192.168.328.428.408.78.08.344.12.788.12 1.332v4.212h-1.128v-4.188c0-.28-.012-.516-.036-.708s-.076-.34-.156-.444c-.08-.112-.208-.168-.384-.168s-.324.076-.444.228c-.12.144-.212.364-.276.66-.056.288-.084.656-.084 1.104v3.516h-1.128v-4.188c0-.288-.02-.528-.06-.72-.032-.192-.092-.34-.18-.444s-.22-.156-.396-.156c-.192 0-.344.08-.456.24s-.192.388-.24.684c-.048.288-.072.644-.072 1.068v3.516zm7.543 2.88v-9.348h1.008l.18.864h.06c.136-.208.296-.384.48-.528.184-.152.396-.264.636-.336.24-.08.512-.12.816-.12.4 0 .756.076 1.068.228.32.144.588.364.804.66.216.288.38.64.492 1.056.112.408.168.876.168 1.404 0 .72-.104 1.332-.312 1.836s-.504.884-.888 1.14-.836.384-1.356.384c-.288 0-.552-.04-.792-.12s-.452-.188-.636-.324c-.184-.144-.344-.3-.48-.468h-.072c.032.184.052.36.06.528.008.16.012.3.012.42v2.724zm2.832-3.804c.552 0 .952-.192 1.2-.576s.372-.972.372-1.764c0-.768-.124-1.34-.372-1.716-.24-.376-.644-.564-1.212-.564-.528 0-.924.18-1.188.54-.256.352-.384.86-.384 1.524v.228c0 .736.12 1.308.36 1.716s.648.612 1.224.612zm7.099 1.044c-.44 0-.844-.072-1.212-.216s-.688-.356-.96-.636c-.264-.288-.468-.64-.612-1.056s-.216-.9-.216-1.452c0-.736.124-1.348.372-1.836.256-.496.608-.872 1.056-1.128s.964-.384 1.548-.384 1.1.128 1.548.384c.456.248.812.62 1.068 1.116s.384 1.116.384 1.86c0 .544-.072 1.024-.216 1.44s-.348.768-.612 1.056c-.256.28-.568.492-.936.636-.36.144-.764.216-1.212.216zm0-1.032c.376 0 .688-.092.936-.276.256-.192.444-.464.564-.816.128-.352.192-.764.192-1.236 0-.48-.064-.892-.192-1.236-.12-.344-.308-.608-.564-.792-.248-.192-.564-.288-.948-.288-.576 0-1.008.208-1.296.624-.28.408-.42.972-.42 1.692 0 .472.064.884.192 1.236s.32.624.576.816c.256.184.576.276.96.276zm4.459.912v-6.468h.996l.192.912h.072c.128-.232.292-.424.492-.576s.432-.264.696-.336c.272-.08.564-.12.876-.12.672 0 1.204.192 1.596.576.392.376.588.952.588 1.728v4.284h-1.272v-4.02c0-.528-.108-.912-.324-1.152-.208-.248-.536-.372-.984-.372-.6 0-1.028.204-1.284.612-.248.408-.372.972-.372 1.692v3.24zm10.412.12c-.712 0-1.324-.128-1.836-.384-.504-.264-.892-.644-1.164-1.14s-.408-1.104-.408-1.824c0-.696.124-1.292.372-1.788.256-.504.612-.892 1.068-1.164s.996-.408 1.62-.408c.576 0 1.068.124 1.476.372.416.248.736.6.96 1.056.224.448.336.988.336 1.62v.6h-4.56c.016.488.12.88.312 1.176s.452.512.78.648c.328.128.704.192 1.128.192.336 0 .676-.044 1.02-.132.352-.096.704-.22 1.056-.372v1.092c-.36.16-.724.276-1.092.348s-.724.108-1.068.108zm1.2-4.02c-.008-.352-.076-.652-.204-.9-.12-.248-.292-.44-.516-.576s-.496-.204-.816-.204c-.488 0-.888.152-1.2.456-.312.296-.504.704-.576 1.224zm2.779 3.9v-6.468h.996l.192.912h.072c.128-.232.292-.424.492-.576s.432-.264.696-.336c.272-.08.564-.12.876-.12.672 0 1.204.192 1.596.576.392.376.588.952.588 1.728v4.284h-1.272v-4.02c0-.528-.108-.912-.324-1.152-.208-.248-.536-.372-.984-.372-.6 0-1.028.204-1.284.612-.248.408-.372.972-.372 1.692v3.24zm11.107.12c-.488 0-.916-.064-1.284-.192-.368-.136-.656-.36-.864-.672-.2-.32-.3-.752-.3-1.296v-3.372h-1.68v-.84l1.716-.24.24-1.668h.996v1.692h2.496v1.056h-2.496v3.168c0 .32.048.576.144.768s.244.332.444.42.444.132.732.132c.208 0 .424-.02.648-.06.232-.04.456-.08.672-.12v1.008c-.224.064-.46.116-.708.156s-.5.06-.756.06zm6.008 0c-.248 0-.452-.072-.612-.216s-.24-.368-.24-.672c0-.32.08-.548.24-.684s.364-.204.612-.204.448.072.6.216c.16.136.24.36.24.672 0 .296-.08.52-.24.672-.152.144-.352.216-.6.216zm7.207 0c-.44 0-.844-.072-1.212-.216s-.688-.356-.96-.636c-.264-.288-.468-.64-.612-1.056s-.216-.9-.216-1.452c0-.736.124-1.348.372-1.836.256-.496.608-.872 1.056-1.128s.964-.384 1.548-.384 1.1.128 1.548.384c.456.248.812.62 1.068 1.116s.384 1.116.384 1.86c0 .544-.072 1.024-.216 1.44s-.348.768-.612 1.056c-.256.28-.568.492-.936.636-.36.144-.764.216-1.212.216zm0-1.032c.376 0 .688-.092.936-.276.256-.192.444-.464.564-.816.128-.352.192-.764.192-1.236 0-.48-.064-.892-.192-1.236-.12-.344-.308-.608-.564-.792-.248-.192-.564-.288-.948-.288-.576 0-1.008.208-1.296.624-.28.408-.42.972-.42 1.692 0 .472.064.884.192 1.236s.32.624.576.816c.256.184.576.276.96.276zm4.459.912v-6.468h.996l.192.912h.072c.128-.232.292-.424.492-.576s.432-.264.696-.336c.272-.08.564-.12.876-.12.672 0 1.204.192 1.596.576.392.376.588.952.588 1.728v4.284h-1.272v-4.02c0-.528-.108-.912-.324-1.152-.208-.248-.536-.372-.984-.372-.6 0-1.028.204-1.284.612-.248.408-.372.972-.372 1.692v3.24zm6.884 0v-8.568h1.788l1.224 4.98h.036l1.26-4.98h1.764v8.568h-1.188v-3.852c0-.184.004-.38.012-.588.008-.216.016-.432.024-.648s.016-.428.024-.636c.016-.216.028-.424.036-.624.016-.2.032-.384.048-.552s.028-.316.036-.444h-.06l-1.368 5.244h-1.2l-1.404-5.256h-.06c.016.12.032.264.048.432.016.16.032.34.048.54s.032.412.048.636c.016.216.028.436.036.66s.012.444.012.66c.008.216.012.416.012.6v3.828zm9.499.12c-.648 0-1.16-.164-1.536-.492s-.564-.804-.564-1.428c0-.472.108-.86.324-1.164.224-.312.548-.544.972-.696.432-.16.952-.248 1.56-.264l1.404-.036v-.276c0-.496-.136-.84-.408-1.032-.264-.192-.632-.288-1.104-.288-.328 0-.648.04-.96.12s-.62.196-.924.348l-.42-.936c.32-.16.672-.292 1.056-.396.392-.112.828-.168 1.308-.168.84 0 1.488.184 1.944.552s.684.94.684 1.716v4.32h-.996l-.168-.876h-.048c-.184.232-.384.42-.6.564-.208.144-.44.252-.696.324s-.532.108-.828.108zm.312-1.02c.336 0 .644-.06.924-.18.28-.128.504-.312.672-.552.168-.248.252-.552.252-.912v-.564l-1.104.024c-.456.016-.828.072-1.116.168-.28.096-.488.232-.624.408-.128.176-.192.388-.192.636 0 .344.108.592.324.744.224.152.512.228.864.228zm4.687.9v-.828l1.884-.228v-4.356l-1.656-.168v-.888h2.652l.168 1.152h.06c.224-.408.476-.72.756-.936.288-.224.656-.336 1.104-.336.232 0 .452.02.66.06.216.04.416.104.6.192l-.336 1.14c-.128-.064-.28-.116-.456-.156-.168-.048-.348-.072-.54-.072-.352 0-.66.1-.924.3-.256.2-.456.468-.6.804-.136.336-.204.708-.204 1.116v2.148l1.824.228v.828zm7.628 0v-9.12h1.272v4.344c0 .16-.004.336-.012.528s-.02.388-.036.588c-.008.192-.02.38-.036.564h.024c.136-.192.272-.372.408-.54.144-.168.292-.34.444-.516l2.052-2.316h1.512l-2.508 2.76 2.664 3.708h-1.428l-2.064-2.94-1.02.936v2.004zm7.387 0v-8.568h1.272v7.416h3.66v1.152zm8.767.12c-.648 0-1.16-.164-1.536-.492s-.564-.804-.564-1.428c0-.472.108-.86.324-1.164.224-.312.548-.544.972-.696.432-.16.952-.248 1.56-.264l1.404-.036v-.276c0-.496-.136-.84-.408-1.032-.264-.192-.632-.288-1.104-.288-.328 0-.648.04-.96.12s-.62.196-.924.348l-.42-.936c.32-.16.672-.292 1.056-.396.392-.112.828-.168 1.308-.168.84 0 1.488.184 1.944.552s.684.94.684 1.716v4.32h-.996l-.168-.876h-.048c-.184.232-.384.42-.6.564-.208.144-.44.252-.696.324s-.532.108-.828.108zm.312-1.02c.336 0 .644-.06.924-.18.28-.128.504-.312.672-.552.168-.248.252-.552.252-.912v-.564l-1.104.024c-.456.016-.828.072-1.116.168-.28.096-.488.232-.624.408-.128.176-.192.388-.192.636 0 .344.108.592.324.744.224.152.512.228.864.228zm8.048 1.02c-.44 0-.824-.088-1.152-.264-.32-.176-.58-.392-.78-.648h-.084l-.144.792h-.996v-9.12h1.236v2.184c0 .192-.004.4-.012.624-.008.216-.024.444-.048.684h.06c.176-.272.428-.5.756-.684s.72-.276 1.176-.276c.4 0 .756.076 1.068.228.32.144.588.364.804.66.216.288.38.64.492 1.056.12.408.18.872.18 1.392 0 .536-.06 1.012-.18 1.428-.112.416-.28.768-.504 1.056-.216.288-.484.508-.804.66-.312.152-.668.228-1.068.228zm-.312-1.044c.536 0 .932-.196 1.188-.588.256-.4.384-.98.384-1.74 0-.752-.128-1.32-.384-1.704-.256-.392-.656-.588-1.2-.588-.504 0-.896.192-1.176.576-.28.376-.42.944-.42 1.704 0 .768.132 1.352.396 1.752.272.392.676.588 1.212.588zm7.567 1.044c-.712 0-1.324-.128-1.836-.384-.504-.264-.892-.644-1.164-1.14s-.408-1.104-.408-1.824c0-.696.124-1.292.372-1.788.256-.504.612-.892 1.068-1.164s.996-.408 1.62-.408c.576 0 1.068.124 1.476.372.416.248.736.6.96 1.056.224.448.336.988.336 1.62v.6h-4.56c.016.488.12.88.312 1.176s.452.512.78.648c.328.128.704.192 1.128.192.336 0 .676-.044 1.02-.132.352-.096.704-.22 1.056-.372v1.092c-.36.16-.724.276-1.092.348s-.724.108-1.068.108zm1.2-4.02c-.008-.352-.076-.652-.204-.9-.12-.248-.292-.44-.516-.576s-.496-.204-.816-.204c-.488 0-.888.152-1.2.456-.312.296-.504.704-.576 1.224zm2.791 3.9v-.828l2.292-.228v-7.008l-2.112-.216v-.84h3.396v8.064l2.052.228v.828z" fill="#696966"/><path d="m1.14 121.085v-8.568h2.448c1.024 0 1.772.22 2.244.66.472.432.708 1.048.708 1.848 0 .472-.1.92-.3 1.344-.192.424-.516.768-.972 1.032-.448.256-1.06.384-1.836.384h-1.212v3.3zm2.172-4.236c.472 0 .864-.06 1.176-.18.32-.12.556-.308.708-.564.16-.264.24-.604.24-1.02 0-.592-.16-1.012-.48-1.26-.312-.248-.8-.372-1.464-.372h-1.272v3.396zm4.62731 4.236v-.72l1.956-.18v-4.632l-1.764-.156v-.744h2.62799l.144 1.176h.048c.224-.424.468-.744.732-.96.272-.224.628-.336 1.068-.336.272 0 .512.024.72.072.216.048.412.112.588.192l-.288.948c-.128-.072-.28-.132-.456-.18-.176-.056-.364-.084-.564-.084-.344 0-.648.108-.912.324s-.472.504-.624.864-.228.756-.228 1.188v2.328l1.872.18v.72zm7.41129 0v-.72l2.292-.18v-4.632l-2.1-.156v-.744h3.18v5.532l2.148.18v.72zm2.724-7.596c-.208 0-.388-.064-.54-.192-.144-.128-.216-.316-.216-.564 0-.264.072-.456.216-.576.152-.128.332-.192.54-.192s.384.064.528.192c.152.12.228.312.228.576 0 .248-.076.436-.228.564-.144.128-.32.192-.528.192zm4.1113 7.596v-6.432h.744l.156.708h.06c.104-.216.216-.384.336-.504s.248-.204.384-.252c.144-.048.3-.072.468-.072.328 0 .58.08.756.24.184.152.324.38.42.684h.036c.136-.296.304-.524.504-.684.208-.16.48-.24.816-.24.328 0 .588.084.78.252.2.168.34.424.42.768.088.344.132.788.132 1.332v4.2h-.96v-4.02c0-.336-.016-.62-.048-.852-.024-.24-.08-.424-.168-.552s-.232-.192-.432-.192c-.192 0-.356.092-.492.276-.136.176-.24.44-.312.792s-.108.796-.108 1.332v3.216h-.96v-4.02c0-.344-.02-.632-.06-.864-.04-.24-.112-.42-.216-.54-.096-.128-.244-.192-.444-.192-.208 0-.376.1-.504.3-.128.192-.22.468-.276.828-.048.352-.072.776-.072 1.272v3.216zm9.5474.12c-.632 0-1.144-.156-1.536-.468-.384-.312-.576-.784-.576-1.416 0-.464.112-.848.336-1.152.224-.312.552-.544.984-.696.44-.16.972-.248 1.596-.264l1.38-.036v-.264c0-.576-.144-.968-.432-1.176-.288-.216-.676-.324-1.164-.324-.344 0-.672.044-.984.132s-.608.212-.888.372l-.372-.816c.304-.152.64-.284 1.008-.396.376-.112.808-.168 1.296-.168.808 0 1.428.184 1.86.552.44.36.66.924.66 1.692v4.308h-.864l-.12-.888h-.048c-.176.224-.372.412-.588.564-.208.144-.44.252-.696.324-.256.08-.54.12-.852.12zm.18-.876c.36 0 .692-.064.996-.192.304-.136.548-.336.732-.6.184-.272.276-.612.276-1.02v-.576l-1.152.036c-.512.016-.924.08-1.236.192-.312.104-.54.252-.684.444-.136.184-.204.408-.204.672 0 .368.116.636.348.804.232.16.54.24.924.24zm4.8073.756v-.72l1.956-.18v-4.632l-1.764-.156v-.744h2.628l.144 1.176h.048c.224-.424.468-.744.732-.96.272-.224.628-.336 1.068-.336.272 0 .512.024.72.072.216.048.412.112.588.192l-.288.948c-.128-.072-.28-.132-.456-.18-.176-.056-.364-.084-.564-.084-.344 0-.648.108-.912.324s-.472.504-.624.864-.228.756-.228 1.188v2.328l1.872.18v.72zm8.0833 2.94c-.16 0-.316-.012-.468-.036-.152-.016-.284-.036-.396-.06v-.828c.096.016.208.032.336.048.136.016.268.024.396.024.248 0 .452-.04.612-.12.168-.08.312-.204.432-.372.128-.168.244-.388.348-.66l.348-.876-2.7-6.492h1.056l1.536 3.78c.104.248.204.524.3.828.104.304.196.596.276.876h.036c.056-.2.116-.396.18-.588.064-.2.124-.396.18-.588l.18-.54 1.26-3.768h1.104l-2.7 7.272c-.152.416-.32.78-.504 1.092-.176.32-.408.568-.696.744-.28.176-.652.264-1.116.264z" fill="#8c8b87"/><path d="m106.393 121.205c-.664 0-1.208-.176-1.632-.528s-.736-.856-.936-1.512c-.2-.664-.3-1.456-.3-2.376 0-.928.096-1.716.288-2.364.192-.656.496-1.156.912-1.5.424-.352.98-.528 1.668-.528.672 0 1.22.172 1.644.516.432.344.748.844.948 1.5s.3 1.448.3 2.376c0 .696-.056 1.316-.168 1.86-.104.544-.272 1.008-.504 1.392-.224.376-.52.664-.888.864s-.812.3-1.332.3zm-1.368-1.32-.708-.624 3.36-5.688.624.792zm1.368.372c.656 0 1.14-.28 1.452-.84.312-.568.468-1.444.468-2.628 0-.76-.068-1.392-.204-1.896-.136-.512-.348-.896-.636-1.152-.28-.264-.64-.396-1.08-.396-.432 0-.784.124-1.056.372s-.476.628-.612 1.14c-.128.504-.192 1.148-.192 1.932 0 1.112.14 1.968.42 2.568.288.6.768.9 1.44.9zm7.003-4.524c0-.224 0-.464 0-.72.008-.264.016-.516.024-.756.008-.248.016-.46.024-.636-.128.072-.244.132-.348.18s-.26.124-.468.228l-.996.516-.468-.816 2.388-1.212h.876v8.568h-1.032zm-1.8 5.352v-.72l1.8-.12h1.032l1.812.12v.72z" fill="#8c8b87"/><path d="m145 126.085h-70v48h70z" fill="#d7defb"/><path d="m90.732 151.925c0 .357-.0453.675-.136.952s-.2213.512-.392.704c-.1653.192-.368.339-.608.44-.24.096-.5093.144-.808.144-.272 0-.5253-.048-.76-.144-.2347-.101-.4373-.248-.608-.44s-.304-.427-.4-.704c-.0907-.277-.136-.597-.136-.96 0-.475.0773-.877.232-1.208s.376-.581.664-.752c.2933-.176.64-.264 1.04-.264.3733 0 .704.088.992.264.288.171.512.421.672.752.1653.331.248.736.248 1.216zm-2.952 0c0 .32.0347.597.104.832.0747.229.1867.405.336.528.1547.123.3493.184.584.184.24 0 .4347-.061.584-.184.1547-.123.2667-.299.336-.528.0747-.235.112-.512.112-.832 0-.331-.0373-.608-.112-.832s-.1867-.395-.336-.512c-.1493-.123-.3467-.184-.592-.184-.3573 0-.616.133-.776.4s-.24.643-.24 1.128zm6.0494-2.232c.4693 0 .8293.125 1.08.376.256.251.384.653.384 1.208v2.808h-.864v-2.688c0-.336-.0667-.587-.2-.752-.128-.171-.328-.256-.6-.256-.4 0-.6747.131-.824.392-.1494.261-.224.637-.224 1.128v2.176h-.864v-4.312h.68l.12.576h.048c.0906-.149.2-.272.328-.368s.272-.168.432-.216.328-.072.504-.072zm5.0856 4.392-1.568-4.856h-.032c.0107.107.0187.251.024.432.0107.181.0187.376.024.584.0107.208.016.413.016.616v3.224h-.808v-5.712h1.248l1.504 4.584h.024l1.528-4.584h1.248v5.712h-.848v-3.272c0-.187.003-.379.008-.576.005-.203.013-.392.024-.568s.019-.32.024-.432h-.032l-1.608 4.848zm6.153-4.392c.507 0 .888.12 1.144.36.261.235.392.605.392 1.112v2.92h-.616l-.168-.6h-.032c-.123.155-.245.283-.368.384-.117.101-.256.176-.416.224-.155.048-.347.072-.576.072-.24 0-.456-.045-.648-.136-.192-.096-.344-.24-.456-.432-.112-.197-.168-.443-.168-.736 0-.437.155-.771.464-1 .315-.229.792-.355 1.432-.376l.688-.024v-.24c0-.32-.067-.544-.2-.672-.128-.128-.309-.192-.544-.192-.197 0-.392.032-.584.096s-.379.141-.56.232l-.264-.616c.197-.107.421-.195.672-.264.256-.075.525-.112.808-.112zm.152 2.336c-.437.021-.741.104-.912.248-.171.139-.256.336-.256.592 0 .224.059.387.176.488.123.101.28.152.472.152.293 0 .539-.093.736-.28.203-.187.304-.467.304-.84v-.376zm4.632-2.336c.069 0 .146.005.232.016.085.005.157.013.216.024l-.088.792c-.059-.016-.126-.029-.2-.04-.075-.011-.15-.016-.224-.016-.144 0-.283.032-.416.096-.134.059-.254.147-.36.264-.107.112-.192.251-.256.416s-.096.355-.096.568v2.272h-.864v-4.312h.68l.112.768h.048c.08-.155.178-.296.296-.424.122-.128.261-.229.416-.304.154-.08.322-.12.504-.12zm2.042 1.352c0 .112-.005.24-.016.384s-.021.277-.032.4h.032c.032-.053.075-.117.128-.192.059-.08.117-.16.176-.24.064-.08.123-.149.176-.208l1.208-1.416h.992l-1.608 1.848 1.712 2.464h-1.024l-1.28-1.928-.464.416v1.512h-.864v-6.08h.864zm3.505 3.04v-5.712h.888v4.968h2.272v.744zm5.614-4.392c.507 0 .888.12 1.144.36.262.235.392.605.392 1.112v2.92h-.616l-.168-.6h-.032c-.122.155-.245.283-.368.384-.117.101-.256.176-.416.224-.154.048-.346.072-.576.072-.24 0-.456-.045-.648-.136-.192-.096-.344-.24-.456-.432-.112-.197-.168-.443-.168-.736 0-.437.155-.771.464-1 .315-.229.792-.355 1.432-.376l.688-.024v-.24c0-.32-.066-.544-.2-.672-.128-.128-.309-.192-.544-.192-.197 0-.392.032-.584.096s-.378.141-.56.232l-.264-.616c.198-.107.422-.195.672-.264.256-.075.526-.112.808-.112zm.152 2.336c-.437.021-.741.104-.912.248-.17.139-.256.336-.256.592 0 .224.059.387.176.488.123.101.28.152.472.152.294 0 .539-.093.736-.28.203-.187.304-.467.304-.84v-.376zm3.44-2.56c0 .176-.006.344-.016.504-.006.155-.014.277-.024.368h.04c.112-.181.264-.333.456-.456.197-.123.448-.184.752-.184.485 0 .874.187 1.168.56.298.373.448.928.448 1.664 0 .496-.067.909-.2 1.24-.134.331-.323.581-.568.752-.246.165-.531.248-.856.248-.31 0-.56-.059-.752-.176-.187-.123-.336-.267-.448-.432h-.064l-.152.528h-.648v-6.08h.864zm.984.92c-.24 0-.432.053-.576.16s-.248.269-.312.488-.096.496-.096.832v.064c0 .496.069.877.208 1.144.144.261.41.392.8.392.304 0 .533-.133.688-.4.16-.267.24-.651.24-1.152 0-.507-.08-.888-.24-1.144-.155-.256-.392-.384-.712-.384zm4.464-.696c.357 0 .666.08.928.24.261.155.461.379.6.672.144.293.216.64.216 1.04v.464h-2.712c.01.443.117.781.32 1.016.202.235.488.352.856.352.261 0 .493-.024.696-.072.208-.053.418-.131.632-.232v.704c-.203.096-.411.168-.624.216-.208.048-.462.072-.76.072-.39 0-.736-.083-1.04-.248s-.542-.411-.712-.736c-.171-.331-.256-.736-.256-1.216 0-.485.077-.896.232-1.232.154-.336.37-.592.648-.768.282-.181.608-.272.976-.272zm0 .656c-.272 0-.491.099-.656.296-.166.197-.262.477-.288.84h1.832c0-.224-.032-.421-.096-.592s-.163-.304-.296-.4c-.128-.096-.294-.144-.496-.144zm3.575 3.736h-.864v-6.08h.864z" fill="#000"/><path d="m180.393 121.205c-.664 0-1.208-.176-1.632-.528s-.736-.856-.936-1.512c-.2-.664-.3-1.456-.3-2.376 0-.928.096-1.716.288-2.364.192-.656.496-1.156.912-1.5.424-.352.98-.528 1.668-.528.672 0 1.22.172 1.644.516.432.344.748.844.948 1.5s.3 1.448.3 2.376c0 .696-.056 1.316-.168 1.86-.104.544-.272 1.008-.504 1.392-.224.376-.52.664-.888.864s-.812.3-1.332.3zm-1.368-1.32-.708-.624 3.36-5.688.624.792zm1.368.372c.656 0 1.14-.28 1.452-.84.312-.568.468-1.444.468-2.628 0-.76-.068-1.392-.204-1.896-.136-.512-.348-.896-.636-1.152-.28-.264-.64-.396-1.08-.396-.432 0-.784.124-1.056.372s-.476.628-.612 1.14c-.128.504-.192 1.148-.192 1.932 0 1.112.14 1.968.42 2.568.288.6.768.9 1.44.9zm4.447.828v-.912l2.28-2.244c.4-.392.74-.756 1.02-1.092.28-.344.492-.68.636-1.008.152-.328.228-.672.228-1.032 0-.512-.14-.88-.42-1.104-.28-.232-.636-.348-1.068-.348-.376 0-.732.076-1.068.228-.328.152-.636.344-.924.576l-.6-.744c.216-.192.456-.364.72-.516s.556-.272.876-.36.664-.132 1.032-.132c.512 0 .956.092 1.332.276.384.184.68.452.888.804.208.344.312.772.312 1.284 0 .432-.08.844-.24 1.236-.152.384-.376.764-.672 1.14-.288.368-.636.752-1.044 1.152l-1.836 1.788v.048h4.248v.96z" fill="#8c8b87"/><path d="m219 126.085h-70v48h70z" fill="#bfcefc"/><path d="m164.732 151.925c0 .357-.045.675-.136.952s-.221.512-.392.704c-.165.192-.368.339-.608.44-.24.096-.509.144-.808.144-.272 0-.525-.048-.76-.144-.235-.101-.437-.248-.608-.44s-.304-.427-.4-.704c-.091-.277-.136-.597-.136-.96 0-.475.077-.877.232-1.208s.376-.581.664-.752c.293-.176.64-.264 1.04-.264.373 0 .704.088.992.264.288.171.512.421.672.752.165.331.248.736.248 1.216zm-2.952 0c0 .32.035.597.104.832.075.229.187.405.336.528.155.123.349.184.584.184.24 0 .435-.061.584-.184.155-.123.267-.299.336-.528.075-.235.112-.512.112-.832 0-.331-.037-.608-.112-.832s-.187-.395-.336-.512c-.149-.123-.347-.184-.592-.184-.357 0-.616.133-.776.4s-.24.643-.24 1.128zm6.049-2.232c.47 0 .83.125 1.08.376.256.251.384.653.384 1.208v2.808h-.864v-2.688c0-.336-.066-.587-.2-.752-.128-.171-.328-.256-.6-.256-.4 0-.674.131-.824.392-.149.261-.224.637-.224 1.128v2.176h-.864v-4.312h.68l.12.576h.048c.091-.149.2-.272.328-.368s.272-.168.432-.216.328-.072.504-.072zm5.086 4.392-1.568-4.856h-.032c.011.107.019.251.024.432.011.181.019.376.024.584.011.208.016.413.016.616v3.224h-.808v-5.712h1.248l1.504 4.584h.024l1.528-4.584h1.248v5.712h-.848v-3.272c0-.187.003-.379.008-.576.005-.203.013-.392.024-.568s.019-.32.024-.432h-.032l-1.608 4.848zm6.153-4.392c.507 0 .888.12 1.144.36.261.235.392.605.392 1.112v2.92h-.616l-.168-.6h-.032c-.123.155-.245.283-.368.384-.117.101-.256.176-.416.224-.155.048-.347.072-.576.072-.24 0-.456-.045-.648-.136-.192-.096-.344-.24-.456-.432-.112-.197-.168-.443-.168-.736 0-.437.155-.771.464-1 .315-.229.792-.355 1.432-.376l.688-.024v-.24c0-.32-.067-.544-.2-.672-.128-.128-.309-.192-.544-.192-.197 0-.392.032-.584.096s-.379.141-.56.232l-.264-.616c.197-.107.421-.195.672-.264.256-.075.525-.112.808-.112zm.152 2.336c-.437.021-.741.104-.912.248-.171.139-.256.336-.256.592 0 .224.059.387.176.488.123.101.28.152.472.152.293 0 .539-.093.736-.28.203-.187.304-.467.304-.84v-.376zm4.632-2.336c.069 0 .146.005.232.016.085.005.157.013.216.024l-.088.792c-.059-.016-.126-.029-.2-.04-.075-.011-.15-.016-.224-.016-.144 0-.283.032-.416.096-.134.059-.254.147-.36.264-.107.112-.192.251-.256.416s-.096.355-.096.568v2.272h-.864v-4.312h.68l.112.768h.048c.08-.155.178-.296.296-.424.122-.128.261-.229.416-.304.154-.08.322-.12.504-.12zm2.042 1.352c0 .112-.005.24-.016.384s-.021.277-.032.4h.032c.032-.053.075-.117.128-.192.059-.08.117-.16.176-.24.064-.08.123-.149.176-.208l1.208-1.416h.992l-1.608 1.848 1.712 2.464h-1.024l-1.28-1.928-.464.416v1.512h-.864v-6.08h.864zm3.505 3.04v-5.712h.888v4.968h2.272v.744zm5.614-4.392c.507 0 .888.12 1.144.36.262.235.392.605.392 1.112v2.92h-.616l-.168-.6h-.032c-.122.155-.245.283-.368.384-.117.101-.256.176-.416.224-.154.048-.346.072-.576.072-.24 0-.456-.045-.648-.136-.192-.096-.344-.24-.456-.432-.112-.197-.168-.443-.168-.736 0-.437.155-.771.464-1 .315-.229.792-.355 1.432-.376l.688-.024v-.24c0-.32-.066-.544-.2-.672-.128-.128-.309-.192-.544-.192-.197 0-.392.032-.584.096s-.378.141-.56.232l-.264-.616c.198-.107.422-.195.672-.264.256-.075.526-.112.808-.112zm.152 2.336c-.437.021-.741.104-.912.248-.17.139-.256.336-.256.592 0 .224.059.387.176.488.123.101.28.152.472.152.294 0 .539-.093.736-.28.203-.187.304-.467.304-.84v-.376zm3.44-2.56c0 .176-.006.344-.016.504-.006.155-.014.277-.024.368h.04c.112-.181.264-.333.456-.456.197-.123.448-.184.752-.184.485 0 .874.187 1.168.56.298.373.448.928.448 1.664 0 .496-.067.909-.2 1.24-.134.331-.323.581-.568.752-.246.165-.531.248-.856.248-.31 0-.56-.059-.752-.176-.187-.123-.336-.267-.448-.432h-.064l-.152.528h-.648v-6.08h.864zm.984.92c-.24 0-.432.053-.576.16s-.248.269-.312.488-.096.496-.096.832v.064c0 .496.069.877.208 1.144.144.261.41.392.8.392.304 0 .533-.133.688-.4.16-.267.24-.651.24-1.152 0-.507-.08-.888-.24-1.144-.155-.256-.392-.384-.712-.384zm4.464-.696c.357 0 .666.08.928.24.261.155.461.379.6.672.144.293.216.64.216 1.04v.464h-2.712c.01.443.117.781.32 1.016.202.235.488.352.856.352.261 0 .493-.024.696-.072.208-.053.418-.131.632-.232v.704c-.203.096-.411.168-.624.216-.208.048-.462.072-.76.072-.39 0-.736-.083-1.04-.248s-.542-.411-.712-.736c-.171-.331-.256-.736-.256-1.216 0-.485.077-.896.232-1.232.154-.336.37-.592.648-.768.282-.181.608-.272.976-.272zm0 .656c-.272 0-.491.099-.656.296-.166.197-.262.477-.288.84h1.832c0-.224-.032-.421-.096-.592s-.163-.304-.296-.4c-.128-.096-.294-.144-.496-.144zm3.575 3.736h-.864v-6.08h.864z" fill="#000"/><path d="m.6 201.085v-8.568h1.548l1.428 5.028h.036l1.428-5.028h1.56v8.568h-1.02v-4.644c0-.16 0-.32 0-.48.008-.16.012-.32.012-.48.008-.168.016-.332.024-.492s.016-.32.024-.48.02-.316.036-.468.032-.3.048-.444h-.048l-1.584 5.352h-.996l-1.596-5.364h-.048c.016.12.032.252.048.396s.028.296.036.456c.016.16.028.328.036.504.016.168.024.34.024.516.008.168.012.336.012.504.008.168.012.328.012.48v4.644zm9.7273.12c-.75999 0-1.32399-.188-1.69199-.564-.36-.384-.54-.952-.54-1.704v-4.284h1.08v4.116c0 .512.104.9.312 1.164.216.264.58399.396 1.10399.396.448 0 .8-.092 1.056-.276.256-.192.436-.464.54-.816.112-.352.168-.776.168-1.272v-3.312h1.08v6.432h-.864l-.156-.864h-.06c-.152.24-.328.432-.528.576s-.424.248-.672.312-.524.096-.828.096zm5.0233-.12v-.72l2.352-.18v-7.32l-2.28-.156v-.744h3.36v8.22l2.088.18v.72zm11.0593.12c-.456 0-.864-.06-1.224-.18s-.648-.332-.864-.636c-.208-.304-.312-.724-.312-1.26v-3.576h-1.752v-.744l1.752-.192.216-1.68h.864v1.716h2.508v.9h-2.508v3.372c0 .32.044.584.132.792.096.208.248.364.456.468.208.096.476.144.804.144.208 0 .432-.02.672-.06s.448-.08.624-.12v.864c-.192.048-.404.092-.636.132s-.476.06-.732.06zm3.3314-.12v-.72l2.292-.18v-4.632l-2.1-.156v-.744h3.18v5.532l2.148.18v.72zm2.724-7.596c-.208 0-.388-.064-.54-.192-.144-.128-.216-.316-.216-.564 0-.264.072-.456.216-.576.152-.128.332-.192.54-.192s.384.064.528.192c.152.12.228.312.228.576 0 .248-.076.436-.228.564-.144.128-.32.192-.528.192z" fill="#8c8b87"/><path d="m106.393 201.205c-.664 0-1.208-.176-1.632-.528s-.736-.856-.936-1.512c-.2-.664-.3-1.456-.3-2.376 0-.928.096-1.716.288-2.364.192-.656.496-1.156.912-1.5.424-.352.98-.528 1.668-.528.672 0 1.22.172 1.644.516.432.344.748.844.948 1.5s.3 1.448.3 2.376c0 .696-.056 1.316-.168 1.86-.104.544-.272 1.008-.504 1.392-.224.376-.52.664-.888.864s-.812.3-1.332.3zm-1.368-1.32-.708-.624 3.36-5.688.624.792zm1.368.372c.656 0 1.14-.28 1.452-.84.312-.568.468-1.444.468-2.628 0-.76-.068-1.392-.204-1.896-.136-.512-.348-.896-.636-1.152-.28-.264-.64-.396-1.08-.396-.432 0-.784.124-1.056.372s-.476.628-.612 1.14c-.128.504-.192 1.148-.192 1.932 0 1.112.14 1.968.42 2.568.288.6.768.9 1.44.9zm4.447.828v-.912l2.28-2.244c.4-.392.74-.756 1.02-1.092.28-.344.492-.68.636-1.008.152-.328.228-.672.228-1.032 0-.512-.14-.88-.42-1.104-.28-.232-.636-.348-1.068-.348-.376 0-.732.076-1.068.228-.328.152-.636.344-.924.576l-.6-.744c.216-.192.456-.364.72-.516s.556-.272.876-.36.664-.132 1.032-.132c.512 0 .956.092 1.332.276.384.184.68.452.888.804.208.344.312.772.312 1.284 0 .432-.08.844-.24 1.236-.152.384-.376.764-.672 1.14-.288.368-.636.752-1.044 1.152l-1.836 1.788v.048h4.248v.96z" fill="#8c8b87"/><path d="m145 206.085h-70v48h70z" fill="#6ed0ae"/><path d="m91.3648 231.925c0 .357-.0453.675-.136.952s-.2213.512-.392.704c-.1653.192-.368.339-.608.44-.24.096-.5093.144-.808.144-.272 0-.5253-.048-.76-.144-.2347-.101-.4373-.248-.608-.44s-.304-.427-.4-.704c-.0907-.277-.136-.597-.136-.96 0-.475.0773-.877.232-1.208s.376-.581.664-.752c.2933-.176.64-.264 1.04-.264.3733 0 .704.088.992.264.288.171.512.421.672.752.1653.331.248.736.248 1.216zm-2.952 0c0 .32.0347.597.104.832.0747.229.1867.405.336.528.1547.123.3493.184.584.184.24 0 .4347-.061.584-.184.1547-.123.2667-.299.336-.528.0747-.235.112-.512.112-.832 0-.331-.0373-.608-.112-.832s-.1867-.395-.336-.512c-.1493-.123-.3467-.184-.592-.184-.3573 0-.616.133-.776.4s-.24.643-.24 1.128zm6.0494-2.232c.4693 0 .8293.125 1.08.376.256.251.384.653.384 1.208v2.808h-.864v-2.688c0-.336-.0667-.587-.2-.752-.128-.171-.328-.256-.6-.256-.4 0-.6747.131-.824.392s-.224.637-.224 1.128v2.176h-.864v-4.312h.68l.12.576h.048c.0907-.149.2-.272.328-.368s.272-.168.432-.216.328-.072.504-.072zm5.0856 4.392-1.568-4.856h-.032c.0107.107.0187.251.024.432.0107.181.0187.376.024.584.0107.208.016.413.016.616v3.224h-.808v-5.712h1.248l1.504 4.584h.024l1.5282-4.584h1.248v5.712h-.848v-3.272c0-.187.002-.379.008-.576.005-.203.013-.392.024-.568.01-.176.018-.32.024-.432h-.032l-1.608 4.848zm6.1532-4.392c.507 0 .888.12 1.144.36.261.235.392.605.392 1.112v2.92h-.616l-.168-.6h-.032c-.123.155-.245.283-.368.384-.117.101-.256.176-.416.224-.155.048-.347.072-.576.072-.24 0-.456-.045-.648-.136-.192-.096-.344-.24-.456-.432-.112-.197-.168-.443-.168-.736 0-.437.155-.771.464-1 .315-.229.792-.355 1.432-.376l.688-.024v-.24c0-.32-.067-.544-.2-.672-.128-.128-.309-.192-.544-.192-.197 0-.392.032-.584.096s-.379.141-.56.232l-.264-.616c.197-.107.421-.195.672-.264.256-.075.525-.112.808-.112zm.152 2.336c-.437.021-.741.104-.912.248-.171.139-.256.336-.256.592 0 .224.059.387.176.488.123.101.28.152.472.152.293 0 .539-.093.736-.28.203-.187.304-.467.304-.84v-.376zm4.631-2.336c.07 0 .147.005.232.016.086.005.158.013.216.024l-.088.792c-.058-.016-.125-.029-.2-.04-.074-.011-.149-.016-.224-.016-.144 0-.282.032-.416.096-.133.059-.253.147-.36.264-.106.112-.192.251-.256.416s-.096.355-.096.568v2.272h-.864v-4.312h.68l.112.768h.048c.08-.155.179-.296.296-.424.123-.128.262-.229.416-.304.155-.08.323-.12.504-.12zm2.043 1.352c0 .112-.006.24-.016.384-.011.144-.022.277-.032.4h.032c.032-.053.074-.117.128-.192.058-.08.117-.16.176-.24.064-.08.122-.149.176-.208l1.208-1.416h.992l-1.608 1.848 1.712 2.464h-1.024l-1.28-1.928-.464.416v1.512h-.864v-6.08h.864zm3.505 3.04v-5.712h.888v4.968h2.272v.744zm5.614-4.392c.507 0 .888.12 1.144.36.262.235.392.605.392 1.112v2.92h-.616l-.168-.6h-.032c-.122.155-.245.283-.368.384-.117.101-.256.176-.416.224-.154.048-.346.072-.576.072-.24 0-.456-.045-.648-.136-.192-.096-.344-.24-.456-.432-.112-.197-.168-.443-.168-.736 0-.437.155-.771.464-1 .315-.229.792-.355 1.432-.376l.688-.024v-.24c0-.32-.066-.544-.2-.672-.128-.128-.309-.192-.544-.192-.197 0-.392.032-.584.096s-.378.141-.56.232l-.264-.616c.198-.107.422-.195.672-.264.256-.075.526-.112.808-.112zm.152 2.336c-.437.021-.741.104-.912.248-.17.139-.256.336-.256.592 0 .224.059.387.176.488.123.101.28.152.472.152.294 0 .539-.093.736-.28.203-.187.304-.467.304-.84v-.376zm3.44-2.56c0 .176-.006.344-.016.504-.006.155-.014.277-.024.368h.04c.112-.181.264-.333.456-.456.197-.123.448-.184.752-.184.485 0 .874.187 1.168.56.298.373.448.928.448 1.664 0 .496-.067.909-.2 1.24-.134.331-.323.581-.568.752-.246.165-.531.248-.856.248-.31 0-.56-.059-.752-.176-.187-.123-.336-.267-.448-.432h-.064l-.152.528h-.648v-6.08h.864zm.984.92c-.24 0-.432.053-.576.16s-.248.269-.312.488-.096.496-.096.832v.064c0 .496.069.877.208 1.144.144.261.41.392.8.392.304 0 .533-.133.688-.4.16-.267.24-.651.24-1.152 0-.507-.08-.888-.24-1.144-.155-.256-.392-.384-.712-.384zm4.463-.696c.358 0 .667.08.928.24.262.155.462.379.6.672.144.293.216.64.216 1.04v.464h-2.712c.011.443.118.781.32 1.016.203.235.488.352.856.352.262 0 .494-.024.696-.072.208-.053.419-.131.632-.232v.704c-.202.096-.41.168-.624.216-.208.048-.461.072-.76.072-.389 0-.736-.083-1.04-.248s-.541-.411-.712-.736c-.17-.331-.256-.736-.256-1.216 0-.485.078-.896.232-1.232.155-.336.371-.592.648-.768.283-.181.608-.272.976-.272zm0 .656c-.272 0-.49.099-.656.296-.165.197-.261.477-.288.84h1.832c0-.224-.032-.421-.096-.592s-.162-.304-.296-.4c-.128-.096-.293-.144-.496-.144zm3.576 3.736h-.864v-6.08h.864z" fill="#000"/><path d="m180.393 201.205c-.664 0-1.208-.176-1.632-.528s-.736-.856-.936-1.512c-.2-.664-.3-1.456-.3-2.376 0-.928.096-1.716.288-2.364.192-.656.496-1.156.912-1.5.424-.352.98-.528 1.668-.528.672 0 1.22.172 1.644.516.432.344.748.844.948 1.5s.3 1.448.3 2.376c0 .696-.056 1.316-.168 1.86-.104.544-.272 1.008-.504 1.392-.224.376-.52.664-.888.864s-.812.3-1.332.3zm-1.368-1.32-.708-.624 3.36-5.688.624.792zm1.368.372c.656 0 1.14-.28 1.452-.84.312-.568.468-1.444.468-2.628 0-.76-.068-1.392-.204-1.896-.136-.512-.348-.896-.636-1.152-.28-.264-.64-.396-1.08-.396-.432 0-.784.124-1.056.372s-.476.628-.612 1.14c-.128.504-.192 1.148-.192 1.932 0 1.112.14 1.968.42 2.568.288.6.768.9 1.44.9zm6.739.948c-.344 0-.716-.036-1.116-.108-.4-.064-.776-.184-1.128-.36v-1.02c.352.176.732.312 1.14.408.408.088.8.132 1.176.132.696 0 1.204-.148 1.524-.444s.48-.684.48-1.164c0-.368-.088-.66-.264-.876-.168-.224-.412-.384-.732-.48-.32-.104-.712-.156-1.176-.156h-.888v-.96h.888c.416 0 .764-.064 1.044-.192.28-.136.492-.32.636-.552.152-.24.228-.512.228-.816 0-.4-.128-.712-.384-.936-.248-.224-.616-.336-1.104-.336-.408 0-.784.072-1.128.216-.336.136-.624.284-.864.444l-.54-.732c.304-.24.676-.444 1.116-.612.44-.176.936-.264 1.488-.264s1.012.092 1.38.276c.376.184.656.436.84.756.192.312.288.676.288 1.092 0 .384-.076.72-.228 1.008-.144.28-.352.508-.624.684-.264.176-.576.296-.936.36v.036c.448.056.824.172 1.128.348s.532.412.684.708c.16.288.24.636.24 1.044 0 .48-.112.908-.336 1.284s-.568.672-1.032.888-1.064.324-1.8.324z" fill="#8c8b87"/><path d="m219 206.085h-70v48h70z" fill="#ff8f8f"/><path d="m165.365 231.925c0 .357-.046.675-.136.952-.091.277-.222.512-.392.704-.166.192-.368.339-.608.44-.24.096-.51.144-.808.144-.272 0-.526-.048-.76-.144-.235-.101-.438-.248-.608-.44-.171-.192-.304-.427-.4-.704-.091-.277-.136-.597-.136-.96 0-.475.077-.877.232-1.208.154-.331.376-.581.664-.752.293-.176.64-.264 1.04-.264.373 0 .704.088.992.264.288.171.512.421.672.752.165.331.248.736.248 1.216zm-2.952 0c0 .32.034.597.104.832.074.229.186.405.336.528.154.123.349.184.584.184.24 0 .434-.061.584-.184.154-.123.266-.299.336-.528.074-.235.112-.512.112-.832 0-.331-.038-.608-.112-.832-.075-.224-.187-.395-.336-.512-.15-.123-.347-.184-.592-.184-.358 0-.616.133-.776.4s-.24.643-.24 1.128zm6.049-2.232c.47 0 .83.125 1.08.376.256.251.384.653.384 1.208v2.808h-.864v-2.688c0-.336-.066-.587-.2-.752-.128-.171-.328-.256-.6-.256-.4 0-.674.131-.824.392-.149.261-.224.637-.224 1.128v2.176h-.864v-4.312h.68l.12.576h.048c.091-.149.2-.272.328-.368s.272-.168.432-.216.328-.072.504-.072zm5.086 4.392-1.568-4.856h-.032c.01.107.018.251.024.432.01.181.018.376.024.584.01.208.016.413.016.616v3.224h-.808v-5.712h1.248l1.504 4.584h.024l1.528-4.584h1.248v5.712h-.848v-3.272c0-.187.002-.379.008-.576.005-.203.013-.392.024-.568.01-.176.018-.32.024-.432h-.032l-1.608 4.848zm6.153-4.392c.507 0 .888.12 1.144.36.261.235.392.605.392 1.112v2.92h-.616l-.168-.6h-.032c-.123.155-.245.283-.368.384-.117.101-.256.176-.416.224-.155.048-.347.072-.576.072-.24 0-.456-.045-.648-.136-.192-.096-.344-.24-.456-.432-.112-.197-.168-.443-.168-.736 0-.437.155-.771.464-1 .315-.229.792-.355 1.432-.376l.688-.024v-.24c0-.32-.067-.544-.2-.672-.128-.128-.309-.192-.544-.192-.197 0-.392.032-.584.096s-.379.141-.56.232l-.264-.616c.197-.107.421-.195.672-.264.256-.075.525-.112.808-.112zm.152 2.336c-.437.021-.741.104-.912.248-.171.139-.256.336-.256.592 0 .224.059.387.176.488.123.101.28.152.472.152.293 0 .539-.093.736-.28.203-.187.304-.467.304-.84v-.376zm4.631-2.336c.07 0 .147.005.232.016.086.005.158.013.216.024l-.088.792c-.058-.016-.125-.029-.2-.04-.074-.011-.149-.016-.224-.016-.144 0-.282.032-.416.096-.133.059-.253.147-.36.264-.106.112-.192.251-.256.416s-.096.355-.096.568v2.272h-.864v-4.312h.68l.112.768h.048c.08-.155.179-.296.296-.424.123-.128.262-.229.416-.304.155-.08.323-.12.504-.12zm2.043 1.352c0 .112-.006.24-.016.384-.011.144-.022.277-.032.4h.032c.032-.053.074-.117.128-.192.058-.08.117-.16.176-.24.064-.08.122-.149.176-.208l1.208-1.416h.992l-1.608 1.848 1.712 2.464h-1.024l-1.28-1.928-.464.416v1.512h-.864v-6.08h.864zm3.505 3.04v-5.712h.888v4.968h2.272v.744zm5.614-4.392c.507 0 .888.12 1.144.36.262.235.392.605.392 1.112v2.92h-.616l-.168-.6h-.032c-.122.155-.245.283-.368.384-.117.101-.256.176-.416.224-.154.048-.346.072-.576.072-.24 0-.456-.045-.648-.136-.192-.096-.344-.24-.456-.432-.112-.197-.168-.443-.168-.736 0-.437.155-.771.464-1 .315-.229.792-.355 1.432-.376l.688-.024v-.24c0-.32-.066-.544-.2-.672-.128-.128-.309-.192-.544-.192-.197 0-.392.032-.584.096s-.378.141-.56.232l-.264-.616c.198-.107.422-.195.672-.264.256-.075.526-.112.808-.112zm.152 2.336c-.437.021-.741.104-.912.248-.17.139-.256.336-.256.592 0 .224.059.387.176.488.123.101.28.152.472.152.294 0 .539-.093.736-.28.203-.187.304-.467.304-.84v-.376zm3.44-2.56c0 .176-.006.344-.016.504-.006.155-.014.277-.024.368h.04c.112-.181.264-.333.456-.456.197-.123.448-.184.752-.184.485 0 .874.187 1.168.56.298.373.448.928.448 1.664 0 .496-.067.909-.2 1.24-.134.331-.323.581-.568.752-.246.165-.531.248-.856.248-.31 0-.56-.059-.752-.176-.187-.123-.336-.267-.448-.432h-.064l-.152.528h-.648v-6.08h.864zm.984.92c-.24 0-.432.053-.576.16s-.248.269-.312.488-.096.496-.096.832v.064c0 .496.069.877.208 1.144.144.261.41.392.8.392.304 0 .533-.133.688-.4.16-.267.24-.651.24-1.152 0-.507-.08-.888-.24-1.144-.155-.256-.392-.384-.712-.384zm4.463-.696c.358 0 .667.08.928.24.262.155.462.379.6.672.144.293.216.64.216 1.04v.464h-2.712c.011.443.118.781.32 1.016.203.235.488.352.856.352.262 0 .494-.024.696-.072.208-.053.419-.131.632-.232v.704c-.202.096-.41.168-.624.216-.208.048-.461.072-.76.072-.389 0-.736-.083-1.04-.248s-.541-.411-.712-.736c-.17-.331-.256-.736-.256-1.216 0-.485.078-.896.232-1.232.155-.336.371-.592.648-.768.283-.181.608-.272.976-.272zm0 .656c-.272 0-.49.099-.656.296-.165.197-.261.477-.288.84h1.832c0-.224-.032-.421-.096-.592s-.162-.304-.296-.4c-.128-.096-.293-.144-.496-.144zm3.576 3.736h-.864v-6.08h.864z" fill="#000"/><path d="m254.393 201.205c-.664 0-1.208-.176-1.632-.528s-.736-.856-.936-1.512c-.2-.664-.3-1.456-.3-2.376 0-.928.096-1.716.288-2.364.192-.656.496-1.156.912-1.5.424-.352.98-.528 1.668-.528.672 0 1.22.172 1.644.516.432.344.748.844.948 1.5s.3 1.448.3 2.376c0 .696-.056 1.316-.168 1.86-.104.544-.272 1.008-.504 1.392-.224.376-.52.664-.888.864s-.812.3-1.332.3zm-1.368-1.32-.708-.624 3.36-5.688.624.792zm1.368.372c.656 0 1.14-.28 1.452-.84.312-.568.468-1.444.468-2.628 0-.76-.068-1.392-.204-1.896-.136-.512-.348-.896-.636-1.152-.28-.264-.64-.396-1.08-.396-.432 0-.784.124-1.056.372s-.476.628-.612 1.14c-.128.504-.192 1.148-.192 1.932 0 1.112.14 1.968.42 2.568.288.6.768.9 1.44.9zm7.303.948c-.456 0-.868-.076-1.236-.228-.368-.16-.68-.396-.936-.708-.256-.32-.456-.72-.6-1.2-.136-.48-.204-1.04-.204-1.68 0-.616.052-1.22.156-1.812.112-.592.312-1.128.6-1.608s.692-.86 1.212-1.14c.52-.288 1.192-.432 2.016-.432.16 0 .344.008.552.024.216.016.388.044.516.084v.948c-.136-.048-.296-.084-.48-.108s-.368-.036-.552-.036c-.576 0-1.052.092-1.428.276-.376.176-.672.42-.888.732s-.372.676-.468 1.092c-.096.408-.152.844-.168 1.308h.072c.104-.2.248-.38.432-.54s.408-.284.672-.372c.264-.096.564-.144.9-.144.8 0 1.436.232 1.908.696s.708 1.12.708 1.968c0 .592-.116 1.104-.348 1.536-.224.432-.544.764-.96.996s-.908.348-1.476.348zm-.012-.9c.52 0 .944-.152 1.272-.456.328-.312.492-.82.492-1.524 0-.592-.148-1.044-.444-1.356-.288-.312-.716-.468-1.284-.468-.384 0-.724.08-1.02.24-.288.16-.512.364-.672.612s-.24.504-.24.768c0 .208.024.416.072.624.056.208.132.408.228.6.104.184.232.348.384.492s.328.26.528.348c.208.08.436.12.684.12z" fill="#8c8b87"/><path d="m293 206.085h-70v48h70z" fill="#64ccd3"/><path d="m239.365 231.925c0 .357-.046.675-.136.952-.091.277-.222.512-.392.704-.166.192-.368.339-.608.44-.24.096-.51.144-.808.144-.272 0-.526-.048-.76-.144-.235-.101-.438-.248-.608-.44-.171-.192-.304-.427-.4-.704-.091-.277-.136-.597-.136-.96 0-.475.077-.877.232-1.208.154-.331.376-.581.664-.752.293-.176.64-.264 1.04-.264.373 0 .704.088.992.264.288.171.512.421.672.752.165.331.248.736.248 1.216zm-2.952 0c0 .32.034.597.104.832.074.229.186.405.336.528.154.123.349.184.584.184.24 0 .434-.061.584-.184.154-.123.266-.299.336-.528.074-.235.112-.512.112-.832 0-.331-.038-.608-.112-.832-.075-.224-.187-.395-.336-.512-.15-.123-.347-.184-.592-.184-.358 0-.616.133-.776.4s-.24.643-.24 1.128zm6.049-2.232c.47 0 .83.125 1.08.376.256.251.384.653.384 1.208v2.808h-.864v-2.688c0-.336-.066-.587-.2-.752-.128-.171-.328-.256-.6-.256-.4 0-.674.131-.824.392-.149.261-.224.637-.224 1.128v2.176h-.864v-4.312h.68l.12.576h.048c.091-.149.2-.272.328-.368s.272-.168.432-.216.328-.072.504-.072zm5.086 4.392-1.568-4.856h-.032c.01.107.018.251.024.432.01.181.018.376.024.584.01.208.016.413.016.616v3.224h-.808v-5.712h1.248l1.504 4.584h.024l1.528-4.584h1.248v5.712h-.848v-3.272c0-.187.002-.379.008-.576.005-.203.013-.392.024-.568.01-.176.018-.32.024-.432h-.032l-1.608 4.848zm6.153-4.392c.507 0 .888.12 1.144.36.261.235.392.605.392 1.112v2.92h-.616l-.168-.6h-.032c-.123.155-.245.283-.368.384-.117.101-.256.176-.416.224-.155.048-.347.072-.576.072-.24 0-.456-.045-.648-.136-.192-.096-.344-.24-.456-.432-.112-.197-.168-.443-.168-.736 0-.437.155-.771.464-1 .315-.229.792-.355 1.432-.376l.688-.024v-.24c0-.32-.067-.544-.2-.672-.128-.128-.309-.192-.544-.192-.197 0-.392.032-.584.096s-.379.141-.56.232l-.264-.616c.197-.107.421-.195.672-.264.256-.075.525-.112.808-.112zm.152 2.336c-.437.021-.741.104-.912.248-.171.139-.256.336-.256.592 0 .224.059.387.176.488.123.101.28.152.472.152.293 0 .539-.093.736-.28.203-.187.304-.467.304-.84v-.376zm4.631-2.336c.07 0 .147.005.232.016.086.005.158.013.216.024l-.088.792c-.058-.016-.125-.029-.2-.04-.074-.011-.149-.016-.224-.016-.144 0-.282.032-.416.096-.133.059-.253.147-.36.264-.106.112-.192.251-.256.416s-.096.355-.096.568v2.272h-.864v-4.312h.68l.112.768h.048c.08-.155.179-.296.296-.424.123-.128.262-.229.416-.304.155-.08.323-.12.504-.12zm2.043 1.352c0 .112-.006.24-.016.384-.011.144-.022.277-.032.4h.032c.032-.053.074-.117.128-.192.058-.08.117-.16.176-.24.064-.08.122-.149.176-.208l1.208-1.416h.992l-1.608 1.848 1.712 2.464h-1.024l-1.28-1.928-.464.416v1.512h-.864v-6.08h.864zm3.505 3.04v-5.712h.888v4.968h2.272v.744zm5.614-4.392c.507 0 .888.12 1.144.36.262.235.392.605.392 1.112v2.92h-.616l-.168-.6h-.032c-.122.155-.245.283-.368.384-.117.101-.256.176-.416.224-.154.048-.346.072-.576.072-.24 0-.456-.045-.648-.136-.192-.096-.344-.24-.456-.432-.112-.197-.168-.443-.168-.736 0-.437.155-.771.464-1 .315-.229.792-.355 1.432-.376l.688-.024v-.24c0-.32-.066-.544-.2-.672-.128-.128-.309-.192-.544-.192-.197 0-.392.032-.584.096s-.378.141-.56.232l-.264-.616c.198-.107.422-.195.672-.264.256-.075.526-.112.808-.112zm.152 2.336c-.437.021-.741.104-.912.248-.17.139-.256.336-.256.592 0 .224.059.387.176.488.123.101.28.152.472.152.294 0 .539-.093.736-.28.203-.187.304-.467.304-.84v-.376zm3.44-2.56c0 .176-.006.344-.016.504-.006.155-.014.277-.024.368h.04c.112-.181.264-.333.456-.456.197-.123.448-.184.752-.184.485 0 .874.187 1.168.56.298.373.448.928.448 1.664 0 .496-.067.909-.2 1.24-.134.331-.323.581-.568.752-.246.165-.531.248-.856.248-.31 0-.56-.059-.752-.176-.187-.123-.336-.267-.448-.432h-.064l-.152.528h-.648v-6.08h.864zm.984.92c-.24 0-.432.053-.576.16s-.248.269-.312.488-.096.496-.096.832v.064c0 .496.069.877.208 1.144.144.261.41.392.8.392.304 0 .533-.133.688-.4.16-.267.24-.651.24-1.152 0-.507-.08-.888-.24-1.144-.155-.256-.392-.384-.712-.384zm4.463-.696c.358 0 .667.08.928.24.262.155.462.379.6.672.144.293.216.64.216 1.04v.464h-2.712c.011.443.118.781.32 1.016.203.235.488.352.856.352.262 0 .494-.024.696-.072.208-.053.419-.131.632-.232v.704c-.202.096-.41.168-.624.216-.208.048-.461.072-.76.072-.389 0-.736-.083-1.04-.248s-.541-.411-.712-.736c-.17-.331-.256-.736-.256-1.216 0-.485.078-.896.232-1.232.155-.336.371-.592.648-.768.283-.181.608-.272.976-.272zm0 .656c-.272 0-.49.099-.656.296-.165.197-.261.477-.288.84h1.832c0-.224-.032-.421-.096-.592s-.162-.304-.296-.4c-.128-.096-.293-.144-.496-.144zm3.576 3.736h-.864v-6.08h.864z" fill="#000"/><path d="m328.393 201.205c-.664 0-1.208-.176-1.632-.528s-.736-.856-.936-1.512c-.2-.664-.3-1.456-.3-2.376 0-.928.096-1.716.288-2.364.192-.656.496-1.156.912-1.5.424-.352.98-.528 1.668-.528.672 0 1.22.172 1.644.516.432.344.748.844.948 1.5s.3 1.448.3 2.376c0 .696-.056 1.316-.168 1.86-.104.544-.272 1.008-.504 1.392-.224.376-.52.664-.888.864s-.812.3-1.332.3zm-1.368-1.32-.708-.624 3.36-5.688.624.792zm1.368.372c.656 0 1.14-.28 1.452-.84.312-.568.468-1.444.468-2.628 0-.76-.068-1.392-.204-1.896-.136-.512-.348-.896-.636-1.152-.28-.264-.64-.396-1.08-.396-.432 0-.784.124-1.056.372s-.476.628-.612 1.14c-.128.504-.192 1.148-.192 1.932 0 1.112.14 1.968.42 2.568.288.6.768.9 1.44.9zm5.695.828 3.3-7.608h-4.668v-.96h5.76v.852l-3.252 7.716z" fill="#8c8b87"/><path d="m367 206.085h-70v48h70z" fill="#ffe885"/><path d="m313.365 231.925c0 .357-.046.675-.136.952-.091.277-.222.512-.392.704-.166.192-.368.339-.608.44-.24.096-.51.144-.808.144-.272 0-.526-.048-.76-.144-.235-.101-.438-.248-.608-.44-.171-.192-.304-.427-.4-.704-.091-.277-.136-.597-.136-.96 0-.475.077-.877.232-1.208.154-.331.376-.581.664-.752.293-.176.64-.264 1.04-.264.373 0 .704.088.992.264.288.171.512.421.672.752.165.331.248.736.248 1.216zm-2.952 0c0 .32.034.597.104.832.074.229.186.405.336.528.154.123.349.184.584.184.24 0 .434-.061.584-.184.154-.123.266-.299.336-.528.074-.235.112-.512.112-.832 0-.331-.038-.608-.112-.832-.075-.224-.187-.395-.336-.512-.15-.123-.347-.184-.592-.184-.358 0-.616.133-.776.4s-.24.643-.24 1.128zm6.049-2.232c.47 0 .83.125 1.08.376.256.251.384.653.384 1.208v2.808h-.864v-2.688c0-.336-.066-.587-.2-.752-.128-.171-.328-.256-.6-.256-.4 0-.674.131-.824.392-.149.261-.224.637-.224 1.128v2.176h-.864v-4.312h.68l.12.576h.048c.091-.149.2-.272.328-.368s.272-.168.432-.216.328-.072.504-.072zm5.086 4.392-1.568-4.856h-.032c.01.107.018.251.024.432.01.181.018.376.024.584.01.208.016.413.016.616v3.224h-.808v-5.712h1.248l1.504 4.584h.024l1.528-4.584h1.248v5.712h-.848v-3.272c0-.187.002-.379.008-.576.005-.203.013-.392.024-.568.01-.176.018-.32.024-.432h-.032l-1.608 4.848zm6.153-4.392c.507 0 .888.12 1.144.36.261.235.392.605.392 1.112v2.92h-.616l-.168-.6h-.032c-.123.155-.245.283-.368.384-.117.101-.256.176-.416.224-.155.048-.347.072-.576.072-.24 0-.456-.045-.648-.136-.192-.096-.344-.24-.456-.432-.112-.197-.168-.443-.168-.736 0-.437.155-.771.464-1 .315-.229.792-.355 1.432-.376l.688-.024v-.24c0-.32-.067-.544-.2-.672-.128-.128-.309-.192-.544-.192-.197 0-.392.032-.584.096s-.379.141-.56.232l-.264-.616c.197-.107.421-.195.672-.264.256-.075.525-.112.808-.112zm.152 2.336c-.437.021-.741.104-.912.248-.171.139-.256.336-.256.592 0 .224.059.387.176.488.123.101.28.152.472.152.293 0 .539-.093.736-.28.203-.187.304-.467.304-.84v-.376zm4.631-2.336c.07 0 .147.005.232.016.086.005.158.013.216.024l-.088.792c-.058-.016-.125-.029-.2-.04-.074-.011-.149-.016-.224-.016-.144 0-.282.032-.416.096-.133.059-.253.147-.36.264-.106.112-.192.251-.256.416s-.096.355-.096.568v2.272h-.864v-4.312h.68l.112.768h.048c.08-.155.179-.296.296-.424.123-.128.262-.229.416-.304.155-.08.323-.12.504-.12zm2.043 1.352c0 .112-.006.24-.016.384-.011.144-.022.277-.032.4h.032c.032-.053.074-.117.128-.192.058-.08.117-.16.176-.24.064-.08.122-.149.176-.208l1.208-1.416h.992l-1.608 1.848 1.712 2.464h-1.024l-1.28-1.928-.464.416v1.512h-.864v-6.08h.864zm3.505 3.04v-5.712h.888v4.968h2.272v.744zm5.614-4.392c.507 0 .888.12 1.144.36.262.235.392.605.392 1.112v2.92h-.616l-.168-.6h-.032c-.122.155-.245.283-.368.384-.117.101-.256.176-.416.224-.154.048-.346.072-.576.072-.24 0-.456-.045-.648-.136-.192-.096-.344-.24-.456-.432-.112-.197-.168-.443-.168-.736 0-.437.155-.771.464-1 .315-.229.792-.355 1.432-.376l.688-.024v-.24c0-.32-.066-.544-.2-.672-.128-.128-.309-.192-.544-.192-.197 0-.392.032-.584.096s-.378.141-.56.232l-.264-.616c.198-.107.422-.195.672-.264.256-.075.526-.112.808-.112zm.152 2.336c-.437.021-.741.104-.912.248-.17.139-.256.336-.256.592 0 .224.059.387.176.488.123.101.28.152.472.152.294 0 .539-.093.736-.28.203-.187.304-.467.304-.84v-.376zm3.44-2.56c0 .176-.006.344-.016.504-.006.155-.014.277-.024.368h.04c.112-.181.264-.333.456-.456.197-.123.448-.184.752-.184.485 0 .874.187 1.168.56.298.373.448.928.448 1.664 0 .496-.067.909-.2 1.24-.134.331-.323.581-.568.752-.246.165-.531.248-.856.248-.31 0-.56-.059-.752-.176-.187-.123-.336-.267-.448-.432h-.064l-.152.528h-.648v-6.08h.864zm.984.92c-.24 0-.432.053-.576.16s-.248.269-.312.488-.096.496-.096.832v.064c0 .496.069.877.208 1.144.144.261.41.392.8.392.304 0 .533-.133.688-.4.16-.267.24-.651.24-1.152 0-.507-.08-.888-.24-1.144-.155-.256-.392-.384-.712-.384zm4.463-.696c.358 0 .667.08.928.24.262.155.462.379.6.672.144.293.216.64.216 1.04v.464h-2.712c.011.443.118.781.32 1.016.203.235.488.352.856.352.262 0 .494-.024.696-.072.208-.053.419-.131.632-.232v.704c-.202.096-.41.168-.624.216-.208.048-.461.072-.76.072-.389 0-.736-.083-1.04-.248s-.541-.411-.712-.736c-.17-.331-.256-.736-.256-1.216 0-.485.078-.896.232-1.232.155-.336.371-.592.648-.768.283-.181.608-.272.976-.272zm0 .656c-.272 0-.49.099-.656.296-.165.197-.261.477-.288.84h1.832c0-.224-.032-.421-.096-.592s-.162-.304-.296-.4c-.128-.096-.293-.144-.496-.144zm3.576 3.736h-.864v-6.08h.864z" fill="#000"/></svg>