<svg width="366" height="150" viewBox="0 0 366 150" fill="none" xmlns="http://www.w3.org/2000/svg">
<rect x="0.5" y="0.5" width="365" height="149" rx="7.5" fill="white"/>
<rect x="0.5" y="0.5" width="365" height="149" rx="7.5" stroke="var(--sd-system-color-component-outline, #C8C7C2)"/>
<rect width="260" height="110" transform="translate(20 20)" fill="white"/>
<path d="M20 20L280 20" stroke="var(--sd-system-color-chart-component-scalemark, #D9D8D3)"/>
<path d="M20 41L280 41" stroke="var(--sd-system-color-chart-component-scalemark, #D9D8D3)"/>
<path d="M20 62L280 62" stroke="var(--sd-system-color-chart-component-scalemark, #D9D8D3)"/>
<path d="M20 83L280 83" stroke="var(--sd-system-color-chart-component-scalemark, #D9D8D3)"/>
<mask id="path-6-inside-1_4703_151620" fill="white">
<path d="M20 104H287V128H20V104Z"/>
</mask>
<path d="M20 104V105H287V104V103H20V104Z" fill="var(--sd-system-color-chart-component-scalemark, #D9D8D3)" mask="url(#path-6-inside-1_4703_151620)"/>
<path d="M32.5801 110.422V119H31.4961V111.775L29.3105 112.572V111.594L32.4102 110.422H32.5801ZM37.1797 110.469V119H36.0488V110.469H37.1797ZM40.7539 114.307V115.232H36.9336V114.307H40.7539ZM41.334 110.469V111.395H36.9336V110.469H41.334Z" fill="var(--sd-system-color-chart-component-onChartSurface, #696966)"/>
<path d="M61.6074 118.109V119H56.0234V118.221L58.8184 115.109C59.1621 114.727 59.4277 114.402 59.6152 114.137C59.8066 113.867 59.9395 113.627 60.0137 113.416C60.0918 113.201 60.1309 112.982 60.1309 112.76C60.1309 112.479 60.0723 112.225 59.9551 111.998C59.8418 111.768 59.6738 111.584 59.4512 111.447C59.2285 111.311 58.959 111.242 58.6426 111.242C58.2637 111.242 57.9473 111.316 57.6934 111.465C57.4434 111.609 57.2559 111.812 57.1309 112.074C57.0059 112.336 56.9434 112.637 56.9434 112.977H55.8594C55.8594 112.496 55.9648 112.057 56.1758 111.658C56.3867 111.26 56.6992 110.943 57.1133 110.709C57.5273 110.471 58.0371 110.352 58.6426 110.352C59.1816 110.352 59.6426 110.447 60.0254 110.639C60.4082 110.826 60.7012 111.092 60.9043 111.436C61.1113 111.775 61.2148 112.174 61.2148 112.631C61.2148 112.881 61.1719 113.135 61.0859 113.393C61.0039 113.646 60.8887 113.9 60.7402 114.154C60.5957 114.408 60.4258 114.658 60.2305 114.904C60.0391 115.15 59.834 115.393 59.6152 115.631L57.3301 118.109H61.6074ZM64.1797 110.469V119H63.0488V110.469H64.1797ZM67.7539 114.307V115.232H63.9336V114.307H67.7539ZM68.334 110.469V111.395H63.9336V110.469H68.334Z" fill="var(--sd-system-color-chart-component-onChartSurface, #696966)"/>
<path d="M84.5996 114.201H85.373C85.752 114.201 86.0645 114.139 86.3105 114.014C86.5605 113.885 86.7461 113.711 86.8672 113.492C86.9922 113.27 87.0547 113.02 87.0547 112.742C87.0547 112.414 87 112.139 86.8906 111.916C86.7812 111.693 86.6172 111.525 86.3984 111.412C86.1797 111.299 85.9023 111.242 85.5664 111.242C85.2617 111.242 84.9922 111.303 84.7578 111.424C84.5273 111.541 84.3457 111.709 84.2129 111.928C84.084 112.146 84.0195 112.404 84.0195 112.701H82.9355C82.9355 112.268 83.0449 111.873 83.2637 111.518C83.4824 111.162 83.7891 110.879 84.1836 110.668C84.582 110.457 85.043 110.352 85.5664 110.352C86.082 110.352 86.5332 110.443 86.9199 110.627C87.3066 110.807 87.6074 111.076 87.8223 111.436C88.0371 111.791 88.1445 112.234 88.1445 112.766C88.1445 112.98 88.0938 113.211 87.9922 113.457C87.8945 113.699 87.7402 113.926 87.5293 114.137C87.3223 114.348 87.0527 114.521 86.7207 114.658C86.3887 114.791 85.9902 114.857 85.5254 114.857H84.5996V114.201ZM84.5996 115.092V114.441H85.5254C86.0684 114.441 86.5176 114.506 86.873 114.635C87.2285 114.764 87.5078 114.936 87.7109 115.15C87.918 115.365 88.0625 115.602 88.1445 115.859C88.2305 116.113 88.2734 116.367 88.2734 116.621C88.2734 117.02 88.2051 117.373 88.0684 117.682C87.9355 117.99 87.7461 118.252 87.5 118.467C87.2578 118.682 86.9727 118.844 86.6445 118.953C86.3164 119.062 85.959 119.117 85.5723 119.117C85.2012 119.117 84.8516 119.064 84.5234 118.959C84.1992 118.854 83.9121 118.701 83.6621 118.502C83.4121 118.299 83.2168 118.051 83.0762 117.758C82.9355 117.461 82.8652 117.123 82.8652 116.744H83.9492C83.9492 117.041 84.0137 117.301 84.1426 117.523C84.2754 117.746 84.4629 117.92 84.7051 118.045C84.9512 118.166 85.2402 118.227 85.5723 118.227C85.9043 118.227 86.1895 118.17 86.4277 118.057C86.6699 117.939 86.8555 117.764 86.9844 117.529C87.1172 117.295 87.1836 117 87.1836 116.645C87.1836 116.289 87.1094 115.998 86.9609 115.771C86.8125 115.541 86.6016 115.371 86.3281 115.262C86.0586 115.148 85.7402 115.092 85.373 115.092H84.5996ZM91.1797 110.469V119H90.0488V110.469H91.1797ZM94.7539 114.307V115.232H90.9336V114.307H94.7539ZM95.334 110.469V111.395H90.9336V110.469H95.334Z" fill="var(--sd-system-color-chart-component-onChartSurface, #696966)"/>
<path d="M115.783 116.129V117.02H109.619V116.381L113.439 110.469H114.324L113.375 112.18L110.85 116.129H115.783ZM114.594 110.469V119H113.51V110.469H114.594ZM118.18 110.469V119H117.049V110.469H118.18ZM121.754 114.307V115.232H117.934V114.307H121.754ZM122.334 110.469V111.395H117.934V110.469H122.334Z" fill="var(--sd-system-color-chart-component-onChartSurface, #696966)"/>
<path d="M138.389 114.939L137.521 114.717L137.949 110.469H142.326V111.471H138.869L138.611 113.791C138.768 113.701 138.965 113.617 139.203 113.539C139.445 113.461 139.723 113.422 140.035 113.422C140.43 113.422 140.783 113.49 141.096 113.627C141.408 113.76 141.674 113.951 141.893 114.201C142.115 114.451 142.285 114.752 142.402 115.104C142.52 115.455 142.578 115.848 142.578 116.281C142.578 116.691 142.521 117.068 142.408 117.412C142.299 117.756 142.133 118.057 141.91 118.314C141.688 118.568 141.406 118.766 141.066 118.906C140.73 119.047 140.334 119.117 139.877 119.117C139.533 119.117 139.207 119.07 138.898 118.977C138.594 118.879 138.32 118.732 138.078 118.537C137.84 118.338 137.645 118.092 137.492 117.799C137.344 117.502 137.25 117.154 137.211 116.756H138.242C138.289 117.076 138.383 117.346 138.523 117.564C138.664 117.783 138.848 117.949 139.074 118.062C139.305 118.172 139.572 118.227 139.877 118.227C140.135 118.227 140.363 118.182 140.562 118.092C140.762 118.002 140.93 117.873 141.066 117.705C141.203 117.537 141.307 117.334 141.377 117.096C141.451 116.857 141.488 116.59 141.488 116.293C141.488 116.023 141.451 115.773 141.377 115.543C141.303 115.312 141.191 115.111 141.043 114.939C140.898 114.768 140.721 114.635 140.51 114.541C140.299 114.443 140.057 114.395 139.783 114.395C139.42 114.395 139.145 114.443 138.957 114.541C138.773 114.639 138.584 114.771 138.389 114.939ZM145.18 110.469V119H144.049V110.469H145.18ZM148.754 114.307V115.232H144.934V114.307H148.754ZM149.334 110.469V111.395H144.934V110.469H149.334Z" fill="var(--sd-system-color-chart-component-onChartSurface, #696966)"/>
<path d="M168.178 110.457H168.271V111.377H168.178C167.604 111.377 167.123 111.471 166.736 111.658C166.35 111.842 166.043 112.09 165.816 112.402C165.59 112.711 165.426 113.059 165.324 113.445C165.227 113.832 165.178 114.225 165.178 114.623V115.877C165.178 116.256 165.223 116.592 165.312 116.885C165.402 117.174 165.525 117.418 165.682 117.617C165.838 117.816 166.014 117.967 166.209 118.068C166.408 118.17 166.615 118.221 166.83 118.221C167.08 118.221 167.303 118.174 167.498 118.08C167.693 117.982 167.857 117.848 167.99 117.676C168.127 117.5 168.23 117.293 168.301 117.055C168.371 116.816 168.406 116.555 168.406 116.27C168.406 116.016 168.375 115.771 168.312 115.537C168.25 115.299 168.154 115.088 168.025 114.904C167.896 114.717 167.734 114.57 167.539 114.465C167.348 114.355 167.119 114.301 166.854 114.301C166.553 114.301 166.271 114.375 166.01 114.523C165.752 114.668 165.539 114.859 165.371 115.098C165.207 115.332 165.113 115.588 165.09 115.865L164.516 115.859C164.57 115.422 164.672 115.049 164.82 114.74C164.973 114.428 165.16 114.174 165.383 113.979C165.609 113.779 165.861 113.635 166.139 113.545C166.42 113.451 166.717 113.404 167.029 113.404C167.455 113.404 167.822 113.484 168.131 113.645C168.439 113.805 168.693 114.02 168.893 114.289C169.092 114.555 169.238 114.855 169.332 115.191C169.43 115.523 169.479 115.865 169.479 116.217C169.479 116.619 169.422 116.996 169.309 117.348C169.195 117.699 169.025 118.008 168.799 118.273C168.576 118.539 168.301 118.746 167.973 118.895C167.645 119.043 167.264 119.117 166.83 119.117C166.369 119.117 165.967 119.023 165.623 118.836C165.279 118.645 164.994 118.391 164.768 118.074C164.541 117.758 164.371 117.406 164.258 117.02C164.145 116.633 164.088 116.24 164.088 115.842V115.332C164.088 114.73 164.148 114.141 164.27 113.562C164.391 112.984 164.6 112.461 164.896 111.992C165.197 111.523 165.613 111.15 166.145 110.873C166.676 110.596 167.354 110.457 168.178 110.457ZM172.18 110.469V119H171.049V110.469H172.18ZM175.754 114.307V115.232H171.934V114.307H175.754ZM176.334 110.469V111.395H171.934V110.469H176.334Z" fill="var(--sd-system-color-chart-component-onChartSurface, #696966)"/>
<path d="M196.531 110.469V111.078L192.998 119H191.855L195.383 111.359H190.766V110.469H196.531ZM199.18 110.469V119H198.049V110.469H199.18ZM202.754 114.307V115.232H198.934V114.307H202.754ZM203.334 110.469V111.395H198.934V110.469H203.334Z" fill="var(--sd-system-color-chart-component-onChartSurface, #696966)"/>
<path d="M223.396 116.691C223.396 117.211 223.275 117.652 223.033 118.016C222.795 118.375 222.471 118.648 222.061 118.836C221.654 119.023 221.195 119.117 220.684 119.117C220.172 119.117 219.711 119.023 219.301 118.836C218.891 118.648 218.566 118.375 218.328 118.016C218.09 117.652 217.971 117.211 217.971 116.691C217.971 116.352 218.035 116.041 218.164 115.76C218.297 115.475 218.482 115.227 218.721 115.016C218.963 114.805 219.248 114.643 219.576 114.529C219.908 114.412 220.273 114.354 220.672 114.354C221.195 114.354 221.662 114.455 222.072 114.658C222.482 114.857 222.805 115.133 223.039 115.484C223.277 115.836 223.396 116.238 223.396 116.691ZM222.307 116.668C222.307 116.352 222.238 116.072 222.102 115.83C221.965 115.584 221.773 115.393 221.527 115.256C221.281 115.119 220.996 115.051 220.672 115.051C220.34 115.051 220.053 115.119 219.811 115.256C219.572 115.393 219.387 115.584 219.254 115.83C219.121 116.072 219.055 116.352 219.055 116.668C219.055 116.996 219.119 117.277 219.248 117.512C219.381 117.742 219.568 117.92 219.811 118.045C220.057 118.166 220.348 118.227 220.684 118.227C221.02 118.227 221.309 118.166 221.551 118.045C221.793 117.92 221.979 117.742 222.107 117.512C222.24 117.277 222.307 116.996 222.307 116.668ZM223.197 112.689C223.197 113.104 223.088 113.477 222.869 113.809C222.65 114.141 222.352 114.402 221.973 114.594C221.594 114.785 221.164 114.881 220.684 114.881C220.195 114.881 219.76 114.785 219.377 114.594C218.998 114.402 218.701 114.141 218.486 113.809C218.271 113.477 218.164 113.104 218.164 112.689C218.164 112.193 218.271 111.771 218.486 111.424C218.705 111.076 219.004 110.811 219.383 110.627C219.762 110.443 220.193 110.352 220.678 110.352C221.166 110.352 221.6 110.443 221.979 110.627C222.357 110.811 222.654 111.076 222.869 111.424C223.088 111.771 223.197 112.193 223.197 112.689ZM222.113 112.707C222.113 112.422 222.053 112.17 221.932 111.951C221.811 111.732 221.643 111.561 221.428 111.436C221.213 111.307 220.963 111.242 220.678 111.242C220.393 111.242 220.143 111.303 219.928 111.424C219.717 111.541 219.551 111.709 219.43 111.928C219.312 112.146 219.254 112.406 219.254 112.707C219.254 113 219.312 113.256 219.43 113.475C219.551 113.693 219.719 113.863 219.934 113.984C220.148 114.105 220.398 114.166 220.684 114.166C220.969 114.166 221.217 114.105 221.428 113.984C221.643 113.863 221.811 113.693 221.932 113.475C222.053 113.256 222.113 113 222.113 112.707ZM226.18 110.469V119H225.049V110.469H226.18ZM229.754 114.307V115.232H225.934V114.307H229.754ZM230.334 110.469V111.395H225.934V110.469H230.334Z" fill="var(--sd-system-color-chart-component-onChartSurface, #696966)"/>
<path d="M246.096 118.092H246.207C246.832 118.092 247.34 118.004 247.73 117.828C248.121 117.652 248.422 117.416 248.633 117.119C248.844 116.822 248.988 116.488 249.066 116.117C249.145 115.742 249.184 115.357 249.184 114.963V113.656C249.184 113.27 249.139 112.926 249.049 112.625C248.963 112.324 248.842 112.072 248.686 111.869C248.533 111.666 248.359 111.512 248.164 111.406C247.969 111.301 247.762 111.248 247.543 111.248C247.293 111.248 247.068 111.299 246.869 111.4C246.674 111.498 246.508 111.637 246.371 111.816C246.238 111.996 246.137 112.207 246.066 112.449C245.996 112.691 245.961 112.955 245.961 113.24C245.961 113.494 245.992 113.74 246.055 113.979C246.117 114.217 246.213 114.432 246.342 114.623C246.471 114.814 246.631 114.967 246.822 115.08C247.018 115.189 247.246 115.244 247.508 115.244C247.75 115.244 247.977 115.197 248.188 115.104C248.402 115.006 248.592 114.875 248.756 114.711C248.924 114.543 249.057 114.354 249.154 114.143C249.256 113.932 249.314 113.711 249.33 113.48H249.846C249.846 113.805 249.781 114.125 249.652 114.441C249.527 114.754 249.352 115.039 249.125 115.297C248.898 115.555 248.633 115.762 248.328 115.918C248.023 116.07 247.691 116.146 247.332 116.146C246.91 116.146 246.545 116.064 246.236 115.9C245.928 115.736 245.674 115.518 245.475 115.244C245.279 114.971 245.133 114.666 245.035 114.33C244.941 113.99 244.895 113.646 244.895 113.299C244.895 112.893 244.951 112.512 245.064 112.156C245.178 111.801 245.346 111.488 245.568 111.219C245.791 110.945 246.066 110.732 246.395 110.58C246.727 110.428 247.109 110.352 247.543 110.352C248.031 110.352 248.447 110.449 248.791 110.645C249.135 110.84 249.414 111.102 249.629 111.43C249.848 111.758 250.008 112.127 250.109 112.537C250.211 112.947 250.262 113.369 250.262 113.803V114.195C250.262 114.637 250.232 115.086 250.174 115.543C250.119 115.996 250.012 116.43 249.852 116.844C249.695 117.258 249.467 117.629 249.166 117.957C248.865 118.281 248.473 118.539 247.988 118.73C247.508 118.918 246.914 119.012 246.207 119.012H246.096V118.092ZM253.18 110.469V119H252.049V110.469H253.18ZM256.754 114.307V115.232H252.934V114.307H256.754ZM257.334 110.469V111.395H252.934V110.469H257.334Z" fill="var(--sd-system-color-chart-component-onChartSurface, #696966)"/>
<path d="M272.205 110.422V119H271.121V111.775L268.936 112.572V111.594L272.035 110.422H272.205ZM280.748 114.055V115.355C280.748 116.055 280.686 116.645 280.561 117.125C280.436 117.605 280.256 117.992 280.021 118.285C279.787 118.578 279.504 118.791 279.172 118.924C278.844 119.053 278.473 119.117 278.059 119.117C277.73 119.117 277.428 119.076 277.15 118.994C276.873 118.912 276.623 118.781 276.4 118.602C276.182 118.418 275.994 118.18 275.838 117.887C275.682 117.594 275.562 117.238 275.48 116.82C275.398 116.402 275.357 115.914 275.357 115.355V114.055C275.357 113.355 275.42 112.77 275.545 112.297C275.674 111.824 275.855 111.445 276.09 111.16C276.324 110.871 276.605 110.664 276.934 110.539C277.266 110.414 277.637 110.352 278.047 110.352C278.379 110.352 278.684 110.393 278.961 110.475C279.242 110.553 279.492 110.68 279.711 110.855C279.93 111.027 280.115 111.258 280.268 111.547C280.424 111.832 280.543 112.182 280.625 112.596C280.707 113.01 280.748 113.496 280.748 114.055ZM279.658 115.531V113.873C279.658 113.49 279.635 113.154 279.588 112.865C279.545 112.572 279.48 112.322 279.395 112.115C279.309 111.908 279.199 111.74 279.066 111.611C278.938 111.482 278.787 111.389 278.615 111.33C278.447 111.268 278.258 111.236 278.047 111.236C277.789 111.236 277.561 111.285 277.361 111.383C277.162 111.477 276.994 111.627 276.857 111.834C276.725 112.041 276.623 112.312 276.553 112.648C276.482 112.984 276.447 113.393 276.447 113.873V115.531C276.447 115.914 276.469 116.252 276.512 116.545C276.559 116.838 276.627 117.092 276.717 117.307C276.807 117.518 276.916 117.691 277.045 117.828C277.174 117.965 277.322 118.066 277.49 118.133C277.662 118.195 277.852 118.227 278.059 118.227C278.324 118.227 278.557 118.176 278.756 118.074C278.955 117.973 279.121 117.814 279.254 117.6C279.391 117.381 279.492 117.102 279.559 116.762C279.625 116.418 279.658 116.008 279.658 115.531ZM283.555 110.469V119H282.424V110.469H283.555ZM287.129 114.307V115.232H283.309V114.307H287.129ZM287.709 110.469V111.395H283.309V110.469H287.709Z" fill="var(--sd-system-color-chart-component-onChartSurface, #696966)"/>
<circle cx="34" cy="77" r="3" fill="var(--sd-system-color-chart-mark-multi-01, #0A69CF)"/>
<circle cx="61" cy="55" r="3" fill="var(--sd-system-color-chart-mark-multi-01, #0A69CF)"/>
<circle cx="88" cy="63" r="3" fill="var(--sd-system-color-chart-mark-multi-01, #0A69CF)"/>
<circle cx="115" cy="51" r="3" fill="var(--sd-system-color-chart-mark-multi-01, #0A69CF)"/>
<circle cx="142" cy="48" r="3" fill="var(--sd-system-color-chart-mark-multi-01, #0A69CF)"/>
<circle cx="169" cy="54" r="3" fill="var(--sd-system-color-chart-mark-multi-01, #0A69CF)"/>
<circle cx="196" cy="56" r="3" fill="var(--sd-system-color-chart-mark-multi-01, #0A69CF)"/>
<circle cx="223" cy="66" r="3" fill="var(--sd-system-color-chart-mark-multi-01, #0A69CF)"/>
<circle cx="250" cy="41" r="3" fill="var(--sd-system-color-chart-mark-multi-01, #0A69CF)"/>
<circle cx="277" cy="70" r="3" fill="var(--sd-system-color-chart-mark-multi-01, #0A69CF)"/>
<path d="M34 77L61 55L88 63L115.25 51L142.25 48L169.25 54L196.75 56.5L223.25 66L250.75 41L277.25 69.5" stroke="var(--sd-system-color-chart-mark-multi-01, #0A69CF)" stroke-width="2"/>
<path d="M34 57L61 65L88 43H115.25L142.25 63L169.25 34L196.75 47.5L223.25 46L250.75 61L277.25 49.5" stroke="var(--sd-system-color-chart-mark-multi-02, #6ED0AE)" stroke-width="2"/>
<circle cx="34" cy="57" r="2" fill="white" stroke="var(--sd-system-color-chart-mark-multi-02, #6ED0AE)" stroke-width="2"/>
<path d="M61 63C62.1046 63 63 63.8954 63 65C63 66.1046 62.1046 67 61 67C59.8954 67 59 66.1046 59 65C59 63.8954 59.8954 63 61 63Z" fill="white" stroke="var(--sd-system-color-chart-mark-multi-02, #6ED0AE)" stroke-width="2"/>
<circle cx="88" cy="43" r="2" fill="white" stroke="var(--sd-system-color-chart-mark-multi-02, #6ED0AE)" stroke-width="2"/>
<circle cx="115" cy="43" r="2" fill="white" stroke="var(--sd-system-color-chart-mark-multi-02, #6ED0AE)" stroke-width="2"/>
<circle cx="142" cy="62" r="2" fill="white" stroke="var(--sd-system-color-chart-mark-multi-02, #6ED0AE)" stroke-width="2"/>
<circle cx="169" cy="34" r="2" fill="white" stroke="var(--sd-system-color-chart-mark-multi-02, #6ED0AE)" stroke-width="2"/>
<circle cx="196" cy="47" r="2" fill="white" stroke="var(--sd-system-color-chart-mark-multi-02, #6ED0AE)" stroke-width="2"/>
<circle cx="223" cy="46" r="2" fill="white" stroke="var(--sd-system-color-chart-mark-multi-02, #6ED0AE)" stroke-width="2"/>
<path d="M250 58C251.105 58 252 58.8954 252 60C252 61.1046 251.105 62 250 62C248.895 62 248 61.1046 248 60C248 58.8954 248.895 58 250 58Z" fill="white" stroke="var(--sd-system-color-chart-mark-multi-02, #6ED0AE)" stroke-width="2"/>
<circle cx="277" cy="50" r="2" fill="white" stroke="var(--sd-system-color-chart-mark-multi-02, #6ED0AE)" stroke-width="2"/>
<path d="M33.5 47L61 37.5L88 80L115.25 67.5L142.25 83L169.25 92L196.75 78.5L223.25 87L250.75 78.5L278 83" stroke="var(--sd-system-color-chart-mark-multi-03, #FF8F8F)" stroke-width="2"/>
<rect x="31" y="44" width="6" height="6" fill="var(--sd-system-color-chart-mark-multi-03, #FF8F8F)"/>
<rect x="57" y="35" width="6" height="6" fill="var(--sd-system-color-chart-mark-multi-03, #FF8F8F)"/>
<rect x="85" y="76" width="6" height="6" fill="var(--sd-system-color-chart-mark-multi-03, #FF8F8F)"/>
<rect x="112" y="65" width="6" height="6" fill="var(--sd-system-color-chart-mark-multi-03, #FF8F8F)"/>
<rect x="139" y="80" width="6" height="6" fill="var(--sd-system-color-chart-mark-multi-03, #FF8F8F)"/>
<rect x="166" y="89" width="6" height="6" fill="var(--sd-system-color-chart-mark-multi-03, #FF8F8F)"/>
<rect x="194" y="76" width="6" height="6" fill="var(--sd-system-color-chart-mark-multi-03, #FF8F8F)"/>
<rect x="248" y="76" width="6" height="6" fill="var(--sd-system-color-chart-mark-multi-03, #FF8F8F)"/>
<rect x="274" y="80" width="6" height="6" fill="var(--sd-system-color-chart-mark-multi-03, #FF8F8F)"/>
<rect x="220" y="84.3164" width="6" height="6" fill="var(--sd-system-color-chart-mark-multi-03, #FF8F8F)"/>
<rect x="305.983" y="20.5078" width="10.9831" height="10.9831" transform="rotate(90 305.983 20.5078)" fill="var(--sd-system-color-chart-mark-multi-03, #FF8F8F)"/>
<path d="M315.809 29.0801V30H311.543V29.0801H315.809ZM311.766 21.4688V30H310.635V21.4688H311.766ZM318.117 23.6602V30H317.027V23.6602H318.117ZM316.945 21.9785C316.945 21.8027 316.998 21.6543 317.104 21.5332C317.213 21.4121 317.373 21.3516 317.584 21.3516C317.791 21.3516 317.949 21.4121 318.059 21.5332C318.172 21.6543 318.229 21.8027 318.229 21.9785C318.229 22.1465 318.172 22.291 318.059 22.4121C317.949 22.5293 317.791 22.5879 317.584 22.5879C317.373 22.5879 317.213 22.5293 317.104 22.4121C316.998 22.291 316.945 22.1465 316.945 21.9785ZM323.965 23.6602H324.949V29.8652C324.949 30.4238 324.836 30.9004 324.609 31.2949C324.383 31.6895 324.066 31.9883 323.66 32.1914C323.258 32.3984 322.793 32.502 322.266 32.502C322.047 32.502 321.789 32.4668 321.492 32.3965C321.199 32.3301 320.91 32.2148 320.625 32.0508C320.344 31.8906 320.107 31.6738 319.916 31.4004L320.484 30.7559C320.75 31.0762 321.027 31.2988 321.316 31.4238C321.609 31.5488 321.898 31.6113 322.184 31.6113C322.527 31.6113 322.824 31.5469 323.074 31.418C323.324 31.2891 323.518 31.0977 323.654 30.8438C323.795 30.5938 323.865 30.2852 323.865 29.918V25.0547L323.965 23.6602ZM319.6 26.9004V26.7773C319.6 26.293 319.656 25.8535 319.77 25.459C319.887 25.0605 320.053 24.7188 320.268 24.4336C320.486 24.1484 320.75 23.9297 321.059 23.7773C321.367 23.6211 321.715 23.543 322.102 23.543C322.5 23.543 322.848 23.6133 323.145 23.7539C323.445 23.8906 323.699 24.0918 323.906 24.3574C324.117 24.6191 324.283 24.9355 324.404 25.3066C324.525 25.6777 324.609 26.0977 324.656 26.5664V27.1055C324.613 27.5703 324.529 27.9883 324.404 28.3594C324.283 28.7305 324.117 29.0469 323.906 29.3086C323.699 29.5703 323.445 29.7715 323.145 29.9121C322.844 30.0488 322.492 30.1172 322.09 30.1172C321.711 30.1172 321.367 30.0371 321.059 29.877C320.754 29.7168 320.492 29.4922 320.273 29.2031C320.055 28.9141 319.887 28.5742 319.77 28.1836C319.656 27.7891 319.6 27.3613 319.6 26.9004ZM320.684 26.7773V26.9004C320.684 27.2168 320.715 27.5137 320.777 27.791C320.844 28.0684 320.943 28.3125 321.076 28.5234C321.213 28.7344 321.387 28.9004 321.598 29.0215C321.809 29.1387 322.061 29.1973 322.354 29.1973C322.713 29.1973 323.01 29.1211 323.244 28.9688C323.479 28.8164 323.664 28.6152 323.801 28.3652C323.941 28.1152 324.051 27.8438 324.129 27.5508V26.1387C324.086 25.9238 324.02 25.7168 323.93 25.5176C323.844 25.3145 323.73 25.1348 323.59 24.9785C323.453 24.8184 323.283 24.6914 323.08 24.5977C322.877 24.5039 322.639 24.457 322.365 24.457C322.068 24.457 321.812 24.5195 321.598 24.6445C321.387 24.7656 321.213 24.9336 321.076 25.1484C320.943 25.3594 320.844 25.6055 320.777 25.8867C320.715 26.1641 320.684 26.4609 320.684 26.7773ZM327.68 21V30H326.596V21H327.68ZM327.422 26.5898L326.971 26.5723C326.975 26.1387 327.039 25.7383 327.164 25.3711C327.289 25 327.465 24.6777 327.691 24.4043C327.918 24.1309 328.188 23.9199 328.5 23.7715C328.816 23.6191 329.166 23.543 329.549 23.543C329.861 23.543 330.143 23.5859 330.393 23.6719C330.643 23.7539 330.855 23.8867 331.031 24.0703C331.211 24.2539 331.348 24.4922 331.441 24.7852C331.535 25.0742 331.582 25.4277 331.582 25.8457V30H330.492V25.834C330.492 25.502 330.443 25.2363 330.346 25.0371C330.248 24.834 330.105 24.6875 329.918 24.5977C329.73 24.5039 329.5 24.457 329.227 24.457C328.957 24.457 328.711 24.5137 328.488 24.627C328.27 24.7402 328.08 24.8965 327.92 25.0957C327.764 25.2949 327.641 25.5234 327.551 25.7812C327.465 26.0352 327.422 26.3047 327.422 26.5898ZM335.859 23.6602V24.4922H332.432V23.6602H335.859ZM333.592 22.1191H334.676V28.4297C334.676 28.6445 334.709 28.8066 334.775 28.916C334.842 29.0254 334.928 29.0977 335.033 29.1328C335.139 29.168 335.252 29.1855 335.373 29.1855C335.463 29.1855 335.557 29.1777 335.654 29.1621C335.756 29.1426 335.832 29.127 335.883 29.1152L335.889 30C335.803 30.0273 335.689 30.0527 335.549 30.0762C335.412 30.1035 335.246 30.1172 335.051 30.1172C334.785 30.1172 334.541 30.0645 334.318 29.959C334.096 29.8535 333.918 29.6777 333.785 29.4316C333.656 29.1816 333.592 28.8457 333.592 28.4238V22.1191ZM338.309 23.6602V30H337.219V23.6602H338.309ZM337.137 21.9785C337.137 21.8027 337.189 21.6543 337.295 21.5332C337.404 21.4121 337.564 21.3516 337.775 21.3516C337.982 21.3516 338.141 21.4121 338.25 21.5332C338.363 21.6543 338.42 21.8027 338.42 21.9785C338.42 22.1465 338.363 22.291 338.25 22.4121C338.141 22.5293 337.982 22.5879 337.775 22.5879C337.564 22.5879 337.404 22.5293 337.295 22.4121C337.189 22.291 337.137 22.1465 337.137 21.9785ZM341.133 25.0137V30H340.049V23.6602H341.074L341.133 25.0137ZM340.875 26.5898L340.424 26.5723C340.428 26.1387 340.492 25.7383 340.617 25.3711C340.742 25 340.918 24.6777 341.145 24.4043C341.371 24.1309 341.641 23.9199 341.953 23.7715C342.27 23.6191 342.619 23.543 343.002 23.543C343.314 23.543 343.596 23.5859 343.846 23.6719C344.096 23.7539 344.309 23.8867 344.484 24.0703C344.664 24.2539 344.801 24.4922 344.895 24.7852C344.988 25.0742 345.035 25.4277 345.035 25.8457V30H343.945V25.834C343.945 25.502 343.896 25.2363 343.799 25.0371C343.701 24.834 343.559 24.6875 343.371 24.5977C343.184 24.5039 342.953 24.457 342.68 24.457C342.41 24.457 342.164 24.5137 341.941 24.627C341.723 24.7402 341.533 24.8965 341.373 25.0957C341.217 25.2949 341.094 25.5234 341.004 25.7812C340.918 26.0352 340.875 26.3047 340.875 26.5898ZM350.789 23.6602H351.773V29.8652C351.773 30.4238 351.66 30.9004 351.434 31.2949C351.207 31.6895 350.891 31.9883 350.484 32.1914C350.082 32.3984 349.617 32.502 349.09 32.502C348.871 32.502 348.613 32.4668 348.316 32.3965C348.023 32.3301 347.734 32.2148 347.449 32.0508C347.168 31.8906 346.932 31.6738 346.74 31.4004L347.309 30.7559C347.574 31.0762 347.852 31.2988 348.141 31.4238C348.434 31.5488 348.723 31.6113 349.008 31.6113C349.352 31.6113 349.648 31.5469 349.898 31.418C350.148 31.2891 350.342 31.0977 350.479 30.8438C350.619 30.5938 350.689 30.2852 350.689 29.918V25.0547L350.789 23.6602ZM346.424 26.9004V26.7773C346.424 26.293 346.48 25.8535 346.594 25.459C346.711 25.0605 346.877 24.7188 347.092 24.4336C347.311 24.1484 347.574 23.9297 347.883 23.7773C348.191 23.6211 348.539 23.543 348.926 23.543C349.324 23.543 349.672 23.6133 349.969 23.7539C350.27 23.8906 350.523 24.0918 350.73 24.3574C350.941 24.6191 351.107 24.9355 351.229 25.3066C351.35 25.6777 351.434 26.0977 351.48 26.5664V27.1055C351.438 27.5703 351.354 27.9883 351.229 28.3594C351.107 28.7305 350.941 29.0469 350.73 29.3086C350.523 29.5703 350.27 29.7715 349.969 29.9121C349.668 30.0488 349.316 30.1172 348.914 30.1172C348.535 30.1172 348.191 30.0371 347.883 29.877C347.578 29.7168 347.316 29.4922 347.098 29.2031C346.879 28.9141 346.711 28.5742 346.594 28.1836C346.48 27.7891 346.424 27.3613 346.424 26.9004ZM347.508 26.7773V26.9004C347.508 27.2168 347.539 27.5137 347.602 27.791C347.668 28.0684 347.768 28.3125 347.9 28.5234C348.037 28.7344 348.211 28.9004 348.422 29.0215C348.633 29.1387 348.885 29.1973 349.178 29.1973C349.537 29.1973 349.834 29.1211 350.068 28.9688C350.303 28.8164 350.488 28.6152 350.625 28.3652C350.766 28.1152 350.875 27.8438 350.953 27.5508V26.1387C350.91 25.9238 350.844 25.7168 350.754 25.5176C350.668 25.3145 350.555 25.1348 350.414 24.9785C350.277 24.8184 350.107 24.6914 349.904 24.5977C349.701 24.5039 349.463 24.457 349.189 24.457C348.893 24.457 348.637 24.5195 348.422 24.6445C348.211 24.7656 348.037 24.9336 347.9 25.1484C347.768 25.3594 347.668 25.6055 347.602 25.8867C347.539 26.1641 347.508 26.4609 347.508 26.7773Z" fill="var(--sd-system-color-chart-component-onChartSurface, #696966)"/>
<rect x="305.983" y="47.1523" width="10.9831" height="10.9831" rx="5.49153" transform="rotate(90 305.983 47.1523)" fill="var(--sd-system-color-chart-mark-multi-01, #0A69CF)"/>
<path d="M313.793 48.8691L310.969 56.6445H309.814L313.066 48.1133H313.811L313.793 48.8691ZM316.16 56.6445L313.33 48.8691L313.312 48.1133H314.057L317.32 56.6445H316.16ZM316.014 53.4863V54.4121H311.221V53.4863H316.014ZM322.107 55.1797V50.3047H323.197V56.6445H322.16L322.107 55.1797ZM322.312 53.8438L322.764 53.832C322.764 54.2539 322.719 54.6445 322.629 55.0039C322.543 55.3594 322.402 55.668 322.207 55.9297C322.012 56.1914 321.756 56.3965 321.439 56.5449C321.123 56.6895 320.738 56.7617 320.285 56.7617C319.977 56.7617 319.693 56.7168 319.436 56.627C319.182 56.5371 318.963 56.3984 318.779 56.2109C318.596 56.0234 318.453 55.7793 318.352 55.4785C318.254 55.1777 318.205 54.8164 318.205 54.3945V50.3047H319.289V54.4062C319.289 54.6914 319.32 54.9277 319.383 55.1152C319.449 55.2988 319.537 55.4453 319.646 55.5547C319.76 55.6602 319.885 55.7344 320.021 55.7773C320.162 55.8203 320.307 55.8418 320.455 55.8418C320.916 55.8418 321.281 55.7539 321.551 55.5781C321.82 55.3984 322.014 55.1582 322.131 54.8574C322.252 54.5527 322.312 54.2148 322.312 53.8438ZM328.846 55.4141V47.6445H329.936V56.6445H328.939L328.846 55.4141ZM324.58 53.5449V53.4219C324.58 52.9375 324.639 52.498 324.756 52.1035C324.877 51.7051 325.047 51.3633 325.266 51.0781C325.488 50.793 325.752 50.5742 326.057 50.4219C326.365 50.2656 326.709 50.1875 327.088 50.1875C327.486 50.1875 327.834 50.2578 328.131 50.3984C328.432 50.5352 328.686 50.7363 328.893 51.002C329.104 51.2637 329.27 51.5801 329.391 51.9512C329.512 52.3223 329.596 52.7422 329.643 53.2109V53.75C329.6 54.2148 329.516 54.6328 329.391 55.0039C329.27 55.375 329.104 55.6914 328.893 55.9531C328.686 56.2148 328.432 56.416 328.131 56.5566C327.83 56.6934 327.479 56.7617 327.076 56.7617C326.705 56.7617 326.365 56.6816 326.057 56.5215C325.752 56.3613 325.488 56.1367 325.266 55.8477C325.047 55.5586 324.877 55.2188 324.756 54.8281C324.639 54.4336 324.58 54.0059 324.58 53.5449ZM325.67 53.4219V53.5449C325.67 53.8613 325.701 54.1582 325.764 54.4355C325.83 54.7129 325.932 54.957 326.068 55.168C326.205 55.3789 326.379 55.5449 326.59 55.666C326.801 55.7832 327.053 55.8418 327.346 55.8418C327.705 55.8418 328 55.7656 328.23 55.6133C328.465 55.4609 328.652 55.2598 328.793 55.0098C328.934 54.7598 329.043 54.4883 329.121 54.1953V52.7832C329.074 52.5684 329.006 52.3613 328.916 52.1621C328.83 51.959 328.717 51.7793 328.576 51.623C328.439 51.4629 328.27 51.3359 328.066 51.2422C327.867 51.1484 327.631 51.1016 327.357 51.1016C327.061 51.1016 326.805 51.1641 326.59 51.2891C326.379 51.4102 326.205 51.5781 326.068 51.793C325.932 52.0039 325.83 52.25 325.764 52.5312C325.701 52.8086 325.67 53.1055 325.67 53.4219ZM332.801 50.3047V56.6445H331.711V50.3047H332.801ZM331.629 48.623C331.629 48.4473 331.682 48.2988 331.787 48.1777C331.896 48.0566 332.057 47.9961 332.268 47.9961C332.475 47.9961 332.633 48.0566 332.742 48.1777C332.855 48.2988 332.912 48.4473 332.912 48.623C332.912 48.791 332.855 48.9355 332.742 49.0566C332.633 49.1738 332.475 49.2324 332.268 49.2324C332.057 49.2324 331.896 49.1738 331.787 49.0566C331.682 48.9355 331.629 48.791 331.629 48.623ZM334.254 53.5449V53.4102C334.254 52.9531 334.32 52.5293 334.453 52.1387C334.586 51.7441 334.777 51.4023 335.027 51.1133C335.277 50.8203 335.58 50.5938 335.936 50.4336C336.291 50.2695 336.689 50.1875 337.131 50.1875C337.576 50.1875 337.977 50.2695 338.332 50.4336C338.691 50.5938 338.996 50.8203 339.246 51.1133C339.5 51.4023 339.693 51.7441 339.826 52.1387C339.959 52.5293 340.025 52.9531 340.025 53.4102V53.5449C340.025 54.002 339.959 54.4258 339.826 54.8164C339.693 55.207 339.5 55.5488 339.246 55.8418C338.996 56.1309 338.693 56.3574 338.338 56.5215C337.986 56.6816 337.588 56.7617 337.143 56.7617C336.697 56.7617 336.297 56.6816 335.941 56.5215C335.586 56.3574 335.281 56.1309 335.027 55.8418C334.777 55.5488 334.586 55.207 334.453 54.8164C334.32 54.4258 334.254 54.002 334.254 53.5449ZM335.338 53.4102V53.5449C335.338 53.8613 335.375 54.1602 335.449 54.4414C335.523 54.7188 335.635 54.9648 335.783 55.1797C335.936 55.3945 336.125 55.5645 336.352 55.6895C336.578 55.8105 336.842 55.8711 337.143 55.8711C337.439 55.8711 337.699 55.8105 337.922 55.6895C338.148 55.5645 338.336 55.3945 338.484 55.1797C338.633 54.9648 338.744 54.7188 338.818 54.4414C338.896 54.1602 338.936 53.8613 338.936 53.5449V53.4102C338.936 53.0977 338.896 52.8027 338.818 52.5254C338.744 52.2441 338.631 51.9961 338.479 51.7812C338.33 51.5625 338.143 51.3906 337.916 51.2656C337.693 51.1406 337.432 51.0781 337.131 51.0781C336.834 51.0781 336.572 51.1406 336.346 51.2656C336.123 51.3906 335.936 51.5625 335.783 51.7812C335.635 51.9961 335.523 52.2441 335.449 52.5254C335.375 52.8027 335.338 53.0977 335.338 53.4102Z" fill="var(--sd-system-color-chart-component-onChartSurface, #696966)"/>
<rect x="304.983" y="74.7969" width="8.98305" height="8.98305" rx="4.49153" transform="rotate(90 304.983 74.7969)" fill="white" stroke="var(--sd-system-color-chart-mark-multi-02, #6ED0AE)" stroke-width="2"/>
<path d="M313.793 75.5137L310.969 83.2891H309.814L313.066 74.7578H313.811L313.793 75.5137ZM316.16 83.2891L313.33 75.5137L313.312 74.7578H314.057L317.32 83.2891H316.16ZM316.014 80.1309V81.0566H311.221V80.1309H316.014ZM323.543 80.5762H324.668C324.609 81.1152 324.455 81.5977 324.205 82.0234C323.955 82.4492 323.602 82.7871 323.145 83.0371C322.688 83.2832 322.117 83.4062 321.434 83.4062C320.934 83.4062 320.479 83.3125 320.068 83.125C319.662 82.9375 319.312 82.6719 319.02 82.3281C318.727 81.9805 318.5 81.5645 318.34 81.0801C318.184 80.5918 318.105 80.0488 318.105 79.4512V78.6016C318.105 78.0039 318.184 77.4629 318.34 76.9785C318.5 76.4902 318.729 76.0723 319.025 75.7246C319.326 75.377 319.688 75.1094 320.109 74.9219C320.531 74.7344 321.006 74.6406 321.533 74.6406C322.178 74.6406 322.723 74.7617 323.168 75.0039C323.613 75.2461 323.959 75.582 324.205 76.0117C324.455 76.4375 324.609 76.9316 324.668 77.4941H323.543C323.488 77.0957 323.387 76.7539 323.238 76.4688C323.09 76.1797 322.879 75.957 322.605 75.8008C322.332 75.6445 321.975 75.5664 321.533 75.5664C321.154 75.5664 320.82 75.6387 320.531 75.7832C320.246 75.9277 320.006 76.1328 319.811 76.3984C319.619 76.6641 319.475 76.9824 319.377 77.3535C319.279 77.7246 319.23 78.1367 319.23 78.5898V79.4512C319.23 79.8691 319.273 80.2617 319.359 80.6289C319.449 80.9961 319.584 81.3184 319.764 81.5957C319.943 81.873 320.172 82.0918 320.449 82.252C320.727 82.4082 321.055 82.4863 321.434 82.4863C321.914 82.4863 322.297 82.4102 322.582 82.2578C322.867 82.1055 323.082 81.8867 323.227 81.6016C323.375 81.3164 323.48 80.9746 323.543 80.5762Z" fill="var(--sd-system-color-chart-component-onChartSurface, #696966)"/>
</svg>
