<svg xmlns="http://www.w3.org/2000/svg" width="366" height="151" fill="none" viewBox="0 0 366 151"><rect width="365" height="149" x=".5" y="1.183" fill="#fff" rx="7.5"/><rect width="365" height="149" x=".5" y="1.183" stroke="var(--colors-sd-system-color-component-outline)" rx="7.5"/><path fill="#fff" d="M20 20.683h260v110H20z"/><path stroke="var(--colors-sd-system-color-chart-component-scalemark)" d="M20 20.683h260m-260 21h260m-260 21h260m-260 21h260"/><mask id="a" fill="#fff"><path d="M20 104.683h267v24H20z"/></mask><path fill="var(--colors-sd-system-color-chart-component-scalemark)" d="M20 104.683v1h267v-2H20z" mask="url(#a)"/><path fill="var(--colors-sd-system-color-chart-component-on-chart-surface)" d="M32.58 111.104v8.579h-1.084v-7.225l-2.185.797v-.979l3.1-1.172zm4.6.047v8.532h-1.131v-8.532zm3.574 3.838v.926h-3.82v-.926zm.58-3.838v.926h-4.4v-.926zm20.273 7.641v.891h-5.584v-.78l2.795-3.111q.516-.574.797-.973.288-.404.399-.72a1.9 1.9 0 0 0 .117-.657 1.6 1.6 0 0 0-.176-.761 1.3 1.3 0 0 0-.504-.551q-.334-.205-.808-.205-.57 0-.95.222-.375.217-.562.61a2.1 2.1 0 0 0-.188.902H55.86q0-.72.317-1.318.316-.598.937-.949.621-.358 1.53-.358.809 0 1.382.287.574.281.88.797.31.51.31 1.195a2.4 2.4 0 0 1-.13.762 4 4 0 0 1-.345.762 6 6 0 0 1-.51.75q-.286.369-.615.726l-2.285 2.479zm2.573-7.641v8.532h-1.131v-8.532zm3.574 3.838v.926h-3.82v-.926zm.58-3.838v.926h-4.4v-.926zm16.266 3.733h.773q.568 0 .938-.188.375-.193.556-.521.188-.335.188-.75 0-.493-.164-.826a1.1 1.1 0 0 0-.493-.504q-.327-.17-.832-.17-.456 0-.808.181a1.34 1.34 0 0 0-.545.504 1.5 1.5 0 0 0-.194.774h-1.084q0-.65.329-1.184.327-.533.92-.849.597-.317 1.382-.317.774 0 1.354.276.58.269.902.808.322.534.322 1.33 0 .323-.152.692a2.05 2.05 0 0 1-.463.679 2.4 2.4 0 0 1-.808.522q-.498.2-1.196.199H84.6zm0 .89v-.65h.925q.815 0 1.348.193t.838.516q.311.322.433.709.13.381.13.762 0 .597-.206 1.06a2.15 2.15 0 0 1-.568.785 2.4 2.4 0 0 1-.856.487 3.4 3.4 0 0 1-1.072.164q-.555 0-1.049-.158a2.7 2.7 0 0 1-.86-.457 2.15 2.15 0 0 1-.587-.745 2.3 2.3 0 0 1-.21-1.013h1.083q0 .445.194.779.198.335.562.522.369.181.867.181t.856-.17q.363-.176.556-.527.2-.351.2-.885 0-.532-.223-.873-.223-.345-.633-.51a2.5 2.5 0 0 0-.955-.17zm6.58-4.623v8.532h-1.131v-8.532zm3.574 3.838v.926h-3.82v-.926zm.58-3.838v.926h-4.4v-.926zm20.449 5.661v.89h-6.164v-.639l3.82-5.912h.885l-.949 1.711-2.525 3.95zm-1.189-5.661v8.532h-1.084v-8.532zm3.586 0v8.532h-1.131v-8.532zm3.574 3.838v.926h-3.82v-.926zm.58-3.838v.926h-4.4v-.926zm16.055 4.471-.868-.223.428-4.248h4.377v1.002h-3.457l-.258 2.321q.235-.135.592-.252.363-.117.832-.118.592 0 1.061.206.468.198.797.574.333.375.509.902.176.528.176 1.178 0 .615-.17 1.131a2.5 2.5 0 0 1-.498.902 2.24 2.24 0 0 1-.844.592q-.504.21-1.189.211-.516 0-.979-.141a2.5 2.5 0 0 1-.82-.439 2.4 2.4 0 0 1-.586-.739 3 3 0 0 1-.281-1.043h1.031q.07.481.281.809t.551.498q.346.164.803.164.387 0 .685-.135.3-.134.504-.386.206-.252.311-.61a2.7 2.7 0 0 0 .111-.802q0-.405-.111-.75a1.7 1.7 0 0 0-.334-.604 1.45 1.45 0 0 0-.533-.398 1.7 1.7 0 0 0-.727-.147q-.544 0-.826.147-.276.146-.568.398m6.791-4.471v8.532h-1.131v-8.532zm3.574 3.838v.926h-3.82v-.926zm.58-3.838v.926h-4.4v-.926zm18.844-.011h.093v.92h-.093q-.861 0-1.442.281a2.36 2.36 0 0 0-.92.744q-.339.463-.492 1.043a4.8 4.8 0 0 0-.146 1.178v1.254q0 .567.134 1.007.135.434.37.733.234.298.527.451.298.153.621.152.375 0 .668-.14a1.4 1.4 0 0 0 .492-.405q.205-.263.311-.621.105-.357.105-.785 0-.381-.094-.732a2 2 0 0 0-.287-.633 1.36 1.36 0 0 0-1.171-.604q-.452 0-.844.223a1.9 1.9 0 0 0-.639.574 1.55 1.55 0 0 0-.281.768l-.574-.006a3.6 3.6 0 0 1 .304-1.119q.229-.47.563-.762.339-.299.756-.433.422-.141.89-.141.639 0 1.102.24.462.24.762.645.298.398.439.902.147.498.147 1.025 0 .605-.17 1.131-.171.528-.51.926a2.3 2.3 0 0 1-.826.621 2.7 2.7 0 0 1-1.143.223q-.691 0-1.207-.281a2.6 2.6 0 0 1-.855-.762 3.5 3.5 0 0 1-.51-1.055 4.2 4.2 0 0 1-.17-1.178v-.509q0-.903.182-1.77a4.7 4.7 0 0 1 .626-1.57 3.2 3.2 0 0 1 1.249-1.119q.797-.416 2.033-.416m4.002.011v8.532h-1.131v-8.532zm3.574 3.838v.926h-3.82v-.926zm.58-3.838v.926h-4.4v-.926zm20.197 0v.61l-3.533 7.922h-1.143l3.528-7.641h-4.617v-.891zm2.649 0v8.532h-1.131v-8.532zm3.574 3.838v.926h-3.82v-.926zm.58-3.838v.926h-4.4v-.926zm20.062 6.223q0 .78-.363 1.324-.357.54-.972.821a3.3 3.3 0 0 1-1.377.281q-.768 0-1.383-.281a2.27 2.27 0 0 1-.973-.821q-.357-.544-.357-1.324 0-.51.193-.932.199-.427.557-.744.363-.316.855-.486a3.3 3.3 0 0 1 1.096-.176q.785 0 1.4.305.615.298.967.826.357.528.357 1.207m-1.089-.023a1.7 1.7 0 0 0-.205-.838 1.46 1.46 0 0 0-.575-.575 1.74 1.74 0 0 0-.855-.205 1.73 1.73 0 0 0-.861.205 1.43 1.43 0 0 0-.557.575 1.7 1.7 0 0 0-.199.838q0 .492.193.843.199.346.563.534.369.181.873.181t.867-.181q.363-.188.556-.534.2-.351.2-.843m.89-3.979q0 .621-.328 1.119a2.3 2.3 0 0 1-.896.785 2.8 2.8 0 0 1-1.289.287q-.733 0-1.307-.287a2.23 2.23 0 0 1-.891-.785 2 2 0 0 1-.322-1.119q0-.744.322-1.266.329-.521.897-.796.568-.276 1.295-.276.732 0 1.301.276.567.275.89.796.328.522.328 1.266m-1.084.018q0-.428-.181-.756a1.33 1.33 0 0 0-.504-.516 1.43 1.43 0 0 0-.75-.193q-.428 0-.75.181a1.27 1.27 0 0 0-.498.504 1.6 1.6 0 0 0-.176.78q0 .439.176.767.181.329.504.51.321.182.75.182.427 0 .744-.182.322-.181.504-.51.181-.328.181-.767m4.067-2.239v8.532h-1.131v-8.532zm3.574 3.838v.926h-3.82v-.926zm.58-3.838v.926h-4.4v-.926zm15.762 7.623h.111q.938 0 1.523-.263.586-.264.903-.709a2.65 2.65 0 0 0 .433-1.002q.118-.563.118-1.154v-1.307q0-.58-.135-1.031a2.2 2.2 0 0 0-.363-.756 1.6 1.6 0 0 0-.522-.463 1.3 1.3 0 0 0-.621-.158q-.375 0-.674.152a1.4 1.4 0 0 0-.498.416q-.199.27-.305.633a2.8 2.8 0 0 0-.105.791q0 .381.094.738.093.357.287.645.194.286.48.457.293.164.686.164.363 0 .68-.141a1.94 1.94 0 0 0 .966-.961q.153-.316.176-.662h.516q0 .486-.194.961-.187.47-.527.855a2.7 2.7 0 0 1-.797.622 2.2 2.2 0 0 1-.996.228q-.633 0-1.096-.246a2.2 2.2 0 0 1-.761-.656 3 3 0 0 1-.44-.914 4 4 0 0 1-.14-1.032q0-.61.169-1.142.171-.534.504-.938.334-.41.827-.638a2.7 2.7 0 0 1 1.148-.229q.732 0 1.248.293t.838.785q.328.492.48 1.108.153.615.153 1.265v.393q0 .662-.088 1.348a5.4 5.4 0 0 1-.322 1.3 3.4 3.4 0 0 1-.686 1.114q-.451.486-1.178.773-.72.281-1.781.281h-.111zm7.084-7.623v8.532h-1.131v-8.532zm3.574 3.838v.926h-3.82v-.926zm.58-3.838v.926h-4.4v-.926zm14.871-.047v8.579h-1.084v-7.225l-2.185.797v-.979l3.099-1.172zm8.543 3.633v1.301q0 1.049-.187 1.77-.187.72-.54 1.16a2.04 2.04 0 0 1-.849.638 3 3 0 0 1-1.113.194q-.493 0-.909-.123a2.2 2.2 0 0 1-.75-.393 2.4 2.4 0 0 1-.562-.715 3.8 3.8 0 0 1-.358-1.066 7.7 7.7 0 0 1-.123-1.465v-1.301q0-1.048.188-1.758.193-.708.545-1.136.35-.433.844-.621a3.1 3.1 0 0 1 1.113-.188q.498 0 .914.123.422.117.75.381.328.258.557.691.234.428.357 1.049t.123 1.459m-1.09 1.477v-1.658q0-.574-.07-1.008a3.2 3.2 0 0 0-.193-.75 1.5 1.5 0 0 0-.329-.504 1.14 1.14 0 0 0-.451-.281 1.6 1.6 0 0 0-.568-.094 1.55 1.55 0 0 0-.686.146 1.24 1.24 0 0 0-.504.452 2.4 2.4 0 0 0-.304.814 6 6 0 0 0-.106 1.225v1.658q0 .575.065 1.014.07.439.205.761.135.316.328.522.193.204.445.304.258.094.569.094.398 0 .697-.152.298-.153.498-.475a2.5 2.5 0 0 0 .305-.838q.099-.515.099-1.23m3.897-5.063v8.532h-1.131v-8.532zm3.574 3.838v.926h-3.82v-.926zm.58-3.838v.926h-4.4v-.926z"/><circle cx="34" cy="77.683" r="3" fill="var(--colors-sd-system-color-chart-mark-primary-05)"/><circle cx="61" cy="55.683" r="3" fill="var(--colors-sd-system-color-chart-mark-primary-05)"/><circle cx="88" cy="63.683" r="3" fill="var(--colors-sd-system-color-chart-mark-primary-05)"/><circle cx="115" cy="51.683" r="3" fill="var(--colors-sd-system-color-chart-mark-primary-05)"/><circle cx="142" cy="48.683" r="3" fill="var(--colors-sd-system-color-chart-mark-primary-05)"/><circle cx="169" cy="54.683" r="3" fill="var(--colors-sd-system-color-chart-mark-primary-05)"/><circle cx="196" cy="56.683" r="3" fill="var(--colors-sd-system-color-chart-mark-primary-05)"/><circle cx="223" cy="66.683" r="3" fill="var(--colors-sd-system-color-chart-mark-primary-05)"/><circle cx="250" cy="41.683" r="3" fill="var(--colors-sd-system-color-chart-mark-primary-05)"/><circle cx="277" cy="70.683" r="3" fill="var(--colors-sd-system-color-chart-mark-primary-05)"/><path stroke="var(--colors-sd-system-color-chart-mark-primary-05)" stroke-width="2" d="m34 77.683 27-22 27 8 27.25-12 27-3 27 6 27.5 2.5 26.5 9.5 27.5-25 26.5 28.5"/><path stroke="var(--colors-sd-system-color-chart-mark-multi-02)" stroke-width="2" d="m34 57.683 27 8 27-22h27.25l27 20 27-29 27.5 13.5 26.5-1.5 27.5 15 26.5-11.5"/><circle cx="34" cy="57.683" r="2" fill="#fff" stroke="var(--colors-sd-system-color-chart-mark-multi-02)" stroke-width="2"/><path fill="#fff" stroke="var(--colors-sd-system-color-chart-mark-multi-02)" stroke-width="2" d="M61 63.683a2 2 0 1 1 0 4 2 2 0 0 1 0-4Z"/><circle cx="88" cy="43.683" r="2" fill="#fff" stroke="var(--colors-sd-system-color-chart-mark-multi-02)" stroke-width="2"/><circle cx="115" cy="43.683" r="2" fill="#fff" stroke="var(--colors-sd-system-color-chart-mark-multi-02)" stroke-width="2"/><circle cx="142" cy="62.683" r="2" fill="#fff" stroke="var(--colors-sd-system-color-chart-mark-multi-02)" stroke-width="2"/><circle cx="169" cy="34.683" r="2" fill="#fff" stroke="var(--colors-sd-system-color-chart-mark-multi-02)" stroke-width="2"/><circle cx="196" cy="47.683" r="2" fill="#fff" stroke="var(--colors-sd-system-color-chart-mark-multi-02)" stroke-width="2"/><circle cx="223" cy="46.683" r="2" fill="#fff" stroke="var(--colors-sd-system-color-chart-mark-multi-02)" stroke-width="2"/><path fill="#fff" stroke="var(--colors-sd-system-color-chart-mark-multi-02)" stroke-width="2" d="M250 58.683a2 2 0 1 1 0 3.999 2 2 0 0 1 0-4Z"/><circle cx="277" cy="50.683" r="2" fill="#fff" stroke="var(--colors-sd-system-color-chart-mark-multi-02)" stroke-width="2"/><path stroke="var(--colors-sd-system-color-chart-mark-multi-03)" stroke-width="2" d="m33.5 47.683 27.5-9.5 27 42.5 27.25-12.5 27 15.5 27 9 27.5-13.5 26.5 8.5 27.5-8.5 27.25 4.5"/><path fill="var(--colors-sd-system-color-chart-mark-multi-03)" d="M31 44.683h6v6h-6zm26-9h6v6h-6zm28 41h6v6h-6zm27-11h6v6h-6zm27 15h6v6h-6zm27 9h6v6h-6zm28-13h6v6h-6zm54 0h6v6h-6zm26 4h6v6h-6zM220 85h6v6h-6zm97.983-63.809v10.983H307V21.191z"/><path fill="var(--colors-sd-system-color-chart-component-on-chart-surface)" d="M322.761 21.119h.852v7.488h-.852zm.456 0h3.036v6.876h-3.036v-.816h2.196v-5.256h-2.196zm-.012 2.916h2.64v.792h-2.64zm3.576-2.94h5.376v.804h-5.376zm5.088 0h.864l-.012.132q0 .132-.012.216a21 21 0 0 1-.12 1.428q-.06.552-.156.864-.084.3-.204.444a.84.84 0 0 1-.312.204q-.168.06-.396.084-.204.012-.576.012t-.792-.024a1.8 1.8 0 0 0-.072-.372 1.5 1.5 0 0 0-.156-.372q.396.036.732.048h.48q.12 0 .204-.012a.33.33 0 0 0 .156-.084q.096-.096.156-.348a7 7 0 0 0 .108-.768q.06-.504.108-1.32zm-3 .252h.888q-.072.66-.252 1.212a3.3 3.3 0 0 1-.492.984 3.1 3.1 0 0 1-.828.768q-.516.336-1.284.576a2 2 0 0 0-.228-.36 1.6 1.6 0 0 0-.276-.312 5.3 5.3 0 0 0 1.14-.468q.456-.264.72-.612a2.8 2.8 0 0 0 .408-.804q.144-.444.204-.984m-.888 4.452v1.824h3.516v-1.824zm-.84-.756h5.244v3.336h-5.244zm-1.416 4.14.828-.084q.12.576.204 1.248t.096 1.116l-.876.132q0-.3-.036-.72a44 44 0 0 0-.084-.852 8 8 0 0 0-.132-.84m2.568-.036.84-.156q.168.384.324.816.156.42.276.84.12.408.18.732l-.888.192q-.06-.312-.168-.732t-.252-.864a9 9 0 0 0-.312-.828m2.448-.06.816-.336q.288.384.588.852.312.456.564.9.264.432.408.78l-.852.384a8 8 0 0 0-.396-.804q-.24-.444-.54-.912t-.588-.864m-7.008-.252.864.252a20 20 0 0 1-.744 1.392q-.42.708-.828 1.224l-.864-.384q.276-.3.564-.708.288-.42.552-.876t.456-.9m11.376-7.5h3.432v7.164h-3.432v-.84h2.592v-5.496h-2.592zm0 3.12h2.964v.816h-2.964zm5.076-3.336h4.044v.84h-4.044zm0 2.916h4.044v.816h-4.044zm-.084 2.94h4.104v.816h-4.104zm-5.496-5.64h.852v8.292h-.852zm9.288-.216h.888v9.336q0 .42-.12.648a.66.66 0 0 1-.396.348q-.3.108-.804.132-.504.036-1.284.036a1.3 1.3 0 0 0-.072-.288 3 3 0 0 0-.12-.324 2 2 0 0 0-.132-.276q.396.012.744.012.36.012.624 0h.372q.168 0 .228-.06.072-.072.072-.228zm-4.236 0h.876v4.284q0 .756-.084 1.608a9 9 0 0 1-.336 1.692q-.24.84-.732 1.62a5.4 5.4 0 0 1-1.308 1.404q-.06-.096-.18-.216t-.252-.24a2 2 0 0 0-.228-.168 4.9 4.9 0 0 0 1.212-1.272q.444-.708.672-1.464a7.2 7.2 0 0 0 .288-1.512q.072-.756.072-1.464z"/><rect width="10.983" height="10.983" x="317.983" y="47.836" fill="var(--colors-sd-system-color-chart-mark-primary-05)" rx="5.492" transform="rotate(90 317.983 47.836)"/><path fill="var(--colors-sd-system-color-chart-component-on-chart-surface)" d="M322.989 48.34h9.42v.815h-9.42zm-.684 2.82h10.692v.815h-10.692zm2.208 3.887h6.348v.72h-6.348zm.012 2.028h6.348v.768h-6.348zm2.628-9.828h.936v1.548h-.936zm-3.084 5.772h7.32v5.244h-.936v-4.476h-5.496V58.3h-.888zm5.796-3.9.972.24q-.24.48-.504.996a10 10 0 0 1-.48.864l-.828-.228a9 9 0 0 0 .3-.576q.156-.336.3-.672.144-.348.24-.624m-5.22.24.852-.192q.288.42.504.936.216.504.288.876l-.924.24a5 5 0 0 0-.276-.912 5.5 5.5 0 0 0-.444-.948m13.644-.66h2.688v.528h-2.688zm-2.784 4.068h8.496v.612h-8.496zm.96 3.648h6.336v.468h-6.336zm0 1.02h6.336v.528h-6.336zm-2.196-3.216h10.764v.636h-10.764zm-.192-3.444q.6-.036 1.392-.096.804-.072 1.68-.144l.012.588q-.792.096-1.548.18l-1.392.156zm3.336.708q.696-.06 1.644-.156.96-.096 1.98-.204l.024.588q-.936.132-1.848.252-.9.108-1.632.204zm-.252-1.62.708.108a4.1 4.1 0 0 1-.708 1.428q-.48.612-1.14 1.056a7.5 7.5 0 0 1-1.416.756 3 3 0 0 0-.132-.18 1.5 1.5 0 0 0-.168-.228 2 2 0 0 0-.156-.18 5.7 5.7 0 0 0 1.908-1.032 3.5 3.5 0 0 0 1.104-1.728m7.164-2.232h.12l.12-.048.54.288a15 15 0 0 1-.48.864q-.252.42-.504.828.516.396.744.756.24.36.252.684 0 .312-.12.54a.85.85 0 0 1-.336.336.8.8 0 0 1-.24.12q-.144.036-.276.048-.18.012-.432.024-.252 0-.492-.012a1.4 1.4 0 0 0-.072-.324 1 1 0 0 0-.168-.324l.48.024q.228 0 .384-.012.096 0 .18-.012a2 2 0 0 0 .144-.048q.24-.12.216-.444 0-.252-.252-.552-.24-.3-.792-.672.312-.552.552-1.056.252-.504.432-.912zm-10.104 1.212.408-.504q.288.192.588.432.3.228.564.468.276.24.432.42l-.42.588a3.5 3.5 0 0 0-.42-.444 9 9 0 0 0-.576-.504q-.3-.252-.576-.456m1.62-1.608.672.264q-.288.444-.612.9-.324.444-.612.78l-.516-.24q.18-.228.384-.528a10 10 0 0 0 .684-1.176m.996.984.66.3q-.312.444-.696.936-.384.48-.768.924-.372.444-.72.78l-.528-.264q.348-.348.72-.816.384-.468.732-.96.36-.492.6-.9m5.1-.588h2.616v.66h-1.872v4.284h-.744zm-3.936 0h.72v4.116h-.72zm.3 0h3.024v2.688h-3.024v-.552h2.292v-1.596h-2.292zm.864 4.44h.864v1.068h-.864zm-3.168 3.276h7.428v2.928h-.864v-2.4h-5.736V58.3h-.828zm1.056-1.824.72-.252q.204.192.384.444.18.24.24.444l-.744.264a1.6 1.6 0 0 0-.24-.456 3 3 0 0 0-.36-.444m2.808-2.844.528-.312q.42.324.816.768.408.432.588.768l-.564.36a3.6 3.6 0 0 0-.576-.792 7.4 7.4 0 0 0-.792-.792m1.692 2.508.816.276q-.228.288-.456.564a9 9 0 0 1-.396.456l-.636-.24a10 10 0 0 0 .36-.528q.204-.312.312-.528"/><rect width="8.983" height="8.983" x="316.983" y="75.48" fill="#fff" stroke="var(--colors-sd-system-color-chart-mark-multi-02)" stroke-width="2" rx="4.492" transform="rotate(90 316.983 75.48)"/><path fill="var(--colors-sd-system-color-chart-component-on-chart-surface)" d="M327.153 73.89h.924v1.8h-.924zm0 6.985h.924v3.324h-.924zm-1.332-5.04h.936a8.6 8.6 0 0 1-.3 1.5q-.204.66-.624 1.164-.408.504-1.116.876-.696.36-1.788.612a1 1 0 0 0-.12-.252 2 2 0 0 0-.168-.276 1.2 1.2 0 0 0-.204-.24q.996-.192 1.62-.48.636-.3.996-.708.36-.42.528-.96a6.6 6.6 0 0 0 .24-1.236m2.676-.024h.888v2.544q0 .216.096.276t.42.06h1.548q.18 0 .264-.06.096-.072.132-.276.048-.216.06-.636.096.072.228.132a4 4 0 0 0 .564.192q-.048.564-.168.876t-.348.444q-.228.12-.636.12h-1.728q-.528 0-.816-.096a.62.62 0 0 1-.396-.348q-.108-.252-.108-.684zm-5.916-.672h10.164v2.16h-.924v-1.332h-8.352v1.596h-.888zm1.044 5.352h8.268v.828h-8.268zm-1.26 3.252h10.572v.828h-10.572zm17.676-7.296h3.252v.708h-3.252zm-.108 1.848h3.528v.708h-3.528zm1.344-2.88h.732v3.3h-.732zm-2.22-1.02h5.244v.78h-5.244zm1.428 5.52h2.736v3.108h-2.736v-.696h2.04V80.61h-2.04zm-.372 0h.684v3.588h-.684zm3.852-5.52h.84v9.396q0 .396-.096.624a.67.67 0 0 1-.36.348q-.24.108-.696.132t-1.128.024a5 5 0 0 0-.072-.276 3 3 0 0 0-.096-.324 1.7 1.7 0 0 0-.108-.288q.492.012.912.012h.564q.144-.012.192-.06t.048-.192zm-5.364 0h.816v4.308q0 .708-.036 1.524t-.156 1.668q-.108.84-.336 1.644a6.7 6.7 0 0 1-.6 1.464 3 3 0 0 0-.204-.18 3 3 0 0 0-.276-.18 3 3 0 0 0-.228-.132 6.2 6.2 0 0 0 .684-1.848q.216-1.008.276-2.04.06-1.044.06-1.92zm-4.008 3.132h3.084v.708h-3.084zm.084-3.216h2.976v.72h-2.976zm-.084 4.812h3.084v.72h-3.084zm-.492-3.24h3.888v.756h-3.888zm.912 4.86h2.652v3.492h-2.652v-.744h1.908v-2.004h-1.908zm-.432 0h.744v4.056h-.744z"/></svg>