<svg fill="none" height="151" viewBox="0 0 366 151" width="366" xmlns="http://www.w3.org/2000/svg" xmlns:xlink="http://www.w3.org/1999/xlink"><mask id="a" fill="#fff"><path d="m20 104.683h271v24h-271z" fill="#fff"/></mask><rect fill="#fff" height="149" rx="7.5" width="365" x=".5" y="1.18262"/><rect height="149" rx="7.5" stroke="var(--colors-sd-system-color-component-outline)" width="365" x=".5" y="1.18262"/><path d="m20 20.6826h260v110h-260z" fill="#fff"/><path d="m20 20.6826h260" stroke="var(--colors-sd-system-color-chart-component-scalemark)"/><path d="m20 41.6826h260" stroke="var(--colors-sd-system-color-chart-component-scalemark)"/><path d="m20 62.6826h260" stroke="var(--colors-sd-system-color-chart-component-scalemark)"/><path d="m20 83.6826h260" stroke="var(--colors-sd-system-color-chart-component-scalemark)"/><path d="m20 104.683v1h271v-1-1h-271z" fill="var(--colors-sd-system-color-chart-component-scalemark)" mask="url(#a)"/><path d="m38.5801 111.104v8.579h-1.084v-7.225l-2.1856.797v-.979l3.0997-1.172zm4.5996.047v8.532h-1.1309v-8.532zm3.5742 3.838v.926h-3.8203v-.926zm.5801-3.838v.926h-4.4004v-.926z" fill="var(--colors-sd-system-color-chart-component-on-chart-surface)"/><path d="m86.4072 118.792v.891h-5.584v-.78l2.795-3.111c.3437-.383.6093-.707.7968-.973.1914-.269.3243-.509.3985-.72.0781-.215.1172-.434.1172-.657 0-.281-.0586-.535-.1758-.761-.1133-.231-.2813-.414-.5039-.551-.2227-.137-.4922-.205-.8086-.205-.3789 0-.6953.074-.9492.222-.25.145-.4375.348-.5625.61s-.1875.562-.1875.902h-1.084c0-.48.1054-.92.3164-1.318.2109-.399.5234-.715.9375-.949.414-.239.9238-.358 1.5293-.358.539 0 1 .096 1.3828.287.3828.188.6758.453.8789.797.207.34.3105.738.3105 1.195 0 .25-.0429.504-.1289.762-.082.254-.1972.508-.3457.762-.1445.254-.3144.504-.5097.75-.1914.246-.3965.488-.6153.726l-2.2851 2.479zm2.5723-7.641v8.532h-1.1309v-8.532zm3.5742 3.838v.926h-3.8203v-.926zm.5801-3.838v.926h-4.4004v-.926z" fill="var(--colors-sd-system-color-chart-component-on-chart-surface)"/><path d="m128.199 114.884h.774c.379 0 .691-.063.937-.188.25-.129.436-.302.557-.521.125-.223.187-.473.187-.75 0-.328-.054-.604-.164-.826-.109-.223-.273-.391-.492-.504-.219-.114-.496-.17-.832-.17-.305 0-.574.06-.809.181-.23.118-.412.286-.545.504-.128.219-.193.477-.193.774h-1.084c0-.434.11-.828.328-1.184.219-.355.526-.638.92-.849.399-.211.86-.317 1.383-.317.516 0 .967.092 1.354.276.386.179.687.449.902.808.215.356.322.799.322 1.33 0 .215-.051.446-.152.692-.098.242-.252.468-.463.679-.207.211-.477.385-.809.522-.332.133-.73.199-1.195.199h-.926zm0 .89v-.65h.926c.543 0 .992.064 1.348.193.355.129.634.301.838.516.207.215.351.451.433.709.086.254.129.508.129.762 0 .398-.068.752-.205 1.06-.133.309-.322.571-.568.785-.243.215-.528.377-.856.487-.328.109-.685.164-1.072.164-.371 0-.721-.053-1.049-.158-.324-.106-.611-.258-.861-.457-.25-.204-.446-.452-.586-.745-.141-.296-.211-.634-.211-1.013h1.084c0 .297.064.556.193.779.133.223.32.397.563.522.246.121.535.181.867.181s.617-.056.855-.17c.243-.117.428-.293.557-.527.133-.234.199-.529.199-.885 0-.355-.074-.646-.222-.873-.149-.23-.36-.4-.633-.51-.27-.113-.588-.17-.955-.17zm6.58-4.623v8.532h-1.131v-8.532zm3.575 3.838v.926h-3.821v-.926zm.58-3.838v.926h-4.401v-.926z" fill="var(--colors-sd-system-color-chart-component-on-chart-surface)"/><path d="m178.184 116.812v.89h-6.164v-.639l3.82-5.912h.885l-.95 1.711-2.525 3.95zm-1.19-5.661v8.532h-1.084v-8.532zm3.586 0v8.532h-1.131v-8.532zm3.574 3.838v.926h-3.82v-.926zm.58-3.838v.926h-4.4v-.926z" fill="var(--colors-sd-system-color-chart-component-on-chart-surface)"/><path d="m219.589 115.622-.867-.223.427-4.248h4.377v1.002h-3.457l-.257 2.321c.156-.09.353-.174.591-.252.243-.078.52-.118.832-.118.395 0 .748.069 1.061.206.312.132.578.324.797.574.222.25.392.551.51.902.117.352.175.744.175 1.178 0 .41-.056.787-.17 1.131-.109.343-.275.644-.498.902-.222.254-.504.451-.843.592-.336.14-.733.211-1.19.211-.344 0-.67-.047-.978-.141-.305-.097-.578-.244-.821-.439-.238-.199-.433-.446-.586-.739-.148-.296-.242-.644-.281-1.043h1.031c.047.321.141.59.282.809.14.219.324.385.55.498.231.109.498.164.803.164.258 0 .486-.045.686-.135.199-.089.367-.218.504-.386.136-.168.24-.371.31-.61.074-.238.111-.506.111-.802 0-.27-.037-.52-.111-.75-.074-.231-.185-.432-.334-.604-.144-.172-.322-.305-.533-.398-.211-.098-.453-.147-.727-.147-.363 0-.638.049-.826.147-.183.097-.373.23-.568.398zm6.791-4.471v8.532h-1.131v-8.532zm3.574 3.838v.926h-3.82v-.926zm.58-3.838v.926h-4.4v-.926z" fill="var(--colors-sd-system-color-chart-component-on-chart-surface)"/><path d="m268.178 111.14h.093v.92h-.093c-.574 0-1.055.093-1.442.281-.386.183-.693.431-.92.744-.226.309-.39.656-.492 1.043-.097.387-.146.779-.146 1.178v1.254c0 .378.045.714.134 1.007.09.289.213.534.37.733.156.199.332.349.527.451.199.102.406.152.621.152.25 0 .473-.047.668-.14.195-.098.359-.233.492-.405.137-.175.24-.382.311-.621.07-.238.105-.5.105-.785 0-.254-.031-.498-.094-.732-.062-.239-.158-.449-.287-.633-.129-.188-.291-.334-.486-.44-.191-.109-.42-.164-.685-.164-.301 0-.583.075-.844.223-.258.145-.471.336-.639.574-.164.235-.258.491-.281.768l-.574-.006c.054-.438.156-.811.304-1.119.153-.313.34-.567.563-.762.226-.199.478-.344.756-.433.281-.094.578-.141.89-.141.426 0 .793.08 1.102.24.308.16.562.375.762.645.199.265.345.566.439.902.098.332.147.674.147 1.025 0 .403-.057.78-.17 1.131-.114.352-.284.66-.51.926-.223.266-.498.473-.826.621-.328.149-.709.223-1.143.223-.461 0-.863-.094-1.207-.281-.344-.192-.629-.446-.855-.762-.227-.317-.397-.668-.51-1.055s-.17-.779-.17-1.178v-.509c0-.602.06-1.192.182-1.77.121-.578.33-1.101.626-1.57.301-.469.717-.842 1.249-1.119.531-.278 1.209-.416 2.033-.416zm4.002.011v8.532h-1.131v-8.532zm3.574 3.838v.926h-3.82v-.926zm.58-3.838v.926h-4.4v-.926z" fill="var(--colors-sd-system-color-chart-component-on-chart-surface)"/><circle cx="34" cy="77.6826" fill="var(--colors-sd-system-color-chart-mark-primary-05)" r="3"/><circle cx="61" cy="55.6826" fill="var(--colors-sd-system-color-chart-mark-primary-05)" r="3"/><circle cx="88" cy="63.6826" fill="var(--colors-sd-system-color-chart-mark-primary-05)" r="3"/><circle cx="115" cy="51.6826" fill="var(--colors-sd-system-color-chart-mark-primary-05)" r="3"/><circle cx="142" cy="48.6826" fill="var(--colors-sd-system-color-chart-mark-primary-05)" r="3"/><circle cx="169" cy="54.6826" fill="var(--colors-sd-system-color-chart-mark-primary-05)" r="3"/><circle cx="196" cy="56.6826" fill="var(--colors-sd-system-color-chart-mark-primary-05)" r="3"/><circle cx="223" cy="66.6826" fill="var(--colors-sd-system-color-chart-mark-primary-05)" r="3"/><circle cx="250" cy="41.6826" fill="var(--colors-sd-system-color-chart-mark-primary-05)" r="3"/><circle cx="277" cy="70.6826" fill="var(--colors-sd-system-color-chart-mark-primary-05)" r="3"/><g stroke-width="2"><path d="m34 77.6826 27-22 27 8 27.25-12 27-3 27 6 27.5 2.5 26.5 9.5 27.5-25 26.5 28.5" stroke="var(--colors-sd-system-color-chart-mark-primary-05)"/><path d="m34 57.6826 27 8 27-22h27.25l27 20 27-29 27.5 13.5 26.5-1.5 27.5 15 26.5-11.5" stroke="var(--colors-sd-system-color-chart-mark-multi-02)"/><circle cx="34" cy="57.6826" fill="#fff" r="2" stroke="var(--colors-sd-system-color-chart-mark-multi-02)"/><path d="m61 63.6826c1.1046 0 2 .8954 2 2s-.8954 2-2 2-2-.8954-2-2 .8954-2 2-2z" fill="#fff" stroke="var(--colors-sd-system-color-chart-mark-multi-02)"/><circle cx="88" cy="43.6826" fill="#fff" r="2" stroke="var(--colors-sd-system-color-chart-mark-multi-02)"/><circle cx="115" cy="43.6826" fill="#fff" r="2" stroke="var(--colors-sd-system-color-chart-mark-multi-02)"/><circle cx="142" cy="62.6826" fill="#fff" r="2" stroke="var(--colors-sd-system-color-chart-mark-multi-02)"/><circle cx="169" cy="34.6826" fill="#fff" r="2" stroke="var(--colors-sd-system-color-chart-mark-multi-02)"/><circle cx="196" cy="47.6826" fill="#fff" r="2" stroke="var(--colors-sd-system-color-chart-mark-multi-02)"/><circle cx="223" cy="46.6826" fill="#fff" r="2" stroke="var(--colors-sd-system-color-chart-mark-multi-02)"/><path d="m250 58.6826c1.105 0 2 .8954 2 2s-.895 2-2 2-2-.8954-2-2 .895-2 2-2z" fill="#fff" stroke="var(--colors-sd-system-color-chart-mark-multi-02)"/><circle cx="277" cy="50.6826" fill="#fff" r="2" stroke="var(--colors-sd-system-color-chart-mark-multi-02)"/><path d="m33.5 47.6826 27.5-9.5 27 42.5 27.25-12.5 27 15.5 27 9 27.5-13.5 26.5 8.5 27.5-8.5 27.25 4.5" stroke="var(--colors-sd-system-color-chart-mark-multi-03)"/></g><path d="m31 44.6826h6v6h-6z" fill="var(--colors-sd-system-color-chart-mark-multi-03)"/><path d="m57 35.6826h6v6h-6z" fill="var(--colors-sd-system-color-chart-mark-multi-03)"/><path d="m85 76.6826h6v6h-6z" fill="var(--colors-sd-system-color-chart-mark-multi-03)"/><path d="m112 65.6826h6v6h-6z" fill="var(--colors-sd-system-color-chart-mark-multi-03)"/><path d="m139 80.6826h6v6h-6z" fill="var(--colors-sd-system-color-chart-mark-multi-03)"/><path d="m166 89.6826h6v6h-6z" fill="var(--colors-sd-system-color-chart-mark-multi-03)"/><path d="m194 76.6826h6v6h-6z" fill="var(--colors-sd-system-color-chart-mark-multi-03)"/><path d="m248 76.6826h6v6h-6z" fill="var(--colors-sd-system-color-chart-mark-multi-03)"/><path d="m274 80.6826h6v6h-6z" fill="var(--colors-sd-system-color-chart-mark-multi-03)"/><path d="m220 83.6826h6v6h-6z" fill="var(--colors-sd-system-color-chart-mark-multi-03)"/><path d="m317.983 21.1914h10.9831v10.9831h-10.9831z" fill="var(--colors-sd-system-color-chart-mark-multi-03)" transform="matrix(0 1 -1 0 339.1744 -296.7916)"/><path d="m322.761 21.1186h.852v7.488h-.852zm.456 0h3.036v6.876h-3.036v-.816h2.196v-5.256h-2.196zm-.012 2.916h2.64v.792h-2.64zm3.576-2.94h5.376v.804h-5.376zm5.088 0h.864s-.004.044-.012.132c0 .088-.004.16-.012.216-.032.576-.072 1.052-.12 1.428-.04.368-.092.656-.156.864-.056.2-.124.348-.204.444-.096.096-.2.164-.312.204s-.244.068-.396.084c-.136.008-.328.012-.576.012s-.512-.008-.792-.024c-.008-.112-.032-.236-.072-.372-.04-.144-.092-.268-.156-.372.264.024.508.04.732.048h.48c.08 0 .148-.004.204-.012.064-.016.116-.044.156-.084.064-.064.116-.18.156-.348.04-.176.076-.432.108-.768.04-.336.076-.776.108-1.32zm-3 .252h.888c-.048.44-.132.844-.252 1.212-.112.36-.276.688-.492.984-.208.288-.484.544-.828.768s-.772.416-1.284.576c-.048-.104-.124-.224-.228-.36-.096-.136-.188-.24-.276-.312.456-.136.836-.292 1.14-.468s.544-.38.72-.612c.176-.24.312-.508.408-.804s.164-.624.204-.984zm-.888 4.452v1.824h3.516v-1.824zm-.84-.756h5.244v3.336h-5.244zm-1.416 4.14.828-.084c.08.384.148.8.204 1.248s.088.82.096 1.116l-.876.132c0-.2-.012-.44-.036-.72-.024-.272-.052-.556-.084-.852s-.076-.576-.132-.84zm2.568-.036.84-.156c.112.256.22.528.324.816.104.28.196.56.276.84.08.272.14.516.18.732l-.888.192c-.04-.208-.096-.452-.168-.732s-.156-.568-.252-.864-.2-.572-.312-.828zm2.448-.06.816-.336c.192.256.388.54.588.852.208.304.396.604.564.9.176.288.312.548.408.78l-.852.384c-.096-.232-.228-.5-.396-.804-.16-.296-.34-.6-.54-.912s-.396-.6-.588-.864zm-7.008-.252.864.252c-.216.448-.464.912-.744 1.392-.28.472-.556.88-.828 1.224l-.864-.384c.184-.2.372-.436.564-.708.192-.28.376-.572.552-.876s.328-.604.456-.9zm11.376-7.5h3.432v7.164h-3.432v-.84h2.592v-5.496h-2.592zm0 3.12h2.964v.816h-2.964zm5.076-3.336h4.044v.84h-4.044zm0 2.916h4.044v.816h-4.044zm-.084 2.94h4.104v.816h-4.104zm-5.496-5.64h.852v8.292h-.852zm9.288-.216h.888v9.336c0 .28-.04.496-.12.648-.072.16-.204.276-.396.348-.2.072-.468.116-.804.132-.336.024-.764.036-1.284.036-.008-.08-.032-.176-.072-.288-.032-.104-.072-.212-.12-.324-.04-.104-.084-.196-.132-.276.264.008.512.012.744.012.24.008.448.008.624 0h.372c.112 0 .188-.02.228-.06.048-.048.072-.124.072-.228zm-4.236 0h.876v4.284c0 .504-.028 1.04-.084 1.608-.056.56-.168 1.124-.336 1.692-.16.56-.404 1.1-.732 1.62s-.764.988-1.308 1.404c-.04-.064-.1-.136-.18-.216s-.164-.16-.252-.24c-.088-.072-.164-.128-.228-.168.512-.384.916-.808 1.212-1.272.296-.472.52-.96.672-1.464s.248-1.008.288-1.512c.048-.504.072-.992.072-1.464z" fill="var(--colors-sd-system-color-chart-component-on-chart-surface)"/><rect fill="var(--colors-sd-system-color-chart-mark-primary-05)" height="10.9831" rx="5.49153" transform="matrix(0 1 -1 0 365.8189 -270.1471)" width="10.9831" x="317.983" y="47.8359"/><path d="m322.989 48.3391h9.42v.816h-9.42zm-.684 2.82h10.692v.816h-10.692zm2.208 3.888h6.348v.72h-6.348zm.012 2.028h6.348v.768h-6.348zm2.628-9.828h.936v1.548h-.936zm-3.084 5.772h7.32v5.244h-.936v-4.476h-5.496v4.512h-.888zm5.796-3.9.972.24c-.16.32-.328.652-.504.996-.168.336-.328.624-.48.864l-.828-.228c.096-.168.196-.36.3-.576.104-.224.204-.448.3-.672.096-.232.176-.44.24-.624zm-5.22.24.852-.192c.192.28.36.592.504.936.144.336.24.628.288.876l-.924.24c-.048-.264-.14-.568-.276-.912-.128-.352-.276-.668-.444-.948zm13.644-.66h2.688v.528h-2.688zm-2.784 4.068h8.496v.612h-8.496zm.96 3.648h6.336v.468h-6.336zm0 1.02h6.336v.528h-6.336zm-2.196-3.216h10.764v.636h-10.764zm-.192-3.444c.4-.024.864-.056 1.392-.096.536-.048 1.096-.096 1.68-.144l.012.588c-.528.064-1.044.124-1.548.18s-.968.108-1.392.156zm3.336.708c.464-.04 1.012-.092 1.644-.156.64-.064 1.3-.132 1.98-.204l.024.588c-.624.088-1.24.172-1.848.252-.6.072-1.144.14-1.632.204zm-.252-1.62.708.108c-.152.544-.388 1.02-.708 1.428s-.7.76-1.14 1.056c-.432.296-.904.548-1.416.756-.032-.048-.076-.108-.132-.18-.048-.08-.104-.156-.168-.228-.056-.072-.108-.132-.156-.18.736-.24 1.372-.584 1.908-1.032.536-.456.904-1.032 1.104-1.728zm7.164-2.232h.12l.12-.048.54.288c-.152.296-.312.584-.48.864s-.336.556-.504.828c.344.264.592.516.744.756.16.24.244.468.252.684 0 .208-.04.388-.12.54-.08.144-.192.256-.336.336-.064.048-.144.088-.24.12-.096.024-.188.04-.276.048-.12.008-.264.016-.432.024-.168 0-.332-.004-.492-.012-.008-.096-.032-.204-.072-.324-.04-.128-.096-.236-.168-.324.176.008.336.016.48.024.152 0 .28-.004.384-.012.064 0 .124-.004.18-.012.056-.016.104-.032.144-.048.16-.08.232-.228.216-.444 0-.168-.084-.352-.252-.552-.16-.2-.424-.424-.792-.672.208-.368.392-.72.552-1.056.168-.336.312-.64.432-.912zm-10.104 1.212.408-.504c.192.128.388.272.588.432.2.152.388.308.564.468.184.16.328.3.432.42l-.42.588c-.104-.136-.244-.284-.42-.444-.176-.168-.368-.336-.576-.504-.2-.168-.392-.32-.576-.456zm1.62-1.608.672.264c-.192.296-.396.596-.612.9-.216.296-.42.556-.612.78l-.516-.24c.12-.152.248-.328.384-.528s.264-.404.384-.612.22-.396.3-.564zm.996.984.66.3c-.208.296-.44.608-.696.936-.256.32-.512.628-.768.924-.248.296-.488.556-.72.78l-.528-.264c.232-.232.472-.504.72-.816.256-.312.5-.632.732-.96.24-.328.44-.628.6-.9zm5.1-.588h2.616v.66h-1.872v4.284h-.744zm-3.936 0h.72v4.116h-.72zm.3 0h3.024v2.688h-3.024v-.552h2.292v-1.596h-2.292zm.864 4.44h.864v1.068h-.864zm-3.168 3.276h7.428v2.928h-.864v-2.4h-5.736v2.424h-.828zm1.056-1.824.72-.252c.136.128.264.276.384.444.12.16.2.308.24.444l-.744.264c-.04-.136-.12-.288-.24-.456-.112-.168-.232-.316-.36-.444zm2.808-2.844.528-.312c.28.216.552.472.816.768.272.288.468.544.588.768l-.564.36c-.12-.24-.312-.504-.576-.792-.256-.296-.52-.56-.792-.792zm1.692 2.508.816.276c-.152.192-.304.38-.456.564-.144.176-.276.328-.396.456l-.636-.24c.112-.152.232-.328.36-.528.136-.208.24-.384.312-.528z" fill="var(--colors-sd-system-color-chart-component-on-chart-surface)"/><rect fill="#fff" height="8.98305" rx="4.49153" stroke="var(--colors-sd-system-color-chart-mark-multi-02)" stroke-width="2" transform="matrix(0 1 -1 0 392.4625 -241.5035)" width="8.98305" x="316.983" y="75.4795"/><path d="m327.153 73.8907h.924v1.8h-.924zm0 6.984h.924v3.324h-.924zm-1.332-5.04h.936c-.064.552-.164 1.052-.3 1.5-.136.44-.344.828-.624 1.164-.272.336-.644.628-1.116.876-.464.24-1.06.444-1.788.612-.024-.08-.064-.164-.12-.252-.048-.096-.104-.188-.168-.276-.064-.096-.132-.176-.204-.24.664-.128 1.204-.288 1.62-.48.424-.2.756-.436.996-.708.24-.28.416-.6.528-.96.112-.368.192-.78.24-1.236zm2.676-.024h.888v2.544c0 .144.032.236.096.276s.204.06.42.06h.288.456.48.324c.12 0 .208-.02.264-.06.064-.048.108-.14.132-.276.032-.144.052-.356.06-.636.064.048.14.092.228.132.096.04.192.076.288.108.104.032.196.06.276.084-.032.376-.088.668-.168.876s-.196.356-.348.444c-.152.08-.364.12-.636.12-.064 0-.18 0-.348 0-.16 0-.336 0-.528 0s-.372 0-.54 0c-.16 0-.264 0-.312 0-.352 0-.624-.032-.816-.096s-.324-.18-.396-.348-.108-.396-.108-.684zm-5.916-.672h10.164v2.16h-.924v-1.332h-8.352v1.596h-.888zm1.044 5.352h8.268v.828h-8.268zm-1.26 3.252h10.572v.828h-10.572zm17.676-7.296h3.252v.708h-3.252zm-.108 1.848h3.528v.708h-3.528zm1.344-2.88h.732v3.3h-.732zm-2.22-1.02h5.244v.78h-5.244zm1.428 5.52h2.736v3.108h-2.736v-.696h2.04v-1.716h-2.04zm-.372 0h.684v3.588h-.684zm3.852-5.52h.84v9.396c0 .264-.032.472-.096.624s-.184.268-.36.348c-.16.072-.392.116-.696.132s-.68.024-1.128.024c-.016-.072-.04-.164-.072-.276-.024-.104-.056-.212-.096-.324-.032-.112-.068-.208-.108-.288.328.008.632.012.912.012h.564c.096-.008.16-.028.192-.06s.048-.096.048-.192zm-5.364 0h.816v4.308c0 .472-.012.98-.036 1.524s-.076 1.1-.156 1.668c-.072.56-.184 1.108-.336 1.644s-.352 1.024-.6 1.464c-.048-.048-.116-.108-.204-.18-.088-.064-.18-.124-.276-.18-.088-.056-.164-.1-.228-.132.32-.56.548-1.176.684-1.848.144-.672.236-1.352.276-2.04.04-.696.06-1.336.06-1.92zm-4.008 3.132h3.084v.708h-3.084zm.084-3.216h2.976v.72h-2.976zm-.084 4.812h3.084v.72h-3.084zm-.492-3.24h3.888v.756h-3.888zm.912 4.86h2.652v3.492h-2.652v-.744h1.908v-2.004h-1.908zm-.432 0h.744v4.056h-.744z" fill="var(--colors-sd-system-color-chart-component-on-chart-surface)"/></svg>