<svg width="366" height="151" viewBox="0 0 366 151" fill="none" xmlns="http://www.w3.org/2000/svg">
<rect x="0.5" y="1.18262" width="365" height="149" rx="7.5" fill="white"/>
<rect x="0.5" y="1.18262" width="365" height="149" rx="7.5" stroke="var(--colors-sd-system-color-component-outline)"/>
<rect width="260" height="110" transform="translate(20 20.6826)" fill="white"/>
<path d="M20 20.6826L280 20.6826" stroke="var(--colors-sd-system-color-chart-component-scalemark)"/>
<path d="M20 41.6826L280 41.6826" stroke="var(--colors-sd-system-color-chart-component-scalemark)"/>
<path d="M20 62.6826L280 62.6826" stroke="var(--colors-sd-system-color-chart-component-scalemark)"/>
<path d="M20 83.6826L280 83.6826" stroke="var(--colors-sd-system-color-chart-component-scalemark)"/>
<mask id="path-6-inside-1_3063_31099" fill="white">
<path d="M20 104.683H291V128.683H20V104.683Z"/>
</mask>
<path d="M20 104.683V105.683H291V104.683V103.683H20V104.683Z" fill="var(--colors-sd-system-color-chart-component-scalemark)" mask="url(#path-6-inside-1_3063_31099)"/>
<path d="M38.5801 111.104V119.683H37.4961V112.458L35.3105 113.255V112.276L38.4102 111.104H38.5801ZM43.1797 111.151V119.683H42.0488V111.151H43.1797ZM46.7539 114.989V115.915H42.9336V114.989H46.7539ZM47.334 111.151V112.077H42.9336V111.151H47.334Z" fill="var(--colors-sd-system-color-chart-component-on-chart-surface)"/>
<path d="M86.4072 118.792V119.683H80.8232V118.903L83.6182 115.792C83.9619 115.409 84.2275 115.085 84.415 114.819C84.6064 114.55 84.7393 114.31 84.8135 114.099C84.8916 113.884 84.9307 113.665 84.9307 113.442C84.9307 113.161 84.8721 112.907 84.7549 112.681C84.6416 112.45 84.4736 112.267 84.251 112.13C84.0283 111.993 83.7588 111.925 83.4424 111.925C83.0635 111.925 82.7471 111.999 82.4932 112.147C82.2432 112.292 82.0557 112.495 81.9307 112.757C81.8057 113.019 81.7432 113.319 81.7432 113.659H80.6592C80.6592 113.179 80.7646 112.739 80.9756 112.341C81.1865 111.942 81.499 111.626 81.9131 111.392C82.3271 111.153 82.8369 111.034 83.4424 111.034C83.9814 111.034 84.4424 111.13 84.8252 111.321C85.208 111.509 85.501 111.774 85.7041 112.118C85.9111 112.458 86.0146 112.856 86.0146 113.313C86.0146 113.563 85.9717 113.817 85.8857 114.075C85.8037 114.329 85.6885 114.583 85.54 114.837C85.3955 115.091 85.2256 115.341 85.0303 115.587C84.8389 115.833 84.6338 116.075 84.415 116.313L82.1299 118.792H86.4072ZM88.9795 111.151V119.683H87.8486V111.151H88.9795ZM92.5537 114.989V115.915H88.7334V114.989H92.5537ZM93.1338 111.151V112.077H88.7334V111.151H93.1338Z" fill="var(--colors-sd-system-color-chart-component-on-chart-surface)"/>
<path d="M128.199 114.884H128.973C129.352 114.884 129.664 114.821 129.91 114.696C130.16 114.567 130.346 114.394 130.467 114.175C130.592 113.952 130.654 113.702 130.654 113.425C130.654 113.097 130.6 112.821 130.49 112.599C130.381 112.376 130.217 112.208 129.998 112.095C129.779 111.981 129.502 111.925 129.166 111.925C128.861 111.925 128.592 111.985 128.357 112.106C128.127 112.224 127.945 112.392 127.812 112.61C127.684 112.829 127.619 113.087 127.619 113.384H126.535C126.535 112.95 126.645 112.556 126.863 112.2C127.082 111.845 127.389 111.562 127.783 111.351C128.182 111.14 128.643 111.034 129.166 111.034C129.682 111.034 130.133 111.126 130.52 111.31C130.906 111.489 131.207 111.759 131.422 112.118C131.637 112.474 131.744 112.917 131.744 113.448C131.744 113.663 131.693 113.894 131.592 114.14C131.494 114.382 131.34 114.608 131.129 114.819C130.922 115.03 130.652 115.204 130.32 115.341C129.988 115.474 129.59 115.54 129.125 115.54H128.199V114.884ZM128.199 115.774V115.124H129.125C129.668 115.124 130.117 115.188 130.473 115.317C130.828 115.446 131.107 115.618 131.311 115.833C131.518 116.048 131.662 116.284 131.744 116.542C131.83 116.796 131.873 117.05 131.873 117.304C131.873 117.702 131.805 118.056 131.668 118.364C131.535 118.673 131.346 118.935 131.1 119.149C130.857 119.364 130.572 119.526 130.244 119.636C129.916 119.745 129.559 119.8 129.172 119.8C128.801 119.8 128.451 119.747 128.123 119.642C127.799 119.536 127.512 119.384 127.262 119.185C127.012 118.981 126.816 118.733 126.676 118.44C126.535 118.144 126.465 117.806 126.465 117.427H127.549C127.549 117.724 127.613 117.983 127.742 118.206C127.875 118.429 128.062 118.603 128.305 118.728C128.551 118.849 128.84 118.909 129.172 118.909C129.504 118.909 129.789 118.853 130.027 118.739C130.27 118.622 130.455 118.446 130.584 118.212C130.717 117.978 130.783 117.683 130.783 117.327C130.783 116.972 130.709 116.681 130.561 116.454C130.412 116.224 130.201 116.054 129.928 115.944C129.658 115.831 129.34 115.774 128.973 115.774H128.199ZM134.779 111.151V119.683H133.648V111.151H134.779ZM138.354 114.989V115.915H134.533V114.989H138.354ZM138.934 111.151V112.077H134.533V111.151H138.934Z" fill="var(--colors-sd-system-color-chart-component-on-chart-surface)"/>
<path d="M178.184 116.812V117.702H172.02V117.063L175.84 111.151H176.725L175.775 112.862L173.25 116.812H178.184ZM176.994 111.151V119.683H175.91V111.151H176.994ZM180.58 111.151V119.683H179.449V111.151H180.58ZM184.154 114.989V115.915H180.334V114.989H184.154ZM184.734 111.151V112.077H180.334V111.151H184.734Z" fill="var(--colors-sd-system-color-chart-component-on-chart-surface)"/>
<path d="M219.589 115.622L218.722 115.399L219.149 111.151H223.526V112.153H220.069L219.812 114.474C219.968 114.384 220.165 114.3 220.403 114.222C220.646 114.144 220.923 114.104 221.235 114.104C221.63 114.104 221.983 114.173 222.296 114.31C222.608 114.442 222.874 114.634 223.093 114.884C223.315 115.134 223.485 115.435 223.603 115.786C223.72 116.138 223.778 116.53 223.778 116.964C223.778 117.374 223.722 117.751 223.608 118.095C223.499 118.438 223.333 118.739 223.11 118.997C222.888 119.251 222.606 119.448 222.267 119.589C221.931 119.729 221.534 119.8 221.077 119.8C220.733 119.8 220.407 119.753 220.099 119.659C219.794 119.562 219.521 119.415 219.278 119.22C219.04 119.021 218.845 118.774 218.692 118.481C218.544 118.185 218.45 117.837 218.411 117.438H219.442C219.489 117.759 219.583 118.028 219.724 118.247C219.864 118.466 220.048 118.632 220.274 118.745C220.505 118.854 220.772 118.909 221.077 118.909C221.335 118.909 221.563 118.864 221.763 118.774C221.962 118.685 222.13 118.556 222.267 118.388C222.403 118.22 222.507 118.017 222.577 117.778C222.651 117.54 222.688 117.272 222.688 116.976C222.688 116.706 222.651 116.456 222.577 116.226C222.503 115.995 222.392 115.794 222.243 115.622C222.099 115.45 221.921 115.317 221.71 115.224C221.499 115.126 221.257 115.077 220.983 115.077C220.62 115.077 220.345 115.126 220.157 115.224C219.974 115.321 219.784 115.454 219.589 115.622ZM226.38 111.151V119.683H225.249V111.151H226.38ZM229.954 114.989V115.915H226.134V114.989H229.954ZM230.534 111.151V112.077H226.134V111.151H230.534Z" fill="var(--colors-sd-system-color-chart-component-on-chart-surface)"/>
<path d="M268.178 111.14H268.271V112.06H268.178C267.604 112.06 267.123 112.153 266.736 112.341C266.35 112.524 266.043 112.772 265.816 113.085C265.59 113.394 265.426 113.741 265.324 114.128C265.227 114.515 265.178 114.907 265.178 115.306V116.56C265.178 116.938 265.223 117.274 265.312 117.567C265.402 117.856 265.525 118.101 265.682 118.3C265.838 118.499 266.014 118.649 266.209 118.751C266.408 118.853 266.615 118.903 266.83 118.903C267.08 118.903 267.303 118.856 267.498 118.763C267.693 118.665 267.857 118.53 267.99 118.358C268.127 118.183 268.23 117.976 268.301 117.737C268.371 117.499 268.406 117.237 268.406 116.952C268.406 116.698 268.375 116.454 268.312 116.22C268.25 115.981 268.154 115.771 268.025 115.587C267.896 115.399 267.734 115.253 267.539 115.147C267.348 115.038 267.119 114.983 266.854 114.983C266.553 114.983 266.271 115.058 266.01 115.206C265.752 115.351 265.539 115.542 265.371 115.78C265.207 116.015 265.113 116.271 265.09 116.548L264.516 116.542C264.57 116.104 264.672 115.731 264.82 115.423C264.973 115.11 265.16 114.856 265.383 114.661C265.609 114.462 265.861 114.317 266.139 114.228C266.42 114.134 266.717 114.087 267.029 114.087C267.455 114.087 267.822 114.167 268.131 114.327C268.439 114.487 268.693 114.702 268.893 114.972C269.092 115.237 269.238 115.538 269.332 115.874C269.43 116.206 269.479 116.548 269.479 116.899C269.479 117.302 269.422 117.679 269.309 118.03C269.195 118.382 269.025 118.69 268.799 118.956C268.576 119.222 268.301 119.429 267.973 119.577C267.645 119.726 267.264 119.8 266.83 119.8C266.369 119.8 265.967 119.706 265.623 119.519C265.279 119.327 264.994 119.073 264.768 118.757C264.541 118.44 264.371 118.089 264.258 117.702C264.145 117.315 264.088 116.923 264.088 116.524V116.015C264.088 115.413 264.148 114.823 264.27 114.245C264.391 113.667 264.6 113.144 264.896 112.675C265.197 112.206 265.613 111.833 266.145 111.556C266.676 111.278 267.354 111.14 268.178 111.14ZM272.18 111.151V119.683H271.049V111.151H272.18ZM275.754 114.989V115.915H271.934V114.989H275.754ZM276.334 111.151V112.077H271.934V111.151H276.334Z" fill="var(--colors-sd-system-color-chart-component-on-chart-surface)"/>
<circle cx="34" cy="77.6826" r="3" fill="var(--colors-sd-system-color-chart-mark-primary-05)"/>
<circle cx="61" cy="55.6826" r="3" fill="var(--colors-sd-system-color-chart-mark-primary-05)"/>
<circle cx="88" cy="63.6826" r="3" fill="var(--colors-sd-system-color-chart-mark-primary-05)"/>
<circle cx="115" cy="51.6826" r="3" fill="var(--colors-sd-system-color-chart-mark-primary-05)"/>
<circle cx="142" cy="48.6826" r="3" fill="var(--colors-sd-system-color-chart-mark-primary-05)"/>
<circle cx="169" cy="54.6826" r="3" fill="var(--colors-sd-system-color-chart-mark-primary-05)"/>
<circle cx="196" cy="56.6826" r="3" fill="var(--colors-sd-system-color-chart-mark-primary-05)"/>
<circle cx="223" cy="66.6826" r="3" fill="var(--colors-sd-system-color-chart-mark-primary-05)"/>
<circle cx="250" cy="41.6826" r="3" fill="var(--colors-sd-system-color-chart-mark-primary-05)"/>
<circle cx="277" cy="70.6826" r="3" fill="var(--colors-sd-system-color-chart-mark-primary-05)"/>
<path d="M34 77.6826L61 55.6826L88 63.6826L115.25 51.6826L142.25 48.6826L169.25 54.6826L196.75 57.1826L223.25 66.6826L250.75 41.6826L277.25 70.1826" stroke="var(--colors-sd-system-color-chart-mark-primary-05)" stroke-width="2"/>
<path d="M34 57.6826L61 65.6826L88 43.6826H115.25L142.25 63.6826L169.25 34.6826L196.75 48.1826L223.25 46.6826L250.75 61.6826L277.25 50.1826" stroke="var(--colors-sd-system-color-chart-mark-multi-02)" stroke-width="2"/>
<circle cx="34" cy="57.6826" r="2" fill="white" stroke="var(--colors-sd-system-color-chart-mark-multi-02)" stroke-width="2"/>
<path d="M61 63.6826C62.1046 63.6826 63 64.578 63 65.6826C63 66.7872 62.1046 67.6826 61 67.6826C59.8954 67.6826 59 66.7872 59 65.6826C59 64.578 59.8954 63.6826 61 63.6826Z" fill="white" stroke="var(--colors-sd-system-color-chart-mark-multi-02)" stroke-width="2"/>
<circle cx="88" cy="43.6826" r="2" fill="white" stroke="var(--colors-sd-system-color-chart-mark-multi-02)" stroke-width="2"/>
<circle cx="115" cy="43.6826" r="2" fill="white" stroke="var(--colors-sd-system-color-chart-mark-multi-02)" stroke-width="2"/>
<circle cx="142" cy="62.6826" r="2" fill="white" stroke="var(--colors-sd-system-color-chart-mark-multi-02)" stroke-width="2"/>
<circle cx="169" cy="34.6826" r="2" fill="white" stroke="var(--colors-sd-system-color-chart-mark-multi-02)" stroke-width="2"/>
<circle cx="196" cy="47.6826" r="2" fill="white" stroke="var(--colors-sd-system-color-chart-mark-multi-02)" stroke-width="2"/>
<circle cx="223" cy="46.6826" r="2" fill="white" stroke="var(--colors-sd-system-color-chart-mark-multi-02)" stroke-width="2"/>
<path d="M250 58.6826C251.105 58.6826 252 59.578 252 60.6826C252 61.7872 251.105 62.6826 250 62.6826C248.895 62.6826 248 61.7872 248 60.6826C248 59.578 248.895 58.6826 250 58.6826Z" fill="white" stroke="var(--colors-sd-system-color-chart-mark-multi-02)" stroke-width="2"/>
<circle cx="277" cy="50.6826" r="2" fill="white" stroke="var(--colors-sd-system-color-chart-mark-multi-02)" stroke-width="2"/>
<path d="M33.5 47.6826L61 38.1826L88 80.6826L115.25 68.1826L142.25 83.6826L169.25 92.6826L196.75 79.1826L223.25 87.6826L250.75 79.1826L278 83.6826" stroke="var(--colors-sd-system-color-chart-mark-multi-03)" stroke-width="2"/>
<rect x="31" y="44.6826" width="6" height="6" fill="var(--colors-sd-system-color-chart-mark-multi-03)"/>
<rect x="57" y="35.6826" width="6" height="6" fill="var(--colors-sd-system-color-chart-mark-multi-03)"/>
<rect x="85" y="76.6826" width="6" height="6" fill="var(--colors-sd-system-color-chart-mark-multi-03)"/>
<rect x="112" y="65.6826" width="6" height="6" fill="var(--colors-sd-system-color-chart-mark-multi-03)"/>
<rect x="139" y="80.6826" width="6" height="6" fill="var(--colors-sd-system-color-chart-mark-multi-03)"/>
<rect x="166" y="89.6826" width="6" height="6" fill="var(--colors-sd-system-color-chart-mark-multi-03)"/>
<rect x="194" y="76.6826" width="6" height="6" fill="var(--colors-sd-system-color-chart-mark-multi-03)"/>
<rect x="248" y="76.6826" width="6" height="6" fill="var(--colors-sd-system-color-chart-mark-multi-03)"/>
<rect x="274" y="80.6826" width="6" height="6" fill="var(--colors-sd-system-color-chart-mark-multi-03)"/>
<rect x="220" y="83.6826" width="6" height="6" fill="var(--colors-sd-system-color-chart-mark-multi-03)"/>
<rect x="317.983" y="21.1914" width="10.9831" height="10.9831" transform="rotate(90 317.983 21.1914)" fill="var(--colors-sd-system-color-chart-mark-multi-03)"/>
<path d="M322.761 21.1186H323.613V28.6066H322.761V21.1186ZM323.217 21.1186H326.253V27.9946H323.217V27.1786H325.413V21.9226H323.217V21.1186ZM323.205 24.0346H325.845V24.8266H323.205V24.0346ZM326.781 21.0946H332.157V21.8986H326.781V21.0946ZM331.869 21.0946H332.733C332.733 21.0946 332.729 21.1386 332.721 21.2266C332.721 21.3146 332.717 21.3866 332.709 21.4426C332.677 22.0186 332.637 22.4946 332.589 22.8706C332.549 23.2386 332.497 23.5266 332.433 23.7346C332.377 23.9346 332.309 24.0826 332.229 24.1786C332.133 24.2746 332.029 24.3426 331.917 24.3826C331.805 24.4226 331.673 24.4506 331.521 24.4666C331.385 24.4746 331.193 24.4786 330.945 24.4786C330.697 24.4786 330.433 24.4706 330.153 24.4546C330.145 24.3426 330.121 24.2186 330.081 24.0826C330.041 23.9386 329.989 23.8146 329.925 23.7106C330.189 23.7346 330.433 23.7506 330.657 23.7586C330.881 23.7586 331.041 23.7586 331.137 23.7586C331.217 23.7586 331.285 23.7546 331.341 23.7466C331.405 23.7306 331.457 23.7026 331.497 23.6626C331.561 23.5986 331.613 23.4826 331.653 23.3146C331.693 23.1386 331.729 22.8826 331.761 22.5466C331.801 22.2106 331.837 21.7706 331.869 21.2266V21.0946ZM328.869 21.3466H329.757C329.709 21.7866 329.625 22.1906 329.505 22.5586C329.393 22.9186 329.229 23.2466 329.013 23.5426C328.805 23.8306 328.529 24.0866 328.185 24.3106C327.841 24.5346 327.413 24.7266 326.901 24.8866C326.853 24.7826 326.777 24.6626 326.673 24.5266C326.577 24.3906 326.485 24.2866 326.397 24.2146C326.853 24.0786 327.233 23.9226 327.537 23.7466C327.841 23.5706 328.081 23.3666 328.257 23.1346C328.433 22.8946 328.569 22.6266 328.665 22.3306C328.761 22.0346 328.829 21.7066 328.869 21.3466ZM327.981 25.7986V27.6226H331.497V25.7986H327.981ZM327.141 25.0426H332.385V28.3786H327.141V25.0426ZM325.725 29.1826L326.553 29.0986C326.633 29.4826 326.701 29.8986 326.757 30.3466C326.813 30.7946 326.845 31.1666 326.853 31.4626L325.977 31.5946C325.977 31.3946 325.965 31.1546 325.941 30.8746C325.917 30.6026 325.889 30.3186 325.857 30.0226C325.825 29.7266 325.781 29.4466 325.725 29.1826ZM328.293 29.1466L329.133 28.9906C329.245 29.2466 329.353 29.5186 329.457 29.8066C329.561 30.0866 329.653 30.3666 329.733 30.6466C329.813 30.9186 329.873 31.1626 329.913 31.3786L329.025 31.5706C328.985 31.3626 328.929 31.1186 328.857 30.8386C328.785 30.5586 328.701 30.2706 328.605 29.9746C328.509 29.6786 328.405 29.4026 328.293 29.1466ZM330.741 29.0866L331.557 28.7506C331.749 29.0066 331.945 29.2906 332.145 29.6026C332.353 29.9066 332.541 30.2066 332.709 30.5026C332.885 30.7906 333.021 31.0506 333.117 31.2826L332.265 31.6666C332.169 31.4346 332.037 31.1666 331.869 30.8626C331.709 30.5666 331.529 30.2626 331.329 29.9506C331.129 29.6386 330.933 29.3506 330.741 29.0866ZM323.733 28.8346L324.597 29.0866C324.381 29.5346 324.133 29.9986 323.853 30.4786C323.573 30.9506 323.297 31.3586 323.025 31.7026L322.161 31.3186C322.345 31.1186 322.533 30.8826 322.725 30.6106C322.917 30.3306 323.101 30.0386 323.277 29.7346C323.453 29.4306 323.605 29.1306 323.733 28.8346ZM335.109 21.3346H338.541V28.4986H335.109V27.6586H337.701V22.1626H335.109V21.3346ZM335.109 24.4546H338.073V25.2706H335.109V24.4546ZM340.185 21.1186H344.229V21.9586H340.185V21.1186ZM340.185 24.0346H344.229V24.8506H340.185V24.0346ZM340.101 26.9746H344.205V27.7906H340.101V26.9746ZM334.605 21.3346H335.457V29.6266H334.605V21.3346ZM343.893 21.1186H344.781V30.4546C344.781 30.7346 344.741 30.9506 344.661 31.1026C344.589 31.2626 344.457 31.3786 344.265 31.4506C344.065 31.5226 343.797 31.5666 343.461 31.5826C343.125 31.6066 342.697 31.6186 342.177 31.6186C342.169 31.5386 342.145 31.4426 342.105 31.3306C342.073 31.2266 342.033 31.1186 341.985 31.0066C341.945 30.9026 341.901 30.8106 341.853 30.7306C342.117 30.7386 342.365 30.7426 342.597 30.7426C342.837 30.7506 343.045 30.7506 343.221 30.7426C343.405 30.7426 343.529 30.7426 343.593 30.7426C343.705 30.7426 343.781 30.7226 343.821 30.6826C343.869 30.6346 343.893 30.5586 343.893 30.4546V21.1186ZM339.657 21.1186H340.533V25.4026C340.533 25.9066 340.505 26.4426 340.449 27.0106C340.393 27.5706 340.281 28.1346 340.113 28.7026C339.953 29.2626 339.709 29.8026 339.381 30.3226C339.053 30.8426 338.617 31.3106 338.073 31.7266C338.033 31.6626 337.973 31.5906 337.893 31.5106C337.813 31.4306 337.729 31.3506 337.641 31.2706C337.553 31.1986 337.477 31.1426 337.413 31.1026C337.925 30.7186 338.329 30.2946 338.625 29.8306C338.921 29.3586 339.145 28.8706 339.297 28.3666C339.449 27.8626 339.545 27.3586 339.585 26.8546C339.633 26.3506 339.657 25.8626 339.657 25.3906V21.1186Z" fill="var(--colors-sd-system-color-chart-component-on-chart-surface)"/>
<rect x="317.983" y="47.8359" width="10.9831" height="10.9831" rx="5.49153" transform="rotate(90 317.983 47.8359)" fill="var(--colors-sd-system-color-chart-mark-primary-05)"/>
<path d="M322.989 48.3391H332.409V49.1551H322.989V48.3391ZM322.305 51.1591H332.997V51.9751H322.305V51.1591ZM324.513 55.0471H330.861V55.7671H324.513V55.0471ZM324.525 57.0751H330.873V57.8431H324.525V57.0751ZM327.153 47.2471H328.089V48.7951H327.153V47.2471ZM324.069 53.0191H331.389V58.2631H330.453V53.7871H324.957V58.2991H324.069V53.0191ZM329.865 49.1191L330.837 49.3591C330.677 49.6791 330.509 50.0111 330.333 50.3551C330.165 50.6911 330.005 50.9791 329.853 51.2191L329.025 50.9911C329.121 50.8231 329.221 50.6311 329.325 50.4151C329.429 50.1911 329.529 49.9671 329.625 49.7431C329.721 49.5111 329.801 49.3031 329.865 49.1191ZM324.645 49.3591L325.497 49.1671C325.689 49.4471 325.857 49.7591 326.001 50.1031C326.145 50.4391 326.241 50.7311 326.289 50.9791L325.365 51.2191C325.317 50.9551 325.225 50.6511 325.089 50.3071C324.961 49.9551 324.813 49.6391 324.645 49.3591ZM338.289 48.6991H340.977V49.2271H338.289V48.6991ZM335.505 52.7671H344.001V53.3791H335.505V52.7671ZM336.465 56.4151H342.801V56.8831H336.465V56.4151ZM336.465 57.4351H342.801V57.9631H336.465V57.4351ZM334.269 54.2191H345.033V54.8551H334.269V54.2191ZM334.077 50.7751C334.477 50.7511 334.941 50.7191 335.469 50.6791C336.005 50.6311 336.565 50.5831 337.149 50.5351L337.161 51.1231C336.633 51.1871 336.117 51.2471 335.613 51.3031C335.109 51.3591 334.645 51.4111 334.221 51.4591L334.077 50.7751ZM337.413 51.4831C337.877 51.4431 338.425 51.3911 339.057 51.3271C339.697 51.2631 340.357 51.1951 341.037 51.1231L341.061 51.7111C340.437 51.7991 339.821 51.8831 339.213 51.9631C338.613 52.0351 338.069 52.1031 337.581 52.1671L337.413 51.4831ZM337.161 49.8631L337.869 49.9711C337.717 50.5151 337.481 50.9911 337.161 51.3991C336.841 51.8071 336.461 52.1591 336.021 52.4551C335.589 52.7511 335.117 53.0031 334.605 53.2111C334.573 53.1631 334.529 53.1031 334.473 53.0311C334.425 52.9511 334.369 52.8751 334.305 52.8031C334.249 52.7311 334.197 52.6711 334.149 52.6231C334.885 52.3831 335.521 52.0391 336.057 51.5911C336.593 51.1351 336.961 50.5591 337.161 49.8631ZM344.325 47.6311H344.445L344.565 47.5831L345.105 47.8711C344.953 48.1671 344.793 48.4551 344.625 48.7351C344.457 49.0151 344.289 49.2911 344.121 49.5631C344.465 49.8271 344.713 50.0791 344.865 50.3191C345.025 50.5591 345.109 50.7871 345.117 51.0031C345.117 51.2111 345.077 51.3911 344.997 51.5431C344.917 51.6871 344.805 51.7991 344.661 51.8791C344.597 51.9271 344.517 51.9671 344.421 51.9991C344.325 52.0231 344.233 52.0391 344.145 52.0471C344.025 52.0551 343.881 52.0631 343.713 52.0711C343.545 52.0711 343.381 52.0671 343.221 52.0591C343.213 51.9631 343.189 51.8551 343.149 51.7351C343.109 51.6071 343.053 51.4991 342.981 51.4111C343.157 51.4191 343.317 51.4271 343.461 51.4351C343.613 51.4351 343.741 51.4311 343.845 51.4231C343.909 51.4231 343.969 51.4191 344.025 51.4111C344.081 51.3951 344.129 51.3791 344.169 51.3631C344.329 51.2831 344.401 51.1351 344.385 50.9191C344.385 50.7511 344.301 50.5671 344.133 50.3671C343.973 50.1671 343.709 49.9431 343.341 49.6951C343.549 49.3271 343.733 48.9751 343.893 48.6391C344.061 48.3031 344.205 47.9991 344.325 47.7271V47.6311ZM334.221 48.8431L334.629 48.3391C334.821 48.4671 335.017 48.6111 335.217 48.7711C335.417 48.9231 335.605 49.0791 335.781 49.2391C335.965 49.3991 336.109 49.5391 336.213 49.6591L335.793 50.2471C335.689 50.1111 335.549 49.9631 335.373 49.8031C335.197 49.6351 335.005 49.4671 334.797 49.2991C334.597 49.1311 334.405 48.9791 334.221 48.8431ZM335.841 47.2351L336.513 47.4991C336.321 47.7951 336.117 48.0951 335.901 48.3991C335.685 48.6951 335.481 48.9551 335.289 49.1791L334.773 48.9391C334.893 48.7871 335.021 48.6111 335.157 48.4111C335.293 48.2111 335.421 48.0071 335.541 47.7991C335.661 47.5911 335.761 47.4031 335.841 47.2351ZM336.837 48.2191L337.497 48.5191C337.289 48.8151 337.057 49.1271 336.801 49.4551C336.545 49.7751 336.289 50.0831 336.033 50.3791C335.785 50.6751 335.545 50.9351 335.313 51.1591L334.785 50.8951C335.017 50.6631 335.257 50.3911 335.505 50.0791C335.761 49.7671 336.005 49.4471 336.237 49.1191C336.477 48.7911 336.677 48.4911 336.837 48.2191ZM341.937 47.6311H344.553V48.2911H342.681V52.5751H341.937V47.6311ZM338.001 47.6311H338.721V51.7471H338.001V47.6311ZM338.301 47.6311H341.325V50.3191H338.301V49.7671H340.593V48.1711H338.301V47.6311ZM339.165 52.0711H340.029V53.1391H339.165V52.0711ZM335.997 55.3471H343.425V58.2751H342.561V55.8751H336.825V58.2991H335.997V55.3471ZM337.053 53.5231L337.773 53.2711C337.909 53.3991 338.037 53.5471 338.157 53.7151C338.277 53.8751 338.357 54.0231 338.397 54.1591L337.653 54.4231C337.613 54.2871 337.533 54.1351 337.413 53.9671C337.301 53.7991 337.181 53.6511 337.053 53.5231ZM339.861 50.6791L340.389 50.3671C340.669 50.5831 340.941 50.8391 341.205 51.1351C341.477 51.4231 341.673 51.6791 341.793 51.9031L341.229 52.2631C341.109 52.0231 340.917 51.7591 340.653 51.4711C340.397 51.1751 340.133 50.9111 339.861 50.6791ZM341.553 53.1871L342.369 53.4631C342.217 53.6551 342.065 53.8431 341.913 54.0271C341.769 54.2031 341.637 54.3551 341.517 54.4831L340.881 54.2431C340.993 54.0911 341.113 53.9151 341.241 53.7151C341.377 53.5071 341.481 53.3311 341.553 53.1871Z" fill="var(--colors-sd-system-color-chart-component-on-chart-surface)"/>
<rect x="316.983" y="75.4795" width="8.98305" height="8.98305" rx="4.49153" transform="rotate(90 316.983 75.4795)" fill="white" stroke="var(--colors-sd-system-color-chart-mark-multi-02)" stroke-width="2"/>
<path d="M327.153 73.8907H328.077V75.6907H327.153V73.8907ZM327.153 80.8747H328.077V84.1987H327.153V80.8747ZM325.821 75.8347H326.757C326.693 76.3867 326.593 76.8867 326.457 77.3347C326.321 77.7747 326.113 78.1627 325.833 78.4987C325.561 78.8347 325.189 79.1267 324.717 79.3747C324.253 79.6147 323.657 79.8187 322.929 79.9867C322.905 79.9067 322.865 79.8227 322.809 79.7347C322.761 79.6387 322.705 79.5467 322.641 79.4587C322.577 79.3627 322.509 79.2827 322.437 79.2187C323.101 79.0907 323.641 78.9307 324.057 78.7387C324.481 78.5387 324.813 78.3027 325.053 78.0307C325.293 77.7507 325.469 77.4307 325.581 77.0707C325.693 76.7027 325.773 76.2907 325.821 75.8347ZM328.497 75.8107H329.385V78.3547C329.385 78.4987 329.417 78.5907 329.481 78.6307C329.545 78.6707 329.685 78.6907 329.901 78.6907C329.957 78.6907 330.053 78.6907 330.189 78.6907C330.325 78.6907 330.477 78.6907 330.645 78.6907C330.821 78.6907 330.981 78.6907 331.125 78.6907C331.277 78.6907 331.385 78.6907 331.449 78.6907C331.569 78.6907 331.657 78.6707 331.713 78.6307C331.777 78.5827 331.821 78.4907 331.845 78.3547C331.877 78.2107 331.897 77.9987 331.905 77.7187C331.969 77.7667 332.045 77.8107 332.133 77.8507C332.229 77.8907 332.325 77.9267 332.421 77.9587C332.525 77.9907 332.617 78.0187 332.697 78.0427C332.665 78.4187 332.609 78.7107 332.529 78.9187C332.449 79.1267 332.333 79.2747 332.181 79.3627C332.029 79.4427 331.817 79.4827 331.545 79.4827C331.481 79.4827 331.365 79.4827 331.197 79.4827C331.037 79.4827 330.861 79.4827 330.669 79.4827C330.477 79.4827 330.297 79.4827 330.129 79.4827C329.969 79.4827 329.865 79.4827 329.817 79.4827C329.465 79.4827 329.193 79.4507 329.001 79.3867C328.809 79.3227 328.677 79.2067 328.605 79.0387C328.533 78.8707 328.497 78.6427 328.497 78.3547V75.8107ZM322.581 75.1387H332.745V77.2987H331.821V75.9667H323.469V77.5627H322.581V75.1387ZM323.625 80.4907H331.893V81.3187H323.625V80.4907ZM322.365 83.7427H332.937V84.5707H322.365V83.7427ZM340.041 76.4467H343.293V77.1547H340.041V76.4467ZM339.933 78.2947H343.461V79.0027H339.933V78.2947ZM341.277 75.4147H342.009V78.7147H341.277V75.4147ZM339.057 74.3947H344.301V75.1747H339.057V74.3947ZM340.485 79.9147H343.221V83.0227H340.485V82.3267H342.525V80.6107H340.485V79.9147ZM340.113 79.9147H340.797V83.5027H340.113V79.9147ZM343.965 74.3947H344.805V83.7907C344.805 84.0547 344.773 84.2627 344.709 84.4147C344.645 84.5667 344.525 84.6827 344.349 84.7627C344.189 84.8347 343.957 84.8787 343.653 84.8947C343.349 84.9107 342.973 84.9187 342.525 84.9187C342.509 84.8467 342.485 84.7547 342.453 84.6427C342.429 84.5387 342.397 84.4307 342.357 84.3187C342.325 84.2067 342.289 84.1107 342.249 84.0307C342.577 84.0387 342.881 84.0427 343.161 84.0427C343.441 84.0427 343.629 84.0427 343.725 84.0427C343.821 84.0347 343.885 84.0147 343.917 83.9827C343.949 83.9507 343.965 83.8867 343.965 83.7907V74.3947ZM338.601 74.3947H339.417V78.7027C339.417 79.1747 339.405 79.6827 339.381 80.2267C339.357 80.7707 339.305 81.3267 339.225 81.8947C339.153 82.4547 339.041 83.0027 338.889 83.5387C338.737 84.0747 338.537 84.5627 338.289 85.0027C338.241 84.9547 338.173 84.8947 338.085 84.8227C337.997 84.7587 337.905 84.6987 337.809 84.6427C337.721 84.5867 337.645 84.5427 337.581 84.5107C337.901 83.9507 338.129 83.3347 338.265 82.6627C338.409 81.9907 338.501 81.3107 338.541 80.6227C338.581 79.9267 338.601 79.2867 338.601 78.7027V74.3947ZM334.593 77.5267H337.677V78.2347H334.593V77.5267ZM334.677 74.3107H337.653V75.0307H334.677V74.3107ZM334.593 79.1227H337.677V79.8427H334.593V79.1227ZM334.101 75.8827H337.989V76.6387H334.101V75.8827ZM335.013 80.7427H337.665V84.2347H335.013V83.4907H336.921V81.4867H335.013V80.7427ZM334.581 80.7427H335.325V84.7987H334.581V80.7427Z" fill="var(--colors-sd-system-color-chart-component-on-chart-surface)"/>
</svg>
