<svg fill="none" height="220" viewBox="0 0 618 220" width="618" xmlns="http://www.w3.org/2000/svg"><path d="m356.006 9.448c.429.24267.896.532 1.4.868.513.3267 1.031.6673 1.554 1.022s1.013.7 1.47 1.036c.467.336.859.6347 1.176.896l-1.33 1.582c-.308-.28-.691-.602-1.148-.966-.448-.3733-.933-.7513-1.456-1.134-.523-.392-1.041-.7653-1.554-1.12-.504-.3547-.957-.658-1.358-.91zm6.58-2.38c-.084.13067-.168.28467-.252.462s-.154.35467-.21.532c-.14.42933-.331.91-.574 1.442-.233.5227-.513 1.0593-.84 1.61-.327.5413-.7 1.0733-1.12 1.596-.663.8213-1.461 1.6007-2.394 2.338-.924.7373-2.058 1.3627-3.402 1.876l-1.624-1.414c.98-.2987 1.829-.6533 2.548-1.064s1.339-.8493 1.862-1.316c.532-.4667.994-.9333 1.386-1.4.317-.364.616-.77.896-1.218.289-.4573.537-.91.742-1.358.215-.45733.364-.86333.448-1.218h-4.732l.644-1.596h3.976c.224 0 .443-.014.658-.042.224-.028.411-.06533.56-.112zm-4.62-2.156c-.168.24267-.336.504-.504.784-.159.28-.28.49467-.364.644-.317.56-.719 1.15733-1.204 1.792-.485.62533-1.031 1.23667-1.638 1.834-.597.5973-1.232 1.1293-1.904 1.596l-1.512-1.162c.821-.51333 1.517-1.05 2.086-1.61.579-.56933 1.059-1.11533 1.442-1.638.383-.532.691-1.00333.924-1.414.112-.168.229-.392.35-.672.131-.28933.229-.55067.294-.784zm6.902 5.642c1.26-.3267 2.399-.70467 3.416-1.134 1.027-.43867 1.927-.896 2.702-1.372.485-.29867.971-.63933 1.456-1.022.495-.392.957-.79333 1.386-1.204.439-.41067.807-.80267 1.106-1.176l1.512 1.442c-.429.42-.901.84467-1.414 1.274-.504.42933-1.031.84-1.582 1.232s-1.097.75133-1.638 1.078c-.532.308-1.129.6253-1.792.952-.653.3267-1.344.6347-2.072.924s-1.461.546-2.198.77zm5.824-1.61 1.988-.462v6.3c0 .2053.005.4293.014.672s.023.4667.042.672c.019.2147.042.378.07.49h-2.212c.019-.112.033-.2753.042-.49.019-.2053.033-.4293.042-.672s.014-.4667.014-.672zm11.704 5.712c0-.1773 0-.4667 0-.868 0-.4107 0-.882 0-1.414 0-.5413 0-1.106 0-1.694s0-1.15267 0-1.694c0-.55067 0-1.036 0-1.456s0-.728 0-.924c0-.24267-.014-.52267-.042-.84-.019-.31733-.051-.59733-.098-.84h2.184c-.028.24267-.056.51333-.084.812-.028.28933-.042.57867-.042.868v1.064 1.498 1.666 1.624 1.372.826c0 .1307.005.3173.014.56.009.2333.028.476.056.728s.047.476.056.672h-2.184c.037-.28.07-.6067.098-.98s.042-.7.042-.98zm1.498-6.104c.467.12133.989.28 1.568.476.579.18667 1.162.38733 1.75.602s1.139.4293 1.652.644c.523.2053.957.3967 1.302.574l-.798 1.932c-.392-.2053-.826-.4107-1.302-.616-.476-.2147-.961-.42-1.456-.616-.485-.196-.966-.378-1.442-.546-.467-.168-.891-.3173-1.274-.448zm15.148 7.14c.028-.14.051-.2987.07-.476.028-.1867.042-.3733.042-.56 0-.1027 0-.308 0-.616s0-.6813 0-1.12 0-.91 0-1.414c0-.5133 0-1.0313 0-1.554 0-.52267 0-1.01267 0-1.47 0-.46667 0-.87267 0-1.218 0-.35467 0-.61133 0-.77 0-.31733-.019-.59267-.056-.826-.028-.23333-.047-.35933-.056-.378h2.086c-.009.01867-.028.14933-.056.392-.028.23333-.042.50867-.042.826v.714 1.078 1.288 1.358 1.26 1.008.616c.383-.168.779-.3967 1.19-.686s.812-.6253 1.204-1.008c.401-.392.756-.812 1.064-1.26l1.078 1.54c-.383.504-.849.9987-1.4 1.484-.541.4853-1.101.9287-1.68 1.33s-1.134.7373-1.666 1.008c-.149.084-.271.1587-.364.224-.093.0747-.173.14-.238.196zm-6.482-.21c.616-.4293 1.12-.9473 1.512-1.554s.681-1.204.868-1.792c.103-.308.177-.686.224-1.134.056-.4573.098-.9427.126-1.456.028-.52267.042-1.036.042-1.54.009-.51333.014-.98467.014-1.414 0-.28-.014-.518-.042-.714-.019-.20533-.047-.39667-.084-.574h2.058c-.009.01867-.023.098-.042.238-.009.13067-.023.28933-.042.476-.009.17733-.014.364-.014.56 0 .41067-.005.89133-.014 1.442-.009.54133-.028 1.09667-.056 1.666-.028.5693-.07 1.1107-.126 1.624-.056.504-.131.9333-.224 1.288-.215.7933-.537 1.5307-.966 2.212-.42.672-.929 1.274-1.526 1.806zm16.254-10.22c.233.03733.485.06533.756.084.271.00933.518.014.742.014h.84 1.288 1.428 1.26.812c.243 0 .495-.00467.756-.014.261-.01867.513-.04667.756-.084v1.806c-.243-.01867-.495-.03267-.756-.042s-.513-.014-.756-.014c-.168 0-.439 0-.812 0-.364 0-.784 0-1.26 0s-.952 0-1.428 0-.905 0-1.288 0c-.373 0-.649 0-.826 0-.243 0-.504.00467-.784.014-.271.00933-.513.02333-.728.042zm-1.624 3.584c.205.01867.425.03733.658.056.243.01867.471.028.686.028h.728 1.316 1.652 1.778 1.666 1.302.728c.149 0 .35-.00467.602-.014.261-.01867.485-.042.672-.07v1.82c-.168-.0187-.373-.028-.616-.028-.243-.0093-.462-.014-.658-.014-.121 0-.364 0-.728 0-.355 0-.789 0-1.302 0s-1.069 0-1.666 0c-.588 0-1.181 0-1.778 0-.588 0-1.139 0-1.652 0s-.952 0-1.316 0-.607 0-.728 0c-.205 0-.434.0047-.686.014-.243.0093-.462.0233-.658.042zm7.168.966c0 .9147-.079 1.736-.238 2.464-.159.7187-.387 1.3673-.686 1.946-.168.3173-.392.644-.672.98s-.602.6533-.966.952-.756.5507-1.176.756l-1.638-1.19c.495-.196.971-.476 1.428-.84s.826-.7513 1.106-1.162c.355-.5413.593-1.1387.714-1.792s.182-1.3533.182-2.1zm10.738-3.808c-.037-.20533-.084-.392-.14-.56-.047-.168-.093-.336-.14-.504l1.974-.322c.019.14.037.31733.056.532.028.20533.061.392.098.56.019.13067.061.37333.126.728s.145.784.238 1.288.196 1.05.308 1.638c.121.57867.238 1.1667.35 1.764.112.588.219 1.148.322 1.68.112.532.205 1.0033.28 1.414.084.4107.145.714.182.91.047.2053.103.4293.168.672s.131.476.196.7l-2.03.364c-.037-.2613-.065-.5133-.084-.756-.019-.2333-.051-.4527-.098-.658-.037-.1867-.093-.4713-.168-.854-.065-.392-.149-.8493-.252-1.372-.093-.5227-.196-1.078-.308-1.666s-.224-1.176-.336-1.764-.219-1.13867-.322-1.652c-.093-.51333-.177-.95667-.252-1.33-.075-.38267-.131-.65333-.168-.812zm-3.822 1.778c.224-.00933.443-.01867.658-.028.215-.01867.429-.042.644-.07.205-.028.495-.06533.868-.112.373-.056.803-.11667 1.288-.182.485-.07467.985-.154 1.498-.238.523-.084 1.027-.16333 1.512-.238.485-.084.915-.15867 1.288-.224.383-.06533.681-.11667.896-.154.224-.04667.457-.09333.7-.14.243-.056.448-.10733.616-.154l.336 1.834c-.149.00933-.35.03267-.602.07s-.481.07-.686.098c-.252.03733-.583.08867-.994.154-.401.06533-.849.14-1.344.224-.495.07467-.999.154-1.512.238-.513.07467-1.003.154-1.47.238-.467.07467-.877.14-1.232.196s-.621.098-.798.126c-.224.04667-.434.09333-.63.14-.196.03733-.415.08867-.658.154zm.014 4.116c.187-.0093.42-.028.7-.056.289-.0373.541-.07.756-.098.252-.0373.588-.0887 1.008-.154s.891-.14 1.414-.224c.532-.084 1.078-.168 1.638-.252.56-.0933 1.106-.1867 1.638-.28s1.017-.1773 1.456-.252.793-.1353 1.064-.182c.271-.056.527-.112.77-.168.252-.056.471-.112.658-.168l.378 1.848c-.187.0093-.415.0373-.686.084-.261.0373-.527.0793-.798.126-.299.0467-.672.1073-1.12.182s-.943.1587-1.484.252c-.532.084-1.078.1727-1.638.266-.56.084-1.097.1727-1.61.266-.513.084-.975.1587-1.386.224s-.733.1213-.966.168c-.299.056-.569.1073-.812.154-.233.0467-.429.0933-.588.14zm23.964-5.39c-.056.084-.14.21467-.252.392-.102.17733-.182.34067-.238.49-.196.43867-.438.92867-.728 1.47-.28.54133-.602 1.08733-.966 1.638-.354.5413-.732 1.05-1.134 1.526-.522.588-1.101 1.1713-1.736 1.75-.625.5693-1.288 1.0967-1.988 1.582-.69.476-1.4.8867-2.128 1.232l-1.442-1.512c.756-.2893 1.489-.6533 2.198-1.092.71-.4387 1.368-.9147 1.974-1.428.607-.5133 1.13-1.0127 1.568-1.498.308-.3547.598-.7327.868-1.134.28-.40133.528-.798.742-1.19.215-.40133.374-.77.476-1.106-.093 0-.261 0-.504 0-.242 0-.527 0-.854 0-.317 0-.653 0-1.008 0-.354 0-.695 0-1.022 0-.317 0-.597 0-.84 0-.242 0-.415 0-.518 0-.196 0-.401.00933-.616.028-.214.00933-.42.02333-.616.042-.186.00933-.331.01867-.434.028v-1.988c.14.00933.313.02333.518.042.206.01867.411.03267.616.042.215.00933.392.014.532.014h.574.896 1.036 1.036.868.532c.308 0 .588-.01867.84-.056.262-.03733.462-.07933.602-.126zm-3.136 4.354c.364.2893.752.6253 1.162 1.008.411.3827.817.7793 1.218 1.19.402.4107.77.8073 1.106 1.19.346.3733.635.7.868.98l-1.596 1.386c-.345-.476-.742-.9707-1.19-1.484-.438-.5133-.905-1.022-1.4-1.526-.485-.5133-.98-.9987-1.484-1.456zm9.856 3.794c0-.1773 0-.4667 0-.868 0-.4107 0-.882 0-1.414 0-.5413 0-1.106 0-1.694s0-1.15267 0-1.694c0-.55067 0-1.036 0-1.456s0-.728 0-.924c0-.24267-.014-.52267-.042-.84-.018-.31733-.051-.59733-.098-.84h2.184c-.028.24267-.056.51333-.084.812-.028.28933-.042.57867-.042.868v1.064 1.498 1.666 1.624 1.372.826c0 .1307.005.3173.014.56.01.2333.028.476.056.728s.047.476.056.672h-2.184c.038-.28.07-.6067.098-.98s.042-.7.042-.98zm1.498-6.104c.467.12133.99.28 1.568.476.579.18667 1.162.38733 1.75.602s1.139.4293 1.652.644c.523.2053.957.3967 1.302.574l-.798 1.932c-.392-.2053-.826-.4107-1.302-.616-.476-.2147-.961-.42-1.456-.616-.485-.196-.966-.378-1.442-.546-.466-.168-.891-.3173-1.274-.448z" fill="#073165"/><rect fill="#000" height="16" rx="8" width="16" x="350" y="36"/><path d="m376.348 45.76c0 .536-.068 1.012-.204 1.428s-.332.768-.588 1.056c-.248.288-.552.508-.912.66-.36.144-.764.216-1.212.216-.408 0-.788-.072-1.14-.216-.352-.152-.656-.372-.912-.66s-.456-.64-.6-1.056c-.136-.416-.204-.896-.204-1.44 0-.712.116-1.316.348-1.812s.564-.872.996-1.128c.44-.264.96-.396 1.56-.396.56 0 1.056.132 1.488.396.432.256.768.632 1.008 1.128.248.496.372 1.104.372 1.824zm-4.428 0c0 .48.052.896.156 1.248.112.344.28.608.504.792.232.184.524.276.876.276.36 0 .652-.092.876-.276.232-.184.4-.448.504-.792.112-.352.168-.768.168-1.248 0-.496-.056-.912-.168-1.248s-.28-.592-.504-.768c-.224-.184-.52-.276-.888-.276-.536 0-.924.2-1.164.6s-.36.964-.36 1.692zm9.074-3.348c.704 0 1.244.188 1.62.564.384.376.576.98.576 1.812v4.212h-1.296v-4.032c0-.504-.1-.88-.3-1.128-.192-.256-.492-.384-.9-.384-.6 0-1.012.196-1.236.588s-.336.956-.336 1.692v3.264h-1.296v-6.468h1.02l.18.864h.072c.136-.224.3-.408.492-.552s.408-.252.648-.324.492-.108.756-.108zm8.817 4.272c0 .512-.116.948-.348 1.308s-.564.64-.996.84c-.432.192-.96.288-1.584.288-.304 0-.596-.02-.876-.06-.272-.032-.524-.08-.756-.144-.224-.064-.436-.144-.636-.24v-1.224c.32.144.684.276 1.092.396.416.112.828.168 1.236.168.352 0 .64-.052.864-.156.232-.104.404-.248.516-.432.12-.184.18-.4.18-.648 0-.264-.06-.484-.18-.66-.112-.184-.3-.352-.564-.504-.256-.16-.6-.324-1.032-.492-.304-.128-.58-.264-.828-.408-.248-.152-.464-.328-.648-.528-.176-.2-.312-.432-.408-.696-.088-.264-.132-.572-.132-.924 0-.472.112-.876.336-1.212s.536-.592.936-.768c.4-.184.868-.276 1.404-.276.448 0 .86.048 1.236.144.376.088.732.212 1.068.372l-.42 1.068c-.312-.136-.628-.248-.948-.336-.312-.088-.636-.132-.972-.132-.296 0-.544.048-.744.144-.192.096-.336.228-.432.396s-.144.364-.144.588c0 .264.056.484.168.66s.292.34.54.492c.248.144.576.304.984.48.448.192.828.396 1.14.612.312.208.548.464.708.768.16.296.24.668.24 1.116zm6.737-4.152v6.468h-1.02l-.18-.852h-.072c-.12.224-.284.408-.492.552-.2.144-.42.248-.66.312-.24.072-.488.108-.744.108-.472 0-.872-.08-1.2-.24-.32-.168-.568-.424-.744-.768-.168-.352-.252-.8-.252-1.344v-4.236h1.308v4.044c0 .504.096.88.288 1.128s.492.372.9.372c.4 0 .712-.088.936-.264.232-.176.396-.432.492-.768.096-.344.144-.756.144-1.236v-3.276zm4.905-.12c.104 0 .22.008.348.024.128.008.236.02.324.036l-.132 1.188c-.088-.024-.188-.044-.3-.06s-.224-.024-.336-.024c-.216 0-.424.048-.624.144-.2.088-.38.22-.54.396-.16.168-.288.376-.384.624s-.144.532-.144.852v3.408h-1.296v-6.468h1.02l.168 1.152h.072c.12-.232.268-.444.444-.636.184-.192.392-.344.624-.456.232-.12.484-.18.756-.18zm4.828 1.092h-1.476v5.496h-1.308v-5.496h-.996v-.6l.996-.396v-.408c0-.552.076-.992.228-1.32.16-.336.392-.58.696-.732s.676-.228 1.116-.228c.264 0 .508.024.732.072s.42.1.588.156l-.324.972c-.12-.04-.26-.076-.42-.108-.152-.04-.308-.06-.468-.06-.288 0-.5.104-.636.312s-.204.524-.204.948v.42h1.476zm3.477-1.092c.76 0 1.332.18 1.716.54.392.352.588.908.588 1.668v4.38h-.924l-.252-.9h-.048c-.184.232-.368.424-.552.576-.176.152-.384.264-.624.336-.232.072-.52.108-.864.108-.36 0-.684-.068-.972-.204-.288-.144-.516-.36-.684-.648-.168-.296-.252-.664-.252-1.104 0-.656.232-1.156.696-1.5.472-.344 1.188-.532 2.148-.564l1.032-.036v-.36c0-.48-.1-.816-.3-1.008-.192-.192-.464-.288-.816-.288-.296 0-.588.048-.876.144s-.568.212-.84.348l-.396-.924c.296-.16.632-.292 1.008-.396.384-.112.788-.168 1.212-.168zm.228 3.504c-.656.032-1.112.156-1.368.372-.256.208-.384.504-.384.888 0 .336.088.58.264.732.184.152.42.228.708.228.44 0 .808-.14 1.104-.42.304-.28.456-.7.456-1.26v-.564zm6.372 3.204c-.568 0-1.068-.116-1.5-.348-.424-.232-.756-.592-.996-1.08-.232-.496-.348-1.124-.348-1.884 0-.8.128-1.448.384-1.944s.604-.86 1.044-1.092c.44-.24.944-.36 1.512-.36.336 0 .656.04.96.12.312.072.568.156.768.252l-.396 1.02c-.2-.08-.416-.152-.648-.216s-.452-.096-.66-.096c-.368 0-.672.088-.912.264-.232.168-.408.424-.528.768-.12.336-.18.76-.18 1.272 0 .488.06.9.18 1.236s.296.592.528.768c.24.168.528.252.864.252.328 0 .62-.04.876-.12.264-.08.508-.184.732-.312v1.104c-.224.136-.468.236-.732.3s-.58.096-.948.096zm5.529-6.708c.536 0 1 .12 1.392.36.392.232.692.568.9 1.008.216.44.324.96.324 1.56v.696h-4.068c.016.664.176 1.172.48 1.524s.732.528 1.284.528c.392 0 .74-.036 1.044-.108.312-.08.628-.196.948-.348v1.056c-.304.144-.616.252-.936.324-.312.072-.692.108-1.14.108-.584 0-1.104-.124-1.56-.372s-.812-.616-1.068-1.104c-.256-.496-.384-1.104-.384-1.824 0-.728.116-1.344.348-1.848s.556-.888.972-1.152c.424-.272.912-.408 1.464-.408zm0 .984c-.408 0-.736.148-.984.444s-.392.716-.432 1.26h2.748c0-.336-.048-.632-.144-.888s-.244-.456-.444-.6c-.192-.144-.44-.216-.744-.216z" fill="#696966"/><path d="m350 64c0-2.2091 1.791-4 4-4h260c2.209 0 4 1.7909 4 4v16c0 2.2091-1.791 4-4 4h-260c-2.209 0-4-1.7909-4-4z" fill="#fff"/><path d="m361.324 77.12c-.4 0-.784-.036-1.152-.108-.368-.064-.7-.16-.996-.288v-1.188c.296.136.628.26.996.372.368.104.784.156 1.248.156s.8-.068 1.008-.204.312-.34.312-.612c0-.168-.044-.304-.132-.408s-.244-.208-.468-.312c-.216-.104-.524-.236-.924-.396-.392-.176-.736-.344-1.032-.504s-.524-.352-.684-.576-.24-.512-.24-.864c0-.4.104-.732.312-.996s.5-.46.876-.588c.384-.128.832-.192 1.344-.192.376 0 .74.036 1.092.108s.708.184 1.068.336l-.384.984c-.336-.136-.648-.232-.936-.288-.28-.056-.564-.084-.852-.084-.432 0-.752.056-.96.168-.2.104-.3.276-.3.516 0 .168.052.308.156.42s.268.22.492.324c.224.096.512.22.864.372.408.16.76.316 1.056.468.304.152.536.344.696.576.16.224.24.532.24.924 0 .416-.104.764-.312 1.044-.2.28-.5.492-.9.636-.4.136-.896.204-1.488.204zm7.051 0c-.4 0-.76-.072-1.08-.216-.32-.152-.592-.372-.816-.66-.216-.288-.384-.64-.504-1.056-.112-.424-.168-.908-.168-1.452 0-.696.096-1.292.288-1.788.2-.496.5-.876.9-1.14s.9-.396 1.5-.396c.296 0 .556.04.78.12.232.072.432.18.6.324.168.136.308.304.42.504h.06c-.008-.112-.02-.228-.036-.348s-.028-.244-.036-.372-.012-.252-.012-.372v-2.388h1.248v9.12h-1.008l-.192-.864h-.06c-.12.2-.272.376-.456.528-.176.144-.384.256-.624.336-.232.08-.5.12-.804.12zm.348-1.044c.536 0 .932-.18 1.188-.54.264-.368.396-.876.396-1.524v-.228c0-.448-.048-.848-.144-1.2s-.256-.628-.48-.828-.532-.3-.924-.3c-.536 0-.948.2-1.236.6-.28.392-.42.988-.42 1.788 0 .752.132 1.312.396 1.68s.672.552 1.224.552zm7.268 1.044c-.248 0-.452-.072-.612-.216s-.24-.368-.24-.672c0-.32.08-.548.24-.684s.364-.204.612-.204.448.072.6.216c.16.136.24.36.24.672 0 .296-.08.52-.24.672-.152.144-.352.216-.6.216zm6.919 0c-.4 0-.784-.036-1.152-.108-.368-.064-.7-.16-.996-.288v-1.188c.296.136.628.26.996.372.368.104.784.156 1.248.156s.8-.068 1.008-.204.312-.34.312-.612c0-.168-.044-.304-.132-.408s-.244-.208-.468-.312c-.216-.104-.524-.236-.924-.396-.392-.176-.736-.344-1.032-.504s-.524-.352-.684-.576-.24-.512-.24-.864c0-.4.104-.732.312-.996s.5-.46.876-.588c.384-.128.832-.192 1.344-.192.376 0 .74.036 1.092.108s.708.184 1.068.336l-.384.984c-.336-.136-.648-.232-.936-.288-.28-.056-.564-.084-.852-.084-.432 0-.752.056-.96.168-.2.104-.3.276-.3.516 0 .168.052.308.156.42s.268.22.492.324c.224.096.512.22.864.372.408.16.76.316 1.056.468.304.152.536.344.696.576.16.224.24.532.24.924 0 .416-.104.764-.312 1.044-.2.28-.5.492-.9.636-.4.136-.896.204-1.488.204zm5.491 2.82c-.152 0-.304-.012-.456-.036-.152-.016-.288-.036-.408-.06v-1.02c.096.016.208.032.336.048s.248.024.36.024c.248 0 .452-.044.612-.132.168-.08.312-.204.432-.372.128-.168.244-.384.348-.648l.276-.72-2.664-6.492h1.296l1.452 3.78c.096.224.184.472.264.744.088.264.164.528.228.792h.036c.048-.184.096-.364.144-.54.056-.176.108-.348.156-.516.056-.176.108-.34.156-.492l1.224-3.768h1.332l-2.652 7.164c-.168.464-.356.864-.564 1.2-.2.336-.452.592-.756.768-.304.184-.688.276-1.152.276zm8.9-2.82c-.4 0-.784-.036-1.152-.108-.368-.064-.7-.16-.996-.288v-1.188c.296.136.628.26.996.372.368.104.784.156 1.248.156s.8-.068 1.008-.204.312-.34.312-.612c0-.168-.044-.304-.132-.408s-.244-.208-.468-.312c-.216-.104-.524-.236-.924-.396-.392-.176-.736-.344-1.032-.504s-.524-.352-.684-.576-.24-.512-.24-.864c0-.4.104-.732.312-.996s.5-.46.876-.588c.384-.128.832-.192 1.344-.192.376 0 .74.036 1.092.108s.708.184 1.068.336l-.384.984c-.336-.136-.648-.232-.936-.288-.28-.056-.564-.084-.852-.084-.432 0-.752.056-.96.168-.2.104-.3.276-.3.516 0 .168.052.308.156.42s.268.22.492.324c.224.096.512.22.864.372.408.16.76.316 1.056.468.304.152.536.344.696.576.16.224.24.532.24.924 0 .416-.104.764-.312 1.044-.2.28-.5.492-.9.636-.4.136-.896.204-1.488.204zm8.659 0c-.488 0-.916-.064-1.284-.192-.368-.136-.656-.36-.864-.672-.2-.32-.3-.752-.3-1.296v-3.372h-1.68v-.84l1.716-.24.24-1.668h.996v1.692h2.496v1.056h-2.496v3.168c0 .32.048.576.144.768s.244.332.444.42.444.132.732.132c.208 0 .424-.02.648-.06.232-.04.456-.08.672-.12v1.008c-.224.064-.46.116-.708.156s-.5.06-.756.06zm6.499 0c-.712 0-1.324-.128-1.836-.384-.504-.264-.892-.644-1.164-1.14s-.408-1.104-.408-1.824c0-.696.124-1.292.372-1.788.256-.504.612-.892 1.068-1.164s.996-.408 1.62-.408c.576 0 1.068.124 1.476.372.416.248.736.6.96 1.056.224.448.336.988.336 1.62v.6h-4.56c.016.488.12.88.312 1.176s.452.512.78.648c.328.128.704.192 1.128.192.336 0 .676-.044 1.02-.132.352-.096.704-.22 1.056-.372v1.092c-.36.16-.724.276-1.092.348s-.724.108-1.068.108zm1.2-4.02c-.008-.352-.076-.652-.204-.9-.12-.248-.292-.44-.516-.576s-.496-.204-.816-.204c-.488 0-.888.152-1.2.456-.312.296-.504.704-.576 1.224zm2.432 3.9v-6.468h.876l.168.744h.06c.104-.216.212-.384.324-.504.12-.128.252-.22.396-.276s.304-.084.48-.084c.336 0 .592.084.768.252.184.16.32.4.408.72h.048c.136-.312.304-.552.504-.72.208-.168.48-.252.816-.252s.596.088.78.264c.192.168.328.428.408.78.08.344.12.788.12 1.332v4.212h-1.128v-4.188c0-.28-.012-.516-.036-.708s-.076-.34-.156-.444c-.08-.112-.208-.168-.384-.168s-.324.076-.444.228c-.12.144-.212.364-.276.66-.056.288-.084.656-.084 1.104v3.516h-1.128v-4.188c0-.288-.02-.528-.06-.72-.032-.192-.092-.34-.18-.444s-.22-.156-.396-.156c-.192 0-.344.08-.456.24s-.192.388-.24.684c-.048.288-.072.644-.072 1.068v3.516zm10.267.12c-.248 0-.452-.072-.612-.216s-.24-.368-.24-.672c0-.32.08-.548.24-.684s.364-.204.612-.204.448.072.6.216c.16.136.24.36.24.672 0 .296-.08.52-.24.672-.152.144-.352.216-.6.216zm7.651 0c-.656 0-1.216-.116-1.68-.348-.456-.232-.804-.592-1.044-1.08s-.36-1.112-.36-1.872c0-.8.128-1.452.384-1.956.264-.504.636-.872 1.116-1.104s1.04-.348 1.68-.348c.36 0 .704.036 1.032.108s.636.18.924.324l-.372 1.032c-.272-.136-.532-.232-.78-.288s-.496-.084-.744-.084c-.448 0-.816.088-1.104.264-.288.168-.5.42-.636.756s-.204.76-.204 1.272c0 .528.072.956.216 1.284s.36.568.648.72.644.228 1.068.228c.32 0 .632-.036.936-.108.312-.08.6-.184.864-.312v1.128c-.272.128-.58.224-.924.288-.336.064-.676.096-1.02.096zm6.751 0c-.44 0-.844-.072-1.212-.216s-.688-.356-.96-.636c-.264-.288-.468-.64-.612-1.056s-.216-.9-.216-1.452c0-.736.124-1.348.372-1.836.256-.496.608-.872 1.056-1.128s.964-.384 1.548-.384 1.1.128 1.548.384c.456.248.812.62 1.068 1.116s.384 1.116.384 1.86c0 .544-.072 1.024-.216 1.44s-.348.768-.612 1.056c-.256.28-.568.492-.936.636-.36.144-.764.216-1.212.216zm0-1.032c.376 0 .688-.092.936-.276.256-.192.444-.464.564-.816.128-.352.192-.764.192-1.236 0-.48-.064-.892-.192-1.236-.12-.344-.308-.608-.564-.792-.248-.192-.564-.288-.948-.288-.576 0-1.008.208-1.296.624-.28.408-.42.972-.42 1.692 0 .472.064.884.192 1.236s.32.624.576.816c.256.184.576.276.96.276zm4.472.912v-.828l2.292-.228v-7.008l-2.112-.216v-.84h3.396v8.064l2.052.228v.828zm9.919.12c-.44 0-.844-.072-1.212-.216s-.688-.356-.96-.636c-.264-.288-.468-.64-.612-1.056s-.216-.9-.216-1.452c0-.736.124-1.348.372-1.836.256-.496.608-.872 1.056-1.128s.964-.384 1.548-.384 1.1.128 1.548.384c.456.248.812.62 1.068 1.116s.384 1.116.384 1.86c0 .544-.072 1.024-.216 1.44s-.348.768-.612 1.056c-.256.28-.568.492-.936.636-.36.144-.764.216-1.212.216zm0-1.032c.376 0 .688-.092.936-.276.256-.192.444-.464.564-.816.128-.352.192-.764.192-1.236 0-.48-.064-.892-.192-1.236-.12-.344-.308-.608-.564-.792-.248-.192-.564-.288-.948-.288-.576 0-1.008.208-1.296.624-.28.408-.42.972-.42 1.692 0 .472.064.884.192 1.236s.32.624.576.816c.256.184.576.276.96.276zm4.255.912v-.828l1.884-.228v-4.356l-1.656-.168v-.888h2.652l.168 1.152h.06c.224-.408.476-.72.756-.936.288-.224.656-.336 1.104-.336.232 0 .452.02.66.06.216.04.416.104.6.192l-.336 1.14c-.128-.064-.28-.116-.456-.156-.168-.048-.348-.072-.54-.072-.352 0-.66.1-.924.3-.256.2-.456.468-.6.804-.136.336-.204.708-.204 1.116v2.148l1.824.228v.828zm10.124.12c-.248 0-.452-.072-.612-.216s-.24-.368-.24-.672c0-.32.08-.548.24-.684s.364-.204.612-.204.448.072.6.216c.16.136.24.36.24.672 0 .296-.08.52-.24.672-.152.144-.352.216-.6.216zm7.651 0c-.656 0-1.216-.116-1.68-.348-.456-.232-.804-.592-1.044-1.08s-.36-1.112-.36-1.872c0-.8.128-1.452.384-1.956.264-.504.636-.872 1.116-1.104s1.04-.348 1.68-.348c.36 0 .704.036 1.032.108s.636.18.924.324l-.372 1.032c-.272-.136-.532-.232-.78-.288s-.496-.084-.744-.084c-.448 0-.816.088-1.104.264-.288.168-.5.42-.636.756s-.204.76-.204 1.272c0 .528.072.956.216 1.284s.36.568.648.72.644.228 1.068.228c.32 0 .632-.036.936-.108.312-.08.6-.184.864-.312v1.128c-.272.128-.58.224-.924.288-.336.064-.676.096-1.02.096zm6.751 0c-.44 0-.844-.072-1.212-.216s-.688-.356-.96-.636c-.264-.288-.468-.64-.612-1.056s-.216-.9-.216-1.452c0-.736.124-1.348.372-1.836.256-.496.608-.872 1.056-1.128s.964-.384 1.548-.384 1.1.128 1.548.384c.456.248.812.62 1.068 1.116s.384 1.116.384 1.86c0 .544-.072 1.024-.216 1.44s-.348.768-.612 1.056c-.256.28-.568.492-.936.636-.36.144-.764.216-1.212.216zm0-1.032c.376 0 .688-.092.936-.276.256-.192.444-.464.564-.816.128-.352.192-.764.192-1.236 0-.48-.064-.892-.192-1.236-.12-.344-.308-.608-.564-.792-.248-.192-.564-.288-.948-.288-.576 0-1.008.208-1.296.624-.28.408-.42.972-.42 1.692 0 .472.064.884.192 1.236s.32.624.576.816c.256.184.576.276.96.276zm4.112.912v-6.468h.876l.168.744h.06c.104-.216.212-.384.324-.504.12-.128.252-.22.396-.276s.304-.084.48-.084c.336 0 .592.084.768.252.184.16.32.4.408.72h.048c.136-.312.304-.552.504-.72.208-.168.48-.252.816-.252s.596.088.78.264c.192.168.328.428.408.78.08.344.12.788.12 1.332v4.212h-1.128v-4.188c0-.28-.012-.516-.036-.708s-.076-.34-.156-.444c-.08-.112-.208-.168-.384-.168s-.324.076-.444.228c-.12.144-.212.364-.276.66-.056.288-.084.656-.084 1.104v3.516h-1.128v-4.188c0-.288-.02-.528-.06-.72-.032-.192-.092-.34-.18-.444s-.22-.156-.396-.156c-.192 0-.344.08-.456.24s-.192.388-.24.684c-.048.288-.072.644-.072 1.068v3.516zm7.543 2.88v-9.348h1.008l.18.864h.06c.136-.208.296-.384.48-.528.184-.152.396-.264.636-.336.24-.08.512-.12.816-.12.4 0 .756.076 1.068.228.32.144.588.364.804.66.216.288.38.64.492 1.056.112.408.168.876.168 1.404 0 .72-.104 1.332-.312 1.836s-.504.884-.888 1.14-.836.384-1.356.384c-.288 0-.552-.04-.792-.12s-.452-.188-.636-.324c-.184-.144-.344-.3-.48-.468h-.072c.032.184.052.36.06.528.008.16.012.3.012.42v2.724zm2.832-3.804c.552 0 .952-.192 1.2-.576s.372-.972.372-1.764c0-.768-.124-1.34-.372-1.716-.24-.376-.644-.564-1.212-.564-.528 0-.924.18-1.188.54-.256.352-.384.86-.384 1.524v.228c0 .736.12 1.308.36 1.716s.648.612 1.224.612zm7.099 1.044c-.44 0-.844-.072-1.212-.216s-.688-.356-.96-.636c-.264-.288-.468-.64-.612-1.056s-.216-.9-.216-1.452c0-.736.124-1.348.372-1.836.256-.496.608-.872 1.056-1.128s.964-.384 1.548-.384 1.1.128 1.548.384c.456.248.812.62 1.068 1.116s.384 1.116.384 1.86c0 .544-.072 1.024-.216 1.44s-.348.768-.612 1.056c-.256.28-.568.492-.936.636-.36.144-.764.216-1.212.216zm0-1.032c.376 0 .688-.092.936-.276.256-.192.444-.464.564-.816.128-.352.192-.764.192-1.236 0-.48-.064-.892-.192-1.236-.12-.344-.308-.608-.564-.792-.248-.192-.564-.288-.948-.288-.576 0-1.008.208-1.296.624-.28.408-.42.972-.42 1.692 0 .472.064.884.192 1.236s.32.624.576.816c.256.184.576.276.96.276zm4.46.912v-6.468h.996l.192.912h.072c.128-.232.292-.424.492-.576s.432-.264.696-.336c.272-.08.564-.12.876-.12.672 0 1.204.192 1.596.576.392.376.588.952.588 1.728v4.284h-1.272v-4.02c0-.528-.108-.912-.324-1.152-.208-.248-.536-.372-.984-.372-.6 0-1.028.204-1.284.612-.248.408-.372.972-.372 1.692v3.24zm10.411.12c-.712 0-1.324-.128-1.836-.384-.504-.264-.892-.644-1.164-1.14s-.408-1.104-.408-1.824c0-.696.124-1.292.372-1.788.256-.504.612-.892 1.068-1.164s.996-.408 1.62-.408c.576 0 1.068.124 1.476.372.416.248.736.6.96 1.056.224.448.336.988.336 1.62v.6h-4.56c.016.488.12.88.312 1.176s.452.512.78.648c.328.128.704.192 1.128.192.336 0 .676-.044 1.02-.132.352-.096.704-.22 1.056-.372v1.092c-.36.16-.724.276-1.092.348s-.724.108-1.068.108zm1.2-4.02c-.008-.352-.076-.652-.204-.9-.12-.248-.292-.44-.516-.576s-.496-.204-.816-.204c-.488 0-.888.152-1.2.456-.312.296-.504.704-.576 1.224zm2.779 3.9v-6.468h.996l.192.912h.072c.128-.232.292-.424.492-.576s.432-.264.696-.336c.272-.08.564-.12.876-.12.672 0 1.204.192 1.596.576.392.376.588.952.588 1.728v4.284h-1.272v-4.02c0-.528-.108-.912-.324-1.152-.208-.248-.536-.372-.984-.372-.6 0-1.028.204-1.284.612-.248.408-.372.972-.372 1.692v3.24zm11.108.12c-.488 0-.916-.064-1.284-.192-.368-.136-.656-.36-.864-.672-.2-.32-.3-.752-.3-1.296v-3.372h-1.68v-.84l1.716-.24.24-1.668h.996v1.692h2.496v1.056h-2.496v3.168c0 .32.048.576.144.768s.244.332.444.42.444.132.732.132c.208 0 .424-.02.648-.06.232-.04.456-.08.672-.12v1.008c-.224.064-.46.116-.708.156s-.5.06-.756.06zm6.007 0c-.248 0-.452-.072-.612-.216s-.24-.368-.24-.672c0-.32.08-.548.24-.684s.364-.204.612-.204.448.072.6.216c.16.136.24.36.24.672 0 .296-.08.52-.24.672-.152.144-.352.216-.6.216zm7.207 0c-.44 0-.844-.072-1.212-.216s-.688-.356-.96-.636c-.264-.288-.468-.64-.612-1.056s-.216-.9-.216-1.452c0-.736.124-1.348.372-1.836.256-.496.608-.872 1.056-1.128s.964-.384 1.548-.384 1.1.128 1.548.384c.456.248.812.62 1.068 1.116s.384 1.116.384 1.86c0 .544-.072 1.024-.216 1.44s-.348.768-.612 1.056c-.256.28-.568.492-.936.636-.36.144-.764.216-1.212.216zm0-1.032c.376 0 .688-.092.936-.276.256-.192.444-.464.564-.816.128-.352.192-.764.192-1.236 0-.48-.064-.892-.192-1.236-.12-.344-.308-.608-.564-.792-.248-.192-.564-.288-.948-.288-.576 0-1.008.208-1.296.624-.28.408-.42.972-.42 1.692 0 .472.064.884.192 1.236s.32.624.576.816c.256.184.576.276.96.276zm4.459.912v-6.468h.996l.192.912h.072c.128-.232.292-.424.492-.576s.432-.264.696-.336c.272-.08.564-.12.876-.12.672 0 1.204.192 1.596.576.392.376.588.952.588 1.728v4.284h-1.272v-4.02c0-.528-.108-.912-.324-1.152-.208-.248-.536-.372-.984-.372-.6 0-1.028.204-1.284.612-.248.408-.372.972-.372 1.692v3.24zm9.668.12c-.448 0-.884-.04-1.308-.12-.424-.088-.78-.204-1.068-.348v-1.164c.336.152.716.284 1.14.396.424.104.848.156 1.272.156.368 0 .68-.048.936-.144s.448-.244.576-.444c.136-.2.204-.452.204-.756 0-.264-.06-.472-.18-.624-.12-.16-.32-.312-.6-.456-.272-.144-.644-.324-1.116-.54-.344-.16-.676-.34-.996-.54-.312-.2-.568-.452-.768-.756-.192-.312-.288-.708-.288-1.188 0-.504.112-.924.336-1.26s.54-.588.948-.756c.416-.176.908-.264 1.476-.264.4 0 .804.044 1.212.132s.78.212 1.116.372l-.408 1.032c-.304-.136-.624-.24-.96-.312-.328-.08-.644-.12-.948-.12-.296 0-.556.044-.78.132-.224.08-.396.208-.516.384-.112.176-.168.408-.168.696 0 .272.056.492.168.66.112.16.292.304.54.432s.564.28.948.456c.456.208.856.412 1.2.612s.612.444.804.732.288.676.288 1.164c0 .392-.068.74-.204 1.044-.136.296-.336.548-.6.756-.256.208-.572.368-.948.48-.376.104-.812.156-1.308.156zm6.883 0c-.744 0-1.3-.192-1.668-.576-.368-.392-.552-.968-.552-1.728v-4.284h1.272v4.032c0 .488.096.864.288 1.128.192.256.532.384 1.02.384.432 0 .768-.092 1.008-.276s.408-.448.504-.792.144-.756.144-1.236v-3.24h1.272v6.468h-.996l-.192-.852h-.072c-.144.224-.316.408-.516.552s-.428.248-.684.312c-.248.072-.524.108-.828.108zm4.831-.12v-.828l1.884-.228v-4.356l-1.656-.168v-.888h2.652l.168 1.152h.06c.224-.408.476-.72.756-.936.288-.224.656-.336 1.104-.336.232 0 .452.02.66.06.216.04.416.104.6.192l-.336 1.14c-.128-.064-.28-.116-.456-.156-.168-.048-.348-.072-.54-.072-.352 0-.66.1-.924.3-.256.2-.456.468-.6.804-.136.336-.204.708-.204 1.116v2.148l1.824.228v.828zm9.32 0v-5.412h-1.992v-.84l1.992-.216v-.636c0-.512.096-.92.288-1.224s.464-.52.816-.648c.36-.136.788-.204 1.284-.204.336 0 .644.024.924.072.288.048.544.108.768.18l-.3.984c-.176-.048-.38-.088-.612-.12-.224-.04-.436-.06-.636-.06-.408 0-.72.088-.936.264-.216.168-.324.472-.324.912v.48h2.328v1.056h-2.328v5.412zm7.267.12c-.648 0-1.16-.164-1.536-.492s-.564-.804-.564-1.428c0-.472.108-.86.324-1.164.224-.312.548-.544.972-.696.432-.16.952-.248 1.56-.264l1.404-.036v-.276c0-.496-.136-.84-.408-1.032-.264-.192-.632-.288-1.104-.288-.328 0-.648.04-.96.12s-.62.196-.924.348l-.42-.936c.32-.16.672-.292 1.056-.396.392-.112.828-.168 1.308-.168.84 0 1.488.184 1.944.552s.684.94.684 1.716v4.32h-.996l-.168-.876h-.048c-.184.232-.384.42-.6.564-.208.144-.44.252-.696.324s-.532.108-.828.108zm.312-1.02c.336 0 .644-.06.924-.18.28-.128.504-.312.672-.552.168-.248.252-.552.252-.912v-.564l-1.104.024c-.456.016-.828.072-1.116.168-.28.096-.488.232-.624.408-.128.176-.192.388-.192.636 0 .344.108.592.324.744.224.152.512.228.864.228zm8.071 1.02c-.656 0-1.216-.116-1.68-.348-.456-.232-.804-.592-1.044-1.08s-.36-1.112-.36-1.872c0-.8.128-1.452.384-1.956.264-.504.636-.872 1.116-1.104s1.04-.348 1.68-.348c.36 0 .704.036 1.032.108s.636.18.924.324l-.372 1.032c-.272-.136-.532-.232-.78-.288s-.496-.084-.744-.084c-.448 0-.816.088-1.104.264-.288.168-.5.42-.636.756s-.204.76-.204 1.272c0 .528.072.956.216 1.284s.36.568.648.72.644.228 1.068.228c.32 0 .632-.036.936-.108.312-.08.6-.184.864-.312v1.128c-.272.128-.58.224-.924.288-.336.064-.676.096-1.02.096zm7.232 0c-.712 0-1.324-.128-1.836-.384-.504-.264-.892-.644-1.164-1.14s-.408-1.104-.408-1.824c0-.696.124-1.292.372-1.788.256-.504.612-.892 1.068-1.164s.996-.408 1.62-.408c.576 0 1.068.124 1.476.372.416.248.736.6.96 1.056.224.448.336.988.336 1.62v.6h-4.56c.016.488.12.88.312 1.176s.452.512.78.648c.328.128.704.192 1.128.192.336 0 .676-.044 1.02-.132.352-.096.704-.22 1.056-.372v1.092c-.36.16-.724.276-1.092.348s-.724.108-1.068.108zm1.2-4.02c-.008-.352-.076-.652-.204-.9-.12-.248-.292-.44-.516-.576s-.496-.204-.816-.204c-.488 0-.888.152-1.2.456-.312.296-.504.704-.576 1.224z" fill="#696966"/><path d="m356.385 122.047h2.044v6.576c0 .766-.164 1.411-.492 1.935-.324.524-.773.918-1.347 1.182-.57.265-1.226.397-1.969.397s-1.404-.132-1.982-.397c-.575-.264-1.026-.658-1.354-1.182-.323-.524-.485-1.169-.485-1.935v-6.576h2.051v6.576c0 .447.07.811.211 1.094.142.282.345.49.609.622.269.132.586.198.95.198.374 0 .691-.066.95-.198.265-.132.465-.34.602-.622.141-.283.212-.647.212-1.094zm5.913 0v9.953h-2.044v-9.953zm9.306.363c-.093.709-.215 1.465-.364 2.268s-.35 1.615-.602 2.436c-.271.943-.588 1.755-.952 2.436s-.765 1.209-1.204 1.582c-.429.364-.901.546-1.414.546s-.989-.173-1.428-.518c-.429-.355-.775-.84-1.036-1.456-.252-.616-.378-1.316-.378-2.1 0-.812.163-1.577.49-2.296s.779-1.353 1.358-1.904c.588-.56 1.269-.999 2.044-1.316.784-.317 1.629-.476 2.534-.476.868 0 1.647.14 2.338.42.7.28 1.297.667 1.792 1.162s.873 1.073 1.134 1.736.392 1.377.392 2.142c0 .98-.201 1.857-.602 2.632s-.999 1.414-1.792 1.918c-.784.504-1.764.849-2.94 1.036l-1.05-1.666c.271-.028.509-.061.714-.098s.401-.079.588-.126c.448-.112.863-.271 1.246-.476.392-.215.733-.476 1.022-.784.289-.317.513-.686.672-1.106.168-.42.252-.882.252-1.386 0-.551-.084-1.055-.252-1.512s-.415-.854-.742-1.19c-.327-.345-.723-.607-1.19-.784-.467-.187-1.003-.28-1.61-.28-.747 0-1.405.135-1.974.406-.569.261-1.05.602-1.442 1.022s-.691.873-.896 1.358c-.196.485-.294.947-.294 1.386 0 .467.056.859.168 1.176.112.308.247.541.406.7.168.149.345.224.532.224.196 0 .387-.098.574-.294.196-.205.387-.513.574-.924s.373-.929.56-1.554c.215-.672.397-1.391.546-2.156s.257-1.512.322-2.24zm8.162 3.458h7.868v1.218h-6.16v6.174h-1.708zm7.434 0h1.736v5.698c0 .411-.061.723-.182.938-.112.224-.313.392-.602.504s-.644.177-1.064.196c-.42.028-.915.042-1.484.042-.028-.224-.093-.476-.196-.756-.103-.271-.21-.509-.322-.714.224.009.462.019.714.028s.476.014.672.014h.406c.131-.009.215-.033.252-.07.047-.037.07-.103.07-.196zm-6.104 1.946h6.594v1.162h-6.594zm-2.702-6.65h4.27v1.288h-4.27zm-.336 2.66c.579-.065 1.269-.154 2.072-.266.812-.112 1.638-.229 2.478-.35l.07 1.218c-.765.14-1.531.28-2.296.42-.765.131-1.465.252-2.1.364zm3.038 5.922h6.608v1.162h-6.608zm.518-9.66h1.68v5.474h-1.68zm7.56.546 1.078 1.204c-.42.149-.877.294-1.372.434-.485.14-.975.266-1.47.378s-.975.215-1.442.308c-.028-.149-.089-.341-.182-.574-.084-.233-.168-.425-.252-.574.429-.112.863-.229 1.302-.35.448-.131.873-.266 1.274-.406.401-.149.756-.289 1.064-.42zm-4.41-.532h1.708v3.43c0 .224.037.364.112.42s.243.084.504.084h.294.448.476.336c.14 0 .247-.023.322-.07.084-.056.14-.159.168-.308.037-.159.065-.387.084-.686.177.121.411.233.7.336s.551.182.784.238c-.056.485-.154.868-.294 1.148s-.336.476-.588.588-.588.168-1.008.168c-.065 0-.168 0-.308 0-.131 0-.275 0-.434 0s-.322 0-.49 0c-.159 0-.303 0-.434 0s-.229 0-.294 0c-.56 0-.994-.056-1.302-.168-.299-.112-.504-.308-.616-.588-.112-.289-.168-.672-.168-1.148zm10.472 3.024v.602h6.09v-.602zm0-1.554v.588h6.09v-.588zm-1.61-1.036h9.38v4.242h-9.38zm-1.54 4.802h12.404v1.302h-12.404zm3.486 2.912v.91h5.516v-.91zm-1.61-1.148h8.82v3.22h-8.82zm3.486-2.576h1.722v1.554h-1.722zm.07 5.124h1.68v2.17c0 .355-.051.625-.154.812s-.289.327-.56.42c-.28.093-.607.145-.98.154-.364.019-.793.028-1.288.028-.037-.196-.103-.415-.196-.658s-.187-.453-.28-.63c.196.009.397.019.602.028h.574c.168-.009.28-.014.336-.014.103-.009.173-.028.21-.056s.056-.079.056-.154zm2.296 1.596 1.12-.882c.383.131.798.299 1.246.504.448.196.877.401 1.288.616.42.205.77.401 1.05.588l-1.204.994c-.243-.187-.565-.392-.966-.616-.392-.215-.812-.429-1.26-.644s-.873-.401-1.274-.56zm-4.718-.896 1.54.616c-.317.271-.686.541-1.106.812-.42.261-.849.504-1.288.728s-.863.415-1.274.574c-.093-.103-.215-.229-.364-.378-.14-.149-.289-.299-.448-.448-.149-.149-.289-.266-.42-.35.411-.121.826-.266 1.246-.434s.812-.345 1.176-.532c.373-.196.686-.392.938-.588z" fill="#073165"/><rect fill="#fff" height="16" rx="8" width="16" x="350" y="152"/><path d="m375.028 163.176c0 .424-.096.78-.288 1.068s-.472.508-.84.66c-.368.144-.82.216-1.356.216-.424 0-.796-.036-1.116-.108-.312-.064-.6-.16-.864-.288v-1.116c.28.136.6.26.96.372.36.104.704.156 1.032.156.424 0 .732-.076.924-.228s.288-.356.288-.612c0-.144-.04-.272-.12-.384-.072-.12-.212-.24-.42-.36-.208-.128-.508-.272-.9-.432-.384-.168-.708-.332-.972-.492-.256-.168-.456-.364-.6-.588-.136-.232-.204-.528-.204-.888 0-.56.216-.988.648-1.284.432-.304.996-.456 1.692-.456.384 0 .74.04 1.068.12.328.072.648.184.96.336l-.396.972c-.184-.088-.372-.16-.564-.216-.184-.064-.368-.116-.552-.156s-.368-.06-.552-.06c-.344 0-.604.06-.78.18s-.264.288-.264.504c0 .16.04.296.12.408.088.112.236.224.444.336.216.112.512.244.888.396s.696.308.96.468.464.356.6.588.204.528.204.888zm6.708-4.644v6.468h-1.02l-.18-.852h-.072c-.12.224-.284.408-.492.552-.2.144-.42.248-.66.312-.24.072-.488.108-.744.108-.472 0-.872-.08-1.2-.24-.32-.168-.568-.424-.744-.768-.168-.352-.252-.8-.252-1.344v-4.236h1.308v4.044c0 .504.096.88.288 1.128s.492.372.9.372c.4 0 .712-.088.936-.264.232-.176.396-.432.492-.768.096-.344.144-.756.144-1.236v-3.276zm4.905-.12c.104 0 .22.008.348.024.128.008.236.02.324.036l-.132 1.188c-.088-.024-.188-.044-.3-.06s-.224-.024-.336-.024c-.216 0-.424.048-.624.144-.2.088-.38.22-.54.396-.16.168-.288.376-.384.624s-.144.532-.144.852v3.408h-1.296v-6.468h1.02l.168 1.152h.072c.12-.232.268-.444.444-.636.184-.192.392-.344.624-.456.232-.12.484-.18.756-.18zm4.827 1.092h-1.476v5.496h-1.308v-5.496h-.996v-.6l.996-.396v-.408c0-.552.076-.992.228-1.32.16-.336.392-.58.696-.732s.676-.228 1.116-.228c.264 0 .508.024.732.072s.42.1.588.156l-.324.972c-.12-.04-.26-.076-.42-.108-.152-.04-.308-.06-.468-.06-.288 0-.5.104-.636.312s-.204.524-.204.948v.42h1.476zm3.478-1.092c.76 0 1.332.18 1.716.54.392.352.588.908.588 1.668v4.38h-.924l-.252-.9h-.048c-.184.232-.368.424-.552.576-.176.152-.384.264-.624.336-.232.072-.52.108-.864.108-.36 0-.684-.068-.972-.204-.288-.144-.516-.36-.684-.648-.168-.296-.252-.664-.252-1.104 0-.656.232-1.156.696-1.5.472-.344 1.188-.532 2.148-.564l1.032-.036v-.36c0-.48-.1-.816-.3-1.008-.192-.192-.464-.288-.816-.288-.296 0-.588.048-.876.144s-.568.212-.84.348l-.396-.924c.296-.16.632-.292 1.008-.396.384-.112.788-.168 1.212-.168zm.228 3.504c-.656.032-1.112.156-1.368.372-.256.208-.384.504-.384.888 0 .336.088.58.264.732.184.152.42.228.708.228.44 0 .808-.14 1.104-.42.304-.28.456-.7.456-1.26v-.564zm6.371 3.204c-.568 0-1.068-.116-1.5-.348-.424-.232-.756-.592-.996-1.08-.232-.496-.348-1.124-.348-1.884 0-.8.128-1.448.384-1.944s.604-.86 1.044-1.092c.44-.24.944-.36 1.512-.36.336 0 .656.04.96.12.312.072.568.156.768.252l-.396 1.02c-.2-.08-.416-.152-.648-.216s-.452-.096-.66-.096c-.368 0-.672.088-.912.264-.232.168-.408.424-.528.768-.12.336-.18.76-.18 1.272 0 .488.06.9.18 1.236s.296.592.528.768c.24.168.528.252.864.252.328 0 .62-.04.876-.12.264-.08.508-.184.732-.312v1.104c-.224.136-.468.236-.732.3s-.58.096-.948.096zm5.53-6.708c.536 0 1 .12 1.392.36.392.232.692.568.9 1.008.216.44.324.96.324 1.56v.696h-4.068c.016.664.176 1.172.48 1.524s.732.528 1.284.528c.392 0 .74-.036 1.044-.108.312-.08.628-.196.948-.348v1.056c-.304.144-.616.252-.936.324-.312.072-.692.108-1.14.108-.584 0-1.104-.124-1.56-.372s-.812-.616-1.068-1.104c-.256-.496-.384-1.104-.384-1.824 0-.728.116-1.344.348-1.848s.556-.888.972-1.152c.424-.272.912-.408 1.464-.408zm0 .984c-.408 0-.736.148-.984.444s-.392.716-.432 1.26h2.748c0-.336-.048-.632-.144-.888s-.244-.456-.444-.6c-.192-.144-.44-.216-.744-.216z" fill="#696966"/><path d="m350 180c0-2.209 1.791-4 4-4h246c2.209 0 4 1.791 4 4v16c0 2.209-1.791 4-4 4h-246c-2.209 0-4-1.791-4-4z" fill="#fff"/><path d="m361.324 193.12c-.4 0-.784-.036-1.152-.108-.368-.064-.7-.16-.996-.288v-1.188c.296.136.628.26.996.372.368.104.784.156 1.248.156s.8-.068 1.008-.204.312-.34.312-.612c0-.168-.044-.304-.132-.408s-.244-.208-.468-.312c-.216-.104-.524-.236-.924-.396-.392-.176-.736-.344-1.032-.504s-.524-.352-.684-.576-.24-.512-.24-.864c0-.4.104-.732.312-.996s.5-.46.876-.588c.384-.128.832-.192 1.344-.192.376 0 .74.036 1.092.108s.708.184 1.068.336l-.384.984c-.336-.136-.648-.232-.936-.288-.28-.056-.564-.084-.852-.084-.432 0-.752.056-.96.168-.2.104-.3.276-.3.516 0 .168.052.308.156.42s.268.22.492.324c.224.096.512.22.864.372.408.16.76.316 1.056.468.304.152.536.344.696.576.16.224.24.532.24.924 0 .416-.104.764-.312 1.044-.2.28-.5.492-.9.636-.4.136-.896.204-1.488.204zm7.051 0c-.4 0-.76-.072-1.08-.216-.32-.152-.592-.372-.816-.66-.216-.288-.384-.64-.504-1.056-.112-.424-.168-.908-.168-1.452 0-.696.096-1.292.288-1.788.2-.496.5-.876.9-1.14s.9-.396 1.5-.396c.296 0 .556.04.78.12.232.072.432.18.6.324.168.136.308.304.42.504h.06c-.008-.112-.02-.228-.036-.348s-.028-.244-.036-.372-.012-.252-.012-.372v-2.388h1.248v9.12h-1.008l-.192-.864h-.06c-.12.2-.272.376-.456.528-.176.144-.384.256-.624.336-.232.08-.5.12-.804.12zm.348-1.044c.536 0 .932-.18 1.188-.54.264-.368.396-.876.396-1.524v-.228c0-.448-.048-.848-.144-1.2s-.256-.628-.48-.828-.532-.3-.924-.3c-.536 0-.948.2-1.236.6-.28.392-.42.988-.42 1.788 0 .752.132 1.312.396 1.68s.672.552 1.224.552zm7.268 1.044c-.248 0-.452-.072-.612-.216s-.24-.368-.24-.672c0-.32.08-.548.24-.684s.364-.204.612-.204.448.072.6.216c.16.136.24.36.24.672 0 .296-.08.52-.24.672-.152.144-.352.216-.6.216zm6.919 0c-.4 0-.784-.036-1.152-.108-.368-.064-.7-.16-.996-.288v-1.188c.296.136.628.26.996.372.368.104.784.156 1.248.156s.8-.068 1.008-.204.312-.34.312-.612c0-.168-.044-.304-.132-.408s-.244-.208-.468-.312c-.216-.104-.524-.236-.924-.396-.392-.176-.736-.344-1.032-.504s-.524-.352-.684-.576-.24-.512-.24-.864c0-.4.104-.732.312-.996s.5-.46.876-.588c.384-.128.832-.192 1.344-.192.376 0 .74.036 1.092.108s.708.184 1.068.336l-.384.984c-.336-.136-.648-.232-.936-.288-.28-.056-.564-.084-.852-.084-.432 0-.752.056-.96.168-.2.104-.3.276-.3.516 0 .168.052.308.156.42s.268.22.492.324c.224.096.512.22.864.372.408.16.76.316 1.056.468.304.152.536.344.696.576.16.224.24.532.24.924 0 .416-.104.764-.312 1.044-.2.28-.5.492-.9.636-.4.136-.896.204-1.488.204zm5.491 2.82c-.152 0-.304-.012-.456-.036-.152-.016-.288-.036-.408-.06v-1.02c.096.016.208.032.336.048s.248.024.36.024c.248 0 .452-.044.612-.132.168-.08.312-.204.432-.372.128-.168.244-.384.348-.648l.276-.72-2.664-6.492h1.296l1.452 3.78c.096.224.184.472.264.744.088.264.164.528.228.792h.036c.048-.184.096-.364.144-.54.056-.176.108-.348.156-.516.056-.176.108-.34.156-.492l1.224-3.768h1.332l-2.652 7.164c-.168.464-.356.864-.564 1.2-.2.336-.452.592-.756.768-.304.184-.688.276-1.152.276zm8.9-2.82c-.4 0-.784-.036-1.152-.108-.368-.064-.7-.16-.996-.288v-1.188c.296.136.628.26.996.372.368.104.784.156 1.248.156s.8-.068 1.008-.204.312-.34.312-.612c0-.168-.044-.304-.132-.408s-.244-.208-.468-.312c-.216-.104-.524-.236-.924-.396-.392-.176-.736-.344-1.032-.504s-.524-.352-.684-.576-.24-.512-.24-.864c0-.4.104-.732.312-.996s.5-.46.876-.588c.384-.128.832-.192 1.344-.192.376 0 .74.036 1.092.108s.708.184 1.068.336l-.384.984c-.336-.136-.648-.232-.936-.288-.28-.056-.564-.084-.852-.084-.432 0-.752.056-.96.168-.2.104-.3.276-.3.516 0 .168.052.308.156.42s.268.22.492.324c.224.096.512.22.864.372.408.16.76.316 1.056.468.304.152.536.344.696.576.16.224.24.532.24.924 0 .416-.104.764-.312 1.044-.2.28-.5.492-.9.636-.4.136-.896.204-1.488.204zm8.659 0c-.488 0-.916-.064-1.284-.192-.368-.136-.656-.36-.864-.672-.2-.32-.3-.752-.3-1.296v-3.372h-1.68v-.84l1.716-.24.24-1.668h.996v1.692h2.496v1.056h-2.496v3.168c0 .32.048.576.144.768s.244.332.444.42.444.132.732.132c.208 0 .424-.02.648-.06.232-.04.456-.08.672-.12v1.008c-.224.064-.46.116-.708.156s-.5.06-.756.06zm6.499 0c-.712 0-1.324-.128-1.836-.384-.504-.264-.892-.644-1.164-1.14s-.408-1.104-.408-1.824c0-.696.124-1.292.372-1.788.256-.504.612-.892 1.068-1.164s.996-.408 1.62-.408c.576 0 1.068.124 1.476.372.416.248.736.6.96 1.056.224.448.336.988.336 1.62v.6h-4.56c.016.488.12.88.312 1.176s.452.512.78.648c.328.128.704.192 1.128.192.336 0 .676-.044 1.02-.132.352-.096.704-.22 1.056-.372v1.092c-.36.16-.724.276-1.092.348s-.724.108-1.068.108zm1.2-4.02c-.008-.352-.076-.652-.204-.9-.12-.248-.292-.44-.516-.576s-.496-.204-.816-.204c-.488 0-.888.152-1.2.456-.312.296-.504.704-.576 1.224zm2.432 3.9v-6.468h.876l.168.744h.06c.104-.216.212-.384.324-.504.12-.128.252-.22.396-.276s.304-.084.48-.084c.336 0 .592.084.768.252.184.16.32.4.408.72h.048c.136-.312.304-.552.504-.72.208-.168.48-.252.816-.252s.596.088.78.264c.192.168.328.428.408.78.08.344.12.788.12 1.332v4.212h-1.128v-4.188c0-.28-.012-.516-.036-.708s-.076-.34-.156-.444c-.08-.112-.208-.168-.384-.168s-.324.076-.444.228c-.12.144-.212.364-.276.66-.056.288-.084.656-.084 1.104v3.516h-1.128v-4.188c0-.288-.02-.528-.06-.72-.032-.192-.092-.34-.18-.444s-.22-.156-.396-.156c-.192 0-.344.08-.456.24s-.192.388-.24.684c-.048.288-.072.644-.072 1.068v3.516zm10.267.12c-.248 0-.452-.072-.612-.216s-.24-.368-.24-.672c0-.32.08-.548.24-.684s.364-.204.612-.204.448.072.6.216c.16.136.24.36.24.672 0 .296-.08.52-.24.672-.152.144-.352.216-.6.216zm7.651 0c-.656 0-1.216-.116-1.68-.348-.456-.232-.804-.592-1.044-1.08s-.36-1.112-.36-1.872c0-.8.128-1.452.384-1.956.264-.504.636-.872 1.116-1.104s1.04-.348 1.68-.348c.36 0 .704.036 1.032.108s.636.18.924.324l-.372 1.032c-.272-.136-.532-.232-.78-.288s-.496-.084-.744-.084c-.448 0-.816.088-1.104.264-.288.168-.5.42-.636.756s-.204.76-.204 1.272c0 .528.072.956.216 1.284s.36.568.648.72.644.228 1.068.228c.32 0 .632-.036.936-.108.312-.08.6-.184.864-.312v1.128c-.272.128-.58.224-.924.288-.336.064-.676.096-1.02.096zm6.751 0c-.44 0-.844-.072-1.212-.216s-.688-.356-.96-.636c-.264-.288-.468-.64-.612-1.056s-.216-.9-.216-1.452c0-.736.124-1.348.372-1.836.256-.496.608-.872 1.056-1.128s.964-.384 1.548-.384 1.1.128 1.548.384c.456.248.812.62 1.068 1.116s.384 1.116.384 1.86c0 .544-.072 1.024-.216 1.44s-.348.768-.612 1.056c-.256.28-.568.492-.936.636-.36.144-.764.216-1.212.216zm0-1.032c.376 0 .688-.092.936-.276.256-.192.444-.464.564-.816.128-.352.192-.764.192-1.236 0-.48-.064-.892-.192-1.236-.12-.344-.308-.608-.564-.792-.248-.192-.564-.288-.948-.288-.576 0-1.008.208-1.296.624-.28.408-.42.972-.42 1.692 0 .472.064.884.192 1.236s.32.624.576.816c.256.184.576.276.96.276zm4.472.912v-.828l2.292-.228v-7.008l-2.112-.216v-.84h3.396v8.064l2.052.228v.828zm9.919.12c-.44 0-.844-.072-1.212-.216s-.688-.356-.96-.636c-.264-.288-.468-.64-.612-1.056s-.216-.9-.216-1.452c0-.736.124-1.348.372-1.836.256-.496.608-.872 1.056-1.128s.964-.384 1.548-.384 1.1.128 1.548.384c.456.248.812.62 1.068 1.116s.384 1.116.384 1.86c0 .544-.072 1.024-.216 1.44s-.348.768-.612 1.056c-.256.28-.568.492-.936.636-.36.144-.764.216-1.212.216zm0-1.032c.376 0 .688-.092.936-.276.256-.192.444-.464.564-.816.128-.352.192-.764.192-1.236 0-.48-.064-.892-.192-1.236-.12-.344-.308-.608-.564-.792-.248-.192-.564-.288-.948-.288-.576 0-1.008.208-1.296.624-.28.408-.42.972-.42 1.692 0 .472.064.884.192 1.236s.32.624.576.816c.256.184.576.276.96.276zm4.255.912v-.828l1.884-.228v-4.356l-1.656-.168v-.888h2.652l.168 1.152h.06c.224-.408.476-.72.756-.936.288-.224.656-.336 1.104-.336.232 0 .452.02.66.06.216.04.416.104.6.192l-.336 1.14c-.128-.064-.28-.116-.456-.156-.168-.048-.348-.072-.54-.072-.352 0-.66.1-.924.3-.256.2-.456.468-.6.804-.136.336-.204.708-.204 1.116v2.148l1.824.228v.828zm10.124.12c-.248 0-.452-.072-.612-.216s-.24-.368-.24-.672c0-.32.08-.548.24-.684s.364-.204.612-.204.448.072.6.216c.16.136.24.36.24.672 0 .296-.08.52-.24.672-.152.144-.352.216-.6.216zm7.651 0c-.656 0-1.216-.116-1.68-.348-.456-.232-.804-.592-1.044-1.08s-.36-1.112-.36-1.872c0-.8.128-1.452.384-1.956.264-.504.636-.872 1.116-1.104s1.04-.348 1.68-.348c.36 0 .704.036 1.032.108s.636.18.924.324l-.372 1.032c-.272-.136-.532-.232-.78-.288s-.496-.084-.744-.084c-.448 0-.816.088-1.104.264-.288.168-.5.42-.636.756s-.204.76-.204 1.272c0 .528.072.956.216 1.284s.36.568.648.72.644.228 1.068.228c.32 0 .632-.036.936-.108.312-.08.6-.184.864-.312v1.128c-.272.128-.58.224-.924.288-.336.064-.676.096-1.02.096zm6.751 0c-.44 0-.844-.072-1.212-.216s-.688-.356-.96-.636c-.264-.288-.468-.64-.612-1.056s-.216-.9-.216-1.452c0-.736.124-1.348.372-1.836.256-.496.608-.872 1.056-1.128s.964-.384 1.548-.384 1.1.128 1.548.384c.456.248.812.62 1.068 1.116s.384 1.116.384 1.86c0 .544-.072 1.024-.216 1.44s-.348.768-.612 1.056c-.256.28-.568.492-.936.636-.36.144-.764.216-1.212.216zm0-1.032c.376 0 .688-.092.936-.276.256-.192.444-.464.564-.816.128-.352.192-.764.192-1.236 0-.48-.064-.892-.192-1.236-.12-.344-.308-.608-.564-.792-.248-.192-.564-.288-.948-.288-.576 0-1.008.208-1.296.624-.28.408-.42.972-.42 1.692 0 .472.064.884.192 1.236s.32.624.576.816c.256.184.576.276.96.276zm4.112.912v-6.468h.876l.168.744h.06c.104-.216.212-.384.324-.504.12-.128.252-.22.396-.276s.304-.084.48-.084c.336 0 .592.084.768.252.184.16.32.4.408.72h.048c.136-.312.304-.552.504-.72.208-.168.48-.252.816-.252s.596.088.78.264c.192.168.328.428.408.78.08.344.12.788.12 1.332v4.212h-1.128v-4.188c0-.28-.012-.516-.036-.708s-.076-.34-.156-.444c-.08-.112-.208-.168-.384-.168s-.324.076-.444.228c-.12.144-.212.364-.276.66-.056.288-.084.656-.084 1.104v3.516h-1.128v-4.188c0-.288-.02-.528-.06-.72-.032-.192-.092-.34-.18-.444s-.22-.156-.396-.156c-.192 0-.344.08-.456.24s-.192.388-.24.684c-.048.288-.072.644-.072 1.068v3.516zm7.543 2.88v-9.348h1.008l.18.864h.06c.136-.208.296-.384.48-.528.184-.152.396-.264.636-.336.24-.08.512-.12.816-.12.4 0 .756.076 1.068.228.32.144.588.364.804.66.216.288.38.64.492 1.056.112.408.168.876.168 1.404 0 .72-.104 1.332-.312 1.836s-.504.884-.888 1.14-.836.384-1.356.384c-.288 0-.552-.04-.792-.12s-.452-.188-.636-.324c-.184-.144-.344-.3-.48-.468h-.072c.032.184.052.36.06.528.008.16.012.3.012.42v2.724zm2.832-3.804c.552 0 .952-.192 1.2-.576s.372-.972.372-1.764c0-.768-.124-1.34-.372-1.716-.24-.376-.644-.564-1.212-.564-.528 0-.924.18-1.188.54-.256.352-.384.86-.384 1.524v.228c0 .736.12 1.308.36 1.716s.648.612 1.224.612zm7.099 1.044c-.44 0-.844-.072-1.212-.216s-.688-.356-.96-.636c-.264-.288-.468-.64-.612-1.056s-.216-.9-.216-1.452c0-.736.124-1.348.372-1.836.256-.496.608-.872 1.056-1.128s.964-.384 1.548-.384 1.1.128 1.548.384c.456.248.812.62 1.068 1.116s.384 1.116.384 1.86c0 .544-.072 1.024-.216 1.44s-.348.768-.612 1.056c-.256.28-.568.492-.936.636-.36.144-.764.216-1.212.216zm0-1.032c.376 0 .688-.092.936-.276.256-.192.444-.464.564-.816.128-.352.192-.764.192-1.236 0-.48-.064-.892-.192-1.236-.12-.344-.308-.608-.564-.792-.248-.192-.564-.288-.948-.288-.576 0-1.008.208-1.296.624-.28.408-.42.972-.42 1.692 0 .472.064.884.192 1.236s.32.624.576.816c.256.184.576.276.96.276zm4.46.912v-6.468h.996l.192.912h.072c.128-.232.292-.424.492-.576s.432-.264.696-.336c.272-.08.564-.12.876-.12.672 0 1.204.192 1.596.576.392.376.588.952.588 1.728v4.284h-1.272v-4.02c0-.528-.108-.912-.324-1.152-.208-.248-.536-.372-.984-.372-.6 0-1.028.204-1.284.612-.248.408-.372.972-.372 1.692v3.24zm10.411.12c-.712 0-1.324-.128-1.836-.384-.504-.264-.892-.644-1.164-1.14s-.408-1.104-.408-1.824c0-.696.124-1.292.372-1.788.256-.504.612-.892 1.068-1.164s.996-.408 1.62-.408c.576 0 1.068.124 1.476.372.416.248.736.6.96 1.056.224.448.336.988.336 1.62v.6h-4.56c.016.488.12.88.312 1.176s.452.512.78.648c.328.128.704.192 1.128.192.336 0 .676-.044 1.02-.132.352-.096.704-.22 1.056-.372v1.092c-.36.16-.724.276-1.092.348s-.724.108-1.068.108zm1.2-4.02c-.008-.352-.076-.652-.204-.9-.12-.248-.292-.44-.516-.576s-.496-.204-.816-.204c-.488 0-.888.152-1.2.456-.312.296-.504.704-.576 1.224zm2.779 3.9v-6.468h.996l.192.912h.072c.128-.232.292-.424.492-.576s.432-.264.696-.336c.272-.08.564-.12.876-.12.672 0 1.204.192 1.596.576.392.376.588.952.588 1.728v4.284h-1.272v-4.02c0-.528-.108-.912-.324-1.152-.208-.248-.536-.372-.984-.372-.6 0-1.028.204-1.284.612-.248.408-.372.972-.372 1.692v3.24zm11.108.12c-.488 0-.916-.064-1.284-.192-.368-.136-.656-.36-.864-.672-.2-.32-.3-.752-.3-1.296v-3.372h-1.68v-.84l1.716-.24.24-1.668h.996v1.692h2.496v1.056h-2.496v3.168c0 .32.048.576.144.768s.244.332.444.42.444.132.732.132c.208 0 .424-.02.648-.06.232-.04.456-.08.672-.12v1.008c-.224.064-.46.116-.708.156s-.5.06-.756.06zm6.007 0c-.248 0-.452-.072-.612-.216s-.24-.368-.24-.672c0-.32.08-.548.24-.684s.364-.204.612-.204.448.072.6.216c.16.136.24.36.24.672 0 .296-.08.52-.24.672-.152.144-.352.216-.6.216zm6.919 0c-.4 0-.784-.036-1.152-.108-.368-.064-.7-.16-.996-.288v-1.188c.296.136.628.26.996.372.368.104.784.156 1.248.156s.8-.068 1.008-.204.312-.34.312-.612c0-.168-.044-.304-.132-.408s-.244-.208-.468-.312c-.216-.104-.524-.236-.924-.396-.392-.176-.736-.344-1.032-.504s-.524-.352-.684-.576-.24-.512-.24-.864c0-.4.104-.732.312-.996s.5-.46.876-.588c.384-.128.832-.192 1.344-.192.376 0 .74.036 1.092.108s.708.184 1.068.336l-.384.984c-.336-.136-.648-.232-.936-.288-.28-.056-.564-.084-.852-.084-.432 0-.752.056-.96.168-.2.104-.3.276-.3.516 0 .168.052.308.156.42s.268.22.492.324c.224.096.512.22.864.372.408.16.76.316 1.056.468.304.152.536.344.696.576.16.224.24.532.24.924 0 .416-.104.764-.312 1.044-.2.28-.5.492-.9.636-.4.136-.896.204-1.488.204zm6.907 0c-.744 0-1.3-.192-1.668-.576-.368-.392-.552-.968-.552-1.728v-4.284h1.272v4.032c0 .488.096.864.288 1.128.192.256.532.384 1.02.384.432 0 .768-.092 1.008-.276s.408-.448.504-.792.144-.756.144-1.236v-3.24h1.272v6.468h-.996l-.192-.852h-.072c-.144.224-.316.408-.516.552s-.428.248-.684.312c-.248.072-.524.108-.828.108zm4.832-.12v-.828l1.884-.228v-4.356l-1.656-.168v-.888h2.652l.168 1.152h.06c.224-.408.476-.72.756-.936.288-.224.656-.336 1.104-.336.232 0 .452.02.66.06.216.04.416.104.6.192l-.336 1.14c-.128-.064-.28-.116-.456-.156-.168-.048-.348-.072-.54-.072-.352 0-.66.1-.924.3-.256.2-.456.468-.6.804-.136.336-.204.708-.204 1.116v2.148l1.824.228v.828zm9.319 0v-5.412h-1.992v-.84l1.992-.216v-.636c0-.512.096-.92.288-1.224s.464-.52.816-.648c.36-.136.788-.204 1.284-.204.336 0 .644.024.924.072.288.048.544.108.768.18l-.3.984c-.176-.048-.38-.088-.612-.12-.224-.04-.436-.06-.636-.06-.408 0-.72.088-.936.264-.216.168-.324.472-.324.912v.48h2.328v1.056h-2.328v5.412zm7.267.12c-.648 0-1.16-.164-1.536-.492s-.564-.804-.564-1.428c0-.472.108-.86.324-1.164.224-.312.548-.544.972-.696.432-.16.952-.248 1.56-.264l1.404-.036v-.276c0-.496-.136-.84-.408-1.032-.264-.192-.632-.288-1.104-.288-.328 0-.648.04-.96.12s-.62.196-.924.348l-.42-.936c.32-.16.672-.292 1.056-.396.392-.112.828-.168 1.308-.168.84 0 1.488.184 1.944.552s.684.94.684 1.716v4.32h-.996l-.168-.876h-.048c-.184.232-.384.42-.6.564-.208.144-.44.252-.696.324s-.532.108-.828.108zm.312-1.02c.336 0 .644-.06.924-.18.28-.128.504-.312.672-.552.168-.248.252-.552.252-.912v-.564l-1.104.024c-.456.016-.828.072-1.116.168-.28.096-.488.232-.624.408-.128.176-.192.388-.192.636 0 .344.108.592.324.744.224.152.512.228.864.228zm8.072 1.02c-.656 0-1.216-.116-1.68-.348-.456-.232-.804-.592-1.044-1.08s-.36-1.112-.36-1.872c0-.8.128-1.452.384-1.956.264-.504.636-.872 1.116-1.104s1.04-.348 1.68-.348c.36 0 .704.036 1.032.108s.636.18.924.324l-.372 1.032c-.272-.136-.532-.232-.78-.288s-.496-.084-.744-.084c-.448 0-.816.088-1.104.264-.288.168-.5.42-.636.756s-.204.76-.204 1.272c0 .528.072.956.216 1.284s.36.568.648.72.644.228 1.068.228c.32 0 .632-.036.936-.108.312-.08.6-.184.864-.312v1.128c-.272.128-.58.224-.924.288-.336.064-.676.096-1.02.096zm7.231 0c-.712 0-1.324-.128-1.836-.384-.504-.264-.892-.644-1.164-1.14s-.408-1.104-.408-1.824c0-.696.124-1.292.372-1.788.256-.504.612-.892 1.068-1.164s.996-.408 1.62-.408c.576 0 1.068.124 1.476.372.416.248.736.6.96 1.056.224.448.336.988.336 1.62v.6h-4.56c.016.488.12.88.312 1.176s.452.512.78.648c.328.128.704.192 1.128.192.336 0 .676-.044 1.02-.132.352-.096.704-.22 1.056-.372v1.092c-.36.16-.724.276-1.092.348s-.724.108-1.068.108zm1.2-4.02c-.008-.352-.076-.652-.204-.9-.12-.248-.292-.44-.516-.576s-.496-.204-.816-.204c-.488 0-.888.152-1.2.456-.312.296-.504.704-.576 1.224z" fill="#696966"/><rect fill="#fff" height="219" rx="7.5" width="303" x=".5" y=".5"/><rect height="219" rx="7.5" stroke="#c8c7c2" width="303" x=".5" y=".5"/><path d="m20.25 22.2896h6.0694v.9217h-6.0694zm-.0425 2.4674h6.1119v.9076h-6.1119zm6.2112-8.636 1.021.397c-.2458.4727-.5153.9549-.8083 1.4465-.2836.4821-.5531.8934-.8083 1.2337l-.9076-.3829c.1702-.2458.3451-.52.5247-.8225.1891-.312.3687-.6334.5389-.9643.1796-.3309.3261-.6334.4396-.9075zm-7.2606.4821.8934-.4112c.208.2647.4112.553.6098.865.1985.312.3734.6192.5247.9217.1607.3026.2788.5767.3545.8225l-.9501.468c-.0662-.2364-.1749-.5105-.3262-.8225s-.3214-.6287-.5105-.9501-.3876-.6192-.5956-.8934zm.3971 3.1623h6.8067v1.0069h-5.7574v7.9979h-1.0493zm6.282 0h1.0352v7.6718c0 .2931-.0378.52-.1134.6807-.0756.1702-.2174.3025-.4254.397-.2175.0851-.5105.1324-.8792.1419-.3593.0189-.8083.0283-1.3472.0283-.0189-.1323-.0615-.2978-.1276-.4963-.0662-.1985-.1371-.3687-.2127-.5105.4065.0094.7752.0142 1.1061.0142.3403.0094.5672.0094.6806 0 .1891-.0095.2836-.0993.2836-.2695zm-3.0914-4.0557h1.0636v4.6797h-1.0636zm-7.3598.8934.6382-.7232c.293.1418.5956.3072.9075.4963.312.1891.6051.3829.8792.5814.2837.1986.5105.3829.6807.5531l-.6523.8225c-.1702-.1797-.3923-.3687-.6665-.5673-.2647-.208-.5578-.4159-.8792-.6239-.312-.208-.6145-.3876-.9076-.5389zm-.6665 3.8005.6098-.7516c.3025.1323.6145.293.9359.4821.3215.1891.624.3829.9076.5814.2931.1986.5247.3829.6949.5531l-.624.8366c-.1796-.1796-.4112-.3687-.6948-.5672-.2837-.208-.5862-.4112-.9076-.6098-.312-.1985-.6192-.3734-.9218-.5246zm.4396 7.5299c.2364-.3687.4916-.8083.7658-1.3188.2836-.5105.5672-1.0493.8508-1.6166.2931-.5672.5578-1.1203.7942-1.6591l.7941.6381c-.2175.5011-.4538 1.0257-.7091 1.5741-.2552.5483-.5199 1.0872-.7941 1.6166-.2647.5199-.5247 1.0068-.7799 1.4606zm15.6981-9.9123h8.9056v-.7941h-9.8699v-.7233h10.8483v2.2264h-9.884zm-.3261 0h1.0068c-.1323.4065-.2789.8272-.4396 1.2621-.1513.4254-.2883.7941-.4112 1.1061l-.9927-.0567c.1418-.3215.2884-.6902.4396-1.1061.1513-.4255.2836-.8273.3971-1.2054zm-.0709 1.4748h10.5221v.709h-10.7348zm10.1676 0h1.0068s-.0047.0425-.0142.1276v.2269c-.0472.4349-.0992.7705-.156 1.0068-.0567.2269-.1418.3924-.2552.4964-.0851.0851-.1891.1512-.312.1985-.1134.0378-.2411.0614-.3829.0709-.1229 0-.3025 0-.5388 0-.2269-.0095-.4633-.0189-.7091-.0284-.0094-.104-.0331-.2221-.0709-.3545-.0378-.1418-.0851-.26-.1418-.3545.2269.0189.4302.0331.6098.0425.1796.0095.3072.0142.3829.0142.0851 0 .1512-.0047.1985-.0142.0473-.0094.0898-.0378.1276-.085.0567-.0568.104-.1749.1418-.3546.0473-.189.0851-.4774.1135-.865zm-7.2606-3.7721h.9785v2.5525c0 .4727-.0567.9171-.1702 1.333-.104.416-.3167.8036-.6381 1.1629-.312.3497-.7799.6665-1.4039.9501-.6145.2836-1.437.5247-2.4674.7232-.0284-.0851-.071-.1796-.1277-.2836s-.1181-.2033-.1843-.2978c-.0662-.104-.1324-.1891-.1986-.2553.9454-.1701 1.697-.3734 2.2548-.6098.5578-.2363.9785-.4963 1.2621-.7799s.4679-.5909.553-.9217c.0946-.3309.1418-.676.1418-1.0352zm3.1765 0h1.021v5.5447h-1.021zm-4.5662 7.7994v.8792h7.1188v-.8792zm0 1.5457v.8934h7.1188v-.8934zm0-3.0772v.8792h7.1188v-.8792zm-1.0352-.6807h9.2317v5.3462h-9.2317zm5.6581 6.0552.8509-.5672c.52.1418 1.0494.2978 1.5882.4679.5389.1608 1.0447.3215 1.5174.4822.4821.1702.8934.3261 1.2337.468l-1.1345.5672c-.3025-.1418-.6712-.2931-1.1061-.4538-.4254-.1607-.8933-.3262-1.4039-.4963-.501-.1702-1.0162-.3262-1.5457-.468zm-3.2615-.5814.9501.4396c-.3782.208-.8225.4112-1.333.6098-.5105.1985-1.0305.3829-1.5599.553-.52.1702-1.021.312-1.5032.4254-.0472-.0756-.1181-.1654-.2127-.2694-.0945-.0945-.1938-.1891-.2978-.2836-.0945-.0945-.1796-.1749-.2552-.2411.4916-.0945.9926-.208 1.5031-.3403.52-.1229 1.0163-.26 1.489-.4113.4727-.1512.8792-.3119 1.2196-.4821zm12.0253-2.4816h8.5084v.709h-8.5084zm.0283-1.7585h9.0899v4.2259h-9.0899v-.7799h8.0405v-2.666h-8.0405zm3.6303.3829h1.0352v4.2826c0 .2364.0662.3924.1985.468.1324.0756.4207.1134.865.1134h.4255.709.7941.7374.5105c.2553 0 .4444-.0425.5673-.1276.1323-.0756.2269-.2316.2836-.468.0567-.2458.0945-.605.1134-1.0777.1135.0756.26.1465.4396.2127s.3404.1135.4822.1418c-.0473.5767-.1277 1.021-.2411 1.333s-.2931.5294-.5389.6523c-.2458.1324-.5908.1986-1.0352.1986-.0756 0-.2269 0-.4538 0-.2174 0-.4726 0-.7657 0-.2836 0-.572 0-.865 0-.2931 0-.5531 0-.78 0-.2174 0-.364 0-.4396 0-.5199 0-.9312-.0426-1.2337-.1277-.3025-.0756-.5152-.2174-.6381-.4254-.1135-.208-.1702-.5058-.1702-.8934zm-4.1692-.3829h1.0211v4.9633h-1.0211zm-.4112-6.2111h10.3661v.8225h-10.3661zm.8934 3.2474h3.0063v.6665h-3.0063zm-.2836 1.4464h3.2899v.6807h-3.2899zm5.8141 0h3.4034v.6807h-3.4034zm0-1.4464h3.0488v.6665h-3.0488zm-1.801-2.9354h1.0494v5.417h-1.0494zm-5.4454 1.3755h12.0395v2.7794h-.9927v-1.9995h-10.0825v1.9995h-.9643zm14.28.7941h11.0043v1.0919h-11.0043zm10.5931 0h1.0919v.1135c0 .0756-.0047.1559-.0142.241 0 .0851-.0047.156-.0142.2127-.0756 1.4654-.156 2.7133-.241 3.7438-.0757 1.0304-.1655 1.8813-.2695 2.5525-.0945.6618-.2032 1.1865-.3261 1.5741-.1135.3781-.2506.6523-.4113.8224-.1702.208-.3498.3498-.5388.4255-.1797.0756-.4066.1276-.6807.156-.2364.0189-.5673.0236-.9927.0141-.4159-.0094-.8414-.0236-1.2762-.0425-.0095-.1607-.0473-.3451-.1135-.5531-.0567-.2079-.1418-.3876-.2552-.5388.4916.0378.9406.0662 1.3471.0851.416.0094.7138.0141.8934.0141.1513 0 .2742-.0141.3687-.0425.104-.0284.1985-.0898.2836-.1843.1324-.1229.2506-.364.3545-.7233.1135-.3687.2128-.8792.2978-1.5315.0946-.6618.1797-1.4937.2553-2.4958.0851-1.0021.1654-2.2075.2411-3.6161zm-5.956-3.063h1.1061v2.4532c0 .6524-.0283 1.3425-.085 2.0704-.0568.7185-.1797 1.4559-.3687 2.2122-.1891.7469-.4775 1.4937-.8651 2.2406-.3876.7468-.9075 1.4701-1.5598 2.1696-.6524.6902-1.4748 1.333-2.4675 1.9286-.0567-.0945-.1324-.1938-.2269-.2978s-.1938-.208-.2978-.3119c-.104-.0946-.2032-.1702-.2978-.2269.9454-.5673 1.7253-1.1723 2.3398-1.8152.624-.6428 1.1156-1.3046 1.4748-1.9853.3687-.6901.6382-1.3802.8083-2.0704.1797-.6901.2978-1.3661.3546-2.0278.0567-.6618.085-1.2905.085-1.8861z" fill="#000"/><path clip-rule="evenodd" d="m277.053 17.2461 4.857 4.857c.294.2942.294.7712 0 1.0654l-4.857 4.857-.752-.7521 4.637-4.6376-4.637-4.6377z" fill="#000" fill-rule="evenodd"/><path d="m16.4327 164.191c.13.02.2698.033.4193.039.1495.007.3022.01.4582.01h.5264.8775.9847.8871.5557c.156 0 .312-.003.468-.01.156-.006.2957-.019.4192-.039v.81c-.117-.013-.2567-.02-.4192-.02-.156-.006-.3152-.01-.4777-.01-.1105 0-.2957 0-.5557 0-.2535 0-.5427 0-.8677 0s-.6532 0-.9847 0c-.325 0-.6174 0-.8774 0-.2535 0-.4322 0-.5362 0-.1495 0-.299.004-.4485.01-.1495.007-.2925.013-.429.02zm6.3078 2.574c-.0195.039-.0455.088-.078.146-.026.052-.0422.098-.0487.137-.13.481-.3087.965-.5362 1.453-.2275.481-.5232.919-.8872 1.316-.5135.559-1.0692.994-1.6671 1.306-.5915.312-1.1992.556-1.8231.731l-.6045-.692c.6889-.143 1.3291-.367 1.9206-.673.5915-.305 1.0952-.676 1.5111-1.111.299-.312.5427-.66.7312-1.043.195-.39.338-.761.429-1.112-.0715 0-.208 0-.4095 0-.195 0-.4354 0-.7214 0s-.5947 0-.9262 0c-.325 0-.6564 0-.9944 0-.3315 0-.6435 0-.9359 0-.286 0-.5363 0-.7507 0-.208 0-.3543 0-.4388 0-.117 0-.2599.004-.4289.01-.169 0-.3445.007-.5265.02v-.819c.182.019.3542.035.5167.048.1625.007.3087.01.4387.01h.4095.7312.9262.9944.9262.7312.4192c.1105 0 .2145-.006.312-.019s.1722-.033.2242-.059zm7.9262-1.92c.0845.117.182.266.2925.448.117.182.2307.371.3412.566.117.194.2145.37.2925.526l-.5752.263c-.0845-.175-.1755-.354-.273-.536s-.2015-.361-.312-.536c-.104-.182-.2112-.348-.3217-.497zm1.2479-.498c.091.111.195.257.312.439s.2339.371.3509.566.2145.367.2925.516l-.5654.273c-.078-.175-.169-.351-.273-.526-.104-.182-.2145-.361-.3315-.536-.1105-.176-.221-.335-.3315-.478zm-7.468 4.544c.13-.111.2438-.215.3413-.312.104-.098.221-.212.3509-.342.117-.117.2503-.266.3998-.448.156-.182.3217-.377.4972-.585.182-.215.3607-.429.5362-.644.1755-.221.338-.419.4875-.594.2599-.306.5167-.475.7701-.507.2535-.039.546.097.8775.409.2015.182.4192.397.6532.644.2405.24.4777.484.7117.731s.4452.471.6337.673c.221.227.4679.49.7409.789.273.293.5525.595.8385.907.2859.305.5524.591.7994.858l-.6727.712c-.2275-.28-.4712-.569-.7312-.868-.2535-.306-.507-.601-.7604-.887-.247-.293-.4745-.556-.6825-.79-.143-.162-.3022-.338-.4777-.526-.1755-.189-.351-.377-.5265-.566-.1754-.188-.3412-.364-.4972-.526-.1495-.163-.2762-.293-.3802-.39-.1885-.182-.3445-.267-.468-.254-.117.013-.2599.12-.4289.322-.117.143-.2503.312-.3997.507-.1495.188-.3055.387-.468.595s-.3185.406-.468.594c-.1495.189-.2795.351-.3899.488-.0975.123-.1983.253-.3023.39-.0975.136-.182.256-.2535.36zm14.3412 2.359c.0195-.078.0325-.163.039-.254.013-.097.0195-.195.0195-.292 0-.065 0-.208 0-.429s0-.491 0-.809c0-.325 0-.676 0-1.053s0-.754 0-1.131c0-.384 0-.741 0-1.073 0-.331 0-.617 0-.857 0-.241 0-.403 0-.488 0-.188-.0065-.344-.0195-.468-.013-.13-.0227-.214-.0292-.253h.8969c0 .039-.0065.123-.0195.253s-.0195.286-.0195.468v.488.838 1.053 1.102 1.013.761.37c.3055-.143.6305-.331.9749-.565.3445-.234.6792-.507 1.0042-.819.3315-.312.6207-.65.8677-1.014l.4582.663c-.2795.377-.6077.738-.9847 1.082-.3704.345-.7572.653-1.1601.926-.403.273-.7962.504-1.1797.693-.078.045-.1462.087-.2047.126-.052.039-.0943.072-.1268.098zm-4.4651-.049c.4094-.292.7572-.647 1.0431-1.063.286-.416.5037-.861.6532-1.335.0715-.221.1268-.497.1658-.829.039-.331.0682-.682.0877-1.053.0195-.377.0293-.741.0293-1.092.0065-.357.0097-.672.0097-.945 0-.143-.0065-.27-.0195-.381-.013-.117-.0292-.227-.0487-.331h.8969c-.0065.039-.013.097-.0195.175-.0065.072-.013.153-.0195.244s-.0097.185-.0097.283c0 .273-.0033.595-.0098.965-.0065.364-.0227.747-.0487 1.15-.0195.397-.0488.774-.0878 1.131-.0325.358-.0845.657-.156.897-.143.52-.3672 1.011-.6727 1.472-.299.462-.6532.865-1.0626 1.209z" fill="#696966"/><path d="m21.8163 185.109v13.891h-2.742v-10.73l-3.2941 1.047v-2.161l5.741-2.047zm13.9956 11.749v2.142h-9.4827v-1.828l4.4843-4.808c.4506-.501.806-.943 1.0663-1.323.2602-.388.4475-.733.5617-1.038.1206-.311.1809-.606.1809-.886 0-.418-.0698-.777-.2095-1.075-.1396-.305-.3459-.54-.6188-.705-.2666-.165-.5966-.247-.9902-.247-.4189 0-.7807.101-1.0853.304-.2984.203-.5269.486-.6855.848-.1524.361-.2285.771-.2285 1.228h-2.7515c0-.825.1967-1.581.5903-2.266.3935-.692.9489-1.241 1.6661-1.647.7172-.413 1.5677-.619 2.5516-.619.9711 0 1.7899.158 2.4563.476.6728.311 1.1806.762 1.5233 1.352.3491.584.5237 1.282.5237 2.094 0 .457-.073.905-.219 1.343-.146.431-.3554.863-.6284 1.295-.2665.425-.5903.857-.9711 1.294-.3808.438-.8029.892-1.2662 1.362l-2.4088 2.704zm4.5223-5.979h1.4662c.4697 0 .8569-.08 1.1616-.238.3046-.165.53-.394.6759-.686.1524-.298.2285-.644.2285-1.037 0-.356-.0698-.67-.2094-.943-.1333-.279-.3396-.495-.6189-.647-.2792-.159-.6315-.238-1.0568-.238-.3364 0-.6474.066-.933.199-.2856.134-.5141.321-.6855.562s-.2571.533-.2571.876h-2.7515c0-.762.2031-1.425.6094-1.99.4125-.565.9647-1.006 1.6566-1.323.6918-.318 1.4535-.476 2.285-.476.9393 0 1.7613.152 2.4658.457.7046.298 1.2536.739 1.6471 1.323.3936.584.5903 1.308.5903 2.171 0 .438-.1015.863-.3046 1.276-.2032.406-.4951.774-.876 1.104-.3744.324-.8314.584-1.3709.781-.5396.19-1.1457.285-1.8185.285h-1.9042zm0 2.085v-1.419h1.9042c.7553 0 1.4186.086 1.9898.257.5713.172 1.0505.419 1.4377.743.3871.317.6791.695.8759 1.133.1967.431.2951.911.2951 1.438 0 .647-.1238 1.225-.3713 1.732-.2475.502-.5966.927-1.0473 1.276-.4443.349-.9648.616-1.5614.8-.5966.178-1.2472.266-1.9517.266-.584 0-1.1584-.079-1.7233-.238-.5586-.165-1.0663-.409-1.5233-.733-.4507-.33-.8125-.742-1.0854-1.237-.2666-.502-.3999-1.095-.3999-1.781h2.7515c0 .356.0889.673.2666.952.1777.28.4221.499.7331.657.3174.159.6696.238 1.0568.238.438 0 .8125-.079 1.1235-.238.3173-.165.5585-.393.7236-.685.1713-.299.257-.645.257-1.038 0-.508-.092-.914-.2761-1.219-.1841-.311-.4475-.539-.7902-.685-.3428-.146-.749-.219-1.2187-.219z" fill="#000"/><path d="m53.2822 192.644v7.312h-.8854v-7.312zm3.1466 2.161-2.2469 2.404-1.2567 1.305-.0714-.938.8997-1.076 1.5995-1.695zm-.8045 5.151-1.8375-2.456.457-.786 2.4183 3.242zm3.6703-2.095 1.3758-4.836h.6664l-.3856 1.88-1.4805 5.051h-.6617zm-1.4234-4.836 1.0949 4.741.3285 2.19h-.6569l-1.6804-6.931zm5.246 4.737 1.0711-4.737h.9187l-1.6756 6.931h-.657zm-1.6804-4.737 1.3376 4.836.4856 2.095h-.6617l-1.4281-5.051-.3904-1.88zm5.4363-.381v7.312h-.8806v-7.312zm-.2094 4.542-.3666-.015c.0032-.352.0556-.677.1571-.976.1016-.301.2444-.563.4285-.785.184-.222.403-.394.6569-.514.2571-.124.5411-.186.8521-.186.2539 0 .4824.035.6855.105.2031.066.3761.174.5189.324.146.149.257.342.3332.58.0762.235.1143.522.1143.862v3.375h-.8855v-3.385c0-.269-.0396-.485-.119-.647-.0793-.165-.1952-.284-.3475-.357-.1523-.076-.3396-.114-.5617-.114-.219 0-.4189.046-.5998.138-.1778.092-.3317.219-.4618.381-.1269.161-.2269.347-.2999.557-.0698.206-.1047.425-.1047.657z" fill="#696966"/><path d="m161.342 164.191c.13.02.27.033.419.039.15.007.302.01.458.01h.527.877.985.887.556c.156 0 .312-.003.468-.01.156-.006.296-.019.419-.039v.81c-.117-.013-.257-.02-.419-.02-.156-.006-.315-.01-.478-.01-.11 0-.296 0-.556 0-.253 0-.542 0-.867 0s-.654 0-.985 0c-.325 0-.617 0-.877 0-.254 0-.433 0-.537 0-.149 0-.299.004-.448.01-.15.007-.293.013-.429.02zm6.308 2.574c-.02.039-.046.088-.078.146-.026.052-.043.098-.049.137-.13.481-.309.965-.536 1.453-.228.481-.523.919-.887 1.316-.514.559-1.07.994-1.668 1.306-.591.312-1.199.556-1.823.731l-.604-.692c.689-.143 1.329-.367 1.92-.673.592-.305 1.096-.676 1.512-1.111.299-.312.542-.66.731-1.043.195-.39.338-.761.429-1.112-.072 0-.208 0-.41 0-.195 0-.435 0-.721 0s-.595 0-.926 0c-.325 0-.657 0-.995 0-.331 0-.643 0-.936 0-.286 0-.536 0-.75 0-.208 0-.355 0-.439 0-.117 0-.26.004-.429.01-.169 0-.345.007-.527.02v-.819c.182.019.355.035.517.048.163.007.309.01.439.01h.409.732.926.994.926.732.419c.11 0 .214-.006.312-.019.097-.013.172-.033.224-.059zm7.926-1.92c.084.117.182.266.292.448.117.182.231.371.342.566.117.194.214.37.292.526l-.575.263c-.085-.175-.176-.354-.273-.536-.098-.182-.202-.361-.312-.536-.104-.182-.211-.348-.322-.497zm1.248-.498c.091.111.195.257.312.439s.234.371.351.566.214.367.292.516l-.565.273c-.078-.175-.169-.351-.273-.526-.104-.182-.215-.361-.332-.536-.11-.176-.221-.335-.331-.478zm-7.468 4.544c.13-.111.244-.215.341-.312.104-.098.221-.212.351-.342.117-.117.25-.266.4-.448.156-.182.321-.377.497-.585.182-.215.361-.429.536-.644.176-.221.338-.419.488-.594.26-.306.516-.475.77-.507.253-.039.546.097.877.409.202.182.419.397.653.644.241.24.478.484.712.731s.445.471.634.673c.221.227.468.49.741.789.273.293.552.595.838.907.286.305.553.591.8.858l-.673.712c-.228-.28-.471-.569-.731-.868-.254-.306-.507-.601-.761-.887-.247-.293-.474-.556-.682-.79-.143-.162-.302-.338-.478-.526-.175-.189-.351-.377-.526-.566-.176-.188-.342-.364-.497-.526-.15-.163-.277-.293-.381-.39-.188-.182-.344-.267-.468-.254-.117.013-.26.12-.429.322-.117.143-.25.312-.399.507-.15.188-.306.387-.468.595-.163.208-.319.406-.468.594-.15.189-.28.351-.39.488-.098.123-.199.253-.302.39-.098.136-.182.256-.254.36zm14.341 2.359c.02-.078.033-.163.039-.254.013-.097.02-.195.02-.292 0-.065 0-.208 0-.429s0-.491 0-.809c0-.325 0-.676 0-1.053s0-.754 0-1.131c0-.384 0-.741 0-1.073 0-.331 0-.617 0-.857 0-.241 0-.403 0-.488 0-.188-.007-.344-.02-.468-.013-.13-.023-.214-.029-.253h.897c0 .039-.007.123-.02.253s-.019.286-.019.468v.488.838 1.053 1.102 1.013.761.37c.305-.143.63-.331.975-.565.344-.234.679-.507 1.004-.819.331-.312.62-.65.867-1.014l.459.663c-.28.377-.608.738-.985 1.082-.37.345-.757.653-1.16.926s-.796.504-1.18.693c-.078.045-.146.087-.205.126-.052.039-.094.072-.126.098zm-4.465-.049c.409-.292.757-.647 1.043-1.063s.504-.861.653-1.335c.072-.221.127-.497.166-.829.039-.331.068-.682.088-1.053.019-.377.029-.741.029-1.092.006-.357.01-.672.01-.945 0-.143-.007-.27-.02-.381-.013-.117-.029-.227-.049-.331h.897c-.006.039-.013.097-.019.175-.007.072-.013.153-.02.244-.006.091-.009.185-.009.283 0 .273-.004.595-.01.965-.007.364-.023.747-.049 1.15-.019.397-.049.774-.088 1.131-.032.358-.084.657-.156.897-.143.52-.367 1.011-.672 1.472-.299.462-.653.865-1.063 1.209z" fill="#696966"/><path d="m166.726 185.109v13.891h-2.742v-10.73l-3.295 1.047v-2.161l5.741-2.047zm13.995 11.749v2.142h-9.483v-1.828l4.485-4.808c.45-.501.806-.943 1.066-1.323.26-.388.447-.733.562-1.038.12-.311.181-.606.181-.886 0-.418-.07-.777-.21-1.075-.14-.305-.346-.54-.619-.705-.266-.165-.596-.247-.99-.247-.419 0-.781.101-1.085.304-.299.203-.527.486-.686.848-.152.361-.228.771-.228 1.228h-2.752c0-.825.197-1.581.591-2.266.393-.692.948-1.241 1.666-1.647.717-.413 1.567-.619 2.551-.619.971 0 1.79.158 2.457.476.672.311 1.18.762 1.523 1.352.349.584.524 1.282.524 2.094 0 .457-.073.905-.219 1.343-.146.431-.356.863-.629 1.295-.266.425-.59.857-.971 1.294-.381.438-.803.892-1.266 1.362l-2.409 2.704zm4.522-5.979h1.467c.469 0 .856-.08 1.161-.238.305-.165.53-.394.676-.686.152-.298.229-.644.229-1.037 0-.356-.07-.67-.21-.943-.133-.279-.339-.495-.619-.647-.279-.159-.631-.238-1.056-.238-.337 0-.648.066-.934.199-.285.134-.514.321-.685.562s-.257.533-.257.876h-2.752c0-.762.204-1.425.61-1.99.412-.565.965-1.006 1.656-1.323.692-.318 1.454-.476 2.285-.476.94 0 1.762.152 2.466.457.705.298 1.254.739 1.647 1.323.394.584.591 1.308.591 2.171 0 .438-.102.863-.305 1.276-.203.406-.495.774-.876 1.104-.374.324-.831.584-1.371.781-.539.19-1.146.285-1.818.285h-1.905zm0 2.085v-1.419h1.905c.755 0 1.418.086 1.989.257.572.172 1.051.419 1.438.743.387.317.679.695.876 1.133.197.431.295.911.295 1.438 0 .647-.124 1.225-.371 1.732-.248.502-.597.927-1.047 1.276-.445.349-.965.616-1.562.8-.597.178-1.247.266-1.952.266-.584 0-1.158-.079-1.723-.238-.558-.165-1.066-.409-1.523-.733-.451-.33-.813-.742-1.086-1.237-.266-.502-.399-1.095-.399-1.781h2.751c0 .356.089.673.267.952.177.28.422.499.733.657.317.159.669.238 1.057.238.437 0 .812-.079 1.123-.238.317-.165.559-.393.724-.685.171-.299.257-.645.257-1.038 0-.508-.092-.914-.277-1.219-.184-.311-.447-.539-.79-.685-.342-.146-.749-.219-1.218-.219z" fill="#000"/><path d="m198.191 192.644v7.312h-.885v-7.312zm3.147 2.161-2.247 2.404-1.257 1.305-.071-.938.9-1.076 1.599-1.695zm-.804 5.151-1.838-2.456.457-.786 2.418 3.242zm3.67-2.095 1.376-4.836h.666l-.386 1.88-1.48 5.051h-.662zm-1.424-4.836 1.095 4.741.329 2.19h-.657l-1.681-6.931zm5.246 4.737 1.071-4.737h.919l-1.675 6.931h-.657zm-1.68-4.737 1.338 4.836.485 2.095h-.662l-1.428-5.051-.39-1.88zm5.436-.381v7.312h-.88v-7.312zm-.209 4.542-.367-.015c.003-.352.056-.677.157-.976.102-.301.245-.563.429-.785s.403-.394.657-.514c.257-.124.541-.186.852-.186.254 0 .482.035.685.105.203.066.376.174.519.324.146.149.257.342.333.58.077.235.115.522.115.862v3.375h-.886v-3.385c0-.269-.039-.485-.119-.647-.079-.165-.195-.284-.347-.357-.153-.076-.34-.114-.562-.114-.219 0-.419.046-.6.138-.177.092-.331.219-.462.381-.126.161-.226.347-.299.557-.07.206-.105.425-.105.657z" fill="#696966"/><g stroke="#afaeaa" stroke-width="1.6"><path d="m80 14h260"/><path d="m290 127h50"/></g></svg>