<svg xmlns="http://www.w3.org/2000/svg" width="618" height="220" fill="none" viewBox="0 0 618 220"><path fill="var(--colors-sd-system-color-chart-mark-primary-06)" d="M356.006 9.448q.644.364 1.4.868a64 64 0 0 1 1.554 1.022q.784.532 1.47 1.036.7.504 1.176.896l-1.33 1.582q-.462-.42-1.148-.966a29 29 0 0 0-1.456-1.134 50 50 0 0 0-1.554-1.12 32 32 0 0 0-1.358-.91zm6.58-2.38q-.126.196-.252.462a4 4 0 0 0-.21.532q-.21.645-.574 1.442-.35.785-.84 1.61a15 15 0 0 1-1.12 1.596q-.994 1.231-2.394 2.338-1.386 1.106-3.402 1.876l-1.624-1.414q1.47-.448 2.548-1.064a11 11 0 0 0 1.862-1.316q.798-.7 1.386-1.4.476-.546.896-1.218.434-.686.742-1.358a6.4 6.4 0 0 0 .448-1.218h-4.732l.644-1.596h3.976q.336 0 .658-.042.336-.042.56-.112zm-4.62-2.156q-.252.364-.504.784l-.364.644q-.476.84-1.204 1.792a18 18 0 0 1-1.638 1.834 14 14 0 0 1-1.904 1.596L350.84 10.4q1.232-.77 2.086-1.61a13.6 13.6 0 0 0 1.442-1.638 16 16 0 0 0 .924-1.414q.168-.252.35-.672.196-.434.294-.784zm6.902 5.642a25 25 0 0 0 3.416-1.134 21 21 0 0 0 2.702-1.372q.728-.449 1.456-1.022.743-.588 1.386-1.204.658-.616 1.106-1.176l1.512 1.442q-.644.63-1.414 1.274-.756.644-1.582 1.232a26 26 0 0 1-1.638 1.078q-.798.462-1.792.952a28 28 0 0 1-4.27 1.694zm5.824-1.61 1.988-.462v6.3q0 .308.014.672t.042.672q.028.322.07.49h-2.212q.029-.168.042-.49.029-.308.042-.672t.014-.672zm11.704 5.712v-8.05q0-.364-.042-.84a7 7 0 0 0-.098-.84h2.184a39 39 0 0 0-.084.812q-.042.435-.042.868v8.05q0 .195.014.56.014.35.056.728t.056.672h-2.184a18 18 0 0 0 .14-1.96m1.498-6.104q.7.182 1.568.476a49 49 0 0 1 1.75.602q.882.323 1.652.644.785.308 1.302.574l-.798 1.932q-.588-.307-1.302-.616-.714-.322-1.456-.616a35 35 0 0 0-1.442-.546 83 83 0 0 0-1.274-.448zm15.148 7.14a5 5 0 0 0 .07-.476 4 4 0 0 0 .042-.56V6.494q0-.476-.056-.826a3 3 0 0 0-.056-.378h2.086a7 7 0 0 0-.098 1.218v7.322a7 7 0 0 0 1.19-.686q.616-.434 1.204-1.008a8.5 8.5 0 0 0 1.064-1.26l1.078 1.54q-.574.756-1.4 1.484-.811.728-1.68 1.33a14.5 14.5 0 0 1-1.666 1.008 5 5 0 0 0-.364.224q-.14.112-.238.196zm-6.482-.21a5.6 5.6 0 0 0 1.512-1.554 7.5 7.5 0 0 0 .868-1.792q.154-.462.224-1.134.084-.686.126-1.456a29 29 0 0 0 .042-1.54q.014-.77.014-1.414 0-.42-.042-.714a5 5 0 0 0-.084-.574h2.058a1.5 1.5 0 0 0-.042.238q-.014.196-.042.476-.014.266-.014.56 0 .615-.014 1.442a51 51 0 0 1-.056 1.666q-.042.854-.126 1.624a9 9 0 0 1-.224 1.288 8.1 8.1 0 0 1-.966 2.212 8.3 8.3 0 0 1-1.526 1.806zm16.254-10.22q.35.056.756.084.406.014.742.014h5.628q.365 0 .756-.014.391-.028.756-.084v1.806a21 21 0 0 0-1.512-.056h-5.614q-.364 0-.784.014-.406.014-.728.042zm-1.624 3.584q.308.028.658.056.364.028.686.028h9.17q.224 0 .602-.014.392-.028.672-.07v1.82a6 6 0 0 0-.616-.028q-.364-.014-.658-.014h-9.17q-.308 0-.686.014-.364.014-.658.042zm7.168.966q0 1.372-.238 2.464a8 8 0 0 1-.686 1.946 5.8 5.8 0 0 1-.672.98q-.42.504-.966.952t-1.176.756l-1.638-1.19a5.6 5.6 0 0 0 1.428-.84 5.4 5.4 0 0 0 1.106-1.162 4.8 4.8 0 0 0 .714-1.792 11.5 11.5 0 0 0 .182-2.1zm10.738-3.808a4 4 0 0 0-.14-.56l-.14-.504 1.974-.322q.028.21.056.532.042.308.098.56.029.195.126.728l.238 1.288q.14.756.308 1.638.182.869.35 1.764.168.882.322 1.68.168.798.28 1.414.126.616.182.91.07.308.168.672t.196.7l-2.03.364a12 12 0 0 1-.084-.756 5 5 0 0 0-.098-.658l-.168-.854a47 47 0 0 0-.252-1.372q-.14-.784-.308-1.666l-.336-1.764q-.168-.882-.322-1.652a73 73 0 0 0-.42-2.142m-3.822 1.778.658-.028q.322-.028.644-.07.308-.042.868-.112.56-.084 1.288-.182.728-.112 1.498-.238.784-.126 1.512-.238l1.288-.224.896-.154q.336-.07.7-.14.364-.084.616-.154l.336 1.834q-.224.015-.602.07t-.686.098a100 100 0 0 0-2.338.378q-.743.112-1.512.238-.77.112-1.47.238l-2.03.322q-.336.07-.63.14a9 9 0 0 0-.658.154zm.014 4.116q.28-.014.7-.056l.756-.098q.378-.056 1.008-.154t1.414-.224q.798-.126 1.638-.252.84-.14 1.638-.28l1.456-.252 1.064-.182q.406-.084.77-.168.378-.084.658-.168l.378 1.848q-.28.014-.686.084-.392.056-.798.126-.448.07-1.12.182t-1.484.252q-.798.126-1.638.266a53 53 0 0 0-1.61.266q-.77.126-1.386.224-.617.098-.966.168l-.812.154a7 7 0 0 0-.588.14zm23.964-5.39q-.084.126-.252.392-.154.265-.238.49-.294.658-.728 1.47-.42.811-.966 1.638-.531.812-1.134 1.526a23 23 0 0 1-1.736 1.75 19 19 0 0 1-1.988 1.582q-1.036.714-2.128 1.232l-1.442-1.512q1.134-.434 2.198-1.092t1.974-1.428a16 16 0 0 0 1.568-1.498q.462-.533.868-1.134.42-.602.742-1.19.323-.602.476-1.106h-4.746q-.294 0-.616.028-.322.014-.616.042-.28.015-.434.028V5.738q.21.014.518.042a14 14 0 0 0 1.148.056h4.942q.462 0 .84-.056.392-.056.602-.126zm-3.136 4.354q.546.434 1.162 1.008t1.218 1.19 1.106 1.19q.519.56.868.98l-1.596 1.386q-.518-.713-1.19-1.484a30 30 0 0 0-1.4-1.526q-.728-.77-1.484-1.456zm9.856 3.794v-8.05q0-.364-.042-.84a6 6 0 0 0-.098-.84h2.184a39 39 0 0 0-.084.812q-.042.435-.042.868v8.05q0 .195.014.56.014.35.056.728t.056.672h-2.184q.057-.42.098-.98.042-.56.042-.98m1.498-6.104q.7.182 1.568.476a49 49 0 0 1 1.75.602q.882.323 1.652.644.785.308 1.302.574l-.798 1.932q-.588-.307-1.302-.616-.714-.322-1.456-.616a35 35 0 0 0-1.442-.546 79 79 0 0 0-1.274-.448z"/><rect width="16" height="16" x="350" y="36" fill="#000" rx="8"/><path fill="var(--colors-sd-system-color-chart-component-on-chart-surface)" d="M376.348 45.76q0 .804-.204 1.428a2.9 2.9 0 0 1-.588 1.056 2.4 2.4 0 0 1-.912.66q-.54.216-1.212.216-.612 0-1.14-.216a2.6 2.6 0 0 1-.912-.66 3.1 3.1 0 0 1-.6-1.056 4.6 4.6 0 0 1-.204-1.44q0-1.068.348-1.812t.996-1.128q.66-.396 1.56-.396.84 0 1.488.396.648.384 1.008 1.128.372.744.372 1.824m-4.428 0q0 .72.156 1.248.168.516.504.792.348.276.876.276.54 0 .876-.276.348-.276.504-.792.168-.528.168-1.248 0-.744-.168-1.248t-.504-.768q-.336-.276-.888-.276-.804 0-1.164.6t-.36 1.692m9.074-3.348q1.056 0 1.62.564.576.564.576 1.812V49h-1.296v-4.032q0-.756-.3-1.128-.288-.384-.9-.384-.9 0-1.236.588t-.336 1.692V49h-1.296v-6.468h1.02l.18.864h.072a1.94 1.94 0 0 1 1.14-.876q.36-.108.756-.108m8.817 4.272q0 .768-.348 1.308t-.996.84q-.648.288-1.584.288-.456 0-.876-.06a5 5 0 0 1-.756-.144 4 4 0 0 1-.636-.24v-1.224q.48.216 1.092.396.624.168 1.236.168.528 0 .864-.156.348-.156.516-.432.18-.276.18-.648 0-.396-.18-.66-.168-.276-.564-.504a6.3 6.3 0 0 0-1.032-.492 7 7 0 0 1-.828-.408 3 3 0 0 1-.648-.528 2.2 2.2 0 0 1-.408-.696 3 3 0 0 1-.132-.924q0-.708.336-1.212a2.1 2.1 0 0 1 .936-.768q.6-.276 1.404-.276.672 0 1.236.144.564.132 1.068.372l-.42 1.068a7 7 0 0 0-.948-.336 3.6 3.6 0 0 0-.972-.132q-.444 0-.744.144a1 1 0 0 0-.432.396 1.17 1.17 0 0 0-.144.588q0 .396.168.66t.54.492q.372.216.984.48a6.5 6.5 0 0 1 1.14.612q.468.312.708.768.24.444.24 1.116m6.737-4.152V49h-1.02l-.18-.852h-.072q-.18.336-.492.552-.3.216-.66.312-.36.108-.744.108-.708 0-1.2-.24a1.73 1.73 0 0 1-.744-.768q-.252-.528-.252-1.344v-4.236h1.308v4.044q0 .756.288 1.128t.9.372q.6 0 .936-.264.348-.264.492-.768.144-.516.144-1.236v-3.276zm4.905-.12q.156 0 .348.024.192.012.324.036l-.132 1.188a2.5 2.5 0 0 0-.636-.084q-.324 0-.624.144-.3.132-.54.396-.24.252-.384.624a2.4 2.4 0 0 0-.144.852V49h-1.296v-6.468h1.02l.168 1.152h.072q.18-.348.444-.636a2.2 2.2 0 0 1 .624-.456q.348-.18.756-.18m4.828 1.092h-1.476V49h-1.308v-5.496h-.996v-.6l.996-.396V42.1q0-.828.228-1.32.24-.504.696-.732t1.116-.228q.396 0 .732.072t.588.156l-.324.972q-.18-.06-.42-.108a1.8 1.8 0 0 0-.468-.06q-.432 0-.636.312t-.204.948v.42h1.476zm3.477-1.092q1.14 0 1.716.54.588.528.588 1.668V49h-.924l-.252-.9h-.048a4 4 0 0 1-.552.576 1.7 1.7 0 0 1-.624.336q-.348.108-.864.108-.54 0-.972-.204a1.6 1.6 0 0 1-.684-.648q-.252-.444-.252-1.104 0-.984.696-1.5.708-.516 2.148-.564l1.032-.036v-.36q0-.72-.3-1.008-.288-.288-.816-.288-.444 0-.876.144a6.4 6.4 0 0 0-.84.348l-.396-.924q.444-.24 1.008-.396a4.3 4.3 0 0 1 1.212-.168m.228 3.504q-.984.048-1.368.372-.384.312-.384.888 0 .504.264.732.276.228.708.228.66 0 1.104-.42.456-.42.456-1.26v-.564zm6.372 3.204q-.852 0-1.5-.348-.636-.348-.996-1.08-.348-.744-.348-1.884 0-1.2.384-1.944t1.044-1.092q.66-.36 1.512-.36.504 0 .96.12.468.108.768.252l-.396 1.02q-.3-.12-.648-.216a2.5 2.5 0 0 0-.66-.096q-.552 0-.912.264-.348.252-.528.768-.18.504-.18 1.272 0 .732.18 1.236t.528.768q.36.252.864.252.492 0 .876-.12.396-.12.732-.312v1.104a2.6 2.6 0 0 1-.732.3q-.396.096-.948.096m5.529-6.708q.804 0 1.392.36.588.348.9 1.008.324.66.324 1.56v.696h-4.068q.024.996.48 1.524t1.284.528q.588 0 1.044-.108.468-.12.948-.348v1.056a4.5 4.5 0 0 1-.936.324 5 5 0 0 1-1.14.108q-.876 0-1.56-.372a2.6 2.6 0 0 1-1.068-1.104q-.384-.744-.384-1.824 0-1.092.348-1.848t.972-1.152a2.65 2.65 0 0 1 1.464-.408m0 .984q-.612 0-.984.444t-.432 1.26h2.748q0-.504-.144-.888a1.26 1.26 0 0 0-.444-.6q-.288-.216-.744-.216"/><path fill="#fff" d="M350 64a4 4 0 0 1 4-4h260a4 4 0 0 1 4 4v16a4 4 0 0 1-4 4H354a4 4 0 0 1-4-4z"/><path fill="var(--colors-sd-system-color-chart-component-on-chart-surface)" d="M361.324 77.12q-.6 0-1.152-.108-.552-.096-.996-.288v-1.188q.444.204.996.372.552.156 1.248.156t1.008-.204.312-.612a.6.6 0 0 0-.132-.408q-.132-.156-.468-.312a16 16 0 0 0-.924-.396 16 16 0 0 1-1.032-.504 2 2 0 0 1-.684-.576q-.24-.336-.24-.864 0-.6.312-.996t.876-.588q.576-.192 1.344-.192.564 0 1.092.108t1.068.336l-.384.984a5 5 0 0 0-.936-.288 4.3 4.3 0 0 0-.852-.084q-.648 0-.96.168-.3.156-.3.516 0 .252.156.42t.492.324l.864.372q.612.24 1.056.468.456.228.696.576.24.336.24.924 0 .624-.312 1.044-.3.42-.9.636-.6.204-1.488.204m7.051 0q-.6 0-1.08-.216a2.24 2.24 0 0 1-.816-.66 3.2 3.2 0 0 1-.504-1.056 5.7 5.7 0 0 1-.168-1.452q0-1.044.288-1.788.3-.744.9-1.14t1.5-.396q.444 0 .78.12.348.108.6.324.252.204.42.504h.06a6 6 0 0 0-.036-.348 5 5 0 0 1-.048-.744V67.88h1.248V77h-1.008l-.192-.864h-.06q-.18.3-.456.528a2 2 0 0 1-.624.336q-.348.12-.804.12m.348-1.044q.804 0 1.188-.54.396-.552.396-1.524v-.228q0-.672-.144-1.2t-.48-.828-.924-.3q-.804 0-1.236.6-.42.588-.42 1.788 0 1.128.396 1.68t1.224.552m7.268 1.044a.88.88 0 0 1-.612-.216q-.24-.216-.24-.672 0-.48.24-.684a.9.9 0 0 1 .612-.204q.372 0 .6.216.24.204.24.672 0 .444-.24.672-.228.216-.6.216m6.919 0q-.6 0-1.152-.108-.552-.096-.996-.288v-1.188q.444.204.996.372.552.156 1.248.156t1.008-.204.312-.612a.6.6 0 0 0-.132-.408q-.132-.156-.468-.312a16 16 0 0 0-.924-.396 16 16 0 0 1-1.032-.504 2 2 0 0 1-.684-.576q-.24-.336-.24-.864 0-.6.312-.996t.876-.588q.576-.192 1.344-.192.564 0 1.092.108t1.068.336l-.384.984a5 5 0 0 0-.936-.288 4.3 4.3 0 0 0-.852-.084q-.648 0-.96.168-.3.156-.3.516 0 .252.156.42t.492.324l.864.372q.612.24 1.056.468.456.228.696.576.24.336.24.924 0 .624-.312 1.044-.3.42-.9.636-.6.204-1.488.204m5.491 2.82a3 3 0 0 1-.456-.036 5 5 0 0 1-.408-.06v-1.02q.144.024.336.048t.36.024q.372 0 .612-.132.252-.12.432-.372.192-.252.348-.648l.276-.72-2.664-6.492h1.296l1.452 3.78q.144.336.264.744.132.396.228.792h.036q.072-.276.144-.54.084-.264.156-.516l.156-.492 1.224-3.768h1.332l-2.652 7.164a6.5 6.5 0 0 1-.564 1.2 2.1 2.1 0 0 1-.756.768q-.456.276-1.152.276m8.9-2.82q-.6 0-1.152-.108-.552-.096-.996-.288v-1.188q.444.204.996.372.552.156 1.248.156t1.008-.204.312-.612a.6.6 0 0 0-.132-.408q-.132-.156-.468-.312a16 16 0 0 0-.924-.396 16 16 0 0 1-1.032-.504 2 2 0 0 1-.684-.576q-.24-.336-.24-.864 0-.6.312-.996t.876-.588q.576-.192 1.344-.192.564 0 1.092.108t1.068.336l-.384.984a5 5 0 0 0-.936-.288 4.3 4.3 0 0 0-.852-.084q-.648 0-.96.168-.3.156-.3.516 0 .252.156.42t.492.324l.864.372q.612.24 1.056.468.456.228.696.576.24.336.24.924 0 .624-.312 1.044-.3.42-.9.636-.6.204-1.488.204m8.659 0q-.732 0-1.284-.192a1.73 1.73 0 0 1-.864-.672q-.3-.48-.3-1.296v-3.372h-1.68v-.84l1.716-.24.24-1.668h.996v1.692h2.496v1.056h-2.496v3.168q0 .48.144.768a.87.87 0 0 0 .444.42q.3.132.732.132.312 0 .648-.06.348-.06.672-.12v1.008q-.336.096-.708.156t-.756.06m6.499 0q-1.068 0-1.836-.384a2.76 2.76 0 0 1-1.164-1.14q-.408-.744-.408-1.824 0-1.044.372-1.788a2.8 2.8 0 0 1 1.068-1.164q.684-.408 1.62-.408.864 0 1.476.372.624.372.96 1.056.336.672.336 1.62v.6h-4.56q.024.732.312 1.176t.78.648q.492.192 1.128.192.504 0 1.02-.132a8 8 0 0 0 1.056-.372v1.092a5 5 0 0 1-1.092.348 5.6 5.6 0 0 1-1.068.108m1.2-4.02q-.012-.528-.204-.9a1.34 1.34 0 0 0-.516-.576q-.336-.204-.816-.204-.732 0-1.2.456-.468.444-.576 1.224zm2.432 3.9v-6.468h.876l.168.744h.06q.156-.324.324-.504.18-.192.396-.276t.48-.084q.504 0 .768.252.276.24.408.72h.048q.204-.468.504-.72.312-.252.816-.252t.78.264q.288.252.408.78.12.516.12 1.332V77h-1.128v-4.188q0-.42-.036-.708t-.156-.444q-.12-.168-.384-.168a.55.55 0 0 0-.444.228q-.18.216-.276.66a6 6 0 0 0-.084 1.104V77h-1.128v-4.188q0-.432-.06-.72a.9.9 0 0 0-.18-.444q-.132-.156-.396-.156a.53.53 0 0 0-.456.24q-.168.24-.24.684a7 7 0 0 0-.072 1.068V77zm10.267.12a.88.88 0 0 1-.612-.216q-.24-.216-.24-.672 0-.48.24-.684a.9.9 0 0 1 .612-.204q.372 0 .6.216.24.204.24.672 0 .444-.24.672-.228.216-.6.216m7.651 0q-.984 0-1.68-.348a2.32 2.32 0 0 1-1.044-1.08q-.36-.732-.36-1.872 0-1.2.384-1.956a2.44 2.44 0 0 1 1.116-1.104q.72-.348 1.68-.348.54 0 1.032.108t.924.324l-.372 1.032a3.5 3.5 0 0 0-.78-.288 3.4 3.4 0 0 0-.744-.084q-.672 0-1.104.264-.432.252-.636.756t-.204 1.272q0 .792.216 1.284t.648.72 1.068.228q.48 0 .936-.108.468-.12.864-.312v1.128q-.408.192-.924.288a5.4 5.4 0 0 1-1.02.096m6.751 0q-.66 0-1.212-.216a2.7 2.7 0 0 1-.96-.636 3 3 0 0 1-.612-1.056q-.216-.624-.216-1.452 0-1.104.372-1.836a2.67 2.67 0 0 1 1.056-1.128q.672-.384 1.548-.384t1.548.384q.684.372 1.068 1.116t.384 1.86q0 .816-.216 1.44a3 3 0 0 1-.612 1.056q-.384.42-.936.636-.54.216-1.212.216m0-1.032q.564 0 .936-.276.384-.288.564-.816.192-.528.192-1.236 0-.72-.192-1.236-.18-.516-.564-.792-.372-.288-.948-.288-.864 0-1.296.624-.42.612-.42 1.692 0 .708.192 1.236t.576.816q.384.276.96.276m4.472.912v-.828l2.292-.228v-7.008l-2.112-.216v-.84h3.396v8.064l2.052.228V77zm9.919.12q-.66 0-1.212-.216a2.7 2.7 0 0 1-.96-.636 3 3 0 0 1-.612-1.056q-.216-.624-.216-1.452 0-1.104.372-1.836a2.67 2.67 0 0 1 1.056-1.128q.672-.384 1.548-.384t1.548.384q.684.372 1.068 1.116t.384 1.86q0 .816-.216 1.44a3 3 0 0 1-.612 1.056q-.384.42-.936.636-.54.216-1.212.216m0-1.032q.564 0 .936-.276.384-.288.564-.816.192-.528.192-1.236 0-.72-.192-1.236-.18-.516-.564-.792-.372-.288-.948-.288-.864 0-1.296.624-.42.612-.42 1.692 0 .708.192 1.236t.576.816q.384.276.96.276m4.255.912v-.828l1.884-.228v-4.356l-1.656-.168v-.888h2.652l.168 1.152h.06q.336-.612.756-.936.432-.336 1.104-.336.348 0 .66.06.324.06.6.192l-.336 1.14a2 2 0 0 0-.456-.156 2 2 0 0 0-.54-.072q-.528 0-.924.3a2 2 0 0 0-.6.804 3 3 0 0 0-.204 1.116v2.148l1.824.228V77zm10.124.12a.88.88 0 0 1-.612-.216q-.24-.216-.24-.672 0-.48.24-.684a.9.9 0 0 1 .612-.204q.372 0 .6.216.24.204.24.672 0 .444-.24.672-.228.216-.6.216m7.651 0q-.984 0-1.68-.348a2.32 2.32 0 0 1-1.044-1.08q-.36-.732-.36-1.872 0-1.2.384-1.956a2.44 2.44 0 0 1 1.116-1.104q.72-.348 1.68-.348.54 0 1.032.108t.924.324l-.372 1.032a3.5 3.5 0 0 0-.78-.288 3.4 3.4 0 0 0-.744-.084q-.672 0-1.104.264-.432.252-.636.756t-.204 1.272q0 .792.216 1.284t.648.72 1.068.228q.48 0 .936-.108.468-.12.864-.312v1.128q-.408.192-.924.288a5.4 5.4 0 0 1-1.02.096m6.751 0q-.66 0-1.212-.216a2.7 2.7 0 0 1-.96-.636 3 3 0 0 1-.612-1.056q-.216-.624-.216-1.452 0-1.104.372-1.836a2.67 2.67 0 0 1 1.056-1.128q.672-.384 1.548-.384t1.548.384q.684.372 1.068 1.116t.384 1.86q0 .816-.216 1.44a3 3 0 0 1-.612 1.056q-.384.42-.936.636-.54.216-1.212.216m0-1.032q.564 0 .936-.276.384-.288.564-.816.192-.528.192-1.236 0-.72-.192-1.236-.18-.516-.564-.792-.372-.288-.948-.288-.864 0-1.296.624-.42.612-.42 1.692 0 .708.192 1.236t.576.816q.384.276.96.276m4.112.912v-6.468h.876l.168.744h.06q.156-.324.324-.504.18-.192.396-.276t.48-.084q.504 0 .768.252.276.24.408.72h.048q.204-.468.504-.72.312-.252.816-.252t.78.264q.288.252.408.78.12.516.12 1.332V77h-1.128v-4.188q0-.42-.036-.708t-.156-.444q-.12-.168-.384-.168a.55.55 0 0 0-.444.228q-.18.216-.276.66a6 6 0 0 0-.084 1.104V77h-1.128v-4.188q0-.432-.06-.72a.9.9 0 0 0-.18-.444q-.132-.156-.396-.156a.53.53 0 0 0-.456.24q-.168.24-.24.684a7 7 0 0 0-.072 1.068V77zm7.543 2.88v-9.348h1.008l.18.864h.06q.204-.312.48-.528.276-.228.636-.336.36-.12.816-.12.6 0 1.068.228a2 2 0 0 1 .804.66q.324.432.492 1.056.168.612.168 1.404 0 1.08-.312 1.836t-.888 1.14-1.356.384q-.432 0-.792-.12a2.3 2.3 0 0 1-.636-.324 3 3 0 0 1-.48-.468h-.072q.048.276.06.528.012.24.012.42v2.724zm2.832-3.804q.828 0 1.2-.576t.372-1.764q0-1.152-.372-1.716-.36-.564-1.212-.564-.792 0-1.188.54-.384.528-.384 1.524v.228q0 1.104.36 1.716t1.224.612m7.099 1.044q-.66 0-1.212-.216a2.7 2.7 0 0 1-.96-.636 3 3 0 0 1-.612-1.056q-.216-.624-.216-1.452 0-1.104.372-1.836a2.67 2.67 0 0 1 1.056-1.128q.672-.384 1.548-.384t1.548.384q.684.372 1.068 1.116t.384 1.86q0 .816-.216 1.44a3 3 0 0 1-.612 1.056q-.384.42-.936.636-.54.216-1.212.216m0-1.032q.564 0 .936-.276.384-.288.564-.816.192-.528.192-1.236 0-.72-.192-1.236-.18-.516-.564-.792-.372-.288-.948-.288-.864 0-1.296.624-.42.612-.42 1.692 0 .708.192 1.236t.576.816q.384.276.96.276m4.46.912v-6.468h.996l.192.912h.072q.192-.348.492-.576t.696-.336q.408-.12.876-.12 1.008 0 1.596.576.588.564.588 1.728V77h-1.272v-4.02q0-.792-.324-1.152-.312-.372-.984-.372-.9 0-1.284.612-.372.612-.372 1.692V77zm10.411.12q-1.068 0-1.836-.384a2.76 2.76 0 0 1-1.164-1.14q-.408-.744-.408-1.824 0-1.044.372-1.788a2.8 2.8 0 0 1 1.068-1.164q.684-.408 1.62-.408.864 0 1.476.372.624.372.96 1.056.336.672.336 1.62v.6h-4.56q.024.732.312 1.176t.78.648q.492.192 1.128.192.504 0 1.02-.132a8 8 0 0 0 1.056-.372v1.092a5 5 0 0 1-1.092.348 5.6 5.6 0 0 1-1.068.108m1.2-4.02q-.012-.528-.204-.9a1.34 1.34 0 0 0-.516-.576q-.336-.204-.816-.204-.732 0-1.2.456-.468.444-.576 1.224zm2.779 3.9v-6.468h.996l.192.912h.072q.192-.348.492-.576t.696-.336q.408-.12.876-.12 1.008 0 1.596.576.588.564.588 1.728V77h-1.272v-4.02q0-.792-.324-1.152-.312-.372-.984-.372-.9 0-1.284.612-.372.612-.372 1.692V77zm11.108.12q-.732 0-1.284-.192a1.73 1.73 0 0 1-.864-.672q-.3-.48-.3-1.296v-3.372h-1.68v-.84l1.716-.24.24-1.668h.996v1.692h2.496v1.056H534.3v3.168q0 .48.144.768a.87.87 0 0 0 .444.42q.3.132.732.132.312 0 .648-.06.348-.06.672-.12v1.008q-.336.096-.708.156t-.756.06m6.007 0a.88.88 0 0 1-.612-.216q-.24-.216-.24-.672 0-.48.24-.684a.9.9 0 0 1 .612-.204q.372 0 .6.216.24.204.24.672 0 .444-.24.672-.228.216-.6.216m7.207 0q-.66 0-1.212-.216a2.7 2.7 0 0 1-.96-.636 3 3 0 0 1-.612-1.056q-.216-.624-.216-1.452 0-1.104.372-1.836a2.67 2.67 0 0 1 1.056-1.128q.672-.384 1.548-.384t1.548.384q.684.372 1.068 1.116t.384 1.86q0 .816-.216 1.44a3 3 0 0 1-.612 1.056q-.384.42-.936.636-.54.216-1.212.216m0-1.032q.564 0 .936-.276.384-.288.564-.816.192-.528.192-1.236 0-.72-.192-1.236-.18-.516-.564-.792-.372-.288-.948-.288-.864 0-1.296.624-.42.612-.42 1.692 0 .708.192 1.236t.576.816q.384.276.96.276m4.459.912v-6.468h.996l.192.912h.072q.192-.348.492-.576t.696-.336q.408-.12.876-.12 1.008 0 1.596.576.588.564.588 1.728V77h-1.272v-4.02q0-.792-.324-1.152-.312-.372-.984-.372-.9 0-1.284.612-.372.612-.372 1.692V77zm9.668.12a7 7 0 0 1-1.308-.12 4.4 4.4 0 0 1-1.068-.348v-1.164q.504.228 1.14.396.636.156 1.272.156.552 0 .936-.144t.576-.444q.204-.3.204-.756 0-.396-.18-.624-.18-.24-.6-.456a23 23 0 0 0-1.116-.54 9 9 0 0 1-.996-.54 2.6 2.6 0 0 1-.768-.756q-.288-.468-.288-1.188 0-.756.336-1.26t.948-.756q.624-.264 1.476-.264.6 0 1.212.132t1.116.372l-.408 1.032a5 5 0 0 0-.96-.312 4 4 0 0 0-.948-.12q-.444 0-.78.132-.336.12-.516.384-.168.264-.168.696 0 .408.168.66.168.24.54.432t.948.456q.684.312 1.2.612t.804.732.288 1.164q0 .588-.204 1.044a2 2 0 0 1-.6.756 2.7 2.7 0 0 1-.948.48 5 5 0 0 1-1.308.156m6.883 0q-1.116 0-1.668-.576-.552-.588-.552-1.728v-4.284h1.272v4.032q0 .732.288 1.128.288.384 1.02.384.648 0 1.008-.276t.504-.792.144-1.236v-3.24h1.272V77h-.996l-.192-.852h-.072a2 2 0 0 1-.516.552 2 2 0 0 1-.684.312 3 3 0 0 1-.828.108m4.831-.12v-.828l1.884-.228v-4.356l-1.656-.168v-.888h2.652l.168 1.152h.06q.336-.612.756-.936.432-.336 1.104-.336.348 0 .66.06.324.06.6.192l-.336 1.14a2 2 0 0 0-.456-.156 2 2 0 0 0-.54-.072q-.528 0-.924.3a2 2 0 0 0-.6.804 3 3 0 0 0-.204 1.116v2.148l1.824.228V77zm9.32 0v-5.412h-1.992v-.84l1.992-.216v-.636q0-.768.288-1.224a1.57 1.57 0 0 1 .816-.648q.54-.204 1.284-.204.504 0 .924.072.432.072.768.18l-.3.984a5 5 0 0 0-.612-.12 3.6 3.6 0 0 0-.636-.06q-.612 0-.936.264-.324.252-.324.912v.48h2.328v1.056h-2.328V77zm7.267.12q-.972 0-1.536-.492t-.564-1.428q0-.708.324-1.164.336-.468.972-.696.648-.24 1.56-.264l1.404-.036v-.276q0-.744-.408-1.032-.396-.288-1.104-.288-.492 0-.96.12t-.924.348l-.42-.936a5.7 5.7 0 0 1 1.056-.396 4.8 4.8 0 0 1 1.308-.168q1.26 0 1.944.552t.684 1.716V77h-.996l-.168-.876h-.048a2.6 2.6 0 0 1-.6.564q-.312.216-.696.324a3 3 0 0 1-.828.108m.312-1.02q.504 0 .924-.18.42-.192.672-.552.252-.372.252-.912v-.564l-1.104.024q-.684.024-1.116.168-.42.144-.624.408a1.05 1.05 0 0 0-.192.636q0 .516.324.744.336.228.864.228m8.071 1.02q-.984 0-1.68-.348a2.32 2.32 0 0 1-1.044-1.08q-.36-.732-.36-1.872 0-1.2.384-1.956a2.44 2.44 0 0 1 1.116-1.104q.72-.348 1.68-.348.54 0 1.032.108t.924.324l-.372 1.032a3.5 3.5 0 0 0-.78-.288 3.4 3.4 0 0 0-.744-.084q-.672 0-1.104.264-.432.252-.636.756t-.204 1.272q0 .792.216 1.284t.648.72 1.068.228q.48 0 .936-.108.468-.12.864-.312v1.128q-.408.192-.924.288a5.4 5.4 0 0 1-1.02.096m7.232 0q-1.068 0-1.836-.384a2.76 2.76 0 0 1-1.164-1.14q-.408-.744-.408-1.824 0-1.044.372-1.788a2.8 2.8 0 0 1 1.068-1.164q.684-.408 1.62-.408.864 0 1.476.372.624.372.96 1.056.336.672.336 1.62v.6h-4.56q.024.732.312 1.176t.78.648q.492.192 1.128.192.504 0 1.02-.132a8 8 0 0 0 1.056-.372v1.092a5 5 0 0 1-1.092.348 5.6 5.6 0 0 1-1.068.108m1.2-4.02q-.012-.528-.204-.9a1.34 1.34 0 0 0-.516-.576q-.336-.204-.816-.204-.732 0-1.2.456-.468.444-.576 1.224z"/><path fill="var(--colors-sd-system-color-chart-mark-primary-06)" d="M356.385 122.047h2.044v6.576q0 1.149-.492 1.935a3.04 3.04 0 0 1-1.347 1.182q-.855.397-1.969.397t-1.982-.397a3.07 3.07 0 0 1-1.354-1.182q-.485-.786-.485-1.935v-6.576h2.051v6.576q0 .67.211 1.094.213.424.609.622.404.198.95.198.561 0 .95-.198.397-.199.602-.622.212-.424.212-1.094zm5.913 0V132h-2.044v-9.953zm9.306.363a44 44 0 0 1-.364 2.268q-.224 1.204-.602 2.436-.406 1.415-.952 2.436-.546 1.022-1.204 1.582-.644.546-1.414.546t-1.428-.518q-.644-.532-1.036-1.456-.378-.924-.378-2.1 0-1.218.49-2.296a6.1 6.1 0 0 1 1.358-1.904 6.5 6.5 0 0 1 2.044-1.316 6.7 6.7 0 0 1 2.534-.476q1.302 0 2.338.42 1.05.42 1.792 1.162a5 5 0 0 1 1.134 1.736q.392.994.392 2.142 0 1.47-.602 2.632t-1.792 1.918q-1.176.756-2.94 1.036l-1.05-1.666q.407-.042.714-.098.308-.055.588-.126a5.4 5.4 0 0 0 1.246-.476 4 4 0 0 0 1.022-.784q.433-.476.672-1.106a3.7 3.7 0 0 0 .252-1.386q0-.827-.252-1.512a3.3 3.3 0 0 0-.742-1.19 3.16 3.16 0 0 0-1.19-.784q-.7-.28-1.61-.28-1.12 0-1.974.406a4.5 4.5 0 0 0-1.442 1.022q-.588.63-.896 1.358a3.7 3.7 0 0 0-.294 1.386q0 .7.168 1.176.168.462.406.7.252.224.532.224.294 0 .574-.294.294-.308.574-.924t.56-1.554q.322-1.008.546-2.156t.322-2.24zm8.162 3.458h7.868v1.218h-6.16v6.174h-1.708zm7.434 0h1.736v5.698q0 .616-.182.938-.168.336-.602.504t-1.064.196q-.63.042-1.484.042a3.5 3.5 0 0 0-.196-.756 6 6 0 0 0-.322-.714l.714.028q.378.014.672.014h.406q.196-.014.252-.07.07-.056.07-.196zm-6.104 1.946h6.594v1.162h-6.594zm-2.702-6.65h4.27v1.288h-4.27zm-.336 2.66a80 80 0 0 0 2.072-.266q1.218-.168 2.478-.35l.07 1.218-2.296.42q-1.147.196-2.1.364zm3.038 5.922h6.608v1.162h-6.608zm.518-9.66h1.68v5.474h-1.68zm7.56.546 1.078 1.204a22 22 0 0 1-1.372.434q-.728.21-1.47.378a57 57 0 0 1-1.442.308 3.3 3.3 0 0 0-.182-.574 4 4 0 0 0-.252-.574 99 99 0 0 0 1.302-.35q.672-.196 1.274-.406.602-.224 1.064-.42m-4.41-.532h1.708v3.43q0 .336.112.42t.504.084h1.554q.21 0 .322-.07.126-.084.168-.308a4.5 4.5 0 0 0 .084-.686q.266.181.7.336.434.154.784.238-.084.728-.294 1.148a1.2 1.2 0 0 1-.588.588q-.378.168-1.008.168h-1.96q-.84 0-1.302-.168a1.01 1.01 0 0 1-.616-.588q-.168-.434-.168-1.148zm10.472 3.024v.602h6.09v-.602zm0-1.554v.588h6.09v-.588zm-1.61-1.036h9.38v4.242h-9.38zm-1.54 4.802h12.404v1.302h-12.404zm3.486 2.912v.91h5.516v-.91zm-1.61-1.148h8.82v3.22h-8.82zm3.486-2.576h1.722v1.554h-1.722zm.07 5.124h1.68v2.17q0 .532-.154.812t-.56.42q-.42.14-.98.154-.546.028-1.288.028a4 4 0 0 0-.196-.658 6 6 0 0 0-.28-.63l.602.028h.574q.252-.014.336-.014.155-.014.21-.056.056-.042.056-.154zm2.296 1.596 1.12-.882q.574.196 1.246.504.672.294 1.288.616.63.308 1.05.588l-1.204.994a8 8 0 0 0-.966-.616 26 26 0 0 0-1.26-.644 20 20 0 0 0-1.274-.56m-4.718-.896 1.54.616q-.476.406-1.106.812-.63.392-1.288.728t-1.274.574a11 11 0 0 0-.364-.378 10 10 0 0 0-.448-.448 2.6 2.6 0 0 0-.42-.35q.616-.182 1.246-.434t1.176-.532q.56-.294.938-.588"/><rect width="16" height="16" x="350" y="152" fill="#fff" rx="8"/><path fill="var(--colors-sd-system-color-chart-component-on-chart-surface)" d="M375.028 163.176q0 .636-.288 1.068t-.84.66q-.552.216-1.356.216-.636 0-1.116-.108-.468-.096-.864-.288v-1.116q.42.204.96.372.54.156 1.032.156.636 0 .924-.228a.74.74 0 0 0 .288-.612.64.64 0 0 0-.12-.384q-.108-.18-.42-.36a6.4 6.4 0 0 0-.9-.432 8 8 0 0 1-.972-.492 2 2 0 0 1-.6-.588q-.204-.348-.204-.888 0-.84.648-1.284.648-.456 1.692-.456.576 0 1.068.12.492.108.96.336l-.396.972a4 4 0 0 0-.564-.216 5 5 0 0 0-.552-.156 2.6 2.6 0 0 0-.552-.06q-.516 0-.78.18a.58.58 0 0 0-.264.504q0 .24.12.408.132.168.444.336.324.168.888.396t.96.468.6.588.204.888m6.708-4.644V165h-1.02l-.18-.852h-.072q-.18.336-.492.552-.3.216-.66.312-.36.108-.744.108-.708 0-1.2-.24a1.73 1.73 0 0 1-.744-.768q-.252-.528-.252-1.344v-4.236h1.308v4.044q0 .756.288 1.128t.9.372q.6 0 .936-.264.348-.264.492-.768.144-.516.144-1.236v-3.276zm4.905-.12q.156 0 .348.024.192.012.324.036l-.132 1.188a2.5 2.5 0 0 0-.636-.084q-.324 0-.624.144-.3.132-.54.396-.24.252-.384.624a2.4 2.4 0 0 0-.144.852V165h-1.296v-6.468h1.02l.168 1.152h.072q.18-.348.444-.636a2.2 2.2 0 0 1 .624-.456q.348-.18.756-.18m4.827 1.092h-1.476V165h-1.308v-5.496h-.996v-.6l.996-.396v-.408q0-.828.228-1.32.24-.504.696-.732t1.116-.228q.396 0 .732.072t.588.156l-.324.972q-.18-.06-.42-.108a1.8 1.8 0 0 0-.468-.06q-.432 0-.636.312t-.204.948v.42h1.476zm3.478-1.092q1.14 0 1.716.54.588.528.588 1.668V165h-.924l-.252-.9h-.048a4 4 0 0 1-.552.576 1.7 1.7 0 0 1-.624.336q-.348.108-.864.108-.54 0-.972-.204a1.6 1.6 0 0 1-.684-.648q-.252-.444-.252-1.104 0-.984.696-1.5.708-.516 2.148-.564l1.032-.036v-.36q0-.72-.3-1.008-.288-.288-.816-.288-.444 0-.876.144a6.4 6.4 0 0 0-.84.348l-.396-.924q.444-.24 1.008-.396a4.3 4.3 0 0 1 1.212-.168m.228 3.504q-.984.048-1.368.372-.384.312-.384.888 0 .504.264.732.276.228.708.228.66 0 1.104-.42.456-.42.456-1.26v-.564zm6.371 3.204q-.852 0-1.5-.348-.636-.348-.996-1.08-.348-.744-.348-1.884 0-1.2.384-1.944t1.044-1.092q.66-.36 1.512-.36.504 0 .96.12.468.108.768.252l-.396 1.02q-.3-.12-.648-.216a2.5 2.5 0 0 0-.66-.096q-.552 0-.912.264-.348.252-.528.768-.18.504-.18 1.272 0 .732.18 1.236t.528.768q.36.252.864.252.492 0 .876-.12.396-.12.732-.312v1.104a2.6 2.6 0 0 1-.732.3q-.396.096-.948.096m5.53-6.708q.804 0 1.392.36.588.348.9 1.008.324.66.324 1.56v.696h-4.068q.024.996.48 1.524t1.284.528q.588 0 1.044-.108.468-.12.948-.348v1.056a4.5 4.5 0 0 1-.936.324 5 5 0 0 1-1.14.108q-.876 0-1.56-.372a2.6 2.6 0 0 1-1.068-1.104q-.384-.744-.384-1.824 0-1.092.348-1.848t.972-1.152a2.65 2.65 0 0 1 1.464-.408m0 .984q-.612 0-.984.444t-.432 1.26h2.748q0-.504-.144-.888a1.26 1.26 0 0 0-.444-.6q-.288-.216-.744-.216"/><path fill="#fff" d="M350 180a4 4 0 0 1 4-4h246a4 4 0 0 1 4 4v16a4 4 0 0 1-4 4H354a4 4 0 0 1-4-4z"/><path fill="var(--colors-sd-system-color-chart-component-on-chart-surface)" d="M361.324 193.12q-.6 0-1.152-.108-.552-.096-.996-.288v-1.188q.444.204.996.372.552.156 1.248.156t1.008-.204.312-.612a.6.6 0 0 0-.132-.408q-.132-.156-.468-.312a16 16 0 0 0-.924-.396 16 16 0 0 1-1.032-.504 2 2 0 0 1-.684-.576q-.24-.336-.24-.864 0-.6.312-.996t.876-.588q.576-.192 1.344-.192.564 0 1.092.108t1.068.336l-.384.984a5 5 0 0 0-.936-.288 4.3 4.3 0 0 0-.852-.084q-.648 0-.96.168-.3.156-.3.516 0 .252.156.42t.492.324l.864.372q.612.24 1.056.468.456.228.696.576.24.336.24.924 0 .624-.312 1.044-.3.42-.9.636-.6.204-1.488.204m7.051 0q-.6 0-1.08-.216a2.24 2.24 0 0 1-.816-.66 3.2 3.2 0 0 1-.504-1.056 5.7 5.7 0 0 1-.168-1.452q0-1.044.288-1.788.3-.744.9-1.14t1.5-.396q.444 0 .78.12.348.108.6.324.252.204.42.504h.06a6 6 0 0 0-.036-.348 5 5 0 0 1-.048-.744v-2.388h1.248V193h-1.008l-.192-.864h-.06q-.18.3-.456.528a2 2 0 0 1-.624.336q-.348.12-.804.12m.348-1.044q.804 0 1.188-.54.396-.552.396-1.524v-.228q0-.672-.144-1.2t-.48-.828-.924-.3q-.804 0-1.236.6-.42.588-.42 1.788 0 1.128.396 1.68t1.224.552m7.268 1.044a.88.88 0 0 1-.612-.216q-.24-.216-.24-.672 0-.48.24-.684a.9.9 0 0 1 .612-.204q.372 0 .6.216.24.204.24.672 0 .444-.24.672-.228.216-.6.216m6.919 0q-.6 0-1.152-.108-.552-.096-.996-.288v-1.188q.444.204.996.372.552.156 1.248.156t1.008-.204.312-.612a.6.6 0 0 0-.132-.408q-.132-.156-.468-.312a16 16 0 0 0-.924-.396 16 16 0 0 1-1.032-.504 2 2 0 0 1-.684-.576q-.24-.336-.24-.864 0-.6.312-.996t.876-.588q.576-.192 1.344-.192.564 0 1.092.108t1.068.336l-.384.984a5 5 0 0 0-.936-.288 4.3 4.3 0 0 0-.852-.084q-.648 0-.96.168-.3.156-.3.516 0 .252.156.42t.492.324l.864.372q.612.24 1.056.468.456.228.696.576.24.336.24.924 0 .624-.312 1.044-.3.42-.9.636-.6.204-1.488.204m5.491 2.82a3 3 0 0 1-.456-.036 5 5 0 0 1-.408-.06v-1.02q.144.024.336.048t.36.024q.372 0 .612-.132.252-.12.432-.372.192-.252.348-.648l.276-.72-2.664-6.492h1.296l1.452 3.78q.144.336.264.744.132.396.228.792h.036q.072-.276.144-.54.084-.264.156-.516l.156-.492 1.224-3.768h1.332l-2.652 7.164a6.5 6.5 0 0 1-.564 1.2 2.1 2.1 0 0 1-.756.768q-.456.276-1.152.276m8.9-2.82q-.6 0-1.152-.108-.552-.096-.996-.288v-1.188q.444.204.996.372.552.156 1.248.156t1.008-.204.312-.612a.6.6 0 0 0-.132-.408q-.132-.156-.468-.312a16 16 0 0 0-.924-.396 16 16 0 0 1-1.032-.504 2 2 0 0 1-.684-.576q-.24-.336-.24-.864 0-.6.312-.996t.876-.588q.576-.192 1.344-.192.564 0 1.092.108t1.068.336l-.384.984a5 5 0 0 0-.936-.288 4.3 4.3 0 0 0-.852-.084q-.648 0-.96.168-.3.156-.3.516 0 .252.156.42t.492.324l.864.372q.612.24 1.056.468.456.228.696.576.24.336.24.924 0 .624-.312 1.044-.3.42-.9.636-.6.204-1.488.204m8.659 0q-.732 0-1.284-.192a1.73 1.73 0 0 1-.864-.672q-.3-.48-.3-1.296v-3.372h-1.68v-.84l1.716-.24.24-1.668h.996v1.692h2.496v1.056h-2.496v3.168q0 .48.144.768a.87.87 0 0 0 .444.42q.3.132.732.132.312 0 .648-.06.348-.06.672-.12v1.008q-.336.096-.708.156t-.756.06m6.499 0q-1.068 0-1.836-.384a2.76 2.76 0 0 1-1.164-1.14q-.408-.744-.408-1.824 0-1.044.372-1.788a2.8 2.8 0 0 1 1.068-1.164q.684-.408 1.62-.408.864 0 1.476.372.624.372.96 1.056.336.672.336 1.62v.6h-4.56q.024.732.312 1.176t.78.648q.492.192 1.128.192.504 0 1.02-.132a8 8 0 0 0 1.056-.372v1.092a5 5 0 0 1-1.092.348 5.6 5.6 0 0 1-1.068.108m1.2-4.02q-.012-.528-.204-.9a1.34 1.34 0 0 0-.516-.576q-.336-.204-.816-.204-.732 0-1.2.456-.468.444-.576 1.224zm2.432 3.9v-6.468h.876l.168.744h.06q.156-.324.324-.504.18-.192.396-.276t.48-.084q.504 0 .768.252.276.24.408.72h.048q.204-.468.504-.72.312-.252.816-.252t.78.264q.288.252.408.78.12.516.12 1.332V193h-1.128v-4.188q0-.42-.036-.708t-.156-.444q-.12-.168-.384-.168a.55.55 0 0 0-.444.228q-.18.216-.276.66a6 6 0 0 0-.084 1.104V193h-1.128v-4.188q0-.432-.06-.72a.9.9 0 0 0-.18-.444q-.132-.156-.396-.156a.53.53 0 0 0-.456.24q-.168.24-.24.684a7 7 0 0 0-.072 1.068V193zm10.267.12a.88.88 0 0 1-.612-.216q-.24-.216-.24-.672 0-.48.24-.684a.9.9 0 0 1 .612-.204q.372 0 .6.216.24.204.24.672 0 .444-.24.672-.228.216-.6.216m7.651 0q-.984 0-1.68-.348a2.32 2.32 0 0 1-1.044-1.08q-.36-.732-.36-1.872 0-1.2.384-1.956a2.44 2.44 0 0 1 1.116-1.104q.72-.348 1.68-.348.54 0 1.032.108t.924.324l-.372 1.032a3.5 3.5 0 0 0-.78-.288 3.4 3.4 0 0 0-.744-.084q-.672 0-1.104.264-.432.252-.636.756t-.204 1.272q0 .792.216 1.284t.648.72 1.068.228q.48 0 .936-.108.468-.12.864-.312v1.128q-.408.192-.924.288a5.4 5.4 0 0 1-1.02.096m6.751 0q-.66 0-1.212-.216a2.7 2.7 0 0 1-.96-.636 3 3 0 0 1-.612-1.056q-.216-.624-.216-1.452 0-1.104.372-1.836a2.67 2.67 0 0 1 1.056-1.128q.672-.384 1.548-.384t1.548.384q.684.372 1.068 1.116t.384 1.86q0 .816-.216 1.44a3 3 0 0 1-.612 1.056q-.384.42-.936.636-.54.216-1.212.216m0-1.032q.564 0 .936-.276.384-.288.564-.816.192-.528.192-1.236 0-.72-.192-1.236-.18-.516-.564-.792-.372-.288-.948-.288-.864 0-1.296.624-.42.612-.42 1.692 0 .708.192 1.236t.576.816q.384.276.96.276m4.472.912v-.828l2.292-.228v-7.008l-2.112-.216v-.84h3.396v8.064l2.052.228V193zm9.919.12q-.66 0-1.212-.216a2.7 2.7 0 0 1-.96-.636 3 3 0 0 1-.612-1.056q-.216-.624-.216-1.452 0-1.104.372-1.836a2.67 2.67 0 0 1 1.056-1.128q.672-.384 1.548-.384t1.548.384q.684.372 1.068 1.116t.384 1.86q0 .816-.216 1.44a3 3 0 0 1-.612 1.056q-.384.42-.936.636-.54.216-1.212.216m0-1.032q.564 0 .936-.276.384-.288.564-.816.192-.528.192-1.236 0-.72-.192-1.236-.18-.516-.564-.792-.372-.288-.948-.288-.864 0-1.296.624-.42.612-.42 1.692 0 .708.192 1.236t.576.816q.384.276.96.276m4.255.912v-.828l1.884-.228v-4.356l-1.656-.168v-.888h2.652l.168 1.152h.06q.336-.612.756-.936.432-.336 1.104-.336.348 0 .66.06.324.06.6.192l-.336 1.14a2 2 0 0 0-.456-.156 2 2 0 0 0-.54-.072q-.528 0-.924.3a2 2 0 0 0-.6.804 3 3 0 0 0-.204 1.116v2.148l1.824.228V193zm10.124.12a.88.88 0 0 1-.612-.216q-.24-.216-.24-.672 0-.48.24-.684a.9.9 0 0 1 .612-.204q.372 0 .6.216.24.204.24.672 0 .444-.24.672-.228.216-.6.216m7.651 0q-.984 0-1.68-.348a2.32 2.32 0 0 1-1.044-1.08q-.36-.732-.36-1.872 0-1.2.384-1.956a2.44 2.44 0 0 1 1.116-1.104q.72-.348 1.68-.348.54 0 1.032.108t.924.324l-.372 1.032a3.5 3.5 0 0 0-.78-.288 3.4 3.4 0 0 0-.744-.084q-.672 0-1.104.264-.432.252-.636.756t-.204 1.272q0 .792.216 1.284t.648.72 1.068.228q.48 0 .936-.108.468-.12.864-.312v1.128q-.408.192-.924.288a5.4 5.4 0 0 1-1.02.096m6.751 0q-.66 0-1.212-.216a2.7 2.7 0 0 1-.96-.636 3 3 0 0 1-.612-1.056q-.216-.624-.216-1.452 0-1.104.372-1.836a2.67 2.67 0 0 1 1.056-1.128q.672-.384 1.548-.384t1.548.384q.684.372 1.068 1.116t.384 1.86q0 .816-.216 1.44a3 3 0 0 1-.612 1.056q-.384.42-.936.636-.54.216-1.212.216m0-1.032q.564 0 .936-.276.384-.288.564-.816.192-.528.192-1.236 0-.72-.192-1.236-.18-.516-.564-.792-.372-.288-.948-.288-.864 0-1.296.624-.42.612-.42 1.692 0 .708.192 1.236t.576.816q.384.276.96.276m4.112.912v-6.468h.876l.168.744h.06q.156-.324.324-.504.18-.192.396-.276t.48-.084q.504 0 .768.252.276.24.408.72h.048q.204-.468.504-.72.312-.252.816-.252t.78.264q.288.252.408.78.12.516.12 1.332V193h-1.128v-4.188q0-.42-.036-.708t-.156-.444q-.12-.168-.384-.168a.55.55 0 0 0-.444.228q-.18.216-.276.66a6 6 0 0 0-.084 1.104V193h-1.128v-4.188q0-.432-.06-.72a.9.9 0 0 0-.18-.444q-.132-.156-.396-.156a.53.53 0 0 0-.456.24q-.168.24-.24.684a7 7 0 0 0-.072 1.068V193zm7.543 2.88v-9.348h1.008l.18.864h.06q.204-.312.48-.528.276-.228.636-.336.36-.12.816-.12.6 0 1.068.228a2 2 0 0 1 .804.66q.324.432.492 1.056.168.612.168 1.404 0 1.08-.312 1.836t-.888 1.14-1.356.384q-.432 0-.792-.12a2.3 2.3 0 0 1-.636-.324 3 3 0 0 1-.48-.468h-.072q.048.276.06.528.012.24.012.42v2.724zm2.832-3.804q.828 0 1.2-.576t.372-1.764q0-1.152-.372-1.716-.36-.564-1.212-.564-.792 0-1.188.54-.384.528-.384 1.524v.228q0 1.104.36 1.716t1.224.612m7.099 1.044q-.66 0-1.212-.216a2.7 2.7 0 0 1-.96-.636 3 3 0 0 1-.612-1.056q-.216-.624-.216-1.452 0-1.104.372-1.836a2.67 2.67 0 0 1 1.056-1.128q.672-.384 1.548-.384t1.548.384q.684.372 1.068 1.116t.384 1.86q0 .816-.216 1.44a3 3 0 0 1-.612 1.056q-.384.42-.936.636-.54.216-1.212.216m0-1.032q.564 0 .936-.276.384-.288.564-.816.192-.528.192-1.236 0-.72-.192-1.236-.18-.516-.564-.792-.372-.288-.948-.288-.864 0-1.296.624-.42.612-.42 1.692 0 .708.192 1.236t.576.816q.384.276.96.276m4.46.912v-6.468h.996l.192.912h.072q.192-.348.492-.576t.696-.336q.408-.12.876-.12 1.008 0 1.596.576.588.564.588 1.728V193h-1.272v-4.02q0-.792-.324-1.152-.312-.372-.984-.372-.9 0-1.284.612-.372.612-.372 1.692V193zm10.411.12q-1.068 0-1.836-.384a2.76 2.76 0 0 1-1.164-1.14q-.408-.744-.408-1.824 0-1.044.372-1.788a2.8 2.8 0 0 1 1.068-1.164q.684-.408 1.62-.408.864 0 1.476.372.624.372.96 1.056.336.672.336 1.62v.6h-4.56q.024.732.312 1.176t.78.648q.492.192 1.128.192.504 0 1.02-.132a8 8 0 0 0 1.056-.372v1.092a5 5 0 0 1-1.092.348 5.6 5.6 0 0 1-1.068.108m1.2-4.02q-.012-.528-.204-.9a1.34 1.34 0 0 0-.516-.576q-.336-.204-.816-.204-.732 0-1.2.456-.468.444-.576 1.224zm2.779 3.9v-6.468h.996l.192.912h.072q.192-.348.492-.576t.696-.336q.408-.12.876-.12 1.008 0 1.596.576.588.564.588 1.728V193h-1.272v-4.02q0-.792-.324-1.152-.312-.372-.984-.372-.9 0-1.284.612-.372.612-.372 1.692V193zm11.108.12q-.732 0-1.284-.192a1.73 1.73 0 0 1-.864-.672q-.3-.48-.3-1.296v-3.372h-1.68v-.84l1.716-.24.24-1.668h.996v1.692h2.496v1.056H534.3v3.168q0 .48.144.768a.87.87 0 0 0 .444.42q.3.132.732.132.312 0 .648-.06.348-.06.672-.12v1.008q-.336.096-.708.156t-.756.06m6.007 0a.88.88 0 0 1-.612-.216q-.24-.216-.24-.672 0-.48.24-.684a.9.9 0 0 1 .612-.204q.372 0 .6.216.24.204.24.672 0 .444-.24.672-.228.216-.6.216m6.919 0q-.6 0-1.152-.108-.552-.096-.996-.288v-1.188q.444.204.996.372.552.156 1.248.156t1.008-.204.312-.612a.6.6 0 0 0-.132-.408q-.132-.156-.468-.312a16 16 0 0 0-.924-.396 16 16 0 0 1-1.032-.504 2 2 0 0 1-.684-.576q-.24-.336-.24-.864 0-.6.312-.996t.876-.588q.576-.192 1.344-.192.564 0 1.092.108t1.068.336l-.384.984a5 5 0 0 0-.936-.288 4.3 4.3 0 0 0-.852-.084q-.648 0-.96.168-.3.156-.3.516 0 .252.156.42t.492.324l.864.372q.612.24 1.056.468.456.228.696.576.24.336.24.924 0 .624-.312 1.044-.3.42-.9.636-.6.204-1.488.204m6.907 0q-1.116 0-1.668-.576-.552-.588-.552-1.728v-4.284h1.272v4.032q0 .732.288 1.128.288.384 1.02.384.648 0 1.008-.276t.504-.792.144-1.236v-3.24h1.272V193h-.996l-.192-.852h-.072a2 2 0 0 1-.516.552 2 2 0 0 1-.684.312 3 3 0 0 1-.828.108m4.832-.12v-.828l1.884-.228v-4.356l-1.656-.168v-.888h2.652l.168 1.152h.06q.336-.612.756-.936.432-.336 1.104-.336.348 0 .66.06.324.06.6.192l-.336 1.14a2 2 0 0 0-.456-.156 2 2 0 0 0-.54-.072q-.528 0-.924.3a2 2 0 0 0-.6.804 3 3 0 0 0-.204 1.116v2.148l1.824.228V193zm9.319 0v-5.412h-1.992v-.84l1.992-.216v-.636q0-.768.288-1.224a1.57 1.57 0 0 1 .816-.648q.54-.204 1.284-.204.504 0 .924.072.432.072.768.18l-.3.984a5 5 0 0 0-.612-.12 3.6 3.6 0 0 0-.636-.06q-.612 0-.936.264-.324.252-.324.912v.48h2.328v1.056h-2.328V193zm7.267.12q-.972 0-1.536-.492t-.564-1.428q0-.708.324-1.164.336-.468.972-.696.648-.24 1.56-.264l1.404-.036v-.276q0-.744-.408-1.032-.396-.288-1.104-.288-.492 0-.96.12t-.924.348l-.42-.936a5.7 5.7 0 0 1 1.056-.396 4.8 4.8 0 0 1 1.308-.168q1.26 0 1.944.552t.684 1.716V193h-.996l-.168-.876h-.048a2.6 2.6 0 0 1-.6.564q-.312.216-.696.324a3 3 0 0 1-.828.108m.312-1.02q.504 0 .924-.18.42-.192.672-.552.252-.372.252-.912v-.564l-1.104.024q-.684.024-1.116.168-.42.144-.624.408a1.05 1.05 0 0 0-.192.636q0 .516.324.744.336.228.864.228m8.072 1.02q-.984 0-1.68-.348a2.32 2.32 0 0 1-1.044-1.08q-.36-.732-.36-1.872 0-1.2.384-1.956a2.44 2.44 0 0 1 1.116-1.104q.72-.348 1.68-.348.54 0 1.032.108t.924.324l-.372 1.032a3.5 3.5 0 0 0-.78-.288 3.4 3.4 0 0 0-.744-.084q-.672 0-1.104.264-.432.252-.636.756t-.204 1.272q0 .792.216 1.284t.648.72 1.068.228q.48 0 .936-.108.468-.12.864-.312v1.128q-.408.192-.924.288a5.4 5.4 0 0 1-1.02.096m7.231 0q-1.068 0-1.836-.384a2.76 2.76 0 0 1-1.164-1.14q-.408-.744-.408-1.824 0-1.044.372-1.788a2.8 2.8 0 0 1 1.068-1.164q.684-.408 1.62-.408.864 0 1.476.372.624.372.96 1.056.336.672.336 1.62v.6h-4.56q.024.732.312 1.176t.78.648q.492.192 1.128.192.504 0 1.02-.132a8 8 0 0 0 1.056-.372v1.092a5 5 0 0 1-1.092.348 5.6 5.6 0 0 1-1.068.108m1.2-4.02q-.012-.528-.204-.9a1.34 1.34 0 0 0-.516-.576q-.336-.204-.816-.204-.732 0-1.2.456-.468.444-.576 1.224z"/><rect width="303" height="219" x=".5" y=".5" fill="#fff" rx="7.5"/><rect width="303" height="219" x=".5" y=".5" stroke="var(--colors-sd-system-color-component-outline)" rx="7.5"/><path fill="#000" d="M20.25 22.29h6.07v.921h-6.07zm-.043 2.467h6.112v.908h-6.111zm6.212-8.636 1.02.397q-.368.71-.808 1.447-.425.723-.808 1.233l-.907-.383q.255-.368.524-.822.284-.469.54-.964.268-.497.439-.908m-7.26.482.893-.411q.31.397.61.865.297.469.524.922.24.453.355.822l-.95.468a5 5 0 0 0-.327-.822 13 13 0 0 0-.51-.95 9 9 0 0 0-.596-.894m.396 3.162h6.807v1.007h-5.757v7.998h-1.05zm6.282 0h1.035v7.672q0 .44-.113.68-.113.256-.425.398-.326.127-.88.142-.538.028-1.347.028a3 3 0 0 0-.127-.496 3.3 3.3 0 0 0-.213-.51q.61.014 1.106.014.51.014.68 0 .285-.015.284-.27zm-3.091-4.055h1.063v4.68h-1.063zm-7.36.893.638-.723q.44.213.908.496t.879.582q.425.297.68.553l-.652.822a5 5 0 0 0-.666-.567 12 12 0 0 0-.88-.624 10 10 0 0 0-.907-.539m-.666 3.8.61-.751q.453.198.935.482t.908.581q.44.299.695.554l-.624.836a5 5 0 0 0-.695-.567 14 14 0 0 0-.908-.61q-.468-.297-.921-.524m.44 7.53q.353-.552.765-1.318.426-.766.85-1.617.441-.85.795-1.659l.794.638a66 66 0 0 1-.71 1.574q-.382.823-.793 1.617-.397.78-.78 1.46zm15.697-9.912h8.906v-.794h-9.87v-.723H40.74v2.226h-9.884zm-.326 0h1.007q-.198.61-.44 1.262-.227.639-.41 1.106l-.994-.056q.213-.483.44-1.106.227-.639.397-1.206m-.07 1.475h10.521v.709H30.248zm10.167 0h1.007l-.015.128v.227q-.07.651-.156 1.006-.084.34-.255.497a.9.9 0 0 1-.312.198 1.5 1.5 0 0 1-.383.071h-.539q-.34-.015-.709-.028a2 2 0 0 0-.07-.355 1.4 1.4 0 0 0-.142-.354q.34.029.61.042.27.015.382.014.129 0 .199-.014a.22.22 0 0 0 .128-.085q.085-.085.141-.354.071-.285.114-.865zm-7.26-3.772h.978v2.552q0 .71-.17 1.333a2.7 2.7 0 0 1-.639 1.163q-.468.525-1.404.95-.922.426-2.467.724a2 2 0 0 0-.128-.284 3 3 0 0 0-.184-.298 1.5 1.5 0 0 0-.198-.255q1.418-.255 2.254-.61.837-.354 1.262-.78.426-.424.553-.922.142-.495.142-1.035zm3.176 0h1.02v5.545h-1.02zm-4.566 7.8v.878h7.118v-.879zm0 1.545v.893h7.118v-.893zm0-3.077v.879h7.118v-.88zm-1.036-.68h9.232v5.345h-9.232zm5.658 6.054.851-.567q.78.213 1.588.468.81.241 1.518.482.723.255 1.234.468l-1.135.567a15 15 0 0 0-1.106-.453q-.638-.242-1.404-.497a25 25 0 0 0-1.546-.468m-3.261-.581.95.44q-.567.31-1.333.61-.765.297-1.56.552-.78.255-1.503.426a2 2 0 0 0-.213-.27 9 9 0 0 0-.298-.283 5 5 0 0 0-.255-.241q.738-.142 1.503-.34.78-.185 1.49-.412a8.6 8.6 0 0 0 1.219-.482m12.025-2.482h8.509v.71h-8.509zm.029-1.758h9.09v4.226h-9.09v-.78h8.04v-2.666h-8.04zm3.63.383h1.035v4.282q0 .355.199.468.198.114.864.114h3.177q.383 0 .567-.128.199-.114.284-.468.085-.369.113-1.078.17.114.44.213.27.1.482.142-.071.865-.241 1.333t-.539.652q-.368.2-1.035.199h-3.305q-.78 0-1.233-.128-.453-.114-.638-.425-.17-.312-.17-.894zm-4.17-.383h1.022v4.963h-1.021zm-.41-6.211h10.366v.822H44.442zm.893 3.247h3.006v.667h-3.006zm-.284 1.447h3.29v.68h-3.29zm5.814 0h3.404v.68h-3.404zm0-1.447h3.05v.667h-3.05zm-1.8-2.935h1.049v5.417h-1.05zM43.62 18.02h12.04v2.78h-.993v-2H44.584v2h-.964zm14.28.794h11.004v1.092H57.9zm10.593 0h1.092v.114q0 .113-.014.24 0 .129-.014.213a125 125 0 0 1-.242 3.744 33 33 0 0 1-.269 2.553q-.142.992-.326 1.574-.17.567-.411.822-.255.312-.54.426-.269.112-.68.156-.354.028-.993.014-.624-.015-1.276-.043a2.3 2.3 0 0 0-.113-.553 1.6 1.6 0 0 0-.255-.538q.736.056 1.347.085.623.014.893.014.227 0 .369-.043a.6.6 0 0 0 .283-.184q.198-.185.355-.723.17-.554.298-1.532.142-.993.255-2.496.127-1.503.241-3.616zm-5.956-3.063h1.106v2.454q0 .978-.085 2.07-.086 1.078-.369 2.212-.283 1.12-.865 2.24a10 10 0 0 1-1.56 2.17q-.978 1.035-2.467 1.929a2 2 0 0 0-.227-.298 9 9 0 0 0-.298-.312 2 2 0 0 0-.297-.227q1.417-.85 2.34-1.815.935-.965 1.474-1.985.553-1.035.808-2.07.27-1.036.355-2.028t.085-1.886z"/><path fill="#000" fill-rule="evenodd" d="m277.053 17.246 4.857 4.857a.754.754 0 0 1 0 1.066l-4.857 4.857-.752-.753 4.637-4.637-4.637-4.638z" clip-rule="evenodd"/><path fill="var(--colors-sd-system-color-chart-component-on-chart-surface)" d="M16.433 164.191q.195.03.419.039t.458.01h3.832q.234 0 .468-.01.233-.009.419-.039v.81a4 4 0 0 0-.42-.02q-.233-.01-.477-.01H17.31q-.225 0-.448.01l-.43.02zm6.308 2.574-.078.146a.5.5 0 0 0-.05.137q-.195.721-.535 1.453a5.3 5.3 0 0 1-.888 1.316 6.1 6.1 0 0 1-1.667 1.306q-.887.468-1.823.731l-.604-.692a7.5 7.5 0 0 0 1.92-.673 5.7 5.7 0 0 0 1.511-1.111q.45-.468.732-1.043.293-.585.429-1.112H16.51q-.175 0-.428.01-.255 0-.527.02v-.819q.273.029.517.048.244.01.439.01h5.138q.165 0 .312-.019a.7.7 0 0 0 .224-.059zm7.926-1.92q.127.175.292.448.175.273.341.566.176.291.293.526l-.575.263a14 14 0 0 0-.273-.536 9 9 0 0 0-.312-.536 5 5 0 0 0-.322-.497zm1.248-.498q.136.166.312.439t.35.566q.176.292.293.516l-.565.273a5 5 0 0 0-.273-.526 9 9 0 0 0-.332-.536 6 6 0 0 0-.331-.478zm-7.468 4.544q.195-.166.34-.312.157-.147.352-.342a6 6 0 0 0 .4-.448 99 99 0 0 0 1.033-1.229q.263-.332.488-.594.39-.459.77-.507.38-.059.877.409.303.273.653.644.36.36.712.731l.634.673q.331.34.74.789.41.44.84.907l.798.858-.672.712a34 34 0 0 0-.731-.868 35 35 0 0 0-.76-.887 40 40 0 0 0-1.161-1.316l-.527-.566a46 46 0 0 0-.497-.526 7 7 0 0 0-.38-.39q-.282-.273-.468-.254-.176.02-.429.322-.175.214-.4.507l-.468.595a88 88 0 0 1-.857 1.082q-.147.184-.303.39-.146.204-.253.36zm14.34 2.359q.03-.117.04-.254.02-.146.02-.292v-5.84a4.6 4.6 0 0 0-.05-.721h.898q0 .058-.02.253t-.02.468v5.625q.459-.214.975-.565.517-.351 1.005-.819.497-.468.867-1.014l.459.663q-.42.566-.985 1.082-.555.517-1.16.926a10 10 0 0 1-1.18.693 4 4 0 0 0-.205.126l-.127.098zm-4.464-.049q.614-.439 1.043-1.063a5 5 0 0 0 .653-1.335q.108-.331.166-.829.058-.496.087-1.053.03-.565.03-1.092.01-.536.01-.945 0-.215-.02-.381a5 5 0 0 0-.049-.331h.897a2 2 0 0 0-.02.175l-.019.244q-.01.136-.01.283 0 .41-.01.965-.009.546-.048 1.15-.03.595-.088 1.131a4.7 4.7 0 0 1-.156.897 5.1 5.1 0 0 1-.672 1.472 5.4 5.4 0 0 1-1.063 1.209z"/><path fill="#000" d="M21.816 185.109V199h-2.742v-10.73l-3.294 1.047v-2.161l5.741-2.047zm13.996 11.749V199h-9.483v-1.828l4.485-4.808q.675-.752 1.066-1.323.39-.581.561-1.038.181-.466.181-.886 0-.627-.21-1.075a1.56 1.56 0 0 0-.618-.705q-.4-.247-.99-.247-.628 0-1.085.304a1.94 1.94 0 0 0-.686.848 3.1 3.1 0 0 0-.228 1.228h-2.752q0-1.238.59-2.266a4.33 4.33 0 0 1 1.666-1.647q1.077-.62 2.552-.619 1.457 0 2.456.476 1.01.467 1.524 1.352.523.876.523 2.094 0 .686-.219 1.343a6 6 0 0 1-.628 1.295q-.4.638-.971 1.294-.57.657-1.266 1.362l-2.41 2.704zm4.522-5.979H41.8q.705 0 1.162-.238.457-.248.676-.686.228-.447.228-1.037 0-.534-.209-.943a1.42 1.42 0 0 0-.619-.647q-.419-.238-1.057-.238-.504 0-.933.199a1.7 1.7 0 0 0-.685.562q-.257.362-.257.876h-2.752q0-1.143.61-1.99.618-.847 1.656-1.323 1.038-.477 2.285-.476 1.41 0 2.466.457 1.057.447 1.647 1.323t.59 2.171q0 .657-.304 1.276a3.6 3.6 0 0 1-.876 1.104 4.4 4.4 0 0 1-1.371.781q-.81.285-1.819.285h-1.904zm0 2.085v-1.419h1.904q1.134 0 1.99.257.857.258 1.438.743.58.476.876 1.133.295.647.295 1.438 0 .971-.371 1.732a3.6 3.6 0 0 1-1.048 1.276 4.8 4.8 0 0 1-1.561.8 6.8 6.8 0 0 1-1.952.266 6.3 6.3 0 0 1-1.723-.238 5.1 5.1 0 0 1-1.523-.733 3.8 3.8 0 0 1-1.086-1.237q-.4-.752-.4-1.781h2.752q0 .534.266.952.267.42.733.657.477.238 1.057.238.657 0 1.124-.238.475-.247.723-.685.257-.449.257-1.038 0-.762-.276-1.219a1.64 1.64 0 0 0-.79-.685q-.514-.219-1.219-.219z"/><path fill="var(--colors-sd-system-color-chart-component-on-chart-surface)" d="M53.282 192.644v7.312h-.885v-7.312zm3.147 2.161-2.247 2.404-1.257 1.305-.071-.938.9-1.076 1.599-1.695zm-.805 5.151-1.837-2.456.457-.786 2.418 3.242zm3.67-2.095 1.376-4.836h.667l-.386 1.88-1.48 5.051h-.662zm-1.423-4.836 1.095 4.741.329 2.19h-.657l-1.68-6.931zm5.246 4.737 1.071-4.737h.919l-1.676 6.931h-.657zm-1.68-4.737 1.337 4.836.486 2.095h-.662l-1.428-5.051-.39-1.88zm5.436-.381v7.312h-.88v-7.312zm-.21 4.542-.366-.015q.005-.528.157-.976.153-.452.429-.785t.657-.514q.385-.186.852-.186.38 0 .685.105.304.099.52.324.218.223.332.58.114.352.115.862v3.375h-.886v-3.385q0-.404-.119-.647a.73.73 0 0 0-.347-.357 1.25 1.25 0 0 0-.562-.114q-.33 0-.6.138a1.4 1.4 0 0 0-.462.381 1.9 1.9 0 0 0-.3.557q-.104.309-.104.657m94.678-32.995q.195.03.419.039.225.01.458.01h3.832q.234 0 .468-.01.234-.009.419-.039v.81a4 4 0 0 0-.419-.02q-.234-.01-.478-.01h-3.822q-.224 0-.448.01l-.429.02zm6.308 2.574-.078.146a.5.5 0 0 0-.049.137q-.195.721-.536 1.453a5.3 5.3 0 0 1-.887 1.316 6.1 6.1 0 0 1-1.668 1.306 9.3 9.3 0 0 1-1.823.731l-.604-.692a7.4 7.4 0 0 0 1.92-.673 5.7 5.7 0 0 0 1.512-1.111q.448-.468.731-1.043.293-.585.429-1.112h-5.177q-.175 0-.429.01-.254 0-.527.02v-.819q.274.029.517.048.244.01.439.01h5.138q.165 0 .312-.019a.7.7 0 0 0 .224-.059zm7.926-1.92q.126.175.292.448.175.273.342.566.175.291.292.526l-.575.263a16 16 0 0 0-.273-.536 9 9 0 0 0-.312-.536 5 5 0 0 0-.322-.497zm1.248-.498q.137.166.312.439.176.273.351.566t.292.516l-.565.273a5 5 0 0 0-.273-.526 9 9 0 0 0-.332-.536 6 6 0 0 0-.331-.478zm-7.468 4.544q.195-.166.341-.312.156-.147.351-.342.175-.175.4-.448l.497-.585q.273-.322.536-.644.264-.332.488-.594.39-.459.77-.507.38-.059.877.409.303.273.653.644.361.36.712.731l.634.673q.332.34.741.789.41.44.838.907.43.458.8.858l-.673.712q-.342-.42-.731-.868a35 35 0 0 0-.761-.887 40 40 0 0 0-.682-.79 24 24 0 0 0-.478-.526l-.526-.566-.497-.526a7 7 0 0 0-.381-.39q-.282-.273-.468-.254-.176.02-.429.322-.175.214-.399.507-.225.282-.468.595a138 138 0 0 1-.858 1.082q-.147.184-.302.39-.147.204-.254.36zm14.341 2.359q.03-.117.039-.254.02-.146.02-.292v-5.84a4.6 4.6 0 0 0-.049-.721h.897q0 .058-.02.253t-.019.468v5.625q.458-.214.975-.565a8 8 0 0 0 1.004-.819q.496-.468.867-1.014l.459.663a7.6 7.6 0 0 1-.985 1.082q-.555.517-1.16.926a10 10 0 0 1-1.18.693 4 4 0 0 0-.205.126l-.126.098zm-4.465-.049a4.3 4.3 0 0 0 1.043-1.063q.43-.624.653-1.335.108-.331.166-.829.058-.496.088-1.053.029-.565.029-1.092.01-.536.01-.945a3 3 0 0 0-.02-.381 4 4 0 0 0-.049-.331h.897a2 2 0 0 0-.019.175q-.01.108-.02.244a4 4 0 0 0-.009.283q0 .41-.01.965a26 26 0 0 1-.049 1.15q-.029.595-.088 1.131a4.6 4.6 0 0 1-.156.897 5.1 5.1 0 0 1-.672 1.472 5.4 5.4 0 0 1-1.063 1.209z"/><path fill="#000" d="M166.726 185.109V199h-2.742v-10.73l-3.295 1.047v-2.161l5.741-2.047zm13.995 11.749V199h-9.483v-1.828l4.485-4.808q.675-.752 1.066-1.323.39-.581.562-1.038.18-.466.181-.886 0-.627-.21-1.075a1.56 1.56 0 0 0-.619-.705q-.399-.247-.99-.247-.629 0-1.085.304a1.94 1.94 0 0 0-.686.848 3.1 3.1 0 0 0-.228 1.228h-2.752q0-1.238.591-2.266a4.3 4.3 0 0 1 1.666-1.647q1.075-.62 2.551-.619 1.457 0 2.457.476 1.008.467 1.523 1.352.524.876.524 2.094 0 .686-.219 1.343a6 6 0 0 1-.629 1.295q-.4.638-.971 1.294a30 30 0 0 1-1.266 1.362l-2.409 2.704zm4.522-5.979h1.467q.703 0 1.161-.238.457-.248.676-.686.228-.447.229-1.037 0-.534-.21-.943a1.4 1.4 0 0 0-.619-.647q-.418-.238-1.056-.238-.505 0-.934.199a1.7 1.7 0 0 0-.685.562 1.48 1.48 0 0 0-.257.876h-2.752q0-1.143.61-1.99.619-.847 1.656-1.323 1.038-.477 2.285-.476 1.41 0 2.466.457 1.058.447 1.647 1.323.591.876.591 2.171 0 .657-.305 1.276a3.6 3.6 0 0 1-.876 1.104 4.3 4.3 0 0 1-1.371.781q-.81.285-1.818.285h-1.905zm0 2.085v-1.419h1.905q1.132 0 1.989.257.858.258 1.438.743.58.476.876 1.133.295.647.295 1.438 0 .971-.371 1.732a3.6 3.6 0 0 1-1.047 1.276 4.8 4.8 0 0 1-1.562.8 6.8 6.8 0 0 1-1.952.266 6.3 6.3 0 0 1-1.723-.238 5.1 5.1 0 0 1-1.523-.733 3.8 3.8 0 0 1-1.086-1.237q-.399-.752-.399-1.781h2.751q0 .534.267.952.266.42.733.657.475.238 1.057.238.656 0 1.123-.238a1.7 1.7 0 0 0 .724-.685q.257-.449.257-1.038 0-.762-.277-1.219a1.64 1.64 0 0 0-.79-.685q-.514-.219-1.218-.219z"/><path fill="var(--colors-sd-system-color-chart-component-on-chart-surface)" d="M198.191 192.644v7.312h-.885v-7.312zm3.147 2.161-2.247 2.404-1.257 1.305-.071-.938.9-1.076 1.599-1.695zm-.804 5.151-1.838-2.456.457-.786 2.418 3.242zm3.67-2.095 1.376-4.836h.666l-.386 1.88-1.48 5.051h-.662zm-1.424-4.836 1.095 4.741.329 2.19h-.657l-1.681-6.931zm5.246 4.737 1.071-4.737h.919l-1.675 6.931h-.657zm-1.68-4.737 1.338 4.836.485 2.095h-.662l-1.428-5.051-.39-1.88zm5.436-.381v7.312h-.88v-7.312zm-.209 4.542-.367-.015q.005-.528.157-.976.153-.452.429-.785t.657-.514q.385-.186.852-.186.38 0 .685.105.305.099.519.324.219.223.333.58.115.352.115.862v3.375h-.886v-3.385q0-.404-.119-.647a.73.73 0 0 0-.347-.357 1.25 1.25 0 0 0-.562-.114q-.328 0-.6.138a1.45 1.45 0 0 0-.462.381 1.9 1.9 0 0 0-.299.557q-.105.309-.105.657"/><path stroke="var(--colors-sd-system-color-interaction-disabled-on-surface)" stroke-width="1.6" d="M80 14h260m-50 113h50"/></svg>