<svg fill="none" height="200" viewBox="0 0 684 200" width="684" xmlns="http://www.w3.org/2000/svg"><path d="m8 .5h284c4.142 0 7.5 3.35786 7.5 7.5v184c0 4.142-3.358 7.5-7.5 7.5h-284c-4.14213 0-7.5-3.358-7.5-7.5v-184c.000002-4.14213 3.35787-7.5 7.5-7.5z" fill="#fff"/><path d="m8 .5h284c4.142 0 7.5 3.35786 7.5 7.5v184c0 4.142-3.358 7.5-7.5 7.5h-284c-4.14213 0-7.5-3.358-7.5-7.5v-184c.000002-4.14213 3.35787-7.5 7.5-7.5z" stroke="#c8c7c2"/><g stroke="#d9d8d3"><path d="m25.4492 30 249.1018.0001"/><path d="m25.4492 50 249.1018.0001"/><path d="m25.4492 70 249.1018.0001"/><path d="m25.4492 90 249.1018.0001"/><path d="m25.4492 110h249.1018"/><path d="m25.4492 130h249.1018"/><path d="m25.4492 150h249.1018"/><path d="m25.4492 170h249.1018"/></g><path d="m356.658 12.6982h2.044c-.041.67-.225 1.2647-.554 1.7842-.323.5196-.777.9252-1.36 1.2168-.579.2917-1.276.4375-2.092.4375-.638 0-1.21-.1094-1.716-.3281-.505-.2233-.938-.5423-1.298-.957-.356-.4148-.627-.9161-.814-1.5039-.187-.5879-.28-1.2465-.28-1.9756v-.6905c0-.72913.096-1.38765.287-1.97555.196-.59244.474-1.09602.834-1.51074.365-.41471.8-.73372 1.306-.95703s1.071-.33496 1.695-.33496c.829 0 1.529.15039 2.099.45117.574.30078 1.018.7155 1.333 1.24414.319.52865.51 1.13021.574 1.80469h-2.051c-.023-.40104-.103-.74056-.239-1.01855-.137-.28256-.344-.49447-.622-.63575-.274-.14583-.638-.21875-1.094-.21875-.342 0-.64.06381-.896.19141-.255.1276-.469.32129-.642.58105-.173.25977-.303.58789-.39.98438-.082.39193-.123.85219-.123 1.38089v.7041c0 .5149.039.9684.116 1.3603.078.3874.196.7155.356.9844.164.2643.374.4648.629.6016.26.1321.572.1982.936.1982.429 0 .782-.0684 1.06-.2051s.49-.3395.636-.6084c.15-.2689.239-.6038.266-1.0049zm5.189-7.1982v10.5h-1.969v-10.5zm-.281 6.542h-.54c.005-.515.073-.9889.205-1.4219.133-.4375.322-.81574.568-1.13475.246-.32357.54-.57422.882-.75195.346-.17774.729-.2666 1.148-.2666.365 0 .695.05241.991.15722.301.10026.559.26433.773.49219.219.22331.387.51725.506.88184.118.36455.177.80665.177 1.32615v4.6758h-1.982v-4.6895c0-.3281-.048-.5856-.144-.7724-.091-.1914-.225-.3259-.403-.4033-.173-.0821-.387-.1231-.643-.1231-.282 0-.524.0524-.724.1572-.196.1049-.353.2507-.472.4375-.118.1823-.205.3965-.26.6426-.054.2461-.082.5104-.082.793zm10.2 2.29v-3.2949c0-.237-.039-.4398-.117-.6084-.077-.1732-.198-.3076-.362-.4033-.159-.09571-.367-.14356-.622-.14356-.219 0-.408.03873-.567.11621-.16.07295-.283.18005-.369.32125-.087.1368-.13.2985-.13.4854h-1.969c0-.3145.073-.613.219-.89552.145-.28255.357-.53092.635-.74512.278-.21875.609-.38965.992-.51269.387-.12305.82-.18457 1.298-.18457.575 0 1.085.0957 1.532.28711.446.1914.797.47851 1.052.86132.26.38282.39.86137.39 1.43557v3.165c0 .4056.025.7383.075.9981.05.2552.123.4785.219.6699v.1162h-1.989c-.096-.2005-.169-.4512-.219-.752-.046-.3053-.068-.6106-.068-.916zm.259-2.8369.014 1.1143h-1.101c-.259 0-.485.0296-.676.0888-.192.0593-.349.1436-.472.253-.123.1048-.214.2278-.273.3691-.055.1413-.082.2962-.082.4649 0 .1686.038.3212.116.458.077.1321.189.2369.335.3144.146.0729.316.1094.512.1094.297 0 .554-.0593.773-.1777.219-.1185.387-.2644.506-.4375.123-.1732.187-.3373.191-.4922l.52.834c-.073.1868-.173.3805-.301.581-.123.2005-.28.3897-.472.5674-.191.1732-.421.3167-.69.4307-.269.1093-.588.164-.957.164-.47 0-.896-.0934-1.279-.2803-.378-.1914-.679-.4534-.902-.7861-.219-.3372-.328-.72-.328-1.1484 0-.3874.073-.7315.219-1.0323.146-.3007.36-.5537.642-.7587.287-.2097.645-.3669 1.074-.4717.428-.1094.925-.1641 1.49-.1641zm5.209-1.2783v5.7832h-1.968v-7.39648h1.852zm2.229-1.66114-.034 1.82524c-.096-.0137-.212-.0251-.349-.0342-.132-.0137-.253-.0205-.362-.0205-.278 0-.52.0364-.725.1093-.2.0684-.369.1709-.506.3077-.132.1367-.232.303-.3.499-.064.196-.101.4193-.11.6699l-.396-.123c0-.4786.048-.9183.143-1.3194.096-.4056.235-.75876.417-1.05954.187-.30078.415-.53321.684-.69727s.576-.24609.923-.24609c.109 0 .221.00911.335.02734.114.01367.207.03418.28.06152zm4.894.04786v1.39453h-4.306v-1.39453zm-3.24-1.8252h1.969v6.99318c0 .2142.027.3782.082.4922.059.1139.146.1937.26.2392.114.041.257.0616.43.0616.123 0 .233-.0046.329-.0137.1-.0137.184-.0274.252-.041l.007 1.4492c-.168.0547-.351.098-.547.1299s-.412.0478-.649.0478c-.433 0-.811-.0706-1.135-.2119-.319-.1458-.565-.3783-.738-.6973s-.26-.7382-.26-1.2578zm11.87-.36832c-.093.70933-.215 1.46533-.364 2.268s-.35 1.6147-.602 2.436c-.271.9427-.588 1.7547-.952 2.436s-.765 1.2087-1.204 1.582c-.429.364-.901.546-1.414.546s-.989-.1727-1.428-.518c-.429-.3547-.775-.84-1.036-1.456-.252-.616-.378-1.316-.378-2.1 0-.812.163-1.5773.49-2.296.327-.71867.779-1.35333 1.358-1.904.588-.56 1.269-.99867 2.044-1.316.784-.31733 1.629-.476 2.534-.476.868 0 1.647.14 2.338.42.7.28 1.297.66733 1.792 1.162s.873 1.07333 1.134 1.736.392 1.3767.392 2.142c0 .98-.201 1.8573-.602 2.632s-.999 1.414-1.792 1.918c-.784.504-1.764.8493-2.94 1.036l-1.05-1.666c.271-.028.509-.0607.714-.098s.401-.0793.588-.126c.448-.112.863-.2707 1.246-.476.392-.2147.733-.476 1.022-.784.289-.3173.513-.686.672-1.106.168-.42.252-.882.252-1.386 0-.5507-.084-1.05467-.252-1.512s-.415-.854-.742-1.19c-.327-.34533-.723-.60667-1.19-.784-.467-.18667-1.003-.28-1.61-.28-.747 0-1.405.13533-1.974.406-.569.26133-1.05.602-1.442 1.022s-.691.87267-.896 1.358c-.196.4853-.294.9473-.294 1.386 0 .4667.056.8587.168 1.176.112.308.247.5413.406.7.168.1493.345.224.532.224.196 0 .387-.098.574-.294.196-.2053.387-.5133.574-.924s.373-.9287.56-1.554c.215-.672.397-1.39067.546-2.156s.257-1.512.322-2.24zm8.162 3.458h7.868v1.218h-6.16v6.174h-1.708zm7.434 0h1.736v5.698c0 .4107-.061.7233-.182.938-.112.224-.313.392-.602.504s-.644.1773-1.064.196c-.42.028-.915.042-1.484.042-.028-.224-.093-.476-.196-.756-.103-.2707-.21-.5087-.322-.714.224.0093.462.0187.714.028s.476.014.672.014h.406c.131-.0093.215-.0327.252-.07.047-.0373.07-.1027.07-.196zm-6.104 1.946h6.594v1.162h-6.594zm-2.702-6.65h4.27v1.288h-4.27zm-.336 2.66c.579-.06533 1.269-.154 2.072-.266.812-.112 1.638-.22867 2.478-.35l.07 1.218c-.765.14-1.531.28-2.296.42-.765.13067-1.465.252-2.1.364zm3.038 5.922h6.608v1.162h-6.608zm.518-9.66h1.68v5.474h-1.68zm7.56.546 1.078 1.204c-.42.14933-.877.294-1.372.434-.485.14-.975.266-1.47.378s-.975.21467-1.442.308c-.028-.14933-.089-.34067-.182-.574-.084-.23333-.168-.42467-.252-.574.429-.112.863-.22867 1.302-.35.448-.13067.873-.266 1.274-.406.401-.14933.756-.28933 1.064-.42zm-4.41-.532h1.708v3.43c0 .224.037.364.112.42s.243.084.504.084h.294.448.476.336c.14 0 .247-.02333.322-.07.084-.056.14-.15867.168-.308.037-.15867.065-.38733.084-.686.177.12133.411.23333.7.336s.551.182.784.238c-.056.48533-.154.868-.294 1.148s-.336.476-.588.588-.588.168-1.008.168c-.065 0-.168 0-.308 0-.131 0-.275 0-.434 0s-.322 0-.49 0c-.159 0-.303 0-.434 0s-.229 0-.294 0c-.56 0-.994-.056-1.302-.168-.299-.112-.504-.308-.616-.588-.112-.28933-.168-.672-.168-1.148zm10.472 3.024v.602h6.09v-.602zm0-1.554v.588h6.09v-.588zm-1.61-1.036h9.38v4.242h-9.38zm-1.54 4.802h12.404v1.302h-12.404zm3.486 2.912v.91h5.516v-.91zm-1.61-1.148h8.82v3.22h-8.82zm3.486-2.576h1.722v1.554h-1.722zm.07 5.124h1.68v2.17c0 .3547-.051.6253-.154.812s-.289.3267-.56.42c-.28.0933-.607.1447-.98.154-.364.0187-.793.028-1.288.028-.037-.196-.103-.4153-.196-.658s-.187-.4527-.28-.63c.196.0093.397.0187.602.028h.574c.168-.0093.28-.014.336-.014.103-.0093.173-.028.21-.056s.056-.0793.056-.154zm2.296 1.596 1.12-.882c.383.1307.798.2987 1.246.504.448.196.877.4013 1.288.616.42.2053.77.4013 1.05.588l-1.204.994c-.243-.1867-.565-.392-.966-.616-.392-.2147-.812-.4293-1.26-.644s-.873-.4013-1.274-.56zm-4.718-.896 1.54.616c-.317.2707-.686.5413-1.106.812-.42.2613-.849.504-1.288.728s-.863.4153-1.274.574c-.093-.1027-.215-.2287-.364-.378-.14-.1493-.289-.2987-.448-.448-.149-.1493-.289-.266-.42-.35.411-.1213.826-.266 1.246-.434s.812-.3453 1.176-.532c.373-.196.686-.392.938-.588z" fill="#073165"/><rect fill="#fff" height="16" rx="8" width="16" x="350" y="36"/><path d="m373.42 49.12c-.568 0-1.068-.116-1.5-.348-.424-.232-.756-.592-.996-1.08-.232-.496-.348-1.124-.348-1.884 0-.8.128-1.448.384-1.944s.604-.86 1.044-1.092c.44-.24.944-.36 1.512-.36.336 0 .656.04.96.12.312.072.568.156.768.252l-.396 1.02c-.2-.08-.416-.152-.648-.216s-.452-.096-.66-.096c-.368 0-.672.088-.912.264-.232.168-.408.424-.528.768-.12.336-.18.76-.18 1.272 0 .488.06.9.18 1.236s.296.592.528.768c.24.168.528.252.864.252.328 0 .62-.04.876-.12.264-.08.508-.184.732-.312v1.104c-.224.136-.468.236-.732.3s-.58.096-.948.096zm4.378-6.804c0 .2-.008.4-.024.6-.008.2-.02.364-.036.492h.072c.128-.224.284-.408.468-.552.192-.144.404-.252.636-.324.24-.072.484-.108.732-.108.472 0 .872.084 1.2.252.336.16.588.416.756.768.176.344.264.792.264 1.344v4.212h-1.308v-4.032c0-.504-.096-.88-.288-1.128-.192-.256-.492-.384-.9-.384-.392 0-.704.088-.936.264s-.396.436-.492.78c-.096.336-.144.752-.144 1.248v3.252h-1.296v-9.12h1.296zm8.3.096c.76 0 1.332.18 1.716.54.392.352.588.908.588 1.668v4.38h-.924l-.252-.9h-.048c-.184.232-.368.424-.552.576-.176.152-.384.264-.624.336-.232.072-.52.108-.864.108-.36 0-.684-.068-.972-.204-.288-.144-.516-.36-.684-.648-.168-.296-.252-.664-.252-1.104 0-.656.232-1.156.696-1.5.472-.344 1.188-.532 2.148-.564l1.032-.036v-.36c0-.48-.1-.816-.3-1.008-.192-.192-.464-.288-.816-.288-.296 0-.588.048-.876.144s-.568.212-.84.348l-.396-.924c.296-.16.632-.292 1.008-.396.384-.112.788-.168 1.212-.168zm.228 3.504c-.656.032-1.112.156-1.368.372-.256.208-.384.504-.384.888 0 .336.088.58.264.732.184.152.42.228.708.228.44 0 .808-.14 1.104-.42.304-.28.456-.7.456-1.26v-.564zm6.947-3.504c.104 0 .22.008.348.024.128.008.236.02.324.036l-.132 1.188c-.088-.024-.188-.044-.3-.06s-.224-.024-.336-.024c-.216 0-.424.048-.624.144-.2.088-.38.22-.54.396-.16.168-.288.376-.384.624s-.144.532-.144.852v3.408h-1.296v-6.468h1.02l.168 1.152h.072c.12-.232.268-.444.444-.636.184-.192.392-.344.624-.456.232-.12.484-.18.756-.18zm4.06 5.676c.168 0 .332-.016.492-.048s.3-.068.42-.108v.96c-.136.064-.316.116-.54.156-.216.048-.444.072-.684.072-.336 0-.644-.06-.924-.18s-.504-.328-.672-.624-.252-.708-.252-1.236v-3.576h-.828v-.576l.888-.48.444-1.368h.804v1.452h1.716v.972h-1.716v3.552c0 .352.08.612.24.78s.364.252.612.252zm6.95-1.404c0 .512-.116.948-.348 1.308s-.564.64-.996.84c-.432.192-.96.288-1.584.288-.304 0-.596-.02-.876-.06-.272-.032-.524-.08-.756-.144-.224-.064-.436-.144-.636-.24v-1.224c.32.144.684.276 1.092.396.416.112.828.168 1.236.168.352 0 .64-.052.864-.156.232-.104.404-.248.516-.432.12-.184.18-.4.18-.648 0-.264-.06-.484-.18-.66-.112-.184-.3-.352-.564-.504-.256-.16-.6-.324-1.032-.492-.304-.128-.58-.264-.828-.408-.248-.152-.464-.328-.648-.528-.176-.2-.312-.432-.408-.696-.088-.264-.132-.572-.132-.924 0-.472.112-.876.336-1.212s.536-.592.936-.768c.4-.184.868-.276 1.404-.276.448 0 .86.048 1.236.144.376.088.732.212 1.068.372l-.42 1.068c-.312-.136-.628-.248-.948-.336-.312-.088-.636-.132-.972-.132-.296 0-.544.048-.744.144-.192.096-.336.228-.432.396s-.144.364-.144.588c0 .264.056.484.168.66s.292.34.54.492c.248.144.576.304.984.48.448.192.828.396 1.14.612.312.208.548.464.708.768.16.296.24.668.24 1.116zm6.738-4.152v6.468h-1.02l-.18-.852h-.072c-.12.224-.284.408-.492.552-.2.144-.42.248-.66.312-.24.072-.488.108-.744.108-.472 0-.872-.08-1.2-.24-.32-.168-.568-.424-.744-.768-.168-.352-.252-.8-.252-1.344v-4.236h1.308v4.044c0 .504.096.88.288 1.128s.492.372.9.372c.4 0 .712-.088.936-.264.232-.176.396-.432.492-.768.096-.344.144-.756.144-1.236v-3.276zm4.905-.12c.104 0 .22.008.348.024.128.008.236.02.324.036l-.132 1.188c-.088-.024-.188-.044-.3-.06s-.224-.024-.336-.024c-.216 0-.424.048-.624.144-.2.088-.38.22-.54.396-.16.168-.288.376-.384.624s-.144.532-.144.852v3.408h-1.296v-6.468h1.02l.168 1.152h.072c.12-.232.268-.444.444-.636.184-.192.392-.344.624-.456.232-.12.484-.18.756-.18zm4.827 1.092h-1.476v5.496h-1.308v-5.496h-.996v-.6l.996-.396v-.408c0-.552.076-.992.228-1.32.16-.336.392-.58.696-.732s.676-.228 1.116-.228c.264 0 .508.024.732.072s.42.1.588.156l-.324.972c-.12-.04-.26-.076-.42-.108-.152-.04-.308-.06-.468-.06-.288 0-.5.104-.636.312s-.204.524-.204.948v.42h1.476zm3.478-1.092c.76 0 1.332.18 1.716.54.392.352.588.908.588 1.668v4.38h-.924l-.252-.9h-.048c-.184.232-.368.424-.552.576-.176.152-.384.264-.624.336-.232.072-.52.108-.864.108-.36 0-.684-.068-.972-.204-.288-.144-.516-.36-.684-.648-.168-.296-.252-.664-.252-1.104 0-.656.232-1.156.696-1.5.472-.344 1.188-.532 2.148-.564l1.032-.036v-.36c0-.48-.1-.816-.3-1.008-.192-.192-.464-.288-.816-.288-.296 0-.588.048-.876.144s-.568.212-.84.348l-.396-.924c.296-.16.632-.292 1.008-.396.384-.112.788-.168 1.212-.168zm.228 3.504c-.656.032-1.112.156-1.368.372-.256.208-.384.504-.384.888 0 .336.088.58.264.732.184.152.42.228.708.228.44 0 .808-.14 1.104-.42.304-.28.456-.7.456-1.26v-.564zm6.371 3.204c-.568 0-1.068-.116-1.5-.348-.424-.232-.756-.592-.996-1.08-.232-.496-.348-1.124-.348-1.884 0-.8.128-1.448.384-1.944s.604-.86 1.044-1.092c.44-.24.944-.36 1.512-.36.336 0 .656.04.96.12.312.072.568.156.768.252l-.396 1.02c-.2-.08-.416-.152-.648-.216s-.452-.096-.66-.096c-.368 0-.672.088-.912.264-.232.168-.408.424-.528.768-.12.336-.18.76-.18 1.272 0 .488.06.9.18 1.236s.296.592.528.768c.24.168.528.252.864.252.328 0 .62-.04.876-.12.264-.08.508-.184.732-.312v1.104c-.224.136-.468.236-.732.3s-.58.096-.948.096zm5.53-6.708c.536 0 1 .12 1.392.36.392.232.692.568.9 1.008.216.44.324.96.324 1.56v.696h-4.068c.016.664.176 1.172.48 1.524s.732.528 1.284.528c.392 0 .74-.036 1.044-.108.312-.08.628-.196.948-.348v1.056c-.304.144-.616.252-.936.324-.312.072-.692.108-1.14.108-.584 0-1.104-.124-1.56-.372s-.812-.616-1.068-1.104c-.256-.496-.384-1.104-.384-1.824 0-.728.116-1.344.348-1.848s.556-.888.972-1.152c.424-.272.912-.408 1.464-.408zm0 .984c-.408 0-.736.148-.984.444s-.392.716-.432 1.26h2.748c0-.336-.048-.632-.144-.888s-.244-.456-.444-.6c-.192-.144-.44-.216-.744-.216z" fill="#696966"/><path d="m350 64c0-2.2091 1.791-4 4-4h325c2.209 0 4 1.7909 4 4v16c0 2.2091-1.791 4-4 4h-325c-2.209 0-4-1.7909-4-4z" fill="#fff"/><path d="m361.324 77.12c-.4 0-.784-.036-1.152-.108-.368-.064-.7-.16-.996-.288v-1.188c.296.136.628.26.996.372.368.104.784.156 1.248.156s.8-.068 1.008-.204.312-.34.312-.612c0-.168-.044-.304-.132-.408s-.244-.208-.468-.312c-.216-.104-.524-.236-.924-.396-.392-.176-.736-.344-1.032-.504s-.524-.352-.684-.576-.24-.512-.24-.864c0-.4.104-.732.312-.996s.5-.46.876-.588c.384-.128.832-.192 1.344-.192.376 0 .74.036 1.092.108s.708.184 1.068.336l-.384.984c-.336-.136-.648-.232-.936-.288-.28-.056-.564-.084-.852-.084-.432 0-.752.056-.96.168-.2.104-.3.276-.3.516 0 .168.052.308.156.42s.268.22.492.324c.224.096.512.22.864.372.408.16.76.316 1.056.468.304.152.536.344.696.576.16.224.24.532.24.924 0 .416-.104.764-.312 1.044-.2.28-.5.492-.9.636-.4.136-.896.204-1.488.204zm7.051 0c-.4 0-.76-.072-1.08-.216-.32-.152-.592-.372-.816-.66-.216-.288-.384-.64-.504-1.056-.112-.424-.168-.908-.168-1.452 0-.696.096-1.292.288-1.788.2-.496.5-.876.9-1.14s.9-.396 1.5-.396c.296 0 .556.04.78.12.232.072.432.18.6.324.168.136.308.304.42.504h.06c-.008-.112-.02-.228-.036-.348s-.028-.244-.036-.372-.012-.252-.012-.372v-2.388h1.248v9.12h-1.008l-.192-.864h-.06c-.12.2-.272.376-.456.528-.176.144-.384.256-.624.336-.232.08-.5.12-.804.12zm.348-1.044c.536 0 .932-.18 1.188-.54.264-.368.396-.876.396-1.524v-.228c0-.448-.048-.848-.144-1.2s-.256-.628-.48-.828-.532-.3-.924-.3c-.536 0-.948.2-1.236.6-.28.392-.42.988-.42 1.788 0 .752.132 1.312.396 1.68s.672.552 1.224.552zm7.268 1.044c-.248 0-.452-.072-.612-.216s-.24-.368-.24-.672c0-.32.08-.548.24-.684s.364-.204.612-.204.448.072.6.216c.16.136.24.36.24.672 0 .296-.08.52-.24.672-.152.144-.352.216-.6.216zm6.919 0c-.4 0-.784-.036-1.152-.108-.368-.064-.7-.16-.996-.288v-1.188c.296.136.628.26.996.372.368.104.784.156 1.248.156s.8-.068 1.008-.204.312-.34.312-.612c0-.168-.044-.304-.132-.408s-.244-.208-.468-.312c-.216-.104-.524-.236-.924-.396-.392-.176-.736-.344-1.032-.504s-.524-.352-.684-.576-.24-.512-.24-.864c0-.4.104-.732.312-.996s.5-.46.876-.588c.384-.128.832-.192 1.344-.192.376 0 .74.036 1.092.108s.708.184 1.068.336l-.384.984c-.336-.136-.648-.232-.936-.288-.28-.056-.564-.084-.852-.084-.432 0-.752.056-.96.168-.2.104-.3.276-.3.516 0 .168.052.308.156.42s.268.22.492.324c.224.096.512.22.864.372.408.16.76.316 1.056.468.304.152.536.344.696.576.16.224.24.532.24.924 0 .416-.104.764-.312 1.044-.2.28-.5.492-.9.636-.4.136-.896.204-1.488.204zm5.491 2.82c-.152 0-.304-.012-.456-.036-.152-.016-.288-.036-.408-.06v-1.02c.096.016.208.032.336.048s.248.024.36.024c.248 0 .452-.044.612-.132.168-.08.312-.204.432-.372.128-.168.244-.384.348-.648l.276-.72-2.664-6.492h1.296l1.452 3.78c.096.224.184.472.264.744.088.264.164.528.228.792h.036c.048-.184.096-.364.144-.54.056-.176.108-.348.156-.516.056-.176.108-.34.156-.492l1.224-3.768h1.332l-2.652 7.164c-.168.464-.356.864-.564 1.2-.2.336-.452.592-.756.768-.304.184-.688.276-1.152.276zm8.9-2.82c-.4 0-.784-.036-1.152-.108-.368-.064-.7-.16-.996-.288v-1.188c.296.136.628.26.996.372.368.104.784.156 1.248.156s.8-.068 1.008-.204.312-.34.312-.612c0-.168-.044-.304-.132-.408s-.244-.208-.468-.312c-.216-.104-.524-.236-.924-.396-.392-.176-.736-.344-1.032-.504s-.524-.352-.684-.576-.24-.512-.24-.864c0-.4.104-.732.312-.996s.5-.46.876-.588c.384-.128.832-.192 1.344-.192.376 0 .74.036 1.092.108s.708.184 1.068.336l-.384.984c-.336-.136-.648-.232-.936-.288-.28-.056-.564-.084-.852-.084-.432 0-.752.056-.96.168-.2.104-.3.276-.3.516 0 .168.052.308.156.42s.268.22.492.324c.224.096.512.22.864.372.408.16.76.316 1.056.468.304.152.536.344.696.576.16.224.24.532.24.924 0 .416-.104.764-.312 1.044-.2.28-.5.492-.9.636-.4.136-.896.204-1.488.204zm8.659 0c-.488 0-.916-.064-1.284-.192-.368-.136-.656-.36-.864-.672-.2-.32-.3-.752-.3-1.296v-3.372h-1.68v-.84l1.716-.24.24-1.668h.996v1.692h2.496v1.056h-2.496v3.168c0 .32.048.576.144.768s.244.332.444.42.444.132.732.132c.208 0 .424-.02.648-.06.232-.04.456-.08.672-.12v1.008c-.224.064-.46.116-.708.156s-.5.06-.756.06zm6.499 0c-.712 0-1.324-.128-1.836-.384-.504-.264-.892-.644-1.164-1.14s-.408-1.104-.408-1.824c0-.696.124-1.292.372-1.788.256-.504.612-.892 1.068-1.164s.996-.408 1.62-.408c.576 0 1.068.124 1.476.372.416.248.736.6.96 1.056.224.448.336.988.336 1.62v.6h-4.56c.016.488.12.88.312 1.176s.452.512.78.648c.328.128.704.192 1.128.192.336 0 .676-.044 1.02-.132.352-.096.704-.22 1.056-.372v1.092c-.36.16-.724.276-1.092.348s-.724.108-1.068.108zm1.2-4.02c-.008-.352-.076-.652-.204-.9-.12-.248-.292-.44-.516-.576s-.496-.204-.816-.204c-.488 0-.888.152-1.2.456-.312.296-.504.704-.576 1.224zm2.432 3.9v-6.468h.876l.168.744h.06c.104-.216.212-.384.324-.504.12-.128.252-.22.396-.276s.304-.084.48-.084c.336 0 .592.084.768.252.184.16.32.4.408.72h.048c.136-.312.304-.552.504-.72.208-.168.48-.252.816-.252s.596.088.78.264c.192.168.328.428.408.78.08.344.12.788.12 1.332v4.212h-1.128v-4.188c0-.28-.012-.516-.036-.708s-.076-.34-.156-.444c-.08-.112-.208-.168-.384-.168s-.324.076-.444.228c-.12.144-.212.364-.276.66-.056.288-.084.656-.084 1.104v3.516h-1.128v-4.188c0-.288-.02-.528-.06-.72-.032-.192-.092-.34-.18-.444s-.22-.156-.396-.156c-.192 0-.344.08-.456.24s-.192.388-.24.684c-.048.288-.072.644-.072 1.068v3.516zm10.267.12c-.248 0-.452-.072-.612-.216s-.24-.368-.24-.672c0-.32.08-.548.24-.684s.364-.204.612-.204.448.072.6.216c.16.136.24.36.24.672 0 .296-.08.52-.24.672-.152.144-.352.216-.6.216zm7.651 0c-.656 0-1.216-.116-1.68-.348-.456-.232-.804-.592-1.044-1.08s-.36-1.112-.36-1.872c0-.8.128-1.452.384-1.956.264-.504.636-.872 1.116-1.104s1.04-.348 1.68-.348c.36 0 .704.036 1.032.108s.636.18.924.324l-.372 1.032c-.272-.136-.532-.232-.78-.288s-.496-.084-.744-.084c-.448 0-.816.088-1.104.264-.288.168-.5.42-.636.756s-.204.76-.204 1.272c0 .528.072.956.216 1.284s.36.568.648.72.644.228 1.068.228c.32 0 .632-.036.936-.108.312-.08.6-.184.864-.312v1.128c-.272.128-.58.224-.924.288-.336.064-.676.096-1.02.096zm6.751 0c-.44 0-.844-.072-1.212-.216s-.688-.356-.96-.636c-.264-.288-.468-.64-.612-1.056s-.216-.9-.216-1.452c0-.736.124-1.348.372-1.836.256-.496.608-.872 1.056-1.128s.964-.384 1.548-.384 1.1.128 1.548.384c.456.248.812.62 1.068 1.116s.384 1.116.384 1.86c0 .544-.072 1.024-.216 1.44s-.348.768-.612 1.056c-.256.28-.568.492-.936.636-.36.144-.764.216-1.212.216zm0-1.032c.376 0 .688-.092.936-.276.256-.192.444-.464.564-.816.128-.352.192-.764.192-1.236 0-.48-.064-.892-.192-1.236-.12-.344-.308-.608-.564-.792-.248-.192-.564-.288-.948-.288-.576 0-1.008.208-1.296.624-.28.408-.42.972-.42 1.692 0 .472.064.884.192 1.236s.32.624.576.816c.256.184.576.276.96.276zm4.472.912v-.828l2.292-.228v-7.008l-2.112-.216v-.84h3.396v8.064l2.052.228v.828zm9.919.12c-.44 0-.844-.072-1.212-.216s-.688-.356-.96-.636c-.264-.288-.468-.64-.612-1.056s-.216-.9-.216-1.452c0-.736.124-1.348.372-1.836.256-.496.608-.872 1.056-1.128s.964-.384 1.548-.384 1.1.128 1.548.384c.456.248.812.62 1.068 1.116s.384 1.116.384 1.86c0 .544-.072 1.024-.216 1.44s-.348.768-.612 1.056c-.256.28-.568.492-.936.636-.36.144-.764.216-1.212.216zm0-1.032c.376 0 .688-.092.936-.276.256-.192.444-.464.564-.816.128-.352.192-.764.192-1.236 0-.48-.064-.892-.192-1.236-.12-.344-.308-.608-.564-.792-.248-.192-.564-.288-.948-.288-.576 0-1.008.208-1.296.624-.28.408-.42.972-.42 1.692 0 .472.064.884.192 1.236s.32.624.576.816c.256.184.576.276.96.276zm4.255.912v-.828l1.884-.228v-4.356l-1.656-.168v-.888h2.652l.168 1.152h.06c.224-.408.476-.72.756-.936.288-.224.656-.336 1.104-.336.232 0 .452.02.66.06.216.04.416.104.6.192l-.336 1.14c-.128-.064-.28-.116-.456-.156-.168-.048-.348-.072-.54-.072-.352 0-.66.1-.924.3-.256.2-.456.468-.6.804-.136.336-.204.708-.204 1.116v2.148l1.824.228v.828zm10.124.12c-.248 0-.452-.072-.612-.216s-.24-.368-.24-.672c0-.32.08-.548.24-.684s.364-.204.612-.204.448.072.6.216c.16.136.24.36.24.672 0 .296-.08.52-.24.672-.152.144-.352.216-.6.216zm7.651 0c-.656 0-1.216-.116-1.68-.348-.456-.232-.804-.592-1.044-1.08s-.36-1.112-.36-1.872c0-.8.128-1.452.384-1.956.264-.504.636-.872 1.116-1.104s1.04-.348 1.68-.348c.36 0 .704.036 1.032.108s.636.18.924.324l-.372 1.032c-.272-.136-.532-.232-.78-.288s-.496-.084-.744-.084c-.448 0-.816.088-1.104.264-.288.168-.5.42-.636.756s-.204.76-.204 1.272c0 .528.072.956.216 1.284s.36.568.648.72.644.228 1.068.228c.32 0 .632-.036.936-.108.312-.08.6-.184.864-.312v1.128c-.272.128-.58.224-.924.288-.336.064-.676.096-1.02.096zm4.015-.12v-9.12h1.272v2.376c0 .184-.008.396-.024.636-.008.24-.016.444-.024.612h.072c.136-.248.3-.452.492-.612s.412-.28.66-.36c.256-.08.528-.12.816-.12.688 0 1.232.192 1.632.576.408.384.612.98.612 1.788v4.224h-1.272v-3.936c0-.568-.116-.976-.348-1.224-.232-.256-.56-.384-.984-.384-.336 0-.628.088-.876.264-.248.168-.436.424-.564.768-.128.336-.192.752-.192 1.248v3.264zm9.188.12c-.648 0-1.16-.164-1.536-.492s-.564-.804-.564-1.428c0-.472.108-.86.324-1.164.224-.312.548-.544.972-.696.432-.16.952-.248 1.56-.264l1.404-.036v-.276c0-.496-.136-.84-.408-1.032-.264-.192-.632-.288-1.104-.288-.328 0-.648.04-.96.12s-.62.196-.924.348l-.42-.936c.32-.16.672-.292 1.056-.396.392-.112.828-.168 1.308-.168.84 0 1.488.184 1.944.552s.684.94.684 1.716v4.32h-.996l-.168-.876h-.048c-.184.232-.384.42-.6.564-.208.144-.44.252-.696.324s-.532.108-.828.108zm.312-1.02c.336 0 .644-.06.924-.18.28-.128.504-.312.672-.552.168-.248.252-.552.252-.912v-.564l-1.104.024c-.456.016-.828.072-1.116.168-.28.096-.488.232-.624.408-.128.176-.192.388-.192.636 0 .344.108.592.324.744.224.152.512.228.864.228zm4.687.9v-.828l1.884-.228v-4.356l-1.656-.168v-.888h2.652l.168 1.152h.06c.224-.408.476-.72.756-.936.288-.224.656-.336 1.104-.336.232 0 .452.02.66.06.216.04.416.104.6.192l-.336 1.14c-.128-.064-.28-.116-.456-.156-.168-.048-.348-.072-.54-.072-.352 0-.66.1-.924.3-.256.2-.456.468-.6.804-.136.336-.204.708-.204 1.116v2.148l1.824.228v.828zm11.311.12c-.488 0-.916-.064-1.284-.192-.368-.136-.656-.36-.864-.672-.2-.32-.3-.752-.3-1.296v-3.372h-1.68v-.84l1.716-.24.24-1.668h.996v1.692h2.496v1.056h-2.496v3.168c0 .32.048.576.144.768s.244.332.444.42.444.132.732.132c.208 0 .424-.02.648-.06.232-.04.456-.08.672-.12v1.008c-.224.064-.46.116-.708.156s-.5.06-.756.06zm6.008 0c-.248 0-.452-.072-.612-.216s-.24-.368-.24-.672c0-.32.08-.548.24-.684s.364-.204.612-.204.448.072.6.216c.16.136.24.36.24.672 0 .296-.08.52-.24.672-.152.144-.352.216-.6.216zm7.651 0c-.656 0-1.216-.116-1.68-.348-.456-.232-.804-.592-1.044-1.08s-.36-1.112-.36-1.872c0-.8.128-1.452.384-1.956.264-.504.636-.872 1.116-1.104s1.04-.348 1.68-.348c.36 0 .704.036 1.032.108s.636.18.924.324l-.372 1.032c-.272-.136-.532-.232-.78-.288s-.496-.084-.744-.084c-.448 0-.816.088-1.104.264-.288.168-.5.42-.636.756s-.204.76-.204 1.272c0 .528.072.956.216 1.284s.36.568.648.72.644.228 1.068.228c.32 0 .632-.036.936-.108.312-.08.6-.184.864-.312v1.128c-.272.128-.58.224-.924.288-.336.064-.676.096-1.02.096zm6.751 0c-.44 0-.844-.072-1.212-.216s-.688-.356-.96-.636c-.264-.288-.468-.64-.612-1.056s-.216-.9-.216-1.452c0-.736.124-1.348.372-1.836.256-.496.608-.872 1.056-1.128s.964-.384 1.548-.384 1.1.128 1.548.384c.456.248.812.62 1.068 1.116s.384 1.116.384 1.86c0 .544-.072 1.024-.216 1.44s-.348.768-.612 1.056c-.256.28-.568.492-.936.636-.36.144-.764.216-1.212.216zm0-1.032c.376 0 .688-.092.936-.276.256-.192.444-.464.564-.816.128-.352.192-.764.192-1.236 0-.48-.064-.892-.192-1.236-.12-.344-.308-.608-.564-.792-.248-.192-.564-.288-.948-.288-.576 0-1.008.208-1.296.624-.28.408-.42.972-.42 1.692 0 .472.064.884.192 1.236s.32.624.576.816c.256.184.576.276.96.276zm4.112.912v-6.468h.876l.168.744h.06c.104-.216.212-.384.324-.504.12-.128.252-.22.396-.276s.304-.084.48-.084c.336 0 .592.084.768.252.184.16.32.4.408.72h.048c.136-.312.304-.552.504-.72.208-.168.48-.252.816-.252s.596.088.78.264c.192.168.328.428.408.78.08.344.12.788.12 1.332v4.212h-1.128v-4.188c0-.28-.012-.516-.036-.708s-.076-.34-.156-.444c-.08-.112-.208-.168-.384-.168s-.324.076-.444.228c-.12.144-.212.364-.276.66-.056.288-.084.656-.084 1.104v3.516h-1.128v-4.188c0-.288-.02-.528-.06-.72-.032-.192-.092-.34-.18-.444s-.22-.156-.396-.156c-.192 0-.344.08-.456.24s-.192.388-.24.684c-.048.288-.072.644-.072 1.068v3.516zm7.543 2.88v-9.348h1.008l.18.864h.06c.136-.208.296-.384.48-.528.184-.152.396-.264.636-.336.24-.08.512-.12.816-.12.4 0 .756.076 1.068.228.32.144.588.364.804.66.216.288.38.64.492 1.056.112.408.168.876.168 1.404 0 .72-.104 1.332-.312 1.836s-.504.884-.888 1.14-.836.384-1.356.384c-.288 0-.552-.04-.792-.12s-.452-.188-.636-.324c-.184-.144-.344-.3-.48-.468h-.072c.032.184.052.36.06.528.008.16.012.3.012.42v2.724zm2.832-3.804c.552 0 .952-.192 1.2-.576s.372-.972.372-1.764c0-.768-.124-1.34-.372-1.716-.24-.376-.644-.564-1.212-.564-.528 0-.924.18-1.188.54-.256.352-.384.86-.384 1.524v.228c0 .736.12 1.308.36 1.716s.648.612 1.224.612zm7.099 1.044c-.44 0-.844-.072-1.212-.216s-.688-.356-.96-.636c-.264-.288-.468-.64-.612-1.056s-.216-.9-.216-1.452c0-.736.124-1.348.372-1.836.256-.496.608-.872 1.056-1.128s.964-.384 1.548-.384 1.1.128 1.548.384c.456.248.812.62 1.068 1.116s.384 1.116.384 1.86c0 .544-.072 1.024-.216 1.44s-.348.768-.612 1.056c-.256.28-.568.492-.936.636-.36.144-.764.216-1.212.216zm0-1.032c.376 0 .688-.092.936-.276.256-.192.444-.464.564-.816.128-.352.192-.764.192-1.236 0-.48-.064-.892-.192-1.236-.12-.344-.308-.608-.564-.792-.248-.192-.564-.288-.948-.288-.576 0-1.008.208-1.296.624-.28.408-.42.972-.42 1.692 0 .472.064.884.192 1.236s.32.624.576.816c.256.184.576.276.96.276zm4.459.912v-6.468h.996l.192.912h.072c.128-.232.292-.424.492-.576s.432-.264.696-.336c.272-.08.564-.12.876-.12.672 0 1.204.192 1.596.576.392.376.588.952.588 1.728v4.284h-1.272v-4.02c0-.528-.108-.912-.324-1.152-.208-.248-.536-.372-.984-.372-.6 0-1.028.204-1.284.612-.248.408-.372.972-.372 1.692v3.24zm10.412.12c-.712 0-1.324-.128-1.836-.384-.504-.264-.892-.644-1.164-1.14s-.408-1.104-.408-1.824c0-.696.124-1.292.372-1.788.256-.504.612-.892 1.068-1.164s.996-.408 1.62-.408c.576 0 1.068.124 1.476.372.416.248.736.6.96 1.056.224.448.336.988.336 1.62v.6h-4.56c.016.488.12.88.312 1.176s.452.512.78.648c.328.128.704.192 1.128.192.336 0 .676-.044 1.02-.132.352-.096.704-.22 1.056-.372v1.092c-.36.16-.724.276-1.092.348s-.724.108-1.068.108zm1.2-4.02c-.008-.352-.076-.652-.204-.9-.12-.248-.292-.44-.516-.576s-.496-.204-.816-.204c-.488 0-.888.152-1.2.456-.312.296-.504.704-.576 1.224zm2.779 3.9v-6.468h.996l.192.912h.072c.128-.232.292-.424.492-.576s.432-.264.696-.336c.272-.08.564-.12.876-.12.672 0 1.204.192 1.596.576.392.376.588.952.588 1.728v4.284h-1.272v-4.02c0-.528-.108-.912-.324-1.152-.208-.248-.536-.372-.984-.372-.6 0-1.028.204-1.284.612-.248.408-.372.972-.372 1.692v3.24zm11.107.12c-.488 0-.916-.064-1.284-.192-.368-.136-.656-.36-.864-.672-.2-.32-.3-.752-.3-1.296v-3.372h-1.68v-.84l1.716-.24.24-1.668h.996v1.692h2.496v1.056h-2.496v3.168c0 .32.048.576.144.768s.244.332.444.42.444.132.732.132c.208 0 .424-.02.648-.06.232-.04.456-.08.672-.12v1.008c-.224.064-.46.116-.708.156s-.5.06-.756.06zm6.008 0c-.248 0-.452-.072-.612-.216s-.24-.368-.24-.672c0-.32.08-.548.24-.684s.364-.204.612-.204.448.072.6.216c.16.136.24.36.24.672 0 .296-.08.52-.24.672-.152.144-.352.216-.6.216zm7.651 0c-.656 0-1.216-.116-1.68-.348-.456-.232-.804-.592-1.044-1.08s-.36-1.112-.36-1.872c0-.8.128-1.452.384-1.956.264-.504.636-.872 1.116-1.104s1.04-.348 1.68-.348c.36 0 .704.036 1.032.108s.636.18.924.324l-.372 1.032c-.272-.136-.532-.232-.78-.288s-.496-.084-.744-.084c-.448 0-.816.088-1.104.264-.288.168-.5.42-.636.756s-.204.76-.204 1.272c0 .528.072.956.216 1.284s.36.568.648.72.644.228 1.068.228c.32 0 .632-.036.936-.108.312-.08.6-.184.864-.312v1.128c-.272.128-.58.224-.924.288-.336.064-.676.096-1.02.096zm4.015-.12v-9.12h1.272v2.376c0 .184-.008.396-.024.636-.008.24-.016.444-.024.612h.072c.136-.248.3-.452.492-.612s.412-.28.66-.36c.256-.08.528-.12.816-.12.688 0 1.232.192 1.632.576.408.384.612.98.612 1.788v4.224h-1.272v-3.936c0-.568-.116-.976-.348-1.224-.232-.256-.56-.384-.984-.384-.336 0-.628.088-.876.264-.248.168-.436.424-.564.768-.128.336-.192.752-.192 1.248v3.264zm9.188.12c-.648 0-1.16-.164-1.536-.492s-.564-.804-.564-1.428c0-.472.108-.86.324-1.164.224-.312.548-.544.972-.696.432-.16.952-.248 1.56-.264l1.404-.036v-.276c0-.496-.136-.84-.408-1.032-.264-.192-.632-.288-1.104-.288-.328 0-.648.04-.96.12s-.62.196-.924.348l-.42-.936c.32-.16.672-.292 1.056-.396.392-.112.828-.168 1.308-.168.84 0 1.488.184 1.944.552s.684.94.684 1.716v4.32h-.996l-.168-.876h-.048c-.184.232-.384.42-.6.564-.208.144-.44.252-.696.324s-.532.108-.828.108zm.312-1.02c.336 0 .644-.06.924-.18.28-.128.504-.312.672-.552.168-.248.252-.552.252-.912v-.564l-1.104.024c-.456.016-.828.072-1.116.168-.28.096-.488.232-.624.408-.128.176-.192.388-.192.636 0 .344.108.592.324.744.224.152.512.228.864.228zm4.687.9v-.828l1.884-.228v-4.356l-1.656-.168v-.888h2.652l.168 1.152h.06c.224-.408.476-.72.756-.936.288-.224.656-.336 1.104-.336.232 0 .452.02.66.06.216.04.416.104.6.192l-.336 1.14c-.128-.064-.28-.116-.456-.156-.168-.048-.348-.072-.54-.072-.352 0-.66.1-.924.3-.256.2-.456.468-.6.804-.136.336-.204.708-.204 1.116v2.148l1.824.228v.828zm11.311.12c-.488 0-.916-.064-1.284-.192-.368-.136-.656-.36-.864-.672-.2-.32-.3-.752-.3-1.296v-3.372h-1.68v-.84l1.716-.24.24-1.668h.996v1.692h2.496v1.056h-2.496v3.168c0 .32.048.576.144.768s.244.332.444.42.444.132.732.132c.208 0 .424-.02.648-.06.232-.04.456-.08.672-.12v1.008c-.224.064-.46.116-.708.156s-.5.06-.756.06zm5.756 0c-.448 0-.884-.04-1.308-.12-.424-.088-.78-.204-1.068-.348v-1.164c.336.152.716.284 1.14.396.424.104.848.156 1.272.156.368 0 .68-.048.936-.144s.448-.244.576-.444c.136-.2.204-.452.204-.756 0-.264-.06-.472-.18-.624-.12-.16-.32-.312-.6-.456-.272-.144-.644-.324-1.116-.54-.344-.16-.676-.34-.996-.54-.312-.2-.568-.452-.768-.756-.192-.312-.288-.708-.288-1.188 0-.504.112-.924.336-1.26s.54-.588.948-.756c.416-.176.908-.264 1.476-.264.4 0 .804.044 1.212.132s.78.212 1.116.372l-.408 1.032c-.304-.136-.624-.24-.96-.312-.328-.08-.644-.12-.948-.12-.296 0-.556.044-.78.132-.224.08-.396.208-.516.384-.112.176-.168.408-.168.696 0 .272.056.492.168.66.112.16.292.304.54.432s.564.28.948.456c.456.208.856.412 1.2.612s.612.444.804.732.288.676.288 1.164c0 .392-.068.74-.204 1.044-.136.296-.336.548-.6.756-.256.208-.572.368-.948.48-.376.104-.812.156-1.308.156zm6.883 0c-.744 0-1.3-.192-1.668-.576-.368-.392-.552-.968-.552-1.728v-4.284h1.272v4.032c0 .488.096.864.288 1.128.192.256.532.384 1.02.384.432 0 .768-.092 1.008-.276s.408-.448.504-.792.144-.756.144-1.236v-3.24h1.272v6.468h-.996l-.192-.852h-.072c-.144.224-.316.408-.516.552s-.428.248-.684.312c-.248.072-.524.108-.828.108zm4.831-.12v-.828l1.884-.228v-4.356l-1.656-.168v-.888h2.652l.168 1.152h.06c.224-.408.476-.72.756-.936.288-.224.656-.336 1.104-.336.232 0 .452.02.66.06.216.04.416.104.6.192l-.336 1.14c-.128-.064-.28-.116-.456-.156-.168-.048-.348-.072-.54-.072-.352 0-.66.1-.924.3-.256.2-.456.468-.6.804-.136.336-.204.708-.204 1.116v2.148l1.824.228v.828zm9.32 0v-5.412h-1.992v-.84l1.992-.216v-.636c0-.512.096-.92.287-1.224.193-.304.465-.52.817-.648.36-.136.788-.204 1.284-.204.336 0 .644.024.924.072.288.048.544.108.768.18l-.3.984c-.176-.048-.38-.088-.612-.12-.224-.04-.436-.06-.636-.06-.408 0-.72.088-.936.264-.216.168-.324.472-.324.912v.48h2.328v1.056h-2.328v5.412zm7.267.12c-.648 0-1.16-.164-1.536-.492s-.564-.804-.564-1.428c0-.472.108-.86.324-1.164.224-.312.548-.544.972-.696.432-.16.952-.248 1.56-.264l1.404-.036v-.276c0-.496-.136-.84-.408-1.032-.264-.192-.632-.288-1.104-.288-.328 0-.648.04-.96.12s-.62.196-.924.348l-.42-.936c.32-.16.672-.292 1.056-.396.392-.112.828-.168 1.308-.168.84 0 1.488.184 1.944.552s.684.94.684 1.716v4.32h-.996l-.168-.876h-.048c-.184.232-.384.42-.6.564-.208.144-.44.252-.696.324s-.532.108-.828.108zm.312-1.02c.336 0 .644-.06.924-.18.28-.128.504-.312.672-.552.168-.248.252-.552.252-.912v-.564l-1.104.024c-.456.016-.828.072-1.116.168-.28.096-.488.232-.624.408-.128.176-.192.388-.192.636 0 .344.108.592.324.744.224.152.512.228.864.228zm8.071 1.02c-.656 0-1.216-.116-1.68-.348-.456-.232-.804-.592-1.044-1.08s-.36-1.112-.36-1.872c0-.8.128-1.452.384-1.956.264-.504.636-.872 1.116-1.104s1.04-.348 1.68-.348c.36 0 .704.036 1.032.108s.636.18.924.324l-.372 1.032c-.272-.136-.532-.232-.78-.288s-.496-.084-.744-.084c-.448 0-.816.088-1.104.264-.288.168-.5.42-.636.756s-.204.76-.204 1.272c0 .528.072.956.216 1.284s.36.568.648.72.644.228 1.068.228c.32 0 .632-.036.936-.108.312-.08.6-.184.864-.312v1.128c-.272.128-.58.224-.924.288-.336.064-.676.096-1.02.096zm7.231 0c-.712 0-1.324-.128-1.836-.384-.504-.264-.892-.644-1.164-1.14s-.408-1.104-.408-1.824c0-.696.124-1.292.372-1.788.256-.504.612-.892 1.068-1.164s.996-.408 1.62-.408c.576 0 1.068.124 1.476.372.416.248.736.6.96 1.056.224.448.336.988.336 1.62v.6h-4.56c.016.488.12.88.312 1.176s.452.512.78.648c.328.128.704.192 1.128.192.336 0 .676-.044 1.02-.132.352-.096.704-.22 1.056-.372v1.092c-.36.16-.724.276-1.092.348s-.724.108-1.068.108zm1.2-4.02c-.008-.352-.076-.652-.204-.9-.12-.248-.292-.44-.516-.576s-.496-.204-.816-.204c-.488 0-.888.152-1.2.456-.312.296-.504.704-.576 1.224z" fill="#696966"/><path d="m353.178 124.104h7.602v1.596h-7.602zm0 3.248h7.602v1.596h-7.602zm0 3.234h7.602v1.638h-7.602zm-1.204-9.716h9.982v12.236h-1.792v-10.598h-6.496v10.598h-1.694zm12.642 10.612h12.782v1.498h-12.782zm1.806-9.954h10.724v1.456h-10.724zm-.364 2.394h3.486v1.302h-3.486zm.238 4.424h9.548v4.018h-1.652v-2.716h-1.106v2.716h-1.526v-2.716h-1.092v2.716h-1.526v-2.716h-1.078v2.716h-1.568zm-.658-6.818h1.68v1.554c0 .401-.019.845-.056 1.33s-.112.98-.224 1.484c-.103.495-.257.975-.462 1.442-.196.457-.448.882-.756 1.274-.084-.103-.219-.219-.406-.35-.177-.14-.359-.271-.546-.392-.177-.121-.331-.21-.462-.266.373-.457.644-.952.812-1.484.177-.541.289-1.078.336-1.61.056-.532.084-1.013.084-1.442zm3.416 2.394h1.54v.182c0 .121-.005.224-.014.308-.028.579-.061 1.059-.098 1.442-.028.383-.07.686-.126.91-.056.215-.135.378-.238.49-.103.14-.229.243-.378.308-.149.056-.313.093-.49.112-.168.019-.383.033-.644.042-.252.009-.527.005-.826-.014-.009-.196-.051-.411-.126-.644-.065-.233-.145-.434-.238-.602.224.019.425.033.602.042s.313.014.406.014c.084 0 .154-.005.21-.014.065-.019.117-.056.154-.112.075-.084.131-.294.168-.63s.07-.887.098-1.652zm1.694-3.808h1.68c.037.859.154 1.68.35 2.464.205.784.457 1.479.756 2.086.308.607.639 1.087.994 1.442.364.345.719.518 1.064.518.177 0 .303-.107.378-.322.084-.224.145-.607.182-1.148.177.159.387.303.63.434.252.131.481.233.686.308-.075.635-.191 1.12-.35 1.456s-.369.565-.63.686c-.252.112-.579.168-.98.168-.644 0-1.241-.215-1.792-.644s-1.041-1.017-1.47-1.764c-.42-.756-.761-1.619-1.022-2.59-.261-.98-.42-2.011-.476-3.094zm4.046 3.038 1.526.448c-.373.681-.826 1.311-1.358 1.89-.532.569-1.12 1.083-1.764 1.54-.635.448-1.293.835-1.974 1.162-.065-.112-.163-.247-.294-.406-.121-.159-.252-.317-.392-.476s-.266-.285-.378-.378c.999-.383 1.909-.896 2.73-1.54.831-.653 1.465-1.4 1.904-2.24zm-1.666-2.478 1.148-.658c.271.159.551.355.84.588s.523.443.7.63l-1.19.756c-.168-.196-.397-.42-.686-.672-.28-.252-.551-.467-.812-.644zm9.926.084c-.047.168-.098.378-.154.63s-.112.518-.168.798c-.056.271-.107.537-.154.798-.037.261-.065.49-.084.686.168-.28.369-.551.602-.812.233-.271.495-.513.784-.728.299-.224.621-.401.966-.532.355-.131.728-.196 1.12-.196.653 0 1.241.201 1.764.602s.933.975 1.232 1.722c.308.747.462 1.633.462 2.66 0 .989-.145 1.857-.434 2.604-.289.737-.705 1.367-1.246 1.89s-1.19.947-1.946 1.274c-.747.336-1.582.588-2.506.756l-1.064-1.624c.775-.121 1.484-.285 2.128-.49.653-.215 1.213-.504 1.68-.868.476-.364.84-.831 1.092-1.4.261-.579.392-1.288.392-2.128 0-.719-.075-1.325-.224-1.82-.149-.504-.369-.887-.658-1.148-.28-.261-.616-.392-1.008-.392-.411 0-.803.135-1.176.406s-.709.625-1.008 1.064c-.289.429-.523.896-.7 1.4-.168.504-.261.989-.28 1.456-.009.196-.014.411-.014.644.009.233.037.513.084.84l-1.722.112c-.037-.271-.079-.607-.126-1.008-.037-.411-.056-.854-.056-1.33 0-.327.009-.677.028-1.05.028-.373.056-.751.084-1.134.037-.392.079-.784.126-1.176.056-.392.107-.765.154-1.12.037-.271.065-.537.084-.798s.028-.485.028-.672z" fill="#073165"/><rect fill="#d9d8d3" height="16" rx="8" width="16" x="350" y="152"/><path d="m375.028 163.176c0 .424-.096.78-.288 1.068s-.472.508-.84.66c-.368.144-.82.216-1.356.216-.424 0-.796-.036-1.116-.108-.312-.064-.6-.16-.864-.288v-1.116c.28.136.6.26.96.372.36.104.704.156 1.032.156.424 0 .732-.076.924-.228s.288-.356.288-.612c0-.144-.04-.272-.12-.384-.072-.12-.212-.24-.42-.36-.208-.128-.508-.272-.9-.432-.384-.168-.708-.332-.972-.492-.256-.168-.456-.364-.6-.588-.136-.232-.204-.528-.204-.888 0-.56.216-.988.648-1.284.432-.304.996-.456 1.692-.456.384 0 .74.04 1.068.12.328.072.648.184.96.336l-.396.972c-.184-.088-.372-.16-.564-.216-.184-.064-.368-.116-.552-.156s-.368-.06-.552-.06c-.344 0-.604.06-.78.18s-.264.288-.264.504c0 .16.04.296.12.408.088.112.236.224.444.336.216.112.512.244.888.396s.696.308.96.468.464.356.6.588.204.528.204.888zm3.9 1.944c-.568 0-1.068-.116-1.5-.348-.424-.232-.756-.592-.996-1.08-.232-.496-.348-1.124-.348-1.884 0-.8.128-1.448.384-1.944s.604-.86 1.044-1.092c.44-.24.944-.36 1.512-.36.336 0 .656.04.96.12.312.072.568.156.768.252l-.396 1.02c-.2-.08-.416-.152-.648-.216s-.452-.096-.66-.096c-.368 0-.672.088-.912.264-.232.168-.408.424-.528.768-.12.336-.18.76-.18 1.272 0 .488.06.9.18 1.236s.296.592.528.768c.24.168.528.252.864.252.328 0 .62-.04.876-.12.264-.08.508-.184.732-.312v1.104c-.224.136-.468.236-.732.3s-.58.096-.948.096zm5.53-6.708c.76 0 1.332.18 1.716.54.392.352.588.908.588 1.668v4.38h-.924l-.252-.9h-.048c-.184.232-.368.424-.552.576-.176.152-.384.264-.624.336-.232.072-.52.108-.864.108-.36 0-.684-.068-.972-.204-.288-.144-.516-.36-.684-.648-.168-.296-.252-.664-.252-1.104 0-.656.232-1.156.696-1.5.472-.344 1.188-.532 2.148-.564l1.032-.036v-.36c0-.48-.1-.816-.3-1.008-.192-.192-.464-.288-.816-.288-.296 0-.588.048-.876.144s-.568.212-.84.348l-.396-.924c.296-.16.632-.292 1.008-.396.384-.112.788-.168 1.212-.168zm.228 3.504c-.656.032-1.112.156-1.368.372-.256.208-.384.504-.384.888 0 .336.088.58.264.732.184.152.42.228.708.228.44 0 .808-.14 1.104-.42.304-.28.456-.7.456-1.26v-.564zm5.159 3.084h-1.296v-9.12h1.296zm4.269-6.588c.536 0 1 .12 1.392.36.392.232.692.568.9 1.008.216.44.324.96.324 1.56v.696h-4.068c.016.664.176 1.172.48 1.524s.732.528 1.284.528c.392 0 .74-.036 1.044-.108.312-.08.628-.196.948-.348v1.056c-.304.144-.616.252-.936.324-.312.072-.692.108-1.14.108-.584 0-1.104-.124-1.56-.372s-.812-.616-1.068-1.104c-.256-.496-.384-1.104-.384-1.824 0-.728.116-1.344.348-1.848s.556-.888.972-1.152c.424-.272.912-.408 1.464-.408zm0 .984c-.408 0-.736.148-.984.444s-.392.716-.432 1.26h2.748c0-.336-.048-.632-.144-.888s-.244-.456-.444-.6c-.192-.144-.44-.216-.744-.216zm10.968-.984c.688 0 1.204.188 1.548.564.352.376.528.98.528 1.812v4.212h-1.296v-4.044c0-.496-.092-.868-.276-1.116-.176-.256-.452-.384-.828-.384-.52 0-.892.18-1.116.54-.216.352-.324.864-.324 1.536v3.468h-1.308v-4.044c0-.328-.04-.604-.12-.828s-.2-.392-.36-.504-.368-.168-.624-.168c-.36 0-.644.088-.852.264s-.356.436-.444.78c-.088.336-.132.748-.132 1.236v3.264h-1.296v-6.468h1.02l.192.864h.06c.128-.224.28-.408.456-.552.184-.144.392-.252.624-.324s.472-.108.72-.108c.456 0 .84.088 1.152.264.312.168.544.428.696.78h.084c.192-.36.46-.624.804-.792s.708-.252 1.092-.252zm6.305 0c.76 0 1.332.18 1.716.54.392.352.588.908.588 1.668v4.38h-.924l-.252-.9h-.048c-.184.232-.368.424-.552.576-.176.152-.384.264-.624.336-.232.072-.52.108-.864.108-.36 0-.684-.068-.972-.204-.288-.144-.516-.36-.684-.648-.168-.296-.252-.664-.252-1.104 0-.656.232-1.156.696-1.5.472-.344 1.188-.532 2.148-.564l1.032-.036v-.36c0-.48-.1-.816-.3-1.008-.192-.192-.464-.288-.816-.288-.296 0-.588.048-.876.144s-.568.212-.84.348l-.396-.924c.296-.16.632-.292 1.008-.396.384-.112.788-.168 1.212-.168zm.228 3.504c-.656.032-1.112.156-1.368.372-.256.208-.384.504-.384.888 0 .336.088.58.264.732.184.152.42.228.708.228.44 0 .808-.14 1.104-.42.304-.28.456-.7.456-1.26v-.564zm6.947-3.504c.104 0 .22.008.348.024.128.008.236.02.324.036l-.132 1.188c-.088-.024-.188-.044-.3-.06s-.224-.024-.336-.024c-.216 0-.424.048-.624.144-.2.088-.38.22-.54.396-.16.168-.288.376-.384.624s-.144.532-.144.852v3.408h-1.296v-6.468h1.02l.168 1.152h.072c.12-.232.268-.444.444-.636.184-.192.392-.344.624-.456.232-.12.484-.18.756-.18zm3.064 2.028c0 .168-.008.36-.024.576s-.032.416-.048.6h.048c.048-.08.112-.176.192-.288.088-.12.176-.24.264-.36.096-.12.184-.224.264-.312l1.812-2.124h1.488l-2.412 2.772 2.568 3.696h-1.536l-1.92-2.892-.696.624v2.268h-1.296v-9.12h1.296z" fill="#696966"/><path d="m350 180c0-2.209 1.791-4 4-4h304c2.209 0 4 1.791 4 4v16c0 2.209-1.791 4-4 4h-304c-2.209 0-4-1.791-4-4z" fill="#fff"/><path d="m361.324 193.12c-.4 0-.784-.036-1.152-.108-.368-.064-.7-.16-.996-.288v-1.188c.296.136.628.26.996.372.368.104.784.156 1.248.156s.8-.068 1.008-.204.312-.34.312-.612c0-.168-.044-.304-.132-.408s-.244-.208-.468-.312c-.216-.104-.524-.236-.924-.396-.392-.176-.736-.344-1.032-.504s-.524-.352-.684-.576-.24-.512-.24-.864c0-.4.104-.732.312-.996s.5-.46.876-.588c.384-.128.832-.192 1.344-.192.376 0 .74.036 1.092.108s.708.184 1.068.336l-.384.984c-.336-.136-.648-.232-.936-.288-.28-.056-.564-.084-.852-.084-.432 0-.752.056-.96.168-.2.104-.3.276-.3.516 0 .168.052.308.156.42s.268.22.492.324c.224.096.512.22.864.372.408.16.76.316 1.056.468.304.152.536.344.696.576.16.224.24.532.24.924 0 .416-.104.764-.312 1.044-.2.28-.5.492-.9.636-.4.136-.896.204-1.488.204zm7.051 0c-.4 0-.76-.072-1.08-.216-.32-.152-.592-.372-.816-.66-.216-.288-.384-.64-.504-1.056-.112-.424-.168-.908-.168-1.452 0-.696.096-1.292.288-1.788.2-.496.5-.876.9-1.14s.9-.396 1.5-.396c.296 0 .556.04.78.12.232.072.432.18.6.324.168.136.308.304.42.504h.06c-.008-.112-.02-.228-.036-.348s-.028-.244-.036-.372-.012-.252-.012-.372v-2.388h1.248v9.12h-1.008l-.192-.864h-.06c-.12.2-.272.376-.456.528-.176.144-.384.256-.624.336-.232.08-.5.12-.804.12zm.348-1.044c.536 0 .932-.18 1.188-.54.264-.368.396-.876.396-1.524v-.228c0-.448-.048-.848-.144-1.2s-.256-.628-.48-.828-.532-.3-.924-.3c-.536 0-.948.2-1.236.6-.28.392-.42.988-.42 1.788 0 .752.132 1.312.396 1.68s.672.552 1.224.552zm7.268 1.044c-.248 0-.452-.072-.612-.216s-.24-.368-.24-.672c0-.32.08-.548.24-.684s.364-.204.612-.204.448.072.6.216c.16.136.24.36.24.672 0 .296-.08.52-.24.672-.152.144-.352.216-.6.216zm6.919 0c-.4 0-.784-.036-1.152-.108-.368-.064-.7-.16-.996-.288v-1.188c.296.136.628.26.996.372.368.104.784.156 1.248.156s.8-.068 1.008-.204.312-.34.312-.612c0-.168-.044-.304-.132-.408s-.244-.208-.468-.312c-.216-.104-.524-.236-.924-.396-.392-.176-.736-.344-1.032-.504s-.524-.352-.684-.576-.24-.512-.24-.864c0-.4.104-.732.312-.996s.5-.46.876-.588c.384-.128.832-.192 1.344-.192.376 0 .74.036 1.092.108s.708.184 1.068.336l-.384.984c-.336-.136-.648-.232-.936-.288-.28-.056-.564-.084-.852-.084-.432 0-.752.056-.96.168-.2.104-.3.276-.3.516 0 .168.052.308.156.42s.268.22.492.324c.224.096.512.22.864.372.408.16.76.316 1.056.468.304.152.536.344.696.576.16.224.24.532.24.924 0 .416-.104.764-.312 1.044-.2.28-.5.492-.9.636-.4.136-.896.204-1.488.204zm5.491 2.82c-.152 0-.304-.012-.456-.036-.152-.016-.288-.036-.408-.06v-1.02c.096.016.208.032.336.048s.248.024.36.024c.248 0 .452-.044.612-.132.168-.08.312-.204.432-.372.128-.168.244-.384.348-.648l.276-.72-2.664-6.492h1.296l1.452 3.78c.096.224.184.472.264.744.088.264.164.528.228.792h.036c.048-.184.096-.364.144-.54.056-.176.108-.348.156-.516.056-.176.108-.34.156-.492l1.224-3.768h1.332l-2.652 7.164c-.168.464-.356.864-.564 1.2-.2.336-.452.592-.756.768-.304.184-.688.276-1.152.276zm8.9-2.82c-.4 0-.784-.036-1.152-.108-.368-.064-.7-.16-.996-.288v-1.188c.296.136.628.26.996.372.368.104.784.156 1.248.156s.8-.068 1.008-.204.312-.34.312-.612c0-.168-.044-.304-.132-.408s-.244-.208-.468-.312c-.216-.104-.524-.236-.924-.396-.392-.176-.736-.344-1.032-.504s-.524-.352-.684-.576-.24-.512-.24-.864c0-.4.104-.732.312-.996s.5-.46.876-.588c.384-.128.832-.192 1.344-.192.376 0 .74.036 1.092.108s.708.184 1.068.336l-.384.984c-.336-.136-.648-.232-.936-.288-.28-.056-.564-.084-.852-.084-.432 0-.752.056-.96.168-.2.104-.3.276-.3.516 0 .168.052.308.156.42s.268.22.492.324c.224.096.512.22.864.372.408.16.76.316 1.056.468.304.152.536.344.696.576.16.224.24.532.24.924 0 .416-.104.764-.312 1.044-.2.28-.5.492-.9.636-.4.136-.896.204-1.488.204zm8.659 0c-.488 0-.916-.064-1.284-.192-.368-.136-.656-.36-.864-.672-.2-.32-.3-.752-.3-1.296v-3.372h-1.68v-.84l1.716-.24.24-1.668h.996v1.692h2.496v1.056h-2.496v3.168c0 .32.048.576.144.768s.244.332.444.42.444.132.732.132c.208 0 .424-.02.648-.06.232-.04.456-.08.672-.12v1.008c-.224.064-.46.116-.708.156s-.5.06-.756.06zm6.499 0c-.712 0-1.324-.128-1.836-.384-.504-.264-.892-.644-1.164-1.14s-.408-1.104-.408-1.824c0-.696.124-1.292.372-1.788.256-.504.612-.892 1.068-1.164s.996-.408 1.62-.408c.576 0 1.068.124 1.476.372.416.248.736.6.96 1.056.224.448.336.988.336 1.62v.6h-4.56c.016.488.12.88.312 1.176s.452.512.78.648c.328.128.704.192 1.128.192.336 0 .676-.044 1.02-.132.352-.096.704-.22 1.056-.372v1.092c-.36.16-.724.276-1.092.348s-.724.108-1.068.108zm1.2-4.02c-.008-.352-.076-.652-.204-.9-.12-.248-.292-.44-.516-.576s-.496-.204-.816-.204c-.488 0-.888.152-1.2.456-.312.296-.504.704-.576 1.224zm2.432 3.9v-6.468h.876l.168.744h.06c.104-.216.212-.384.324-.504.12-.128.252-.22.396-.276s.304-.084.48-.084c.336 0 .592.084.768.252.184.16.32.4.408.72h.048c.136-.312.304-.552.504-.72.208-.168.48-.252.816-.252s.596.088.78.264c.192.168.328.428.408.78.08.344.12.788.12 1.332v4.212h-1.128v-4.188c0-.28-.012-.516-.036-.708s-.076-.34-.156-.444c-.08-.112-.208-.168-.384-.168s-.324.076-.444.228c-.12.144-.212.364-.276.66-.056.288-.084.656-.084 1.104v3.516h-1.128v-4.188c0-.288-.02-.528-.06-.72-.032-.192-.092-.34-.18-.444s-.22-.156-.396-.156c-.192 0-.344.08-.456.24s-.192.388-.24.684c-.048.288-.072.644-.072 1.068v3.516zm10.267.12c-.248 0-.452-.072-.612-.216s-.24-.368-.24-.672c0-.32.08-.548.24-.684s.364-.204.612-.204.448.072.6.216c.16.136.24.36.24.672 0 .296-.08.52-.24.672-.152.144-.352.216-.6.216zm7.651 0c-.656 0-1.216-.116-1.68-.348-.456-.232-.804-.592-1.044-1.08s-.36-1.112-.36-1.872c0-.8.128-1.452.384-1.956.264-.504.636-.872 1.116-1.104s1.04-.348 1.68-.348c.36 0 .704.036 1.032.108s.636.18.924.324l-.372 1.032c-.272-.136-.532-.232-.78-.288s-.496-.084-.744-.084c-.448 0-.816.088-1.104.264-.288.168-.5.42-.636.756s-.204.76-.204 1.272c0 .528.072.956.216 1.284s.36.568.648.72.644.228 1.068.228c.32 0 .632-.036.936-.108.312-.08.6-.184.864-.312v1.128c-.272.128-.58.224-.924.288-.336.064-.676.096-1.02.096zm6.751 0c-.44 0-.844-.072-1.212-.216s-.688-.356-.96-.636c-.264-.288-.468-.64-.612-1.056s-.216-.9-.216-1.452c0-.736.124-1.348.372-1.836.256-.496.608-.872 1.056-1.128s.964-.384 1.548-.384 1.1.128 1.548.384c.456.248.812.62 1.068 1.116s.384 1.116.384 1.86c0 .544-.072 1.024-.216 1.44s-.348.768-.612 1.056c-.256.28-.568.492-.936.636-.36.144-.764.216-1.212.216zm0-1.032c.376 0 .688-.092.936-.276.256-.192.444-.464.564-.816.128-.352.192-.764.192-1.236 0-.48-.064-.892-.192-1.236-.12-.344-.308-.608-.564-.792-.248-.192-.564-.288-.948-.288-.576 0-1.008.208-1.296.624-.28.408-.42.972-.42 1.692 0 .472.064.884.192 1.236s.32.624.576.816c.256.184.576.276.96.276zm4.472.912v-.828l2.292-.228v-7.008l-2.112-.216v-.84h3.396v8.064l2.052.228v.828zm9.919.12c-.44 0-.844-.072-1.212-.216s-.688-.356-.96-.636c-.264-.288-.468-.64-.612-1.056s-.216-.9-.216-1.452c0-.736.124-1.348.372-1.836.256-.496.608-.872 1.056-1.128s.964-.384 1.548-.384 1.1.128 1.548.384c.456.248.812.62 1.068 1.116s.384 1.116.384 1.86c0 .544-.072 1.024-.216 1.44s-.348.768-.612 1.056c-.256.28-.568.492-.936.636-.36.144-.764.216-1.212.216zm0-1.032c.376 0 .688-.092.936-.276.256-.192.444-.464.564-.816.128-.352.192-.764.192-1.236 0-.48-.064-.892-.192-1.236-.12-.344-.308-.608-.564-.792-.248-.192-.564-.288-.948-.288-.576 0-1.008.208-1.296.624-.28.408-.42.972-.42 1.692 0 .472.064.884.192 1.236s.32.624.576.816c.256.184.576.276.96.276zm4.255.912v-.828l1.884-.228v-4.356l-1.656-.168v-.888h2.652l.168 1.152h.06c.224-.408.476-.72.756-.936.288-.224.656-.336 1.104-.336.232 0 .452.02.66.06.216.04.416.104.6.192l-.336 1.14c-.128-.064-.28-.116-.456-.156-.168-.048-.348-.072-.54-.072-.352 0-.66.1-.924.3-.256.2-.456.468-.6.804-.136.336-.204.708-.204 1.116v2.148l1.824.228v.828zm10.124.12c-.248 0-.452-.072-.612-.216s-.24-.368-.24-.672c0-.32.08-.548.24-.684s.364-.204.612-.204.448.072.6.216c.16.136.24.36.24.672 0 .296-.08.52-.24.672-.152.144-.352.216-.6.216zm7.651 0c-.656 0-1.216-.116-1.68-.348-.456-.232-.804-.592-1.044-1.08s-.36-1.112-.36-1.872c0-.8.128-1.452.384-1.956.264-.504.636-.872 1.116-1.104s1.04-.348 1.68-.348c.36 0 .704.036 1.032.108s.636.18.924.324l-.372 1.032c-.272-.136-.532-.232-.78-.288s-.496-.084-.744-.084c-.448 0-.816.088-1.104.264-.288.168-.5.42-.636.756s-.204.76-.204 1.272c0 .528.072.956.216 1.284s.36.568.648.72.644.228 1.068.228c.32 0 .632-.036.936-.108.312-.08.6-.184.864-.312v1.128c-.272.128-.58.224-.924.288-.336.064-.676.096-1.02.096zm4.015-.12v-9.12h1.272v2.376c0 .184-.008.396-.024.636-.008.24-.016.444-.024.612h.072c.136-.248.3-.452.492-.612s.412-.28.66-.36c.256-.08.528-.12.816-.12.688 0 1.232.192 1.632.576.408.384.612.98.612 1.788v4.224h-1.272v-3.936c0-.568-.116-.976-.348-1.224-.232-.256-.56-.384-.984-.384-.336 0-.628.088-.876.264-.248.168-.436.424-.564.768-.128.336-.192.752-.192 1.248v3.264zm9.188.12c-.648 0-1.16-.164-1.536-.492s-.564-.804-.564-1.428c0-.472.108-.86.324-1.164.224-.312.548-.544.972-.696.432-.16.952-.248 1.56-.264l1.404-.036v-.276c0-.496-.136-.84-.408-1.032-.264-.192-.632-.288-1.104-.288-.328 0-.648.04-.96.12s-.62.196-.924.348l-.42-.936c.32-.16.672-.292 1.056-.396.392-.112.828-.168 1.308-.168.84 0 1.488.184 1.944.552s.684.94.684 1.716v4.32h-.996l-.168-.876h-.048c-.184.232-.384.42-.6.564-.208.144-.44.252-.696.324s-.532.108-.828.108zm.312-1.02c.336 0 .644-.06.924-.18.28-.128.504-.312.672-.552.168-.248.252-.552.252-.912v-.564l-1.104.024c-.456.016-.828.072-1.116.168-.28.096-.488.232-.624.408-.128.176-.192.388-.192.636 0 .344.108.592.324.744.224.152.512.228.864.228zm4.687.9v-.828l1.884-.228v-4.356l-1.656-.168v-.888h2.652l.168 1.152h.06c.224-.408.476-.72.756-.936.288-.224.656-.336 1.104-.336.232 0 .452.02.66.06.216.04.416.104.6.192l-.336 1.14c-.128-.064-.28-.116-.456-.156-.168-.048-.348-.072-.54-.072-.352 0-.66.1-.924.3-.256.2-.456.468-.6.804-.136.336-.204.708-.204 1.116v2.148l1.824.228v.828zm11.311.12c-.488 0-.916-.064-1.284-.192-.368-.136-.656-.36-.864-.672-.2-.32-.3-.752-.3-1.296v-3.372h-1.68v-.84l1.716-.24.24-1.668h.996v1.692h2.496v1.056h-2.496v3.168c0 .32.048.576.144.768s.244.332.444.42.444.132.732.132c.208 0 .424-.02.648-.06.232-.04.456-.08.672-.12v1.008c-.224.064-.46.116-.708.156s-.5.06-.756.06zm6.008 0c-.248 0-.452-.072-.612-.216s-.24-.368-.24-.672c0-.32.08-.548.24-.684s.364-.204.612-.204.448.072.6.216c.16.136.24.36.24.672 0 .296-.08.52-.24.672-.152.144-.352.216-.6.216zm7.651 0c-.656 0-1.216-.116-1.68-.348-.456-.232-.804-.592-1.044-1.08s-.36-1.112-.36-1.872c0-.8.128-1.452.384-1.956.264-.504.636-.872 1.116-1.104s1.04-.348 1.68-.348c.36 0 .704.036 1.032.108s.636.18.924.324l-.372 1.032c-.272-.136-.532-.232-.78-.288s-.496-.084-.744-.084c-.448 0-.816.088-1.104.264-.288.168-.5.42-.636.756s-.204.76-.204 1.272c0 .528.072.956.216 1.284s.36.568.648.72.644.228 1.068.228c.32 0 .632-.036.936-.108.312-.08.6-.184.864-.312v1.128c-.272.128-.58.224-.924.288-.336.064-.676.096-1.02.096zm6.751 0c-.44 0-.844-.072-1.212-.216s-.688-.356-.96-.636c-.264-.288-.468-.64-.612-1.056s-.216-.9-.216-1.452c0-.736.124-1.348.372-1.836.256-.496.608-.872 1.056-1.128s.964-.384 1.548-.384 1.1.128 1.548.384c.456.248.812.62 1.068 1.116s.384 1.116.384 1.86c0 .544-.072 1.024-.216 1.44s-.348.768-.612 1.056c-.256.28-.568.492-.936.636-.36.144-.764.216-1.212.216zm0-1.032c.376 0 .688-.092.936-.276.256-.192.444-.464.564-.816.128-.352.192-.764.192-1.236 0-.48-.064-.892-.192-1.236-.12-.344-.308-.608-.564-.792-.248-.192-.564-.288-.948-.288-.576 0-1.008.208-1.296.624-.28.408-.42.972-.42 1.692 0 .472.064.884.192 1.236s.32.624.576.816c.256.184.576.276.96.276zm4.112.912v-6.468h.876l.168.744h.06c.104-.216.212-.384.324-.504.12-.128.252-.22.396-.276s.304-.084.48-.084c.336 0 .592.084.768.252.184.16.32.4.408.72h.048c.136-.312.304-.552.504-.72.208-.168.48-.252.816-.252s.596.088.78.264c.192.168.328.428.408.78.08.344.12.788.12 1.332v4.212h-1.128v-4.188c0-.28-.012-.516-.036-.708s-.076-.34-.156-.444c-.08-.112-.208-.168-.384-.168s-.324.076-.444.228c-.12.144-.212.364-.276.66-.056.288-.084.656-.084 1.104v3.516h-1.128v-4.188c0-.288-.02-.528-.06-.72-.032-.192-.092-.34-.18-.444s-.22-.156-.396-.156c-.192 0-.344.08-.456.24s-.192.388-.24.684c-.048.288-.072.644-.072 1.068v3.516zm7.543 2.88v-9.348h1.008l.18.864h.06c.136-.208.296-.384.48-.528.184-.152.396-.264.636-.336.24-.08.512-.12.816-.12.4 0 .756.076 1.068.228.32.144.588.364.804.66.216.288.38.64.492 1.056.112.408.168.876.168 1.404 0 .72-.104 1.332-.312 1.836s-.504.884-.888 1.14-.836.384-1.356.384c-.288 0-.552-.04-.792-.12s-.452-.188-.636-.324c-.184-.144-.344-.3-.48-.468h-.072c.032.184.052.36.06.528.008.16.012.3.012.42v2.724zm2.832-3.804c.552 0 .952-.192 1.2-.576s.372-.972.372-1.764c0-.768-.124-1.34-.372-1.716-.24-.376-.644-.564-1.212-.564-.528 0-.924.18-1.188.54-.256.352-.384.86-.384 1.524v.228c0 .736.12 1.308.36 1.716s.648.612 1.224.612zm7.099 1.044c-.44 0-.844-.072-1.212-.216s-.688-.356-.96-.636c-.264-.288-.468-.64-.612-1.056s-.216-.9-.216-1.452c0-.736.124-1.348.372-1.836.256-.496.608-.872 1.056-1.128s.964-.384 1.548-.384 1.1.128 1.548.384c.456.248.812.62 1.068 1.116s.384 1.116.384 1.86c0 .544-.072 1.024-.216 1.44s-.348.768-.612 1.056c-.256.28-.568.492-.936.636-.36.144-.764.216-1.212.216zm0-1.032c.376 0 .688-.092.936-.276.256-.192.444-.464.564-.816.128-.352.192-.764.192-1.236 0-.48-.064-.892-.192-1.236-.12-.344-.308-.608-.564-.792-.248-.192-.564-.288-.948-.288-.576 0-1.008.208-1.296.624-.28.408-.42.972-.42 1.692 0 .472.064.884.192 1.236s.32.624.576.816c.256.184.576.276.96.276zm4.459.912v-6.468h.996l.192.912h.072c.128-.232.292-.424.492-.576s.432-.264.696-.336c.272-.08.564-.12.876-.12.672 0 1.204.192 1.596.576.392.376.588.952.588 1.728v4.284h-1.272v-4.02c0-.528-.108-.912-.324-1.152-.208-.248-.536-.372-.984-.372-.6 0-1.028.204-1.284.612-.248.408-.372.972-.372 1.692v3.24zm10.412.12c-.712 0-1.324-.128-1.836-.384-.504-.264-.892-.644-1.164-1.14s-.408-1.104-.408-1.824c0-.696.124-1.292.372-1.788.256-.504.612-.892 1.068-1.164s.996-.408 1.62-.408c.576 0 1.068.124 1.476.372.416.248.736.6.96 1.056.224.448.336.988.336 1.62v.6h-4.56c.016.488.12.88.312 1.176s.452.512.78.648c.328.128.704.192 1.128.192.336 0 .676-.044 1.02-.132.352-.096.704-.22 1.056-.372v1.092c-.36.16-.724.276-1.092.348s-.724.108-1.068.108zm1.2-4.02c-.008-.352-.076-.652-.204-.9-.12-.248-.292-.44-.516-.576s-.496-.204-.816-.204c-.488 0-.888.152-1.2.456-.312.296-.504.704-.576 1.224zm2.779 3.9v-6.468h.996l.192.912h.072c.128-.232.292-.424.492-.576s.432-.264.696-.336c.272-.08.564-.12.876-.12.672 0 1.204.192 1.596.576.392.376.588.952.588 1.728v4.284h-1.272v-4.02c0-.528-.108-.912-.324-1.152-.208-.248-.536-.372-.984-.372-.6 0-1.028.204-1.284.612-.248.408-.372.972-.372 1.692v3.24zm11.107.12c-.488 0-.916-.064-1.284-.192-.368-.136-.656-.36-.864-.672-.2-.32-.3-.752-.3-1.296v-3.372h-1.68v-.84l1.716-.24.24-1.668h.996v1.692h2.496v1.056h-2.496v3.168c0 .32.048.576.144.768s.244.332.444.42.444.132.732.132c.208 0 .424-.02.648-.06.232-.04.456-.08.672-.12v1.008c-.224.064-.46.116-.708.156s-.5.06-.756.06zm6.008 0c-.248 0-.452-.072-.612-.216s-.24-.368-.24-.672c0-.32.08-.548.24-.684s.364-.204.612-.204.448.072.6.216c.16.136.24.36.24.672 0 .296-.08.52-.24.672-.152.144-.352.216-.6.216zm6.919 0c-.4 0-.784-.036-1.152-.108-.368-.064-.7-.16-.996-.288v-1.188c.296.136.628.26.996.372.368.104.784.156 1.248.156s.8-.068 1.008-.204.312-.34.312-.612c0-.168-.044-.304-.132-.408s-.244-.208-.468-.312c-.216-.104-.524-.236-.924-.396-.392-.176-.736-.344-1.032-.504s-.524-.352-.684-.576-.24-.512-.24-.864c0-.4.104-.732.312-.996s.5-.46.876-.588c.384-.128.832-.192 1.344-.192.376 0 .74.036 1.092.108s.708.184 1.068.336l-.384.984c-.336-.136-.648-.232-.936-.288-.28-.056-.564-.084-.852-.084-.432 0-.752.056-.96.168-.2.104-.3.276-.3.516 0 .168.052.308.156.42s.268.22.492.324c.224.096.512.22.864.372.408.16.76.316 1.056.468.304.152.536.344.696.576.16.224.24.532.24.924 0 .416-.104.764-.312 1.044-.2.28-.5.492-.9.636-.4.136-.896.204-1.488.204zm7.927 0c-.656 0-1.216-.116-1.68-.348-.456-.232-.804-.592-1.044-1.08s-.36-1.112-.36-1.872c0-.8.128-1.452.384-1.956.264-.504.636-.872 1.116-1.104s1.04-.348 1.68-.348c.36 0 .704.036 1.032.108s.636.18.924.324l-.372 1.032c-.272-.136-.532-.232-.78-.288s-.496-.084-.744-.084c-.448 0-.816.088-1.104.264-.288.168-.5.42-.636.756s-.204.76-.204 1.272c0 .528.072.956.216 1.284s.36.568.648.72.644.228 1.068.228c.32 0 .632-.036.936-.108.312-.08.6-.184.864-.312v1.128c-.272.128-.58.224-.924.288-.336.064-.676.096-1.02.096zm6.008 0c-.648 0-1.16-.164-1.536-.492s-.564-.804-.564-1.428c0-.472.108-.86.324-1.164.224-.312.548-.544.972-.696.432-.16.952-.248 1.56-.264l1.404-.036v-.276c0-.496-.136-.84-.408-1.032-.264-.192-.632-.288-1.104-.288-.328 0-.648.04-.96.12s-.62.196-.924.348l-.42-.936c.32-.16.672-.292 1.056-.396.392-.112.828-.168 1.308-.168.84 0 1.488.184 1.944.552s.684.94.684 1.716v4.32h-.996l-.168-.876h-.048c-.184.232-.384.42-.6.564-.208.144-.44.252-.696.324s-.532.108-.828.108zm.312-1.02c.336 0 .644-.06.924-.18.28-.128.504-.312.672-.552.168-.248.252-.552.252-.912v-.564l-1.104.024c-.456.016-.828.072-1.116.168-.28.096-.488.232-.624.408-.128.176-.192.388-.192.636 0 .344.108.592.324.744.224.152.512.228.864.228zm4.903.9v-.828l2.292-.228v-7.008l-2.112-.216v-.84h3.396v8.064l2.052.228v.828zm10.399.12c-.712 0-1.324-.128-1.836-.384-.504-.264-.892-.644-1.164-1.14s-.408-1.104-.408-1.824c0-.696.124-1.292.372-1.788.256-.504.612-.892 1.068-1.164s.996-.408 1.62-.408c.576 0 1.068.124 1.476.372.416.248.736.6.96 1.056.224.448.336.988.336 1.62v.6h-4.56c.016.488.12.88.312 1.176s.452.512.78.648c.328.128.704.192 1.128.192.336 0 .676-.044 1.02-.132.352-.096.704-.22 1.056-.372v1.092c-.36.16-.724.276-1.092.348s-.724.108-1.068.108zm1.2-4.02c-.008-.352-.076-.652-.204-.9-.12-.248-.292-.44-.516-.576s-.496-.204-.816-.204c-.488 0-.888.152-1.2.456-.312.296-.504.704-.576 1.224zm2.432 3.9v-6.468h.876l.168.744h.06c.104-.216.212-.384.324-.504.12-.128.252-.22.396-.276s.304-.084.48-.084c.336 0 .592.084.768.252.184.16.32.4.408.72h.048c.136-.312.304-.552.504-.72.208-.168.48-.252.816-.252s.596.088.78.264c.192.168.328.428.408.78.08.344.12.788.12 1.332v4.212h-1.128v-4.188c0-.28-.012-.516-.036-.708s-.076-.34-.156-.444c-.08-.112-.208-.168-.384-.168s-.324.076-.444.228c-.12.144-.212.364-.276.66-.056.288-.084.656-.084 1.104v3.516h-1.128v-4.188c0-.288-.02-.528-.06-.72-.032-.192-.092-.34-.18-.444s-.22-.156-.396-.156c-.192 0-.344.08-.456.24s-.192.388-.24.684c-.048.288-.072.644-.072 1.068v3.516zm9.535.12c-.648 0-1.16-.164-1.536-.492s-.564-.804-.564-1.428c0-.472.108-.86.324-1.164.224-.312.548-.544.972-.696.432-.16.952-.248 1.56-.264l1.404-.036v-.276c0-.496-.136-.84-.408-1.032-.264-.192-.632-.288-1.104-.288-.328 0-.648.04-.96.12s-.62.196-.924.348l-.42-.936c.32-.16.672-.292 1.056-.396.392-.112.828-.168 1.308-.168.84 0 1.488.184 1.944.552s.684.94.684 1.716v4.32h-.996l-.168-.876h-.048c-.184.232-.384.42-.6.564-.208.144-.44.252-.696.324s-.532.108-.828.108zm.312-1.02c.336 0 .644-.06.924-.18.28-.128.504-.312.672-.552.168-.248.252-.552.252-.912v-.564l-1.104.024c-.456.016-.828.072-1.116.168-.28.096-.488.232-.624.408-.128.176-.192.388-.192.636 0 .344.108.592.324.744.224.152.512.228.864.228zm4.687.9v-.828l1.884-.228v-4.356l-1.656-.168v-.888h2.652l.168 1.152h.06c.224-.408.476-.72.756-.936.288-.224.656-.336 1.104-.336.232 0 .452.02.66.06.216.04.416.104.6.192l-.336 1.14c-.128-.064-.28-.116-.456-.156-.168-.048-.348-.072-.54-.072-.352 0-.66.1-.924.3-.256.2-.456.468-.6.804-.136.336-.204.708-.204 1.116v2.148l1.824.228v.828zm7.628 0v-9.12h1.272v4.344c0 .16-.004.336-.012.528s-.02.388-.036.588c-.008.192-.02.38-.036.564h.024c.136-.192.272-.372.408-.54.144-.168.292-.34.443-.516l2.053-2.316h1.512l-2.508 2.76 2.664 3.708h-1.428l-2.064-2.94-1.02.936v2.004z" fill="#696966"/><path d="m288 11h52" stroke="#afaeaa" stroke-width="1.6"/><path d="m275 130h65" stroke="#afaeaa" stroke-width="1.6"/></svg>