<svg xmlns="http://www.w3.org/2000/svg" width="684" height="200" fill="none" viewBox="0 0 684 200"><path fill="#fff" d="M8 .5h284a7.5 7.5 0 0 1 7.5 7.5v184a7.5 7.5 0 0 1-7.5 7.5H8A7.5 7.5 0 0 1 .5 192V8A7.5 7.5 0 0 1 8 .5"/><path stroke="var(--colors-sd-system-color-component-outline)" d="M8 .5h284a7.5 7.5 0 0 1 7.5 7.5v184a7.5 7.5 0 0 1-7.5 7.5H8A7.5 7.5 0 0 1 .5 192V8A7.5 7.5 0 0 1 8 .5Z"/><path stroke="var(--colors-sd-system-color-chart-component-scalemark)" d="M25.45 30h249.1M25.45 50h249.1M25.45 70h249.1M25.45 90h249.1m-249.1 20h249.1m-249.1 20h249.1m-249.1 20h249.1m-249.1 20h249.1"/><path fill="var(--colors-sd-system-color-chart-mark-primary-06)" d="M356.658 12.698h2.044q-.061 1.005-.554 1.784-.485.78-1.36 1.217-.868.438-2.092.438-.957 0-1.716-.328a3.7 3.7 0 0 1-1.298-.957 4.3 4.3 0 0 1-.814-1.504q-.28-.882-.28-1.976v-.69q0-1.094.287-1.976a4.4 4.4 0 0 1 .834-1.51 3.7 3.7 0 0 1 1.306-.958 4.15 4.15 0 0 1 1.695-.335q1.244 0 2.099.451.86.452 1.333 1.245.478.793.574 1.804h-2.051q-.035-.6-.239-1.018a1.36 1.36 0 0 0-.622-.636q-.41-.219-1.094-.219-.512 0-.896.192a1.66 1.66 0 0 0-.642.58q-.26.39-.39.985a7 7 0 0 0-.123 1.381v.704q0 .773.116 1.36.116.582.356.985.246.396.629.601.39.2.936.199.643 0 1.06-.205.417-.206.636-.609.225-.404.266-1.005m5.189-7.198V16h-1.969V5.5zm-.281 6.542h-.54q.007-.773.205-1.422.2-.656.568-1.135.369-.485.882-.752a2.5 2.5 0 0 1 1.148-.266q.547 0 .991.157.452.15.773.492.328.335.506.882.177.547.177 1.326V16h-1.982v-4.69q0-.492-.144-.772a.8.8 0 0 0-.403-.403 1.5 1.5 0 0 0-.643-.123q-.424 0-.724.157a1.25 1.25 0 0 0-.472.437 2 2 0 0 0-.26.643q-.082.369-.082.793m10.2 2.29v-3.295q0-.356-.117-.608a.86.86 0 0 0-.362-.404q-.239-.143-.622-.143-.328 0-.567.116a.8.8 0 0 0-.369.321.9.9 0 0 0-.13.486h-1.969q0-.472.219-.896a2.2 2.2 0 0 1 .635-.745q.417-.328.992-.513.58-.184 1.298-.184.862 0 1.532.287a2.34 2.34 0 0 1 1.052.861q.39.575.39 1.436v3.165q0 .608.075.998.075.382.219.67V16h-1.989a2.8 2.8 0 0 1-.219-.752 6 6 0 0 1-.068-.916m.259-2.837.014 1.114h-1.101q-.389 0-.676.09-.288.088-.472.252a1 1 0 0 0-.273.37 1.3 1.3 0 0 0-.082.464q0 .253.116.458a.8.8 0 0 0 .335.315q.219.108.512.109a1.6 1.6 0 0 0 .773-.178q.328-.177.506-.437.185-.26.191-.492l.52.834q-.11.28-.301.58-.184.301-.472.568a2.4 2.4 0 0 1-.69.43q-.404.165-.957.165-.705 0-1.279-.28a2.33 2.33 0 0 1-.902-.787 2.06 2.06 0 0 1-.328-1.148q0-.582.219-1.032t.642-.76q.43-.314 1.074-.47.642-.165 1.49-.165zm5.209-1.278V16h-1.968V8.604h1.852zm2.229-1.661-.034 1.825a5 5 0 0 0-.349-.034 4 4 0 0 0-.362-.02q-.417 0-.725.108-.3.103-.506.308a1.3 1.3 0 0 0-.3.5 2.4 2.4 0 0 0-.11.67l-.396-.124q0-.718.143-1.32.144-.607.417-1.059.28-.45.684-.697.403-.246.923-.246.164 0 .335.027.17.02.28.062m4.894.048v1.394h-4.306V8.604zm-3.24-1.826h1.969v6.994q0 .321.082.492a.5.5 0 0 0 .26.239q.17.061.43.062.185 0 .329-.014.15-.021.252-.041l.007 1.449a4 4 0 0 1-.547.13 4 4 0 0 1-.649.048q-.65 0-1.135-.212a1.56 1.56 0 0 1-.738-.698q-.26-.479-.26-1.257zm11.87-.368q-.14 1.064-.364 2.268-.224 1.205-.602 2.436-.406 1.414-.952 2.436t-1.204 1.582q-.644.546-1.414.546t-1.428-.518q-.644-.532-1.036-1.456-.378-.924-.378-2.1 0-1.218.49-2.296a6.1 6.1 0 0 1 1.358-1.904 6.5 6.5 0 0 1 2.044-1.316 6.7 6.7 0 0 1 2.534-.476q1.302 0 2.338.42 1.05.42 1.792 1.162a5 5 0 0 1 1.134 1.736q.392.995.392 2.142 0 1.47-.602 2.632t-1.792 1.918q-1.176.757-2.94 1.036l-1.05-1.666a10 10 0 0 0 .714-.098q.307-.056.588-.126.672-.168 1.246-.476a4 4 0 0 0 1.022-.784q.434-.476.672-1.106a3.7 3.7 0 0 0 .252-1.386q0-.826-.252-1.512a3.3 3.3 0 0 0-.742-1.19 3.16 3.16 0 0 0-1.19-.784q-.7-.28-1.61-.28-1.12 0-1.974.406a4.5 4.5 0 0 0-1.442 1.022q-.588.63-.896 1.358a3.7 3.7 0 0 0-.294 1.386q0 .7.168 1.176.168.462.406.7.252.225.532.224.294 0 .574-.294.294-.308.574-.924t.56-1.554q.322-1.008.546-2.156t.322-2.24zm8.162 3.458h7.868v1.218h-6.16v6.174h-1.708zm7.434 0h1.736v5.698q0 .615-.182.938-.168.336-.602.504t-1.064.196q-.63.042-1.484.042a3.5 3.5 0 0 0-.196-.756 6 6 0 0 0-.322-.714q.336.015.714.028t.672.014h.406q.196-.015.252-.07.07-.056.07-.196zm-6.104 1.946h6.594v1.162h-6.594zm-2.702-6.65h4.27v1.288h-4.27zm-.336 2.66a81 81 0 0 0 2.072-.266q1.218-.168 2.478-.35l.07 1.218-2.296.42q-1.147.196-2.1.364zm3.038 5.922h6.608v1.162h-6.608zm.518-9.66h1.68V9.56h-1.68zm7.56.546 1.078 1.204q-.63.225-1.372.434-.728.21-1.47.378a58 58 0 0 1-1.442.308 3.3 3.3 0 0 0-.182-.574 4 4 0 0 0-.252-.574 95 95 0 0 0 1.302-.35q.672-.195 1.274-.406.602-.225 1.064-.42m-4.41-.532h1.708v3.43q0 .336.112.42t.504.084h1.554q.21 0 .322-.07.126-.084.168-.308a4.5 4.5 0 0 0 .084-.686q.266.181.7.336.434.154.784.238-.084.728-.294 1.148a1.2 1.2 0 0 1-.588.588q-.378.168-1.008.168h-1.96q-.84 0-1.302-.168a1.01 1.01 0 0 1-.616-.588q-.168-.434-.168-1.148zm10.472 3.024v.602h6.09v-.602zm0-1.554v.588h6.09V5.57zm-1.61-1.036h9.38v4.242h-9.38zm-1.54 4.802h12.404v1.302h-12.404zm3.486 2.912v.91h5.516v-.91zm-1.61-1.148h8.82v3.22h-8.82zm3.486-2.576h1.722v1.554h-1.722zm.07 5.124h1.68v2.17q0 .532-.154.812t-.56.42q-.42.14-.98.154-.546.028-1.288.028a4 4 0 0 0-.196-.658 6 6 0 0 0-.28-.63l.602.028h.574q.252-.014.336-.014.154-.014.21-.056t.056-.154zm2.296 1.596 1.12-.882q.574.196 1.246.504.672.294 1.288.616a9 9 0 0 1 1.05.588l-1.204.994a8 8 0 0 0-.966-.616q-.588-.323-1.26-.644a20 20 0 0 0-1.274-.56m-4.718-.896 1.54.616q-.476.405-1.106.812-.63.392-1.288.728t-1.274.574a11 11 0 0 0-.364-.378 10 10 0 0 0-.448-.448 2.6 2.6 0 0 0-.42-.35 14 14 0 0 0 1.246-.434q.63-.252 1.176-.532.56-.294.938-.588"/><rect width="16" height="16" x="350" y="36" fill="#fff" rx="8"/><path fill="var(--colors-sd-system-color-chart-component-on-chart-surface)" d="M373.42 49.12q-.852 0-1.5-.348-.636-.348-.996-1.08-.348-.744-.348-1.884 0-1.2.384-1.944t1.044-1.092q.66-.36 1.512-.36.504 0 .96.12.468.108.768.252l-.396 1.02q-.3-.12-.648-.216a2.5 2.5 0 0 0-.66-.096q-.552 0-.912.264-.348.252-.528.768-.18.504-.18 1.272 0 .732.18 1.236t.528.768q.36.252.864.252.492 0 .876-.12.396-.12.732-.312v1.104a2.6 2.6 0 0 1-.732.3q-.396.096-.948.096m4.378-6.804q0 .3-.024.6-.012.3-.036.492h.072q.192-.336.468-.552.288-.216.636-.324.36-.108.732-.108.708 0 1.2.252.504.24.756.768.264.516.264 1.344V49h-1.308v-4.032q0-.756-.288-1.128-.288-.384-.9-.384-.588 0-.936.264t-.492.78q-.144.504-.144 1.248V49h-1.296v-9.12h1.296zm8.3.096q1.14 0 1.716.54.588.528.588 1.668V49h-.924l-.252-.9h-.048a4 4 0 0 1-.552.576 1.7 1.7 0 0 1-.624.336q-.348.108-.864.108-.54 0-.972-.204a1.6 1.6 0 0 1-.684-.648q-.252-.444-.252-1.104 0-.984.696-1.5.708-.516 2.148-.564l1.032-.036v-.36q0-.72-.3-1.008-.288-.288-.816-.288-.444 0-.876.144a6.4 6.4 0 0 0-.84.348l-.396-.924q.444-.24 1.008-.396a4.3 4.3 0 0 1 1.212-.168m.228 3.504q-.984.048-1.368.372-.384.312-.384.888 0 .504.264.732.276.228.708.228.66 0 1.104-.42.456-.42.456-1.26v-.564zm6.947-3.504q.156 0 .348.024.192.012.324.036l-.132 1.188a2.5 2.5 0 0 0-.636-.084q-.324 0-.624.144-.3.132-.54.396-.24.252-.384.624a2.4 2.4 0 0 0-.144.852V49h-1.296v-6.468h1.02l.168 1.152h.072q.18-.348.444-.636a2.2 2.2 0 0 1 .624-.456q.348-.18.756-.18m4.06 5.676q.252 0 .492-.048t.42-.108v.96a2.2 2.2 0 0 1-.54.156 3 3 0 0 1-.684.072q-.504 0-.924-.18a1.4 1.4 0 0 1-.672-.624q-.252-.444-.252-1.236v-3.576h-.828v-.576l.888-.48.444-1.368h.804v1.452h1.716v.972h-1.716v3.552q0 .528.24.78t.612.252m6.95-1.404q0 .768-.348 1.308t-.996.84q-.648.288-1.584.288-.456 0-.876-.06a5 5 0 0 1-.756-.144 4 4 0 0 1-.636-.24v-1.224q.48.216 1.092.396.624.168 1.236.168.528 0 .864-.156.348-.156.516-.432.18-.276.18-.648 0-.396-.18-.66-.168-.276-.564-.504a6.3 6.3 0 0 0-1.032-.492 7 7 0 0 1-.828-.408 3 3 0 0 1-.648-.528 2.2 2.2 0 0 1-.408-.696 3 3 0 0 1-.132-.924q0-.708.336-1.212a2.1 2.1 0 0 1 .936-.768q.6-.276 1.404-.276.672 0 1.236.144.564.132 1.068.372l-.42 1.068a7 7 0 0 0-.948-.336 3.6 3.6 0 0 0-.972-.132q-.444 0-.744.144a1 1 0 0 0-.432.396 1.17 1.17 0 0 0-.144.588q0 .396.168.66t.54.492q.372.216.984.48a6.5 6.5 0 0 1 1.14.612q.468.312.708.768.24.444.24 1.116m6.738-4.152V49h-1.02l-.18-.852h-.072q-.18.336-.492.552-.3.216-.66.312-.36.108-.744.108-.708 0-1.2-.24a1.73 1.73 0 0 1-.744-.768q-.252-.528-.252-1.344v-4.236h1.308v4.044q0 .756.288 1.128t.9.372q.6 0 .936-.264.348-.264.492-.768.144-.516.144-1.236v-3.276zm4.905-.12q.156 0 .348.024.192.012.324.036l-.132 1.188a2.5 2.5 0 0 0-.636-.084q-.324 0-.624.144-.3.132-.54.396-.24.252-.384.624a2.4 2.4 0 0 0-.144.852V49h-1.296v-6.468h1.02l.168 1.152h.072q.18-.348.444-.636a2.2 2.2 0 0 1 .624-.456q.348-.18.756-.18m4.827 1.092h-1.476V49h-1.308v-5.496h-.996v-.6l.996-.396V42.1q0-.828.228-1.32.24-.504.696-.732t1.116-.228q.396 0 .732.072t.588.156l-.324.972q-.18-.06-.42-.108a1.8 1.8 0 0 0-.468-.06q-.432 0-.636.312t-.204.948v.42h1.476zm3.478-1.092q1.14 0 1.716.54.588.528.588 1.668V49h-.924l-.252-.9h-.048a4 4 0 0 1-.552.576 1.7 1.7 0 0 1-.624.336q-.348.108-.864.108-.54 0-.972-.204a1.6 1.6 0 0 1-.684-.648q-.252-.444-.252-1.104 0-.984.696-1.5.708-.516 2.148-.564l1.032-.036v-.36q0-.72-.3-1.008-.288-.288-.816-.288-.444 0-.876.144a6.4 6.4 0 0 0-.84.348l-.396-.924q.444-.24 1.008-.396a4.3 4.3 0 0 1 1.212-.168m.228 3.504q-.984.048-1.368.372-.384.312-.384.888 0 .504.264.732.276.228.708.228.66 0 1.104-.42.456-.42.456-1.26v-.564zm6.371 3.204q-.852 0-1.5-.348-.636-.348-.996-1.08-.348-.744-.348-1.884 0-1.2.384-1.944t1.044-1.092q.66-.36 1.512-.36.504 0 .96.12.468.108.768.252l-.396 1.02q-.3-.12-.648-.216a2.5 2.5 0 0 0-.66-.096q-.552 0-.912.264-.348.252-.528.768-.18.504-.18 1.272 0 .732.18 1.236t.528.768q.36.252.864.252.492 0 .876-.12.396-.12.732-.312v1.104a2.6 2.6 0 0 1-.732.3q-.396.096-.948.096m5.53-6.708q.804 0 1.392.36.588.348.9 1.008.324.66.324 1.56v.696h-4.068q.024.996.48 1.524t1.284.528q.588 0 1.044-.108.468-.12.948-.348v1.056a4.5 4.5 0 0 1-.936.324 5 5 0 0 1-1.14.108q-.876 0-1.56-.372a2.6 2.6 0 0 1-1.068-1.104q-.384-.744-.384-1.824 0-1.092.348-1.848t.972-1.152a2.65 2.65 0 0 1 1.464-.408m0 .984q-.612 0-.984.444t-.432 1.26h2.748q0-.504-.144-.888a1.26 1.26 0 0 0-.444-.6q-.288-.216-.744-.216"/><path fill="#fff" d="M350 64a4 4 0 0 1 4-4h325a4 4 0 0 1 4 4v16a4 4 0 0 1-4 4H354a4 4 0 0 1-4-4z"/><path fill="var(--colors-sd-system-color-chart-component-on-chart-surface)" d="M361.324 77.12q-.6 0-1.152-.108-.552-.096-.996-.288v-1.188q.444.204.996.372.552.156 1.248.156t1.008-.204.312-.612a.6.6 0 0 0-.132-.408q-.132-.156-.468-.312a16 16 0 0 0-.924-.396 16 16 0 0 1-1.032-.504 2 2 0 0 1-.684-.576q-.24-.336-.24-.864 0-.6.312-.996t.876-.588q.576-.192 1.344-.192.564 0 1.092.108t1.068.336l-.384.984a5 5 0 0 0-.936-.288 4.3 4.3 0 0 0-.852-.084q-.648 0-.96.168-.3.156-.3.516 0 .252.156.42t.492.324l.864.372q.612.24 1.056.468.456.228.696.576.24.336.24.924 0 .624-.312 1.044-.3.42-.9.636-.6.204-1.488.204m7.051 0q-.6 0-1.08-.216a2.24 2.24 0 0 1-.816-.66 3.2 3.2 0 0 1-.504-1.056 5.7 5.7 0 0 1-.168-1.452q0-1.044.288-1.788.3-.744.9-1.14t1.5-.396q.444 0 .78.12.348.108.6.324.252.204.42.504h.06a6 6 0 0 0-.036-.348 5 5 0 0 1-.048-.744V67.88h1.248V77h-1.008l-.192-.864h-.06q-.18.3-.456.528a2 2 0 0 1-.624.336q-.348.12-.804.12m.348-1.044q.804 0 1.188-.54.396-.552.396-1.524v-.228q0-.672-.144-1.2t-.48-.828-.924-.3q-.804 0-1.236.6-.42.588-.42 1.788 0 1.128.396 1.68t1.224.552m7.268 1.044a.88.88 0 0 1-.612-.216q-.24-.216-.24-.672 0-.48.24-.684a.9.9 0 0 1 .612-.204q.372 0 .6.216.24.204.24.672 0 .444-.24.672-.228.216-.6.216m6.919 0q-.6 0-1.152-.108-.552-.096-.996-.288v-1.188q.444.204.996.372.552.156 1.248.156t1.008-.204.312-.612a.6.6 0 0 0-.132-.408q-.132-.156-.468-.312a16 16 0 0 0-.924-.396 16 16 0 0 1-1.032-.504 2 2 0 0 1-.684-.576q-.24-.336-.24-.864 0-.6.312-.996t.876-.588q.576-.192 1.344-.192.564 0 1.092.108t1.068.336l-.384.984a5 5 0 0 0-.936-.288 4.3 4.3 0 0 0-.852-.084q-.648 0-.96.168-.3.156-.3.516 0 .252.156.42t.492.324l.864.372q.612.24 1.056.468.456.228.696.576.24.336.24.924 0 .624-.312 1.044-.3.42-.9.636-.6.204-1.488.204m5.491 2.82a3 3 0 0 1-.456-.036 5 5 0 0 1-.408-.06v-1.02q.144.024.336.048t.36.024q.372 0 .612-.132.252-.12.432-.372.192-.252.348-.648l.276-.72-2.664-6.492h1.296l1.452 3.78q.144.336.264.744.132.396.228.792h.036q.072-.276.144-.54.084-.264.156-.516l.156-.492 1.224-3.768h1.332l-2.652 7.164a6.5 6.5 0 0 1-.564 1.2 2.1 2.1 0 0 1-.756.768q-.456.276-1.152.276m8.9-2.82q-.6 0-1.152-.108-.552-.096-.996-.288v-1.188q.444.204.996.372.552.156 1.248.156t1.008-.204.312-.612a.6.6 0 0 0-.132-.408q-.132-.156-.468-.312a16 16 0 0 0-.924-.396 16 16 0 0 1-1.032-.504 2 2 0 0 1-.684-.576q-.24-.336-.24-.864 0-.6.312-.996t.876-.588q.576-.192 1.344-.192.564 0 1.092.108t1.068.336l-.384.984a5 5 0 0 0-.936-.288 4.3 4.3 0 0 0-.852-.084q-.648 0-.96.168-.3.156-.3.516 0 .252.156.42t.492.324l.864.372q.612.24 1.056.468.456.228.696.576.24.336.24.924 0 .624-.312 1.044-.3.42-.9.636-.6.204-1.488.204m8.659 0q-.732 0-1.284-.192a1.73 1.73 0 0 1-.864-.672q-.3-.48-.3-1.296v-3.372h-1.68v-.84l1.716-.24.24-1.668h.996v1.692h2.496v1.056h-2.496v3.168q0 .48.144.768a.87.87 0 0 0 .444.42q.3.132.732.132.312 0 .648-.06.348-.06.672-.12v1.008q-.336.096-.708.156t-.756.06m6.499 0q-1.068 0-1.836-.384a2.76 2.76 0 0 1-1.164-1.14q-.408-.744-.408-1.824 0-1.044.372-1.788a2.8 2.8 0 0 1 1.068-1.164q.684-.408 1.62-.408.864 0 1.476.372.624.372.96 1.056.336.672.336 1.62v.6h-4.56q.024.732.312 1.176t.78.648q.492.192 1.128.192.504 0 1.02-.132a8 8 0 0 0 1.056-.372v1.092a5 5 0 0 1-1.092.348 5.6 5.6 0 0 1-1.068.108m1.2-4.02q-.012-.528-.204-.9a1.34 1.34 0 0 0-.516-.576q-.336-.204-.816-.204-.732 0-1.2.456-.468.444-.576 1.224zm2.432 3.9v-6.468h.876l.168.744h.06q.156-.324.324-.504.18-.192.396-.276t.48-.084q.504 0 .768.252.276.24.408.72h.048q.204-.468.504-.72.312-.252.816-.252t.78.264q.288.252.408.78.12.516.12 1.332V77h-1.128v-4.188q0-.42-.036-.708t-.156-.444q-.12-.168-.384-.168a.55.55 0 0 0-.444.228q-.18.216-.276.66a6 6 0 0 0-.084 1.104V77h-1.128v-4.188q0-.432-.06-.72a.9.9 0 0 0-.18-.444q-.132-.156-.396-.156a.53.53 0 0 0-.456.24q-.168.24-.24.684a7 7 0 0 0-.072 1.068V77zm10.267.12a.88.88 0 0 1-.612-.216q-.24-.216-.24-.672 0-.48.24-.684a.9.9 0 0 1 .612-.204q.372 0 .6.216.24.204.24.672 0 .444-.24.672-.228.216-.6.216m7.651 0q-.984 0-1.68-.348a2.32 2.32 0 0 1-1.044-1.08q-.36-.732-.36-1.872 0-1.2.384-1.956a2.44 2.44 0 0 1 1.116-1.104q.72-.348 1.68-.348.54 0 1.032.108t.924.324l-.372 1.032a3.5 3.5 0 0 0-.78-.288 3.4 3.4 0 0 0-.744-.084q-.672 0-1.104.264-.432.252-.636.756t-.204 1.272q0 .792.216 1.284t.648.72 1.068.228q.48 0 .936-.108.468-.12.864-.312v1.128q-.408.192-.924.288a5.4 5.4 0 0 1-1.02.096m6.751 0q-.66 0-1.212-.216a2.7 2.7 0 0 1-.96-.636 3 3 0 0 1-.612-1.056q-.216-.624-.216-1.452 0-1.104.372-1.836a2.67 2.67 0 0 1 1.056-1.128q.672-.384 1.548-.384t1.548.384q.684.372 1.068 1.116t.384 1.86q0 .816-.216 1.44a3 3 0 0 1-.612 1.056q-.384.42-.936.636-.54.216-1.212.216m0-1.032q.564 0 .936-.276.384-.288.564-.816.192-.528.192-1.236 0-.72-.192-1.236-.18-.516-.564-.792-.372-.288-.948-.288-.864 0-1.296.624-.42.612-.42 1.692 0 .708.192 1.236t.576.816q.384.276.96.276m4.472.912v-.828l2.292-.228v-7.008l-2.112-.216v-.84h3.396v8.064l2.052.228V77zm9.919.12q-.66 0-1.212-.216a2.7 2.7 0 0 1-.96-.636 3 3 0 0 1-.612-1.056q-.216-.624-.216-1.452 0-1.104.372-1.836a2.67 2.67 0 0 1 1.056-1.128q.672-.384 1.548-.384t1.548.384q.684.372 1.068 1.116t.384 1.86q0 .816-.216 1.44a3 3 0 0 1-.612 1.056q-.384.42-.936.636-.54.216-1.212.216m0-1.032q.564 0 .936-.276.384-.288.564-.816.192-.528.192-1.236 0-.72-.192-1.236-.18-.516-.564-.792-.372-.288-.948-.288-.864 0-1.296.624-.42.612-.42 1.692 0 .708.192 1.236t.576.816q.384.276.96.276m4.255.912v-.828l1.884-.228v-4.356l-1.656-.168v-.888h2.652l.168 1.152h.06q.336-.612.756-.936.432-.336 1.104-.336.348 0 .66.06.324.06.6.192l-.336 1.14a2 2 0 0 0-.456-.156 2 2 0 0 0-.54-.072q-.528 0-.924.3a2 2 0 0 0-.6.804 3 3 0 0 0-.204 1.116v2.148l1.824.228V77zm10.124.12a.88.88 0 0 1-.612-.216q-.24-.216-.24-.672 0-.48.24-.684a.9.9 0 0 1 .612-.204q.372 0 .6.216.24.204.24.672 0 .444-.24.672-.228.216-.6.216m7.651 0q-.984 0-1.68-.348a2.32 2.32 0 0 1-1.044-1.08q-.36-.732-.36-1.872 0-1.2.384-1.956a2.44 2.44 0 0 1 1.116-1.104q.72-.348 1.68-.348.54 0 1.032.108t.924.324l-.372 1.032a3.5 3.5 0 0 0-.78-.288 3.4 3.4 0 0 0-.744-.084q-.672 0-1.104.264-.432.252-.636.756t-.204 1.272q0 .792.216 1.284t.648.72 1.068.228q.48 0 .936-.108.468-.12.864-.312v1.128q-.408.192-.924.288a5.4 5.4 0 0 1-1.02.096m4.015-.12v-9.12h1.272v2.376q0 .276-.024.636-.012.36-.024.612h.072q.204-.372.492-.612t.66-.36q.384-.12.816-.12 1.032 0 1.632.576.612.576.612 1.788V77h-1.272v-3.936q0-.852-.348-1.224-.348-.384-.984-.384-.504 0-.876.264-.372.252-.564.768-.192.504-.192 1.248V77zm9.188.12q-.972 0-1.536-.492t-.564-1.428q0-.708.324-1.164.336-.468.972-.696.648-.24 1.56-.264l1.404-.036v-.276q0-.744-.408-1.032-.396-.288-1.104-.288-.492 0-.96.12t-.924.348l-.42-.936a5.7 5.7 0 0 1 1.056-.396 4.8 4.8 0 0 1 1.308-.168q1.26 0 1.944.552t.684 1.716V77h-.996l-.168-.876h-.048a2.6 2.6 0 0 1-.6.564q-.312.216-.696.324a3 3 0 0 1-.828.108m.312-1.02q.504 0 .924-.18.42-.192.672-.552.252-.372.252-.912v-.564l-1.104.024q-.684.024-1.116.168-.42.144-.624.408a1.05 1.05 0 0 0-.192.636q0 .516.324.744.336.228.864.228m4.687.9v-.828l1.884-.228v-4.356l-1.656-.168v-.888h2.652l.168 1.152h.06q.336-.612.756-.936.432-.336 1.104-.336.348 0 .66.06.324.06.6.192l-.336 1.14a2 2 0 0 0-.456-.156 2 2 0 0 0-.54-.072q-.528 0-.924.3a2 2 0 0 0-.6.804 3 3 0 0 0-.204 1.116v2.148l1.824.228V77zm11.311.12q-.732 0-1.284-.192a1.73 1.73 0 0 1-.864-.672q-.3-.48-.3-1.296v-3.372h-1.68v-.84l1.716-.24.24-1.668h.996v1.692h2.496v1.056h-2.496v3.168q0 .48.144.768a.87.87 0 0 0 .444.42q.3.132.732.132.312 0 .648-.06.348-.06.672-.12v1.008q-.336.096-.708.156t-.756.06m6.008 0a.88.88 0 0 1-.612-.216q-.24-.216-.24-.672 0-.48.24-.684a.9.9 0 0 1 .612-.204q.372 0 .6.216.24.204.24.672 0 .444-.24.672-.228.216-.6.216m7.651 0q-.984 0-1.68-.348a2.32 2.32 0 0 1-1.044-1.08q-.36-.732-.36-1.872 0-1.2.384-1.956a2.44 2.44 0 0 1 1.116-1.104q.72-.348 1.68-.348.54 0 1.032.108t.924.324l-.372 1.032a3.5 3.5 0 0 0-.78-.288 3.4 3.4 0 0 0-.744-.084q-.672 0-1.104.264-.432.252-.636.756t-.204 1.272q0 .792.216 1.284t.648.72 1.068.228q.48 0 .936-.108.468-.12.864-.312v1.128q-.408.192-.924.288a5.4 5.4 0 0 1-1.02.096m6.751 0q-.66 0-1.212-.216a2.7 2.7 0 0 1-.96-.636 3 3 0 0 1-.612-1.056q-.216-.624-.216-1.452 0-1.104.372-1.836a2.67 2.67 0 0 1 1.056-1.128q.672-.384 1.548-.384t1.548.384q.684.372 1.068 1.116t.384 1.86q0 .816-.216 1.44a3 3 0 0 1-.612 1.056q-.384.42-.936.636-.54.216-1.212.216m0-1.032q.564 0 .936-.276.384-.288.564-.816.192-.528.192-1.236 0-.72-.192-1.236-.18-.516-.564-.792-.372-.288-.948-.288-.864 0-1.296.624-.42.612-.42 1.692 0 .708.192 1.236t.576.816q.384.276.96.276m4.112.912v-6.468h.876l.168.744h.06q.156-.324.324-.504.18-.192.396-.276t.48-.084q.504 0 .768.252.276.24.408.72h.048q.204-.468.504-.72.312-.252.816-.252t.78.264q.288.252.408.78.12.516.12 1.332V77h-1.128v-4.188q0-.42-.036-.708t-.156-.444q-.12-.168-.384-.168a.55.55 0 0 0-.444.228q-.18.216-.276.66a6 6 0 0 0-.084 1.104V77h-1.128v-4.188q0-.432-.06-.72a.9.9 0 0 0-.18-.444q-.132-.156-.396-.156a.53.53 0 0 0-.456.24q-.168.24-.24.684a7 7 0 0 0-.072 1.068V77zm7.543 2.88v-9.348h1.008l.18.864h.06q.204-.312.48-.528.276-.228.636-.336.36-.12.816-.12.6 0 1.068.228a2 2 0 0 1 .804.66q.324.432.492 1.056.168.612.168 1.404 0 1.08-.312 1.836t-.888 1.14-1.356.384q-.432 0-.792-.12a2.3 2.3 0 0 1-.636-.324 3 3 0 0 1-.48-.468h-.072q.048.276.06.528.012.24.012.42v2.724zm2.832-3.804q.828 0 1.2-.576t.372-1.764q0-1.152-.372-1.716-.36-.564-1.212-.564-.792 0-1.188.54-.384.528-.384 1.524v.228q0 1.104.36 1.716t1.224.612m7.099 1.044q-.66 0-1.212-.216a2.7 2.7 0 0 1-.96-.636 3 3 0 0 1-.612-1.056q-.216-.624-.216-1.452 0-1.104.372-1.836a2.67 2.67 0 0 1 1.056-1.128q.672-.384 1.548-.384t1.548.384q.684.372 1.068 1.116t.384 1.86q0 .816-.216 1.44a3 3 0 0 1-.612 1.056q-.384.42-.936.636-.54.216-1.212.216m0-1.032q.564 0 .936-.276.384-.288.564-.816.192-.528.192-1.236 0-.72-.192-1.236-.18-.516-.564-.792-.372-.288-.948-.288-.864 0-1.296.624-.42.612-.42 1.692 0 .708.192 1.236t.576.816q.384.276.96.276m4.459.912v-6.468h.996l.192.912h.072q.192-.348.492-.576t.696-.336q.408-.12.876-.12 1.008 0 1.596.576.588.564.588 1.728V77h-1.272v-4.02q0-.792-.324-1.152-.312-.372-.984-.372-.9 0-1.284.612-.372.612-.372 1.692V77zm10.412.12q-1.068 0-1.836-.384a2.76 2.76 0 0 1-1.164-1.14q-.408-.744-.408-1.824 0-1.044.372-1.788a2.8 2.8 0 0 1 1.068-1.164q.684-.408 1.62-.408.864 0 1.476.372.624.372.96 1.056.336.672.336 1.62v.6h-4.56q.024.732.312 1.176t.78.648q.492.192 1.128.192.504 0 1.02-.132a8 8 0 0 0 1.056-.372v1.092a5 5 0 0 1-1.092.348 5.6 5.6 0 0 1-1.068.108m1.2-4.02q-.012-.528-.204-.9a1.34 1.34 0 0 0-.516-.576q-.336-.204-.816-.204-.732 0-1.2.456-.468.444-.576 1.224zm2.779 3.9v-6.468h.996l.192.912h.072q.192-.348.492-.576t.696-.336q.408-.12.876-.12 1.008 0 1.596.576.588.564.588 1.728V77h-1.272v-4.02q0-.792-.324-1.152-.312-.372-.984-.372-.9 0-1.284.612-.372.612-.372 1.692V77zm11.107.12q-.732 0-1.284-.192a1.73 1.73 0 0 1-.864-.672q-.3-.48-.3-1.296v-3.372h-1.68v-.84l1.716-.24.24-1.668h.996v1.692h2.496v1.056h-2.496v3.168q0 .48.144.768a.87.87 0 0 0 .444.42q.3.132.732.132.312 0 .648-.06.348-.06.672-.12v1.008q-.336.096-.708.156t-.756.06m6.008 0a.88.88 0 0 1-.612-.216q-.24-.216-.24-.672 0-.48.24-.684a.9.9 0 0 1 .612-.204q.372 0 .6.216.24.204.24.672 0 .444-.24.672-.228.216-.6.216m7.651 0q-.984 0-1.68-.348a2.32 2.32 0 0 1-1.044-1.08q-.36-.732-.36-1.872 0-1.2.384-1.956a2.44 2.44 0 0 1 1.116-1.104q.72-.348 1.68-.348.54 0 1.032.108t.924.324l-.372 1.032a3.5 3.5 0 0 0-.78-.288 3.4 3.4 0 0 0-.744-.084q-.672 0-1.104.264-.432.252-.636.756t-.204 1.272q0 .792.216 1.284t.648.72 1.068.228q.48 0 .936-.108.468-.12.864-.312v1.128q-.408.192-.924.288a5.4 5.4 0 0 1-1.02.096m4.015-.12v-9.12h1.272v2.376q0 .276-.024.636-.012.36-.024.612h.072q.204-.372.492-.612t.66-.36q.384-.12.816-.12 1.032 0 1.632.576.612.576.612 1.788V77h-1.272v-3.936q0-.852-.348-1.224-.348-.384-.984-.384-.504 0-.876.264-.372.252-.564.768-.192.504-.192 1.248V77zm9.188.12q-.972 0-1.536-.492t-.564-1.428q0-.708.324-1.164.336-.468.972-.696.648-.24 1.56-.264l1.404-.036v-.276q0-.744-.408-1.032-.396-.288-1.104-.288-.492 0-.96.12t-.924.348l-.42-.936a5.7 5.7 0 0 1 1.056-.396 4.8 4.8 0 0 1 1.308-.168q1.26 0 1.944.552t.684 1.716V77h-.996l-.168-.876h-.048a2.6 2.6 0 0 1-.6.564q-.312.216-.696.324a3 3 0 0 1-.828.108m.312-1.02q.504 0 .924-.18.42-.192.672-.552.252-.372.252-.912v-.564l-1.104.024q-.684.024-1.116.168-.42.144-.624.408a1.05 1.05 0 0 0-.192.636q0 .516.324.744.336.228.864.228m4.687.9v-.828l1.884-.228v-4.356l-1.656-.168v-.888h2.652l.168 1.152h.06q.336-.612.756-.936.432-.336 1.104-.336.348 0 .66.06.324.06.6.192l-.336 1.14a2 2 0 0 0-.456-.156 2 2 0 0 0-.54-.072q-.528 0-.924.3a2 2 0 0 0-.6.804 3 3 0 0 0-.204 1.116v2.148l1.824.228V77zm11.311.12q-.732 0-1.284-.192a1.73 1.73 0 0 1-.864-.672q-.3-.48-.3-1.296v-3.372h-1.68v-.84l1.716-.24.24-1.668h.996v1.692h2.496v1.056h-2.496v3.168q0 .48.144.768a.87.87 0 0 0 .444.42q.3.132.732.132.312 0 .648-.06.348-.06.672-.12v1.008q-.336.096-.708.156t-.756.06m5.756 0a7 7 0 0 1-1.308-.12 4.4 4.4 0 0 1-1.068-.348v-1.164q.504.228 1.14.396.636.156 1.272.156.552 0 .936-.144t.576-.444q.204-.3.204-.756 0-.396-.18-.624-.18-.24-.6-.456a23 23 0 0 0-1.116-.54 9 9 0 0 1-.996-.54 2.6 2.6 0 0 1-.768-.756q-.288-.468-.288-1.188 0-.756.336-1.26t.948-.756q.624-.264 1.476-.264.6 0 1.212.132t1.116.372l-.408 1.032a5 5 0 0 0-.96-.312 4 4 0 0 0-.948-.12q-.444 0-.78.132-.336.12-.516.384-.168.264-.168.696 0 .408.168.66.168.24.54.432t.948.456q.684.312 1.2.612t.804.732.288 1.164q0 .588-.204 1.044a2 2 0 0 1-.6.756 2.7 2.7 0 0 1-.948.48 5 5 0 0 1-1.308.156m6.883 0q-1.116 0-1.668-.576-.552-.588-.552-1.728v-4.284h1.272v4.032q0 .732.288 1.128.288.384 1.02.384.648 0 1.008-.276t.504-.792.144-1.236v-3.24h1.272V77h-.996l-.192-.852h-.072a2 2 0 0 1-.516.552 2 2 0 0 1-.684.312 3 3 0 0 1-.828.108m4.831-.12v-.828l1.884-.228v-4.356l-1.656-.168v-.888h2.652l.168 1.152h.06q.336-.612.756-.936.432-.336 1.104-.336.348 0 .66.06.324.06.6.192l-.336 1.14a2 2 0 0 0-.456-.156 2 2 0 0 0-.54-.072q-.528 0-.924.3a2 2 0 0 0-.6.804 3 3 0 0 0-.204 1.116v2.148l1.824.228V77zm9.32 0v-5.412h-1.992v-.84l1.992-.216v-.636q0-.768.287-1.224.29-.456.817-.648.54-.204 1.284-.204.504 0 .924.072.432.072.768.18l-.3.984a5 5 0 0 0-.612-.12 3.6 3.6 0 0 0-.636-.06q-.612 0-.936.264-.324.252-.324.912v.48h2.328v1.056h-2.328V77zm7.267.12q-.972 0-1.536-.492t-.564-1.428q0-.708.324-1.164.336-.468.972-.696.648-.24 1.56-.264l1.404-.036v-.276q0-.744-.408-1.032-.396-.288-1.104-.288-.492 0-.96.12t-.924.348l-.42-.936a5.7 5.7 0 0 1 1.056-.396 4.8 4.8 0 0 1 1.308-.168q1.26 0 1.944.552t.684 1.716V77h-.996l-.168-.876H658a2.6 2.6 0 0 1-.6.564q-.312.216-.696.324a3 3 0 0 1-.828.108m.312-1.02q.504 0 .924-.18.42-.192.672-.552.252-.372.252-.912v-.564l-1.104.024q-.684.024-1.116.168-.42.144-.624.408a1.05 1.05 0 0 0-.192.636q0 .516.324.744.336.228.864.228m8.071 1.02q-.984 0-1.68-.348a2.32 2.32 0 0 1-1.044-1.08q-.36-.732-.36-1.872 0-1.2.384-1.956a2.44 2.44 0 0 1 1.116-1.104q.72-.348 1.68-.348.54 0 1.032.108t.924.324l-.372 1.032a3.5 3.5 0 0 0-.78-.288 3.4 3.4 0 0 0-.744-.084q-.672 0-1.104.264-.432.252-.636.756t-.204 1.272q0 .792.216 1.284t.648.72 1.068.228q.48 0 .936-.108.468-.12.864-.312v1.128q-.408.192-.924.288a5.4 5.4 0 0 1-1.02.096m7.231 0q-1.068 0-1.836-.384a2.76 2.76 0 0 1-1.164-1.14q-.408-.744-.408-1.824 0-1.044.372-1.788a2.8 2.8 0 0 1 1.068-1.164q.684-.408 1.62-.408.864 0 1.476.372.624.372.96 1.056.336.672.336 1.62v.6h-4.56q.024.732.312 1.176t.78.648q.492.192 1.128.192.504 0 1.02-.132a8 8 0 0 0 1.056-.372v1.092a5 5 0 0 1-1.092.348 5.6 5.6 0 0 1-1.068.108m1.2-4.02q-.012-.528-.204-.9a1.34 1.34 0 0 0-.516-.576q-.336-.204-.816-.204-.732 0-1.2.456-.468.444-.576 1.224z"/><path fill="var(--colors-sd-system-color-chart-mark-primary-06)" d="M353.178 124.104h7.602v1.596h-7.602zm0 3.248h7.602v1.596h-7.602zm0 3.234h7.602v1.638h-7.602zm-1.204-9.716h9.982v12.236h-1.792v-10.598h-6.496v10.598h-1.694zm12.642 10.612h12.782v1.498h-12.782zm1.806-9.954h10.724v1.456h-10.724zm-.364 2.394h3.486v1.302h-3.486zm.238 4.424h9.548v4.018h-1.652v-2.716h-1.106v2.716h-1.526v-2.716h-1.092v2.716h-1.526v-2.716h-1.078v2.716h-1.568zm-.658-6.818h1.68v1.554q0 .602-.056 1.33t-.224 1.484a7.3 7.3 0 0 1-.462 1.442 5.7 5.7 0 0 1-.756 1.274 2 2 0 0 0-.406-.35 7 7 0 0 0-.546-.392 3 3 0 0 0-.462-.266q.56-.686.812-1.484a7.2 7.2 0 0 0 .336-1.61 14 14 0 0 0 .084-1.442zm3.416 2.394h1.54v.182q0 .182-.014.308a31 31 0 0 1-.098 1.442q-.042.574-.126.91-.084.322-.238.49a.9.9 0 0 1-.378.308 2 2 0 0 1-.49.112 9 9 0 0 1-.644.042 8 8 0 0 1-.826-.014 2.5 2.5 0 0 0-.126-.644 2.8 2.8 0 0 0-.238-.602q.336.028.602.042t.406.014q.126 0 .21-.014a.27.27 0 0 0 .154-.112q.112-.126.168-.63t.098-1.652zm1.694-3.808h1.68q.056 1.288.35 2.464.308 1.176.756 2.086.462.91.994 1.442.546.518 1.064.518.265 0 .378-.322.126-.336.182-1.148.266.238.63.434.378.196.686.308-.112.952-.35 1.456-.239.504-.63.686-.378.168-.98.168-.966 0-1.792-.644t-1.47-1.764a11.4 11.4 0 0 1-1.022-2.59q-.392-1.47-.476-3.094m4.046 3.038 1.526.448a9.6 9.6 0 0 1-1.358 1.89 11.6 11.6 0 0 1-1.764 1.54q-.952.672-1.974 1.162a3 3 0 0 0-.294-.406 9 9 0 0 0-.392-.476 3.5 3.5 0 0 0-.378-.378 10.5 10.5 0 0 0 2.73-1.54q1.246-.98 1.904-2.24m-1.666-2.478 1.148-.658q.406.239.84.588.434.35.7.63l-1.19.756a7 7 0 0 0-.686-.672 8 8 0 0 0-.812-.644m9.926.084a12 12 0 0 0-.154.63q-.084.378-.168.798-.084.407-.154.798-.055.392-.084.686.252-.42.602-.812.35-.406.784-.728a4 4 0 0 1 .966-.532 3.2 3.2 0 0 1 1.12-.196q.98 0 1.764.602t1.232 1.722q.462 1.12.462 2.66 0 1.483-.434 2.604a5.3 5.3 0 0 1-1.246 1.89 6.5 6.5 0 0 1-1.946 1.274q-1.12.504-2.506.756l-1.064-1.624a14 14 0 0 0 2.128-.49q.98-.322 1.68-.868.714-.546 1.092-1.4.392-.868.392-2.128 0-1.078-.224-1.82-.224-.756-.658-1.148a1.43 1.43 0 0 0-1.008-.392q-.616 0-1.176.406a4.3 4.3 0 0 0-1.008 1.064 6 6 0 0 0-.7 1.4 5.3 5.3 0 0 0-.28 1.456q-.014.294-.014.644.013.35.084.84l-1.722.112a55 55 0 0 1-.126-1.008 15 15 0 0 1-.056-1.33q0-.49.028-1.05l.084-1.134q.055-.588.126-1.176.084-.588.154-1.12.056-.406.084-.798a9 9 0 0 0 .028-.672z"/><rect width="16" height="16" x="350" y="152" fill="var(--colors-sd-system-color-chart-component-scalemark)" rx="8"/><path fill="var(--colors-sd-system-color-chart-component-on-chart-surface)" d="M375.028 163.176q0 .636-.288 1.068t-.84.66q-.552.216-1.356.216-.636 0-1.116-.108-.468-.096-.864-.288v-1.116q.42.204.96.372.54.156 1.032.156.636 0 .924-.228a.74.74 0 0 0 .288-.612.64.64 0 0 0-.12-.384q-.108-.18-.42-.36a6.4 6.4 0 0 0-.9-.432 8 8 0 0 1-.972-.492 2 2 0 0 1-.6-.588q-.204-.348-.204-.888 0-.84.648-1.284.648-.456 1.692-.456.576 0 1.068.12.492.108.96.336l-.396.972a4 4 0 0 0-.564-.216 5 5 0 0 0-.552-.156 2.6 2.6 0 0 0-.552-.06q-.516 0-.78.18a.58.58 0 0 0-.264.504q0 .24.12.408.132.168.444.336.324.168.888.396t.96.468.6.588.204.888m3.9 1.944q-.852 0-1.5-.348-.636-.348-.996-1.08-.348-.744-.348-1.884 0-1.2.384-1.944t1.044-1.092q.66-.36 1.512-.36.504 0 .96.12.468.108.768.252l-.396 1.02q-.3-.12-.648-.216a2.5 2.5 0 0 0-.66-.096q-.552 0-.912.264-.348.252-.528.768-.18.504-.18 1.272 0 .732.18 1.236t.528.768q.36.252.864.252.492 0 .876-.12.396-.12.732-.312v1.104a2.6 2.6 0 0 1-.732.3q-.396.096-.948.096m5.53-6.708q1.14 0 1.716.54.588.528.588 1.668V165h-.924l-.252-.9h-.048a4 4 0 0 1-.552.576 1.7 1.7 0 0 1-.624.336q-.348.108-.864.108-.54 0-.972-.204a1.6 1.6 0 0 1-.684-.648q-.252-.444-.252-1.104 0-.984.696-1.5.708-.516 2.148-.564l1.032-.036v-.36q0-.72-.3-1.008-.288-.288-.816-.288-.444 0-.876.144a6.4 6.4 0 0 0-.84.348l-.396-.924q.444-.24 1.008-.396a4.3 4.3 0 0 1 1.212-.168m.228 3.504q-.984.048-1.368.372-.384.312-.384.888 0 .504.264.732.276.228.708.228.66 0 1.104-.42.456-.42.456-1.26v-.564zm5.159 3.084h-1.296v-9.12h1.296zm4.269-6.588q.804 0 1.392.36.588.348.9 1.008.324.66.324 1.56v.696h-4.068q.024.996.48 1.524t1.284.528q.588 0 1.044-.108.468-.12.948-.348v1.056a4.5 4.5 0 0 1-.936.324 5 5 0 0 1-1.14.108q-.876 0-1.56-.372a2.6 2.6 0 0 1-1.068-1.104q-.384-.744-.384-1.824 0-1.092.348-1.848t.972-1.152a2.65 2.65 0 0 1 1.464-.408m0 .984q-.612 0-.984.444t-.432 1.26h2.748q0-.504-.144-.888a1.26 1.26 0 0 0-.444-.6q-.288-.216-.744-.216m10.968-.984q1.032 0 1.548.564.528.564.528 1.812V165h-1.296v-4.044q0-.744-.276-1.116-.264-.384-.828-.384-.78 0-1.116.54-.324.528-.324 1.536V165h-1.308v-4.044q0-.492-.12-.828t-.36-.504-.624-.168q-.54 0-.852.264t-.444.78q-.132.504-.132 1.236V165h-1.296v-6.468h1.02l.192.864h.06q.192-.336.456-.552.276-.216.624-.324t.72-.108q.684 0 1.152.264.468.252.696.78h.084q.288-.54.804-.792a2.46 2.46 0 0 1 1.092-.252m6.305 0q1.14 0 1.716.54.588.528.588 1.668V165h-.924l-.252-.9h-.048a4 4 0 0 1-.552.576 1.7 1.7 0 0 1-.624.336q-.348.108-.864.108-.54 0-.972-.204a1.6 1.6 0 0 1-.684-.648q-.252-.444-.252-1.104 0-.984.696-1.5.708-.516 2.148-.564l1.032-.036v-.36q0-.72-.3-1.008-.288-.288-.816-.288-.444 0-.876.144a6.4 6.4 0 0 0-.84.348l-.396-.924q.444-.24 1.008-.396a4.3 4.3 0 0 1 1.212-.168m.228 3.504q-.984.048-1.368.372-.384.312-.384.888 0 .504.264.732.276.228.708.228.66 0 1.104-.42.456-.42.456-1.26v-.564zm6.947-3.504q.156 0 .348.024.192.012.324.036l-.132 1.188a2.5 2.5 0 0 0-.636-.084q-.324 0-.624.144-.3.132-.54.396-.24.252-.384.624a2.4 2.4 0 0 0-.144.852V165h-1.296v-6.468h1.02l.168 1.152h.072q.18-.348.444-.636a2.2 2.2 0 0 1 .624-.456q.348-.18.756-.18m3.064 2.028q0 .252-.024.576t-.048.6h.048a5 5 0 0 1 .192-.288l.264-.36a7 7 0 0 1 .264-.312l1.812-2.124h1.488l-2.412 2.772 2.568 3.696h-1.536l-1.92-2.892-.696.624V165h-1.296v-9.12h1.296z"/><path fill="#fff" d="M350 180a4 4 0 0 1 4-4h304a4 4 0 0 1 4 4v16a4 4 0 0 1-4 4H354a4 4 0 0 1-4-4z"/><path fill="var(--colors-sd-system-color-chart-component-on-chart-surface)" d="M361.324 193.12q-.6 0-1.152-.108-.552-.096-.996-.288v-1.188q.444.204.996.372.552.156 1.248.156t1.008-.204.312-.612a.6.6 0 0 0-.132-.408q-.132-.156-.468-.312a16 16 0 0 0-.924-.396 16 16 0 0 1-1.032-.504 2 2 0 0 1-.684-.576q-.24-.336-.24-.864 0-.6.312-.996t.876-.588q.576-.192 1.344-.192.564 0 1.092.108t1.068.336l-.384.984a5 5 0 0 0-.936-.288 4.3 4.3 0 0 0-.852-.084q-.648 0-.96.168-.3.156-.3.516 0 .252.156.42t.492.324l.864.372q.612.24 1.056.468.456.228.696.576.24.336.24.924 0 .624-.312 1.044-.3.42-.9.636-.6.204-1.488.204m7.051 0q-.6 0-1.08-.216a2.24 2.24 0 0 1-.816-.66 3.2 3.2 0 0 1-.504-1.056 5.7 5.7 0 0 1-.168-1.452q0-1.044.288-1.788.3-.744.9-1.14t1.5-.396q.444 0 .78.12.348.108.6.324.252.204.42.504h.06a6 6 0 0 0-.036-.348 5 5 0 0 1-.048-.744v-2.388h1.248V193h-1.008l-.192-.864h-.06q-.18.3-.456.528a2 2 0 0 1-.624.336q-.348.12-.804.12m.348-1.044q.804 0 1.188-.54.396-.552.396-1.524v-.228q0-.672-.144-1.2t-.48-.828-.924-.3q-.804 0-1.236.6-.42.588-.42 1.788 0 1.128.396 1.68t1.224.552m7.268 1.044a.88.88 0 0 1-.612-.216q-.24-.216-.24-.672 0-.48.24-.684a.9.9 0 0 1 .612-.204q.372 0 .6.216.24.204.24.672 0 .444-.24.672-.228.216-.6.216m6.919 0q-.6 0-1.152-.108-.552-.096-.996-.288v-1.188q.444.204.996.372.552.156 1.248.156t1.008-.204.312-.612a.6.6 0 0 0-.132-.408q-.132-.156-.468-.312a16 16 0 0 0-.924-.396 16 16 0 0 1-1.032-.504 2 2 0 0 1-.684-.576q-.24-.336-.24-.864 0-.6.312-.996t.876-.588q.576-.192 1.344-.192.564 0 1.092.108t1.068.336l-.384.984a5 5 0 0 0-.936-.288 4.3 4.3 0 0 0-.852-.084q-.648 0-.96.168-.3.156-.3.516 0 .252.156.42t.492.324l.864.372q.612.24 1.056.468.456.228.696.576.24.336.24.924 0 .624-.312 1.044-.3.42-.9.636-.6.204-1.488.204m5.491 2.82a3 3 0 0 1-.456-.036 5 5 0 0 1-.408-.06v-1.02q.144.024.336.048t.36.024q.372 0 .612-.132.252-.12.432-.372.192-.252.348-.648l.276-.72-2.664-6.492h1.296l1.452 3.78q.144.336.264.744.132.396.228.792h.036q.072-.276.144-.54.084-.264.156-.516l.156-.492 1.224-3.768h1.332l-2.652 7.164a6.5 6.5 0 0 1-.564 1.2 2.1 2.1 0 0 1-.756.768q-.456.276-1.152.276m8.9-2.82q-.6 0-1.152-.108-.552-.096-.996-.288v-1.188q.444.204.996.372.552.156 1.248.156t1.008-.204.312-.612a.6.6 0 0 0-.132-.408q-.132-.156-.468-.312a16 16 0 0 0-.924-.396 16 16 0 0 1-1.032-.504 2 2 0 0 1-.684-.576q-.24-.336-.24-.864 0-.6.312-.996t.876-.588q.576-.192 1.344-.192.564 0 1.092.108t1.068.336l-.384.984a5 5 0 0 0-.936-.288 4.3 4.3 0 0 0-.852-.084q-.648 0-.96.168-.3.156-.3.516 0 .252.156.42t.492.324l.864.372q.612.24 1.056.468.456.228.696.576.24.336.24.924 0 .624-.312 1.044-.3.42-.9.636-.6.204-1.488.204m8.659 0q-.732 0-1.284-.192a1.73 1.73 0 0 1-.864-.672q-.3-.48-.3-1.296v-3.372h-1.68v-.84l1.716-.24.24-1.668h.996v1.692h2.496v1.056h-2.496v3.168q0 .48.144.768a.87.87 0 0 0 .444.42q.3.132.732.132.312 0 .648-.06.348-.06.672-.12v1.008q-.336.096-.708.156t-.756.06m6.499 0q-1.068 0-1.836-.384a2.76 2.76 0 0 1-1.164-1.14q-.408-.744-.408-1.824 0-1.044.372-1.788a2.8 2.8 0 0 1 1.068-1.164q.684-.408 1.62-.408.864 0 1.476.372.624.372.96 1.056.336.672.336 1.62v.6h-4.56q.024.732.312 1.176t.78.648q.492.192 1.128.192.504 0 1.02-.132a8 8 0 0 0 1.056-.372v1.092a5 5 0 0 1-1.092.348 5.6 5.6 0 0 1-1.068.108m1.2-4.02q-.012-.528-.204-.9a1.34 1.34 0 0 0-.516-.576q-.336-.204-.816-.204-.732 0-1.2.456-.468.444-.576 1.224zm2.432 3.9v-6.468h.876l.168.744h.06q.156-.324.324-.504.18-.192.396-.276t.48-.084q.504 0 .768.252.276.24.408.72h.048q.204-.468.504-.72.312-.252.816-.252t.78.264q.288.252.408.78.12.516.12 1.332V193h-1.128v-4.188q0-.42-.036-.708t-.156-.444q-.12-.168-.384-.168a.55.55 0 0 0-.444.228q-.18.216-.276.66a6 6 0 0 0-.084 1.104V193h-1.128v-4.188q0-.432-.06-.72a.9.9 0 0 0-.18-.444q-.132-.156-.396-.156a.53.53 0 0 0-.456.24q-.168.24-.24.684a7 7 0 0 0-.072 1.068V193zm10.267.12a.88.88 0 0 1-.612-.216q-.24-.216-.24-.672 0-.48.24-.684a.9.9 0 0 1 .612-.204q.372 0 .6.216.24.204.24.672 0 .444-.24.672-.228.216-.6.216m7.651 0q-.984 0-1.68-.348a2.32 2.32 0 0 1-1.044-1.08q-.36-.732-.36-1.872 0-1.2.384-1.956a2.44 2.44 0 0 1 1.116-1.104q.72-.348 1.68-.348.54 0 1.032.108t.924.324l-.372 1.032a3.5 3.5 0 0 0-.78-.288 3.4 3.4 0 0 0-.744-.084q-.672 0-1.104.264-.432.252-.636.756t-.204 1.272q0 .792.216 1.284t.648.72 1.068.228q.48 0 .936-.108.468-.12.864-.312v1.128q-.408.192-.924.288a5.4 5.4 0 0 1-1.02.096m6.751 0q-.66 0-1.212-.216a2.7 2.7 0 0 1-.96-.636 3 3 0 0 1-.612-1.056q-.216-.624-.216-1.452 0-1.104.372-1.836a2.67 2.67 0 0 1 1.056-1.128q.672-.384 1.548-.384t1.548.384q.684.372 1.068 1.116t.384 1.86q0 .816-.216 1.44a3 3 0 0 1-.612 1.056q-.384.42-.936.636-.54.216-1.212.216m0-1.032q.564 0 .936-.276.384-.288.564-.816.192-.528.192-1.236 0-.72-.192-1.236-.18-.516-.564-.792-.372-.288-.948-.288-.864 0-1.296.624-.42.612-.42 1.692 0 .708.192 1.236t.576.816q.384.276.96.276m4.472.912v-.828l2.292-.228v-7.008l-2.112-.216v-.84h3.396v8.064l2.052.228V193zm9.919.12q-.66 0-1.212-.216a2.7 2.7 0 0 1-.96-.636 3 3 0 0 1-.612-1.056q-.216-.624-.216-1.452 0-1.104.372-1.836a2.67 2.67 0 0 1 1.056-1.128q.672-.384 1.548-.384t1.548.384q.684.372 1.068 1.116t.384 1.86q0 .816-.216 1.44a3 3 0 0 1-.612 1.056q-.384.42-.936.636-.54.216-1.212.216m0-1.032q.564 0 .936-.276.384-.288.564-.816.192-.528.192-1.236 0-.72-.192-1.236-.18-.516-.564-.792-.372-.288-.948-.288-.864 0-1.296.624-.42.612-.42 1.692 0 .708.192 1.236t.576.816q.384.276.96.276m4.255.912v-.828l1.884-.228v-4.356l-1.656-.168v-.888h2.652l.168 1.152h.06q.336-.612.756-.936.432-.336 1.104-.336.348 0 .66.06.324.06.6.192l-.336 1.14a2 2 0 0 0-.456-.156 2 2 0 0 0-.54-.072q-.528 0-.924.3a2 2 0 0 0-.6.804 3 3 0 0 0-.204 1.116v2.148l1.824.228V193zm10.124.12a.88.88 0 0 1-.612-.216q-.24-.216-.24-.672 0-.48.24-.684a.9.9 0 0 1 .612-.204q.372 0 .6.216.24.204.24.672 0 .444-.24.672-.228.216-.6.216m7.651 0q-.984 0-1.68-.348a2.32 2.32 0 0 1-1.044-1.08q-.36-.732-.36-1.872 0-1.2.384-1.956a2.44 2.44 0 0 1 1.116-1.104q.72-.348 1.68-.348.54 0 1.032.108t.924.324l-.372 1.032a3.5 3.5 0 0 0-.78-.288 3.4 3.4 0 0 0-.744-.084q-.672 0-1.104.264-.432.252-.636.756t-.204 1.272q0 .792.216 1.284t.648.72 1.068.228q.48 0 .936-.108.468-.12.864-.312v1.128q-.408.192-.924.288a5.4 5.4 0 0 1-1.02.096m4.015-.12v-9.12h1.272v2.376q0 .276-.024.636-.012.36-.024.612h.072q.204-.372.492-.612t.66-.36q.384-.12.816-.12 1.032 0 1.632.576.612.576.612 1.788V193h-1.272v-3.936q0-.852-.348-1.224-.348-.384-.984-.384-.504 0-.876.264-.372.252-.564.768-.192.504-.192 1.248V193zm9.188.12q-.972 0-1.536-.492t-.564-1.428q0-.708.324-1.164.336-.468.972-.696.648-.24 1.56-.264l1.404-.036v-.276q0-.744-.408-1.032-.396-.288-1.104-.288-.492 0-.96.12t-.924.348l-.42-.936a5.7 5.7 0 0 1 1.056-.396 4.8 4.8 0 0 1 1.308-.168q1.26 0 1.944.552t.684 1.716V193h-.996l-.168-.876h-.048a2.6 2.6 0 0 1-.6.564q-.312.216-.696.324a3 3 0 0 1-.828.108m.312-1.02q.504 0 .924-.18.42-.192.672-.552.252-.372.252-.912v-.564l-1.104.024q-.684.024-1.116.168-.42.144-.624.408a1.05 1.05 0 0 0-.192.636q0 .516.324.744.336.228.864.228m4.687.9v-.828l1.884-.228v-4.356l-1.656-.168v-.888h2.652l.168 1.152h.06q.336-.612.756-.936.432-.336 1.104-.336.348 0 .66.06.324.06.6.192l-.336 1.14a2 2 0 0 0-.456-.156 2 2 0 0 0-.54-.072q-.528 0-.924.3a2 2 0 0 0-.6.804 3 3 0 0 0-.204 1.116v2.148l1.824.228V193zm11.311.12q-.732 0-1.284-.192a1.73 1.73 0 0 1-.864-.672q-.3-.48-.3-1.296v-3.372h-1.68v-.84l1.716-.24.24-1.668h.996v1.692h2.496v1.056h-2.496v3.168q0 .48.144.768a.87.87 0 0 0 .444.42q.3.132.732.132.312 0 .648-.06.348-.06.672-.12v1.008q-.336.096-.708.156t-.756.06m6.008 0a.88.88 0 0 1-.612-.216q-.24-.216-.24-.672 0-.48.24-.684a.9.9 0 0 1 .612-.204q.372 0 .6.216.24.204.24.672 0 .444-.24.672-.228.216-.6.216m7.651 0q-.984 0-1.68-.348a2.32 2.32 0 0 1-1.044-1.08q-.36-.732-.36-1.872 0-1.2.384-1.956a2.44 2.44 0 0 1 1.116-1.104q.72-.348 1.68-.348.54 0 1.032.108t.924.324l-.372 1.032a3.5 3.5 0 0 0-.78-.288 3.4 3.4 0 0 0-.744-.084q-.672 0-1.104.264-.432.252-.636.756t-.204 1.272q0 .792.216 1.284t.648.72 1.068.228q.48 0 .936-.108.468-.12.864-.312v1.128q-.408.192-.924.288a5.4 5.4 0 0 1-1.02.096m6.751 0q-.66 0-1.212-.216a2.7 2.7 0 0 1-.96-.636 3 3 0 0 1-.612-1.056q-.216-.624-.216-1.452 0-1.104.372-1.836a2.67 2.67 0 0 1 1.056-1.128q.672-.384 1.548-.384t1.548.384q.684.372 1.068 1.116t.384 1.86q0 .816-.216 1.44a3 3 0 0 1-.612 1.056q-.384.42-.936.636-.54.216-1.212.216m0-1.032q.564 0 .936-.276.384-.288.564-.816.192-.528.192-1.236 0-.72-.192-1.236-.18-.516-.564-.792-.372-.288-.948-.288-.864 0-1.296.624-.42.612-.42 1.692 0 .708.192 1.236t.576.816q.384.276.96.276m4.112.912v-6.468h.876l.168.744h.06q.156-.324.324-.504.18-.192.396-.276t.48-.084q.504 0 .768.252.276.24.408.72h.048q.204-.468.504-.72.312-.252.816-.252t.78.264q.288.252.408.78.12.516.12 1.332V193h-1.128v-4.188q0-.42-.036-.708t-.156-.444q-.12-.168-.384-.168a.55.55 0 0 0-.444.228q-.18.216-.276.66a6 6 0 0 0-.084 1.104V193h-1.128v-4.188q0-.432-.06-.72a.9.9 0 0 0-.18-.444q-.132-.156-.396-.156a.53.53 0 0 0-.456.24q-.168.24-.24.684a7 7 0 0 0-.072 1.068V193zm7.543 2.88v-9.348h1.008l.18.864h.06q.204-.312.48-.528.276-.228.636-.336.36-.12.816-.12.6 0 1.068.228a2 2 0 0 1 .804.66q.324.432.492 1.056.168.612.168 1.404 0 1.08-.312 1.836t-.888 1.14-1.356.384q-.432 0-.792-.12a2.3 2.3 0 0 1-.636-.324 3 3 0 0 1-.48-.468h-.072q.048.276.06.528.012.24.012.42v2.724zm2.832-3.804q.828 0 1.2-.576t.372-1.764q0-1.152-.372-1.716-.36-.564-1.212-.564-.792 0-1.188.54-.384.528-.384 1.524v.228q0 1.104.36 1.716t1.224.612m7.099 1.044q-.66 0-1.212-.216a2.7 2.7 0 0 1-.96-.636 3 3 0 0 1-.612-1.056q-.216-.624-.216-1.452 0-1.104.372-1.836a2.67 2.67 0 0 1 1.056-1.128q.672-.384 1.548-.384t1.548.384q.684.372 1.068 1.116t.384 1.86q0 .816-.216 1.44a3 3 0 0 1-.612 1.056q-.384.42-.936.636-.54.216-1.212.216m0-1.032q.564 0 .936-.276.384-.288.564-.816.192-.528.192-1.236 0-.72-.192-1.236-.18-.516-.564-.792-.372-.288-.948-.288-.864 0-1.296.624-.42.612-.42 1.692 0 .708.192 1.236t.576.816q.384.276.96.276m4.459.912v-6.468h.996l.192.912h.072q.192-.348.492-.576t.696-.336q.408-.12.876-.12 1.008 0 1.596.576.588.564.588 1.728V193h-1.272v-4.02q0-.792-.324-1.152-.312-.372-.984-.372-.9 0-1.284.612-.372.612-.372 1.692V193zm10.412.12q-1.068 0-1.836-.384a2.76 2.76 0 0 1-1.164-1.14q-.408-.744-.408-1.824 0-1.044.372-1.788a2.8 2.8 0 0 1 1.068-1.164q.684-.408 1.62-.408.864 0 1.476.372.624.372.96 1.056.336.672.336 1.62v.6h-4.56q.024.732.312 1.176t.78.648q.492.192 1.128.192.504 0 1.02-.132a8 8 0 0 0 1.056-.372v1.092a5 5 0 0 1-1.092.348 5.6 5.6 0 0 1-1.068.108m1.2-4.02q-.012-.528-.204-.9a1.34 1.34 0 0 0-.516-.576q-.336-.204-.816-.204-.732 0-1.2.456-.468.444-.576 1.224zm2.779 3.9v-6.468h.996l.192.912h.072q.192-.348.492-.576t.696-.336q.408-.12.876-.12 1.008 0 1.596.576.588.564.588 1.728V193h-1.272v-4.02q0-.792-.324-1.152-.312-.372-.984-.372-.9 0-1.284.612-.372.612-.372 1.692V193zm11.107.12q-.732 0-1.284-.192a1.73 1.73 0 0 1-.864-.672q-.3-.48-.3-1.296v-3.372h-1.68v-.84l1.716-.24.24-1.668h.996v1.692h2.496v1.056h-2.496v3.168q0 .48.144.768a.87.87 0 0 0 .444.42q.3.132.732.132.312 0 .648-.06.348-.06.672-.12v1.008q-.336.096-.708.156t-.756.06m6.008 0a.88.88 0 0 1-.612-.216q-.24-.216-.24-.672 0-.48.24-.684a.9.9 0 0 1 .612-.204q.372 0 .6.216.24.204.24.672 0 .444-.24.672-.228.216-.6.216m6.919 0q-.6 0-1.152-.108-.552-.096-.996-.288v-1.188q.444.204.996.372.552.156 1.248.156t1.008-.204.312-.612a.6.6 0 0 0-.132-.408q-.132-.156-.468-.312a16 16 0 0 0-.924-.396 16 16 0 0 1-1.032-.504 2 2 0 0 1-.684-.576q-.24-.336-.24-.864 0-.6.312-.996t.876-.588q.576-.192 1.344-.192.564 0 1.092.108t1.068.336l-.384.984a5 5 0 0 0-.936-.288 4.3 4.3 0 0 0-.852-.084q-.648 0-.96.168-.3.156-.3.516 0 .252.156.42t.492.324l.864.372q.612.24 1.056.468.456.228.696.576.24.336.24.924 0 .624-.312 1.044-.3.42-.9.636-.6.204-1.488.204m7.927 0q-.984 0-1.68-.348a2.32 2.32 0 0 1-1.044-1.08q-.36-.732-.36-1.872 0-1.2.384-1.956a2.44 2.44 0 0 1 1.116-1.104q.72-.348 1.68-.348.54 0 1.032.108t.924.324l-.372 1.032a3.5 3.5 0 0 0-.78-.288 3.4 3.4 0 0 0-.744-.084q-.672 0-1.104.264-.432.252-.636.756t-.204 1.272q0 .792.216 1.284t.648.72 1.068.228q.48 0 .936-.108.468-.12.864-.312v1.128q-.408.192-.924.288a5.4 5.4 0 0 1-1.02.096m6.008 0q-.972 0-1.536-.492t-.564-1.428q0-.708.324-1.164.336-.468.972-.696.648-.24 1.56-.264l1.404-.036v-.276q0-.744-.408-1.032-.396-.288-1.104-.288-.492 0-.96.12t-.924.348l-.42-.936a5.7 5.7 0 0 1 1.056-.396 4.8 4.8 0 0 1 1.308-.168q1.26 0 1.944.552t.684 1.716V193h-.996l-.168-.876h-.048a2.6 2.6 0 0 1-.6.564q-.312.216-.696.324a3 3 0 0 1-.828.108m.312-1.02q.504 0 .924-.18.42-.192.672-.552.252-.372.252-.912v-.564l-1.104.024q-.684.024-1.116.168-.42.144-.624.408a1.05 1.05 0 0 0-.192.636q0 .516.324.744.336.228.864.228m4.903.9v-.828l2.292-.228v-7.008l-2.112-.216v-.84h3.396v8.064l2.052.228V193zm10.399.12q-1.068 0-1.836-.384a2.76 2.76 0 0 1-1.164-1.14q-.408-.744-.408-1.824 0-1.044.372-1.788a2.8 2.8 0 0 1 1.068-1.164q.684-.408 1.62-.408.864 0 1.476.372.624.372.96 1.056.336.672.336 1.62v.6h-4.56q.024.732.312 1.176t.78.648q.492.192 1.128.192.504 0 1.02-.132a8 8 0 0 0 1.056-.372v1.092a5 5 0 0 1-1.092.348 5.6 5.6 0 0 1-1.068.108m1.2-4.02q-.012-.528-.204-.9a1.34 1.34 0 0 0-.516-.576q-.336-.204-.816-.204-.732 0-1.2.456-.468.444-.576 1.224zm2.432 3.9v-6.468h.876l.168.744h.06q.156-.324.324-.504.18-.192.396-.276t.48-.084q.504 0 .768.252.276.24.408.72h.048q.204-.468.504-.72.312-.252.816-.252t.78.264q.288.252.408.78.12.516.12 1.332V193h-1.128v-4.188q0-.42-.036-.708t-.156-.444q-.12-.168-.384-.168a.55.55 0 0 0-.444.228q-.18.216-.276.66a6 6 0 0 0-.084 1.104V193h-1.128v-4.188q0-.432-.06-.72a.9.9 0 0 0-.18-.444q-.132-.156-.396-.156a.53.53 0 0 0-.456.24q-.168.24-.24.684a7 7 0 0 0-.072 1.068V193zm9.535.12q-.972 0-1.536-.492t-.564-1.428q0-.708.324-1.164.336-.468.972-.696.648-.24 1.56-.264l1.404-.036v-.276q0-.744-.408-1.032-.396-.288-1.104-.288-.492 0-.96.12t-.924.348l-.42-.936a5.7 5.7 0 0 1 1.056-.396 4.8 4.8 0 0 1 1.308-.168q1.26 0 1.944.552t.684 1.716V193h-.996l-.168-.876h-.048a2.6 2.6 0 0 1-.6.564q-.312.216-.696.324a3 3 0 0 1-.828.108m.312-1.02q.504 0 .924-.18.42-.192.672-.552.252-.372.252-.912v-.564l-1.104.024q-.684.024-1.116.168-.42.144-.624.408a1.05 1.05 0 0 0-.192.636q0 .516.324.744.336.228.864.228m4.687.9v-.828l1.884-.228v-4.356l-1.656-.168v-.888h2.652l.168 1.152h.06q.336-.612.756-.936.432-.336 1.104-.336.348 0 .66.06.324.06.6.192l-.336 1.14a2 2 0 0 0-.456-.156 2 2 0 0 0-.54-.072q-.528 0-.924.3a2 2 0 0 0-.6.804 3 3 0 0 0-.204 1.116v2.148l1.824.228V193zm7.628 0v-9.12h1.272v4.344q0 .24-.012.528t-.036.588q-.012.288-.036.564h.024q.204-.288.408-.54l.443-.516 2.053-2.316h1.512l-2.508 2.76 2.664 3.708h-1.428l-2.064-2.94-1.02.936V193z"/><path stroke="var(--colors-sd-system-color-interaction-disabled-on-surface)" stroke-width="1.6" d="M288 11h52m-65 119h65"/></svg>