<svg width="45" height="36" viewBox="0 0 45 36" fill="none" xmlns="http://www.w3.org/2000/svg">
<g style="mix-blend-mode:multiply">
<path d="M36.8996 18.0016C36.8996 19.7838 34.1365 21.0026 33.4937 22.5553C32.8509 24.108 33.8944 26.9755 32.684 28.1859C31.4735 29.3963 28.6603 28.332 27.0534 28.9957C25.4464 29.6593 24.2819 32.4016 22.4996 32.4016C20.7173 32.4016 19.4986 29.6384 17.9459 28.9957C16.3932 28.3529 13.5257 29.3963 12.3153 28.1859C11.1048 26.9755 12.1692 24.1623 11.5055 22.5553C10.8419 20.9483 8.09961 19.7838 8.09961 18.0016C8.09961 16.2193 10.8627 15.0005 11.5055 13.4478C12.1483 11.8951 11.1048 9.02765 12.3153 7.81722C13.5257 6.60678 16.3389 7.67113 17.9459 7.00748C19.5528 6.34382 20.7173 3.60156 22.4996 3.60156C24.2819 3.60156 25.5007 6.36469 27.0534 7.00748C28.606 7.65026 31.4735 6.60678 32.684 7.81722C33.8944 9.02765 32.83 11.8409 33.4937 13.4478C34.1574 15.0548 36.8996 16.2193 36.8996 18.0016Z" fill="var(--_illustration-system-composition-primary, #0A69CF)"/>
</g>
</svg>
