<svg width="64" height="64" viewBox="0 0 64 64" fill="none" xmlns="http://www.w3.org/2000/svg">
<path d="M40.2868 24.9578H30.021V5H40.2868C45.8269 5 50.3333 9.47555 50.3333 14.9778C50.3333 20.48 45.8269 24.9578 40.2868 24.9578ZM33.3124 21.6889H40.2868C44.0123 21.6889 47.0419 18.6778 47.0419 14.98C47.0419 11.2822 44.01 8.27111 40.2868 8.27111H33.3124V21.6889ZM33.3124 24.9578H23.0488C17.5086 24.9578 13.0022 20.4822 13.0022 14.98C13.0022 9.47778 17.5086 5 23.0488 5H33.3146V24.9578H33.3124ZM23.0488 8.26889C19.3233 8.26889 16.2937 11.28 16.2937 14.9778C16.2937 18.6756 19.3233 21.6889 23.0488 21.6889H30.0232V8.26889H23.0488ZM33.3124 41.6444H23.0488C17.5086 41.6444 13.0022 37.1689 13.0022 31.6667C13.0022 26.1644 17.5086 21.6889 23.0488 21.6889H33.3146V41.6444H33.3124ZM23.0488 24.9578C19.3233 24.9578 16.2937 27.9689 16.2937 31.6667C16.2937 35.3644 19.3255 38.3756 23.0488 38.3756H30.0232V24.9578H23.0488ZM23.1025 58.3333C17.5333 58.3333 13 53.8578 13 48.3556C13 42.8533 17.5064 38.3778 23.0465 38.3778H33.3124V48.2467C33.3124 53.8089 28.7321 58.3333 23.1025 58.3333ZM23.0488 41.6444C21.2579 41.6468 19.5411 42.3544 18.2748 43.612C17.0085 44.8697 16.296 46.5747 16.2937 48.3533C16.2937 52.0533 19.3479 55.0622 23.1047 55.0622C26.9197 55.0622 30.0254 52.0044 30.0254 48.2444V41.6444H23.0488ZM40.2868 41.6444H40.0675C34.5274 41.6444 30.021 37.1689 30.021 31.6667C30.021 26.1644 34.5274 21.6889 40.0675 21.6889H40.2868C45.8269 21.6889 50.3333 26.1644 50.3333 31.6667C50.3333 37.1689 45.8269 41.6444 40.2868 41.6444ZM40.0697 24.9578C36.3442 24.9578 33.3146 27.9689 33.3146 31.6667C33.3146 35.3644 36.3465 38.3756 40.0697 38.3756H40.289C44.0145 38.3756 47.0442 35.3644 47.0442 31.6667C47.0442 27.9689 44.01 24.9578 40.2868 24.9578H40.0697Z" fill="currentColor"/>
</svg>
