<svg width="310" height="186" viewBox="0 0 310 186" fill="none" xmlns="http://www.w3.org/2000/svg">
<g clip-path="url(#clip0_12493_33820)">
<rect width="310" height="186" fill="#F5F5F5"/>
<rect width="310" height="186" fill="#F5F5F5"/>
<g clip-path="url(#clip1_12493_33820)">
<path d="M24 22C24 18.6863 26.6863 16 30 16H680C683.314 16 686 18.6863 686 22V336.457C686 339.771 683.314 342.457 680 342.457H30C26.6863 342.457 24 339.771 24 336.457V22Z" fill="white"/>
<rect x="24" y="15.7266" width="295" height="14" fill="#E6E6E6"/>
<circle cx="33.5" cy="23.2266" r="3.5" fill="#E59090"/>
<circle cx="43.5" cy="23.2266" r="3.5" fill="#E3C173"/>
<circle cx="53.5" cy="23.2266" r="3.5" fill="#9CCF88"/>
<g opacity="0.2">
<path d="M60.7551 59.6883V78.1016H58.3143V59.6883H60.7551ZM67.1795 67.3394V78.1016H64.8399V64.4181H67.053L67.1795 67.3394ZM66.623 70.7413L65.6493 70.7034C65.6577 69.7675 65.7968 68.9034 66.0666 68.1108C66.3364 67.3099 66.7158 66.6143 67.2048 66.0242C67.6938 65.434 68.2755 64.9787 68.95 64.6583C69.6329 64.3295 70.3875 64.1651 71.2137 64.1651C71.8882 64.1651 72.4952 64.2579 73.0348 64.4434C73.5744 64.6204 74.0339 64.9071 74.4133 65.3033C74.8011 65.6996 75.0962 66.2139 75.2985 66.8462C75.5009 67.4701 75.6021 68.2331 75.6021 69.1352V78.1016H73.2498V69.1099C73.2498 68.3933 73.1444 67.82 72.9336 67.39C72.7229 66.9516 72.4151 66.6354 72.0104 66.4415C71.6058 66.2392 71.1083 66.138 70.5182 66.138C69.9364 66.138 69.4053 66.2602 68.9247 66.5047C68.4526 66.7492 68.0437 67.0865 67.698 67.5165C67.3608 67.9464 67.0952 68.4396 66.9013 68.9961C66.7158 69.5441 66.623 70.1258 66.623 70.7413ZM87.7806 75.4458V58.6766H90.1329V78.1016H87.983L87.7806 75.4458ZM78.574 71.4116V71.146C78.574 70.1006 78.7004 69.1521 78.9534 68.3005C79.2147 67.4406 79.5815 66.7029 80.0536 66.0874C80.5342 65.4719 81.1033 64.9998 81.7609 64.671C82.4269 64.3338 83.1689 64.1651 83.9867 64.1651C84.8466 64.1651 85.597 64.3169 86.2377 64.6204C86.8869 64.9155 87.4349 65.3497 87.8818 65.923C88.3371 66.4879 88.6954 67.1708 88.9567 67.9717C89.2181 68.7727 89.3994 69.679 89.5005 70.6907V71.8542C89.4078 72.8575 89.2265 73.7596 88.9567 74.5605C88.6954 75.3615 88.3371 76.0444 87.8818 76.6093C87.4349 77.1742 86.8869 77.6083 86.2377 77.9119C85.5886 78.2069 84.8298 78.3545 83.9614 78.3545C83.1604 78.3545 82.4269 78.1817 81.7609 77.836C81.1033 77.4903 80.5342 77.0055 80.0536 76.3816C79.5815 75.7577 79.2147 75.0243 78.9534 74.1812C78.7004 73.3296 78.574 72.4064 78.574 71.4116ZM80.9262 71.146V71.4116C80.9262 72.0945 80.9937 72.7352 81.1286 73.3338C81.2719 73.9324 81.4911 74.4594 81.7862 74.9146C82.0813 75.3699 82.4564 75.7282 82.9117 75.9896C83.367 76.2425 83.9108 76.369 84.5431 76.369C85.3188 76.369 85.9553 76.2046 86.4527 75.8758C86.9586 75.547 87.3633 75.1128 87.6668 74.5732C87.9703 74.0336 88.2064 73.4477 88.375 72.8153V69.7675C88.2738 69.3038 88.1263 68.857 87.9324 68.427C87.7469 67.9886 87.5024 67.6008 87.1989 67.2635C86.9038 66.9179 86.537 66.6438 86.0986 66.4415C85.6687 66.2392 85.1586 66.138 84.5684 66.138C83.9277 66.138 83.3754 66.2729 82.9117 66.5427C82.4564 66.804 82.0813 67.1666 81.7862 67.6303C81.4911 68.0855 81.2719 68.6167 81.1286 69.2237C80.9937 69.8223 80.9262 70.4631 80.9262 71.146ZM99.4533 78.3545C98.5006 78.3545 97.6364 78.1943 96.8608 77.8739C96.0936 77.5451 95.4317 77.0856 94.8753 76.4955C94.3273 75.9053 93.9057 75.2055 93.6106 74.3961C93.3156 73.5868 93.168 72.7015 93.168 71.7404V71.2092C93.168 70.0963 93.3324 69.1057 93.6612 68.2373C93.99 67.3605 94.4369 66.6186 95.0018 66.0115C95.5666 65.4045 96.2074 64.945 96.924 64.6331C97.6407 64.3211 98.3826 64.1651 99.1498 64.1651C100.128 64.1651 100.971 64.3338 101.679 64.671C102.396 65.0082 102.982 65.4804 103.437 66.0874C103.892 66.686 104.229 67.3942 104.449 68.212C104.668 69.0214 104.777 69.9066 104.777 70.8678V71.9174H94.5591V70.0078H102.438V69.8308C102.404 69.2237 102.278 68.6336 102.058 68.0603C101.848 67.4869 101.51 67.0148 101.047 66.6438C100.583 66.2729 99.9507 66.0874 99.1498 66.0874C98.6187 66.0874 98.1297 66.2012 97.6828 66.4289C97.236 66.6481 96.8524 66.9769 96.532 67.4153C96.2116 67.8537 95.9629 68.3891 95.7858 69.0214C95.6088 69.6537 95.5203 70.383 95.5203 71.2092V71.7404C95.5203 72.3896 95.6088 73.0008 95.7858 73.5741C95.9713 74.139 96.2369 74.6364 96.5826 75.0664C96.9367 75.4964 97.3624 75.8336 97.8599 76.0781C98.3657 76.3226 98.939 76.4449 99.5798 76.4449C100.406 76.4449 101.106 76.2763 101.679 75.939C102.252 75.6018 102.754 75.1507 103.184 74.5858L104.6 75.7114C104.305 76.1582 103.93 76.584 103.475 76.9887C103.02 77.3934 102.459 77.7222 101.793 77.9751C101.135 78.228 100.355 78.3545 99.4533 78.3545ZM109.09 64.4181L112.087 69.4008L115.122 64.4181H117.867L113.39 71.1713L118.006 78.1016H115.299L112.138 72.9671L108.976 78.1016H106.257L110.86 71.1713L106.396 64.4181H109.09Z" fill="black"/>
</g>
<g opacity="0.3" clip-path="url(#clip2_12493_33820)">
<g style="mix-blend-mode:multiply">
<path d="M65.0645 103.534L72.9476 109.461L65.0645 115.389L57.1813 109.461L65.0645 103.534Z" fill="#428CFE"/>
</g>
</g>
<path d="M84.2489 104.252V113.727H82.3786V106.408L80.1317 107.122V105.648L84.0476 104.252H84.2489ZM87.496 112.824C87.496 112.547 87.5913 112.315 87.7817 112.129C87.9766 111.943 88.2342 111.85 88.5546 111.85C88.8749 111.85 89.1304 111.943 89.3209 112.129C89.5157 112.315 89.6131 112.547 89.6131 112.824C89.6131 113.101 89.5157 113.333 89.3209 113.519C89.1304 113.705 88.8749 113.798 88.5546 113.798C88.2342 113.798 87.9766 113.705 87.7817 113.519C87.5913 113.333 87.496 113.101 87.496 112.824ZM97.469 103.685C97.8946 103.752 98.4399 103.791 98.8921 103.791H103.241C103.693 103.791 104.225 103.752 104.678 103.685V105.401C104.225 105.374 103.707 105.361 103.241 105.361H98.8921C98.4399 105.361 97.868 105.374 97.469 105.401V103.685ZM95.9262 107.09C96.3252 107.143 96.7907 107.17 97.203 107.17H105.914C106.194 107.17 106.779 107.143 107.125 107.09V108.819C106.792 108.792 106.287 108.779 105.914 108.779H102.709C102.629 110.149 102.337 111.266 101.858 112.197C101.392 113.128 100.368 114.152 99.1847 114.751L97.6286 113.62C98.5729 113.261 99.5039 112.503 100.036 111.718C100.581 110.894 100.807 109.896 100.86 108.779H97.203C96.8173 108.779 96.2986 108.806 95.9262 108.832V107.09ZM105.476 102.767C105.808 103.259 106.274 104.097 106.526 104.589L105.462 105.055C105.183 104.51 104.771 103.712 104.412 103.206L105.476 102.767ZM107.045 102.169C107.391 102.674 107.883 103.512 108.122 103.978L107.058 104.443C106.779 103.885 106.353 103.113 105.994 102.608L107.045 102.169ZM119.135 103.379C119.387 103.911 119.693 104.683 119.84 105.201L118.922 105.494C118.736 104.935 118.496 104.204 118.244 103.672L119.135 103.379ZM120.505 102.954C120.757 103.486 121.063 104.257 121.236 104.762L120.318 105.055C120.132 104.483 119.879 103.765 119.6 103.246L120.505 102.954ZM117.991 108.047C117.991 111.346 117.206 113.354 113.988 114.777L112.564 113.434C115.131 112.53 116.262 111.386 116.262 108.114V107.609H113.11V109.417C113.11 110.016 113.15 110.548 113.163 110.814H111.301C111.341 110.548 111.381 110.016 111.381 109.417V107.609H110.25C109.585 107.609 109.106 107.648 108.814 107.662V105.853C109.053 105.893 109.585 105.973 110.25 105.973H111.381V104.656C111.381 104.27 111.341 103.871 111.301 103.459H113.19C113.163 103.712 113.11 104.137 113.11 104.669V105.973H116.262V104.576C116.262 104.044 116.222 103.605 116.182 103.339H118.084C118.044 103.619 117.991 104.044 117.991 104.576V105.973H118.975C119.68 105.973 120.079 105.946 120.438 105.88V107.648C120.145 107.622 119.68 107.609 118.988 107.609H117.991V108.047ZM122.393 108.553C124.774 107.941 126.729 107.077 128.205 106.172C129.575 105.321 131.091 103.991 131.956 102.94L133.392 104.31C132.381 105.308 131.105 106.345 129.815 107.196V112.569C129.815 113.155 129.841 113.979 129.934 114.312H127.833C127.886 113.993 127.926 113.155 127.926 112.569V108.313C126.556 109.032 124.867 109.75 123.231 110.229L122.393 108.553ZM138.074 103.619C139.005 104.244 140.734 105.627 141.505 106.438L140.149 107.821C139.457 107.077 137.795 105.627 136.824 104.949L138.074 103.619ZM136.411 112.476C138.486 112.184 140.215 111.505 141.505 110.734C143.78 109.391 145.509 107.356 146.346 105.56L147.384 107.436C146.373 109.231 144.604 111.067 142.463 112.357C141.12 113.168 139.404 113.913 137.529 114.232L136.411 112.476ZM152.278 103.193C153.156 103.672 154.619 104.616 155.311 105.095L154.313 106.571C153.568 106.052 152.185 105.148 151.307 104.656L152.278 103.193ZM149.804 112.636C151.294 112.383 152.89 111.944 154.34 111.146C156.601 109.883 158.449 108.061 159.513 106.159L160.538 107.968C159.301 109.803 157.425 111.492 155.244 112.742C153.888 113.514 151.986 114.179 150.802 114.392L149.804 112.636ZM150.23 106.225C151.121 106.704 152.584 107.622 153.262 108.101L152.292 109.59C151.533 109.072 150.15 108.167 149.259 107.702L150.23 106.225ZM172.561 104.709C172.454 104.855 172.215 105.268 172.095 105.534C171.643 106.571 170.898 107.994 170.007 109.191C171.324 110.335 172.933 112.037 173.718 112.995L172.202 114.312C171.337 113.115 170.1 111.758 168.85 110.548C167.44 112.037 165.671 113.421 163.849 114.285L162.479 112.849C164.621 112.051 166.682 110.428 167.932 109.032C168.81 108.034 169.621 106.717 169.914 105.773H165.405C164.847 105.773 164.115 105.853 163.836 105.866V103.978C164.195 104.031 165.006 104.071 165.405 104.071H170.1C170.672 104.071 171.204 103.991 171.47 103.898L172.561 104.709ZM177.442 103.525C177.881 103.592 178.426 103.619 178.865 103.619H184.212C184.664 103.619 185.196 103.592 185.648 103.525V105.241C185.196 105.215 184.677 105.188 184.212 105.188H178.878C178.413 105.188 177.854 105.215 177.442 105.241V103.525ZM175.899 106.93C176.298 106.97 176.764 107.01 177.176 107.01H185.887C186.167 107.01 186.752 106.983 187.098 106.93V108.659C186.765 108.633 186.26 108.619 185.887 108.619H182.682C182.602 109.989 182.31 111.106 181.831 112.037C181.365 112.955 180.341 113.993 179.158 114.591L177.601 113.461C178.546 113.101 179.477 112.33 180.009 111.559C180.554 110.734 180.78 109.737 180.833 108.619H177.176C176.777 108.619 176.271 108.646 175.899 108.673V106.93ZM195.047 103.698C194.875 104.097 194.675 104.589 194.476 105.175C194.05 106.478 192.973 109.856 192.308 111.638C193.93 111.479 195.819 111.266 197.162 111.106C196.697 110.149 196.205 109.258 195.766 108.673L197.428 107.994C198.372 109.431 199.729 112.037 200.341 113.527L198.545 114.325C198.372 113.873 198.16 113.328 197.907 112.756C195.752 113.008 191.722 113.434 190.047 113.607C189.714 113.647 189.222 113.713 188.796 113.766L188.491 111.825C188.943 111.825 189.515 111.825 189.954 111.811C190.06 111.811 190.193 111.798 190.313 111.798C191.084 109.83 192.228 106.185 192.614 104.802C192.8 104.124 192.88 103.712 192.933 103.259L195.047 103.698ZM213.295 109.045C213.295 111.851 211.579 113.833 208.228 114.352L207.23 112.769C207.736 112.716 208.108 112.636 208.467 112.556C210.17 112.157 211.5 110.934 211.5 108.992C211.5 107.156 210.502 105.786 208.707 105.481C208.52 106.611 208.294 107.835 207.909 109.085C207.111 111.771 205.967 113.421 204.517 113.421C203.041 113.421 201.817 111.798 201.817 109.55C201.817 106.478 204.477 103.858 207.922 103.858C211.22 103.858 213.295 106.146 213.295 109.045ZM203.52 109.377C203.52 110.721 204.052 111.372 204.57 111.372C205.129 111.372 205.648 110.535 206.193 108.739C206.499 107.755 206.751 106.624 206.898 105.52C204.703 105.973 203.52 107.914 203.52 109.377ZM221.727 104.31V104.337C221.727 105.56 221.488 107.103 220.184 108.087C219.918 107.821 219.227 107.369 218.881 107.196C220.078 106.358 220.224 105.201 220.224 104.297V102.927H225.039V105.813C225.039 106.052 225.039 106.172 225.079 106.225C225.119 106.265 225.185 106.279 225.265 106.279H225.544C225.611 106.279 225.704 106.265 225.744 106.239C225.797 106.212 225.85 106.132 225.877 105.946C225.903 105.76 225.917 105.334 225.93 104.842C226.209 105.082 226.741 105.334 227.114 105.467C227.087 106.026 227.021 106.638 226.914 106.904C226.821 107.17 226.662 107.343 226.409 107.476C226.209 107.582 225.864 107.635 225.611 107.635H224.813C224.454 107.635 224.055 107.529 223.815 107.289C223.563 107.037 223.443 106.744 223.443 105.866V104.31H221.727ZM217.471 102.475L218.961 103.073C218.083 104.31 216.713 105.627 215.45 106.438C215.277 106.092 214.918 105.441 214.665 105.108C215.702 104.456 216.899 103.366 217.471 102.475ZM217.884 105.254L219.293 105.84C218.948 106.412 218.522 106.997 218.07 107.555V114.87H216.54V109.231C216.141 109.617 215.756 109.963 215.37 110.255C215.224 109.909 214.798 109.085 214.532 108.739C215.756 107.901 217.086 106.571 217.884 105.254ZM224.174 109.604H221.435C221.767 110.282 222.219 110.88 222.778 111.412C223.337 110.88 223.815 110.282 224.174 109.604ZM225.265 108.114L226.329 108.593C225.837 110.149 225.052 111.386 224.041 112.357C224.946 112.889 226.036 113.288 227.273 113.514C226.914 113.86 226.489 114.498 226.263 114.924C224.893 114.604 223.736 114.086 222.778 113.394C221.78 114.059 220.65 114.564 219.44 114.924C219.24 114.511 218.868 113.913 218.575 113.594C219.666 113.328 220.677 112.902 221.581 112.33C220.943 111.652 220.424 110.867 219.998 109.963L221.182 109.604H219.307V108.18H224.972L225.265 108.114ZM232.939 111.971H230.292V113.101H232.939V111.971ZM228.869 114.87V110.787H234.442V114.751H232.939V114.285H230.292V114.87H228.869ZM233.684 105.826V104.842H229.521V105.826H230.878V105.108H232.327V105.826H233.684ZM232.354 102.541V103.658H235.147V105.933H234.455V106.944H232.327V107.502H234.269V108.553H232.327V109.125H235.001V110.335H228.164V109.125H230.878V108.553H228.909V107.502H230.878V106.944H228.776V105.933H228.125V103.658H230.838V102.541H232.354ZM237.208 103.871V111.306H235.706V103.871H237.208ZM238.459 102.701H239.988V112.955C239.988 113.833 239.829 114.285 239.297 114.525C238.778 114.791 237.953 114.844 236.863 114.844C236.796 114.392 236.57 113.66 236.344 113.208C237.115 113.248 237.873 113.234 238.139 113.234C238.366 113.234 238.459 113.155 238.459 112.942V102.701Z" fill="black"/>
<g opacity="0.3">
<path d="M99.9039 132.955V139.961H99.0187V134.061L97.2338 134.712V133.913L99.7651 132.955H99.9039ZM102.617 139.492C102.617 139.342 102.663 139.216 102.756 139.114C102.852 139.009 102.989 138.956 103.167 138.956C103.346 138.956 103.482 139.009 103.574 139.114C103.67 139.216 103.718 139.342 103.718 139.492C103.718 139.639 103.67 139.763 103.574 139.865C103.482 139.967 103.346 140.018 103.167 140.018C102.989 140.018 102.852 139.967 102.756 139.865C102.663 139.763 102.617 139.639 102.617 139.492ZM108 132.955V139.961H107.115V134.061L105.33 134.712V133.913L107.862 132.955H108ZM112.926 135.747H121.824V136.541H112.926V135.747ZM125.685 139.246L126.342 139.559C125.548 140.02 124.323 140.471 123.353 140.735C123.226 140.598 122.981 140.314 122.814 140.186C123.814 139.981 124.99 139.638 125.685 139.246ZM129.664 136.364V135.708H124.754V136.364H129.664ZM129.664 137.511V136.835H124.754V137.511H129.664ZM129.664 138.667V137.981H124.754V138.667H129.664ZM130.389 135.218V139.148H124.049V135.218H130.389ZM127.969 139.647L128.537 139.265C129.615 139.598 130.781 140.02 131.497 140.333L130.752 140.725C130.115 140.412 129.047 140 127.969 139.647ZM127.42 134.287H129.39L129.439 133.679H127.498C127.469 133.895 127.44 134.101 127.42 134.287ZM124.931 133.679L124.852 134.287H126.744C126.773 134.101 126.793 133.895 126.822 133.679H124.931ZM126.94 132.601H125.078L124.999 133.17H126.881C126.91 132.974 126.92 132.787 126.94 132.601ZM129.478 133.17L129.527 132.601H127.616L127.557 133.17H129.478ZM130.203 133.121H131.526V133.728H130.154L130.066 134.777H124.098L124.235 133.728H122.794V133.121H124.313L124.451 132.121H130.282L130.203 133.121ZM132.928 136.315L132.359 136.119C132.624 135.473 132.8 134.404 132.869 133.611L133.418 133.689C133.369 134.493 133.182 135.6 132.928 136.315ZM133.77 140.706V131.758H134.496V140.706H133.77ZM134.564 133.562L135.074 133.326C135.368 133.856 135.672 134.551 135.789 134.963L135.24 135.228C135.133 134.806 134.839 134.101 134.564 133.562ZM138.866 139.677H141.316V140.373H135.338V139.677H138.141V137.227H136.064V136.551H138.141V134.522H136.71C136.514 135.11 136.289 135.62 136.024 136.041C135.877 135.943 135.554 135.786 135.378 135.708C135.946 134.855 136.338 133.542 136.563 132.209L137.269 132.327C137.171 132.836 137.053 133.346 136.916 133.826H138.141V131.798H138.866V133.826H141.081V134.522H138.866V136.551H140.866V137.227H138.866V139.677ZM150.754 136.531C150.754 138.589 149.401 139.961 147.079 140.265L146.618 139.54C146.932 139.51 147.236 139.461 147.461 139.412C148.715 139.128 149.95 138.197 149.95 136.502C149.95 135.022 149 133.797 147.334 133.66C147.206 134.571 147.02 135.571 146.746 136.482C146.148 138.501 145.374 139.53 144.462 139.53C143.59 139.53 142.718 138.53 142.718 136.913C142.718 134.787 144.609 132.925 147 132.925C149.294 132.925 150.754 134.542 150.754 136.531ZM143.482 136.845C143.482 138.079 144.051 138.628 144.492 138.628C144.952 138.628 145.472 137.972 145.971 136.315C146.216 135.502 146.412 134.571 146.52 133.669C144.639 133.905 143.482 135.512 143.482 136.845ZM157.016 138.638V139.657H158.339V138.638H157.016ZM158.339 136.462V135.463H157.016V136.462H158.339ZM158.339 138.07V137.031H157.016V138.07H158.339ZM154.752 138.873V135.894H153.488V138.873H154.752ZM161.024 139.657V140.284H157.016V140.706H156.33V136.061C156.163 136.227 155.987 136.374 155.811 136.521C155.722 136.404 155.517 136.198 155.37 136.061V139.51H153.488V140.275H152.89V137.119C152.724 137.462 152.547 137.785 152.341 138.07C152.263 137.903 152.057 137.55 151.93 137.393C152.645 136.355 153.057 134.787 153.312 133.091H152.204V132.425H155.644V133.091H153.998C153.89 133.846 153.743 134.581 153.557 135.267H155.37V135.933C156.193 135.306 156.859 134.434 157.349 133.395H156.301V134.424H155.664V132.758H157.624C157.751 132.435 157.859 132.101 157.947 131.758L158.643 131.896C158.555 132.19 158.466 132.484 158.368 132.758H160.975V134.424H160.319V133.395H158.114C157.878 133.914 157.624 134.404 157.32 134.845H158.515C158.682 134.473 158.858 134.022 158.956 133.689L159.642 133.856C159.486 134.189 159.319 134.542 159.172 134.845H160.72V135.463H159.025V136.462H160.564V137.031H159.025V138.07H160.564V138.638H159.025V139.657H161.024ZM164.18 131.788L164.866 131.994C164.582 132.699 164.248 133.395 163.866 134.032V140.686H163.17V135.1C162.837 135.571 162.475 135.992 162.122 136.355C162.043 136.198 161.838 135.816 161.71 135.649C162.68 134.718 163.621 133.268 164.18 131.788ZM165.875 132.876V134.669H169.511V132.876H165.875ZM170.775 137.197H168.453C169.099 138.226 170.089 139.216 171.03 139.726C170.873 139.853 170.638 140.118 170.511 140.304C169.638 139.736 168.698 138.716 168.031 137.648V140.716H167.306V137.678C166.62 138.756 165.64 139.736 164.689 140.284C164.562 140.108 164.346 139.843 164.18 139.706C165.189 139.206 166.228 138.236 166.885 137.197H164.464V136.531H167.306V135.316H165.189V132.219H170.236V135.316H168.031V136.531H170.775V137.197Z" fill="black"/>
<path d="M99.9039 151.627V158.633H99.0187V152.733L97.2338 153.383V152.584L99.7651 151.627H99.9039ZM102.617 158.164C102.617 158.014 102.663 157.888 102.756 157.786C102.852 157.681 102.989 157.628 103.167 157.628C103.346 157.628 103.482 157.681 103.574 157.786C103.67 157.888 103.718 158.014 103.718 158.164C103.718 158.311 103.67 158.435 103.574 158.537C103.482 158.639 103.346 158.69 103.167 158.69C102.989 158.69 102.852 158.639 102.756 158.537C102.663 158.435 102.617 158.311 102.617 158.164ZM109.656 157.905V158.633H105.096V157.996L107.378 155.455C107.659 155.143 107.876 154.878 108.029 154.661C108.185 154.441 108.294 154.245 108.354 154.073C108.418 153.897 108.45 153.718 108.45 153.537C108.45 153.307 108.402 153.1 108.307 152.915C108.214 152.726 108.077 152.576 107.895 152.465C107.713 152.353 107.493 152.297 107.235 152.297C106.925 152.297 106.667 152.358 106.46 152.479C106.255 152.597 106.102 152.763 106 152.977C105.898 153.19 105.847 153.436 105.847 153.714H104.962C104.962 153.321 105.048 152.962 105.22 152.637C105.392 152.312 105.648 152.053 105.986 151.862C106.324 151.667 106.74 151.57 107.235 151.57C107.675 151.57 108.051 151.648 108.364 151.804C108.677 151.958 108.916 152.174 109.082 152.455C109.251 152.733 109.335 153.058 109.335 153.431C109.335 153.636 109.3 153.843 109.23 154.053C109.163 154.261 109.069 154.468 108.948 154.675C108.83 154.883 108.691 155.087 108.532 155.288C108.375 155.489 108.208 155.687 108.029 155.881L106.163 157.905H109.656ZM113.144 158.164C113.144 158.014 113.191 157.888 113.283 157.786C113.379 157.681 113.516 157.628 113.695 157.628C113.873 157.628 114.009 157.681 114.101 157.786C114.197 157.888 114.245 158.014 114.245 158.164C114.245 158.311 114.197 158.435 114.101 158.537C114.009 158.639 113.873 158.69 113.695 158.69C113.516 158.69 113.379 158.639 113.283 158.537C113.191 158.435 113.144 158.311 113.144 158.164ZM120.282 151.773V152.429H115.539V151.773H117.607V150.46H118.303V151.773H120.282ZM120.322 154.556L119.714 154.899C119.528 154.38 119.028 153.586 118.548 153.017L119.116 152.723C119.606 153.282 120.126 154.046 120.322 154.556ZM116.686 152.772L117.372 152.959C117.029 153.792 116.47 154.644 115.912 155.203C115.794 155.085 115.51 154.87 115.353 154.772C115.892 154.272 116.392 153.517 116.686 152.772ZM118.567 154.429L119.283 154.576C119.097 155.213 118.861 155.801 118.587 156.34C119.077 156.781 119.498 157.222 119.773 157.574L119.312 158.172C119.057 157.819 118.675 157.398 118.234 156.967C117.607 157.957 116.813 158.76 115.853 159.358C115.765 159.221 115.51 158.917 115.353 158.79C116.333 158.231 117.127 157.447 117.715 156.467C117.274 156.075 116.803 155.683 116.372 155.35L116.803 154.85C117.195 155.144 117.627 155.497 118.048 155.85C118.254 155.409 118.43 154.938 118.567 154.429ZM124.153 152.684V153.037C124.065 157.163 123.977 158.525 123.663 158.937C123.487 159.191 123.301 159.27 122.997 159.299C122.703 159.329 122.223 159.319 121.743 159.299C121.733 159.103 121.654 158.809 121.537 158.613C122.056 158.662 122.517 158.672 122.703 158.672C122.87 158.672 122.968 158.643 123.056 158.515C123.281 158.231 123.389 156.947 123.467 153.37H122.037C121.919 155.889 121.488 158.084 119.91 159.417C119.792 159.26 119.547 159.015 119.371 158.907C120.841 157.712 121.233 155.693 121.341 153.37H120.155V152.684H121.37C121.39 151.988 121.39 151.263 121.39 150.538H122.095C122.095 151.263 122.086 151.988 122.066 152.684H124.153ZM134.1 155.801L133.561 156.261C133.091 155.85 132.121 155.262 131.356 154.87L131.866 154.458C132.611 154.821 133.591 155.399 134.1 155.801ZM133.052 152.469L133.689 152.802C133.189 153.253 132.562 153.703 132.062 154.017L131.543 153.703C132.023 153.38 132.679 152.851 133.052 152.469ZM128.113 153.047L128.387 153.223C128.642 152.9 128.906 152.508 129.093 152.194H125.692V151.538H129.347V150.44H130.073V151.538H133.816V152.194H129.553L129.808 152.292C129.504 152.714 129.142 153.164 128.828 153.507C129.102 153.703 129.367 153.899 129.573 154.076C129.965 153.625 130.327 153.174 130.602 152.782L131.18 153.057C130.602 153.782 129.837 154.634 129.132 155.311L130.817 155.222C130.631 154.958 130.435 154.703 130.239 154.478L130.768 154.242C131.249 154.781 131.788 155.507 132.003 156.006L131.445 156.3C131.376 156.144 131.278 155.948 131.16 155.752C129.916 155.84 128.671 155.918 127.73 155.987L127.632 155.369C127.848 155.36 128.103 155.35 128.367 155.34C128.622 155.095 128.897 154.821 129.171 154.527C128.789 154.193 128.22 153.782 127.75 153.478L128.113 153.047ZM127.75 153.654L127.24 154.095C126.917 153.782 126.251 153.321 125.702 153.008L126.192 152.606C126.731 152.89 127.417 153.341 127.75 153.654ZM127.819 154.566L127.956 155.115C127.182 155.477 126.378 155.869 125.721 156.153L125.359 155.565C125.986 155.34 126.907 154.948 127.819 154.566ZM130.073 155.987V156.741H134.091V157.418H130.073V159.407H129.347V157.418H125.398V156.741H129.347V155.987H130.073ZM138.246 154.703V152.655H136.188V154.703H138.246ZM136.188 157.702H138.246V155.35H136.188V157.702ZM137.011 150.411L137.795 150.558C137.628 151.038 137.452 151.577 137.285 151.998H138.912V158.358H136.188V159.133H135.521V151.998H136.619C136.766 151.528 136.942 150.871 137.011 150.411ZM143.704 151.969V152.341C143.548 156.81 143.42 158.319 143.028 158.799C142.813 159.074 142.587 159.162 142.254 159.191C141.911 159.231 141.352 159.211 140.804 159.182C140.784 158.966 140.696 158.672 140.559 158.466C141.196 158.525 141.784 158.525 142.009 158.525C142.205 158.525 142.313 158.505 142.411 158.378C142.734 158.035 142.881 156.545 143.009 152.645H140.519C140.245 153.302 139.941 153.899 139.598 154.36C139.471 154.242 139.157 154.046 139 153.948C139.657 153.086 140.186 151.734 140.5 150.391L141.196 150.558C141.078 151.038 140.941 151.508 140.774 151.969H143.704ZM142.156 156.379L141.539 156.761C141.245 156.173 140.588 155.203 140.049 154.497L140.617 154.164C141.166 154.86 141.842 155.801 142.156 156.379ZM148.859 150.852C148.771 151.204 148.634 151.802 148.477 152.371C148.987 152.292 149.516 152.175 150.016 152.008L150.035 152.743C149.516 152.89 148.898 153.017 148.252 153.106C147.771 154.487 146.899 156.183 146.115 157.241L145.361 156.849C146.174 155.899 147.007 154.331 147.458 153.184C147.164 153.204 146.87 153.213 146.586 153.213C146.223 153.213 145.811 153.204 145.439 153.184L145.39 152.449C145.753 152.498 146.174 152.518 146.586 152.518C146.938 152.518 147.311 152.498 147.693 152.469C147.84 151.92 147.977 151.302 147.997 150.773L148.859 150.852ZM148.32 157.653C148.32 158.113 148.693 158.427 149.457 158.427C150.27 158.427 150.545 157.996 150.545 157.457C150.545 157.329 150.545 157.182 150.535 157.016C150.221 156.918 149.878 156.869 149.526 156.869C148.81 156.869 148.32 157.202 148.32 157.653ZM151.172 153.88C151.152 154.282 151.152 154.585 151.162 154.938C151.172 155.301 151.211 155.938 151.231 156.545C152.074 156.849 152.76 157.329 153.269 157.761L152.848 158.427C152.426 158.055 151.897 157.614 151.26 157.3C151.27 157.457 151.27 157.594 151.27 157.712C151.27 158.496 150.77 159.133 149.555 159.133C148.477 159.133 147.595 158.692 147.595 157.721C147.595 156.82 148.448 156.251 149.555 156.251C149.888 156.251 150.212 156.281 150.515 156.349C150.476 155.546 150.427 154.576 150.408 153.88H151.172ZM153.132 154.144C152.603 153.694 151.544 153.086 150.888 152.792L151.29 152.194C151.995 152.508 153.112 153.145 153.573 153.498L153.132 154.144ZM155.925 151.91C156.248 151.949 156.68 151.969 156.993 151.969H161.825C162.06 151.969 162.354 151.959 162.55 151.949C162.54 152.175 162.52 152.478 162.52 152.714V157.77C162.52 158.123 162.55 158.564 162.56 158.721H161.678C161.687 158.613 161.687 158.407 161.697 158.172H156.905C156.503 158.172 156.062 158.192 155.798 158.211V157.32C156.052 157.349 156.474 157.378 156.885 157.378H161.697V152.753H157.003C156.64 152.753 156.15 152.772 155.925 152.782V151.91ZM166.303 151.332C166.558 151.371 166.872 151.381 167.185 151.381H171.037C171.35 151.381 171.693 151.371 171.928 151.332V152.145C171.693 152.126 171.36 152.116 171.027 152.116H167.185C166.881 152.116 166.568 152.126 166.303 152.145V151.332ZM172.644 153.919C172.595 154.007 172.536 154.135 172.516 154.203C172.252 155.173 171.811 156.193 171.086 156.986C170.057 158.113 168.832 158.692 167.577 159.035L166.97 158.339C168.361 158.055 169.586 157.427 170.419 156.545C171.017 155.918 171.409 155.085 171.585 154.38H166.382C166.146 154.38 165.774 154.389 165.421 154.409V153.586C165.784 153.625 166.117 153.645 166.382 153.645H171.546C171.772 153.645 171.977 153.625 172.085 153.566L172.644 153.919ZM181.091 154.713C181.611 155.34 182.395 156.565 182.787 157.271L182.062 157.672C181.679 156.908 180.944 155.683 180.425 155.066L181.091 154.713ZM176.995 155.036C176.583 155.879 175.662 157.124 175.113 157.721L174.437 157.271C175.084 156.663 175.927 155.497 176.309 154.703L176.995 155.036ZM181.209 150.891C181.454 151.234 181.787 151.802 181.993 152.204L181.464 152.439C181.268 152.037 180.954 151.479 180.69 151.106L181.209 150.891ZM182.365 150.607C182.62 150.969 182.983 151.547 183.169 151.91L182.64 152.145C182.424 151.724 182.12 151.195 181.846 150.832L182.365 150.607ZM179.151 151.077C179.122 151.214 179.092 151.567 179.092 151.783V152.782H181.679C181.915 152.782 182.238 152.763 182.483 152.733V153.547C182.218 153.527 181.924 153.527 181.689 153.527H179.092V158.27C179.092 158.79 178.837 159.054 178.249 159.054C177.838 159.054 177.25 159.025 176.858 158.986L176.789 158.202C177.211 158.28 177.661 158.319 177.916 158.319C178.181 158.319 178.298 158.202 178.298 157.947V153.527H175.574C175.28 153.527 175.006 153.537 174.741 153.556V152.733C175.015 152.763 175.26 152.782 175.574 152.782H178.298V151.773C178.298 151.557 178.269 151.224 178.23 151.077H179.151ZM185.815 158.319C185.884 158.162 185.913 158.035 185.913 157.839V152.233C185.913 151.979 185.864 151.538 185.825 151.342H186.795C186.756 151.587 186.726 151.949 186.726 152.233V157.79C188.598 157.32 190.872 156.026 192.087 154.448L192.528 155.134C191.254 156.712 189.235 157.927 186.795 158.633C186.687 158.662 186.54 158.711 186.383 158.809L185.815 158.319ZM194.439 154.389C194.733 154.409 195.252 154.438 195.801 154.438H201.172C201.662 154.438 202.014 154.409 202.23 154.389V155.35C202.034 155.34 201.622 155.301 201.181 155.301H195.801C195.262 155.301 194.743 155.32 194.439 155.35V154.389ZM205.998 151.106C206.576 151.43 207.703 152.175 208.124 152.488L207.664 153.155C207.193 152.802 206.135 152.096 205.557 151.763L205.998 151.106ZM204.528 158.113C205.606 157.927 206.821 157.535 207.811 156.967C209.438 156.036 210.731 154.762 211.525 153.38L211.995 154.184C211.153 155.507 209.79 156.771 208.232 157.692C207.242 158.26 205.89 158.721 204.979 158.907L204.528 158.113ZM204.518 153.311C205.096 153.625 206.243 154.321 206.674 154.634L206.223 155.32C205.743 154.968 204.675 154.282 204.087 153.978L204.518 153.311ZM215.033 153.253C215.22 153.272 215.778 153.292 216.033 153.292H219.826C220.041 153.292 220.296 153.282 220.423 153.272C220.414 153.38 220.414 153.586 220.414 153.772V158.652C220.414 158.809 220.423 159.044 220.433 159.182H219.659C219.669 159.093 219.669 158.946 219.669 158.79H215.729C215.416 158.79 215.073 158.809 214.916 158.809V158.025C215.073 158.045 215.386 158.064 215.719 158.064H219.669V156.32H216.131C215.788 156.32 215.445 156.33 215.249 156.34V155.585C215.435 155.595 215.788 155.614 216.121 155.614H219.669V153.988H216.033C215.778 153.988 215.21 154.007 215.033 154.017V153.253ZM224.873 151.449C225.568 151.91 226.823 152.929 227.372 153.478L226.754 154.095C226.264 153.586 225.039 152.537 224.314 152.047L224.873 151.449ZM224.03 158.015C225.745 157.761 227.019 157.163 227.95 156.585C229.459 155.634 230.655 154.184 231.223 152.978L231.693 153.811C231.027 155.036 229.88 156.369 228.401 157.3C227.421 157.917 226.186 158.515 224.549 158.819L224.03 158.015Z" fill="black"/>
<path d="M99.9039 170.307V177.312H99.0187V171.412L97.2338 172.063V171.264L99.7651 170.307H99.9039ZM102.617 176.844C102.617 176.694 102.663 176.568 102.756 176.466C102.852 176.36 102.989 176.308 103.167 176.308C103.346 176.308 103.482 176.36 103.574 176.466C103.67 176.568 103.718 176.694 103.718 176.844C103.718 176.99 103.67 177.115 103.574 177.217C103.482 177.319 103.346 177.37 103.167 177.37C102.989 177.37 102.852 177.319 102.756 177.217C102.663 177.115 102.617 176.99 102.617 176.844ZM109.656 176.585V177.312H105.096V176.676L107.378 174.135C107.659 173.823 107.876 173.558 108.029 173.341C108.185 173.121 108.294 172.925 108.354 172.752C108.418 172.577 108.45 172.398 108.45 172.216C108.45 171.987 108.402 171.779 108.307 171.594C108.214 171.406 108.077 171.256 107.895 171.144C107.713 171.033 107.493 170.977 107.235 170.977C106.925 170.977 106.667 171.038 106.46 171.159C106.255 171.277 106.102 171.443 106 171.656C105.898 171.87 105.847 172.116 105.847 172.393H104.962C104.962 172.001 105.048 171.642 105.22 171.317C105.392 170.991 105.648 170.733 105.986 170.542C106.324 170.347 106.74 170.25 107.235 170.25C107.675 170.25 108.051 170.328 108.364 170.484C108.677 170.637 108.916 170.854 109.082 171.135C109.251 171.412 109.335 171.738 109.335 172.111C109.335 172.315 109.3 172.523 109.23 172.733C109.163 172.94 109.069 173.148 108.948 173.355C108.83 173.563 108.691 173.767 108.532 173.968C108.375 174.169 108.208 174.366 108.029 174.561L106.163 176.585H109.656ZM113.144 176.844C113.144 176.694 113.191 176.568 113.283 176.466C113.379 176.36 113.516 176.308 113.695 176.308C113.873 176.308 114.009 176.36 114.101 176.466C114.197 176.568 114.245 176.694 114.245 176.844C114.245 176.99 114.197 177.115 114.101 177.217C114.009 177.319 113.873 177.37 113.695 177.37C113.516 177.37 113.379 177.319 113.283 177.217C113.191 177.115 113.144 176.99 113.144 176.844ZM120.282 170.453V171.109H115.539V170.453H117.607V169.139H118.303V170.453H120.282ZM120.322 173.236L119.714 173.579C119.528 173.059 119.028 172.265 118.548 171.697L119.116 171.403C119.606 171.962 120.126 172.726 120.322 173.236ZM116.686 171.452L117.372 171.638C117.029 172.471 116.47 173.324 115.912 173.883C115.794 173.765 115.51 173.549 115.353 173.451C115.892 172.952 116.392 172.197 116.686 171.452ZM118.567 173.108L119.283 173.255C119.097 173.892 118.861 174.48 118.587 175.019C119.077 175.46 119.498 175.901 119.773 176.254L119.312 176.852C119.057 176.499 118.675 176.078 118.234 175.647C117.607 176.636 116.813 177.44 115.853 178.038C115.765 177.9 115.51 177.597 115.353 177.469C116.333 176.911 117.127 176.127 117.715 175.147C117.274 174.755 116.803 174.363 116.372 174.03L116.803 173.53C117.195 173.824 117.627 174.177 118.048 174.529C118.254 174.088 118.43 173.618 118.567 173.108ZM124.153 171.364V171.717C124.065 175.843 123.977 177.205 123.663 177.616C123.487 177.871 123.301 177.95 122.997 177.979C122.703 178.008 122.223 177.998 121.743 177.979C121.733 177.783 121.654 177.489 121.537 177.293C122.056 177.342 122.517 177.352 122.703 177.352C122.87 177.352 122.968 177.322 123.056 177.195C123.281 176.911 123.389 175.627 123.467 172.05H122.037C121.919 174.569 121.488 176.764 119.91 178.096C119.792 177.94 119.547 177.695 119.371 177.587C120.841 176.391 121.233 174.373 121.341 172.05H120.155V171.364H121.37C121.39 170.668 121.39 169.943 121.39 169.218H122.095C122.095 169.943 122.086 170.668 122.066 171.364H124.153ZM134.1 174.48L133.561 174.941C133.091 174.529 132.121 173.941 131.356 173.549L131.866 173.138C132.611 173.5 133.591 174.079 134.1 174.48ZM133.052 171.148L133.689 171.482C133.189 171.932 132.562 172.383 132.062 172.697L131.543 172.383C132.023 172.06 132.679 171.531 133.052 171.148ZM128.113 171.726L128.387 171.903C128.642 171.58 128.906 171.188 129.093 170.874H125.692V170.217H129.347V169.12H130.073V170.217H133.816V170.874H129.553L129.808 170.972C129.504 171.393 129.142 171.844 128.828 172.187C129.102 172.383 129.367 172.579 129.573 172.756C129.965 172.305 130.327 171.854 130.602 171.462L131.18 171.736C130.602 172.462 129.837 173.314 129.132 173.99L130.817 173.902C130.631 173.637 130.435 173.383 130.239 173.157L130.768 172.922C131.249 173.461 131.788 174.186 132.003 174.686L131.445 174.98C131.376 174.823 131.278 174.627 131.16 174.431C129.916 174.519 128.671 174.598 127.73 174.667L127.632 174.049C127.848 174.039 128.103 174.03 128.367 174.02C128.622 173.775 128.897 173.5 129.171 173.206C128.789 172.873 128.22 172.462 127.75 172.158L128.113 171.726ZM127.75 172.334L127.24 172.775C126.917 172.462 126.251 172.001 125.702 171.687L126.192 171.286C126.731 171.57 127.417 172.021 127.75 172.334ZM127.819 173.246L127.956 173.794C127.182 174.157 126.378 174.549 125.721 174.833L125.359 174.245C125.986 174.02 126.907 173.628 127.819 173.246ZM130.073 174.667V175.421H134.091V176.097H130.073V178.087H129.347V176.097H125.398V175.421H129.347V174.667H130.073ZM138.246 173.383V171.335H136.188V173.383H138.246ZM136.188 176.382H138.246V174.03H136.188V176.382ZM137.011 169.09L137.795 169.237C137.628 169.718 137.452 170.257 137.285 170.678H138.912V177.038H136.188V177.812H135.521V170.678H136.619C136.766 170.208 136.942 169.551 137.011 169.09ZM143.704 170.649V171.021C143.548 175.49 143.42 176.999 143.028 177.479C142.813 177.753 142.587 177.842 142.254 177.871C141.911 177.91 141.352 177.891 140.804 177.861C140.784 177.646 140.696 177.352 140.559 177.146C141.196 177.205 141.784 177.205 142.009 177.205C142.205 177.205 142.313 177.185 142.411 177.058C142.734 176.715 142.881 175.225 143.009 171.325H140.519C140.245 171.981 139.941 172.579 139.598 173.04C139.471 172.922 139.157 172.726 139 172.628C139.657 171.766 140.186 170.413 140.5 169.071L141.196 169.237C141.078 169.718 140.941 170.188 140.774 170.649H143.704ZM142.156 175.059L141.539 175.441C141.245 174.853 140.588 173.883 140.049 173.177L140.617 172.844C141.166 173.54 141.842 174.48 142.156 175.059ZM148.859 169.531C148.771 169.884 148.634 170.482 148.477 171.05C148.987 170.972 149.516 170.854 150.016 170.688L150.035 171.423C149.516 171.57 148.898 171.697 148.252 171.785C147.771 173.167 146.899 174.863 146.115 175.921L145.361 175.529C146.174 174.578 147.007 173.01 147.458 171.864C147.164 171.883 146.87 171.893 146.586 171.893C146.223 171.893 145.811 171.883 145.439 171.864L145.39 171.129C145.753 171.178 146.174 171.197 146.586 171.197C146.938 171.197 147.311 171.178 147.693 171.148C147.84 170.599 147.977 169.982 147.997 169.453L148.859 169.531ZM148.32 176.333C148.32 176.793 148.693 177.107 149.457 177.107C150.27 177.107 150.545 176.675 150.545 176.137C150.545 176.009 150.545 175.862 150.535 175.696C150.221 175.598 149.878 175.549 149.526 175.549C148.81 175.549 148.32 175.882 148.32 176.333ZM151.172 172.56C151.152 172.961 151.152 173.265 151.162 173.618C151.172 173.981 151.211 174.618 151.231 175.225C152.074 175.529 152.76 176.009 153.269 176.44L152.848 177.107C152.426 176.734 151.897 176.293 151.26 175.98C151.27 176.137 151.27 176.274 151.27 176.391C151.27 177.175 150.77 177.812 149.555 177.812C148.477 177.812 147.595 177.371 147.595 176.401C147.595 175.5 148.448 174.931 149.555 174.931C149.888 174.931 150.212 174.961 150.515 175.029C150.476 174.225 150.427 173.255 150.408 172.56H151.172ZM153.132 172.824C152.603 172.373 151.544 171.766 150.888 171.472L151.29 170.874C151.995 171.188 153.112 171.825 153.573 172.177L153.132 172.824ZM155.925 170.59C156.248 170.629 156.68 170.649 156.993 170.649H161.825C162.06 170.649 162.354 170.639 162.55 170.629C162.54 170.854 162.52 171.158 162.52 171.393V176.45C162.52 176.803 162.55 177.244 162.56 177.401H161.678C161.687 177.293 161.687 177.087 161.697 176.852H156.905C156.503 176.852 156.062 176.872 155.798 176.891V175.999C156.052 176.029 156.474 176.058 156.885 176.058H161.697V171.433H157.003C156.64 171.433 156.15 171.452 155.925 171.462V170.59ZM166.303 170.011C166.558 170.051 166.872 170.061 167.185 170.061H171.037C171.35 170.061 171.693 170.051 171.928 170.011V170.825C171.693 170.805 171.36 170.796 171.027 170.796H167.185C166.881 170.796 166.568 170.805 166.303 170.825V170.011ZM172.644 172.599C172.595 172.687 172.536 172.814 172.516 172.883C172.252 173.853 171.811 174.872 171.086 175.666C170.057 176.793 168.832 177.371 167.577 177.714L166.97 177.019C168.361 176.734 169.586 176.107 170.419 175.225C171.017 174.598 171.409 173.765 171.585 173.059H166.382C166.146 173.059 165.774 173.069 165.421 173.089V172.265C165.784 172.305 166.117 172.324 166.382 172.324H171.546C171.772 172.324 171.977 172.305 172.085 172.246L172.644 172.599ZM181.091 173.393C181.611 174.02 182.395 175.245 182.787 175.95L182.062 176.352C181.679 175.588 180.944 174.363 180.425 173.745L181.091 173.393ZM176.995 173.716C176.583 174.559 175.662 175.803 175.113 176.401L174.437 175.95C175.084 175.343 175.927 174.177 176.309 173.383L176.995 173.716ZM181.209 169.571C181.454 169.914 181.787 170.482 181.993 170.884L181.464 171.119C181.268 170.717 180.954 170.159 180.69 169.786L181.209 169.571ZM182.365 169.286C182.62 169.649 182.983 170.227 183.169 170.59L182.64 170.825C182.424 170.404 182.12 169.874 181.846 169.512L182.365 169.286ZM179.151 169.757C179.122 169.894 179.092 170.247 179.092 170.462V171.462H181.679C181.915 171.462 182.238 171.442 182.483 171.413V172.226C182.218 172.207 181.924 172.207 181.689 172.207H179.092V176.95C179.092 177.469 178.837 177.734 178.249 177.734C177.838 177.734 177.25 177.704 176.858 177.665L176.789 176.881C177.211 176.96 177.661 176.999 177.916 176.999C178.181 176.999 178.298 176.881 178.298 176.627V172.207H175.574C175.28 172.207 175.006 172.216 174.741 172.236V171.413C175.015 171.442 175.26 171.462 175.574 171.462H178.298V170.453C178.298 170.237 178.269 169.904 178.23 169.757H179.151ZM185.815 176.999C185.884 176.842 185.913 176.715 185.913 176.519V170.913C185.913 170.658 185.864 170.217 185.825 170.021H186.795C186.756 170.266 186.726 170.629 186.726 170.913V176.47C188.598 175.999 190.872 174.706 192.087 173.128L192.528 173.814C191.254 175.392 189.235 176.607 186.795 177.312C186.687 177.342 186.54 177.391 186.383 177.489L185.815 176.999ZM194.439 173.069C194.733 173.089 195.252 173.118 195.801 173.118H201.172C201.662 173.118 202.014 173.089 202.23 173.069V174.03C202.034 174.02 201.622 173.981 201.181 173.981H195.801C195.262 173.981 194.743 174 194.439 174.03V173.069ZM205.998 169.786C206.576 170.11 207.703 170.854 208.124 171.168L207.664 171.834C207.193 171.482 206.135 170.776 205.557 170.443L205.998 169.786ZM204.528 176.793C205.606 176.607 206.821 176.215 207.811 175.647C209.438 174.716 210.731 173.442 211.525 172.06L211.995 172.863C211.153 174.186 209.79 175.451 208.232 176.372C207.242 176.94 205.89 177.401 204.979 177.587L204.528 176.793ZM204.518 171.991C205.096 172.305 206.243 173.001 206.674 173.314L206.223 174C205.743 173.647 204.675 172.961 204.087 172.658L204.518 171.991ZM215.033 171.932C215.22 171.952 215.778 171.972 216.033 171.972H219.826C220.041 171.972 220.296 171.962 220.423 171.952C220.414 172.06 220.414 172.265 220.414 172.452V177.332C220.414 177.489 220.423 177.724 220.433 177.861H219.659C219.669 177.773 219.669 177.626 219.669 177.469H215.729C215.416 177.469 215.073 177.489 214.916 177.489V176.705C215.073 176.725 215.386 176.744 215.719 176.744H219.669V175H216.131C215.788 175 215.445 175.01 215.249 175.019V174.265C215.435 174.275 215.788 174.294 216.121 174.294H219.669V172.667H216.033C215.778 172.667 215.21 172.687 215.033 172.697V171.932ZM224.873 170.129C225.568 170.59 226.823 171.609 227.372 172.158L226.754 172.775C226.264 172.265 225.039 171.217 224.314 170.727L224.873 170.129ZM224.03 176.695C225.745 176.44 227.019 175.843 227.95 175.264C229.459 174.314 230.655 172.863 231.223 171.658L231.693 172.491C231.027 173.716 229.88 175.049 228.401 175.98C227.421 176.597 226.186 177.195 224.549 177.499L224.03 176.695Z" fill="black"/>
</g>
</g>
</g>
<defs>
<clipPath id="clip0_12493_33820">
<rect width="310" height="186" fill="white"/>
</clipPath>
<clipPath id="clip1_12493_33820">
<path d="M24 22C24 18.6863 26.6863 16 30 16H680C683.314 16 686 18.6863 686 22V336.457C686 339.771 683.314 342.457 680 342.457H30C26.6863 342.457 24 339.771 24 336.457V22Z" fill="white"/>
</clipPath>
<clipPath id="clip2_12493_33820">
<rect width="17.2354" height="21.8122" fill="white" transform="translate(56 96.625)"/>
</clipPath>
</defs>
</svg>
