<svg width="310" height="186" viewBox="0 0 310 186" fill="none" xmlns="http://www.w3.org/2000/svg">
<g clip-path="url(#clip0_89_37743)">
<rect width="310" height="186" fill="var(--web-system-color-articleFigure-background, #F5F5F5)"/>
<rect width="310" height="186" fill="var(--web-system-color-articleFigure-background, #F5F5F5)"/>
<g clip-path="url(#clip1_89_37743)">
<path d="M24 22C24 18.6863 26.6863 16 30 16H680C683.314 16 686 18.6863 686 22V336.457C686 339.771 683.314 342.457 680 342.457H30C26.6863 342.457 24 339.771 24 336.457V22Z" fill="white"/>
<rect x="24" y="15.7266" width="295" height="14" fill="#E6E6E6"/>
<circle cx="33.5" cy="23.2266" r="3.5" fill="#E5B2B2"/>
<circle cx="43.5" cy="23.2266" r="3.5" fill="#E4CA8E"/>
<circle cx="53.5" cy="23.2266" r="3.5" fill="#B3D4A6"/>
<g opacity="0.3">
<path d="M60.7551 59.6868V78.1001H58.3143V59.6868H60.7551ZM67.1795 67.3379V78.1001H64.8399V64.4166H67.053L67.1795 67.3379ZM66.623 70.7398L65.6493 70.7019C65.6577 69.7661 65.7968 68.9019 66.0666 68.1094C66.3364 67.3084 66.7158 66.6129 67.2048 66.0227C67.6938 65.4325 68.2755 64.9773 68.95 64.6569C69.6329 64.3281 70.3875 64.1637 71.2137 64.1637C71.8882 64.1637 72.4952 64.2564 73.0348 64.4419C73.5744 64.6189 74.0339 64.9056 74.4133 65.3019C74.8011 65.6981 75.0962 66.2124 75.2985 66.8447C75.5009 67.4686 75.6021 68.2316 75.6021 69.1337V78.1001H73.2498V69.1084C73.2498 68.3918 73.1444 67.8185 72.9336 67.3885C72.7229 66.9501 72.4151 66.634 72.0104 66.44C71.6058 66.2377 71.1083 66.1365 70.5182 66.1365C69.9364 66.1365 69.4053 66.2588 68.9247 66.5033C68.4526 66.7478 68.0437 67.085 67.698 67.515C67.3608 67.945 67.0952 68.4382 66.9013 68.9946C66.7158 69.5426 66.623 70.1244 66.623 70.7398ZM87.7806 75.4443V58.6751H90.1329V78.1001H87.983L87.7806 75.4443ZM78.574 71.4101V71.1445C78.574 70.0991 78.7004 69.1506 78.9534 68.2991C79.2147 67.4391 79.5815 66.7014 80.0536 66.0859C80.5342 65.4705 81.1033 64.9983 81.7609 64.6695C82.4269 64.3323 83.1689 64.1637 83.9867 64.1637C84.8466 64.1637 85.597 64.3154 86.2377 64.6189C86.8869 64.914 87.4349 65.3482 87.8818 65.9215C88.3371 66.4864 88.6954 67.1693 88.9567 67.9703C89.2181 68.7712 89.3994 69.6775 89.5005 70.6893V71.8527C89.4078 72.856 89.2265 73.7581 88.9567 74.5591C88.6954 75.36 88.3371 76.0429 87.8818 76.6078C87.4349 77.1727 86.8869 77.6069 86.2377 77.9104C85.5886 78.2055 84.8298 78.353 83.9614 78.353C83.1604 78.353 82.4269 78.1802 81.7609 77.8345C81.1033 77.4889 80.5342 77.0041 80.0536 76.3802C79.5815 75.7563 79.2147 75.0228 78.9534 74.1797C78.7004 73.3282 78.574 72.405 78.574 71.4101ZM80.9262 71.1445V71.4101C80.9262 72.093 80.9937 72.7338 81.1286 73.3324C81.2719 73.931 81.4911 74.4579 81.7862 74.9132C82.0813 75.3685 82.4564 75.7268 82.9117 75.9881C83.367 76.2411 83.9108 76.3675 84.5431 76.3675C85.3188 76.3675 85.9553 76.2031 86.4527 75.8743C86.9586 75.5455 87.3633 75.1113 87.6668 74.5717C87.9703 74.0321 88.2064 73.4462 88.375 72.8139V69.7661C88.2738 69.3024 88.1263 68.8555 87.9324 68.4255C87.7469 67.9871 87.5024 67.5993 87.1989 67.2621C86.9038 66.9164 86.537 66.6424 86.0986 66.44C85.6687 66.2377 85.1586 66.1365 84.5684 66.1365C83.9277 66.1365 83.3754 66.2714 82.9117 66.5412C82.4564 66.8026 82.0813 67.1651 81.7862 67.6288C81.4911 68.0841 81.2719 68.6152 81.1286 69.2223C80.9937 69.8209 80.9262 70.4616 80.9262 71.1445ZM99.4533 78.353C98.5006 78.353 97.6364 78.1928 96.8608 77.8725C96.0936 77.5437 95.4317 77.0842 94.8753 76.494C94.3273 75.9038 93.9057 75.2041 93.6106 74.3947C93.3156 73.5853 93.168 72.7 93.168 71.7389V71.2078C93.168 70.0949 93.3324 69.1042 93.6612 68.2358C93.99 67.359 94.4369 66.6171 95.0018 66.0101C95.5666 65.403 96.2074 64.9435 96.924 64.6316C97.6407 64.3196 98.3826 64.1637 99.1498 64.1637C100.128 64.1637 100.971 64.3323 101.679 64.6695C102.396 65.0068 102.982 65.4789 103.437 66.0859C103.892 66.6845 104.229 67.3927 104.449 68.2105C104.668 69.0199 104.777 69.9052 104.777 70.8663V71.916H94.5591V70.0063H102.438V69.8293C102.404 69.2223 102.278 68.6321 102.058 68.0588C101.848 67.4855 101.51 67.0133 101.047 66.6424C100.583 66.2714 99.9507 66.0859 99.1498 66.0859C98.6187 66.0859 98.1297 66.1998 97.6828 66.4274C97.236 66.6466 96.8524 66.9754 96.532 67.4138C96.2116 67.8522 95.9629 68.3876 95.7858 69.0199C95.6088 69.6522 95.5203 70.3815 95.5203 71.2078V71.7389C95.5203 72.3881 95.6088 72.9993 95.7858 73.5727C95.9713 74.1375 96.2369 74.635 96.5826 75.0649C96.9367 75.4949 97.3624 75.8322 97.8599 76.0767C98.3657 76.3212 98.939 76.4434 99.5798 76.4434C100.406 76.4434 101.106 76.2748 101.679 75.9375C102.252 75.6003 102.754 75.1493 103.184 74.5844L104.6 75.7099C104.305 76.1568 103.93 76.5825 103.475 76.9872C103.02 77.3919 102.459 77.7207 101.793 77.9736C101.135 78.2266 100.355 78.353 99.4533 78.353ZM109.09 64.4166L112.087 69.3993L115.122 64.4166H117.867L113.39 71.1698L118.006 78.1001H115.299L112.138 72.9656L108.976 78.1001H106.257L110.86 71.1698L106.396 64.4166H109.09Z" fill="black"/>
</g>
<g opacity="0.3" clip-path="url(#clip2_89_37743)">
<g style="mix-blend-mode:multiply">
<path d="M65.0664 103.534L72.9496 109.461L65.0664 115.389L57.1832 109.461L65.0664 103.534Z" fill="var(--web-system-color-mvShape-foreground-arc-index, #428CFE)"/>
</g>
</g>
<path d="M84.2499 104.25V113.725H82.3796V106.406L80.1326 107.121V105.646L84.0486 104.25H84.2499ZM87.497 112.822C87.497 112.545 87.5922 112.314 87.7827 112.128C87.9776 111.941 88.2352 111.848 88.5555 111.848C88.8759 111.848 89.1313 111.941 89.3218 112.128C89.5167 112.314 89.6141 112.545 89.6141 112.822C89.6141 113.099 89.5167 113.331 89.3218 113.517C89.1313 113.703 88.8759 113.797 88.5555 113.797C88.2352 113.797 87.9776 113.703 87.7827 113.517C87.5922 113.331 87.497 113.099 87.497 112.822ZM97.4699 103.684C97.8955 103.75 98.4408 103.79 98.893 103.79H103.242C103.694 103.79 104.226 103.75 104.679 103.684V105.399C104.226 105.373 103.708 105.359 103.242 105.359H98.893C98.4408 105.359 97.8689 105.373 97.4699 105.399V103.684ZM95.9271 107.088C96.3261 107.142 96.7916 107.168 97.2039 107.168H105.915C106.195 107.168 106.78 107.142 107.126 107.088V108.817C106.793 108.791 106.288 108.777 105.915 108.777H102.71C102.63 110.147 102.338 111.265 101.859 112.196C101.393 113.127 100.369 114.151 99.1856 114.749L97.6295 113.619C98.5738 113.26 99.5048 112.501 100.037 111.717C100.582 110.892 100.808 109.895 100.861 108.777H97.2039C96.8182 108.777 96.2995 108.804 95.9271 108.831V107.088ZM105.477 102.766C105.809 103.258 106.275 104.096 106.527 104.588L105.463 105.053C105.184 104.508 104.772 103.71 104.413 103.205L105.477 102.766ZM107.046 102.167C107.392 102.673 107.884 103.511 108.123 103.976L107.059 104.442C106.78 103.883 106.354 103.112 105.995 102.606L107.046 102.167ZM119.136 103.378C119.388 103.91 119.694 104.681 119.841 105.2L118.923 105.492C118.737 104.934 118.497 104.202 118.245 103.67L119.136 103.378ZM120.506 102.952C120.758 103.484 121.064 104.255 121.237 104.761L120.319 105.053C120.133 104.482 119.88 103.763 119.601 103.245L120.506 102.952ZM117.992 108.046C117.992 111.344 117.207 113.353 113.989 114.776L112.565 113.432C115.132 112.528 116.263 111.384 116.263 108.112V107.607H113.111V109.416C113.111 110.014 113.151 110.546 113.164 110.812H111.302C111.342 110.546 111.382 110.014 111.382 109.416V107.607H110.251C109.586 107.607 109.107 107.647 108.815 107.66V105.851C109.054 105.891 109.586 105.971 110.251 105.971H111.382V104.654C111.382 104.269 111.342 103.87 111.302 103.457H113.191C113.164 103.71 113.111 104.136 113.111 104.668V105.971H116.263V104.575C116.263 104.043 116.223 103.604 116.183 103.338H118.085C118.045 103.617 117.992 104.043 117.992 104.575V105.971H118.976C119.681 105.971 120.08 105.945 120.439 105.878V107.647C120.146 107.62 119.681 107.607 118.989 107.607H117.992V108.046ZM122.394 108.551C124.775 107.94 126.73 107.075 128.206 106.171C129.576 105.319 131.092 103.989 131.957 102.939L133.393 104.309C132.382 105.306 131.106 106.344 129.816 107.195V112.568C129.816 113.153 129.842 113.978 129.935 114.31H127.834C127.887 113.991 127.927 113.153 127.927 112.568V108.312C126.557 109.03 124.868 109.748 123.232 110.227L122.394 108.551ZM138.075 103.617C139.006 104.242 140.735 105.625 141.506 106.437L140.15 107.82C139.458 107.075 137.796 105.625 136.825 104.947L138.075 103.617ZM136.412 112.475C138.487 112.182 140.216 111.504 141.506 110.733C143.781 109.389 145.51 107.354 146.347 105.559L147.385 107.434C146.374 109.23 144.605 111.065 142.464 112.355C141.121 113.166 139.405 113.911 137.53 114.23L136.412 112.475ZM152.279 103.191C153.157 103.67 154.62 104.615 155.312 105.093L154.314 106.57C153.569 106.051 152.186 105.147 151.308 104.654L152.279 103.191ZM149.805 112.634C151.295 112.382 152.891 111.943 154.341 111.145C156.602 109.881 158.45 108.059 159.514 106.157L160.539 107.966C159.302 109.802 157.426 111.491 155.245 112.741C153.889 113.512 151.987 114.177 150.803 114.39L149.805 112.634ZM150.231 106.224C151.122 106.703 152.585 107.62 153.263 108.099L152.293 109.589C151.534 109.07 150.151 108.166 149.26 107.7L150.231 106.224ZM172.562 104.708C172.455 104.854 172.216 105.266 172.096 105.532C171.644 106.57 170.899 107.993 170.008 109.19C171.325 110.334 172.934 112.036 173.719 112.994L172.203 114.31C171.338 113.113 170.101 111.757 168.851 110.546C167.441 112.036 165.672 113.419 163.85 114.284L162.48 112.847C164.622 112.049 166.683 110.427 167.933 109.03C168.811 108.033 169.622 106.716 169.915 105.772H165.406C164.848 105.772 164.116 105.851 163.837 105.865V103.976C164.196 104.029 165.007 104.069 165.406 104.069H170.101C170.673 104.069 171.205 103.989 171.471 103.896L172.562 104.708ZM177.443 103.524C177.882 103.59 178.427 103.617 178.866 103.617H184.213C184.665 103.617 185.197 103.59 185.649 103.524V105.24C185.197 105.213 184.678 105.186 184.213 105.186H178.879C178.414 105.186 177.855 105.213 177.443 105.24V103.524ZM175.9 106.929C176.299 106.969 176.765 107.009 177.177 107.009H185.888C186.168 107.009 186.753 106.982 187.099 106.929V108.658C186.766 108.631 186.261 108.618 185.888 108.618H182.683C182.603 109.988 182.311 111.105 181.832 112.036C181.366 112.954 180.342 113.991 179.159 114.59L177.602 113.459C178.547 113.1 179.478 112.329 180.01 111.557C180.555 110.733 180.781 109.735 180.834 108.618H177.177C176.778 108.618 176.272 108.644 175.9 108.671V106.929ZM195.048 103.697C194.875 104.096 194.676 104.588 194.476 105.173C194.051 106.477 192.974 109.855 192.309 111.637C193.931 111.477 195.82 111.265 197.163 111.105C196.698 110.147 196.205 109.256 195.767 108.671L197.429 107.993C198.373 109.429 199.73 112.036 200.342 113.526L198.546 114.324C198.373 113.871 198.161 113.326 197.908 112.754C195.753 113.007 191.723 113.432 190.048 113.605C189.715 113.645 189.223 113.712 188.797 113.765L188.491 111.823C188.944 111.823 189.516 111.823 189.954 111.81C190.061 111.81 190.194 111.797 190.314 111.797C191.085 109.828 192.229 106.184 192.614 104.801C192.801 104.122 192.88 103.71 192.934 103.258L195.048 103.697ZM213.296 109.043C213.296 111.85 211.58 113.831 208.229 114.35L207.231 112.767C207.737 112.714 208.109 112.634 208.468 112.555C210.17 112.156 211.5 110.932 211.5 108.99C211.5 107.155 210.503 105.785 208.707 105.479C208.521 106.61 208.295 107.833 207.909 109.083C207.111 111.77 205.968 113.419 204.518 113.419C203.042 113.419 201.818 111.797 201.818 109.549C201.818 106.477 204.478 103.856 207.923 103.856C211.221 103.856 213.296 106.144 213.296 109.043ZM203.52 109.376C203.52 110.719 204.052 111.371 204.571 111.371C205.13 111.371 205.648 110.533 206.194 108.738C206.5 107.753 206.752 106.623 206.899 105.519C204.704 105.971 203.52 107.913 203.52 109.376ZM221.728 104.309V104.335C221.728 105.559 221.489 107.102 220.185 108.086C219.919 107.82 219.228 107.368 218.882 107.195C220.079 106.357 220.225 105.2 220.225 104.295V102.925H225.04V105.812C225.04 106.051 225.04 106.171 225.08 106.224C225.12 106.264 225.186 106.277 225.266 106.277H225.545C225.612 106.277 225.705 106.264 225.745 106.237C225.798 106.211 225.851 106.131 225.878 105.945C225.904 105.758 225.918 105.333 225.931 104.841C226.21 105.08 226.742 105.333 227.115 105.466C227.088 106.024 227.022 106.636 226.915 106.902C226.822 107.168 226.662 107.341 226.41 107.474C226.21 107.58 225.864 107.634 225.612 107.634H224.814C224.455 107.634 224.056 107.527 223.816 107.288C223.564 107.035 223.444 106.743 223.444 105.865V104.309H221.728ZM217.472 102.473L218.962 103.072C218.084 104.309 216.714 105.625 215.451 106.437C215.278 106.091 214.919 105.439 214.666 105.107C215.703 104.455 216.9 103.364 217.472 102.473ZM217.884 105.253L219.294 105.838C218.948 106.41 218.523 106.995 218.071 107.554V114.869H216.541V109.23C216.142 109.615 215.756 109.961 215.371 110.254C215.224 109.908 214.799 109.083 214.533 108.738C215.756 107.9 217.086 106.57 217.884 105.253ZM224.175 109.602H221.436C221.768 110.28 222.22 110.879 222.779 111.411C223.337 110.879 223.816 110.28 224.175 109.602ZM225.266 108.112L226.33 108.591C225.838 110.147 225.053 111.384 224.042 112.355C224.947 112.887 226.037 113.286 227.274 113.512C226.915 113.858 226.49 114.496 226.263 114.922C224.894 114.603 223.736 114.084 222.779 113.393C221.781 114.058 220.651 114.563 219.441 114.922C219.241 114.51 218.869 113.911 218.576 113.592C219.667 113.326 220.677 112.9 221.582 112.329C220.943 111.65 220.425 110.866 219.999 109.961L221.183 109.602H219.308V108.179H224.973L225.266 108.112ZM232.94 111.969H230.293V113.1H232.94V111.969ZM228.87 114.869V110.786H234.443V114.749H232.94V114.284H230.293V114.869H228.87ZM233.685 105.825V104.841H229.522V105.825H230.879V105.107H232.328V105.825H233.685ZM232.355 102.54V103.657H235.148V105.931H234.456V106.942H232.328V107.501H234.27V108.551H232.328V109.123H235.002V110.334H228.165V109.123H230.879V108.551H228.91V107.501H230.879V106.942H228.777V105.931H228.125V103.657H230.839V102.54H232.355ZM237.209 103.87V111.304H235.706V103.87H237.209ZM238.46 102.699H239.989V112.954C239.989 113.831 239.829 114.284 239.297 114.523C238.779 114.789 237.954 114.842 236.864 114.842C236.797 114.39 236.571 113.659 236.345 113.206C237.116 113.246 237.874 113.233 238.14 113.233C238.366 113.233 238.46 113.153 238.46 112.94V102.699Z" fill="black"/>
<g opacity="0.3">
<path d="M99.9063 132.952V139.958H99.0211V134.057L97.2362 134.708V133.909L99.7676 132.952H99.9063ZM102.62 139.489C102.62 139.339 102.666 139.213 102.758 139.111C102.854 139.005 102.991 138.953 103.17 138.953C103.348 138.953 103.484 139.005 103.577 139.111C103.672 139.213 103.72 139.339 103.72 139.489C103.72 139.635 103.672 139.76 103.577 139.862C103.484 139.964 103.348 140.015 103.17 140.015C102.991 140.015 102.854 139.964 102.758 139.862C102.666 139.76 102.62 139.635 102.62 139.489ZM108.003 132.952V139.958H107.118V134.057L105.333 134.708V133.909L107.864 132.952H108.003ZM112.928 135.744H121.827V136.537H112.928V135.744ZM125.688 139.242L126.344 139.556C125.551 140.016 124.326 140.467 123.355 140.732C123.228 140.595 122.983 140.31 122.816 140.183C123.816 139.977 124.992 139.634 125.688 139.242ZM129.667 136.361V135.704H124.757V136.361H129.667ZM129.667 137.508V136.831H124.757V137.508H129.667ZM129.667 138.664V137.978H124.757V138.664H129.667ZM130.392 135.214V139.144H124.051V135.214H130.392ZM127.971 139.644L128.54 139.262C129.618 139.595 130.784 140.016 131.499 140.33L130.754 140.722C130.117 140.408 129.049 139.997 127.971 139.644ZM127.422 134.283H129.392L129.441 133.676H127.501C127.471 133.891 127.442 134.097 127.422 134.283ZM124.933 133.676L124.855 134.283H126.746C126.776 134.097 126.795 133.891 126.825 133.676H124.933ZM126.942 132.598H125.08L125.002 133.166H126.883C126.913 132.97 126.923 132.784 126.942 132.598ZM129.48 133.166L129.529 132.598H127.618L127.56 133.166H129.48ZM130.206 133.117H131.529V133.725H130.157L130.068 134.773H124.1L124.237 133.725H122.797V133.117H124.316L124.453 132.118H130.284L130.206 133.117ZM132.93 136.312L132.362 136.116C132.626 135.469 132.803 134.401 132.871 133.607L133.42 133.686C133.371 134.489 133.185 135.597 132.93 136.312ZM133.773 140.702V131.755H134.498V140.702H133.773ZM134.567 133.558L135.076 133.323C135.37 133.852 135.674 134.548 135.792 134.96L135.243 135.224C135.135 134.803 134.841 134.097 134.567 133.558ZM138.869 139.673H141.319V140.369H135.341V139.673H138.144V137.223H136.066V136.547H138.144V134.519H136.713C136.517 135.107 136.291 135.616 136.027 136.038C135.88 135.94 135.556 135.783 135.38 135.704C135.948 134.852 136.34 133.539 136.566 132.206L137.271 132.323C137.173 132.833 137.056 133.343 136.919 133.823H138.144V131.794H138.869V133.823H141.084V134.519H138.869V136.547H140.868V137.223H138.869V139.673ZM150.756 136.528C150.756 138.586 149.404 139.958 147.081 140.261L146.621 139.536C146.934 139.507 147.238 139.458 147.463 139.409C148.718 139.125 149.953 138.194 149.953 136.498C149.953 135.018 149.002 133.793 147.336 133.656C147.209 134.568 147.022 135.567 146.748 136.479C146.15 138.497 145.376 139.526 144.465 139.526C143.592 139.526 142.72 138.527 142.72 136.91C142.72 134.783 144.612 132.921 147.003 132.921C149.296 132.921 150.756 134.538 150.756 136.528ZM143.485 136.841C143.485 138.076 144.053 138.625 144.494 138.625C144.955 138.625 145.474 137.968 145.974 136.312C146.219 135.499 146.415 134.568 146.523 133.666C144.641 133.901 143.485 135.508 143.485 136.841ZM157.018 138.635V139.654H158.341V138.635H157.018ZM158.341 136.459V135.459H157.018V136.459H158.341ZM158.341 138.066V137.027H157.018V138.066H158.341ZM154.755 138.87V135.891H153.49V138.87H154.755ZM161.027 139.654V140.281H157.018V140.702H156.332V136.057C156.166 136.224 155.989 136.371 155.813 136.518C155.725 136.4 155.519 136.194 155.372 136.057V139.507H153.49V140.271H152.893V137.116C152.726 137.459 152.55 137.782 152.344 138.066C152.265 137.9 152.06 137.547 151.932 137.39C152.648 136.351 153.059 134.783 153.314 133.088H152.207V132.421H155.646V133.088H154C153.892 133.842 153.745 134.577 153.559 135.263H155.372V135.93C156.195 135.303 156.862 134.43 157.352 133.392H156.303V134.421H155.666V132.755H157.626C157.753 132.431 157.861 132.098 157.949 131.755L158.645 131.892C158.557 132.186 158.469 132.48 158.371 132.755H160.978V134.421H160.321V133.392H158.116C157.881 133.911 157.626 134.401 157.322 134.842H158.518C158.684 134.47 158.861 134.019 158.959 133.686L159.645 133.852C159.488 134.185 159.321 134.538 159.174 134.842H160.723V135.459H159.027V136.459H160.566V137.027H159.027V138.066H160.566V138.635H159.027V139.654H161.027ZM164.182 131.784L164.868 131.99C164.584 132.696 164.251 133.392 163.869 134.029V140.683H163.173V135.097C162.84 135.567 162.477 135.989 162.124 136.351C162.046 136.194 161.84 135.812 161.713 135.646C162.683 134.715 163.624 133.264 164.182 131.784ZM165.878 132.872V134.666H169.513V132.872H165.878ZM170.778 137.194H168.455C169.102 138.223 170.092 139.213 171.032 139.722C170.876 139.85 170.64 140.114 170.513 140.301C169.641 139.732 168.7 138.713 168.034 137.645V140.712H167.308V137.674C166.622 138.752 165.642 139.732 164.692 140.281C164.564 140.105 164.349 139.84 164.182 139.703C165.192 139.203 166.23 138.233 166.887 137.194H164.466V136.528H167.308V135.312H165.192V132.216H170.239V135.312H168.034V136.528H170.778V137.194Z" fill="black"/>
<path d="M99.9063 151.627V158.632H99.0211V152.732L97.2362 153.383V152.584L99.7676 151.627H99.9063ZM102.62 158.163C102.62 158.013 102.666 157.887 102.758 157.785C102.854 157.68 102.991 157.627 103.17 157.627C103.348 157.627 103.484 157.68 103.577 157.785C103.672 157.887 103.72 158.013 103.72 158.163C103.72 158.31 103.672 158.435 103.577 158.537C103.484 158.639 103.348 158.69 103.17 158.69C102.991 158.69 102.854 158.639 102.758 158.537C102.666 158.435 102.62 158.31 102.62 158.163ZM109.658 157.905V158.632H105.098V157.996L107.381 155.455C107.661 155.142 107.878 154.878 108.032 154.661C108.188 154.441 108.296 154.244 108.357 154.072C108.421 153.897 108.453 153.718 108.453 153.536C108.453 153.306 108.405 153.099 108.309 152.914C108.217 152.726 108.079 152.576 107.898 152.464C107.716 152.353 107.496 152.297 107.237 152.297C106.928 152.297 106.669 152.357 106.462 152.479C106.258 152.597 106.105 152.763 106.003 152.976C105.901 153.19 105.85 153.436 105.85 153.713H104.964C104.964 153.321 105.05 152.962 105.223 152.637C105.395 152.311 105.65 152.053 105.988 151.861C106.326 151.667 106.743 151.569 107.237 151.569C107.677 151.569 108.054 151.648 108.367 151.804C108.679 151.957 108.918 152.174 109.084 152.455C109.253 152.732 109.338 153.058 109.338 153.431C109.338 153.635 109.303 153.842 109.233 154.053C109.166 154.26 109.072 154.468 108.95 154.675C108.832 154.882 108.693 155.087 108.534 155.288C108.378 155.488 108.21 155.686 108.032 155.881L106.165 157.905H109.658ZM113.147 158.163C113.147 158.013 113.193 157.887 113.286 157.785C113.381 157.68 113.519 157.627 113.697 157.627C113.876 157.627 114.011 157.68 114.104 157.785C114.2 157.887 114.247 158.013 114.247 158.163C114.247 158.31 114.2 158.435 114.104 158.537C114.011 158.639 113.876 158.69 113.697 158.69C113.519 158.69 113.381 158.639 113.286 158.537C113.193 158.435 113.147 158.31 113.147 158.163ZM120.285 151.772V152.429H115.542V151.772H117.609V150.459H118.305V151.772H120.285ZM120.324 154.556L119.716 154.899C119.53 154.379 119.03 153.585 118.55 153.017L119.119 152.723C119.609 153.282 120.128 154.046 120.324 154.556ZM116.688 152.772L117.374 152.958C117.031 153.791 116.473 154.644 115.914 155.202C115.796 155.085 115.512 154.869 115.355 154.771C115.894 154.271 116.394 153.517 116.688 152.772ZM118.57 154.428L119.285 154.575C119.099 155.212 118.864 155.8 118.589 156.339C119.079 156.78 119.501 157.221 119.775 157.574L119.315 158.172C119.06 157.819 118.678 157.398 118.237 156.966C117.609 157.956 116.816 158.76 115.855 159.358C115.767 159.22 115.512 158.917 115.355 158.789C116.335 158.231 117.129 157.447 117.717 156.467C117.276 156.075 116.806 155.683 116.375 155.349L116.806 154.85C117.198 155.144 117.629 155.496 118.05 155.849C118.256 155.408 118.433 154.938 118.57 154.428ZM124.156 152.684V153.037C124.068 157.162 123.979 158.525 123.666 158.936C123.489 159.191 123.303 159.269 122.999 159.299C122.705 159.328 122.225 159.318 121.745 159.299C121.735 159.103 121.657 158.809 121.539 158.613C122.059 158.662 122.519 158.672 122.705 158.672C122.872 158.672 122.97 158.642 123.058 158.515C123.284 158.231 123.391 156.947 123.47 153.37H122.039C121.921 155.888 121.49 158.084 119.912 159.416C119.795 159.26 119.55 159.015 119.373 158.907C120.843 157.711 121.235 155.692 121.343 153.37H120.157V152.684H121.373C121.392 151.988 121.392 151.263 121.392 150.538H122.098C122.098 151.263 122.088 151.988 122.068 152.684H124.156ZM134.103 155.8L133.564 156.261C133.093 155.849 132.123 155.261 131.359 154.869L131.868 154.458C132.613 154.82 133.593 155.398 134.103 155.8ZM133.054 152.468L133.691 152.801C133.191 153.252 132.564 153.703 132.064 154.017L131.545 153.703C132.025 153.38 132.682 152.85 133.054 152.468ZM128.115 153.046L128.389 153.223C128.644 152.899 128.909 152.507 129.095 152.194H125.694V151.537H129.35V150.44H130.075V151.537H133.819V152.194H129.556L129.81 152.292C129.507 152.713 129.144 153.164 128.83 153.507C129.105 153.703 129.369 153.899 129.575 154.075C129.967 153.625 130.33 153.174 130.604 152.782L131.182 153.056C130.604 153.781 129.84 154.634 129.134 155.31L130.82 155.222C130.634 154.957 130.438 154.703 130.242 154.477L130.771 154.242C131.251 154.781 131.79 155.506 132.006 156.006L131.447 156.3C131.378 156.143 131.28 155.947 131.163 155.751C129.918 155.839 128.674 155.918 127.733 155.986L127.635 155.369C127.85 155.359 128.105 155.349 128.37 155.34C128.625 155.095 128.899 154.82 129.173 154.526C128.791 154.193 128.223 153.781 127.752 153.478L128.115 153.046ZM127.752 153.654L127.243 154.095C126.919 153.781 126.253 153.321 125.704 153.007L126.194 152.605C126.733 152.89 127.419 153.34 127.752 153.654ZM127.821 154.565L127.958 155.114C127.184 155.477 126.38 155.869 125.724 156.153L125.361 155.565C125.988 155.34 126.91 154.948 127.821 154.565ZM130.075 155.986V156.741H134.093V157.417H130.075V159.407H129.35V157.417H125.4V156.741H129.35V155.986H130.075ZM138.248 154.703V152.654H136.19V154.703H138.248ZM136.19 157.701H138.248V155.349H136.19V157.701ZM137.013 150.41L137.797 150.557C137.631 151.037 137.454 151.576 137.288 151.998H138.915V158.358H136.19V159.132H135.524V151.998H136.621C136.768 151.527 136.945 150.871 137.013 150.41ZM143.707 151.968V152.341C143.55 156.81 143.423 158.319 143.031 158.799C142.815 159.073 142.59 159.162 142.256 159.191C141.913 159.23 141.355 159.211 140.806 159.181C140.786 158.966 140.698 158.672 140.561 158.466C141.198 158.525 141.786 158.525 142.011 158.525C142.207 158.525 142.315 158.505 142.413 158.378C142.737 158.035 142.884 156.545 143.011 152.645H140.522C140.247 153.301 139.944 153.899 139.601 154.36C139.473 154.242 139.16 154.046 139.003 153.948C139.659 153.086 140.189 151.733 140.502 150.391L141.198 150.557C141.08 151.037 140.943 151.508 140.777 151.968H143.707ZM142.158 156.378L141.541 156.761C141.247 156.173 140.59 155.202 140.051 154.497L140.62 154.164C141.169 154.859 141.845 155.8 142.158 156.378ZM148.862 150.851C148.773 151.204 148.636 151.802 148.479 152.37C148.989 152.292 149.518 152.174 150.018 152.008L150.038 152.743C149.518 152.89 148.901 153.017 148.254 153.105C147.774 154.487 146.902 156.182 146.118 157.241L145.363 156.849C146.176 155.898 147.009 154.33 147.46 153.184C147.166 153.203 146.872 153.213 146.588 153.213C146.225 153.213 145.814 153.203 145.441 153.184L145.392 152.449C145.755 152.498 146.176 152.517 146.588 152.517C146.941 152.517 147.313 152.498 147.695 152.468C147.842 151.919 147.98 151.302 147.999 150.773L148.862 150.851ZM148.323 157.652C148.323 158.113 148.695 158.427 149.459 158.427C150.273 158.427 150.547 157.995 150.547 157.456C150.547 157.329 150.547 157.182 150.537 157.015C150.224 156.917 149.881 156.868 149.528 156.868C148.813 156.868 148.323 157.202 148.323 157.652ZM151.174 153.879C151.155 154.281 151.155 154.585 151.165 154.938C151.174 155.3 151.214 155.937 151.233 156.545C152.076 156.849 152.762 157.329 153.272 157.76L152.85 158.427C152.429 158.054 151.9 157.613 151.263 157.3C151.272 157.456 151.272 157.594 151.272 157.711C151.272 158.495 150.773 159.132 149.557 159.132C148.479 159.132 147.597 158.691 147.597 157.721C147.597 156.819 148.45 156.251 149.557 156.251C149.891 156.251 150.214 156.28 150.518 156.349C150.479 155.545 150.43 154.575 150.41 153.879H151.174ZM153.134 154.144C152.605 153.693 151.547 153.086 150.89 152.792L151.292 152.194C151.998 152.507 153.115 153.144 153.575 153.497L153.134 154.144ZM155.927 151.91C156.251 151.949 156.682 151.968 156.996 151.968H161.827C162.062 151.968 162.356 151.959 162.552 151.949C162.542 152.174 162.523 152.478 162.523 152.713V157.77C162.523 158.123 162.552 158.564 162.562 158.721H161.68C161.69 158.613 161.69 158.407 161.7 158.172H156.907C156.506 158.172 156.065 158.191 155.8 158.211V157.319C156.055 157.349 156.476 157.378 156.888 157.378H161.7V152.752H157.005C156.643 152.752 156.153 152.772 155.927 152.782V151.91ZM166.306 151.331C166.56 151.371 166.874 151.38 167.188 151.38H171.039C171.353 151.38 171.696 151.371 171.931 151.331V152.145C171.696 152.125 171.362 152.115 171.029 152.115H167.188C166.884 152.115 166.57 152.125 166.306 152.145V151.331ZM172.646 153.919C172.597 154.007 172.538 154.134 172.519 154.203C172.254 155.173 171.813 156.192 171.088 156.986C170.059 158.113 168.834 158.691 167.58 159.034L166.972 158.338C168.364 158.054 169.589 157.427 170.422 156.545C171.019 155.918 171.411 155.085 171.588 154.379H166.384C166.149 154.379 165.776 154.389 165.424 154.409V153.585C165.786 153.625 166.119 153.644 166.384 153.644H171.549C171.774 153.644 171.98 153.625 172.088 153.566L172.646 153.919ZM181.094 154.712C181.613 155.34 182.397 156.565 182.789 157.27L182.064 157.672C181.682 156.908 180.947 155.683 180.427 155.065L181.094 154.712ZM176.997 155.036C176.586 155.879 175.665 157.123 175.116 157.721L174.44 157.27C175.086 156.663 175.929 155.496 176.311 154.703L176.997 155.036ZM181.211 150.89C181.456 151.233 181.79 151.802 181.995 152.204L181.466 152.439C181.27 152.037 180.957 151.478 180.692 151.106L181.211 150.89ZM182.368 150.606C182.623 150.969 182.985 151.547 183.171 151.91L182.642 152.145C182.427 151.723 182.123 151.194 181.848 150.832L182.368 150.606ZM179.153 151.077C179.124 151.214 179.095 151.567 179.095 151.782V152.782H181.682C181.917 152.782 182.24 152.762 182.485 152.733V153.546C182.221 153.527 181.927 153.527 181.692 153.527H179.095V158.27C179.095 158.789 178.84 159.054 178.252 159.054C177.84 159.054 177.252 159.024 176.86 158.985L176.792 158.201C177.213 158.28 177.664 158.319 177.919 158.319C178.183 158.319 178.301 158.201 178.301 157.946V153.527H175.576C175.282 153.527 175.008 153.536 174.743 153.556V152.733C175.018 152.762 175.263 152.782 175.576 152.782H178.301V151.772C178.301 151.557 178.271 151.224 178.232 151.077H179.153ZM185.817 158.319C185.886 158.162 185.915 158.035 185.915 157.839V152.233C185.915 151.978 185.866 151.537 185.827 151.341H186.797C186.758 151.586 186.729 151.949 186.729 152.233V157.79C188.601 157.319 190.874 156.026 192.089 154.448L192.53 155.134C191.256 156.712 189.238 157.927 186.797 158.632C186.69 158.662 186.543 158.711 186.386 158.809L185.817 158.319ZM194.441 154.389C194.735 154.409 195.255 154.438 195.804 154.438H201.174C201.664 154.438 202.017 154.409 202.232 154.389V155.349C202.036 155.34 201.625 155.3 201.184 155.3H195.804C195.265 155.3 194.745 155.32 194.441 155.349V154.389ZM206 151.106C206.578 151.429 207.705 152.174 208.127 152.488L207.666 153.154C207.196 152.801 206.137 152.096 205.559 151.763L206 151.106ZM204.53 158.113C205.608 157.927 206.823 157.535 207.813 156.966C209.44 156.035 210.734 154.761 211.527 153.38L211.998 154.183C211.155 155.506 209.793 156.77 208.235 157.692C207.245 158.26 205.892 158.721 204.981 158.907L204.53 158.113ZM204.52 153.311C205.099 153.625 206.245 154.32 206.676 154.634L206.226 155.32C205.745 154.967 204.677 154.281 204.089 153.977L204.52 153.311ZM215.036 153.252C215.222 153.272 215.781 153.291 216.035 153.291H219.828C220.044 153.291 220.298 153.282 220.426 153.272C220.416 153.38 220.416 153.585 220.416 153.772V158.652C220.416 158.809 220.426 159.044 220.436 159.181H219.661C219.671 159.093 219.671 158.946 219.671 158.789H215.732C215.418 158.789 215.075 158.809 214.918 158.809V158.025C215.075 158.044 215.389 158.064 215.722 158.064H219.671V156.32H216.133C215.79 156.32 215.447 156.329 215.251 156.339V155.585C215.438 155.594 215.79 155.614 216.124 155.614H219.671V153.987H216.035C215.781 153.987 215.212 154.007 215.036 154.017V153.252ZM224.875 151.449C225.571 151.91 226.825 152.929 227.374 153.478L226.757 154.095C226.267 153.585 225.042 152.537 224.316 152.047L224.875 151.449ZM224.032 158.015C225.747 157.76 227.021 157.162 227.952 156.584C229.461 155.634 230.657 154.183 231.225 152.978L231.696 153.811C231.029 155.036 229.883 156.369 228.403 157.3C227.423 157.917 226.188 158.515 224.552 158.819L224.032 158.015Z" fill="black"/>
<path d="M99.9063 170.301V177.307H99.0211V171.407L97.2362 172.057V171.258L99.7676 170.301H99.9063ZM102.62 176.838C102.62 176.688 102.666 176.562 102.758 176.46C102.854 176.354 102.991 176.302 103.17 176.302C103.348 176.302 103.484 176.354 103.577 176.46C103.672 176.562 103.72 176.688 103.72 176.838C103.72 176.984 103.672 177.109 103.577 177.211C103.484 177.313 103.348 177.364 103.17 177.364C102.991 177.364 102.854 177.313 102.758 177.211C102.666 177.109 102.62 176.984 102.62 176.838ZM109.658 176.579V177.307H105.098V176.67L107.381 174.129C107.661 173.817 107.878 173.552 108.032 173.335C108.188 173.115 108.296 172.919 108.357 172.746C108.421 172.571 108.453 172.392 108.453 172.21C108.453 171.981 108.405 171.773 108.309 171.588C108.217 171.4 108.079 171.25 107.898 171.139C107.716 171.027 107.496 170.971 107.237 170.971C106.928 170.971 106.669 171.032 106.462 171.153C106.258 171.271 106.105 171.437 106.003 171.651C105.901 171.864 105.85 172.11 105.85 172.388H104.964C104.964 171.995 105.05 171.636 105.223 171.311C105.395 170.985 105.65 170.727 105.988 170.536C106.326 170.341 106.743 170.244 107.237 170.244C107.677 170.244 108.054 170.322 108.367 170.478C108.679 170.631 108.918 170.848 109.084 171.129C109.253 171.407 109.338 171.732 109.338 172.105C109.338 172.309 109.303 172.517 109.233 172.727C109.166 172.935 109.072 173.142 108.95 173.349C108.832 173.557 108.693 173.761 108.534 173.962C108.378 174.163 108.21 174.361 108.032 174.555L106.165 176.579H109.658ZM113.147 176.838C113.147 176.688 113.193 176.562 113.286 176.46C113.381 176.354 113.519 176.302 113.697 176.302C113.876 176.302 114.011 176.354 114.104 176.46C114.2 176.562 114.247 176.688 114.247 176.838C114.247 176.984 114.2 177.109 114.104 177.211C114.011 177.313 113.876 177.364 113.697 177.364C113.519 177.364 113.381 177.313 113.286 177.211C113.193 177.109 113.147 176.984 113.147 176.838ZM120.285 170.447V171.103H115.542V170.447H117.609V169.133H118.305V170.447H120.285ZM120.324 173.23L119.716 173.573C119.53 173.053 119.03 172.26 118.55 171.691L119.119 171.397C119.609 171.956 120.128 172.72 120.324 173.23ZM116.688 171.446L117.374 171.632C117.031 172.465 116.473 173.318 115.914 173.877C115.796 173.759 115.512 173.543 115.355 173.445C115.894 172.946 116.394 172.191 116.688 171.446ZM118.57 173.102L119.285 173.249C119.099 173.886 118.864 174.474 118.589 175.013C119.079 175.454 119.501 175.895 119.775 176.248L119.315 176.846C119.06 176.493 118.678 176.072 118.237 175.641C117.609 176.63 116.816 177.434 115.855 178.032C115.767 177.895 115.512 177.591 115.355 177.463C116.335 176.905 117.129 176.121 117.717 175.141C117.276 174.749 116.806 174.357 116.375 174.024L116.806 173.524C117.198 173.818 117.629 174.171 118.05 174.523C118.256 174.082 118.433 173.612 118.57 173.102ZM124.156 171.358V171.711C124.068 175.837 123.979 177.199 123.666 177.61C123.489 177.865 123.303 177.944 122.999 177.973C122.705 178.002 122.225 177.993 121.745 177.973C121.735 177.777 121.657 177.483 121.539 177.287C122.059 177.336 122.519 177.346 122.705 177.346C122.872 177.346 122.97 177.316 123.058 177.189C123.284 176.905 123.391 175.621 123.47 172.044H122.039C121.921 174.563 121.49 176.758 119.912 178.091C119.795 177.934 119.55 177.689 119.373 177.581C120.843 176.385 121.235 174.367 121.343 172.044H120.157V171.358H121.373C121.392 170.662 121.392 169.937 121.392 169.212H122.098C122.098 169.937 122.088 170.662 122.068 171.358H124.156ZM134.103 174.474L133.564 174.935C133.093 174.523 132.123 173.935 131.359 173.543L131.868 173.132C132.613 173.494 133.593 174.073 134.103 174.474ZM133.054 171.142L133.691 171.476C133.191 171.926 132.564 172.377 132.064 172.691L131.545 172.377C132.025 172.054 132.682 171.525 133.054 171.142ZM128.115 171.721L128.389 171.897C128.644 171.574 128.909 171.182 129.095 170.868H125.694V170.211H129.35V169.114H130.075V170.211H133.819V170.868H129.556L129.81 170.966C129.507 171.387 129.144 171.838 128.83 172.181C129.105 172.377 129.369 172.573 129.575 172.75C129.967 172.299 130.33 171.848 130.604 171.456L131.182 171.73C130.604 172.456 129.84 173.308 129.134 173.984L130.82 173.896C130.634 173.632 130.438 173.377 130.242 173.151L130.771 172.916C131.251 173.455 131.79 174.18 132.006 174.68L131.447 174.974C131.378 174.817 131.28 174.621 131.163 174.425C129.918 174.514 128.674 174.592 127.733 174.661L127.635 174.043C127.85 174.033 128.105 174.024 128.37 174.014C128.625 173.769 128.899 173.494 129.173 173.2C128.791 172.867 128.223 172.456 127.752 172.152L128.115 171.721ZM127.752 172.328L127.243 172.769C126.919 172.456 126.253 171.995 125.704 171.681L126.194 171.28C126.733 171.564 127.419 172.015 127.752 172.328ZM127.821 173.24L127.958 173.788C127.184 174.151 126.38 174.543 125.724 174.827L125.361 174.239C125.988 174.014 126.91 173.622 127.821 173.24ZM130.075 174.661V175.415H134.093V176.091H130.075V178.081H129.35V176.091H125.4V175.415H129.35V174.661H130.075ZM138.248 173.377V171.329H136.19V173.377H138.248ZM136.19 176.376H138.248V174.024H136.19V176.376ZM137.013 169.084L137.797 169.231C137.631 169.712 137.454 170.251 137.288 170.672H138.915V177.032H136.19V177.806H135.524V170.672H136.621C136.768 170.202 136.945 169.545 137.013 169.084ZM143.707 170.643V171.015C143.55 175.484 143.423 176.993 143.031 177.473C142.815 177.748 142.59 177.836 142.256 177.865C141.913 177.904 141.355 177.885 140.806 177.855C140.786 177.64 140.698 177.346 140.561 177.14C141.198 177.199 141.786 177.199 142.011 177.199C142.207 177.199 142.315 177.179 142.413 177.052C142.737 176.709 142.884 175.219 143.011 171.319H140.522C140.247 171.975 139.944 172.573 139.601 173.034C139.473 172.916 139.16 172.72 139.003 172.622C139.659 171.76 140.189 170.407 140.502 169.065L141.198 169.231C141.08 169.712 140.943 170.182 140.777 170.643H143.707ZM142.158 175.053L141.541 175.435C141.247 174.847 140.59 173.877 140.051 173.171L140.62 172.838C141.169 173.534 141.845 174.474 142.158 175.053ZM148.862 169.525C148.773 169.878 148.636 170.476 148.479 171.044C148.989 170.966 149.518 170.848 150.018 170.682L150.038 171.417C149.518 171.564 148.901 171.691 148.254 171.779C147.774 173.161 146.902 174.857 146.118 175.915L145.363 175.523C146.176 174.572 147.009 173.004 147.46 171.858C147.166 171.877 146.872 171.887 146.588 171.887C146.225 171.887 145.814 171.877 145.441 171.858L145.392 171.123C145.755 171.172 146.176 171.191 146.588 171.191C146.941 171.191 147.313 171.172 147.695 171.142C147.842 170.594 147.98 169.976 147.999 169.447L148.862 169.525ZM148.323 176.327C148.323 176.787 148.695 177.101 149.459 177.101C150.273 177.101 150.547 176.67 150.547 176.131C150.547 176.003 150.547 175.856 150.537 175.69C150.224 175.592 149.881 175.543 149.528 175.543C148.813 175.543 148.323 175.876 148.323 176.327ZM151.174 172.554C151.155 172.955 151.155 173.259 151.165 173.612C151.174 173.975 151.214 174.612 151.233 175.219C152.076 175.523 152.762 176.003 153.272 176.434L152.85 177.101C152.429 176.728 151.9 176.287 151.263 175.974C151.272 176.131 151.272 176.268 151.272 176.385C151.272 177.169 150.773 177.806 149.557 177.806C148.479 177.806 147.597 177.365 147.597 176.395C147.597 175.494 148.45 174.925 149.557 174.925C149.891 174.925 150.214 174.955 150.518 175.023C150.479 174.22 150.43 173.249 150.41 172.554H151.174ZM153.134 172.818C152.605 172.367 151.547 171.76 150.89 171.466L151.292 170.868C151.998 171.182 153.115 171.819 153.575 172.171L153.134 172.818ZM155.927 170.584C156.251 170.623 156.682 170.643 156.996 170.643H161.827C162.062 170.643 162.356 170.633 162.552 170.623C162.542 170.848 162.523 171.152 162.523 171.387V176.444C162.523 176.797 162.552 177.238 162.562 177.395H161.68C161.69 177.287 161.69 177.081 161.7 176.846H156.907C156.506 176.846 156.065 176.866 155.8 176.885V175.993C156.055 176.023 156.476 176.052 156.888 176.052H161.7V171.427H157.005C156.643 171.427 156.153 171.446 155.927 171.456V170.584ZM166.306 170.006C166.56 170.045 166.874 170.055 167.188 170.055H171.039C171.353 170.055 171.696 170.045 171.931 170.006V170.819C171.696 170.799 171.362 170.79 171.029 170.79H167.188C166.884 170.79 166.57 170.799 166.306 170.819V170.006ZM172.646 172.593C172.597 172.681 172.538 172.808 172.519 172.877C172.254 173.847 171.813 174.866 171.088 175.66C170.059 176.787 168.834 177.365 167.58 177.708L166.972 177.013C168.364 176.728 169.589 176.101 170.422 175.219C171.019 174.592 171.411 173.759 171.588 173.053H166.384C166.149 173.053 165.776 173.063 165.424 173.083V172.26C165.786 172.299 166.119 172.318 166.384 172.318H171.549C171.774 172.318 171.98 172.299 172.088 172.24L172.646 172.593ZM181.094 173.387C181.613 174.014 182.397 175.239 182.789 175.944L182.064 176.346C181.682 175.582 180.947 174.357 180.427 173.739L181.094 173.387ZM176.997 173.71C176.586 174.553 175.665 175.797 175.116 176.395L174.44 175.944C175.086 175.337 175.929 174.171 176.311 173.377L176.997 173.71ZM181.211 169.565C181.456 169.908 181.79 170.476 181.995 170.878L181.466 171.113C181.27 170.711 180.957 170.153 180.692 169.78L181.211 169.565ZM182.368 169.28C182.623 169.643 182.985 170.221 183.171 170.584L182.642 170.819C182.427 170.398 182.123 169.868 181.848 169.506L182.368 169.28ZM179.153 169.751C179.124 169.888 179.095 170.241 179.095 170.456V171.456H181.682C181.917 171.456 182.24 171.436 182.485 171.407V172.22C182.221 172.201 181.927 172.201 181.692 172.201H179.095V176.944C179.095 177.463 178.84 177.728 178.252 177.728C177.84 177.728 177.252 177.699 176.86 177.659L176.792 176.875C177.213 176.954 177.664 176.993 177.919 176.993C178.183 176.993 178.301 176.875 178.301 176.621V172.201H175.576C175.282 172.201 175.008 172.211 174.743 172.23V171.407C175.018 171.436 175.263 171.456 175.576 171.456H178.301V170.447C178.301 170.231 178.271 169.898 178.232 169.751H179.153ZM185.817 176.993C185.886 176.836 185.915 176.709 185.915 176.513V170.907C185.915 170.652 185.866 170.211 185.827 170.015H186.797C186.758 170.26 186.729 170.623 186.729 170.907V176.464C188.601 175.993 190.874 174.7 192.089 173.122L192.53 173.808C191.256 175.386 189.238 176.601 186.797 177.307C186.69 177.336 186.543 177.385 186.386 177.483L185.817 176.993ZM194.441 173.063C194.735 173.083 195.255 173.112 195.804 173.112H201.174C201.664 173.112 202.017 173.083 202.232 173.063V174.024C202.036 174.014 201.625 173.975 201.184 173.975H195.804C195.265 173.975 194.745 173.994 194.441 174.024V173.063ZM206 169.78C206.578 170.104 207.705 170.848 208.127 171.162L207.666 171.828C207.196 171.476 206.137 170.77 205.559 170.437L206 169.78ZM204.53 176.787C205.608 176.601 206.823 176.209 207.813 175.641C209.44 174.71 210.734 173.436 211.527 172.054L211.998 172.857C211.155 174.18 209.793 175.445 208.235 176.366C207.245 176.934 205.892 177.395 204.981 177.581L204.53 176.787ZM204.52 171.985C205.099 172.299 206.245 172.995 206.676 173.308L206.226 173.994C205.745 173.641 204.677 172.955 204.089 172.652L204.52 171.985ZM215.036 171.926C215.222 171.946 215.781 171.966 216.035 171.966H219.828C220.044 171.966 220.298 171.956 220.426 171.946C220.416 172.054 220.416 172.26 220.416 172.446V177.326C220.416 177.483 220.426 177.718 220.436 177.855H219.661C219.671 177.767 219.671 177.62 219.671 177.463H215.732C215.418 177.463 215.075 177.483 214.918 177.483V176.699C215.075 176.719 215.389 176.738 215.722 176.738H219.671V174.994H216.133C215.79 174.994 215.447 175.004 215.251 175.013V174.259C215.438 174.269 215.79 174.288 216.124 174.288H219.671V172.661H216.035C215.781 172.661 215.212 172.681 215.036 172.691V171.926ZM224.875 170.123C225.571 170.584 226.825 171.603 227.374 172.152L226.757 172.769C226.267 172.26 225.042 171.211 224.316 170.721L224.875 170.123ZM224.032 176.689C225.747 176.434 227.021 175.837 227.952 175.258C229.461 174.308 230.657 172.857 231.225 171.652L231.696 172.485C231.029 173.71 229.883 175.043 228.403 175.974C227.423 176.591 226.188 177.189 224.552 177.493L224.032 176.689Z" fill="black"/>
</g>
</g>
</g>
<defs>
<clipPath id="clip0_89_37743">
<rect width="310" height="186" fill="white"/>
</clipPath>
<clipPath id="clip1_89_37743">
<path d="M24 22C24 18.6863 26.6863 16 30 16H680C683.314 16 686 18.6863 686 22V336.457C686 339.771 683.314 342.457 680 342.457H30C26.6863 342.457 24 339.771 24 336.457V22Z" fill="white"/>
</clipPath>
<clipPath id="clip2_89_37743">
<rect width="17.2354" height="21.8122" fill="white" transform="translate(56 96.625)"/>
</clipPath>
</defs>
</svg>
