<svg width="310" height="186" viewBox="0 0 310 186" fill="none" xmlns="http://www.w3.org/2000/svg">
<g clip-path="url(#clip0_4686_36432)">
<rect width="310" height="186" fill="var(--web-system-color-articleFigure-background, #F5F5F5)"/>
<rect width="310" height="186" fill="var(--web-system-color-articleFigure-background, #F5F5F5)"/>
<g clip-path="url(#clip1_4686_36432)">
<path d="M24 22C24 18.6863 26.6863 16 30 16H680C683.314 16 686 18.6863 686 22V336.457C686 339.771 683.314 342.457 680 342.457H30C26.6863 342.457 24 339.771 24 336.457V22Z" fill="white"/>
<rect x="24" y="15.7266" width="295" height="14" fill="#E6E6E6"/>
<circle cx="33.5" cy="23.2266" r="3.5" fill="#E5B2B2"/>
<circle cx="43.5" cy="23.2266" r="3.5" fill="#E4CA8E"/>
<circle cx="53.5" cy="23.2266" r="3.5" fill="#B3D4A6"/>
<path d="M59.3414 90.161V103.1H57.6263V90.161H59.3414ZM63.8559 95.5375V103.1H62.2118V93.4847H63.767L63.8559 95.5375ZM63.4648 97.928L62.7806 97.9014C62.7865 97.2438 62.8842 96.6365 63.0738 96.0796C63.2634 95.5168 63.53 95.028 63.8736 94.6133C64.2173 94.1986 64.626 93.8786 65.1 93.6535C65.5799 93.4225 66.1101 93.3069 66.6907 93.3069C67.1647 93.3069 67.5912 93.3721 67.9704 93.5024C68.3496 93.6269 68.6725 93.8283 68.9391 94.1067C69.2116 94.3852 69.4189 94.7466 69.5611 95.1909C69.7033 95.6293 69.7744 96.1655 69.7744 96.7994V103.1H68.1215V96.7816C68.1215 96.2781 68.0474 95.8752 67.8993 95.573C67.7512 95.265 67.535 95.0428 67.2506 94.9065C66.9662 94.7644 66.6167 94.6933 66.202 94.6933C65.7932 94.6933 65.4199 94.7792 65.0822 94.951C64.7505 95.1228 64.4631 95.3598 64.2202 95.6619C63.9832 95.9641 63.7966 96.3106 63.6604 96.7017C63.53 97.0868 63.4648 97.4955 63.4648 97.928ZM78.3323 101.234V89.4501H79.9853V103.1H78.4745L78.3323 101.234ZM71.8628 98.399V98.2124C71.8628 97.4778 71.9517 96.8113 72.1294 96.2129C72.3131 95.6086 72.5708 95.0902 72.9025 94.6577C73.2402 94.2252 73.6401 93.8935 74.1022 93.6624C74.5703 93.4254 75.0916 93.3069 75.6663 93.3069C76.2706 93.3069 76.7979 93.4136 77.2481 93.6269C77.7043 93.8342 78.0894 94.1393 78.4034 94.5422C78.7233 94.9391 78.9751 95.419 79.1588 95.9818C79.3424 96.5447 79.4698 97.1815 79.5409 97.8925V98.7101C79.4757 99.4151 79.3484 100.049 79.1588 100.612C78.9751 101.175 78.7233 101.655 78.4034 102.051C78.0894 102.448 77.7043 102.754 77.2481 102.967C76.792 103.174 76.2588 103.278 75.6485 103.278C75.0857 103.278 74.5703 103.156 74.1022 102.913C73.6401 102.671 73.2402 102.33 72.9025 101.892C72.5708 101.453 72.3131 100.938 72.1294 100.345C71.9517 99.7468 71.8628 99.0981 71.8628 98.399ZM73.5157 98.2124V98.399C73.5157 98.8789 73.5631 99.3292 73.6579 99.7498C73.7586 100.17 73.9127 100.541 74.12 100.861C74.3274 101.181 74.591 101.432 74.9109 101.616C75.2309 101.794 75.613 101.883 76.0573 101.883C76.6024 101.883 77.0497 101.767 77.3992 101.536C77.7547 101.305 78.0391 101 78.2523 100.621C78.4656 100.242 78.6315 99.8298 78.75 99.3854V97.2438C78.6789 96.9179 78.5752 96.6039 78.439 96.3018C78.3086 95.9937 78.1368 95.7212 77.9235 95.4842C77.7162 95.2413 77.4585 95.0487 77.1504 94.9065C76.8482 94.7644 76.4898 94.6933 76.0751 94.6933C75.6248 94.6933 75.2368 94.7881 74.9109 94.9776C74.591 95.1613 74.3274 95.416 74.12 95.7419C73.9127 96.0618 73.7586 96.4351 73.6579 96.8616C73.5631 97.2823 73.5157 97.7325 73.5157 98.2124ZM86.5348 103.278C85.8653 103.278 85.258 103.165 84.713 102.94C84.1739 102.709 83.7088 102.386 83.3178 101.971C82.9327 101.557 82.6365 101.065 82.4291 100.496C82.2217 99.9275 82.1181 99.3055 82.1181 98.6301V98.2568C82.1181 97.4748 82.2336 96.7787 82.4646 96.1685C82.6957 95.5523 83.0097 95.031 83.4066 94.6044C83.8036 94.1778 84.2538 93.8549 84.7574 93.6357C85.261 93.4165 85.7824 93.3069 86.3215 93.3069C87.0087 93.3069 87.6012 93.4254 88.0988 93.6624C88.6024 93.8994 89.0142 94.2312 89.3341 94.6577C89.654 95.0784 89.891 95.576 90.045 96.1507C90.1991 96.7194 90.2761 97.3415 90.2761 98.0169V98.7545H83.0956V97.4126H88.632V97.2882C88.6083 96.8616 88.5195 96.4469 88.3654 96.044C88.2173 95.6412 87.9803 95.3094 87.6545 95.0487C87.3286 94.7881 86.8843 94.6577 86.3215 94.6577C85.9482 94.6577 85.6046 94.7377 85.2906 94.8977C84.9766 95.0517 84.7071 95.2827 84.4819 95.5908C84.2568 95.8989 84.082 96.2751 83.9576 96.7194C83.8332 97.1638 83.771 97.6762 83.771 98.2568V98.6301C83.771 99.0863 83.8332 99.5158 83.9576 99.9187C84.088 100.316 84.2746 100.665 84.5175 100.967C84.7663 101.269 85.0655 101.506 85.415 101.678C85.7705 101.85 86.1734 101.936 86.6236 101.936C87.2042 101.936 87.696 101.817 88.0988 101.58C88.5017 101.343 88.8542 101.027 89.1563 100.63L90.1517 101.421C89.9443 101.735 89.6807 102.034 89.3607 102.318C89.0408 102.602 88.6468 102.833 88.1788 103.011C87.7167 103.189 87.1687 103.278 86.5348 103.278ZM93.3064 93.4847L95.4126 96.986L97.5454 93.4847H99.4738L96.3279 98.2302L99.5716 103.1H97.6698L95.4481 99.4921L93.2265 103.1H91.3158L94.5506 98.2302L91.4136 93.4847H93.3064Z" fill="black"/>
<g opacity="0.3">
<g clip-path="url(#clip2_4686_36432)">
<g style="mix-blend-mode:multiply">
<path d="M65.0664 130.534L72.9496 136.461L65.0664 142.389L57.1832 136.461L65.0664 130.534Z" fill="var(--composition-secondary, #428CFE)"/>
</g>
</g>
<path d="M84.2499 131.25V140.725H82.3796V133.406L80.1326 134.121V132.646L84.0486 131.25H84.2499ZM87.497 139.822C87.497 139.545 87.5922 139.314 87.7827 139.128C87.9776 138.941 88.2352 138.848 88.5555 138.848C88.8759 138.848 89.1313 138.941 89.3218 139.128C89.5167 139.314 89.6141 139.545 89.6141 139.822C89.6141 140.099 89.5167 140.331 89.3218 140.517C89.1313 140.703 88.8759 140.797 88.5555 140.797C88.2352 140.797 87.9776 140.703 87.7827 140.517C87.5922 140.331 87.497 140.099 87.497 139.822ZM95.8138 131.27H99.3401C100.063 131.27 100.684 131.378 101.204 131.594C101.728 131.811 102.13 132.131 102.412 132.555C102.693 132.98 102.834 133.501 102.834 134.121C102.834 134.627 102.747 135.062 102.574 135.426C102.405 135.785 102.165 136.086 101.853 136.329C101.546 136.567 101.184 136.757 100.769 136.9L100.152 137.225H97.0866L97.0736 135.705H99.3531C99.6951 135.705 99.9787 135.645 100.204 135.523C100.429 135.402 100.598 135.233 100.71 135.017C100.827 134.8 100.886 134.549 100.886 134.263C100.886 133.96 100.829 133.698 100.717 133.478C100.604 133.257 100.433 133.088 100.204 132.971C99.9743 132.854 99.6864 132.796 99.3401 132.796H97.762V140.725H95.8138V131.27ZM101.1 140.725L98.9439 136.51L101.003 136.497L103.185 140.634V140.725H101.1ZM103.918 137.283V137.147C103.918 136.632 103.992 136.158 104.139 135.725C104.286 135.287 104.501 134.909 104.782 134.588C105.064 134.268 105.41 134.019 105.821 133.841C106.233 133.659 106.704 133.569 107.237 133.569C107.769 133.569 108.244 133.659 108.659 133.841C109.075 134.019 109.423 134.268 109.705 134.588C109.99 134.909 110.207 135.287 110.354 135.725C110.501 136.158 110.575 136.632 110.575 137.147V137.283C110.575 137.794 110.501 138.268 110.354 138.705C110.207 139.138 109.99 139.517 109.705 139.842C109.423 140.162 109.077 140.411 108.666 140.589C108.254 140.766 107.782 140.855 107.25 140.855C106.717 140.855 106.243 140.766 105.828 140.589C105.416 140.411 105.068 140.162 104.782 139.842C104.501 139.517 104.286 139.138 104.139 138.705C103.992 138.268 103.918 137.794 103.918 137.283ZM105.789 137.147V137.283C105.789 137.578 105.815 137.853 105.867 138.108C105.919 138.363 106.001 138.589 106.113 138.783C106.23 138.974 106.382 139.123 106.568 139.231C106.754 139.34 106.982 139.394 107.25 139.394C107.51 139.394 107.733 139.34 107.919 139.231C108.105 139.123 108.254 138.974 108.367 138.783C108.48 138.589 108.562 138.363 108.614 138.108C108.67 137.853 108.698 137.578 108.698 137.283V137.147C108.698 136.861 108.67 136.593 108.614 136.342C108.562 136.086 108.477 135.861 108.36 135.666C108.248 135.467 108.099 135.311 107.912 135.199C107.726 135.086 107.501 135.03 107.237 135.03C106.973 135.03 106.748 135.086 106.562 135.199C106.38 135.311 106.23 135.467 106.113 135.666C106.001 135.861 105.919 136.086 105.867 136.342C105.815 136.593 105.789 136.861 105.789 137.147ZM113.699 130.75V140.725H111.822V130.75H113.699ZM118.478 140.855C117.933 140.855 117.444 140.768 117.011 140.595C116.578 140.418 116.21 140.173 115.907 139.861C115.608 139.55 115.378 139.188 115.218 138.777C115.058 138.361 114.978 137.92 114.978 137.452V137.192C114.978 136.66 115.054 136.173 115.205 135.731C115.357 135.29 115.573 134.906 115.855 134.582C116.14 134.257 116.487 134.008 116.894 133.835C117.301 133.657 117.76 133.569 118.271 133.569C118.768 133.569 119.21 133.651 119.595 133.815C119.981 133.98 120.303 134.214 120.563 134.517C120.827 134.82 121.026 135.183 121.16 135.608C121.295 136.028 121.362 136.495 121.362 137.01V137.79H115.777V136.543H119.524V136.4C119.524 136.14 119.476 135.909 119.381 135.705C119.29 135.497 119.152 135.333 118.965 135.212C118.779 135.09 118.541 135.03 118.251 135.03C118.004 135.03 117.792 135.084 117.615 135.192C117.437 135.3 117.292 135.452 117.179 135.647C117.071 135.842 116.989 136.071 116.933 136.335C116.881 136.595 116.855 136.881 116.855 137.192V137.452C116.855 137.733 116.894 137.993 116.972 138.231C117.054 138.469 117.169 138.675 117.316 138.848C117.467 139.021 117.649 139.156 117.861 139.251C118.078 139.346 118.322 139.394 118.595 139.394C118.933 139.394 119.247 139.329 119.537 139.199C119.831 139.065 120.085 138.863 120.297 138.595L121.206 139.582C121.059 139.794 120.857 139.998 120.602 140.193C120.351 140.387 120.048 140.548 119.693 140.673C119.338 140.794 118.933 140.855 118.478 140.855ZM125.44 137.283V137.147C125.44 136.632 125.514 136.158 125.661 135.725C125.808 135.287 126.022 134.909 126.304 134.588C126.585 134.268 126.932 134.019 127.343 133.841C127.754 133.659 128.226 133.569 128.759 133.569C129.291 133.569 129.765 133.659 130.181 133.841C130.596 134.019 130.945 134.268 131.226 134.588C131.512 134.909 131.729 135.287 131.876 135.725C132.023 136.158 132.097 136.632 132.097 137.147V137.283C132.097 137.794 132.023 138.268 131.876 138.705C131.729 139.138 131.512 139.517 131.226 139.842C130.945 140.162 130.599 140.411 130.187 140.589C129.776 140.766 129.304 140.855 128.772 140.855C128.239 140.855 127.765 140.766 127.349 140.589C126.938 140.411 126.589 140.162 126.304 139.842C126.022 139.517 125.808 139.138 125.661 138.705C125.514 138.268 125.44 137.794 125.44 137.283ZM127.31 137.147V137.283C127.31 137.578 127.336 137.853 127.388 138.108C127.44 138.363 127.522 138.589 127.635 138.783C127.752 138.974 127.903 139.123 128.09 139.231C128.276 139.34 128.503 139.394 128.772 139.394C129.031 139.394 129.254 139.34 129.44 139.231C129.627 139.123 129.776 138.974 129.889 138.783C130.001 138.589 130.083 138.363 130.135 138.108C130.192 137.853 130.22 137.578 130.22 137.283V137.147C130.22 136.861 130.192 136.593 130.135 136.342C130.083 136.086 129.999 135.861 129.882 135.666C129.769 135.467 129.62 135.311 129.434 135.199C129.248 135.086 129.023 135.03 128.759 135.03C128.494 135.03 128.269 135.086 128.083 135.199C127.901 135.311 127.752 135.467 127.635 135.666C127.522 135.861 127.44 136.086 127.388 136.342C127.336 136.593 127.31 136.861 127.31 137.147ZM135.629 140.725H133.746V133.075C133.746 132.542 133.85 132.094 134.058 131.731C134.27 131.363 134.566 131.086 134.947 130.899C135.333 130.709 135.79 130.614 136.318 130.614C136.491 130.614 136.658 130.627 136.818 130.653C136.978 130.674 137.134 130.702 137.285 130.737L137.266 132.146C137.184 132.125 137.097 132.11 137.006 132.101C136.915 132.092 136.809 132.088 136.688 132.088C136.463 132.088 136.27 132.127 136.11 132.205C135.954 132.278 135.835 132.389 135.753 132.536C135.67 132.683 135.629 132.863 135.629 133.075V140.725ZM137.032 133.698V135.023H132.7V133.698H137.032ZM144.767 133.698V135.023H140.675V133.698H144.767ZM141.688 131.965H143.559V138.608C143.559 138.811 143.585 138.967 143.637 139.076C143.693 139.184 143.775 139.26 143.883 139.303C143.992 139.342 144.128 139.361 144.293 139.361C144.409 139.361 144.513 139.357 144.604 139.348C144.699 139.335 144.78 139.322 144.845 139.309L144.851 140.686C144.691 140.738 144.518 140.779 144.331 140.81C144.145 140.84 143.94 140.855 143.715 140.855C143.303 140.855 142.944 140.788 142.637 140.654C142.333 140.515 142.1 140.294 141.935 139.991C141.771 139.688 141.688 139.29 141.688 138.796V131.965ZM147.656 130.75V140.725H145.786V130.75H147.656ZM147.39 136.965H146.877C146.882 136.476 146.946 136.026 147.072 135.614C147.198 135.199 147.377 134.839 147.611 134.536C147.845 134.229 148.124 133.991 148.449 133.822C148.778 133.653 149.141 133.569 149.54 133.569C149.886 133.569 150.2 133.618 150.481 133.718C150.767 133.813 151.012 133.969 151.215 134.185C151.423 134.398 151.583 134.677 151.696 135.023C151.808 135.37 151.865 135.79 151.865 136.283V140.725H149.981V136.27C149.981 135.958 149.936 135.714 149.845 135.536C149.758 135.354 149.631 135.227 149.462 135.153C149.297 135.075 149.094 135.036 148.851 135.036C148.583 135.036 148.354 135.086 148.163 135.186C147.977 135.285 147.828 135.424 147.715 135.601C147.602 135.774 147.52 135.978 147.468 136.212C147.416 136.445 147.39 136.697 147.39 136.965ZM156.521 140.855C155.975 140.855 155.486 140.768 155.053 140.595C154.62 140.418 154.252 140.173 153.949 139.861C153.651 139.55 153.421 139.188 153.261 138.777C153.101 138.361 153.021 137.92 153.021 137.452V137.192C153.021 136.66 153.096 136.173 153.248 135.731C153.399 135.29 153.616 134.906 153.897 134.582C154.183 134.257 154.529 134.008 154.936 133.835C155.343 133.657 155.802 133.569 156.313 133.569C156.811 133.569 157.253 133.651 157.638 133.815C158.023 133.98 158.346 134.214 158.606 134.517C158.87 134.82 159.069 135.183 159.203 135.608C159.337 136.028 159.404 136.495 159.404 137.01V137.79H153.819V136.543H157.567V136.4C157.567 136.14 157.519 135.909 157.424 135.705C157.333 135.497 157.194 135.333 157.008 135.212C156.822 135.09 156.584 135.03 156.294 135.03C156.047 135.03 155.835 135.084 155.657 135.192C155.48 135.3 155.335 135.452 155.222 135.647C155.114 135.842 155.032 136.071 154.975 136.335C154.923 136.595 154.897 136.881 154.897 137.192V137.452C154.897 137.733 154.936 137.993 155.014 138.231C155.097 138.469 155.211 138.675 155.359 138.848C155.51 139.021 155.692 139.156 155.904 139.251C156.121 139.346 156.365 139.394 156.638 139.394C156.976 139.394 157.289 139.329 157.58 139.199C157.874 139.065 158.127 138.863 158.339 138.595L159.249 139.582C159.101 139.794 158.9 139.998 158.645 140.193C158.393 140.387 158.09 140.548 157.735 140.673C157.38 140.794 156.976 140.855 156.521 140.855ZM167.931 139.192V130.75H169.814V140.725H168.12L167.931 139.192ZM163.489 137.296V137.16C163.489 136.623 163.55 136.136 163.671 135.699C163.792 135.257 163.97 134.878 164.204 134.562C164.437 134.246 164.725 134.001 165.067 133.828C165.409 133.655 165.799 133.569 166.236 133.569C166.648 133.569 167.007 133.655 167.314 133.828C167.626 134.001 167.89 134.248 168.107 134.569C168.327 134.885 168.505 135.259 168.639 135.692C168.773 136.121 168.871 136.59 168.931 137.101V137.4C168.871 137.889 168.773 138.344 168.639 138.764C168.505 139.184 168.327 139.552 168.107 139.868C167.89 140.18 167.626 140.422 167.314 140.595C167.003 140.768 166.639 140.855 166.223 140.855C165.786 140.855 165.396 140.766 165.054 140.589C164.717 140.411 164.431 140.162 164.197 139.842C163.968 139.522 163.792 139.145 163.671 138.712C163.55 138.279 163.489 137.807 163.489 137.296ZM165.36 137.16V137.296C165.36 137.586 165.381 137.857 165.424 138.108C165.472 138.359 165.548 138.582 165.652 138.777C165.76 138.967 165.899 139.117 166.067 139.225C166.241 139.329 166.451 139.381 166.697 139.381C167.018 139.381 167.282 139.309 167.49 139.167C167.697 139.019 167.855 138.818 167.964 138.563C168.076 138.307 168.141 138.013 168.158 137.679V136.829C168.145 136.556 168.107 136.311 168.042 136.095C167.981 135.874 167.89 135.686 167.769 135.53C167.652 135.374 167.505 135.253 167.327 135.166C167.154 135.08 166.948 135.036 166.71 135.036C166.468 135.036 166.26 135.093 166.087 135.205C165.914 135.313 165.773 135.463 165.665 135.653C165.561 135.844 165.483 136.069 165.431 136.329C165.383 136.584 165.36 136.861 165.36 137.16ZM174.51 140.855C173.964 140.855 173.475 140.768 173.042 140.595C172.609 140.418 172.241 140.173 171.938 139.861C171.639 139.55 171.41 139.188 171.25 138.777C171.09 138.361 171.009 137.92 171.009 137.452V137.192C171.009 136.66 171.085 136.173 171.237 135.731C171.388 135.29 171.605 134.906 171.886 134.582C172.172 134.257 172.518 134.008 172.925 133.835C173.332 133.657 173.791 133.569 174.302 133.569C174.8 133.569 175.241 133.651 175.627 133.815C176.012 133.98 176.335 134.214 176.594 134.517C176.858 134.82 177.058 135.183 177.192 135.608C177.326 136.028 177.393 136.495 177.393 137.01V137.79H171.808V136.543H175.555V136.4C175.555 136.14 175.508 135.909 175.412 135.705C175.322 135.497 175.183 135.333 174.997 135.212C174.811 135.09 174.573 135.03 174.282 135.03C174.036 135.03 173.824 135.084 173.646 135.192C173.469 135.3 173.323 135.452 173.211 135.647C173.103 135.842 173.02 136.071 172.964 136.335C172.912 136.595 172.886 136.881 172.886 137.192V137.452C172.886 137.733 172.925 137.993 173.003 138.231C173.085 138.469 173.2 138.675 173.347 138.848C173.499 139.021 173.681 139.156 173.893 139.251C174.109 139.346 174.354 139.394 174.627 139.394C174.964 139.394 175.278 139.329 175.568 139.199C175.863 139.065 176.116 138.863 176.328 138.595L177.237 139.582C177.09 139.794 176.889 139.998 176.633 140.193C176.382 140.387 176.079 140.548 175.724 140.673C175.369 140.794 174.964 140.855 174.51 140.855ZM182.257 138.783C182.257 138.649 182.218 138.528 182.14 138.42C182.062 138.311 181.917 138.212 181.705 138.121C181.497 138.026 181.197 137.939 180.803 137.861C180.448 137.783 180.116 137.686 179.809 137.569C179.506 137.448 179.242 137.303 179.017 137.134C178.796 136.965 178.623 136.766 178.497 136.536C178.372 136.303 178.309 136.036 178.309 135.738C178.309 135.443 178.372 135.166 178.497 134.906C178.627 134.647 178.811 134.417 179.049 134.218C179.292 134.014 179.586 133.856 179.932 133.744C180.283 133.627 180.677 133.569 181.114 133.569C181.725 133.569 182.249 133.666 182.686 133.861C183.127 134.056 183.465 134.324 183.699 134.666C183.937 135.004 184.056 135.389 184.056 135.822H182.186C182.186 135.64 182.147 135.478 182.069 135.335C181.995 135.188 181.878 135.073 181.718 134.991C181.562 134.904 181.359 134.861 181.108 134.861C180.9 134.861 180.72 134.898 180.569 134.971C180.417 135.041 180.3 135.136 180.218 135.257C180.14 135.374 180.101 135.504 180.101 135.647C180.101 135.755 180.123 135.852 180.166 135.939C180.214 136.021 180.29 136.097 180.393 136.166C180.497 136.235 180.632 136.3 180.796 136.361C180.965 136.417 181.173 136.469 181.42 136.517C181.926 136.621 182.378 136.757 182.777 136.926C183.175 137.091 183.491 137.316 183.725 137.601C183.959 137.883 184.076 138.253 184.076 138.712C184.076 139.024 184.006 139.309 183.868 139.569C183.729 139.829 183.53 140.056 183.27 140.251C183.011 140.442 182.699 140.591 182.335 140.699C181.976 140.803 181.571 140.855 181.121 140.855C180.467 140.855 179.913 140.738 179.458 140.504C179.008 140.271 178.666 139.974 178.432 139.615C178.203 139.251 178.088 138.879 178.088 138.498H179.861C179.87 138.753 179.935 138.959 180.056 139.115C180.181 139.27 180.339 139.383 180.53 139.452C180.725 139.522 180.935 139.556 181.16 139.556C181.402 139.556 181.604 139.524 181.764 139.459C181.924 139.389 182.045 139.299 182.127 139.186C182.214 139.069 182.257 138.935 182.257 138.783ZM187.264 133.698V140.725H185.387V133.698H187.264ZM185.271 131.867C185.271 131.594 185.366 131.369 185.556 131.192C185.747 131.014 186.002 130.925 186.323 130.925C186.639 130.925 186.892 131.014 187.082 131.192C187.277 131.369 187.375 131.594 187.375 131.867C187.375 132.14 187.277 132.365 187.082 132.542C186.892 132.72 186.639 132.809 186.323 132.809C186.002 132.809 185.747 132.72 185.556 132.542C185.366 132.365 185.271 132.14 185.271 131.867ZM193.258 133.698H194.953V140.491C194.953 141.132 194.81 141.675 194.525 142.121C194.243 142.572 193.849 142.911 193.343 143.141C192.836 143.375 192.247 143.492 191.576 143.492C191.282 143.492 190.97 143.453 190.641 143.375C190.316 143.297 190.005 143.176 189.706 143.011C189.412 142.847 189.165 142.639 188.966 142.388L189.79 141.284C190.007 141.535 190.258 141.73 190.544 141.868C190.83 142.011 191.146 142.082 191.492 142.082C191.83 142.082 192.115 142.02 192.349 141.894C192.583 141.773 192.763 141.593 192.888 141.355C193.014 141.121 193.077 140.838 193.077 140.504V135.322L193.258 133.698ZM188.531 137.296V137.16C188.531 136.623 188.596 136.136 188.725 135.699C188.86 135.257 189.048 134.878 189.29 134.562C189.537 134.246 189.836 134.001 190.187 133.828C190.537 133.655 190.933 133.569 191.375 133.569C191.843 133.569 192.234 133.655 192.55 133.828C192.867 134.001 193.126 134.248 193.33 134.569C193.533 134.885 193.691 135.259 193.804 135.692C193.921 136.121 194.012 136.59 194.077 137.101V137.4C194.012 137.889 193.914 138.344 193.784 138.764C193.654 139.184 193.483 139.552 193.271 139.868C193.059 140.18 192.795 140.422 192.479 140.595C192.167 140.768 191.795 140.855 191.362 140.855C190.929 140.855 190.537 140.766 190.187 140.589C189.84 140.411 189.544 140.162 189.297 139.842C189.05 139.522 188.86 139.145 188.725 138.712C188.596 138.279 188.531 137.807 188.531 137.296ZM190.401 137.16V137.296C190.401 137.586 190.429 137.857 190.485 138.108C190.542 138.359 190.628 138.582 190.745 138.777C190.866 138.967 191.016 139.117 191.193 139.225C191.375 139.329 191.589 139.381 191.836 139.381C192.178 139.381 192.457 139.309 192.674 139.167C192.89 139.019 193.053 138.818 193.161 138.563C193.269 138.307 193.332 138.013 193.349 137.679V136.829C193.341 136.556 193.304 136.311 193.239 136.095C193.174 135.874 193.083 135.686 192.966 135.53C192.849 135.374 192.698 135.253 192.512 135.166C192.325 135.08 192.105 135.036 191.849 135.036C191.602 135.036 191.388 135.093 191.206 135.205C191.029 135.313 190.879 135.463 190.758 135.653C190.641 135.844 190.552 136.069 190.492 136.329C190.431 136.584 190.401 136.861 190.401 137.16ZM198.239 135.199V140.725H196.369V133.698H198.122L198.239 135.199ZM197.967 136.965H197.46C197.46 136.445 197.527 135.978 197.661 135.562C197.796 135.142 197.984 134.785 198.226 134.491C198.469 134.192 198.757 133.965 199.09 133.809C199.428 133.649 199.804 133.569 200.22 133.569C200.549 133.569 200.85 133.616 201.123 133.711C201.395 133.807 201.629 133.958 201.824 134.166C202.023 134.374 202.175 134.649 202.279 134.991C202.387 135.333 202.441 135.751 202.441 136.244V140.725H200.558V136.238C200.558 135.926 200.514 135.683 200.428 135.51C200.341 135.337 200.214 135.216 200.045 135.147C199.88 135.073 199.677 135.036 199.434 135.036C199.183 135.036 198.965 135.086 198.778 135.186C198.597 135.285 198.445 135.424 198.324 135.601C198.207 135.774 198.118 135.978 198.058 136.212C197.997 136.445 197.967 136.697 197.967 136.965ZM210.974 138.783C210.974 138.649 210.935 138.528 210.857 138.42C210.78 138.311 210.634 138.212 210.422 138.121C210.215 138.026 209.914 137.939 209.52 137.861C209.165 137.783 208.833 137.686 208.526 137.569C208.223 137.448 207.959 137.303 207.734 137.134C207.513 136.965 207.34 136.766 207.214 136.536C207.089 136.303 207.026 136.036 207.026 135.738C207.026 135.443 207.089 135.166 207.214 134.906C207.344 134.647 207.528 134.417 207.766 134.218C208.009 134.014 208.303 133.856 208.649 133.744C209 133.627 209.394 133.569 209.831 133.569C210.442 133.569 210.966 133.666 211.403 133.861C211.845 134.056 212.182 134.324 212.416 134.666C212.654 135.004 212.773 135.389 212.773 135.822H210.903C210.903 135.64 210.864 135.478 210.786 135.335C210.712 135.188 210.596 135.073 210.435 134.991C210.279 134.904 210.076 134.861 209.825 134.861C209.617 134.861 209.437 134.898 209.286 134.971C209.134 135.041 209.017 135.136 208.935 135.257C208.857 135.374 208.818 135.504 208.818 135.647C208.818 135.755 208.84 135.852 208.883 135.939C208.931 136.021 209.007 136.097 209.111 136.166C209.214 136.235 209.349 136.3 209.513 136.361C209.682 136.417 209.89 136.469 210.137 136.517C210.643 136.621 211.096 136.757 211.494 136.926C211.892 137.091 212.208 137.316 212.442 137.601C212.676 137.883 212.793 138.253 212.793 138.712C212.793 139.024 212.723 139.309 212.585 139.569C212.446 139.829 212.247 140.056 211.987 140.251C211.728 140.442 211.416 140.591 211.052 140.699C210.693 140.803 210.288 140.855 209.838 140.855C209.184 140.855 208.63 140.738 208.175 140.504C207.725 140.271 207.383 139.974 207.149 139.615C206.92 139.251 206.805 138.879 206.805 138.498H208.578C208.587 138.753 208.652 138.959 208.773 139.115C208.898 139.27 209.056 139.383 209.247 139.452C209.442 139.522 209.652 139.556 209.877 139.556C210.119 139.556 210.321 139.524 210.481 139.459C210.641 139.389 210.762 139.299 210.844 139.186C210.931 139.069 210.974 138.935 210.974 138.783ZM216.092 139.933L217.956 133.698H219.962L217.137 141.784C217.077 141.961 216.994 142.152 216.891 142.355C216.791 142.559 216.655 142.751 216.481 142.933C216.313 143.119 216.098 143.271 215.838 143.388C215.583 143.505 215.269 143.563 214.897 143.563C214.719 143.563 214.574 143.552 214.462 143.531C214.349 143.509 214.215 143.479 214.059 143.44V142.069C214.107 142.069 214.156 142.069 214.208 142.069C214.26 142.074 214.31 142.076 214.358 142.076C214.605 142.076 214.806 142.048 214.962 141.991C215.118 141.935 215.243 141.849 215.338 141.732C215.434 141.619 215.509 141.472 215.566 141.29L216.092 139.933ZM215.312 133.698L216.839 138.79L217.105 140.771L215.832 140.907L213.306 133.698H215.312ZM224.508 138.783C224.508 138.649 224.469 138.528 224.391 138.42C224.313 138.311 224.168 138.212 223.956 138.121C223.748 138.026 223.447 137.939 223.053 137.861C222.698 137.783 222.367 137.686 222.06 137.569C221.757 137.448 221.493 137.303 221.268 137.134C221.047 136.965 220.874 136.766 220.748 136.536C220.622 136.303 220.56 136.036 220.56 135.738C220.56 135.443 220.622 135.166 220.748 134.906C220.878 134.647 221.062 134.417 221.3 134.218C221.542 134.014 221.837 133.856 222.183 133.744C222.534 133.627 222.928 133.569 223.365 133.569C223.976 133.569 224.499 133.666 224.937 133.861C225.378 134.056 225.716 134.324 225.95 134.666C226.188 135.004 226.307 135.389 226.307 135.822H224.437C224.437 135.64 224.398 135.478 224.32 135.335C224.246 135.188 224.129 135.073 223.969 134.991C223.813 134.904 223.61 134.861 223.359 134.861C223.151 134.861 222.971 134.898 222.82 134.971C222.668 135.041 222.551 135.136 222.469 135.257C222.391 135.374 222.352 135.504 222.352 135.647C222.352 135.755 222.374 135.852 222.417 135.939C222.465 136.021 222.54 136.097 222.644 136.166C222.748 136.235 222.882 136.3 223.047 136.361C223.216 136.417 223.424 136.469 223.67 136.517C224.177 136.621 224.629 136.757 225.028 136.926C225.426 137.091 225.742 137.316 225.976 137.601C226.21 137.883 226.327 138.253 226.327 138.712C226.327 139.024 226.257 139.309 226.119 139.569C225.98 139.829 225.781 140.056 225.521 140.251C225.261 140.442 224.95 140.591 224.586 140.699C224.227 140.803 223.822 140.855 223.372 140.855C222.718 140.855 222.164 140.738 221.709 140.504C221.259 140.271 220.917 139.974 220.683 139.615C220.454 139.251 220.339 138.879 220.339 138.498H222.112C222.12 138.753 222.185 138.959 222.307 139.115C222.432 139.27 222.59 139.383 222.781 139.452C222.976 139.522 223.186 139.556 223.411 139.556C223.653 139.556 223.854 139.524 224.015 139.459C224.175 139.389 224.296 139.299 224.378 139.186C224.465 139.069 224.508 138.935 224.508 138.783ZM230.983 133.698V135.023H226.891V133.698H230.983ZM227.905 131.965H229.775V138.608C229.775 138.811 229.801 138.967 229.853 139.076C229.909 139.184 229.991 139.26 230.1 139.303C230.208 139.342 230.344 139.361 230.509 139.361C230.626 139.361 230.73 139.357 230.82 139.348C230.916 139.335 230.996 139.322 231.061 139.309L231.067 140.686C230.907 140.738 230.734 140.779 230.548 140.81C230.362 140.84 230.156 140.855 229.931 140.855C229.519 140.855 229.16 140.788 228.853 140.654C228.55 140.515 228.316 140.294 228.151 139.991C227.987 139.688 227.905 139.29 227.905 138.796V131.965ZM235.282 140.855C234.736 140.855 234.247 140.768 233.814 140.595C233.381 140.418 233.013 140.173 232.71 139.861C232.412 139.55 232.182 139.188 232.022 138.777C231.862 138.361 231.782 137.92 231.782 137.452V137.192C231.782 136.66 231.857 136.173 232.009 135.731C232.16 135.29 232.377 134.906 232.658 134.582C232.944 134.257 233.29 134.008 233.697 133.835C234.104 133.657 234.563 133.569 235.074 133.569C235.572 133.569 236.014 133.651 236.399 133.815C236.784 133.98 237.107 134.214 237.367 134.517C237.631 134.82 237.83 135.183 237.964 135.608C238.098 136.028 238.165 136.495 238.165 137.01V137.79H232.58V136.543H236.327V136.4C236.327 136.14 236.28 135.909 236.185 135.705C236.094 135.497 235.955 135.333 235.769 135.212C235.583 135.09 235.345 135.03 235.055 135.03C234.808 135.03 234.596 135.084 234.418 135.192C234.241 135.3 234.096 135.452 233.983 135.647C233.875 135.842 233.793 136.071 233.736 136.335C233.684 136.595 233.658 136.881 233.658 137.192V137.452C233.658 137.733 233.697 137.993 233.775 138.231C233.858 138.469 233.972 138.675 234.119 138.848C234.271 139.021 234.453 139.156 234.665 139.251C234.881 139.346 235.126 139.394 235.399 139.394C235.737 139.394 236.05 139.329 236.34 139.199C236.635 139.065 236.888 138.863 237.1 138.595L238.009 139.582C237.862 139.794 237.661 139.998 237.406 140.193C237.154 140.387 236.851 140.548 236.496 140.673C236.141 140.794 235.737 140.855 235.282 140.855ZM241.101 135.153V140.725H239.224V133.698H240.984L241.101 135.153ZM240.841 136.965H240.321C240.321 136.476 240.38 136.026 240.497 135.614C240.618 135.199 240.793 134.839 241.023 134.536C241.257 134.229 241.544 133.991 241.886 133.822C242.228 133.653 242.625 133.569 243.075 133.569C243.387 133.569 243.672 133.616 243.932 133.711C244.192 133.802 244.415 133.947 244.601 134.147C244.792 134.341 244.939 134.597 245.043 134.913C245.147 135.225 245.198 135.599 245.198 136.036V140.725H243.328V136.244C243.328 135.924 243.285 135.677 243.198 135.504C243.112 135.331 242.988 135.209 242.828 135.14C242.672 135.071 242.484 135.036 242.263 135.036C242.021 135.036 241.809 135.086 241.627 135.186C241.449 135.285 241.302 135.424 241.185 135.601C241.068 135.774 240.982 135.978 240.925 136.212C240.869 136.445 240.841 136.697 240.841 136.965ZM245.023 136.751L244.354 136.835C244.354 136.376 244.411 135.95 244.523 135.556C244.64 135.162 244.811 134.815 245.036 134.517C245.266 134.218 245.549 133.986 245.887 133.822C246.225 133.653 246.614 133.569 247.056 133.569C247.393 133.569 247.701 133.618 247.978 133.718C248.255 133.813 248.491 133.967 248.686 134.179C248.885 134.387 249.037 134.66 249.14 134.997C249.249 135.335 249.303 135.748 249.303 136.238V140.725H247.426V136.238C247.426 135.913 247.383 135.666 247.296 135.497C247.214 135.324 247.093 135.205 246.932 135.14C246.777 135.071 246.59 135.036 246.374 135.036C246.149 135.036 245.952 135.082 245.783 135.173C245.614 135.259 245.473 135.38 245.361 135.536C245.248 135.692 245.164 135.874 245.108 136.082C245.051 136.285 245.023 136.508 245.023 136.751Z" fill="black"/>
<path d="M99.9063 159.952V166.958H99.0211V161.057L97.2362 161.708V160.909L99.7676 159.952H99.9063ZM102.62 166.489C102.62 166.339 102.666 166.213 102.758 166.111C102.854 166.005 102.991 165.953 103.17 165.953C103.348 165.953 103.484 166.005 103.577 166.111C103.672 166.213 103.72 166.339 103.72 166.489C103.72 166.635 103.672 166.76 103.577 166.862C103.484 166.964 103.348 167.015 103.17 167.015C102.991 167.015 102.854 166.964 102.758 166.862C102.666 166.76 102.62 166.635 102.62 166.489ZM108.003 159.952V166.958H107.118V161.057L105.333 161.708V160.909L107.864 159.952H108.003ZM117.693 166.206V166.958H114.003V166.206H117.693ZM114.19 159.99V166.958H113.267V159.99H114.19ZM117.205 162.986V163.737H114.003V162.986H117.205ZM117.645 159.99V160.746H114.003V159.99H117.645ZM119.588 162.885V166.958H118.702V161.78H119.54L119.588 162.885ZM119.377 164.173L119.009 164.158C119.012 163.804 119.065 163.477 119.167 163.177C119.269 162.874 119.412 162.611 119.597 162.388C119.782 162.164 120.002 161.992 120.258 161.871C120.516 161.746 120.802 161.684 121.114 161.684C121.369 161.684 121.599 161.719 121.803 161.79C122.007 161.857 122.181 161.965 122.325 162.115C122.472 162.265 122.583 162.459 122.66 162.699C122.736 162.935 122.775 163.224 122.775 163.565V166.958H121.885V163.555C121.885 163.284 121.845 163.067 121.765 162.904C121.685 162.739 121.569 162.619 121.416 162.546C121.262 162.469 121.074 162.431 120.851 162.431C120.631 162.431 120.43 162.477 120.248 162.57C120.069 162.662 119.915 162.79 119.784 162.952C119.656 163.115 119.556 163.302 119.482 163.512C119.412 163.72 119.377 163.94 119.377 164.173ZM127.134 165.584C127.134 165.457 127.105 165.339 127.048 165.23C126.994 165.118 126.88 165.018 126.708 164.929C126.539 164.836 126.284 164.756 125.942 164.689C125.655 164.629 125.395 164.557 125.162 164.474C124.933 164.391 124.737 164.291 124.574 164.173C124.414 164.055 124.292 163.916 124.205 163.756C124.119 163.597 124.076 163.41 124.076 163.196C124.076 162.992 124.121 162.799 124.21 162.617C124.303 162.436 124.432 162.274 124.598 162.134C124.767 161.994 124.969 161.884 125.205 161.804C125.442 161.724 125.705 161.684 125.995 161.684C126.41 161.684 126.764 161.758 127.057 161.904C127.351 162.051 127.576 162.247 127.732 162.493C127.888 162.735 127.967 163.005 127.967 163.302H127.081C127.081 163.158 127.038 163.019 126.952 162.885C126.869 162.748 126.746 162.635 126.584 162.546C126.424 162.456 126.228 162.412 125.995 162.412C125.749 162.412 125.55 162.45 125.397 162.526C125.247 162.6 125.137 162.694 125.067 162.809C125 162.924 124.966 163.045 124.966 163.172C124.966 163.268 124.982 163.354 125.014 163.431C125.049 163.504 125.11 163.573 125.196 163.637C125.282 163.697 125.403 163.755 125.56 163.809C125.716 163.863 125.915 163.917 126.158 163.972C126.582 164.067 126.931 164.182 127.206 164.316C127.48 164.45 127.684 164.614 127.818 164.809C127.952 165.004 128.019 165.24 128.019 165.517C128.019 165.744 127.971 165.951 127.876 166.139C127.783 166.327 127.647 166.49 127.469 166.627C127.293 166.761 127.083 166.867 126.837 166.943C126.595 167.017 126.322 167.053 126.019 167.053C125.563 167.053 125.177 166.972 124.861 166.809C124.545 166.646 124.306 166.436 124.143 166.178C123.98 165.919 123.899 165.646 123.899 165.359H124.789C124.802 165.602 124.872 165.795 125 165.938C125.127 166.079 125.284 166.179 125.469 166.24C125.654 166.297 125.837 166.326 126.019 166.326C126.261 166.326 126.464 166.294 126.627 166.23C126.793 166.166 126.919 166.079 127.005 165.967C127.091 165.855 127.134 165.728 127.134 165.584ZM132.35 165.761V161.78H133.24V166.958H132.393L132.35 165.761ZM132.517 164.67L132.886 164.661C132.886 165.005 132.849 165.324 132.776 165.618C132.705 165.908 132.591 166.16 132.431 166.374C132.272 166.587 132.063 166.755 131.804 166.876C131.546 166.994 131.232 167.053 130.862 167.053C130.61 167.053 130.378 167.017 130.168 166.943C129.96 166.87 129.782 166.757 129.632 166.603C129.482 166.45 129.365 166.251 129.282 166.005C129.203 165.76 129.163 165.465 129.163 165.12V161.78H130.048V165.13C130.048 165.362 130.074 165.555 130.125 165.709C130.179 165.859 130.251 165.978 130.34 166.067C130.432 166.154 130.535 166.214 130.646 166.249C130.761 166.284 130.879 166.302 131 166.302C131.377 166.302 131.675 166.23 131.895 166.087C132.115 165.94 132.273 165.744 132.369 165.498C132.468 165.249 132.517 164.973 132.517 164.67ZM135.474 162.593V166.958H134.589V161.78H135.45L135.474 162.593ZM137.092 161.751L137.087 162.574C137.014 162.558 136.943 162.549 136.876 162.546C136.813 162.539 136.739 162.536 136.656 162.536C136.452 162.536 136.272 162.568 136.116 162.632C135.959 162.696 135.827 162.785 135.718 162.9C135.61 163.015 135.524 163.152 135.46 163.311C135.399 163.468 135.36 163.64 135.34 163.828L135.092 163.972C135.092 163.659 135.122 163.365 135.183 163.091C135.246 162.817 135.344 162.574 135.474 162.364C135.605 162.15 135.771 161.984 135.972 161.866C136.176 161.745 136.419 161.684 136.699 161.684C136.763 161.684 136.837 161.692 136.92 161.708C137.002 161.721 137.06 161.735 137.092 161.751ZM138.872 161.78V166.958H137.982V161.78H138.872ZM137.915 160.407C137.915 160.263 137.958 160.142 138.044 160.043C138.133 159.944 138.264 159.895 138.436 159.895C138.605 159.895 138.735 159.944 138.824 160.043C138.917 160.142 138.963 160.263 138.963 160.407C138.963 160.544 138.917 160.662 138.824 160.761C138.735 160.856 138.605 160.904 138.436 160.904C138.264 160.904 138.133 160.856 138.044 160.761C137.958 160.662 137.915 160.544 137.915 160.407ZM141.178 162.885V166.958H140.293V161.78H141.13L141.178 162.885ZM140.968 164.173L140.599 164.158C140.603 163.804 140.655 163.477 140.757 163.177C140.859 162.874 141.003 162.611 141.188 162.388C141.373 162.164 141.593 161.992 141.848 161.871C142.107 161.746 142.392 161.684 142.705 161.684C142.96 161.684 143.19 161.719 143.394 161.79C143.598 161.857 143.772 161.965 143.915 162.115C144.062 162.265 144.174 162.459 144.25 162.699C144.327 162.935 144.365 163.224 144.365 163.565V166.958H143.475V163.555C143.475 163.284 143.435 163.067 143.356 162.904C143.276 162.739 143.159 162.619 143.006 162.546C142.853 162.469 142.665 162.431 142.442 162.431C142.221 162.431 142.021 162.477 141.839 162.57C141.66 162.662 141.505 162.79 141.375 162.952C141.247 163.115 141.146 163.302 141.073 163.512C141.003 163.72 140.968 163.94 140.968 164.173ZM149.064 161.78H149.868V166.847C149.868 167.304 149.776 167.693 149.591 168.015C149.406 168.337 149.147 168.581 148.815 168.747C148.487 168.916 148.107 169.001 147.677 169.001C147.498 169.001 147.287 168.972 147.045 168.915C146.806 168.86 146.57 168.766 146.337 168.632C146.107 168.502 145.914 168.324 145.758 168.101L146.222 167.575C146.439 167.836 146.665 168.018 146.901 168.12C147.141 168.222 147.377 168.273 147.61 168.273C147.89 168.273 148.133 168.221 148.337 168.116C148.541 168.01 148.699 167.854 148.811 167.647C148.925 167.442 148.983 167.19 148.983 166.891V162.919L149.064 161.78ZM145.499 164.426V164.326C145.499 163.93 145.546 163.571 145.638 163.249C145.734 162.924 145.869 162.644 146.045 162.412C146.223 162.179 146.439 162 146.691 161.876C146.943 161.748 147.227 161.684 147.543 161.684C147.868 161.684 148.152 161.742 148.394 161.857C148.64 161.968 148.847 162.132 149.016 162.349C149.189 162.563 149.324 162.822 149.423 163.125C149.522 163.428 149.591 163.771 149.629 164.153V164.594C149.594 164.973 149.525 165.315 149.423 165.618C149.324 165.921 149.189 166.179 149.016 166.393C148.847 166.607 148.64 166.771 148.394 166.886C148.149 166.997 147.862 167.053 147.533 167.053C147.224 167.053 146.943 166.988 146.691 166.857C146.442 166.726 146.228 166.543 146.05 166.307C145.871 166.071 145.734 165.793 145.638 165.474C145.546 165.152 145.499 164.803 145.499 164.426ZM146.385 164.326V164.426C146.385 164.685 146.41 164.927 146.461 165.154C146.515 165.38 146.597 165.579 146.705 165.752C146.817 165.924 146.959 166.06 147.131 166.158C147.303 166.254 147.509 166.302 147.748 166.302C148.042 166.302 148.284 166.24 148.476 166.115C148.667 165.991 148.819 165.827 148.93 165.622C149.045 165.418 149.134 165.197 149.198 164.957V163.804C149.163 163.629 149.109 163.46 149.036 163.297C148.965 163.131 148.873 162.984 148.758 162.857C148.646 162.726 148.508 162.622 148.342 162.546C148.176 162.469 147.981 162.431 147.758 162.431C147.515 162.431 147.307 162.482 147.131 162.584C146.959 162.683 146.817 162.82 146.705 162.995C146.597 163.168 146.515 163.369 146.461 163.598C146.41 163.825 146.385 164.067 146.385 164.326ZM155.716 166.326C155.926 166.326 156.121 166.283 156.299 166.197C156.478 166.111 156.625 165.993 156.74 165.843C156.854 165.689 156.92 165.516 156.936 165.321H157.778C157.762 165.627 157.658 165.913 157.467 166.178C157.279 166.439 157.032 166.651 156.725 166.814C156.419 166.973 156.082 167.053 155.716 167.053C155.326 167.053 154.987 166.985 154.696 166.847C154.409 166.71 154.17 166.522 153.979 166.283C153.79 166.044 153.648 165.769 153.553 165.46C153.46 165.147 153.414 164.817 153.414 164.469V164.268C153.414 163.921 153.46 163.592 153.553 163.283C153.648 162.97 153.79 162.694 153.979 162.455C154.17 162.215 154.409 162.027 154.696 161.89C154.987 161.753 155.326 161.684 155.716 161.684C156.121 161.684 156.475 161.767 156.778 161.933C157.081 162.096 157.319 162.319 157.491 162.603C157.666 162.884 157.762 163.203 157.778 163.56H156.936C156.92 163.346 156.859 163.153 156.754 162.981C156.652 162.809 156.512 162.672 156.333 162.57C156.157 162.464 155.952 162.412 155.716 162.412C155.444 162.412 155.216 162.466 155.031 162.574C154.85 162.68 154.704 162.823 154.596 163.005C154.491 163.184 154.414 163.383 154.366 163.603C154.322 163.82 154.299 164.042 154.299 164.268V164.469C154.299 164.696 154.322 164.919 154.366 165.139C154.411 165.359 154.486 165.559 154.591 165.737C154.7 165.916 154.845 166.06 155.027 166.168C155.212 166.273 155.441 166.326 155.716 166.326ZM158.539 164.426V164.316C158.539 163.943 158.593 163.597 158.702 163.278C158.81 162.956 158.966 162.676 159.171 162.44C159.375 162.201 159.622 162.016 159.912 161.885C160.203 161.751 160.528 161.684 160.888 161.684C161.252 161.684 161.579 161.751 161.869 161.885C162.163 162.016 162.412 162.201 162.616 162.44C162.823 162.676 162.981 162.956 163.09 163.278C163.198 163.597 163.252 163.943 163.252 164.316V164.426C163.252 164.799 163.198 165.146 163.09 165.465C162.981 165.784 162.823 166.063 162.616 166.302C162.412 166.538 162.164 166.723 161.874 166.857C161.587 166.988 161.262 167.053 160.898 167.053C160.534 167.053 160.207 166.988 159.917 166.857C159.627 166.723 159.378 166.538 159.171 166.302C158.966 166.063 158.81 165.784 158.702 165.465C158.593 165.146 158.539 164.799 158.539 164.426ZM159.424 164.316V164.426C159.424 164.685 159.454 164.929 159.515 165.158C159.576 165.385 159.667 165.586 159.788 165.761C159.912 165.937 160.067 166.075 160.252 166.178C160.437 166.276 160.652 166.326 160.898 166.326C161.14 166.326 161.353 166.276 161.534 166.178C161.719 166.075 161.873 165.937 161.994 165.761C162.115 165.586 162.206 165.385 162.266 165.158C162.33 164.929 162.362 164.685 162.362 164.426V164.316C162.362 164.061 162.33 163.82 162.266 163.594C162.206 163.364 162.113 163.161 161.989 162.986C161.868 162.807 161.715 162.667 161.53 162.565C161.348 162.463 161.134 162.412 160.888 162.412C160.646 162.412 160.432 162.463 160.247 162.565C160.065 162.667 159.912 162.807 159.788 162.986C159.667 163.161 159.576 163.364 159.515 163.594C159.454 163.82 159.424 164.061 159.424 164.316ZM165.248 162.885V166.958H164.362V161.78H165.2L165.248 162.885ZM165.037 164.173L164.669 164.158C164.672 163.804 164.724 163.477 164.827 163.177C164.929 162.874 165.072 162.611 165.257 162.388C165.442 162.164 165.662 161.992 165.918 161.871C166.176 161.746 166.461 161.684 166.774 161.684C167.029 161.684 167.259 161.719 167.463 161.79C167.667 161.857 167.841 161.965 167.985 162.115C168.132 162.265 168.243 162.459 168.32 162.699C168.396 162.935 168.435 163.224 168.435 163.565V166.958H167.545V163.555C167.545 163.284 167.505 163.067 167.425 162.904C167.345 162.739 167.229 162.619 167.076 162.546C166.922 162.469 166.734 162.431 166.511 162.431C166.291 162.431 166.09 162.477 165.908 162.57C165.729 162.662 165.575 162.79 165.444 162.952C165.316 163.115 165.216 163.302 165.142 163.512C165.072 163.72 165.037 163.94 165.037 164.173ZM172.794 165.584C172.794 165.457 172.765 165.339 172.708 165.23C172.653 165.118 172.54 165.018 172.368 164.929C172.199 164.836 171.944 164.756 171.602 164.689C171.315 164.629 171.055 164.557 170.822 164.474C170.593 164.391 170.396 164.291 170.234 164.173C170.074 164.055 169.951 163.916 169.865 163.756C169.779 163.597 169.736 163.41 169.736 163.196C169.736 162.992 169.781 162.799 169.87 162.617C169.963 162.436 170.092 162.274 170.258 162.134C170.427 161.994 170.629 161.884 170.865 161.804C171.101 161.724 171.365 161.684 171.655 161.684C172.07 161.684 172.424 161.758 172.717 161.904C173.011 162.051 173.236 162.247 173.392 162.493C173.548 162.735 173.626 163.005 173.626 163.302H172.741C172.741 163.158 172.698 163.019 172.612 162.885C172.529 162.748 172.406 162.635 172.244 162.546C172.084 162.456 171.888 162.412 171.655 162.412C171.409 162.412 171.21 162.45 171.057 162.526C170.907 162.6 170.797 162.694 170.727 162.809C170.66 162.924 170.626 163.045 170.626 163.172C170.626 163.268 170.642 163.354 170.674 163.431C170.709 163.504 170.77 163.573 170.856 163.637C170.942 163.697 171.063 163.755 171.22 163.809C171.376 163.863 171.575 163.917 171.818 163.972C172.242 164.067 172.591 164.182 172.866 164.316C173.14 164.45 173.344 164.614 173.478 164.809C173.612 165.004 173.679 165.24 173.679 165.517C173.679 165.744 173.631 165.951 173.536 166.139C173.443 166.327 173.307 166.49 173.129 166.627C172.953 166.761 172.743 166.867 172.497 166.943C172.255 167.017 171.982 167.053 171.679 167.053C171.223 167.053 170.837 166.972 170.521 166.809C170.205 166.646 169.966 166.436 169.803 166.178C169.64 165.919 169.559 165.646 169.559 165.359H170.449C170.462 165.602 170.532 165.795 170.66 165.938C170.787 166.079 170.944 166.179 171.129 166.24C171.314 166.297 171.497 166.326 171.679 166.326C171.921 166.326 172.124 166.294 172.287 166.23C172.452 166.166 172.579 166.079 172.665 165.967C172.751 165.855 172.794 165.728 172.794 165.584ZM175.804 161.78V166.958H174.914V161.78H175.804ZM174.847 160.407C174.847 160.263 174.89 160.142 174.976 160.043C175.065 159.944 175.196 159.895 175.368 159.895C175.537 159.895 175.667 159.944 175.756 160.043C175.848 160.142 175.895 160.263 175.895 160.407C175.895 160.544 175.848 160.662 175.756 160.761C175.667 160.856 175.537 160.904 175.368 160.904C175.196 160.904 175.065 160.856 174.976 160.761C174.89 160.662 174.847 160.544 174.847 160.407ZM180.24 165.584C180.24 165.457 180.211 165.339 180.153 165.23C180.099 165.118 179.986 165.018 179.814 164.929C179.645 164.836 179.389 164.756 179.048 164.689C178.761 164.629 178.501 164.557 178.268 164.474C178.038 164.391 177.842 164.291 177.679 164.173C177.52 164.055 177.397 163.916 177.311 163.756C177.225 163.597 177.182 163.41 177.182 163.196C177.182 162.992 177.226 162.799 177.316 162.617C177.408 162.436 177.538 162.274 177.703 162.134C177.872 161.994 178.075 161.884 178.311 161.804C178.547 161.724 178.81 161.684 179.101 161.684C179.515 161.684 179.869 161.758 180.163 161.904C180.456 162.051 180.681 162.247 180.838 162.493C180.994 162.735 181.072 163.005 181.072 163.302H180.187C180.187 163.158 180.144 163.019 180.058 162.885C179.975 162.748 179.852 162.635 179.689 162.546C179.53 162.456 179.334 162.412 179.101 162.412C178.855 162.412 178.656 162.45 178.503 162.526C178.353 162.6 178.243 162.694 178.172 162.809C178.105 162.924 178.072 163.045 178.072 163.172C178.072 163.268 178.088 163.354 178.12 163.431C178.155 163.504 178.215 163.573 178.302 163.637C178.388 163.697 178.509 163.755 178.665 163.809C178.822 163.863 179.021 163.917 179.263 163.972C179.688 164.067 180.037 164.182 180.311 164.316C180.586 164.45 180.79 164.614 180.924 164.809C181.058 165.004 181.125 165.24 181.125 165.517C181.125 165.744 181.077 165.951 180.981 166.139C180.889 166.327 180.753 166.49 180.575 166.627C180.399 166.761 180.189 166.867 179.943 166.943C179.7 167.017 179.428 167.053 179.125 167.053C178.668 167.053 178.282 166.972 177.967 166.809C177.651 166.646 177.412 166.436 177.249 166.178C177.086 165.919 177.005 165.646 177.005 165.359H177.895C177.908 165.602 177.978 165.795 178.105 165.938C178.233 166.079 178.389 166.179 178.574 166.24C178.759 166.297 178.943 166.326 179.125 166.326C179.367 166.326 179.57 166.294 179.732 166.23C179.898 166.166 180.024 166.079 180.11 165.967C180.196 165.855 180.24 165.728 180.24 165.584ZM184.455 161.78V162.459H181.656V161.78H184.455ZM182.603 160.521H183.489V165.675C183.489 165.851 183.516 165.983 183.57 166.072C183.624 166.162 183.694 166.221 183.781 166.249C183.867 166.278 183.959 166.292 184.058 166.292C184.131 166.292 184.208 166.286 184.288 166.273C184.371 166.257 184.433 166.245 184.474 166.235L184.479 166.958C184.409 166.98 184.316 167.001 184.202 167.02C184.09 167.042 183.954 167.053 183.795 167.053C183.578 167.053 183.379 167.01 183.197 166.924C183.015 166.838 182.87 166.694 182.761 166.493C182.656 166.289 182.603 166.015 182.603 165.67V160.521ZM187.642 167.053C187.282 167.053 186.955 166.993 186.661 166.871C186.371 166.747 186.121 166.573 185.91 166.35C185.703 166.126 185.543 165.862 185.431 165.555C185.32 165.249 185.264 164.914 185.264 164.551V164.35C185.264 163.929 185.326 163.554 185.451 163.225C185.575 162.893 185.744 162.613 185.958 162.383C186.172 162.153 186.414 161.979 186.685 161.861C186.956 161.743 187.237 161.684 187.527 161.684C187.897 161.684 188.216 161.748 188.484 161.876C188.756 162.003 188.977 162.182 189.15 162.412C189.322 162.638 189.449 162.906 189.532 163.216C189.615 163.522 189.657 163.857 189.657 164.22V164.618H185.79V163.895H188.771V163.828C188.759 163.598 188.711 163.375 188.628 163.158C188.548 162.941 188.421 162.763 188.245 162.622C188.07 162.482 187.83 162.412 187.527 162.412C187.326 162.412 187.141 162.455 186.972 162.541C186.803 162.624 186.658 162.748 186.537 162.914C186.416 163.08 186.321 163.283 186.254 163.522C186.187 163.761 186.154 164.037 186.154 164.35V164.551C186.154 164.796 186.187 165.028 186.254 165.244C186.325 165.458 186.425 165.646 186.556 165.809C186.69 165.972 186.851 166.099 187.039 166.192C187.231 166.284 187.448 166.331 187.69 166.331C188.003 166.331 188.267 166.267 188.484 166.139C188.701 166.012 188.891 165.841 189.054 165.627L189.59 166.053C189.478 166.222 189.336 166.383 189.164 166.536C188.992 166.69 188.779 166.814 188.527 166.91C188.279 167.005 187.984 167.053 187.642 167.053ZM191.576 162.885V166.958H190.69V161.78H191.528L191.576 162.885ZM191.365 164.173L190.997 164.158C191 163.804 191.052 163.477 191.154 163.177C191.257 162.874 191.4 162.611 191.585 162.388C191.77 162.164 191.99 161.992 192.246 161.871C192.504 161.746 192.789 161.684 193.102 161.684C193.357 161.684 193.587 161.719 193.791 161.79C193.995 161.857 194.169 161.965 194.313 162.115C194.459 162.265 194.571 162.459 194.648 162.699C194.724 162.935 194.762 163.224 194.762 163.565V166.958H193.872V163.555C193.872 163.284 193.833 163.067 193.753 162.904C193.673 162.739 193.557 162.619 193.404 162.546C193.25 162.469 193.062 162.431 192.839 162.431C192.619 162.431 192.418 162.477 192.236 162.57C192.057 162.662 191.903 162.79 191.772 162.952C191.644 163.115 191.544 163.302 191.47 163.512C191.4 163.72 191.365 163.94 191.365 164.173ZM198.179 166.326C198.39 166.326 198.584 166.283 198.763 166.197C198.942 166.111 199.088 165.993 199.203 165.843C199.318 165.689 199.383 165.516 199.399 165.321H200.242C200.226 165.627 200.122 165.913 199.93 166.178C199.742 166.439 199.495 166.651 199.189 166.814C198.883 166.973 198.546 167.053 198.179 167.053C197.79 167.053 197.45 166.985 197.16 166.847C196.873 166.71 196.633 166.522 196.442 166.283C196.254 166.044 196.112 165.769 196.016 165.46C195.924 165.147 195.877 164.817 195.877 164.469V164.268C195.877 163.921 195.924 163.592 196.016 163.283C196.112 162.97 196.254 162.694 196.442 162.455C196.633 162.215 196.873 162.027 197.16 161.89C197.45 161.753 197.79 161.684 198.179 161.684C198.584 161.684 198.938 161.767 199.241 161.933C199.544 162.096 199.782 162.319 199.954 162.603C200.13 162.884 200.226 163.203 200.242 163.56H199.399C199.383 163.346 199.323 163.153 199.217 162.981C199.115 162.809 198.975 162.672 198.796 162.57C198.621 162.464 198.415 162.412 198.179 162.412C197.908 162.412 197.68 162.466 197.495 162.574C197.313 162.68 197.168 162.823 197.059 163.005C196.954 163.184 196.878 163.383 196.83 163.603C196.785 163.82 196.763 164.042 196.763 164.268V164.469C196.763 164.696 196.785 164.919 196.83 165.139C196.874 165.359 196.949 165.559 197.055 165.737C197.163 165.916 197.308 166.06 197.49 166.168C197.675 166.273 197.905 166.326 198.179 166.326ZM202.691 166.422L204.132 161.78H205.079L203.003 167.757C202.955 167.884 202.891 168.021 202.811 168.168C202.735 168.318 202.636 168.46 202.514 168.594C202.393 168.728 202.246 168.836 202.074 168.919C201.905 169.006 201.703 169.049 201.466 169.049C201.396 169.049 201.307 169.039 201.199 169.02C201.09 169.001 201.014 168.985 200.969 168.972L200.964 168.254C200.99 168.257 201.029 168.261 201.084 168.264C201.141 168.27 201.181 168.273 201.203 168.273C201.404 168.273 201.575 168.246 201.715 168.192C201.856 168.141 201.974 168.053 202.069 167.929C202.168 167.808 202.253 167.64 202.323 167.426L202.691 166.422ZM201.634 161.78L202.979 165.8L203.208 166.733L202.572 167.058L200.667 161.78H201.634Z" fill="black"/>
<path d="M99.9063 178.627V185.632H99.0211V179.732L97.2362 180.383V179.584L99.7676 178.627H99.9063ZM102.62 185.163C102.62 185.013 102.666 184.887 102.758 184.785C102.854 184.68 102.991 184.627 103.17 184.627C103.348 184.627 103.484 184.68 103.577 184.785C103.672 184.887 103.72 185.013 103.72 185.163C103.72 185.31 103.672 185.435 103.577 185.537C103.484 185.639 103.348 185.69 103.17 185.69C102.991 185.69 102.854 185.639 102.758 185.537C102.666 185.435 102.62 185.31 102.62 185.163ZM109.658 184.905V185.632H105.098V184.996L107.381 182.455C107.661 182.142 107.878 181.878 108.032 181.661C108.188 181.441 108.296 181.244 108.357 181.072C108.421 180.897 108.453 180.718 108.453 180.536C108.453 180.306 108.405 180.099 108.309 179.914C108.217 179.726 108.079 179.576 107.898 179.464C107.716 179.353 107.496 179.297 107.237 179.297C106.928 179.297 106.669 179.357 106.462 179.479C106.258 179.597 106.105 179.763 106.003 179.976C105.901 180.19 105.85 180.436 105.85 180.713H104.964C104.964 180.321 105.05 179.962 105.223 179.637C105.395 179.311 105.65 179.053 105.988 178.861C106.326 178.667 106.743 178.569 107.237 178.569C107.677 178.569 108.054 178.648 108.367 178.804C108.679 178.957 108.918 179.174 109.084 179.455C109.253 179.732 109.338 180.058 109.338 180.431C109.338 180.635 109.303 180.842 109.233 181.053C109.166 181.26 109.072 181.468 108.95 181.675C108.832 181.882 108.693 182.087 108.534 182.288C108.378 182.488 108.21 182.686 108.032 182.881L106.165 184.905H109.658ZM117.693 184.881V185.632H114.003V184.881H117.693ZM114.19 178.665V185.632H113.267V178.665H114.19ZM117.205 181.661V182.412H114.003V181.661H117.205ZM117.645 178.665V179.421H114.003V178.665H117.645ZM120.023 185.632H119.138V179.909C119.138 179.536 119.205 179.222 119.339 178.967C119.476 178.708 119.672 178.514 119.927 178.383C120.183 178.249 120.486 178.182 120.837 178.182C120.939 178.182 121.041 178.188 121.143 178.201C121.248 178.214 121.35 178.233 121.449 178.258L121.401 178.981C121.334 178.965 121.258 178.954 121.172 178.947C121.089 178.941 121.006 178.938 120.923 178.938C120.735 178.938 120.572 178.976 120.435 179.053C120.301 179.126 120.199 179.235 120.128 179.378C120.058 179.522 120.023 179.699 120.023 179.909V185.632ZM121.172 180.455V181.134H118.32V180.455H121.172ZM122.822 185.632H121.937V180.005C121.937 179.613 122.012 179.281 122.162 179.01C122.315 178.739 122.534 178.533 122.818 178.392C123.102 178.252 123.438 178.182 123.827 178.182C124.06 178.182 124.287 178.211 124.507 178.268C124.727 178.322 124.953 178.391 125.186 178.474L125.033 179.22C124.89 179.163 124.721 179.109 124.526 179.058C124.331 179.003 124.121 178.976 123.894 178.976C123.515 178.976 123.24 179.062 123.071 179.235C122.905 179.404 122.822 179.66 122.822 180.005V185.632ZM123.88 180.455V181.134H121.119V180.455H123.88ZM125.622 180.455V185.632H124.737V180.455H125.622ZM129.139 185.001C129.349 185.001 129.544 184.958 129.723 184.871C129.901 184.785 130.048 184.667 130.163 184.517C130.278 184.364 130.343 184.19 130.359 183.996H131.201C131.185 184.302 131.082 184.588 130.89 184.852C130.702 185.114 130.455 185.326 130.149 185.489C129.842 185.648 129.506 185.728 129.139 185.728C128.75 185.728 128.41 185.659 128.12 185.522C127.833 185.385 127.593 185.197 127.402 184.958C127.214 184.718 127.072 184.444 126.976 184.135C126.883 183.822 126.837 183.492 126.837 183.144V182.943C126.837 182.595 126.883 182.267 126.976 181.957C127.072 181.645 127.214 181.369 127.402 181.129C127.593 180.89 127.833 180.702 128.12 180.565C128.41 180.428 128.75 180.359 129.139 180.359C129.544 180.359 129.898 180.442 130.201 180.608C130.504 180.771 130.742 180.994 130.914 181.278C131.09 181.559 131.185 181.878 131.201 182.235H130.359C130.343 182.021 130.283 181.828 130.177 181.656C130.075 181.484 129.935 181.346 129.756 181.244C129.581 181.139 129.375 181.086 129.139 181.086C128.868 181.086 128.64 181.141 128.455 181.249C128.273 181.354 128.128 181.498 128.019 181.68C127.914 181.858 127.837 182.058 127.789 182.278C127.745 182.495 127.722 182.717 127.722 182.943V183.144C127.722 183.371 127.745 183.594 127.789 183.814C127.834 184.034 127.909 184.233 128.014 184.412C128.123 184.591 128.268 184.734 128.45 184.843C128.635 184.948 128.865 185.001 129.139 185.001ZM133.158 180.455V185.632H132.268V180.455H133.158ZM132.201 179.081C132.201 178.938 132.244 178.817 132.331 178.718C132.42 178.619 132.551 178.569 132.723 178.569C132.892 178.569 133.021 178.619 133.111 178.718C133.203 178.817 133.249 178.938 133.249 179.081C133.249 179.219 133.203 179.337 133.111 179.436C133.021 179.531 132.892 179.579 132.723 179.579C132.551 179.579 132.42 179.531 132.331 179.436C132.244 179.337 132.201 179.219 132.201 179.081ZM136.728 185.728C136.368 185.728 136.041 185.667 135.747 185.546C135.457 185.422 135.206 185.248 134.996 185.025C134.789 184.801 134.629 184.537 134.517 184.23C134.406 183.924 134.35 183.589 134.35 183.225V183.024C134.35 182.603 134.412 182.228 134.537 181.9C134.661 181.568 134.83 181.287 135.044 181.058C135.257 180.828 135.5 180.654 135.771 180.536C136.042 180.418 136.323 180.359 136.613 180.359C136.983 180.359 137.302 180.423 137.57 180.55C137.841 180.678 138.063 180.857 138.235 181.086C138.408 181.313 138.535 181.581 138.618 181.89C138.701 182.197 138.743 182.532 138.743 182.895V183.292H134.876V182.57H137.857V182.503C137.845 182.273 137.797 182.05 137.714 181.833C137.634 181.616 137.507 181.437 137.331 181.297C137.156 181.157 136.916 181.086 136.613 181.086C136.412 181.086 136.227 181.129 136.058 181.216C135.889 181.299 135.744 181.423 135.623 181.589C135.502 181.755 135.407 181.957 135.34 182.197C135.273 182.436 135.24 182.712 135.24 183.024V183.225C135.24 183.471 135.273 183.702 135.34 183.919C135.411 184.133 135.511 184.321 135.642 184.484C135.776 184.647 135.937 184.774 136.125 184.867C136.317 184.959 136.534 185.005 136.776 185.005C137.089 185.005 137.353 184.942 137.57 184.814C137.787 184.686 137.977 184.516 138.14 184.302L138.676 184.728C138.564 184.897 138.422 185.058 138.25 185.211C138.078 185.364 137.865 185.489 137.613 185.584C137.365 185.68 137.069 185.728 136.728 185.728ZM140.662 181.56V185.632H139.776V180.455H140.614L140.662 181.56ZM140.451 182.847L140.083 182.833C140.086 182.479 140.138 182.152 140.24 181.852C140.343 181.549 140.486 181.286 140.671 181.063C140.856 180.839 141.076 180.667 141.331 180.546C141.59 180.421 141.875 180.359 142.188 180.359C142.443 180.359 142.673 180.394 142.877 180.464C143.081 180.531 143.255 180.64 143.399 180.79C143.545 180.94 143.657 181.134 143.734 181.374C143.81 181.61 143.848 181.898 143.848 182.24V185.632H142.958V182.23C142.958 181.959 142.919 181.742 142.839 181.579C142.759 181.413 142.643 181.294 142.489 181.22C142.336 181.144 142.148 181.106 141.925 181.106C141.705 181.106 141.504 181.152 141.322 181.244C141.143 181.337 140.989 181.464 140.858 181.627C140.73 181.79 140.63 181.976 140.556 182.187C140.486 182.394 140.451 182.614 140.451 182.847ZM147.361 180.455V181.134H144.561V180.455H147.361ZM145.509 179.196H146.394V184.35C146.394 184.525 146.421 184.658 146.475 184.747C146.53 184.836 146.6 184.895 146.686 184.924C146.772 184.953 146.865 184.967 146.964 184.967C147.037 184.967 147.114 184.961 147.193 184.948C147.276 184.932 147.338 184.919 147.38 184.91L147.385 185.632C147.314 185.655 147.222 185.675 147.107 185.695C146.995 185.717 146.86 185.728 146.7 185.728C146.483 185.728 146.284 185.685 146.102 185.599C145.92 185.513 145.775 185.369 145.667 185.168C145.562 184.964 145.509 184.69 145.509 184.345V179.196ZM152.902 185.001C153.112 185.001 153.307 184.958 153.486 184.871C153.664 184.785 153.811 184.667 153.926 184.517C154.041 184.364 154.106 184.19 154.122 183.996H154.964C154.948 184.302 154.845 184.588 154.653 184.852C154.465 185.114 154.218 185.326 153.912 185.489C153.605 185.648 153.269 185.728 152.902 185.728C152.513 185.728 152.173 185.659 151.883 185.522C151.596 185.385 151.356 185.197 151.165 184.958C150.977 184.718 150.835 184.444 150.739 184.135C150.647 183.822 150.6 183.492 150.6 183.144V182.943C150.6 182.595 150.647 182.267 150.739 181.957C150.835 181.645 150.977 181.369 151.165 181.129C151.356 180.89 151.596 180.702 151.883 180.565C152.173 180.428 152.513 180.359 152.902 180.359C153.307 180.359 153.661 180.442 153.964 180.608C154.267 180.771 154.505 180.994 154.677 181.278C154.853 181.559 154.948 181.878 154.964 182.235H154.122C154.106 182.021 154.046 181.828 153.94 181.656C153.838 181.484 153.698 181.346 153.519 181.244C153.344 181.139 153.138 181.086 152.902 181.086C152.631 181.086 152.403 181.141 152.218 181.249C152.036 181.354 151.891 181.498 151.782 181.68C151.677 181.858 151.6 182.058 151.553 182.278C151.508 182.495 151.486 182.717 151.486 182.943V183.144C151.486 183.371 151.508 183.594 151.553 183.814C151.597 184.034 151.672 184.233 151.777 184.412C151.886 184.591 152.031 184.734 152.213 184.843C152.398 184.948 152.628 185.001 152.902 185.001ZM155.725 183.101V182.991C155.725 182.618 155.779 182.272 155.888 181.953C155.996 181.63 156.153 181.351 156.357 181.115C156.561 180.876 156.808 180.691 157.099 180.56C157.389 180.426 157.714 180.359 158.075 180.359C158.438 180.359 158.765 180.426 159.056 180.56C159.349 180.691 159.598 180.876 159.802 181.115C160.01 181.351 160.167 181.63 160.276 181.953C160.384 182.272 160.439 182.618 160.439 182.991V183.101C160.439 183.474 160.384 183.82 160.276 184.139C160.167 184.458 160.01 184.738 159.802 184.977C159.598 185.213 159.351 185.398 159.06 185.532C158.773 185.663 158.448 185.728 158.084 185.728C157.721 185.728 157.394 185.663 157.103 185.532C156.813 185.398 156.564 185.213 156.357 184.977C156.153 184.738 155.996 184.458 155.888 184.139C155.779 183.82 155.725 183.474 155.725 183.101ZM156.61 182.991V183.101C156.61 183.359 156.641 183.603 156.701 183.833C156.762 184.06 156.853 184.261 156.974 184.436C157.099 184.611 157.253 184.75 157.438 184.852C157.623 184.951 157.839 185.001 158.084 185.001C158.327 185.001 158.539 184.951 158.721 184.852C158.906 184.75 159.059 184.611 159.18 184.436C159.301 184.261 159.392 184.06 159.453 183.833C159.517 183.603 159.549 183.359 159.549 183.101V182.991C159.549 182.736 159.517 182.495 159.453 182.268C159.392 182.039 159.3 181.836 159.175 181.661C159.054 181.482 158.901 181.342 158.716 181.24C158.534 181.137 158.32 181.086 158.075 181.086C157.832 181.086 157.619 181.137 157.433 181.24C157.252 181.342 157.099 181.482 156.974 181.661C156.853 181.836 156.762 182.039 156.701 182.268C156.641 182.495 156.61 182.736 156.61 182.991ZM162.511 178.282V185.632H161.621V178.282H162.511ZM164.894 178.282V185.632H164.004V178.282H164.894ZM169.368 184.747V182.082C169.368 181.878 169.326 181.701 169.243 181.551C169.164 181.397 169.042 181.279 168.88 181.196C168.717 181.114 168.516 181.072 168.277 181.072C168.053 181.072 167.857 181.11 167.688 181.187C167.522 181.263 167.391 181.364 167.296 181.488C167.203 181.613 167.157 181.747 167.157 181.89H166.272C166.272 181.705 166.32 181.522 166.415 181.34C166.511 181.158 166.648 180.994 166.827 180.847C167.009 180.697 167.226 180.579 167.478 180.493C167.733 180.404 168.017 180.359 168.329 180.359C168.706 180.359 169.037 180.423 169.325 180.55C169.615 180.678 169.841 180.871 170.004 181.129C170.17 181.385 170.253 181.705 170.253 182.091V184.503C170.253 184.675 170.267 184.859 170.296 185.053C170.328 185.248 170.374 185.415 170.435 185.556V185.632H169.511C169.467 185.53 169.431 185.395 169.406 185.226C169.38 185.053 169.368 184.894 169.368 184.747ZM169.521 182.493L169.53 183.115H168.636C168.384 183.115 168.159 183.136 167.961 183.178C167.763 183.216 167.597 183.275 167.463 183.355C167.329 183.434 167.227 183.535 167.157 183.656C167.087 183.774 167.052 183.913 167.052 184.072C167.052 184.235 167.088 184.383 167.162 184.517C167.235 184.651 167.345 184.758 167.492 184.838C167.642 184.915 167.825 184.953 168.042 184.953C168.313 184.953 168.553 184.895 168.76 184.781C168.967 184.666 169.132 184.525 169.253 184.359C169.377 184.194 169.444 184.032 169.454 183.876L169.832 184.302C169.81 184.436 169.749 184.584 169.65 184.747C169.551 184.91 169.419 185.066 169.253 185.216C169.09 185.363 168.896 185.486 168.669 185.584C168.446 185.68 168.194 185.728 167.913 185.728C167.562 185.728 167.254 185.659 166.989 185.522C166.728 185.385 166.524 185.202 166.377 184.972C166.233 184.739 166.162 184.479 166.162 184.192C166.162 183.914 166.216 183.67 166.324 183.46C166.433 183.246 166.589 183.069 166.793 182.929C166.997 182.785 167.243 182.677 167.53 182.603C167.817 182.53 168.138 182.493 168.492 182.493H169.521ZM171.641 178.282H172.531V184.627L172.454 185.632H171.641V178.282ZM176.029 183V183.101C176.029 183.477 175.984 183.827 175.895 184.149C175.805 184.468 175.675 184.745 175.502 184.982C175.33 185.218 175.119 185.401 174.871 185.532C174.622 185.663 174.336 185.728 174.014 185.728C173.685 185.728 173.397 185.672 173.148 185.561C172.902 185.446 172.695 185.281 172.526 185.068C172.357 184.854 172.221 184.596 172.119 184.292C172.02 183.989 171.952 183.648 171.913 183.268V182.828C171.952 182.445 172.02 182.102 172.119 181.799C172.221 181.496 172.357 181.238 172.526 181.024C172.695 180.807 172.902 180.643 173.148 180.531C173.394 180.417 173.679 180.359 174.004 180.359C174.33 180.359 174.619 180.423 174.871 180.55C175.123 180.675 175.333 180.854 175.502 181.086C175.675 181.319 175.805 181.598 175.895 181.924C175.984 182.246 176.029 182.605 176.029 183ZM175.139 183.101V183C175.139 182.742 175.115 182.5 175.067 182.273C175.019 182.043 174.942 181.842 174.837 181.67C174.732 181.495 174.593 181.358 174.421 181.259C174.249 181.157 174.036 181.106 173.784 181.106C173.561 181.106 173.366 181.144 173.201 181.22C173.038 181.297 172.899 181.401 172.784 181.531C172.669 181.659 172.575 181.806 172.502 181.972C172.432 182.134 172.379 182.303 172.344 182.479V183.632C172.395 183.855 172.478 184.071 172.593 184.278C172.711 184.482 172.867 184.65 173.062 184.781C173.26 184.911 173.504 184.977 173.794 184.977C174.033 184.977 174.237 184.929 174.406 184.833C174.579 184.734 174.717 184.599 174.823 184.426C174.931 184.254 175.011 184.055 175.062 183.828C175.113 183.602 175.139 183.359 175.139 183.101ZM176.914 183.101V182.991C176.914 182.618 176.968 182.272 177.077 181.953C177.185 181.63 177.341 181.351 177.546 181.115C177.75 180.876 177.997 180.691 178.287 180.56C178.577 180.426 178.903 180.359 179.263 180.359C179.627 180.359 179.954 180.426 180.244 180.56C180.538 180.691 180.787 180.876 180.991 181.115C181.198 181.351 181.356 181.63 181.465 181.953C181.573 182.272 181.627 182.618 181.627 182.991V183.101C181.627 183.474 181.573 183.82 181.465 184.139C181.356 184.458 181.198 184.738 180.991 184.977C180.787 185.213 180.539 185.398 180.249 185.532C179.962 185.663 179.637 185.728 179.273 185.728C178.909 185.728 178.582 185.663 178.292 185.532C178.002 185.398 177.753 185.213 177.546 184.977C177.341 184.738 177.185 184.458 177.077 184.139C176.968 183.82 176.914 183.474 176.914 183.101ZM177.799 182.991V183.101C177.799 183.359 177.829 183.603 177.89 183.833C177.951 184.06 178.042 184.261 178.163 184.436C178.287 184.611 178.442 184.75 178.627 184.852C178.812 184.951 179.027 185.001 179.273 185.001C179.515 185.001 179.728 184.951 179.909 184.852C180.094 184.75 180.248 184.611 180.369 184.436C180.49 184.261 180.581 184.06 180.641 183.833C180.705 183.603 180.737 183.359 180.737 183.101V182.991C180.737 182.736 180.705 182.495 180.641 182.268C180.581 182.039 180.488 181.836 180.364 181.661C180.243 181.482 180.09 181.342 179.905 181.24C179.723 181.137 179.509 181.086 179.263 181.086C179.021 181.086 178.807 181.137 178.622 181.24C178.44 181.342 178.287 181.482 178.163 181.661C178.042 181.836 177.951 182.039 177.89 182.268C177.829 182.495 177.799 182.736 177.799 182.991ZM183.623 181.268V185.632H182.737V180.455H183.599L183.623 181.268ZM185.24 180.426L185.235 181.249C185.162 181.233 185.092 181.224 185.025 181.22C184.961 181.214 184.888 181.211 184.805 181.211C184.6 181.211 184.42 181.243 184.264 181.307C184.108 181.37 183.975 181.46 183.867 181.575C183.758 181.689 183.672 181.827 183.608 181.986C183.548 182.142 183.508 182.315 183.489 182.503L183.24 182.646C183.24 182.334 183.27 182.04 183.331 181.766C183.395 181.492 183.492 181.249 183.623 181.039C183.753 180.825 183.919 180.659 184.12 180.541C184.324 180.42 184.567 180.359 184.848 180.359C184.911 180.359 184.985 180.367 185.068 180.383C185.151 180.396 185.208 180.41 185.24 180.426ZM188.92 184.747V182.082C188.92 181.878 188.878 181.701 188.795 181.551C188.716 181.397 188.594 181.279 188.432 181.196C188.269 181.114 188.068 181.072 187.829 181.072C187.605 181.072 187.409 181.11 187.24 181.187C187.074 181.263 186.944 181.364 186.848 181.488C186.755 181.613 186.709 181.747 186.709 181.89H185.824C185.824 181.705 185.872 181.522 185.967 181.34C186.063 181.158 186.2 180.994 186.379 180.847C186.561 180.697 186.778 180.579 187.03 180.493C187.285 180.404 187.569 180.359 187.881 180.359C188.258 180.359 188.59 180.423 188.877 180.55C189.167 180.678 189.394 180.871 189.556 181.129C189.722 181.385 189.805 181.705 189.805 182.091V184.503C189.805 184.675 189.819 184.859 189.848 185.053C189.88 185.248 189.926 185.415 189.987 185.556V185.632H189.063C189.019 185.53 188.984 185.395 188.958 185.226C188.933 185.053 188.92 184.894 188.92 184.747ZM189.073 182.493L189.083 183.115H188.188C187.936 183.115 187.711 183.136 187.513 183.178C187.315 183.216 187.149 183.275 187.015 183.355C186.881 183.434 186.779 183.535 186.709 183.656C186.639 183.774 186.604 183.913 186.604 184.072C186.604 184.235 186.64 184.383 186.714 184.517C186.787 184.651 186.897 184.758 187.044 184.838C187.194 184.915 187.377 184.953 187.594 184.953C187.865 184.953 188.105 184.895 188.312 184.781C188.519 184.666 188.684 184.525 188.805 184.359C188.929 184.194 188.996 184.032 189.006 183.876L189.384 184.302C189.362 184.436 189.301 184.584 189.202 184.747C189.103 184.91 188.971 185.066 188.805 185.216C188.642 185.363 188.448 185.486 188.221 185.584C187.998 185.68 187.746 185.728 187.465 185.728C187.114 185.728 186.806 185.659 186.542 185.522C186.28 185.385 186.076 185.202 185.929 184.972C185.786 184.739 185.714 184.479 185.714 184.192C185.714 183.914 185.768 183.67 185.876 183.46C185.985 183.246 186.141 183.069 186.345 182.929C186.55 182.785 186.795 182.677 187.082 182.603C187.369 182.53 187.69 182.493 188.044 182.493H189.073ZM193.365 180.455V181.134H190.566V180.455H193.365ZM191.513 179.196H192.399V184.35C192.399 184.525 192.426 184.658 192.48 184.747C192.534 184.836 192.604 184.895 192.691 184.924C192.777 184.953 192.869 184.967 192.968 184.967C193.041 184.967 193.118 184.961 193.198 184.948C193.281 184.932 193.343 184.919 193.384 184.91L193.389 185.632C193.319 185.655 193.226 185.675 193.112 185.695C193 185.717 192.864 185.728 192.705 185.728C192.488 185.728 192.289 185.685 192.107 185.599C191.925 185.513 191.78 185.369 191.671 185.168C191.566 184.964 191.513 184.69 191.513 184.345V179.196ZM195.365 180.455V185.632H194.475V180.455H195.365ZM194.408 179.081C194.408 178.938 194.451 178.817 194.538 178.718C194.627 178.619 194.758 178.569 194.93 178.569C195.099 178.569 195.228 178.619 195.318 178.718C195.41 178.817 195.456 178.938 195.456 179.081C195.456 179.219 195.41 179.337 195.318 179.436C195.228 179.531 195.099 179.579 194.93 179.579C194.758 179.579 194.627 179.531 194.538 179.436C194.451 179.337 194.408 179.219 194.408 179.081ZM196.552 183.101V182.991C196.552 182.618 196.606 182.272 196.715 181.953C196.823 181.63 196.98 181.351 197.184 181.115C197.388 180.876 197.635 180.691 197.925 180.56C198.216 180.426 198.541 180.359 198.902 180.359C199.265 180.359 199.592 180.426 199.883 180.56C200.176 180.691 200.425 180.876 200.629 181.115C200.836 181.351 200.994 181.63 201.103 181.953C201.211 182.272 201.266 182.618 201.266 182.991V183.101C201.266 183.474 201.211 183.82 201.103 184.139C200.994 184.458 200.836 184.738 200.629 184.977C200.425 185.213 200.178 185.398 199.887 185.532C199.6 185.663 199.275 185.728 198.911 185.728C198.548 185.728 198.221 185.663 197.93 185.532C197.64 185.398 197.391 185.213 197.184 184.977C196.98 184.738 196.823 184.458 196.715 184.139C196.606 183.82 196.552 183.474 196.552 183.101ZM197.437 182.991V183.101C197.437 183.359 197.468 183.603 197.528 183.833C197.589 184.06 197.68 184.261 197.801 184.436C197.925 184.611 198.08 184.75 198.265 184.852C198.45 184.951 198.666 185.001 198.911 185.001C199.154 185.001 199.366 184.951 199.548 184.852C199.733 184.75 199.886 184.611 200.007 184.436C200.128 184.261 200.219 184.06 200.28 183.833C200.344 183.603 200.375 183.359 200.375 183.101V182.991C200.375 182.736 200.344 182.495 200.28 182.268C200.219 182.039 200.127 181.836 200.002 181.661C199.881 181.482 199.728 181.342 199.543 181.24C199.361 181.137 199.147 181.086 198.902 181.086C198.659 181.086 198.445 181.137 198.26 181.24C198.079 181.342 197.925 181.482 197.801 181.661C197.68 181.836 197.589 182.039 197.528 182.268C197.468 182.495 197.437 182.736 197.437 182.991ZM203.261 181.56V185.632H202.376V180.455H203.213L203.261 181.56ZM203.05 182.847L202.682 182.833C202.685 182.479 202.738 182.152 202.84 181.852C202.942 181.549 203.085 181.286 203.27 181.063C203.456 180.839 203.676 180.667 203.931 180.546C204.189 180.421 204.475 180.359 204.787 180.359C205.043 180.359 205.272 180.394 205.476 180.464C205.681 180.531 205.854 180.64 205.998 180.79C206.145 180.94 206.256 181.134 206.333 181.374C206.41 181.61 206.448 181.898 206.448 182.24V185.632H205.558V182.23C205.558 181.959 205.518 181.742 205.438 181.579C205.358 181.413 205.242 181.294 205.089 181.22C204.936 181.144 204.748 181.106 204.524 181.106C204.304 181.106 204.103 181.152 203.921 181.244C203.743 181.337 203.588 181.464 203.457 181.627C203.33 181.79 203.229 181.976 203.156 182.187C203.085 182.394 203.05 182.614 203.05 182.847Z" fill="black"/>
</g>
</g>
</g>
<defs>
<clipPath id="clip0_4686_36432">
<rect width="310" height="186" fill="white"/>
</clipPath>
<clipPath id="clip1_4686_36432">
<path d="M24 22C24 18.6863 26.6863 16 30 16H680C683.314 16 686 18.6863 686 22V336.457C686 339.771 683.314 342.457 680 342.457H30C26.6863 342.457 24 339.771 24 336.457V22Z" fill="white"/>
</clipPath>
<clipPath id="clip2_4686_36432">
<rect width="17.2354" height="21.8122" fill="white" transform="translate(56 123.625)"/>
</clipPath>
</defs>
</svg>
