<svg width="310" height="186" viewBox="0 0 310 186" fill="none" xmlns="http://www.w3.org/2000/svg">
<g clip-path="url(#clip0_4686_36433)">
<rect width="310" height="186" fill="var(--web-system-color-articleFigure-background, #F5F5F5)"/>
<rect width="310" height="186" fill="var(--web-system-color-articleFigure-background, #F5F5F5)"/>
<g clip-path="url(#clip1_4686_36433)">
<path d="M24 22C24 18.6863 26.6863 16 30 16H680C683.314 16 686 18.6863 686 22V336.457C686 339.771 683.314 342.457 680 342.457H30C26.6863 342.457 24 339.771 24 336.457V22Z" fill="white"/>
<rect x="24" y="15.7266" width="295" height="14" fill="#E6E6E6"/>
<circle cx="33.5" cy="23.2266" r="3.5" fill="#E5B2B2"/>
<circle cx="43.5" cy="23.2266" r="3.5" fill="#E4CA8E"/>
<circle cx="53.5" cy="23.2266" r="3.5" fill="#B3D4A6"/>
<g opacity="0.3">
<path d="M59.3414 63.161V76.1001H57.6263V63.161H59.3414ZM63.8559 68.5375V76.1001H62.2118V66.4847H63.767L63.8559 68.5375ZM63.4648 70.928L62.7806 70.9014C62.7865 70.2438 62.8842 69.6365 63.0738 69.0796C63.2634 68.5168 63.53 68.028 63.8736 67.6133C64.2173 67.1986 64.626 66.8786 65.1 66.6535C65.5799 66.4225 66.1101 66.3069 66.6907 66.3069C67.1647 66.3069 67.5912 66.3721 67.9704 66.5024C68.3496 66.6269 68.6725 66.8283 68.9391 67.1067C69.2116 67.3852 69.4189 67.7466 69.5611 68.1909C69.7033 68.6293 69.7744 69.1655 69.7744 69.7994V76.1001H68.1215V69.7816C68.1215 69.2781 68.0474 68.8752 67.8993 68.573C67.7512 68.265 67.535 68.0428 67.2506 67.9065C66.9662 67.7644 66.6167 67.6933 66.202 67.6933C65.7932 67.6933 65.4199 67.7792 65.0822 67.951C64.7505 68.1228 64.4631 68.3598 64.2202 68.6619C63.9832 68.9641 63.7966 69.3106 63.6604 69.7017C63.53 70.0868 63.4648 70.4955 63.4648 70.928ZM78.3323 74.2339V62.4501H79.9853V76.1001H78.4745L78.3323 74.2339ZM71.8628 71.399V71.2124C71.8628 70.4778 71.9517 69.8113 72.1294 69.2129C72.3131 68.6086 72.5708 68.0902 72.9025 67.6577C73.2402 67.2252 73.6401 66.8935 74.1022 66.6624C74.5703 66.4254 75.0916 66.3069 75.6663 66.3069C76.2706 66.3069 76.7979 66.4136 77.2481 66.6269C77.7043 66.8342 78.0894 67.1393 78.4034 67.5422C78.7233 67.9391 78.9751 68.419 79.1588 68.9818C79.3424 69.5447 79.4698 70.1815 79.5409 70.8925V71.7101C79.4757 72.4151 79.3484 73.049 79.1588 73.6118C78.9751 74.1746 78.7233 74.6545 78.4034 75.0515C78.0894 75.4484 77.7043 75.7535 77.2481 75.9668C76.792 76.1742 76.2588 76.2778 75.6485 76.2778C75.0857 76.2778 74.5703 76.1564 74.1022 75.9135C73.6401 75.6706 73.2402 75.3299 72.9025 74.8915C72.5708 74.4531 72.3131 73.9377 72.1294 73.3452C71.9517 72.7468 71.8628 72.0981 71.8628 71.399ZM73.5157 71.2124V71.399C73.5157 71.8789 73.5631 72.3292 73.6579 72.7498C73.7586 73.1704 73.9127 73.5407 74.12 73.8606C74.3274 74.1806 74.591 74.4324 74.9109 74.616C75.2309 74.7938 75.613 74.8826 76.0573 74.8826C76.6024 74.8826 77.0497 74.7671 77.3992 74.536C77.7547 74.305 78.0391 73.9999 78.2523 73.6207C78.4656 73.2415 78.6315 72.8298 78.75 72.3854V70.2438C78.6789 69.9179 78.5752 69.6039 78.439 69.3018C78.3086 68.9937 78.1368 68.7212 77.9235 68.4842C77.7162 68.2413 77.4585 68.0487 77.1504 67.9065C76.8482 67.7644 76.4898 67.6933 76.0751 67.6933C75.6248 67.6933 75.2368 67.7881 74.9109 67.9776C74.591 68.1613 74.3274 68.416 74.12 68.7419C73.9127 69.0618 73.7586 69.4351 73.6579 69.8616C73.5631 70.2823 73.5157 70.7325 73.5157 71.2124ZM86.5348 76.2778C85.8653 76.2778 85.258 76.1653 84.713 75.9401C84.1739 75.7091 83.7088 75.3862 83.3178 74.9715C82.9327 74.5568 82.6365 74.065 82.4291 73.4963C82.2217 72.9275 82.1181 72.3055 82.1181 71.6301V71.2568C82.1181 70.4748 82.2336 69.7787 82.4646 69.1685C82.6957 68.5523 83.0097 68.031 83.4066 67.6044C83.8036 67.1778 84.2538 66.8549 84.7574 66.6357C85.261 66.4165 85.7824 66.3069 86.3215 66.3069C87.0087 66.3069 87.6012 66.4254 88.0988 66.6624C88.6024 66.8994 89.0142 67.2312 89.3341 67.6577C89.654 68.0784 89.891 68.576 90.045 69.1507C90.1991 69.7194 90.2761 70.3415 90.2761 71.0169V71.7545H83.0956V70.4126H88.632V70.2882C88.6083 69.8616 88.5195 69.4469 88.3654 69.044C88.2173 68.6412 87.9803 68.3094 87.6545 68.0487C87.3286 67.7881 86.8843 67.6577 86.3215 67.6577C85.9482 67.6577 85.6046 67.7377 85.2906 67.8977C84.9766 68.0517 84.7071 68.2827 84.4819 68.5908C84.2568 68.8989 84.082 69.2751 83.9576 69.7194C83.8332 70.1638 83.771 70.6762 83.771 71.2568V71.6301C83.771 72.0863 83.8332 72.5158 83.9576 72.9187C84.088 73.3156 84.2746 73.6651 84.5175 73.9673C84.7663 74.2694 85.0655 74.5064 85.415 74.6782C85.7705 74.85 86.1734 74.9359 86.6236 74.9359C87.2042 74.9359 87.696 74.8174 88.0988 74.5805C88.5017 74.3435 88.8542 74.0265 89.1563 73.6296L90.1517 74.4205C89.9443 74.7345 89.6807 75.0337 89.3607 75.3181C89.0408 75.6024 88.6468 75.8335 88.1788 76.0112C87.7167 76.189 87.1687 76.2778 86.5348 76.2778ZM93.3064 66.4847L95.4126 69.986L97.5454 66.4847H99.4738L96.3279 71.2302L99.5716 76.1001H97.6698L95.4481 72.4921L93.2265 76.1001H91.3158L94.5506 71.2302L91.4136 66.4847H93.3064Z" fill="black"/>
</g>
<g opacity="0.3" clip-path="url(#clip2_4686_36433)">
<g style="mix-blend-mode:multiply">
<path d="M65.0664 103.534L72.9496 109.461L65.0664 115.389L57.1832 109.461L65.0664 103.534Z" fill="var(--composition-secondary, #428CFE)"/>
</g>
</g>
<path d="M84.2499 104.25V113.725H82.3796V106.406L80.1326 107.121V105.646L84.0486 104.25H84.2499ZM87.497 112.822C87.497 112.545 87.5922 112.314 87.7827 112.128C87.9776 111.941 88.2352 111.848 88.5555 111.848C88.8759 111.848 89.1313 111.941 89.3218 112.128C89.5167 112.314 89.6141 112.545 89.6141 112.822C89.6141 113.099 89.5167 113.331 89.3218 113.517C89.1313 113.703 88.8759 113.797 88.5555 113.797C88.2352 113.797 87.9776 113.703 87.7827 113.517C87.5922 113.331 87.497 113.099 87.497 112.822ZM95.8138 104.27H99.3401C100.063 104.27 100.684 104.378 101.204 104.594C101.728 104.811 102.13 105.131 102.412 105.555C102.693 105.98 102.834 106.501 102.834 107.121C102.834 107.627 102.747 108.062 102.574 108.426C102.405 108.785 102.165 109.086 101.853 109.329C101.546 109.567 101.184 109.757 100.769 109.9L100.152 110.225H97.0866L97.0736 108.705H99.3531C99.6951 108.705 99.9787 108.645 100.204 108.523C100.429 108.402 100.598 108.233 100.71 108.017C100.827 107.8 100.886 107.549 100.886 107.263C100.886 106.96 100.829 106.698 100.717 106.478C100.604 106.257 100.433 106.088 100.204 105.971C99.9743 105.854 99.6864 105.796 99.3401 105.796H97.762V113.725H95.8138V104.27ZM101.1 113.725L98.9439 109.51L101.003 109.497L103.185 113.634V113.725H101.1ZM103.918 110.283V110.147C103.918 109.632 103.992 109.158 104.139 108.725C104.286 108.287 104.501 107.909 104.782 107.588C105.064 107.268 105.41 107.019 105.821 106.841C106.233 106.659 106.704 106.569 107.237 106.569C107.769 106.569 108.244 106.659 108.659 106.841C109.075 107.019 109.423 107.268 109.705 107.588C109.99 107.909 110.207 108.287 110.354 108.725C110.501 109.158 110.575 109.632 110.575 110.147V110.283C110.575 110.794 110.501 111.268 110.354 111.705C110.207 112.138 109.99 112.517 109.705 112.842C109.423 113.162 109.077 113.411 108.666 113.589C108.254 113.766 107.782 113.855 107.25 113.855C106.717 113.855 106.243 113.766 105.828 113.589C105.416 113.411 105.068 113.162 104.782 112.842C104.501 112.517 104.286 112.138 104.139 111.705C103.992 111.268 103.918 110.794 103.918 110.283ZM105.789 110.147V110.283C105.789 110.578 105.815 110.853 105.867 111.108C105.919 111.363 106.001 111.589 106.113 111.783C106.23 111.974 106.382 112.123 106.568 112.231C106.754 112.34 106.982 112.394 107.25 112.394C107.51 112.394 107.733 112.34 107.919 112.231C108.105 112.123 108.254 111.974 108.367 111.783C108.48 111.589 108.562 111.363 108.614 111.108C108.67 110.853 108.698 110.578 108.698 110.283V110.147C108.698 109.861 108.67 109.593 108.614 109.342C108.562 109.086 108.477 108.861 108.36 108.666C108.248 108.467 108.099 108.311 107.912 108.199C107.726 108.086 107.501 108.03 107.237 108.03C106.973 108.03 106.748 108.086 106.562 108.199C106.38 108.311 106.23 108.467 106.113 108.666C106.001 108.861 105.919 109.086 105.867 109.342C105.815 109.593 105.789 109.861 105.789 110.147ZM113.699 103.75V113.725H111.822V103.75H113.699ZM118.478 113.855C117.933 113.855 117.444 113.768 117.011 113.595C116.578 113.418 116.21 113.173 115.907 112.861C115.608 112.55 115.378 112.188 115.218 111.777C115.058 111.361 114.978 110.92 114.978 110.452V110.192C114.978 109.66 115.054 109.173 115.205 108.731C115.357 108.29 115.573 107.906 115.855 107.582C116.14 107.257 116.487 107.008 116.894 106.835C117.301 106.657 117.76 106.569 118.271 106.569C118.768 106.569 119.21 106.651 119.595 106.815C119.981 106.98 120.303 107.214 120.563 107.517C120.827 107.82 121.026 108.183 121.16 108.608C121.295 109.028 121.362 109.495 121.362 110.01V110.79H115.777V109.543H119.524V109.4C119.524 109.14 119.476 108.909 119.381 108.705C119.29 108.497 119.152 108.333 118.965 108.212C118.779 108.09 118.541 108.03 118.251 108.03C118.004 108.03 117.792 108.084 117.615 108.192C117.437 108.3 117.292 108.452 117.179 108.647C117.071 108.842 116.989 109.071 116.933 109.335C116.881 109.595 116.855 109.881 116.855 110.192V110.452C116.855 110.733 116.894 110.993 116.972 111.231C117.054 111.469 117.169 111.675 117.316 111.848C117.467 112.021 117.649 112.156 117.861 112.251C118.078 112.346 118.322 112.394 118.595 112.394C118.933 112.394 119.247 112.329 119.537 112.199C119.831 112.065 120.085 111.863 120.297 111.595L121.206 112.582C121.059 112.794 120.857 112.998 120.602 113.193C120.351 113.387 120.048 113.548 119.693 113.673C119.338 113.794 118.933 113.855 118.478 113.855ZM125.44 110.283V110.147C125.44 109.632 125.514 109.158 125.661 108.725C125.808 108.287 126.022 107.909 126.304 107.588C126.585 107.268 126.932 107.019 127.343 106.841C127.754 106.659 128.226 106.569 128.759 106.569C129.291 106.569 129.765 106.659 130.181 106.841C130.596 107.019 130.945 107.268 131.226 107.588C131.512 107.909 131.729 108.287 131.876 108.725C132.023 109.158 132.097 109.632 132.097 110.147V110.283C132.097 110.794 132.023 111.268 131.876 111.705C131.729 112.138 131.512 112.517 131.226 112.842C130.945 113.162 130.599 113.411 130.187 113.589C129.776 113.766 129.304 113.855 128.772 113.855C128.239 113.855 127.765 113.766 127.349 113.589C126.938 113.411 126.589 113.162 126.304 112.842C126.022 112.517 125.808 112.138 125.661 111.705C125.514 111.268 125.44 110.794 125.44 110.283ZM127.31 110.147V110.283C127.31 110.578 127.336 110.853 127.388 111.108C127.44 111.363 127.522 111.589 127.635 111.783C127.752 111.974 127.903 112.123 128.09 112.231C128.276 112.34 128.503 112.394 128.772 112.394C129.031 112.394 129.254 112.34 129.44 112.231C129.627 112.123 129.776 111.974 129.889 111.783C130.001 111.589 130.083 111.363 130.135 111.108C130.192 110.853 130.22 110.578 130.22 110.283V110.147C130.22 109.861 130.192 109.593 130.135 109.342C130.083 109.086 129.999 108.861 129.882 108.666C129.769 108.467 129.62 108.311 129.434 108.199C129.248 108.086 129.023 108.03 128.759 108.03C128.494 108.03 128.269 108.086 128.083 108.199C127.901 108.311 127.752 108.467 127.635 108.666C127.522 108.861 127.44 109.086 127.388 109.342C127.336 109.593 127.31 109.861 127.31 110.147ZM135.629 113.725H133.746V106.075C133.746 105.542 133.85 105.094 134.058 104.731C134.27 104.363 134.566 104.086 134.947 103.899C135.333 103.709 135.79 103.614 136.318 103.614C136.491 103.614 136.658 103.627 136.818 103.653C136.978 103.674 137.134 103.702 137.285 103.737L137.266 105.146C137.184 105.125 137.097 105.11 137.006 105.101C136.915 105.092 136.809 105.088 136.688 105.088C136.463 105.088 136.27 105.127 136.11 105.205C135.954 105.278 135.835 105.389 135.753 105.536C135.67 105.683 135.629 105.863 135.629 106.075V113.725ZM137.032 106.698V108.023H132.7V106.698H137.032ZM144.767 106.698V108.023H140.675V106.698H144.767ZM141.688 104.965H143.559V111.608C143.559 111.811 143.585 111.967 143.637 112.076C143.693 112.184 143.775 112.26 143.883 112.303C143.992 112.342 144.128 112.361 144.293 112.361C144.409 112.361 144.513 112.357 144.604 112.348C144.699 112.335 144.78 112.322 144.845 112.309L144.851 113.686C144.691 113.738 144.518 113.779 144.331 113.81C144.145 113.84 143.94 113.855 143.715 113.855C143.303 113.855 142.944 113.788 142.637 113.654C142.333 113.515 142.1 113.294 141.935 112.991C141.771 112.688 141.688 112.29 141.688 111.796V104.965ZM147.656 103.75V113.725H145.786V103.75H147.656ZM147.39 109.965H146.877C146.882 109.476 146.946 109.026 147.072 108.614C147.198 108.199 147.377 107.839 147.611 107.536C147.845 107.229 148.124 106.991 148.449 106.822C148.778 106.653 149.141 106.569 149.54 106.569C149.886 106.569 150.2 106.618 150.481 106.718C150.767 106.813 151.012 106.969 151.215 107.185C151.423 107.398 151.583 107.677 151.696 108.023C151.808 108.37 151.865 108.79 151.865 109.283V113.725H149.981V109.27C149.981 108.958 149.936 108.714 149.845 108.536C149.758 108.354 149.631 108.227 149.462 108.153C149.297 108.075 149.094 108.036 148.851 108.036C148.583 108.036 148.354 108.086 148.163 108.186C147.977 108.285 147.828 108.424 147.715 108.601C147.602 108.774 147.52 108.978 147.468 109.212C147.416 109.445 147.39 109.697 147.39 109.965ZM156.521 113.855C155.975 113.855 155.486 113.768 155.053 113.595C154.62 113.418 154.252 113.173 153.949 112.861C153.651 112.55 153.421 112.188 153.261 111.777C153.101 111.361 153.021 110.92 153.021 110.452V110.192C153.021 109.66 153.096 109.173 153.248 108.731C153.399 108.29 153.616 107.906 153.897 107.582C154.183 107.257 154.529 107.008 154.936 106.835C155.343 106.657 155.802 106.569 156.313 106.569C156.811 106.569 157.253 106.651 157.638 106.815C158.023 106.98 158.346 107.214 158.606 107.517C158.87 107.82 159.069 108.183 159.203 108.608C159.337 109.028 159.404 109.495 159.404 110.01V110.79H153.819V109.543H157.567V109.4C157.567 109.14 157.519 108.909 157.424 108.705C157.333 108.497 157.194 108.333 157.008 108.212C156.822 108.09 156.584 108.03 156.294 108.03C156.047 108.03 155.835 108.084 155.657 108.192C155.48 108.3 155.335 108.452 155.222 108.647C155.114 108.842 155.032 109.071 154.975 109.335C154.923 109.595 154.897 109.881 154.897 110.192V110.452C154.897 110.733 154.936 110.993 155.014 111.231C155.097 111.469 155.211 111.675 155.359 111.848C155.51 112.021 155.692 112.156 155.904 112.251C156.121 112.346 156.365 112.394 156.638 112.394C156.976 112.394 157.289 112.329 157.58 112.199C157.874 112.065 158.127 111.863 158.339 111.595L159.249 112.582C159.101 112.794 158.9 112.998 158.645 113.193C158.393 113.387 158.09 113.548 157.735 113.673C157.38 113.794 156.976 113.855 156.521 113.855ZM167.931 112.192V103.75H169.814V113.725H168.12L167.931 112.192ZM163.489 110.296V110.16C163.489 109.623 163.55 109.136 163.671 108.699C163.792 108.257 163.97 107.878 164.204 107.562C164.437 107.246 164.725 107.001 165.067 106.828C165.409 106.655 165.799 106.569 166.236 106.569C166.648 106.569 167.007 106.655 167.314 106.828C167.626 107.001 167.89 107.248 168.107 107.569C168.327 107.885 168.505 108.259 168.639 108.692C168.773 109.121 168.871 109.59 168.931 110.101V110.4C168.871 110.889 168.773 111.344 168.639 111.764C168.505 112.184 168.327 112.552 168.107 112.868C167.89 113.18 167.626 113.422 167.314 113.595C167.003 113.768 166.639 113.855 166.223 113.855C165.786 113.855 165.396 113.766 165.054 113.589C164.717 113.411 164.431 113.162 164.197 112.842C163.968 112.522 163.792 112.145 163.671 111.712C163.55 111.279 163.489 110.807 163.489 110.296ZM165.36 110.16V110.296C165.36 110.586 165.381 110.857 165.424 111.108C165.472 111.359 165.548 111.582 165.652 111.777C165.76 111.967 165.899 112.117 166.067 112.225C166.241 112.329 166.451 112.381 166.697 112.381C167.018 112.381 167.282 112.309 167.49 112.167C167.697 112.019 167.855 111.818 167.964 111.563C168.076 111.307 168.141 111.013 168.158 110.679V109.829C168.145 109.556 168.107 109.311 168.042 109.095C167.981 108.874 167.89 108.686 167.769 108.53C167.652 108.374 167.505 108.253 167.327 108.166C167.154 108.08 166.948 108.036 166.71 108.036C166.468 108.036 166.26 108.093 166.087 108.205C165.914 108.313 165.773 108.463 165.665 108.653C165.561 108.844 165.483 109.069 165.431 109.329C165.383 109.584 165.36 109.861 165.36 110.16ZM174.51 113.855C173.964 113.855 173.475 113.768 173.042 113.595C172.609 113.418 172.241 113.173 171.938 112.861C171.639 112.55 171.41 112.188 171.25 111.777C171.09 111.361 171.009 110.92 171.009 110.452V110.192C171.009 109.66 171.085 109.173 171.237 108.731C171.388 108.29 171.605 107.906 171.886 107.582C172.172 107.257 172.518 107.008 172.925 106.835C173.332 106.657 173.791 106.569 174.302 106.569C174.8 106.569 175.241 106.651 175.627 106.815C176.012 106.98 176.335 107.214 176.594 107.517C176.858 107.82 177.058 108.183 177.192 108.608C177.326 109.028 177.393 109.495 177.393 110.01V110.79H171.808V109.543H175.555V109.4C175.555 109.14 175.508 108.909 175.412 108.705C175.322 108.497 175.183 108.333 174.997 108.212C174.811 108.09 174.573 108.03 174.282 108.03C174.036 108.03 173.824 108.084 173.646 108.192C173.469 108.3 173.323 108.452 173.211 108.647C173.103 108.842 173.02 109.071 172.964 109.335C172.912 109.595 172.886 109.881 172.886 110.192V110.452C172.886 110.733 172.925 110.993 173.003 111.231C173.085 111.469 173.2 111.675 173.347 111.848C173.499 112.021 173.681 112.156 173.893 112.251C174.109 112.346 174.354 112.394 174.627 112.394C174.964 112.394 175.278 112.329 175.568 112.199C175.863 112.065 176.116 111.863 176.328 111.595L177.237 112.582C177.09 112.794 176.889 112.998 176.633 113.193C176.382 113.387 176.079 113.548 175.724 113.673C175.369 113.794 174.964 113.855 174.51 113.855ZM182.257 111.783C182.257 111.649 182.218 111.528 182.14 111.42C182.062 111.311 181.917 111.212 181.705 111.121C181.497 111.026 181.197 110.939 180.803 110.861C180.448 110.783 180.116 110.686 179.809 110.569C179.506 110.448 179.242 110.303 179.017 110.134C178.796 109.965 178.623 109.766 178.497 109.536C178.372 109.303 178.309 109.036 178.309 108.738C178.309 108.443 178.372 108.166 178.497 107.906C178.627 107.647 178.811 107.417 179.049 107.218C179.292 107.014 179.586 106.856 179.932 106.744C180.283 106.627 180.677 106.569 181.114 106.569C181.725 106.569 182.249 106.666 182.686 106.861C183.127 107.056 183.465 107.324 183.699 107.666C183.937 108.004 184.056 108.389 184.056 108.822H182.186C182.186 108.64 182.147 108.478 182.069 108.335C181.995 108.188 181.878 108.073 181.718 107.991C181.562 107.904 181.359 107.861 181.108 107.861C180.9 107.861 180.72 107.898 180.569 107.971C180.417 108.041 180.3 108.136 180.218 108.257C180.14 108.374 180.101 108.504 180.101 108.647C180.101 108.755 180.123 108.852 180.166 108.939C180.214 109.021 180.29 109.097 180.393 109.166C180.497 109.235 180.632 109.3 180.796 109.361C180.965 109.417 181.173 109.469 181.42 109.517C181.926 109.621 182.378 109.757 182.777 109.926C183.175 110.091 183.491 110.316 183.725 110.601C183.959 110.883 184.076 111.253 184.076 111.712C184.076 112.024 184.006 112.309 183.868 112.569C183.729 112.829 183.53 113.056 183.27 113.251C183.011 113.442 182.699 113.591 182.335 113.699C181.976 113.803 181.571 113.855 181.121 113.855C180.467 113.855 179.913 113.738 179.458 113.504C179.008 113.271 178.666 112.974 178.432 112.615C178.203 112.251 178.088 111.879 178.088 111.498H179.861C179.87 111.753 179.935 111.959 180.056 112.115C180.181 112.27 180.339 112.383 180.53 112.452C180.725 112.522 180.935 112.556 181.16 112.556C181.402 112.556 181.604 112.524 181.764 112.459C181.924 112.389 182.045 112.299 182.127 112.186C182.214 112.069 182.257 111.935 182.257 111.783ZM187.264 106.698V113.725H185.387V106.698H187.264ZM185.271 104.867C185.271 104.594 185.366 104.369 185.556 104.192C185.747 104.014 186.002 103.925 186.323 103.925C186.639 103.925 186.892 104.014 187.082 104.192C187.277 104.369 187.375 104.594 187.375 104.867C187.375 105.14 187.277 105.365 187.082 105.542C186.892 105.72 186.639 105.809 186.323 105.809C186.002 105.809 185.747 105.72 185.556 105.542C185.366 105.365 185.271 105.14 185.271 104.867ZM193.258 106.698H194.953V113.491C194.953 114.132 194.81 114.675 194.525 115.121C194.243 115.572 193.849 115.911 193.343 116.141C192.836 116.375 192.247 116.492 191.576 116.492C191.282 116.492 190.97 116.453 190.641 116.375C190.316 116.297 190.005 116.176 189.706 116.011C189.412 115.847 189.165 115.639 188.966 115.388L189.79 114.284C190.007 114.535 190.258 114.73 190.544 114.868C190.83 115.011 191.146 115.082 191.492 115.082C191.83 115.082 192.115 115.02 192.349 114.894C192.583 114.773 192.763 114.593 192.888 114.355C193.014 114.121 193.077 113.838 193.077 113.504V108.322L193.258 106.698ZM188.531 110.296V110.16C188.531 109.623 188.596 109.136 188.725 108.699C188.86 108.257 189.048 107.878 189.29 107.562C189.537 107.246 189.836 107.001 190.187 106.828C190.537 106.655 190.933 106.569 191.375 106.569C191.843 106.569 192.234 106.655 192.55 106.828C192.867 107.001 193.126 107.248 193.33 107.569C193.533 107.885 193.691 108.259 193.804 108.692C193.921 109.121 194.012 109.59 194.077 110.101V110.4C194.012 110.889 193.914 111.344 193.784 111.764C193.654 112.184 193.483 112.552 193.271 112.868C193.059 113.18 192.795 113.422 192.479 113.595C192.167 113.768 191.795 113.855 191.362 113.855C190.929 113.855 190.537 113.766 190.187 113.589C189.84 113.411 189.544 113.162 189.297 112.842C189.05 112.522 188.86 112.145 188.725 111.712C188.596 111.279 188.531 110.807 188.531 110.296ZM190.401 110.16V110.296C190.401 110.586 190.429 110.857 190.485 111.108C190.542 111.359 190.628 111.582 190.745 111.777C190.866 111.967 191.016 112.117 191.193 112.225C191.375 112.329 191.589 112.381 191.836 112.381C192.178 112.381 192.457 112.309 192.674 112.167C192.89 112.019 193.053 111.818 193.161 111.563C193.269 111.307 193.332 111.013 193.349 110.679V109.829C193.341 109.556 193.304 109.311 193.239 109.095C193.174 108.874 193.083 108.686 192.966 108.53C192.849 108.374 192.698 108.253 192.512 108.166C192.325 108.08 192.105 108.036 191.849 108.036C191.602 108.036 191.388 108.093 191.206 108.205C191.029 108.313 190.879 108.463 190.758 108.653C190.641 108.844 190.552 109.069 190.492 109.329C190.431 109.584 190.401 109.861 190.401 110.16ZM198.239 108.199V113.725H196.369V106.698H198.122L198.239 108.199ZM197.967 109.965H197.46C197.46 109.445 197.527 108.978 197.661 108.562C197.796 108.142 197.984 107.785 198.226 107.491C198.469 107.192 198.757 106.965 199.09 106.809C199.428 106.649 199.804 106.569 200.22 106.569C200.549 106.569 200.85 106.616 201.123 106.711C201.395 106.807 201.629 106.958 201.824 107.166C202.023 107.374 202.175 107.649 202.279 107.991C202.387 108.333 202.441 108.751 202.441 109.244V113.725H200.558V109.238C200.558 108.926 200.514 108.683 200.428 108.51C200.341 108.337 200.214 108.216 200.045 108.147C199.88 108.073 199.677 108.036 199.434 108.036C199.183 108.036 198.965 108.086 198.778 108.186C198.597 108.285 198.445 108.424 198.324 108.601C198.207 108.774 198.118 108.978 198.058 109.212C197.997 109.445 197.967 109.697 197.967 109.965ZM210.974 111.783C210.974 111.649 210.935 111.528 210.857 111.42C210.78 111.311 210.634 111.212 210.422 111.121C210.215 111.026 209.914 110.939 209.52 110.861C209.165 110.783 208.833 110.686 208.526 110.569C208.223 110.448 207.959 110.303 207.734 110.134C207.513 109.965 207.34 109.766 207.214 109.536C207.089 109.303 207.026 109.036 207.026 108.738C207.026 108.443 207.089 108.166 207.214 107.906C207.344 107.647 207.528 107.417 207.766 107.218C208.009 107.014 208.303 106.856 208.649 106.744C209 106.627 209.394 106.569 209.831 106.569C210.442 106.569 210.966 106.666 211.403 106.861C211.845 107.056 212.182 107.324 212.416 107.666C212.654 108.004 212.773 108.389 212.773 108.822H210.903C210.903 108.64 210.864 108.478 210.786 108.335C210.712 108.188 210.596 108.073 210.435 107.991C210.279 107.904 210.076 107.861 209.825 107.861C209.617 107.861 209.437 107.898 209.286 107.971C209.134 108.041 209.017 108.136 208.935 108.257C208.857 108.374 208.818 108.504 208.818 108.647C208.818 108.755 208.84 108.852 208.883 108.939C208.931 109.021 209.007 109.097 209.111 109.166C209.214 109.235 209.349 109.3 209.513 109.361C209.682 109.417 209.89 109.469 210.137 109.517C210.643 109.621 211.096 109.757 211.494 109.926C211.892 110.091 212.208 110.316 212.442 110.601C212.676 110.883 212.793 111.253 212.793 111.712C212.793 112.024 212.723 112.309 212.585 112.569C212.446 112.829 212.247 113.056 211.987 113.251C211.728 113.442 211.416 113.591 211.052 113.699C210.693 113.803 210.288 113.855 209.838 113.855C209.184 113.855 208.63 113.738 208.175 113.504C207.725 113.271 207.383 112.974 207.149 112.615C206.92 112.251 206.805 111.879 206.805 111.498H208.578C208.587 111.753 208.652 111.959 208.773 112.115C208.898 112.27 209.056 112.383 209.247 112.452C209.442 112.522 209.652 112.556 209.877 112.556C210.119 112.556 210.321 112.524 210.481 112.459C210.641 112.389 210.762 112.299 210.844 112.186C210.931 112.069 210.974 111.935 210.974 111.783ZM216.092 112.933L217.956 106.698H219.962L217.137 114.784C217.077 114.961 216.994 115.152 216.891 115.355C216.791 115.559 216.655 115.751 216.481 115.933C216.313 116.119 216.098 116.271 215.838 116.388C215.583 116.505 215.269 116.563 214.897 116.563C214.719 116.563 214.574 116.552 214.462 116.531C214.349 116.509 214.215 116.479 214.059 116.44V115.069C214.107 115.069 214.156 115.069 214.208 115.069C214.26 115.074 214.31 115.076 214.358 115.076C214.605 115.076 214.806 115.048 214.962 114.991C215.118 114.935 215.243 114.849 215.338 114.732C215.434 114.619 215.509 114.472 215.566 114.29L216.092 112.933ZM215.312 106.698L216.839 111.79L217.105 113.771L215.832 113.907L213.306 106.698H215.312ZM224.508 111.783C224.508 111.649 224.469 111.528 224.391 111.42C224.313 111.311 224.168 111.212 223.956 111.121C223.748 111.026 223.447 110.939 223.053 110.861C222.698 110.783 222.367 110.686 222.06 110.569C221.757 110.448 221.493 110.303 221.268 110.134C221.047 109.965 220.874 109.766 220.748 109.536C220.622 109.303 220.56 109.036 220.56 108.738C220.56 108.443 220.622 108.166 220.748 107.906C220.878 107.647 221.062 107.417 221.3 107.218C221.542 107.014 221.837 106.856 222.183 106.744C222.534 106.627 222.928 106.569 223.365 106.569C223.976 106.569 224.499 106.666 224.937 106.861C225.378 107.056 225.716 107.324 225.95 107.666C226.188 108.004 226.307 108.389 226.307 108.822H224.437C224.437 108.64 224.398 108.478 224.32 108.335C224.246 108.188 224.129 108.073 223.969 107.991C223.813 107.904 223.61 107.861 223.359 107.861C223.151 107.861 222.971 107.898 222.82 107.971C222.668 108.041 222.551 108.136 222.469 108.257C222.391 108.374 222.352 108.504 222.352 108.647C222.352 108.755 222.374 108.852 222.417 108.939C222.465 109.021 222.54 109.097 222.644 109.166C222.748 109.235 222.882 109.3 223.047 109.361C223.216 109.417 223.424 109.469 223.67 109.517C224.177 109.621 224.629 109.757 225.028 109.926C225.426 110.091 225.742 110.316 225.976 110.601C226.21 110.883 226.327 111.253 226.327 111.712C226.327 112.024 226.257 112.309 226.119 112.569C225.98 112.829 225.781 113.056 225.521 113.251C225.261 113.442 224.95 113.591 224.586 113.699C224.227 113.803 223.822 113.855 223.372 113.855C222.718 113.855 222.164 113.738 221.709 113.504C221.259 113.271 220.917 112.974 220.683 112.615C220.454 112.251 220.339 111.879 220.339 111.498H222.112C222.12 111.753 222.185 111.959 222.307 112.115C222.432 112.27 222.59 112.383 222.781 112.452C222.976 112.522 223.186 112.556 223.411 112.556C223.653 112.556 223.854 112.524 224.015 112.459C224.175 112.389 224.296 112.299 224.378 112.186C224.465 112.069 224.508 111.935 224.508 111.783ZM230.983 106.698V108.023H226.891V106.698H230.983ZM227.905 104.965H229.775V111.608C229.775 111.811 229.801 111.967 229.853 112.076C229.909 112.184 229.991 112.26 230.1 112.303C230.208 112.342 230.344 112.361 230.509 112.361C230.626 112.361 230.73 112.357 230.82 112.348C230.916 112.335 230.996 112.322 231.061 112.309L231.067 113.686C230.907 113.738 230.734 113.779 230.548 113.81C230.362 113.84 230.156 113.855 229.931 113.855C229.519 113.855 229.16 113.788 228.853 113.654C228.55 113.515 228.316 113.294 228.151 112.991C227.987 112.688 227.905 112.29 227.905 111.796V104.965ZM235.282 113.855C234.736 113.855 234.247 113.768 233.814 113.595C233.381 113.418 233.013 113.173 232.71 112.861C232.412 112.55 232.182 112.188 232.022 111.777C231.862 111.361 231.782 110.92 231.782 110.452V110.192C231.782 109.66 231.857 109.173 232.009 108.731C232.16 108.29 232.377 107.906 232.658 107.582C232.944 107.257 233.29 107.008 233.697 106.835C234.104 106.657 234.563 106.569 235.074 106.569C235.572 106.569 236.014 106.651 236.399 106.815C236.784 106.98 237.107 107.214 237.367 107.517C237.631 107.82 237.83 108.183 237.964 108.608C238.098 109.028 238.165 109.495 238.165 110.01V110.79H232.58V109.543H236.327V109.4C236.327 109.14 236.28 108.909 236.185 108.705C236.094 108.497 235.955 108.333 235.769 108.212C235.583 108.09 235.345 108.03 235.055 108.03C234.808 108.03 234.596 108.084 234.418 108.192C234.241 108.3 234.096 108.452 233.983 108.647C233.875 108.842 233.793 109.071 233.736 109.335C233.684 109.595 233.658 109.881 233.658 110.192V110.452C233.658 110.733 233.697 110.993 233.775 111.231C233.858 111.469 233.972 111.675 234.119 111.848C234.271 112.021 234.453 112.156 234.665 112.251C234.881 112.346 235.126 112.394 235.399 112.394C235.737 112.394 236.05 112.329 236.34 112.199C236.635 112.065 236.888 111.863 237.1 111.595L238.009 112.582C237.862 112.794 237.661 112.998 237.406 113.193C237.154 113.387 236.851 113.548 236.496 113.673C236.141 113.794 235.737 113.855 235.282 113.855ZM241.101 108.153V113.725H239.224V106.698H240.984L241.101 108.153ZM240.841 109.965H240.321C240.321 109.476 240.38 109.026 240.497 108.614C240.618 108.199 240.793 107.839 241.023 107.536C241.257 107.229 241.544 106.991 241.886 106.822C242.228 106.653 242.625 106.569 243.075 106.569C243.387 106.569 243.672 106.616 243.932 106.711C244.192 106.802 244.415 106.947 244.601 107.147C244.792 107.341 244.939 107.597 245.043 107.913C245.147 108.225 245.198 108.599 245.198 109.036V113.725H243.328V109.244C243.328 108.924 243.285 108.677 243.198 108.504C243.112 108.331 242.988 108.209 242.828 108.14C242.672 108.071 242.484 108.036 242.263 108.036C242.021 108.036 241.809 108.086 241.627 108.186C241.449 108.285 241.302 108.424 241.185 108.601C241.068 108.774 240.982 108.978 240.925 109.212C240.869 109.445 240.841 109.697 240.841 109.965ZM245.023 109.751L244.354 109.835C244.354 109.376 244.411 108.95 244.523 108.556C244.64 108.162 244.811 107.815 245.036 107.517C245.266 107.218 245.549 106.986 245.887 106.822C246.225 106.653 246.614 106.569 247.056 106.569C247.393 106.569 247.701 106.618 247.978 106.718C248.255 106.813 248.491 106.967 248.686 107.179C248.885 107.387 249.037 107.66 249.14 107.997C249.249 108.335 249.303 108.748 249.303 109.238V113.725H247.426V109.238C247.426 108.913 247.383 108.666 247.296 108.497C247.214 108.324 247.093 108.205 246.932 108.14C246.777 108.071 246.59 108.036 246.374 108.036C246.149 108.036 245.952 108.082 245.783 108.173C245.614 108.259 245.473 108.38 245.361 108.536C245.248 108.692 245.164 108.874 245.108 109.082C245.051 109.285 245.023 109.508 245.023 109.751Z" fill="black"/>
<g opacity="0.3">
<path d="M99.9063 132.952V139.958H99.0211V134.057L97.2362 134.708V133.909L99.7676 132.952H99.9063ZM102.62 139.489C102.62 139.339 102.666 139.213 102.758 139.111C102.854 139.005 102.991 138.953 103.17 138.953C103.348 138.953 103.484 139.005 103.577 139.111C103.672 139.213 103.72 139.339 103.72 139.489C103.72 139.635 103.672 139.76 103.577 139.862C103.484 139.964 103.348 140.015 103.17 140.015C102.991 140.015 102.854 139.964 102.758 139.862C102.666 139.76 102.62 139.635 102.62 139.489ZM108.003 132.952V139.958H107.118V134.057L105.333 134.708V133.909L107.864 132.952H108.003ZM117.693 139.206V139.958H114.003V139.206H117.693ZM114.19 132.99V139.958H113.267V132.99H114.19ZM117.205 135.986V136.737H114.003V135.986H117.205ZM117.645 132.99V133.746H114.003V132.99H117.645ZM119.588 135.885V139.958H118.702V134.78H119.54L119.588 135.885ZM119.377 137.173L119.009 137.158C119.012 136.804 119.065 136.477 119.167 136.177C119.269 135.874 119.412 135.611 119.597 135.388C119.782 135.164 120.002 134.992 120.258 134.871C120.516 134.746 120.802 134.684 121.114 134.684C121.369 134.684 121.599 134.719 121.803 134.79C122.007 134.857 122.181 134.965 122.325 135.115C122.472 135.265 122.583 135.459 122.66 135.699C122.736 135.935 122.775 136.224 122.775 136.565V139.958H121.885V136.555C121.885 136.284 121.845 136.067 121.765 135.904C121.685 135.739 121.569 135.619 121.416 135.546C121.262 135.469 121.074 135.431 120.851 135.431C120.631 135.431 120.43 135.477 120.248 135.57C120.069 135.662 119.915 135.79 119.784 135.952C119.656 136.115 119.556 136.302 119.482 136.512C119.412 136.72 119.377 136.94 119.377 137.173ZM127.134 138.584C127.134 138.457 127.105 138.339 127.048 138.23C126.994 138.118 126.88 138.018 126.708 137.929C126.539 137.836 126.284 137.756 125.942 137.689C125.655 137.629 125.395 137.557 125.162 137.474C124.933 137.391 124.737 137.291 124.574 137.173C124.414 137.055 124.292 136.916 124.205 136.756C124.119 136.597 124.076 136.41 124.076 136.196C124.076 135.992 124.121 135.799 124.21 135.617C124.303 135.436 124.432 135.274 124.598 135.134C124.767 134.994 124.969 134.884 125.205 134.804C125.442 134.724 125.705 134.684 125.995 134.684C126.41 134.684 126.764 134.758 127.057 134.904C127.351 135.051 127.576 135.247 127.732 135.493C127.888 135.735 127.967 136.005 127.967 136.302H127.081C127.081 136.158 127.038 136.019 126.952 135.885C126.869 135.748 126.746 135.635 126.584 135.546C126.424 135.456 126.228 135.412 125.995 135.412C125.749 135.412 125.55 135.45 125.397 135.526C125.247 135.6 125.137 135.694 125.067 135.809C125 135.924 124.966 136.045 124.966 136.172C124.966 136.268 124.982 136.354 125.014 136.431C125.049 136.504 125.11 136.573 125.196 136.637C125.282 136.697 125.403 136.755 125.56 136.809C125.716 136.863 125.915 136.917 126.158 136.972C126.582 137.067 126.931 137.182 127.206 137.316C127.48 137.45 127.684 137.614 127.818 137.809C127.952 138.004 128.019 138.24 128.019 138.517C128.019 138.744 127.971 138.951 127.876 139.139C127.783 139.327 127.647 139.49 127.469 139.627C127.293 139.761 127.083 139.867 126.837 139.943C126.595 140.017 126.322 140.053 126.019 140.053C125.563 140.053 125.177 139.972 124.861 139.809C124.545 139.646 124.306 139.436 124.143 139.178C123.98 138.919 123.899 138.646 123.899 138.359H124.789C124.802 138.602 124.872 138.795 125 138.938C125.127 139.079 125.284 139.179 125.469 139.24C125.654 139.297 125.837 139.326 126.019 139.326C126.261 139.326 126.464 139.294 126.627 139.23C126.793 139.166 126.919 139.079 127.005 138.967C127.091 138.855 127.134 138.728 127.134 138.584ZM132.35 138.761V134.78H133.24V139.958H132.393L132.35 138.761ZM132.517 137.67L132.886 137.661C132.886 138.005 132.849 138.324 132.776 138.618C132.705 138.908 132.591 139.16 132.431 139.374C132.272 139.587 132.063 139.755 131.804 139.876C131.546 139.994 131.232 140.053 130.862 140.053C130.61 140.053 130.378 140.017 130.168 139.943C129.96 139.87 129.782 139.757 129.632 139.603C129.482 139.45 129.365 139.251 129.282 139.005C129.203 138.76 129.163 138.465 129.163 138.12V134.78H130.048V138.13C130.048 138.362 130.074 138.555 130.125 138.709C130.179 138.859 130.251 138.978 130.34 139.067C130.432 139.154 130.535 139.214 130.646 139.249C130.761 139.284 130.879 139.302 131 139.302C131.377 139.302 131.675 139.23 131.895 139.087C132.115 138.94 132.273 138.744 132.369 138.498C132.468 138.249 132.517 137.973 132.517 137.67ZM135.474 135.593V139.958H134.589V134.78H135.45L135.474 135.593ZM137.092 134.751L137.087 135.574C137.014 135.558 136.943 135.549 136.876 135.546C136.813 135.539 136.739 135.536 136.656 135.536C136.452 135.536 136.272 135.568 136.116 135.632C135.959 135.696 135.827 135.785 135.718 135.9C135.61 136.015 135.524 136.152 135.46 136.311C135.399 136.468 135.36 136.64 135.34 136.828L135.092 136.972C135.092 136.659 135.122 136.365 135.183 136.091C135.246 135.817 135.344 135.574 135.474 135.364C135.605 135.15 135.771 134.984 135.972 134.866C136.176 134.745 136.419 134.684 136.699 134.684C136.763 134.684 136.837 134.692 136.92 134.708C137.002 134.721 137.06 134.735 137.092 134.751ZM138.872 134.78V139.958H137.982V134.78H138.872ZM137.915 133.407C137.915 133.263 137.958 133.142 138.044 133.043C138.133 132.944 138.264 132.895 138.436 132.895C138.605 132.895 138.735 132.944 138.824 133.043C138.917 133.142 138.963 133.263 138.963 133.407C138.963 133.544 138.917 133.662 138.824 133.761C138.735 133.856 138.605 133.904 138.436 133.904C138.264 133.904 138.133 133.856 138.044 133.761C137.958 133.662 137.915 133.544 137.915 133.407ZM141.178 135.885V139.958H140.293V134.78H141.13L141.178 135.885ZM140.968 137.173L140.599 137.158C140.603 136.804 140.655 136.477 140.757 136.177C140.859 135.874 141.003 135.611 141.188 135.388C141.373 135.164 141.593 134.992 141.848 134.871C142.107 134.746 142.392 134.684 142.705 134.684C142.96 134.684 143.19 134.719 143.394 134.79C143.598 134.857 143.772 134.965 143.915 135.115C144.062 135.265 144.174 135.459 144.25 135.699C144.327 135.935 144.365 136.224 144.365 136.565V139.958H143.475V136.555C143.475 136.284 143.435 136.067 143.356 135.904C143.276 135.739 143.159 135.619 143.006 135.546C142.853 135.469 142.665 135.431 142.442 135.431C142.221 135.431 142.021 135.477 141.839 135.57C141.66 135.662 141.505 135.79 141.375 135.952C141.247 136.115 141.146 136.302 141.073 136.512C141.003 136.72 140.968 136.94 140.968 137.173ZM149.064 134.78H149.868V139.847C149.868 140.304 149.776 140.693 149.591 141.015C149.406 141.337 149.147 141.581 148.815 141.747C148.487 141.916 148.107 142.001 147.677 142.001C147.498 142.001 147.287 141.972 147.045 141.915C146.806 141.86 146.57 141.766 146.337 141.632C146.107 141.502 145.914 141.324 145.758 141.101L146.222 140.575C146.439 140.836 146.665 141.018 146.901 141.12C147.141 141.222 147.377 141.273 147.61 141.273C147.89 141.273 148.133 141.221 148.337 141.116C148.541 141.01 148.699 140.854 148.811 140.647C148.925 140.442 148.983 140.19 148.983 139.891V135.919L149.064 134.78ZM145.499 137.426V137.326C145.499 136.93 145.546 136.571 145.638 136.249C145.734 135.924 145.869 135.644 146.045 135.412C146.223 135.179 146.439 135 146.691 134.876C146.943 134.748 147.227 134.684 147.543 134.684C147.868 134.684 148.152 134.742 148.394 134.857C148.64 134.968 148.847 135.132 149.016 135.349C149.189 135.563 149.324 135.822 149.423 136.125C149.522 136.428 149.591 136.771 149.629 137.153V137.594C149.594 137.973 149.525 138.315 149.423 138.618C149.324 138.921 149.189 139.179 149.016 139.393C148.847 139.607 148.64 139.771 148.394 139.886C148.149 139.997 147.862 140.053 147.533 140.053C147.224 140.053 146.943 139.988 146.691 139.857C146.442 139.726 146.228 139.543 146.05 139.307C145.871 139.071 145.734 138.793 145.638 138.474C145.546 138.152 145.499 137.803 145.499 137.426ZM146.385 137.326V137.426C146.385 137.685 146.41 137.927 146.461 138.154C146.515 138.38 146.597 138.579 146.705 138.752C146.817 138.924 146.959 139.06 147.131 139.158C147.303 139.254 147.509 139.302 147.748 139.302C148.042 139.302 148.284 139.24 148.476 139.115C148.667 138.991 148.819 138.827 148.93 138.622C149.045 138.418 149.134 138.197 149.198 137.957V136.804C149.163 136.629 149.109 136.46 149.036 136.297C148.965 136.131 148.873 135.984 148.758 135.857C148.646 135.726 148.508 135.622 148.342 135.546C148.176 135.469 147.981 135.431 147.758 135.431C147.515 135.431 147.307 135.482 147.131 135.584C146.959 135.683 146.817 135.82 146.705 135.995C146.597 136.168 146.515 136.369 146.461 136.598C146.41 136.825 146.385 137.067 146.385 137.326ZM155.716 139.326C155.926 139.326 156.121 139.283 156.299 139.197C156.478 139.111 156.625 138.993 156.74 138.843C156.854 138.689 156.92 138.516 156.936 138.321H157.778C157.762 138.627 157.658 138.913 157.467 139.178C157.279 139.439 157.032 139.651 156.725 139.814C156.419 139.973 156.082 140.053 155.716 140.053C155.326 140.053 154.987 139.985 154.696 139.847C154.409 139.71 154.17 139.522 153.979 139.283C153.79 139.044 153.648 138.769 153.553 138.46C153.46 138.147 153.414 137.817 153.414 137.469V137.268C153.414 136.921 153.46 136.592 153.553 136.283C153.648 135.97 153.79 135.694 153.979 135.455C154.17 135.215 154.409 135.027 154.696 134.89C154.987 134.753 155.326 134.684 155.716 134.684C156.121 134.684 156.475 134.767 156.778 134.933C157.081 135.096 157.319 135.319 157.491 135.603C157.666 135.884 157.762 136.203 157.778 136.56H156.936C156.92 136.346 156.859 136.153 156.754 135.981C156.652 135.809 156.512 135.672 156.333 135.57C156.157 135.464 155.952 135.412 155.716 135.412C155.444 135.412 155.216 135.466 155.031 135.574C154.85 135.68 154.704 135.823 154.596 136.005C154.491 136.184 154.414 136.383 154.366 136.603C154.322 136.82 154.299 137.042 154.299 137.268V137.469C154.299 137.696 154.322 137.919 154.366 138.139C154.411 138.359 154.486 138.559 154.591 138.737C154.7 138.916 154.845 139.06 155.027 139.168C155.212 139.273 155.441 139.326 155.716 139.326ZM158.539 137.426V137.316C158.539 136.943 158.593 136.597 158.702 136.278C158.81 135.956 158.966 135.676 159.171 135.44C159.375 135.201 159.622 135.016 159.912 134.885C160.203 134.751 160.528 134.684 160.888 134.684C161.252 134.684 161.579 134.751 161.869 134.885C162.163 135.016 162.412 135.201 162.616 135.44C162.823 135.676 162.981 135.956 163.09 136.278C163.198 136.597 163.252 136.943 163.252 137.316V137.426C163.252 137.799 163.198 138.146 163.09 138.465C162.981 138.784 162.823 139.063 162.616 139.302C162.412 139.538 162.164 139.723 161.874 139.857C161.587 139.988 161.262 140.053 160.898 140.053C160.534 140.053 160.207 139.988 159.917 139.857C159.627 139.723 159.378 139.538 159.171 139.302C158.966 139.063 158.81 138.784 158.702 138.465C158.593 138.146 158.539 137.799 158.539 137.426ZM159.424 137.316V137.426C159.424 137.685 159.454 137.929 159.515 138.158C159.576 138.385 159.667 138.586 159.788 138.761C159.912 138.937 160.067 139.075 160.252 139.178C160.437 139.276 160.652 139.326 160.898 139.326C161.14 139.326 161.353 139.276 161.534 139.178C161.719 139.075 161.873 138.937 161.994 138.761C162.115 138.586 162.206 138.385 162.266 138.158C162.33 137.929 162.362 137.685 162.362 137.426V137.316C162.362 137.061 162.33 136.82 162.266 136.594C162.206 136.364 162.113 136.161 161.989 135.986C161.868 135.807 161.715 135.667 161.53 135.565C161.348 135.463 161.134 135.412 160.888 135.412C160.646 135.412 160.432 135.463 160.247 135.565C160.065 135.667 159.912 135.807 159.788 135.986C159.667 136.161 159.576 136.364 159.515 136.594C159.454 136.82 159.424 137.061 159.424 137.316ZM165.248 135.885V139.958H164.362V134.78H165.2L165.248 135.885ZM165.037 137.173L164.669 137.158C164.672 136.804 164.724 136.477 164.827 136.177C164.929 135.874 165.072 135.611 165.257 135.388C165.442 135.164 165.662 134.992 165.918 134.871C166.176 134.746 166.461 134.684 166.774 134.684C167.029 134.684 167.259 134.719 167.463 134.79C167.667 134.857 167.841 134.965 167.985 135.115C168.132 135.265 168.243 135.459 168.32 135.699C168.396 135.935 168.435 136.224 168.435 136.565V139.958H167.545V136.555C167.545 136.284 167.505 136.067 167.425 135.904C167.345 135.739 167.229 135.619 167.076 135.546C166.922 135.469 166.734 135.431 166.511 135.431C166.291 135.431 166.09 135.477 165.908 135.57C165.729 135.662 165.575 135.79 165.444 135.952C165.316 136.115 165.216 136.302 165.142 136.512C165.072 136.72 165.037 136.94 165.037 137.173ZM172.794 138.584C172.794 138.457 172.765 138.339 172.708 138.23C172.653 138.118 172.54 138.018 172.368 137.929C172.199 137.836 171.944 137.756 171.602 137.689C171.315 137.629 171.055 137.557 170.822 137.474C170.593 137.391 170.396 137.291 170.234 137.173C170.074 137.055 169.951 136.916 169.865 136.756C169.779 136.597 169.736 136.41 169.736 136.196C169.736 135.992 169.781 135.799 169.87 135.617C169.963 135.436 170.092 135.274 170.258 135.134C170.427 134.994 170.629 134.884 170.865 134.804C171.101 134.724 171.365 134.684 171.655 134.684C172.07 134.684 172.424 134.758 172.717 134.904C173.011 135.051 173.236 135.247 173.392 135.493C173.548 135.735 173.626 136.005 173.626 136.302H172.741C172.741 136.158 172.698 136.019 172.612 135.885C172.529 135.748 172.406 135.635 172.244 135.546C172.084 135.456 171.888 135.412 171.655 135.412C171.409 135.412 171.21 135.45 171.057 135.526C170.907 135.6 170.797 135.694 170.727 135.809C170.66 135.924 170.626 136.045 170.626 136.172C170.626 136.268 170.642 136.354 170.674 136.431C170.709 136.504 170.77 136.573 170.856 136.637C170.942 136.697 171.063 136.755 171.22 136.809C171.376 136.863 171.575 136.917 171.818 136.972C172.242 137.067 172.591 137.182 172.866 137.316C173.14 137.45 173.344 137.614 173.478 137.809C173.612 138.004 173.679 138.24 173.679 138.517C173.679 138.744 173.631 138.951 173.536 139.139C173.443 139.327 173.307 139.49 173.129 139.627C172.953 139.761 172.743 139.867 172.497 139.943C172.255 140.017 171.982 140.053 171.679 140.053C171.223 140.053 170.837 139.972 170.521 139.809C170.205 139.646 169.966 139.436 169.803 139.178C169.64 138.919 169.559 138.646 169.559 138.359H170.449C170.462 138.602 170.532 138.795 170.66 138.938C170.787 139.079 170.944 139.179 171.129 139.24C171.314 139.297 171.497 139.326 171.679 139.326C171.921 139.326 172.124 139.294 172.287 139.23C172.452 139.166 172.579 139.079 172.665 138.967C172.751 138.855 172.794 138.728 172.794 138.584ZM175.804 134.78V139.958H174.914V134.78H175.804ZM174.847 133.407C174.847 133.263 174.89 133.142 174.976 133.043C175.065 132.944 175.196 132.895 175.368 132.895C175.537 132.895 175.667 132.944 175.756 133.043C175.848 133.142 175.895 133.263 175.895 133.407C175.895 133.544 175.848 133.662 175.756 133.761C175.667 133.856 175.537 133.904 175.368 133.904C175.196 133.904 175.065 133.856 174.976 133.761C174.89 133.662 174.847 133.544 174.847 133.407ZM180.24 138.584C180.24 138.457 180.211 138.339 180.153 138.23C180.099 138.118 179.986 138.018 179.814 137.929C179.645 137.836 179.389 137.756 179.048 137.689C178.761 137.629 178.501 137.557 178.268 137.474C178.038 137.391 177.842 137.291 177.679 137.173C177.52 137.055 177.397 136.916 177.311 136.756C177.225 136.597 177.182 136.41 177.182 136.196C177.182 135.992 177.226 135.799 177.316 135.617C177.408 135.436 177.538 135.274 177.703 135.134C177.872 134.994 178.075 134.884 178.311 134.804C178.547 134.724 178.81 134.684 179.101 134.684C179.515 134.684 179.869 134.758 180.163 134.904C180.456 135.051 180.681 135.247 180.838 135.493C180.994 135.735 181.072 136.005 181.072 136.302H180.187C180.187 136.158 180.144 136.019 180.058 135.885C179.975 135.748 179.852 135.635 179.689 135.546C179.53 135.456 179.334 135.412 179.101 135.412C178.855 135.412 178.656 135.45 178.503 135.526C178.353 135.6 178.243 135.694 178.172 135.809C178.105 135.924 178.072 136.045 178.072 136.172C178.072 136.268 178.088 136.354 178.12 136.431C178.155 136.504 178.215 136.573 178.302 136.637C178.388 136.697 178.509 136.755 178.665 136.809C178.822 136.863 179.021 136.917 179.263 136.972C179.688 137.067 180.037 137.182 180.311 137.316C180.586 137.45 180.79 137.614 180.924 137.809C181.058 138.004 181.125 138.24 181.125 138.517C181.125 138.744 181.077 138.951 180.981 139.139C180.889 139.327 180.753 139.49 180.575 139.627C180.399 139.761 180.189 139.867 179.943 139.943C179.7 140.017 179.428 140.053 179.125 140.053C178.668 140.053 178.282 139.972 177.967 139.809C177.651 139.646 177.412 139.436 177.249 139.178C177.086 138.919 177.005 138.646 177.005 138.359H177.895C177.908 138.602 177.978 138.795 178.105 138.938C178.233 139.079 178.389 139.179 178.574 139.24C178.759 139.297 178.943 139.326 179.125 139.326C179.367 139.326 179.57 139.294 179.732 139.23C179.898 139.166 180.024 139.079 180.11 138.967C180.196 138.855 180.24 138.728 180.24 138.584ZM184.455 134.78V135.459H181.656V134.78H184.455ZM182.603 133.521H183.489V138.675C183.489 138.851 183.516 138.983 183.57 139.072C183.624 139.162 183.694 139.221 183.781 139.249C183.867 139.278 183.959 139.292 184.058 139.292C184.131 139.292 184.208 139.286 184.288 139.273C184.371 139.257 184.433 139.245 184.474 139.235L184.479 139.958C184.409 139.98 184.316 140.001 184.202 140.02C184.09 140.042 183.954 140.053 183.795 140.053C183.578 140.053 183.379 140.01 183.197 139.924C183.015 139.838 182.87 139.694 182.761 139.493C182.656 139.289 182.603 139.015 182.603 138.67V133.521ZM187.642 140.053C187.282 140.053 186.955 139.993 186.661 139.871C186.371 139.747 186.121 139.573 185.91 139.35C185.703 139.126 185.543 138.862 185.431 138.555C185.32 138.249 185.264 137.914 185.264 137.551V137.35C185.264 136.929 185.326 136.554 185.451 136.225C185.575 135.893 185.744 135.613 185.958 135.383C186.172 135.153 186.414 134.979 186.685 134.861C186.956 134.743 187.237 134.684 187.527 134.684C187.897 134.684 188.216 134.748 188.484 134.876C188.756 135.003 188.977 135.182 189.15 135.412C189.322 135.638 189.449 135.906 189.532 136.216C189.615 136.522 189.657 136.857 189.657 137.22V137.618H185.79V136.895H188.771V136.828C188.759 136.598 188.711 136.375 188.628 136.158C188.548 135.941 188.421 135.763 188.245 135.622C188.07 135.482 187.83 135.412 187.527 135.412C187.326 135.412 187.141 135.455 186.972 135.541C186.803 135.624 186.658 135.748 186.537 135.914C186.416 136.08 186.321 136.283 186.254 136.522C186.187 136.761 186.154 137.037 186.154 137.35V137.551C186.154 137.796 186.187 138.028 186.254 138.244C186.325 138.458 186.425 138.646 186.556 138.809C186.69 138.972 186.851 139.099 187.039 139.192C187.231 139.284 187.448 139.331 187.69 139.331C188.003 139.331 188.267 139.267 188.484 139.139C188.701 139.012 188.891 138.841 189.054 138.627L189.59 139.053C189.478 139.222 189.336 139.383 189.164 139.536C188.992 139.69 188.779 139.814 188.527 139.91C188.279 140.005 187.984 140.053 187.642 140.053ZM191.576 135.885V139.958H190.69V134.78H191.528L191.576 135.885ZM191.365 137.173L190.997 137.158C191 136.804 191.052 136.477 191.154 136.177C191.257 135.874 191.4 135.611 191.585 135.388C191.77 135.164 191.99 134.992 192.246 134.871C192.504 134.746 192.789 134.684 193.102 134.684C193.357 134.684 193.587 134.719 193.791 134.79C193.995 134.857 194.169 134.965 194.313 135.115C194.459 135.265 194.571 135.459 194.648 135.699C194.724 135.935 194.762 136.224 194.762 136.565V139.958H193.872V136.555C193.872 136.284 193.833 136.067 193.753 135.904C193.673 135.739 193.557 135.619 193.404 135.546C193.25 135.469 193.062 135.431 192.839 135.431C192.619 135.431 192.418 135.477 192.236 135.57C192.057 135.662 191.903 135.79 191.772 135.952C191.644 136.115 191.544 136.302 191.47 136.512C191.4 136.72 191.365 136.94 191.365 137.173ZM198.179 139.326C198.39 139.326 198.584 139.283 198.763 139.197C198.942 139.111 199.088 138.993 199.203 138.843C199.318 138.689 199.383 138.516 199.399 138.321H200.242C200.226 138.627 200.122 138.913 199.93 139.178C199.742 139.439 199.495 139.651 199.189 139.814C198.883 139.973 198.546 140.053 198.179 140.053C197.79 140.053 197.45 139.985 197.16 139.847C196.873 139.71 196.633 139.522 196.442 139.283C196.254 139.044 196.112 138.769 196.016 138.46C195.924 138.147 195.877 137.817 195.877 137.469V137.268C195.877 136.921 195.924 136.592 196.016 136.283C196.112 135.97 196.254 135.694 196.442 135.455C196.633 135.215 196.873 135.027 197.16 134.89C197.45 134.753 197.79 134.684 198.179 134.684C198.584 134.684 198.938 134.767 199.241 134.933C199.544 135.096 199.782 135.319 199.954 135.603C200.13 135.884 200.226 136.203 200.242 136.56H199.399C199.383 136.346 199.323 136.153 199.217 135.981C199.115 135.809 198.975 135.672 198.796 135.57C198.621 135.464 198.415 135.412 198.179 135.412C197.908 135.412 197.68 135.466 197.495 135.574C197.313 135.68 197.168 135.823 197.059 136.005C196.954 136.184 196.878 136.383 196.83 136.603C196.785 136.82 196.763 137.042 196.763 137.268V137.469C196.763 137.696 196.785 137.919 196.83 138.139C196.874 138.359 196.949 138.559 197.055 138.737C197.163 138.916 197.308 139.06 197.49 139.168C197.675 139.273 197.905 139.326 198.179 139.326ZM202.691 139.422L204.132 134.78H205.079L203.003 140.757C202.955 140.884 202.891 141.021 202.811 141.168C202.735 141.318 202.636 141.46 202.514 141.594C202.393 141.728 202.246 141.836 202.074 141.919C201.905 142.006 201.703 142.049 201.466 142.049C201.396 142.049 201.307 142.039 201.199 142.02C201.09 142.001 201.014 141.985 200.969 141.972L200.964 141.254C200.99 141.257 201.029 141.261 201.084 141.264C201.141 141.27 201.181 141.273 201.203 141.273C201.404 141.273 201.575 141.246 201.715 141.192C201.856 141.141 201.974 141.053 202.069 140.929C202.168 140.808 202.253 140.64 202.323 140.426L202.691 139.422ZM201.634 134.78L202.979 138.8L203.208 139.733L202.572 140.058L200.667 134.78H201.634Z" fill="black"/>
<path d="M99.9063 151.627V158.632H99.0211V152.732L97.2362 153.383V152.584L99.7676 151.627H99.9063ZM102.62 158.163C102.62 158.013 102.666 157.887 102.758 157.785C102.854 157.68 102.991 157.627 103.17 157.627C103.348 157.627 103.484 157.68 103.577 157.785C103.672 157.887 103.72 158.013 103.72 158.163C103.72 158.31 103.672 158.435 103.577 158.537C103.484 158.639 103.348 158.69 103.17 158.69C102.991 158.69 102.854 158.639 102.758 158.537C102.666 158.435 102.62 158.31 102.62 158.163ZM109.658 157.905V158.632H105.098V157.996L107.381 155.455C107.661 155.142 107.878 154.878 108.032 154.661C108.188 154.441 108.296 154.244 108.357 154.072C108.421 153.897 108.453 153.718 108.453 153.536C108.453 153.306 108.405 153.099 108.309 152.914C108.217 152.726 108.079 152.576 107.898 152.464C107.716 152.353 107.496 152.297 107.237 152.297C106.928 152.297 106.669 152.357 106.462 152.479C106.258 152.597 106.105 152.763 106.003 152.976C105.901 153.19 105.85 153.436 105.85 153.713H104.964C104.964 153.321 105.05 152.962 105.223 152.637C105.395 152.311 105.65 152.053 105.988 151.861C106.326 151.667 106.743 151.569 107.237 151.569C107.677 151.569 108.054 151.648 108.367 151.804C108.679 151.957 108.918 152.174 109.084 152.455C109.253 152.732 109.338 153.058 109.338 153.431C109.338 153.635 109.303 153.842 109.233 154.053C109.166 154.26 109.072 154.468 108.95 154.675C108.832 154.882 108.693 155.087 108.534 155.288C108.378 155.488 108.21 155.686 108.032 155.881L106.165 157.905H109.658ZM117.693 157.881V158.632H114.003V157.881H117.693ZM114.19 151.665V158.632H113.267V151.665H114.19ZM117.205 154.661V155.412H114.003V154.661H117.205ZM117.645 151.665V152.421H114.003V151.665H117.645ZM120.023 158.632H119.138V152.909C119.138 152.536 119.205 152.222 119.339 151.967C119.476 151.708 119.672 151.514 119.927 151.383C120.183 151.249 120.486 151.182 120.837 151.182C120.939 151.182 121.041 151.188 121.143 151.201C121.248 151.214 121.35 151.233 121.449 151.258L121.401 151.981C121.334 151.965 121.258 151.954 121.172 151.947C121.089 151.941 121.006 151.938 120.923 151.938C120.735 151.938 120.572 151.976 120.435 152.053C120.301 152.126 120.199 152.235 120.128 152.378C120.058 152.522 120.023 152.699 120.023 152.909V158.632ZM121.172 153.455V154.134H118.32V153.455H121.172ZM122.822 158.632H121.937V153.005C121.937 152.613 122.012 152.281 122.162 152.01C122.315 151.739 122.534 151.533 122.818 151.392C123.102 151.252 123.438 151.182 123.827 151.182C124.06 151.182 124.287 151.211 124.507 151.268C124.727 151.322 124.953 151.391 125.186 151.474L125.033 152.22C124.89 152.163 124.721 152.109 124.526 152.058C124.331 152.003 124.121 151.976 123.894 151.976C123.515 151.976 123.24 152.062 123.071 152.235C122.905 152.404 122.822 152.66 122.822 153.005V158.632ZM123.88 153.455V154.134H121.119V153.455H123.88ZM125.622 153.455V158.632H124.737V153.455H125.622ZM129.139 158.001C129.349 158.001 129.544 157.958 129.723 157.871C129.901 157.785 130.048 157.667 130.163 157.517C130.278 157.364 130.343 157.19 130.359 156.996H131.201C131.185 157.302 131.082 157.588 130.89 157.852C130.702 158.114 130.455 158.326 130.149 158.489C129.842 158.648 129.506 158.728 129.139 158.728C128.75 158.728 128.41 158.659 128.12 158.522C127.833 158.385 127.593 158.197 127.402 157.958C127.214 157.718 127.072 157.444 126.976 157.135C126.883 156.822 126.837 156.492 126.837 156.144V155.943C126.837 155.595 126.883 155.267 126.976 154.957C127.072 154.645 127.214 154.369 127.402 154.129C127.593 153.89 127.833 153.702 128.12 153.565C128.41 153.428 128.75 153.359 129.139 153.359C129.544 153.359 129.898 153.442 130.201 153.608C130.504 153.771 130.742 153.994 130.914 154.278C131.09 154.559 131.185 154.878 131.201 155.235H130.359C130.343 155.021 130.283 154.828 130.177 154.656C130.075 154.484 129.935 154.346 129.756 154.244C129.581 154.139 129.375 154.086 129.139 154.086C128.868 154.086 128.64 154.141 128.455 154.249C128.273 154.354 128.128 154.498 128.019 154.68C127.914 154.858 127.837 155.058 127.789 155.278C127.745 155.495 127.722 155.717 127.722 155.943V156.144C127.722 156.371 127.745 156.594 127.789 156.814C127.834 157.034 127.909 157.233 128.014 157.412C128.123 157.591 128.268 157.734 128.45 157.843C128.635 157.948 128.865 158.001 129.139 158.001ZM133.158 153.455V158.632H132.268V153.455H133.158ZM132.201 152.081C132.201 151.938 132.244 151.817 132.331 151.718C132.42 151.619 132.551 151.569 132.723 151.569C132.892 151.569 133.021 151.619 133.111 151.718C133.203 151.817 133.249 151.938 133.249 152.081C133.249 152.219 133.203 152.337 133.111 152.436C133.021 152.531 132.892 152.579 132.723 152.579C132.551 152.579 132.42 152.531 132.331 152.436C132.244 152.337 132.201 152.219 132.201 152.081ZM136.728 158.728C136.368 158.728 136.041 158.667 135.747 158.546C135.457 158.422 135.206 158.248 134.996 158.025C134.789 157.801 134.629 157.537 134.517 157.23C134.406 156.924 134.35 156.589 134.35 156.225V156.024C134.35 155.603 134.412 155.228 134.537 154.9C134.661 154.568 134.83 154.287 135.044 154.058C135.257 153.828 135.5 153.654 135.771 153.536C136.042 153.418 136.323 153.359 136.613 153.359C136.983 153.359 137.302 153.423 137.57 153.55C137.841 153.678 138.063 153.857 138.235 154.086C138.408 154.313 138.535 154.581 138.618 154.89C138.701 155.197 138.743 155.532 138.743 155.895V156.292H134.876V155.57H137.857V155.503C137.845 155.273 137.797 155.05 137.714 154.833C137.634 154.616 137.507 154.437 137.331 154.297C137.156 154.157 136.916 154.086 136.613 154.086C136.412 154.086 136.227 154.129 136.058 154.216C135.889 154.299 135.744 154.423 135.623 154.589C135.502 154.755 135.407 154.957 135.34 155.197C135.273 155.436 135.24 155.712 135.24 156.024V156.225C135.24 156.471 135.273 156.702 135.34 156.919C135.411 157.133 135.511 157.321 135.642 157.484C135.776 157.647 135.937 157.774 136.125 157.867C136.317 157.959 136.534 158.005 136.776 158.005C137.089 158.005 137.353 157.942 137.57 157.814C137.787 157.686 137.977 157.516 138.14 157.302L138.676 157.728C138.564 157.897 138.422 158.058 138.25 158.211C138.078 158.364 137.865 158.489 137.613 158.584C137.365 158.68 137.069 158.728 136.728 158.728ZM140.662 154.56V158.632H139.776V153.455H140.614L140.662 154.56ZM140.451 155.847L140.083 155.833C140.086 155.479 140.138 155.152 140.24 154.852C140.343 154.549 140.486 154.286 140.671 154.063C140.856 153.839 141.076 153.667 141.331 153.546C141.59 153.421 141.875 153.359 142.188 153.359C142.443 153.359 142.673 153.394 142.877 153.464C143.081 153.531 143.255 153.64 143.399 153.79C143.545 153.94 143.657 154.134 143.734 154.374C143.81 154.61 143.848 154.898 143.848 155.24V158.632H142.958V155.23C142.958 154.959 142.919 154.742 142.839 154.579C142.759 154.413 142.643 154.294 142.489 154.22C142.336 154.144 142.148 154.106 141.925 154.106C141.705 154.106 141.504 154.152 141.322 154.244C141.143 154.337 140.989 154.464 140.858 154.627C140.73 154.79 140.63 154.976 140.556 155.187C140.486 155.394 140.451 155.614 140.451 155.847ZM147.361 153.455V154.134H144.561V153.455H147.361ZM145.509 152.196H146.394V157.35C146.394 157.525 146.421 157.658 146.475 157.747C146.53 157.836 146.6 157.895 146.686 157.924C146.772 157.953 146.865 157.967 146.964 157.967C147.037 157.967 147.114 157.961 147.193 157.948C147.276 157.932 147.338 157.919 147.38 157.91L147.385 158.632C147.314 158.655 147.222 158.675 147.107 158.695C146.995 158.717 146.86 158.728 146.7 158.728C146.483 158.728 146.284 158.685 146.102 158.599C145.92 158.513 145.775 158.369 145.667 158.168C145.562 157.964 145.509 157.69 145.509 157.345V152.196ZM152.902 158.001C153.112 158.001 153.307 157.958 153.486 157.871C153.664 157.785 153.811 157.667 153.926 157.517C154.041 157.364 154.106 157.19 154.122 156.996H154.964C154.948 157.302 154.845 157.588 154.653 157.852C154.465 158.114 154.218 158.326 153.912 158.489C153.605 158.648 153.269 158.728 152.902 158.728C152.513 158.728 152.173 158.659 151.883 158.522C151.596 158.385 151.356 158.197 151.165 157.958C150.977 157.718 150.835 157.444 150.739 157.135C150.647 156.822 150.6 156.492 150.6 156.144V155.943C150.6 155.595 150.647 155.267 150.739 154.957C150.835 154.645 150.977 154.369 151.165 154.129C151.356 153.89 151.596 153.702 151.883 153.565C152.173 153.428 152.513 153.359 152.902 153.359C153.307 153.359 153.661 153.442 153.964 153.608C154.267 153.771 154.505 153.994 154.677 154.278C154.853 154.559 154.948 154.878 154.964 155.235H154.122C154.106 155.021 154.046 154.828 153.94 154.656C153.838 154.484 153.698 154.346 153.519 154.244C153.344 154.139 153.138 154.086 152.902 154.086C152.631 154.086 152.403 154.141 152.218 154.249C152.036 154.354 151.891 154.498 151.782 154.68C151.677 154.858 151.6 155.058 151.553 155.278C151.508 155.495 151.486 155.717 151.486 155.943V156.144C151.486 156.371 151.508 156.594 151.553 156.814C151.597 157.034 151.672 157.233 151.777 157.412C151.886 157.591 152.031 157.734 152.213 157.843C152.398 157.948 152.628 158.001 152.902 158.001ZM155.725 156.101V155.991C155.725 155.618 155.779 155.272 155.888 154.953C155.996 154.63 156.153 154.351 156.357 154.115C156.561 153.876 156.808 153.691 157.099 153.56C157.389 153.426 157.714 153.359 158.075 153.359C158.438 153.359 158.765 153.426 159.056 153.56C159.349 153.691 159.598 153.876 159.802 154.115C160.01 154.351 160.167 154.63 160.276 154.953C160.384 155.272 160.439 155.618 160.439 155.991V156.101C160.439 156.474 160.384 156.82 160.276 157.139C160.167 157.458 160.01 157.738 159.802 157.977C159.598 158.213 159.351 158.398 159.06 158.532C158.773 158.663 158.448 158.728 158.084 158.728C157.721 158.728 157.394 158.663 157.103 158.532C156.813 158.398 156.564 158.213 156.357 157.977C156.153 157.738 155.996 157.458 155.888 157.139C155.779 156.82 155.725 156.474 155.725 156.101ZM156.61 155.991V156.101C156.61 156.359 156.641 156.603 156.701 156.833C156.762 157.06 156.853 157.261 156.974 157.436C157.099 157.611 157.253 157.75 157.438 157.852C157.623 157.951 157.839 158.001 158.084 158.001C158.327 158.001 158.539 157.951 158.721 157.852C158.906 157.75 159.059 157.611 159.18 157.436C159.301 157.261 159.392 157.06 159.453 156.833C159.517 156.603 159.549 156.359 159.549 156.101V155.991C159.549 155.736 159.517 155.495 159.453 155.268C159.392 155.039 159.3 154.836 159.175 154.661C159.054 154.482 158.901 154.342 158.716 154.24C158.534 154.137 158.32 154.086 158.075 154.086C157.832 154.086 157.619 154.137 157.433 154.24C157.252 154.342 157.099 154.482 156.974 154.661C156.853 154.836 156.762 155.039 156.701 155.268C156.641 155.495 156.61 155.736 156.61 155.991ZM162.511 151.282V158.632H161.621V151.282H162.511ZM164.894 151.282V158.632H164.004V151.282H164.894ZM169.368 157.747V155.082C169.368 154.878 169.326 154.701 169.243 154.551C169.164 154.397 169.042 154.279 168.88 154.196C168.717 154.114 168.516 154.072 168.277 154.072C168.053 154.072 167.857 154.11 167.688 154.187C167.522 154.263 167.391 154.364 167.296 154.488C167.203 154.613 167.157 154.747 167.157 154.89H166.272C166.272 154.705 166.32 154.522 166.415 154.34C166.511 154.158 166.648 153.994 166.827 153.847C167.009 153.697 167.226 153.579 167.478 153.493C167.733 153.404 168.017 153.359 168.329 153.359C168.706 153.359 169.037 153.423 169.325 153.55C169.615 153.678 169.841 153.871 170.004 154.129C170.17 154.385 170.253 154.705 170.253 155.091V157.503C170.253 157.675 170.267 157.859 170.296 158.053C170.328 158.248 170.374 158.415 170.435 158.556V158.632H169.511C169.467 158.53 169.431 158.395 169.406 158.226C169.38 158.053 169.368 157.894 169.368 157.747ZM169.521 155.493L169.53 156.115H168.636C168.384 156.115 168.159 156.136 167.961 156.178C167.763 156.216 167.597 156.275 167.463 156.355C167.329 156.434 167.227 156.535 167.157 156.656C167.087 156.774 167.052 156.913 167.052 157.072C167.052 157.235 167.088 157.383 167.162 157.517C167.235 157.651 167.345 157.758 167.492 157.838C167.642 157.915 167.825 157.953 168.042 157.953C168.313 157.953 168.553 157.895 168.76 157.781C168.967 157.666 169.132 157.525 169.253 157.359C169.377 157.194 169.444 157.032 169.454 156.876L169.832 157.302C169.81 157.436 169.749 157.584 169.65 157.747C169.551 157.91 169.419 158.066 169.253 158.216C169.09 158.363 168.896 158.486 168.669 158.584C168.446 158.68 168.194 158.728 167.913 158.728C167.562 158.728 167.254 158.659 166.989 158.522C166.728 158.385 166.524 158.202 166.377 157.972C166.233 157.739 166.162 157.479 166.162 157.192C166.162 156.914 166.216 156.67 166.324 156.46C166.433 156.246 166.589 156.069 166.793 155.929C166.997 155.785 167.243 155.677 167.53 155.603C167.817 155.53 168.138 155.493 168.492 155.493H169.521ZM171.641 151.282H172.531V157.627L172.454 158.632H171.641V151.282ZM176.029 156V156.101C176.029 156.477 175.984 156.827 175.895 157.149C175.805 157.468 175.675 157.745 175.502 157.982C175.33 158.218 175.119 158.401 174.871 158.532C174.622 158.663 174.336 158.728 174.014 158.728C173.685 158.728 173.397 158.672 173.148 158.561C172.902 158.446 172.695 158.281 172.526 158.068C172.357 157.854 172.221 157.596 172.119 157.292C172.02 156.989 171.952 156.648 171.913 156.268V155.828C171.952 155.445 172.02 155.102 172.119 154.799C172.221 154.496 172.357 154.238 172.526 154.024C172.695 153.807 172.902 153.643 173.148 153.531C173.394 153.417 173.679 153.359 174.004 153.359C174.33 153.359 174.619 153.423 174.871 153.55C175.123 153.675 175.333 153.854 175.502 154.086C175.675 154.319 175.805 154.598 175.895 154.924C175.984 155.246 176.029 155.605 176.029 156ZM175.139 156.101V156C175.139 155.742 175.115 155.5 175.067 155.273C175.019 155.043 174.942 154.842 174.837 154.67C174.732 154.495 174.593 154.358 174.421 154.259C174.249 154.157 174.036 154.106 173.784 154.106C173.561 154.106 173.366 154.144 173.201 154.22C173.038 154.297 172.899 154.401 172.784 154.531C172.669 154.659 172.575 154.806 172.502 154.972C172.432 155.134 172.379 155.303 172.344 155.479V156.632C172.395 156.855 172.478 157.071 172.593 157.278C172.711 157.482 172.867 157.65 173.062 157.781C173.26 157.911 173.504 157.977 173.794 157.977C174.033 157.977 174.237 157.929 174.406 157.833C174.579 157.734 174.717 157.599 174.823 157.426C174.931 157.254 175.011 157.055 175.062 156.828C175.113 156.602 175.139 156.359 175.139 156.101ZM176.914 156.101V155.991C176.914 155.618 176.968 155.272 177.077 154.953C177.185 154.63 177.341 154.351 177.546 154.115C177.75 153.876 177.997 153.691 178.287 153.56C178.577 153.426 178.903 153.359 179.263 153.359C179.627 153.359 179.954 153.426 180.244 153.56C180.538 153.691 180.787 153.876 180.991 154.115C181.198 154.351 181.356 154.63 181.465 154.953C181.573 155.272 181.627 155.618 181.627 155.991V156.101C181.627 156.474 181.573 156.82 181.465 157.139C181.356 157.458 181.198 157.738 180.991 157.977C180.787 158.213 180.539 158.398 180.249 158.532C179.962 158.663 179.637 158.728 179.273 158.728C178.909 158.728 178.582 158.663 178.292 158.532C178.002 158.398 177.753 158.213 177.546 157.977C177.341 157.738 177.185 157.458 177.077 157.139C176.968 156.82 176.914 156.474 176.914 156.101ZM177.799 155.991V156.101C177.799 156.359 177.829 156.603 177.89 156.833C177.951 157.06 178.042 157.261 178.163 157.436C178.287 157.611 178.442 157.75 178.627 157.852C178.812 157.951 179.027 158.001 179.273 158.001C179.515 158.001 179.728 157.951 179.909 157.852C180.094 157.75 180.248 157.611 180.369 157.436C180.49 157.261 180.581 157.06 180.641 156.833C180.705 156.603 180.737 156.359 180.737 156.101V155.991C180.737 155.736 180.705 155.495 180.641 155.268C180.581 155.039 180.488 154.836 180.364 154.661C180.243 154.482 180.09 154.342 179.905 154.24C179.723 154.137 179.509 154.086 179.263 154.086C179.021 154.086 178.807 154.137 178.622 154.24C178.44 154.342 178.287 154.482 178.163 154.661C178.042 154.836 177.951 155.039 177.89 155.268C177.829 155.495 177.799 155.736 177.799 155.991ZM183.623 154.268V158.632H182.737V153.455H183.599L183.623 154.268ZM185.24 153.426L185.235 154.249C185.162 154.233 185.092 154.224 185.025 154.22C184.961 154.214 184.888 154.211 184.805 154.211C184.6 154.211 184.42 154.243 184.264 154.307C184.108 154.37 183.975 154.46 183.867 154.575C183.758 154.689 183.672 154.827 183.608 154.986C183.548 155.142 183.508 155.315 183.489 155.503L183.24 155.646C183.24 155.334 183.27 155.04 183.331 154.766C183.395 154.492 183.492 154.249 183.623 154.039C183.753 153.825 183.919 153.659 184.12 153.541C184.324 153.42 184.567 153.359 184.848 153.359C184.911 153.359 184.985 153.367 185.068 153.383C185.151 153.396 185.208 153.41 185.24 153.426ZM188.92 157.747V155.082C188.92 154.878 188.878 154.701 188.795 154.551C188.716 154.397 188.594 154.279 188.432 154.196C188.269 154.114 188.068 154.072 187.829 154.072C187.605 154.072 187.409 154.11 187.24 154.187C187.074 154.263 186.944 154.364 186.848 154.488C186.755 154.613 186.709 154.747 186.709 154.89H185.824C185.824 154.705 185.872 154.522 185.967 154.34C186.063 154.158 186.2 153.994 186.379 153.847C186.561 153.697 186.778 153.579 187.03 153.493C187.285 153.404 187.569 153.359 187.881 153.359C188.258 153.359 188.59 153.423 188.877 153.55C189.167 153.678 189.394 153.871 189.556 154.129C189.722 154.385 189.805 154.705 189.805 155.091V157.503C189.805 157.675 189.819 157.859 189.848 158.053C189.88 158.248 189.926 158.415 189.987 158.556V158.632H189.063C189.019 158.53 188.984 158.395 188.958 158.226C188.933 158.053 188.92 157.894 188.92 157.747ZM189.073 155.493L189.083 156.115H188.188C187.936 156.115 187.711 156.136 187.513 156.178C187.315 156.216 187.149 156.275 187.015 156.355C186.881 156.434 186.779 156.535 186.709 156.656C186.639 156.774 186.604 156.913 186.604 157.072C186.604 157.235 186.64 157.383 186.714 157.517C186.787 157.651 186.897 157.758 187.044 157.838C187.194 157.915 187.377 157.953 187.594 157.953C187.865 157.953 188.105 157.895 188.312 157.781C188.519 157.666 188.684 157.525 188.805 157.359C188.929 157.194 188.996 157.032 189.006 156.876L189.384 157.302C189.362 157.436 189.301 157.584 189.202 157.747C189.103 157.91 188.971 158.066 188.805 158.216C188.642 158.363 188.448 158.486 188.221 158.584C187.998 158.68 187.746 158.728 187.465 158.728C187.114 158.728 186.806 158.659 186.542 158.522C186.28 158.385 186.076 158.202 185.929 157.972C185.786 157.739 185.714 157.479 185.714 157.192C185.714 156.914 185.768 156.67 185.876 156.46C185.985 156.246 186.141 156.069 186.345 155.929C186.55 155.785 186.795 155.677 187.082 155.603C187.369 155.53 187.69 155.493 188.044 155.493H189.073ZM193.365 153.455V154.134H190.566V153.455H193.365ZM191.513 152.196H192.399V157.35C192.399 157.525 192.426 157.658 192.48 157.747C192.534 157.836 192.604 157.895 192.691 157.924C192.777 157.953 192.869 157.967 192.968 157.967C193.041 157.967 193.118 157.961 193.198 157.948C193.281 157.932 193.343 157.919 193.384 157.91L193.389 158.632C193.319 158.655 193.226 158.675 193.112 158.695C193 158.717 192.864 158.728 192.705 158.728C192.488 158.728 192.289 158.685 192.107 158.599C191.925 158.513 191.78 158.369 191.671 158.168C191.566 157.964 191.513 157.69 191.513 157.345V152.196ZM195.365 153.455V158.632H194.475V153.455H195.365ZM194.408 152.081C194.408 151.938 194.451 151.817 194.538 151.718C194.627 151.619 194.758 151.569 194.93 151.569C195.099 151.569 195.228 151.619 195.318 151.718C195.41 151.817 195.456 151.938 195.456 152.081C195.456 152.219 195.41 152.337 195.318 152.436C195.228 152.531 195.099 152.579 194.93 152.579C194.758 152.579 194.627 152.531 194.538 152.436C194.451 152.337 194.408 152.219 194.408 152.081ZM196.552 156.101V155.991C196.552 155.618 196.606 155.272 196.715 154.953C196.823 154.63 196.98 154.351 197.184 154.115C197.388 153.876 197.635 153.691 197.925 153.56C198.216 153.426 198.541 153.359 198.902 153.359C199.265 153.359 199.592 153.426 199.883 153.56C200.176 153.691 200.425 153.876 200.629 154.115C200.836 154.351 200.994 154.63 201.103 154.953C201.211 155.272 201.266 155.618 201.266 155.991V156.101C201.266 156.474 201.211 156.82 201.103 157.139C200.994 157.458 200.836 157.738 200.629 157.977C200.425 158.213 200.178 158.398 199.887 158.532C199.6 158.663 199.275 158.728 198.911 158.728C198.548 158.728 198.221 158.663 197.93 158.532C197.64 158.398 197.391 158.213 197.184 157.977C196.98 157.738 196.823 157.458 196.715 157.139C196.606 156.82 196.552 156.474 196.552 156.101ZM197.437 155.991V156.101C197.437 156.359 197.468 156.603 197.528 156.833C197.589 157.06 197.68 157.261 197.801 157.436C197.925 157.611 198.08 157.75 198.265 157.852C198.45 157.951 198.666 158.001 198.911 158.001C199.154 158.001 199.366 157.951 199.548 157.852C199.733 157.75 199.886 157.611 200.007 157.436C200.128 157.261 200.219 157.06 200.28 156.833C200.344 156.603 200.375 156.359 200.375 156.101V155.991C200.375 155.736 200.344 155.495 200.28 155.268C200.219 155.039 200.127 154.836 200.002 154.661C199.881 154.482 199.728 154.342 199.543 154.24C199.361 154.137 199.147 154.086 198.902 154.086C198.659 154.086 198.445 154.137 198.26 154.24C198.079 154.342 197.925 154.482 197.801 154.661C197.68 154.836 197.589 155.039 197.528 155.268C197.468 155.495 197.437 155.736 197.437 155.991ZM203.261 154.56V158.632H202.376V153.455H203.213L203.261 154.56ZM203.05 155.847L202.682 155.833C202.685 155.479 202.738 155.152 202.84 154.852C202.942 154.549 203.085 154.286 203.27 154.063C203.456 153.839 203.676 153.667 203.931 153.546C204.189 153.421 204.475 153.359 204.787 153.359C205.043 153.359 205.272 153.394 205.476 153.464C205.681 153.531 205.854 153.64 205.998 153.79C206.145 153.94 206.256 154.134 206.333 154.374C206.41 154.61 206.448 154.898 206.448 155.24V158.632H205.558V155.23C205.558 154.959 205.518 154.742 205.438 154.579C205.358 154.413 205.242 154.294 205.089 154.22C204.936 154.144 204.748 154.106 204.524 154.106C204.304 154.106 204.103 154.152 203.921 154.244C203.743 154.337 203.588 154.464 203.457 154.627C203.33 154.79 203.229 154.976 203.156 155.187C203.085 155.394 203.05 155.614 203.05 155.847Z" fill="black"/>
<path d="M99.9063 170.301V177.307H99.0211V171.407L97.2362 172.057V171.258L99.7676 170.301H99.9063ZM102.62 176.838C102.62 176.688 102.666 176.562 102.758 176.46C102.854 176.354 102.991 176.302 103.17 176.302C103.348 176.302 103.484 176.354 103.577 176.46C103.672 176.562 103.72 176.688 103.72 176.838C103.72 176.984 103.672 177.109 103.577 177.211C103.484 177.313 103.348 177.364 103.17 177.364C102.991 177.364 102.854 177.313 102.758 177.211C102.666 177.109 102.62 176.984 102.62 176.838ZM109.658 176.579V177.307H105.098V176.67L107.381 174.129C107.661 173.817 107.878 173.552 108.032 173.335C108.188 173.115 108.296 172.919 108.357 172.746C108.421 172.571 108.453 172.392 108.453 172.21C108.453 171.981 108.405 171.773 108.309 171.588C108.217 171.4 108.079 171.25 107.898 171.139C107.716 171.027 107.496 170.971 107.237 170.971C106.928 170.971 106.669 171.032 106.462 171.153C106.258 171.271 106.105 171.437 106.003 171.651C105.901 171.864 105.85 172.11 105.85 172.388H104.964C104.964 171.995 105.05 171.636 105.223 171.311C105.395 170.985 105.65 170.727 105.988 170.536C106.326 170.341 106.743 170.244 107.237 170.244C107.677 170.244 108.054 170.322 108.367 170.478C108.679 170.631 108.918 170.848 109.084 171.129C109.253 171.407 109.338 171.732 109.338 172.105C109.338 172.309 109.303 172.517 109.233 172.727C109.166 172.935 109.072 173.142 108.95 173.349C108.832 173.557 108.693 173.761 108.534 173.962C108.378 174.163 108.21 174.361 108.032 174.555L106.165 176.579H109.658ZM117.693 176.555V177.307H114.003V176.555H117.693ZM114.19 170.339V177.307H113.267V170.339H114.19ZM117.205 173.335V174.086H114.003V173.335H117.205ZM117.645 170.339V171.096H114.003V170.339H117.645ZM120.023 177.307H119.138V171.584C119.138 171.21 119.205 170.896 119.339 170.641C119.476 170.383 119.672 170.188 119.927 170.057C120.183 169.923 120.486 169.856 120.837 169.856C120.939 169.856 121.041 169.863 121.143 169.875C121.248 169.888 121.35 169.907 121.449 169.933L121.401 170.655C121.334 170.639 121.258 170.628 121.172 170.622C121.089 170.615 121.006 170.612 120.923 170.612C120.735 170.612 120.572 170.65 120.435 170.727C120.301 170.8 120.199 170.909 120.128 171.052C120.058 171.196 120.023 171.373 120.023 171.584V177.307ZM121.172 172.129V172.809H118.32V172.129H121.172ZM122.822 177.307H121.937V171.679C121.937 171.287 122.012 170.955 122.162 170.684C122.315 170.413 122.534 170.207 122.818 170.067C123.102 169.926 123.438 169.856 123.827 169.856C124.06 169.856 124.287 169.885 124.507 169.942C124.727 169.997 124.953 170.065 125.186 170.148L125.033 170.895C124.89 170.837 124.721 170.783 124.526 170.732C124.331 170.678 124.121 170.65 123.894 170.65C123.515 170.65 123.24 170.737 123.071 170.909C122.905 171.078 122.822 171.335 122.822 171.679V177.307ZM123.88 172.129V172.809H121.119V172.129H123.88ZM125.622 172.129V177.307H124.737V172.129H125.622ZM129.139 176.675C129.349 176.675 129.544 176.632 129.723 176.546C129.901 176.46 130.048 176.342 130.163 176.192C130.278 176.039 130.343 175.865 130.359 175.67H131.201C131.185 175.976 131.082 176.262 130.89 176.527C130.702 176.788 130.455 177 130.149 177.163C129.842 177.323 129.506 177.402 129.139 177.402C128.75 177.402 128.41 177.334 128.12 177.197C127.833 177.059 127.593 176.871 127.402 176.632C127.214 176.393 127.072 176.118 126.976 175.809C126.883 175.496 126.837 175.166 126.837 174.818V174.617C126.837 174.27 126.883 173.941 126.976 173.632C127.072 173.319 127.214 173.043 127.402 172.804C127.593 172.565 127.833 172.376 128.12 172.239C128.41 172.102 128.75 172.033 129.139 172.033C129.544 172.033 129.898 172.116 130.201 172.282C130.504 172.445 130.742 172.668 130.914 172.952C131.09 173.233 131.185 173.552 131.201 173.909H130.359C130.343 173.695 130.283 173.502 130.177 173.33C130.075 173.158 129.935 173.021 129.756 172.919C129.581 172.813 129.375 172.761 129.139 172.761C128.868 172.761 128.64 172.815 128.455 172.923C128.273 173.029 128.128 173.172 128.019 173.354C127.914 173.533 127.837 173.732 127.789 173.952C127.745 174.169 127.722 174.391 127.722 174.617V174.818C127.722 175.045 127.745 175.268 127.789 175.488C127.834 175.708 127.909 175.908 128.014 176.086C128.123 176.265 128.268 176.409 128.45 176.517C128.635 176.622 128.865 176.675 129.139 176.675ZM133.158 172.129V177.307H132.268V172.129H133.158ZM132.201 170.756C132.201 170.612 132.244 170.491 132.331 170.392C132.42 170.293 132.551 170.244 132.723 170.244C132.892 170.244 133.021 170.293 133.111 170.392C133.203 170.491 133.249 170.612 133.249 170.756C133.249 170.893 133.203 171.011 133.111 171.11C133.021 171.206 132.892 171.253 132.723 171.253C132.551 171.253 132.42 171.206 132.331 171.11C132.244 171.011 132.201 170.893 132.201 170.756ZM136.728 177.402C136.368 177.402 136.041 177.342 135.747 177.221C135.457 177.096 135.206 176.922 134.996 176.699C134.789 176.476 134.629 176.211 134.517 175.905C134.406 175.598 134.35 175.263 134.35 174.9V174.699C134.35 174.278 134.412 173.903 134.537 173.574C134.661 173.242 134.83 172.962 135.044 172.732C135.257 172.502 135.5 172.328 135.771 172.21C136.042 172.092 136.323 172.033 136.613 172.033C136.983 172.033 137.302 172.097 137.57 172.225C137.841 172.352 138.063 172.531 138.235 172.761C138.408 172.987 138.535 173.255 138.618 173.565C138.701 173.871 138.743 174.206 138.743 174.57V174.967H134.876V174.244H137.857V174.177C137.845 173.947 137.797 173.724 137.714 173.507C137.634 173.29 137.507 173.112 137.331 172.971C137.156 172.831 136.916 172.761 136.613 172.761C136.412 172.761 136.227 172.804 136.058 172.89C135.889 172.973 135.744 173.097 135.623 173.263C135.502 173.429 135.407 173.632 135.34 173.871C135.273 174.11 135.24 174.386 135.24 174.699V174.9C135.24 175.145 135.273 175.377 135.34 175.594C135.411 175.807 135.511 175.996 135.642 176.158C135.776 176.321 135.937 176.449 136.125 176.541C136.317 176.634 136.534 176.68 136.776 176.68C137.089 176.68 137.353 176.616 137.57 176.488C137.787 176.361 137.977 176.19 138.14 175.976L138.676 176.402C138.564 176.571 138.422 176.732 138.25 176.886C138.078 177.039 137.865 177.163 137.613 177.259C137.365 177.354 137.069 177.402 136.728 177.402ZM140.662 173.234V177.307H139.776V172.129H140.614L140.662 173.234ZM140.451 174.522L140.083 174.507C140.086 174.153 140.138 173.826 140.24 173.526C140.343 173.223 140.486 172.96 140.671 172.737C140.856 172.514 141.076 172.341 141.331 172.22C141.59 172.096 141.875 172.033 142.188 172.033C142.443 172.033 142.673 172.068 142.877 172.139C143.081 172.206 143.255 172.314 143.399 172.464C143.545 172.614 143.657 172.809 143.734 173.048C143.81 173.284 143.848 173.573 143.848 173.914V177.307H142.958V173.904C142.958 173.633 142.919 173.416 142.839 173.254C142.759 173.088 142.643 172.968 142.489 172.895C142.336 172.818 142.148 172.78 141.925 172.78C141.705 172.78 141.504 172.826 141.322 172.919C141.143 173.011 140.989 173.139 140.858 173.301C140.73 173.464 140.63 173.651 140.556 173.861C140.486 174.069 140.451 174.289 140.451 174.522ZM147.361 172.129V172.809H144.561V172.129H147.361ZM145.509 170.871H146.394V176.024C146.394 176.2 146.421 176.332 146.475 176.421C146.53 176.511 146.6 176.57 146.686 176.598C146.772 176.627 146.865 176.642 146.964 176.642C147.037 176.642 147.114 176.635 147.193 176.622C147.276 176.606 147.338 176.594 147.38 176.584L147.385 177.307C147.314 177.329 147.222 177.35 147.107 177.369C146.995 177.391 146.86 177.402 146.7 177.402C146.483 177.402 146.284 177.359 146.102 177.273C145.92 177.187 145.775 177.043 145.667 176.842C145.562 176.638 145.509 176.364 145.509 176.019V170.871ZM152.902 176.675C153.112 176.675 153.307 176.632 153.486 176.546C153.664 176.46 153.811 176.342 153.926 176.192C154.041 176.039 154.106 175.865 154.122 175.67H154.964C154.948 175.976 154.845 176.262 154.653 176.527C154.465 176.788 154.218 177 153.912 177.163C153.605 177.323 153.269 177.402 152.902 177.402C152.513 177.402 152.173 177.334 151.883 177.197C151.596 177.059 151.356 176.871 151.165 176.632C150.977 176.393 150.835 176.118 150.739 175.809C150.647 175.496 150.6 175.166 150.6 174.818V174.617C150.6 174.27 150.647 173.941 150.739 173.632C150.835 173.319 150.977 173.043 151.165 172.804C151.356 172.565 151.596 172.376 151.883 172.239C152.173 172.102 152.513 172.033 152.902 172.033C153.307 172.033 153.661 172.116 153.964 172.282C154.267 172.445 154.505 172.668 154.677 172.952C154.853 173.233 154.948 173.552 154.964 173.909H154.122C154.106 173.695 154.046 173.502 153.94 173.33C153.838 173.158 153.698 173.021 153.519 172.919C153.344 172.813 153.138 172.761 152.902 172.761C152.631 172.761 152.403 172.815 152.218 172.923C152.036 173.029 151.891 173.172 151.782 173.354C151.677 173.533 151.6 173.732 151.553 173.952C151.508 174.169 151.486 174.391 151.486 174.617V174.818C151.486 175.045 151.508 175.268 151.553 175.488C151.597 175.708 151.672 175.908 151.777 176.086C151.886 176.265 152.031 176.409 152.213 176.517C152.398 176.622 152.628 176.675 152.902 176.675ZM155.725 174.775V174.665C155.725 174.292 155.779 173.946 155.888 173.627C155.996 173.305 156.153 173.026 156.357 172.789C156.561 172.55 156.808 172.365 157.099 172.234C157.389 172.1 157.714 172.033 158.075 172.033C158.438 172.033 158.765 172.1 159.056 172.234C159.349 172.365 159.598 172.55 159.802 172.789C160.01 173.026 160.167 173.305 160.276 173.627C160.384 173.946 160.439 174.292 160.439 174.665V174.775C160.439 175.149 160.384 175.495 160.276 175.814C160.167 176.133 160.01 176.412 159.802 176.651C159.598 176.887 159.351 177.072 159.06 177.206C158.773 177.337 158.448 177.402 158.084 177.402C157.721 177.402 157.394 177.337 157.103 177.206C156.813 177.072 156.564 176.887 156.357 176.651C156.153 176.412 155.996 176.133 155.888 175.814C155.779 175.495 155.725 175.149 155.725 174.775ZM156.61 174.665V174.775C156.61 175.034 156.641 175.278 156.701 175.507C156.762 175.734 156.853 175.935 156.974 176.11C157.099 176.286 157.253 176.425 157.438 176.527C157.623 176.626 157.839 176.675 158.084 176.675C158.327 176.675 158.539 176.626 158.721 176.527C158.906 176.425 159.059 176.286 159.18 176.11C159.301 175.935 159.392 175.734 159.453 175.507C159.517 175.278 159.549 175.034 159.549 174.775V174.665C159.549 174.41 159.517 174.169 159.453 173.943C159.392 173.713 159.3 173.51 159.175 173.335C159.054 173.156 158.901 173.016 158.716 172.914C158.534 172.812 158.32 172.761 158.075 172.761C157.832 172.761 157.619 172.812 157.433 172.914C157.252 173.016 157.099 173.156 156.974 173.335C156.853 173.51 156.762 173.713 156.701 173.943C156.641 174.169 156.61 174.41 156.61 174.665ZM162.511 169.957V177.307H161.621V169.957H162.511ZM164.894 169.957V177.307H164.004V169.957H164.894ZM169.368 176.421V173.756C169.368 173.552 169.326 173.375 169.243 173.225C169.164 173.072 169.042 172.954 168.88 172.871C168.717 172.788 168.516 172.746 168.277 172.746C168.053 172.746 167.857 172.785 167.688 172.861C167.522 172.938 167.391 173.038 167.296 173.163C167.203 173.287 167.157 173.421 167.157 173.565H166.272C166.272 173.38 166.32 173.196 166.415 173.014C166.511 172.833 166.648 172.668 166.827 172.521C167.009 172.372 167.226 172.254 167.478 172.167C167.733 172.078 168.017 172.033 168.329 172.033C168.706 172.033 169.037 172.097 169.325 172.225C169.615 172.352 169.841 172.545 170.004 172.804C170.17 173.059 170.253 173.38 170.253 173.766V176.177C170.253 176.35 170.267 176.533 170.296 176.728C170.328 176.922 170.374 177.09 170.435 177.23V177.307H169.511C169.467 177.205 169.431 177.069 169.406 176.9C169.38 176.728 169.368 176.568 169.368 176.421ZM169.521 174.168L169.53 174.79H168.636C168.384 174.79 168.159 174.81 167.961 174.852C167.763 174.89 167.597 174.949 167.463 175.029C167.329 175.109 167.227 175.209 167.157 175.33C167.087 175.448 167.052 175.587 167.052 175.747C167.052 175.909 167.088 176.058 167.162 176.192C167.235 176.326 167.345 176.433 167.492 176.512C167.642 176.589 167.825 176.627 168.042 176.627C168.313 176.627 168.553 176.57 168.76 176.455C168.967 176.34 169.132 176.2 169.253 176.034C169.377 175.868 169.444 175.707 169.454 175.55L169.832 175.976C169.81 176.11 169.749 176.259 169.65 176.421C169.551 176.584 169.419 176.74 169.253 176.89C169.09 177.037 168.896 177.16 168.669 177.259C168.446 177.354 168.194 177.402 167.913 177.402C167.562 177.402 167.254 177.334 166.989 177.197C166.728 177.059 166.524 176.876 166.377 176.646C166.233 176.413 166.162 176.153 166.162 175.866C166.162 175.589 166.216 175.345 166.324 175.134C166.433 174.92 166.589 174.743 166.793 174.603C166.997 174.459 167.243 174.351 167.53 174.278C167.817 174.204 168.138 174.168 168.492 174.168H169.521ZM171.641 169.957H172.531V176.302L172.454 177.307H171.641V169.957ZM176.029 174.675V174.775C176.029 175.152 175.984 175.501 175.895 175.823C175.805 176.142 175.675 176.42 175.502 176.656C175.33 176.892 175.119 177.075 174.871 177.206C174.622 177.337 174.336 177.402 174.014 177.402C173.685 177.402 173.397 177.347 173.148 177.235C172.902 177.12 172.695 176.956 172.526 176.742C172.357 176.528 172.221 176.27 172.119 175.967C172.02 175.664 171.952 175.322 171.913 174.943V174.503C171.952 174.12 172.02 173.777 172.119 173.474C172.221 173.171 172.357 172.912 172.526 172.699C172.695 172.482 172.902 172.317 173.148 172.206C173.394 172.091 173.679 172.033 174.004 172.033C174.33 172.033 174.619 172.097 174.871 172.225C175.123 172.349 175.333 172.528 175.502 172.761C175.675 172.994 175.805 173.273 175.895 173.598C175.984 173.92 176.029 174.279 176.029 174.675ZM175.139 174.775V174.675C175.139 174.416 175.115 174.174 175.067 173.947C175.019 173.718 174.942 173.517 174.837 173.345C174.732 173.169 174.593 173.032 174.421 172.933C174.249 172.831 174.036 172.78 173.784 172.78C173.561 172.78 173.366 172.818 173.201 172.895C173.038 172.971 172.899 173.075 172.784 173.206C172.669 173.333 172.575 173.48 172.502 173.646C172.432 173.809 172.379 173.978 172.344 174.153V175.306C172.395 175.53 172.478 175.745 172.593 175.952C172.711 176.157 172.867 176.324 173.062 176.455C173.26 176.586 173.504 176.651 173.794 176.651C174.033 176.651 174.237 176.603 174.406 176.508C174.579 176.409 174.717 176.273 174.823 176.101C174.931 175.929 175.011 175.729 175.062 175.503C175.113 175.276 175.139 175.034 175.139 174.775ZM176.914 174.775V174.665C176.914 174.292 176.968 173.946 177.077 173.627C177.185 173.305 177.341 173.026 177.546 172.789C177.75 172.55 177.997 172.365 178.287 172.234C178.577 172.1 178.903 172.033 179.263 172.033C179.627 172.033 179.954 172.1 180.244 172.234C180.538 172.365 180.787 172.55 180.991 172.789C181.198 173.026 181.356 173.305 181.465 173.627C181.573 173.946 181.627 174.292 181.627 174.665V174.775C181.627 175.149 181.573 175.495 181.465 175.814C181.356 176.133 181.198 176.412 180.991 176.651C180.787 176.887 180.539 177.072 180.249 177.206C179.962 177.337 179.637 177.402 179.273 177.402C178.909 177.402 178.582 177.337 178.292 177.206C178.002 177.072 177.753 176.887 177.546 176.651C177.341 176.412 177.185 176.133 177.077 175.814C176.968 175.495 176.914 175.149 176.914 174.775ZM177.799 174.665V174.775C177.799 175.034 177.829 175.278 177.89 175.507C177.951 175.734 178.042 175.935 178.163 176.11C178.287 176.286 178.442 176.425 178.627 176.527C178.812 176.626 179.027 176.675 179.273 176.675C179.515 176.675 179.728 176.626 179.909 176.527C180.094 176.425 180.248 176.286 180.369 176.11C180.49 175.935 180.581 175.734 180.641 175.507C180.705 175.278 180.737 175.034 180.737 174.775V174.665C180.737 174.41 180.705 174.169 180.641 173.943C180.581 173.713 180.488 173.51 180.364 173.335C180.243 173.156 180.09 173.016 179.905 172.914C179.723 172.812 179.509 172.761 179.263 172.761C179.021 172.761 178.807 172.812 178.622 172.914C178.44 173.016 178.287 173.156 178.163 173.335C178.042 173.51 177.951 173.713 177.89 173.943C177.829 174.169 177.799 174.41 177.799 174.665ZM183.623 172.943V177.307H182.737V172.129H183.599L183.623 172.943ZM185.24 172.1L185.235 172.923C185.162 172.907 185.092 172.898 185.025 172.895C184.961 172.888 184.888 172.885 184.805 172.885C184.6 172.885 184.42 172.917 184.264 172.981C184.108 173.045 183.975 173.134 183.867 173.249C183.758 173.364 183.672 173.501 183.608 173.66C183.548 173.817 183.508 173.989 183.489 174.177L183.24 174.321C183.24 174.008 183.27 173.715 183.331 173.44C183.395 173.166 183.492 172.923 183.623 172.713C183.753 172.499 183.919 172.333 184.12 172.215C184.324 172.094 184.567 172.033 184.848 172.033C184.911 172.033 184.985 172.041 185.068 172.057C185.151 172.07 185.208 172.084 185.24 172.1ZM188.92 176.421V173.756C188.92 173.552 188.878 173.375 188.795 173.225C188.716 173.072 188.594 172.954 188.432 172.871C188.269 172.788 188.068 172.746 187.829 172.746C187.605 172.746 187.409 172.785 187.24 172.861C187.074 172.938 186.944 173.038 186.848 173.163C186.755 173.287 186.709 173.421 186.709 173.565H185.824C185.824 173.38 185.872 173.196 185.967 173.014C186.063 172.833 186.2 172.668 186.379 172.521C186.561 172.372 186.778 172.254 187.03 172.167C187.285 172.078 187.569 172.033 187.881 172.033C188.258 172.033 188.59 172.097 188.877 172.225C189.167 172.352 189.394 172.545 189.556 172.804C189.722 173.059 189.805 173.38 189.805 173.766V176.177C189.805 176.35 189.819 176.533 189.848 176.728C189.88 176.922 189.926 177.09 189.987 177.23V177.307H189.063C189.019 177.205 188.984 177.069 188.958 176.9C188.933 176.728 188.92 176.568 188.92 176.421ZM189.073 174.168L189.083 174.79H188.188C187.936 174.79 187.711 174.81 187.513 174.852C187.315 174.89 187.149 174.949 187.015 175.029C186.881 175.109 186.779 175.209 186.709 175.33C186.639 175.448 186.604 175.587 186.604 175.747C186.604 175.909 186.64 176.058 186.714 176.192C186.787 176.326 186.897 176.433 187.044 176.512C187.194 176.589 187.377 176.627 187.594 176.627C187.865 176.627 188.105 176.57 188.312 176.455C188.519 176.34 188.684 176.2 188.805 176.034C188.929 175.868 188.996 175.707 189.006 175.55L189.384 175.976C189.362 176.11 189.301 176.259 189.202 176.421C189.103 176.584 188.971 176.74 188.805 176.89C188.642 177.037 188.448 177.16 188.221 177.259C187.998 177.354 187.746 177.402 187.465 177.402C187.114 177.402 186.806 177.334 186.542 177.197C186.28 177.059 186.076 176.876 185.929 176.646C185.786 176.413 185.714 176.153 185.714 175.866C185.714 175.589 185.768 175.345 185.876 175.134C185.985 174.92 186.141 174.743 186.345 174.603C186.55 174.459 186.795 174.351 187.082 174.278C187.369 174.204 187.69 174.168 188.044 174.168H189.073ZM193.365 172.129V172.809H190.566V172.129H193.365ZM191.513 170.871H192.399V176.024C192.399 176.2 192.426 176.332 192.48 176.421C192.534 176.511 192.604 176.57 192.691 176.598C192.777 176.627 192.869 176.642 192.968 176.642C193.041 176.642 193.118 176.635 193.198 176.622C193.281 176.606 193.343 176.594 193.384 176.584L193.389 177.307C193.319 177.329 193.226 177.35 193.112 177.369C193 177.391 192.864 177.402 192.705 177.402C192.488 177.402 192.289 177.359 192.107 177.273C191.925 177.187 191.78 177.043 191.671 176.842C191.566 176.638 191.513 176.364 191.513 176.019V170.871ZM195.365 172.129V177.307H194.475V172.129H195.365ZM194.408 170.756C194.408 170.612 194.451 170.491 194.538 170.392C194.627 170.293 194.758 170.244 194.93 170.244C195.099 170.244 195.228 170.293 195.318 170.392C195.41 170.491 195.456 170.612 195.456 170.756C195.456 170.893 195.41 171.011 195.318 171.11C195.228 171.206 195.099 171.253 194.93 171.253C194.758 171.253 194.627 171.206 194.538 171.11C194.451 171.011 194.408 170.893 194.408 170.756ZM196.552 174.775V174.665C196.552 174.292 196.606 173.946 196.715 173.627C196.823 173.305 196.98 173.026 197.184 172.789C197.388 172.55 197.635 172.365 197.925 172.234C198.216 172.1 198.541 172.033 198.902 172.033C199.265 172.033 199.592 172.1 199.883 172.234C200.176 172.365 200.425 172.55 200.629 172.789C200.836 173.026 200.994 173.305 201.103 173.627C201.211 173.946 201.266 174.292 201.266 174.665V174.775C201.266 175.149 201.211 175.495 201.103 175.814C200.994 176.133 200.836 176.412 200.629 176.651C200.425 176.887 200.178 177.072 199.887 177.206C199.6 177.337 199.275 177.402 198.911 177.402C198.548 177.402 198.221 177.337 197.93 177.206C197.64 177.072 197.391 176.887 197.184 176.651C196.98 176.412 196.823 176.133 196.715 175.814C196.606 175.495 196.552 175.149 196.552 174.775ZM197.437 174.665V174.775C197.437 175.034 197.468 175.278 197.528 175.507C197.589 175.734 197.68 175.935 197.801 176.11C197.925 176.286 198.08 176.425 198.265 176.527C198.45 176.626 198.666 176.675 198.911 176.675C199.154 176.675 199.366 176.626 199.548 176.527C199.733 176.425 199.886 176.286 200.007 176.11C200.128 175.935 200.219 175.734 200.28 175.507C200.344 175.278 200.375 175.034 200.375 174.775V174.665C200.375 174.41 200.344 174.169 200.28 173.943C200.219 173.713 200.127 173.51 200.002 173.335C199.881 173.156 199.728 173.016 199.543 172.914C199.361 172.812 199.147 172.761 198.902 172.761C198.659 172.761 198.445 172.812 198.26 172.914C198.079 173.016 197.925 173.156 197.801 173.335C197.68 173.51 197.589 173.713 197.528 173.943C197.468 174.169 197.437 174.41 197.437 174.665ZM203.261 173.234V177.307H202.376V172.129H203.213L203.261 173.234ZM203.05 174.522L202.682 174.507C202.685 174.153 202.738 173.826 202.84 173.526C202.942 173.223 203.085 172.96 203.27 172.737C203.456 172.514 203.676 172.341 203.931 172.22C204.189 172.096 204.475 172.033 204.787 172.033C205.043 172.033 205.272 172.068 205.476 172.139C205.681 172.206 205.854 172.314 205.998 172.464C206.145 172.614 206.256 172.809 206.333 173.048C206.41 173.284 206.448 173.573 206.448 173.914V177.307H205.558V173.904C205.558 173.633 205.518 173.416 205.438 173.254C205.358 173.088 205.242 172.968 205.089 172.895C204.936 172.818 204.748 172.78 204.524 172.78C204.304 172.78 204.103 172.826 203.921 172.919C203.743 173.011 203.588 173.139 203.457 173.301C203.33 173.464 203.229 173.651 203.156 173.861C203.085 174.069 203.05 174.289 203.05 174.522Z" fill="black"/>
</g>
</g>
</g>
<defs>
<clipPath id="clip0_4686_36433">
<rect width="310" height="186" fill="white"/>
</clipPath>
<clipPath id="clip1_4686_36433">
<path d="M24 22C24 18.6863 26.6863 16 30 16H680C683.314 16 686 18.6863 686 22V336.457C686 339.771 683.314 342.457 680 342.457H30C26.6863 342.457 24 339.771 24 336.457V22Z" fill="white"/>
</clipPath>
<clipPath id="clip2_4686_36433">
<rect width="17.2354" height="21.8122" fill="white" transform="translate(56 96.625)"/>
</clipPath>
</defs>
</svg>
