<svg width="310" height="186" viewBox="0 0 310 186" fill="none" xmlns="http://www.w3.org/2000/svg">
<g clip-path="url(#clip0_12486_59498)">
<rect width="310" height="186" fill="#F5F5F5"/>
<rect width="310" height="186" fill="#F5F5F5"/>
<g clip-path="url(#clip1_12486_59498)">
<path d="M24 22C24 18.6863 26.6863 16 30 16H680C683.314 16 686 18.6863 686 22V336.457C686 339.771 683.314 342.457 680 342.457H30C26.6863 342.457 24 339.771 24 336.457V22Z" fill="white"/>
<rect x="24" y="15.7266" width="295" height="14" fill="#E6E6E6"/>
<circle cx="33.5" cy="23.2266" r="3.5" fill="#E59090"/>
<circle cx="43.5" cy="23.2266" r="3.5" fill="#E3C173"/>
<circle cx="53.5" cy="23.2266" r="3.5" fill="#9CCF88"/>
<path d="M60.7551 86.6883V105.102H58.3143V86.6883H60.7551ZM67.1795 94.3394V105.102H64.8399V91.4181H67.053L67.1795 94.3394ZM66.623 97.7413L65.6493 97.7034C65.6577 96.7675 65.7968 95.9034 66.0666 95.1108C66.3364 94.3099 66.7158 93.6143 67.2048 93.0242C67.6938 92.434 68.2755 91.9787 68.95 91.6583C69.6329 91.3295 70.3875 91.1651 71.2137 91.1651C71.8882 91.1651 72.4952 91.2579 73.0348 91.4434C73.5744 91.6204 74.0339 91.9071 74.4133 92.3033C74.8011 92.6996 75.0962 93.2139 75.2985 93.8462C75.5009 94.4701 75.6021 95.2331 75.6021 96.1352V105.102H73.2498V96.1099C73.2498 95.3933 73.1444 94.82 72.9336 94.39C72.7229 93.9516 72.4151 93.6354 72.0104 93.4415C71.6058 93.2392 71.1083 93.138 70.5182 93.138C69.9364 93.138 69.4053 93.2602 68.9247 93.5047C68.4526 93.7492 68.0437 94.0865 67.698 94.5165C67.3608 94.9464 67.0952 95.4396 66.9013 95.9961C66.7158 96.5441 66.623 97.1258 66.623 97.7413ZM87.7806 102.446V85.6766H90.1329V105.102H87.983L87.7806 102.446ZM78.574 98.4116V98.146C78.574 97.1006 78.7004 96.1521 78.9534 95.3005C79.2147 94.4406 79.5815 93.7029 80.0536 93.0874C80.5342 92.4719 81.1033 91.9998 81.7609 91.671C82.4269 91.3338 83.1689 91.1651 83.9867 91.1651C84.8466 91.1651 85.597 91.3169 86.2377 91.6204C86.8869 91.9155 87.4349 92.3497 87.8818 92.923C88.3371 93.4879 88.6954 94.1708 88.9567 94.9717C89.2181 95.7727 89.3994 96.679 89.5005 97.6907V98.8542C89.4078 99.8575 89.2265 100.76 88.9567 101.561C88.6954 102.361 88.3371 103.044 87.8818 103.609C87.4349 104.174 86.8869 104.608 86.2377 104.912C85.5886 105.207 84.8298 105.354 83.9614 105.354C83.1604 105.354 82.4269 105.182 81.7609 104.836C81.1033 104.49 80.5342 104.006 80.0536 103.382C79.5815 102.758 79.2147 102.024 78.9534 101.181C78.7004 100.33 78.574 99.4064 78.574 98.4116ZM80.9262 98.146V98.4116C80.9262 99.0945 80.9937 99.7352 81.1286 100.334C81.2719 100.932 81.4911 101.459 81.7862 101.915C82.0813 102.37 82.4564 102.728 82.9117 102.99C83.367 103.243 83.9108 103.369 84.5431 103.369C85.3188 103.369 85.9553 103.205 86.4527 102.876C86.9586 102.547 87.3633 102.113 87.6668 101.573C87.9703 101.034 88.2064 100.448 88.375 99.8153V96.7675C88.2738 96.3038 88.1263 95.857 87.9324 95.427C87.7469 94.9886 87.5024 94.6008 87.1989 94.2635C86.9038 93.9179 86.537 93.6438 86.0986 93.4415C85.6687 93.2392 85.1586 93.138 84.5684 93.138C83.9277 93.138 83.3754 93.2729 82.9117 93.5427C82.4564 93.804 82.0813 94.1666 81.7862 94.6303C81.4911 95.0855 81.2719 95.6167 81.1286 96.2237C80.9937 96.8223 80.9262 97.4631 80.9262 98.146ZM99.4533 105.354C98.5006 105.354 97.6364 105.194 96.8608 104.874C96.0936 104.545 95.4317 104.086 94.8753 103.495C94.3273 102.905 93.9057 102.206 93.6106 101.396C93.3156 100.587 93.168 99.7015 93.168 98.7404V98.2092C93.168 97.0963 93.3324 96.1057 93.6612 95.2373C93.99 94.3605 94.4369 93.6186 95.0018 93.0115C95.5666 92.4045 96.2074 91.945 96.924 91.6331C97.6407 91.3211 98.3826 91.1651 99.1498 91.1651C100.128 91.1651 100.971 91.3338 101.679 91.671C102.396 92.0082 102.982 92.4804 103.437 93.0874C103.892 93.686 104.229 94.3942 104.449 95.212C104.668 96.0214 104.777 96.9066 104.777 97.8678V98.9174H94.5591V97.0078H102.438V96.8308C102.404 96.2237 102.278 95.6336 102.058 95.0603C101.848 94.4869 101.51 94.0148 101.047 93.6438C100.583 93.2729 99.9507 93.0874 99.1498 93.0874C98.6187 93.0874 98.1297 93.2012 97.6828 93.4289C97.236 93.6481 96.8524 93.9769 96.532 94.4153C96.2116 94.8537 95.9629 95.3891 95.7858 96.0214C95.6088 96.6537 95.5203 97.383 95.5203 98.2092V98.7404C95.5203 99.3896 95.6088 100.001 95.7858 100.574C95.9713 101.139 96.2369 101.636 96.5826 102.066C96.9367 102.496 97.3624 102.834 97.8599 103.078C98.3657 103.323 98.939 103.445 99.5798 103.445C100.406 103.445 101.106 103.276 101.679 102.939C102.252 102.602 102.754 102.151 103.184 101.586L104.6 102.711C104.305 103.158 103.93 103.584 103.475 103.989C103.02 104.393 102.459 104.722 101.793 104.975C101.135 105.228 100.355 105.354 99.4533 105.354ZM109.09 91.4181L112.087 96.4008L115.122 91.4181H117.867L113.39 98.1713L118.006 105.102H115.299L112.138 99.9671L108.976 105.102H106.257L110.86 98.1713L106.396 91.4181H109.09Z" fill="black"/>
<g opacity="0.3" clip-path="url(#clip2_12486_59498)">
<g style="mix-blend-mode:multiply">
<path d="M65.0645 130.534L72.9476 136.461L65.0645 142.389L57.1813 136.461L65.0645 130.534Z" fill="#428CFE"/>
</g>
</g>
<g opacity="0.25">
<path d="M84.2489 131.252V140.727H82.3786V133.408L80.1317 134.122V132.648L84.0476 131.252H84.2489ZM87.496 139.824C87.496 139.547 87.5913 139.315 87.7817 139.129C87.9766 138.943 88.2342 138.85 88.5546 138.85C88.8749 138.85 89.1304 138.943 89.3209 139.129C89.5157 139.315 89.6131 139.547 89.6131 139.824C89.6131 140.101 89.5157 140.333 89.3209 140.519C89.1304 140.705 88.8749 140.798 88.5546 140.798C88.2342 140.798 87.9766 140.705 87.7817 140.519C87.5913 140.333 87.496 140.101 87.496 139.824ZM97.469 130.685C97.8946 130.752 98.4399 130.791 98.8921 130.791H103.241C103.693 130.791 104.225 130.752 104.678 130.685V132.401C104.225 132.374 103.707 132.361 103.241 132.361H98.8921C98.4399 132.361 97.868 132.374 97.469 132.401V130.685ZM95.9262 134.09C96.3252 134.143 96.7907 134.17 97.203 134.17H105.914C106.194 134.17 106.779 134.143 107.125 134.09V135.819C106.792 135.792 106.287 135.779 105.914 135.779H102.709C102.629 137.149 102.337 138.266 101.858 139.197C101.392 140.128 100.368 141.152 99.1847 141.751L97.6286 140.62C98.5729 140.261 99.5039 139.503 100.036 138.718C100.581 137.894 100.807 136.896 100.86 135.779H97.203C96.8173 135.779 96.2986 135.806 95.9262 135.832V134.09ZM105.476 129.767C105.808 130.259 106.274 131.097 106.526 131.589L105.462 132.055C105.183 131.51 104.771 130.712 104.412 130.206L105.476 129.767ZM107.045 129.169C107.391 129.674 107.883 130.512 108.122 130.978L107.058 131.443C106.779 130.885 106.353 130.113 105.994 129.608L107.045 129.169ZM119.135 130.379C119.387 130.911 119.693 131.683 119.84 132.201L118.922 132.494C118.736 131.935 118.496 131.204 118.244 130.672L119.135 130.379ZM120.505 129.954C120.757 130.486 121.063 131.257 121.236 131.762L120.318 132.055C120.132 131.483 119.879 130.765 119.6 130.246L120.505 129.954ZM117.991 135.047C117.991 138.346 117.206 140.354 113.988 141.777L112.564 140.434C115.131 139.53 116.262 138.386 116.262 135.114V134.609H113.11V136.417C113.11 137.016 113.15 137.548 113.163 137.814H111.301C111.341 137.548 111.381 137.016 111.381 136.417V134.609H110.25C109.585 134.609 109.106 134.648 108.814 134.662V132.853C109.053 132.893 109.585 132.973 110.25 132.973H111.381V131.656C111.381 131.27 111.341 130.871 111.301 130.459H113.19C113.163 130.712 113.11 131.137 113.11 131.669V132.973H116.262V131.576C116.262 131.044 116.222 130.605 116.182 130.339H118.084C118.044 130.619 117.991 131.044 117.991 131.576V132.973H118.975C119.68 132.973 120.079 132.946 120.438 132.88V134.648C120.145 134.622 119.68 134.609 118.988 134.609H117.991V135.047ZM122.393 135.553C124.774 134.941 126.729 134.077 128.205 133.172C129.575 132.321 131.091 130.991 131.956 129.94L133.392 131.31C132.381 132.308 131.105 133.345 129.815 134.196V139.569C129.815 140.155 129.841 140.979 129.934 141.312H127.833C127.886 140.993 127.926 140.155 127.926 139.569V135.313C126.556 136.032 124.867 136.75 123.231 137.229L122.393 135.553ZM138.074 130.619C139.005 131.244 140.734 132.627 141.505 133.438L140.149 134.821C139.457 134.077 137.795 132.627 136.824 131.949L138.074 130.619ZM136.411 139.476C138.486 139.184 140.215 138.505 141.505 137.734C143.78 136.391 145.509 134.356 146.346 132.56L147.384 134.436C146.373 136.231 144.604 138.067 142.463 139.357C141.12 140.168 139.404 140.913 137.529 141.232L136.411 139.476ZM152.278 130.193C153.156 130.672 154.619 131.616 155.311 132.095L154.313 133.571C153.568 133.052 152.185 132.148 151.307 131.656L152.278 130.193ZM149.804 139.636C151.294 139.383 152.89 138.944 154.34 138.146C156.601 136.883 158.449 135.061 159.513 133.159L160.538 134.968C159.301 136.803 157.425 138.492 155.244 139.742C153.888 140.514 151.986 141.179 150.802 141.392L149.804 139.636ZM150.23 133.225C151.121 133.704 152.584 134.622 153.262 135.101L152.292 136.59C151.533 136.072 150.15 135.167 149.259 134.702L150.23 133.225ZM172.561 131.709C172.454 131.855 172.215 132.268 172.095 132.534C171.643 133.571 170.898 134.994 170.007 136.191C171.324 137.335 172.933 139.037 173.718 139.995L172.202 141.312C171.337 140.115 170.1 138.758 168.85 137.548C167.44 139.037 165.671 140.421 163.849 141.285L162.479 139.849C164.621 139.051 166.682 137.428 167.932 136.032C168.81 135.034 169.621 133.717 169.914 132.773H165.405C164.847 132.773 164.115 132.853 163.836 132.866V130.978C164.195 131.031 165.006 131.071 165.405 131.071H170.1C170.672 131.071 171.204 130.991 171.47 130.898L172.561 131.709ZM177.442 130.525C177.881 130.592 178.426 130.619 178.865 130.619H184.212C184.664 130.619 185.196 130.592 185.648 130.525V132.241C185.196 132.215 184.677 132.188 184.212 132.188H178.878C178.413 132.188 177.854 132.215 177.442 132.241V130.525ZM175.899 133.93C176.298 133.97 176.764 134.01 177.176 134.01H185.887C186.167 134.01 186.752 133.983 187.098 133.93V135.659C186.765 135.633 186.26 135.619 185.887 135.619H182.682C182.602 136.989 182.31 138.106 181.831 139.037C181.365 139.955 180.341 140.993 179.158 141.591L177.601 140.461C178.546 140.101 179.477 139.33 180.009 138.559C180.554 137.734 180.78 136.737 180.833 135.619H177.176C176.777 135.619 176.271 135.646 175.899 135.673V133.93ZM195.047 130.698C194.875 131.097 194.675 131.589 194.476 132.175C194.05 133.478 192.973 136.856 192.308 138.638C193.93 138.479 195.819 138.266 197.162 138.106C196.697 137.149 196.205 136.258 195.766 135.673L197.428 134.994C198.372 136.431 199.729 139.037 200.341 140.527L198.545 141.325C198.372 140.873 198.16 140.328 197.907 139.756C195.752 140.008 191.722 140.434 190.047 140.607C189.714 140.647 189.222 140.713 188.796 140.766L188.491 138.825C188.943 138.825 189.515 138.825 189.954 138.811C190.06 138.811 190.193 138.798 190.313 138.798C191.084 136.83 192.228 133.185 192.614 131.802C192.8 131.124 192.88 130.712 192.933 130.259L195.047 130.698ZM213.295 136.045C213.295 138.851 211.579 140.833 208.228 141.352L207.23 139.769C207.736 139.716 208.108 139.636 208.467 139.556C210.17 139.157 211.5 137.934 211.5 135.992C211.5 134.156 210.502 132.786 208.707 132.481C208.52 133.611 208.294 134.835 207.909 136.085C207.111 138.771 205.967 140.421 204.517 140.421C203.041 140.421 201.817 138.798 201.817 136.55C201.817 133.478 204.477 130.858 207.922 130.858C211.22 130.858 213.295 133.146 213.295 136.045ZM203.52 136.377C203.52 137.721 204.052 138.372 204.57 138.372C205.129 138.372 205.648 137.535 206.193 135.739C206.499 134.755 206.751 133.624 206.898 132.52C204.703 132.973 203.52 134.914 203.52 136.377ZM221.727 131.31V131.337C221.727 132.56 221.488 134.103 220.184 135.087C219.918 134.821 219.227 134.369 218.881 134.196C220.078 133.358 220.224 132.201 220.224 131.297V129.927H225.039V132.813C225.039 133.052 225.039 133.172 225.079 133.225C225.119 133.265 225.185 133.279 225.265 133.279H225.544C225.611 133.279 225.704 133.265 225.744 133.239C225.797 133.212 225.85 133.132 225.877 132.946C225.903 132.76 225.917 132.334 225.93 131.842C226.209 132.082 226.741 132.334 227.114 132.467C227.087 133.026 227.021 133.638 226.914 133.904C226.821 134.17 226.662 134.343 226.409 134.476C226.209 134.582 225.864 134.635 225.611 134.635H224.813C224.454 134.635 224.055 134.529 223.815 134.289C223.563 134.037 223.443 133.744 223.443 132.866V131.31H221.727ZM217.471 129.475L218.961 130.073C218.083 131.31 216.713 132.627 215.45 133.438C215.277 133.092 214.918 132.441 214.665 132.108C215.702 131.456 216.899 130.366 217.471 129.475ZM217.884 132.254L219.293 132.84C218.948 133.412 218.522 133.997 218.07 134.555V141.87H216.54V136.231C216.141 136.617 215.756 136.963 215.37 137.255C215.224 136.909 214.798 136.085 214.532 135.739C215.756 134.901 217.086 133.571 217.884 132.254ZM224.174 136.604H221.435C221.767 137.282 222.219 137.88 222.778 138.412C223.337 137.88 223.815 137.282 224.174 136.604ZM225.265 135.114L226.329 135.593C225.837 137.149 225.052 138.386 224.041 139.357C224.946 139.889 226.036 140.288 227.273 140.514C226.914 140.86 226.489 141.498 226.263 141.924C224.893 141.604 223.736 141.086 222.778 140.394C221.78 141.059 220.65 141.564 219.44 141.924C219.24 141.511 218.868 140.913 218.575 140.594C219.666 140.328 220.677 139.902 221.581 139.33C220.943 138.652 220.424 137.867 219.998 136.963L221.182 136.604H219.307V135.18H224.972L225.265 135.114ZM232.939 138.971H230.292V140.101H232.939V138.971ZM228.869 141.87V137.787H234.442V141.751H232.939V141.285H230.292V141.87H228.869ZM233.684 132.826V131.842H229.521V132.826H230.878V132.108H232.327V132.826H233.684ZM232.354 129.541V130.658H235.147V132.933H234.455V133.944H232.327V134.502H234.269V135.553H232.327V136.125H235.001V137.335H228.164V136.125H230.878V135.553H228.909V134.502H230.878V133.944H228.776V132.933H228.125V130.658H230.838V129.541H232.354ZM237.208 130.871V138.306H235.706V130.871H237.208ZM238.459 129.701H239.988V139.955C239.988 140.833 239.829 141.285 239.297 141.525C238.778 141.791 237.953 141.844 236.863 141.844C236.796 141.392 236.57 140.66 236.344 140.208C237.115 140.248 237.873 140.234 238.139 140.234C238.366 140.234 238.459 140.155 238.459 139.942V129.701Z" fill="black"/>
</g>
<g opacity="0.3">
<path d="M99.9039 159.955V166.961H99.0187V161.061L97.2338 161.712V160.913L99.7651 159.955H99.9039ZM102.617 166.492C102.617 166.342 102.663 166.216 102.756 166.114C102.852 166.009 102.989 165.956 103.167 165.956C103.346 165.956 103.482 166.009 103.574 166.114C103.67 166.216 103.718 166.342 103.718 166.492C103.718 166.639 103.67 166.763 103.574 166.865C103.482 166.967 103.346 167.018 103.167 167.018C102.989 167.018 102.852 166.967 102.756 166.865C102.663 166.763 102.617 166.639 102.617 166.492ZM108 159.955V166.961H107.115V161.061L105.33 161.712V160.913L107.862 159.955H108ZM112.926 162.747H121.824V163.541H112.926V162.747ZM125.685 166.246L126.342 166.559C125.548 167.02 124.323 167.471 123.353 167.735C123.226 167.598 122.981 167.314 122.814 167.186C123.814 166.981 124.99 166.638 125.685 166.246ZM129.664 163.364V162.708H124.754V163.364H129.664ZM129.664 164.511V163.835H124.754V164.511H129.664ZM129.664 165.667V164.981H124.754V165.667H129.664ZM130.389 162.218V166.148H124.049V162.218H130.389ZM127.969 166.647L128.537 166.265C129.615 166.598 130.781 167.02 131.497 167.333L130.752 167.725C130.115 167.412 129.047 167 127.969 166.647ZM127.42 161.287H129.39L129.439 160.679H127.498C127.469 160.895 127.44 161.101 127.42 161.287ZM124.931 160.679L124.852 161.287H126.744C126.773 161.101 126.793 160.895 126.822 160.679H124.931ZM126.94 159.601H125.078L124.999 160.17H126.881C126.91 159.974 126.92 159.787 126.94 159.601ZM129.478 160.17L129.527 159.601H127.616L127.557 160.17H129.478ZM130.203 160.121H131.526V160.728H130.154L130.066 161.777H124.098L124.235 160.728H122.794V160.121H124.313L124.451 159.121H130.282L130.203 160.121ZM132.928 163.315L132.359 163.119C132.624 162.473 132.8 161.404 132.869 160.611L133.418 160.689C133.369 161.493 133.182 162.6 132.928 163.315ZM133.77 167.706V158.758H134.496V167.706H133.77ZM134.564 160.562L135.074 160.326C135.368 160.856 135.672 161.551 135.789 161.963L135.24 162.228C135.133 161.806 134.839 161.101 134.564 160.562ZM138.866 166.677H141.316V167.373H135.338V166.677H138.141V164.227H136.064V163.551H138.141V161.522H136.71C136.514 162.11 136.289 162.62 136.024 163.041C135.877 162.943 135.554 162.786 135.378 162.708C135.946 161.855 136.338 160.542 136.563 159.209L137.269 159.327C137.171 159.836 137.053 160.346 136.916 160.826H138.141V158.798H138.866V160.826H141.081V161.522H138.866V163.551H140.866V164.227H138.866V166.677ZM150.754 163.531C150.754 165.589 149.401 166.961 147.079 167.265L146.618 166.54C146.932 166.51 147.236 166.461 147.461 166.412C148.715 166.128 149.95 165.197 149.95 163.502C149.95 162.022 149 160.797 147.334 160.66C147.206 161.571 147.02 162.571 146.746 163.482C146.148 165.501 145.374 166.53 144.462 166.53C143.59 166.53 142.718 165.53 142.718 163.913C142.718 161.787 144.609 159.925 147 159.925C149.294 159.925 150.754 161.542 150.754 163.531ZM143.482 163.845C143.482 165.079 144.051 165.628 144.492 165.628C144.952 165.628 145.472 164.972 145.971 163.315C146.216 162.502 146.412 161.571 146.52 160.669C144.639 160.905 143.482 162.512 143.482 163.845ZM157.016 165.638V166.657H158.339V165.638H157.016ZM158.339 163.462V162.463H157.016V163.462H158.339ZM158.339 165.07V164.031H157.016V165.07H158.339ZM154.752 165.873V162.894H153.488V165.873H154.752ZM161.024 166.657V167.284H157.016V167.706H156.33V163.061C156.163 163.227 155.987 163.374 155.811 163.521C155.722 163.404 155.517 163.198 155.37 163.061V166.51H153.488V167.275H152.89V164.119C152.724 164.462 152.547 164.785 152.341 165.07C152.263 164.903 152.057 164.55 151.93 164.393C152.645 163.355 153.057 161.787 153.312 160.091H152.204V159.425H155.644V160.091H153.998C153.89 160.846 153.743 161.581 153.557 162.267H155.37V162.933C156.193 162.306 156.859 161.434 157.349 160.395H156.301V161.424H155.664V159.758H157.624C157.751 159.435 157.859 159.101 157.947 158.758L158.643 158.896C158.555 159.19 158.466 159.484 158.368 159.758H160.975V161.424H160.319V160.395H158.114C157.878 160.914 157.624 161.404 157.32 161.845H158.515C158.682 161.473 158.858 161.022 158.956 160.689L159.642 160.856C159.486 161.189 159.319 161.542 159.172 161.845H160.72V162.463H159.025V163.462H160.564V164.031H159.025V165.07H160.564V165.638H159.025V166.657H161.024ZM164.18 158.788L164.866 158.994C164.582 159.699 164.248 160.395 163.866 161.032V167.686H163.17V162.1C162.837 162.571 162.475 162.992 162.122 163.355C162.043 163.198 161.838 162.816 161.71 162.649C162.68 161.718 163.621 160.268 164.18 158.788ZM165.875 159.876V161.669H169.511V159.876H165.875ZM170.775 164.197H168.453C169.099 165.226 170.089 166.216 171.03 166.726C170.873 166.853 170.638 167.118 170.511 167.304C169.638 166.736 168.698 165.716 168.031 164.648V167.716H167.306V164.678C166.62 165.756 165.64 166.736 164.689 167.284C164.562 167.108 164.346 166.843 164.18 166.706C165.189 166.206 166.228 165.236 166.885 164.197H164.464V163.531H167.306V162.316H165.189V159.219H170.236V162.316H168.031V163.531H170.775V164.197Z" fill="black"/>
<path d="M99.9039 178.627V185.633H99.0187V179.733L97.2338 180.383V179.584L99.7651 178.627H99.9039ZM102.617 185.164C102.617 185.014 102.663 184.888 102.756 184.786C102.852 184.681 102.989 184.628 103.167 184.628C103.346 184.628 103.482 184.681 103.574 184.786C103.67 184.888 103.718 185.014 103.718 185.164C103.718 185.311 103.67 185.435 103.574 185.537C103.482 185.639 103.346 185.69 103.167 185.69C102.989 185.69 102.852 185.639 102.756 185.537C102.663 185.435 102.617 185.311 102.617 185.164ZM109.656 184.905V185.633H105.096V184.996L107.378 182.455C107.659 182.143 107.876 181.878 108.029 181.661C108.185 181.441 108.294 181.245 108.354 181.073C108.418 180.897 108.45 180.718 108.45 180.537C108.45 180.307 108.402 180.1 108.307 179.915C108.214 179.726 108.077 179.576 107.895 179.465C107.713 179.353 107.493 179.297 107.235 179.297C106.925 179.297 106.667 179.358 106.46 179.479C106.255 179.597 106.102 179.763 106 179.977C105.898 180.19 105.847 180.436 105.847 180.714H104.962C104.962 180.321 105.048 179.962 105.22 179.637C105.392 179.312 105.648 179.053 105.986 178.862C106.324 178.667 106.74 178.57 107.235 178.57C107.675 178.57 108.051 178.648 108.364 178.804C108.677 178.958 108.916 179.174 109.082 179.455C109.251 179.733 109.335 180.058 109.335 180.431C109.335 180.636 109.3 180.843 109.23 181.053C109.163 181.261 109.069 181.468 108.948 181.675C108.83 181.883 108.691 182.087 108.532 182.288C108.375 182.489 108.208 182.687 108.029 182.881L106.163 184.905H109.656ZM113.144 185.164C113.144 185.014 113.191 184.888 113.283 184.786C113.379 184.681 113.516 184.628 113.695 184.628C113.873 184.628 114.009 184.681 114.101 184.786C114.197 184.888 114.245 185.014 114.245 185.164C114.245 185.311 114.197 185.435 114.101 185.537C114.009 185.639 113.873 185.69 113.695 185.69C113.516 185.69 113.379 185.639 113.283 185.537C113.191 185.435 113.144 185.311 113.144 185.164ZM120.282 178.773V179.429H115.539V178.773H117.607V177.46H118.303V178.773H120.282ZM120.322 181.556L119.714 181.899C119.528 181.38 119.028 180.586 118.548 180.017L119.116 179.723C119.606 180.282 120.126 181.046 120.322 181.556ZM116.686 179.772L117.372 179.959C117.029 180.792 116.47 181.644 115.912 182.203C115.794 182.085 115.51 181.87 115.353 181.772C115.892 181.272 116.392 180.517 116.686 179.772ZM118.567 181.429L119.283 181.576C119.097 182.213 118.861 182.801 118.587 183.34C119.077 183.781 119.498 184.222 119.773 184.574L119.312 185.172C119.057 184.819 118.675 184.398 118.234 183.967C117.607 184.957 116.813 185.76 115.853 186.358C115.765 186.221 115.51 185.917 115.353 185.79C116.333 185.231 117.127 184.447 117.715 183.467C117.274 183.075 116.803 182.683 116.372 182.35L116.803 181.85C117.195 182.144 117.627 182.497 118.048 182.85C118.254 182.409 118.43 181.938 118.567 181.429ZM124.153 179.684V180.037C124.065 184.163 123.977 185.525 123.663 185.937C123.487 186.191 123.301 186.27 122.997 186.299C122.703 186.329 122.223 186.319 121.743 186.299C121.733 186.103 121.654 185.809 121.537 185.613C122.056 185.662 122.517 185.672 122.703 185.672C122.87 185.672 122.968 185.643 123.056 185.515C123.281 185.231 123.389 183.947 123.467 180.37H122.037C121.919 182.889 121.488 185.084 119.91 186.417C119.792 186.26 119.547 186.015 119.371 185.907C120.841 184.712 121.233 182.693 121.341 180.37H120.155V179.684H121.37C121.39 178.988 121.39 178.263 121.39 177.538H122.095C122.095 178.263 122.086 178.988 122.066 179.684H124.153ZM134.1 182.801L133.561 183.261C133.091 182.85 132.121 182.262 131.356 181.87L131.866 181.458C132.611 181.821 133.591 182.399 134.1 182.801ZM133.052 179.469L133.689 179.802C133.189 180.253 132.562 180.703 132.062 181.017L131.543 180.703C132.023 180.38 132.679 179.851 133.052 179.469ZM128.113 180.047L128.387 180.223C128.642 179.9 128.906 179.508 129.093 179.194H125.692V178.538H129.347V177.44H130.073V178.538H133.816V179.194H129.553L129.808 179.292C129.504 179.714 129.142 180.164 128.828 180.507C129.102 180.703 129.367 180.899 129.573 181.076C129.965 180.625 130.327 180.174 130.602 179.782L131.18 180.057C130.602 180.782 129.837 181.634 129.132 182.311L130.817 182.222C130.631 181.958 130.435 181.703 130.239 181.478L130.768 181.242C131.249 181.781 131.788 182.507 132.003 183.006L131.445 183.3C131.376 183.144 131.278 182.948 131.16 182.752C129.916 182.84 128.671 182.918 127.73 182.987L127.632 182.369C127.848 182.36 128.103 182.35 128.367 182.34C128.622 182.095 128.897 181.821 129.171 181.527C128.789 181.193 128.22 180.782 127.75 180.478L128.113 180.047ZM127.75 180.654L127.24 181.095C126.917 180.782 126.251 180.321 125.702 180.008L126.192 179.606C126.731 179.89 127.417 180.341 127.75 180.654ZM127.819 181.566L127.956 182.115C127.182 182.477 126.378 182.869 125.721 183.153L125.359 182.565C125.986 182.34 126.907 181.948 127.819 181.566ZM130.073 182.987V183.741H134.091V184.418H130.073V186.407H129.347V184.418H125.398V183.741H129.347V182.987H130.073ZM138.246 181.703V179.655H136.188V181.703H138.246ZM136.188 184.702H138.246V182.35H136.188V184.702ZM137.011 177.411L137.795 177.558C137.628 178.038 137.452 178.577 137.285 178.998H138.912V185.358H136.188V186.133H135.521V178.998H136.619C136.766 178.528 136.942 177.871 137.011 177.411ZM143.704 178.969V179.341C143.548 183.81 143.42 185.319 143.028 185.799C142.813 186.074 142.587 186.162 142.254 186.191C141.911 186.231 141.352 186.211 140.804 186.182C140.784 185.966 140.696 185.672 140.559 185.466C141.196 185.525 141.784 185.525 142.009 185.525C142.205 185.525 142.313 185.505 142.411 185.378C142.734 185.035 142.881 183.545 143.009 179.645H140.519C140.245 180.302 139.941 180.899 139.598 181.36C139.471 181.242 139.157 181.046 139 180.948C139.657 180.086 140.186 178.734 140.5 177.391L141.196 177.558C141.078 178.038 140.941 178.508 140.774 178.969H143.704ZM142.156 183.379L141.539 183.761C141.245 183.173 140.588 182.203 140.049 181.497L140.617 181.164C141.166 181.86 141.842 182.801 142.156 183.379ZM148.859 177.852C148.771 178.204 148.634 178.802 148.477 179.371C148.987 179.292 149.516 179.175 150.016 179.008L150.035 179.743C149.516 179.89 148.898 180.017 148.252 180.106C147.771 181.487 146.899 183.183 146.115 184.241L145.361 183.849C146.174 182.899 147.007 181.331 147.458 180.184C147.164 180.204 146.87 180.213 146.586 180.213C146.223 180.213 145.811 180.204 145.439 180.184L145.39 179.449C145.753 179.498 146.174 179.518 146.586 179.518C146.938 179.518 147.311 179.498 147.693 179.469C147.84 178.92 147.977 178.302 147.997 177.773L148.859 177.852ZM148.32 184.653C148.32 185.113 148.693 185.427 149.457 185.427C150.27 185.427 150.545 184.996 150.545 184.457C150.545 184.329 150.545 184.182 150.535 184.016C150.221 183.918 149.878 183.869 149.526 183.869C148.81 183.869 148.32 184.202 148.32 184.653ZM151.172 180.88C151.152 181.282 151.152 181.585 151.162 181.938C151.172 182.301 151.211 182.938 151.231 183.545C152.074 183.849 152.76 184.329 153.269 184.761L152.848 185.427C152.426 185.055 151.897 184.614 151.26 184.3C151.27 184.457 151.27 184.594 151.27 184.712C151.27 185.496 150.77 186.133 149.555 186.133C148.477 186.133 147.595 185.692 147.595 184.721C147.595 183.82 148.448 183.251 149.555 183.251C149.888 183.251 150.212 183.281 150.515 183.349C150.476 182.546 150.427 181.576 150.408 180.88H151.172ZM153.132 181.144C152.603 180.694 151.544 180.086 150.888 179.792L151.29 179.194C151.995 179.508 153.112 180.145 153.573 180.498L153.132 181.144ZM155.925 178.91C156.248 178.949 156.68 178.969 156.993 178.969H161.825C162.06 178.969 162.354 178.959 162.55 178.949C162.54 179.175 162.52 179.478 162.52 179.714V184.77C162.52 185.123 162.55 185.564 162.56 185.721H161.678C161.687 185.613 161.687 185.407 161.697 185.172H156.905C156.503 185.172 156.062 185.192 155.798 185.211V184.32C156.052 184.349 156.474 184.378 156.885 184.378H161.697V179.753H157.003C156.64 179.753 156.15 179.772 155.925 179.782V178.91ZM166.303 178.332C166.558 178.371 166.872 178.381 167.185 178.381H171.037C171.35 178.381 171.693 178.371 171.928 178.332V179.145C171.693 179.126 171.36 179.116 171.027 179.116H167.185C166.881 179.116 166.568 179.126 166.303 179.145V178.332ZM172.644 180.919C172.595 181.007 172.536 181.135 172.516 181.203C172.252 182.173 171.811 183.193 171.086 183.986C170.057 185.113 168.832 185.692 167.577 186.035L166.97 185.339C168.361 185.055 169.586 184.427 170.419 183.545C171.017 182.918 171.409 182.085 171.585 181.38H166.382C166.146 181.38 165.774 181.389 165.421 181.409V180.586C165.784 180.625 166.117 180.645 166.382 180.645H171.546C171.772 180.645 171.977 180.625 172.085 180.566L172.644 180.919ZM181.091 181.713C181.611 182.34 182.395 183.565 182.787 184.271L182.062 184.672C181.679 183.908 180.944 182.683 180.425 182.066L181.091 181.713ZM176.995 182.036C176.583 182.879 175.662 184.124 175.113 184.721L174.437 184.271C175.084 183.663 175.927 182.497 176.309 181.703L176.995 182.036ZM181.209 177.891C181.454 178.234 181.787 178.802 181.993 179.204L181.464 179.439C181.268 179.037 180.954 178.479 180.69 178.106L181.209 177.891ZM182.365 177.607C182.62 177.969 182.983 178.547 183.169 178.91L182.64 179.145C182.424 178.724 182.12 178.195 181.846 177.832L182.365 177.607ZM179.151 178.077C179.122 178.214 179.092 178.567 179.092 178.783V179.782H181.679C181.915 179.782 182.238 179.763 182.483 179.733V180.547C182.218 180.527 181.924 180.527 181.689 180.527H179.092V185.27C179.092 185.79 178.837 186.054 178.249 186.054C177.838 186.054 177.25 186.025 176.858 185.986L176.789 185.202C177.211 185.28 177.661 185.319 177.916 185.319C178.181 185.319 178.298 185.202 178.298 184.947V180.527H175.574C175.28 180.527 175.006 180.537 174.741 180.556V179.733C175.015 179.763 175.26 179.782 175.574 179.782H178.298V178.773C178.298 178.557 178.269 178.224 178.23 178.077H179.151ZM185.815 185.319C185.884 185.162 185.913 185.035 185.913 184.839V179.233C185.913 178.979 185.864 178.538 185.825 178.342H186.795C186.756 178.587 186.726 178.949 186.726 179.233V184.79C188.598 184.32 190.872 183.026 192.087 181.448L192.528 182.134C191.254 183.712 189.235 184.927 186.795 185.633C186.687 185.662 186.54 185.711 186.383 185.809L185.815 185.319ZM194.439 181.389C194.733 181.409 195.252 181.438 195.801 181.438H201.172C201.662 181.438 202.014 181.409 202.23 181.389V182.35C202.034 182.34 201.622 182.301 201.181 182.301H195.801C195.262 182.301 194.743 182.32 194.439 182.35V181.389ZM205.998 178.106C206.576 178.43 207.703 179.175 208.124 179.488L207.664 180.155C207.193 179.802 206.135 179.096 205.557 178.763L205.998 178.106ZM204.528 185.113C205.606 184.927 206.821 184.535 207.811 183.967C209.438 183.036 210.731 181.762 211.525 180.38L211.995 181.184C211.153 182.507 209.79 183.771 208.232 184.692C207.242 185.26 205.89 185.721 204.979 185.907L204.528 185.113ZM204.518 180.311C205.096 180.625 206.243 181.321 206.674 181.634L206.223 182.32C205.743 181.968 204.675 181.282 204.087 180.978L204.518 180.311ZM215.033 180.253C215.22 180.272 215.778 180.292 216.033 180.292H219.826C220.041 180.292 220.296 180.282 220.423 180.272C220.414 180.38 220.414 180.586 220.414 180.772V185.652C220.414 185.809 220.423 186.044 220.433 186.182H219.659C219.669 186.093 219.669 185.946 219.669 185.79H215.729C215.416 185.79 215.073 185.809 214.916 185.809V185.025C215.073 185.045 215.386 185.064 215.719 185.064H219.669V183.32H216.131C215.788 183.32 215.445 183.33 215.249 183.34V182.585C215.435 182.595 215.788 182.614 216.121 182.614H219.669V180.988H216.033C215.778 180.988 215.21 181.007 215.033 181.017V180.253ZM224.873 178.449C225.568 178.91 226.823 179.929 227.372 180.478L226.754 181.095C226.264 180.586 225.039 179.537 224.314 179.047L224.873 178.449ZM224.03 185.015C225.745 184.761 227.019 184.163 227.95 183.585C229.459 182.634 230.655 181.184 231.223 179.978L231.693 180.811C231.027 182.036 229.88 183.369 228.401 184.3C227.421 184.917 226.186 185.515 224.549 185.819L224.03 185.015Z" fill="black"/>
</g>
</g>
</g>
<defs>
<clipPath id="clip0_12486_59498">
<rect width="310" height="186" fill="white"/>
</clipPath>
<clipPath id="clip1_12486_59498">
<path d="M24 22C24 18.6863 26.6863 16 30 16H680C683.314 16 686 18.6863 686 22V336.457C686 339.771 683.314 342.457 680 342.457H30C26.6863 342.457 24 339.771 24 336.457V22Z" fill="white"/>
</clipPath>
<clipPath id="clip2_12486_59498">
<rect width="17.2354" height="21.8122" fill="white" transform="translate(56 123.625)"/>
</clipPath>
</defs>
</svg>
