<svg width="310" height="186" viewBox="0 0 310 186" fill="none" xmlns="http://www.w3.org/2000/svg">
<g clip-path="url(#clip0_89_37731)">
<rect width="310" height="186" fill="var(--web-system-color-articleFigure-background, #F5F5F5)"/>
<rect width="310" height="186" fill="var(--web-system-color-articleFigure-background, #F5F5F5)"/>
<g clip-path="url(#clip1_89_37731)">
<path d="M24 22C24 18.6863 26.6863 16 30 16H680C683.314 16 686 18.6863 686 22V336.457C686 339.771 683.314 342.457 680 342.457H30C26.6863 342.457 24 339.771 24 336.457V22Z" fill="white"/>
<rect x="24" y="15.7266" width="295" height="14" fill="#E6E6E6"/>
<circle cx="33.5" cy="23.2266" r="3.5" fill="#E5B2B2"/>
<circle cx="43.5" cy="23.2266" r="3.5" fill="#E4CA8E"/>
<circle cx="53.5" cy="23.2266" r="3.5" fill="#B3D4A6"/>
<path d="M60.7551 86.6868V105.1H58.3143V86.6868H60.7551ZM67.1795 94.3379V105.1H64.8399V91.4166H67.053L67.1795 94.3379ZM66.623 97.7398L65.6493 97.7019C65.6577 96.7661 65.7968 95.9019 66.0666 95.1094C66.3364 94.3084 66.7158 93.6129 67.2048 93.0227C67.6938 92.4325 68.2755 91.9773 68.95 91.6569C69.6329 91.3281 70.3875 91.1637 71.2137 91.1637C71.8882 91.1637 72.4952 91.2564 73.0348 91.4419C73.5744 91.6189 74.0339 91.9056 74.4133 92.3019C74.8011 92.6981 75.0962 93.2124 75.2985 93.8447C75.5009 94.4686 75.6021 95.2316 75.6021 96.1337V105.1H73.2498V96.1084C73.2498 95.3918 73.1444 94.8185 72.9336 94.3885C72.7229 93.9501 72.4151 93.634 72.0104 93.44C71.6058 93.2377 71.1083 93.1365 70.5182 93.1365C69.9364 93.1365 69.4053 93.2588 68.9247 93.5033C68.4526 93.7478 68.0437 94.085 67.698 94.515C67.3608 94.945 67.0952 95.4382 66.9013 95.9946C66.7158 96.5426 66.623 97.1244 66.623 97.7398ZM87.7806 102.444V85.6751H90.1329V105.1H87.983L87.7806 102.444ZM78.574 98.4101V98.1445C78.574 97.0991 78.7004 96.1506 78.9534 95.2991C79.2147 94.4391 79.5815 93.7014 80.0536 93.0859C80.5342 92.4705 81.1033 91.9983 81.7609 91.6695C82.4269 91.3323 83.1689 91.1637 83.9867 91.1637C84.8466 91.1637 85.597 91.3154 86.2377 91.6189C86.8869 91.914 87.4349 92.3482 87.8818 92.9215C88.3371 93.4864 88.6954 94.1693 88.9567 94.9703C89.2181 95.7712 89.3994 96.6775 89.5005 97.6893V98.8527C89.4078 99.856 89.2265 100.758 88.9567 101.559C88.6954 102.36 88.3371 103.043 87.8818 103.608C87.4349 104.173 86.8869 104.607 86.2377 104.91C85.5886 105.205 84.8298 105.353 83.9614 105.353C83.1604 105.353 82.4269 105.18 81.7609 104.835C81.1033 104.489 80.5342 104.004 80.0536 103.38C79.5815 102.756 79.2147 102.023 78.9534 101.18C78.7004 100.328 78.574 99.405 78.574 98.4101ZM80.9262 98.1445V98.4101C80.9262 99.093 80.9937 99.7338 81.1286 100.332C81.2719 100.931 81.4911 101.458 81.7862 101.913C82.0813 102.368 82.4564 102.727 82.9117 102.988C83.367 103.241 83.9108 103.368 84.5431 103.368C85.3188 103.368 85.9553 103.203 86.4527 102.874C86.9586 102.546 87.3633 102.111 87.6668 101.572C87.9703 101.032 88.2064 100.446 88.375 99.8139V96.7661C88.2738 96.3024 88.1263 95.8555 87.9324 95.4255C87.7469 94.9871 87.5024 94.5993 87.1989 94.2621C86.9038 93.9164 86.537 93.6424 86.0986 93.44C85.6687 93.2377 85.1586 93.1365 84.5684 93.1365C83.9277 93.1365 83.3754 93.2714 82.9117 93.5412C82.4564 93.8026 82.0813 94.1651 81.7862 94.6288C81.4911 95.0841 81.2719 95.6152 81.1286 96.2223C80.9937 96.8209 80.9262 97.4616 80.9262 98.1445ZM99.4533 105.353C98.5006 105.353 97.6364 105.193 96.8608 104.872C96.0936 104.544 95.4317 104.084 94.8753 103.494C94.3273 102.904 93.9057 102.204 93.6106 101.395C93.3156 100.585 93.168 99.7 93.168 98.7389V98.2078C93.168 97.0949 93.3324 96.1042 93.6612 95.2358C93.99 94.359 94.4369 93.6171 95.0018 93.0101C95.5666 92.403 96.2074 91.9435 96.924 91.6316C97.6407 91.3196 98.3826 91.1637 99.1498 91.1637C100.128 91.1637 100.971 91.3323 101.679 91.6695C102.396 92.0068 102.982 92.4789 103.437 93.0859C103.892 93.6845 104.229 94.3927 104.449 95.2105C104.668 96.0199 104.777 96.9052 104.777 97.8663V98.916H94.5591V97.0063H102.438V96.8293C102.404 96.2223 102.278 95.6321 102.058 95.0588C101.848 94.4855 101.51 94.0133 101.047 93.6424C100.583 93.2714 99.9507 93.0859 99.1498 93.0859C98.6187 93.0859 98.1297 93.1998 97.6828 93.4274C97.236 93.6466 96.8524 93.9754 96.532 94.4138C96.2116 94.8522 95.9629 95.3876 95.7858 96.0199C95.6088 96.6522 95.5203 97.3815 95.5203 98.2078V98.7389C95.5203 99.3881 95.6088 99.9993 95.7858 100.573C95.9713 101.138 96.2369 101.635 96.5826 102.065C96.9367 102.495 97.3624 102.832 97.8599 103.077C98.3657 103.321 98.939 103.443 99.5798 103.443C100.406 103.443 101.106 103.275 101.679 102.938C102.252 102.6 102.754 102.149 103.184 101.584L104.6 102.71C104.305 103.157 103.93 103.583 103.475 103.987C103.02 104.392 102.459 104.721 101.793 104.974C101.135 105.227 100.355 105.353 99.4533 105.353ZM109.09 91.4166L112.087 96.3993L115.122 91.4166H117.867L113.39 98.1698L118.006 105.1H115.299L112.138 99.9656L108.976 105.1H106.257L110.86 98.1698L106.396 91.4166H109.09Z" fill="black"/>
<g opacity="0.3">
<g clip-path="url(#clip2_89_37731)">
<g style="mix-blend-mode:multiply">
<path d="M65.0664 130.534L72.9496 136.461L65.0664 142.389L57.1832 136.461L65.0664 130.534Z" fill="var(--web-system-color-mvShape-foreground-arc-index, #428CFE)"/>
</g>
</g>
<path d="M84.2499 131.25V140.725H82.3796V133.406L80.1326 134.121V132.646L84.0486 131.25H84.2499ZM87.497 139.822C87.497 139.545 87.5922 139.314 87.7827 139.128C87.9776 138.941 88.2352 138.848 88.5555 138.848C88.8759 138.848 89.1313 138.941 89.3218 139.128C89.5167 139.314 89.6141 139.545 89.6141 139.822C89.6141 140.099 89.5167 140.331 89.3218 140.517C89.1313 140.703 88.8759 140.797 88.5555 140.797C88.2352 140.797 87.9776 140.703 87.7827 140.517C87.5922 140.331 87.497 140.099 87.497 139.822ZM97.4699 130.684C97.8955 130.75 98.4408 130.79 98.893 130.79H103.242C103.694 130.79 104.226 130.75 104.679 130.684V132.399C104.226 132.373 103.708 132.359 103.242 132.359H98.893C98.4408 132.359 97.8689 132.373 97.4699 132.399V130.684ZM95.9271 134.088C96.3261 134.142 96.7916 134.168 97.2039 134.168H105.915C106.195 134.168 106.78 134.142 107.126 134.088V135.817C106.793 135.791 106.288 135.777 105.915 135.777H102.71C102.63 137.147 102.338 138.265 101.859 139.196C101.393 140.127 100.369 141.151 99.1856 141.749L97.6295 140.619C98.5738 140.26 99.5048 139.501 100.037 138.717C100.582 137.892 100.808 136.895 100.861 135.777H97.2039C96.8182 135.777 96.2995 135.804 95.9271 135.831V134.088ZM105.477 129.766C105.809 130.258 106.275 131.096 106.527 131.588L105.463 132.053C105.184 131.508 104.772 130.71 104.413 130.205L105.477 129.766ZM107.046 129.167C107.392 129.673 107.884 130.511 108.123 130.976L107.059 131.442C106.78 130.883 106.354 130.112 105.995 129.606L107.046 129.167ZM119.136 130.378C119.388 130.91 119.694 131.681 119.841 132.2L118.923 132.492C118.737 131.934 118.497 131.202 118.245 130.67L119.136 130.378ZM120.506 129.952C120.758 130.484 121.064 131.255 121.237 131.761L120.319 132.053C120.133 131.482 119.88 130.763 119.601 130.245L120.506 129.952ZM117.992 135.046C117.992 138.344 117.207 140.353 113.989 141.776L112.565 140.432C115.132 139.528 116.263 138.384 116.263 135.112V134.607H113.111V136.416C113.111 137.014 113.151 137.546 113.164 137.812H111.302C111.342 137.546 111.382 137.014 111.382 136.416V134.607H110.251C109.586 134.607 109.107 134.647 108.815 134.66V132.851C109.054 132.891 109.586 132.971 110.251 132.971H111.382V131.654C111.382 131.269 111.342 130.87 111.302 130.457H113.191C113.164 130.71 113.111 131.136 113.111 131.668V132.971H116.263V131.575C116.263 131.043 116.223 130.604 116.183 130.338H118.085C118.045 130.617 117.992 131.043 117.992 131.575V132.971H118.976C119.681 132.971 120.08 132.945 120.439 132.878V134.647C120.146 134.62 119.681 134.607 118.989 134.607H117.992V135.046ZM122.394 135.551C124.775 134.94 126.73 134.075 128.206 133.171C129.576 132.319 131.092 130.989 131.957 129.939L133.393 131.309C132.382 132.306 131.106 133.344 129.816 134.195V139.568C129.816 140.153 129.842 140.978 129.935 141.31H127.834C127.887 140.991 127.927 140.153 127.927 139.568V135.312C126.557 136.03 124.868 136.748 123.232 137.227L122.394 135.551ZM138.075 130.617C139.006 131.242 140.735 132.625 141.506 133.437L140.15 134.82C139.458 134.075 137.796 132.625 136.825 131.947L138.075 130.617ZM136.412 139.475C138.487 139.182 140.216 138.504 141.506 137.733C143.781 136.389 145.51 134.354 146.347 132.559L147.385 134.434C146.374 136.23 144.605 138.065 142.464 139.355C141.121 140.166 139.405 140.911 137.53 141.23L136.412 139.475ZM152.279 130.191C153.157 130.67 154.62 131.615 155.312 132.093L154.314 133.57C153.569 133.051 152.186 132.147 151.308 131.654L152.279 130.191ZM149.805 139.634C151.295 139.382 152.891 138.943 154.341 138.145C156.602 136.881 158.45 135.059 159.514 133.157L160.539 134.966C159.302 136.802 157.426 138.491 155.245 139.741C153.889 140.512 151.987 141.177 150.803 141.39L149.805 139.634ZM150.231 133.224C151.122 133.703 152.585 134.62 153.263 135.099L152.293 136.589C151.534 136.07 150.151 135.166 149.26 134.7L150.231 133.224ZM172.562 131.708C172.455 131.854 172.216 132.266 172.096 132.532C171.644 133.57 170.899 134.993 170.008 136.19C171.325 137.334 172.934 139.036 173.719 139.994L172.203 141.31C171.338 140.113 170.101 138.757 168.851 137.546C167.441 139.036 165.672 140.419 163.85 141.284L162.48 139.847C164.622 139.049 166.683 137.427 167.933 136.03C168.811 135.033 169.622 133.716 169.915 132.772H165.406C164.848 132.772 164.116 132.851 163.837 132.865V130.976C164.196 131.029 165.007 131.069 165.406 131.069H170.101C170.673 131.069 171.205 130.989 171.471 130.896L172.562 131.708ZM177.443 130.524C177.882 130.59 178.427 130.617 178.866 130.617H184.213C184.665 130.617 185.197 130.59 185.649 130.524V132.24C185.197 132.213 184.678 132.186 184.213 132.186H178.879C178.414 132.186 177.855 132.213 177.443 132.24V130.524ZM175.9 133.929C176.299 133.969 176.765 134.009 177.177 134.009H185.888C186.168 134.009 186.753 133.982 187.099 133.929V135.658C186.766 135.631 186.261 135.618 185.888 135.618H182.683C182.603 136.988 182.311 138.105 181.832 139.036C181.366 139.954 180.342 140.991 179.159 141.59L177.602 140.459C178.547 140.1 179.478 139.329 180.01 138.557C180.555 137.733 180.781 136.735 180.834 135.618H177.177C176.778 135.618 176.272 135.644 175.9 135.671V133.929ZM195.048 130.697C194.875 131.096 194.676 131.588 194.476 132.173C194.051 133.477 192.974 136.855 192.309 138.637C193.931 138.477 195.82 138.265 197.163 138.105C196.698 137.147 196.205 136.256 195.767 135.671L197.429 134.993C198.373 136.429 199.73 139.036 200.342 140.526L198.546 141.324C198.373 140.871 198.161 140.326 197.908 139.754C195.753 140.007 191.723 140.432 190.048 140.605C189.715 140.645 189.223 140.712 188.797 140.765L188.491 138.823C188.944 138.823 189.516 138.823 189.954 138.81C190.061 138.81 190.194 138.797 190.314 138.797C191.085 136.828 192.229 133.184 192.614 131.801C192.801 131.122 192.88 130.71 192.934 130.258L195.048 130.697ZM213.296 136.043C213.296 138.85 211.58 140.831 208.229 141.35L207.231 139.767C207.737 139.714 208.109 139.634 208.468 139.555C210.17 139.156 211.5 137.932 211.5 135.99C211.5 134.155 210.503 132.785 208.707 132.479C208.521 133.61 208.295 134.833 207.909 136.083C207.111 138.77 205.968 140.419 204.518 140.419C203.042 140.419 201.818 138.797 201.818 136.549C201.818 133.477 204.478 130.856 207.923 130.856C211.221 130.856 213.296 133.144 213.296 136.043ZM203.52 136.376C203.52 137.719 204.052 138.371 204.571 138.371C205.13 138.371 205.648 137.533 206.194 135.738C206.5 134.753 206.752 133.623 206.899 132.519C204.704 132.971 203.52 134.913 203.52 136.376ZM221.728 131.309V131.335C221.728 132.559 221.489 134.102 220.185 135.086C219.919 134.82 219.228 134.368 218.882 134.195C220.079 133.357 220.225 132.2 220.225 131.295V129.925H225.04V132.812C225.04 133.051 225.04 133.171 225.08 133.224C225.12 133.264 225.186 133.277 225.266 133.277H225.545C225.612 133.277 225.705 133.264 225.745 133.237C225.798 133.211 225.851 133.131 225.878 132.945C225.904 132.758 225.918 132.333 225.931 131.841C226.21 132.08 226.742 132.333 227.115 132.466C227.088 133.024 227.022 133.636 226.915 133.902C226.822 134.168 226.662 134.341 226.41 134.474C226.21 134.58 225.864 134.634 225.612 134.634H224.814C224.455 134.634 224.056 134.527 223.816 134.288C223.564 134.035 223.444 133.743 223.444 132.865V131.309H221.728ZM217.472 129.473L218.962 130.072C218.084 131.309 216.714 132.625 215.451 133.437C215.278 133.091 214.919 132.439 214.666 132.107C215.703 131.455 216.9 130.364 217.472 129.473ZM217.884 132.253L219.294 132.838C218.948 133.41 218.523 133.995 218.071 134.554V141.869H216.541V136.23C216.142 136.615 215.756 136.961 215.371 137.254C215.224 136.908 214.799 136.083 214.533 135.738C215.756 134.9 217.086 133.57 217.884 132.253ZM224.175 136.602H221.436C221.768 137.28 222.22 137.879 222.779 138.411C223.337 137.879 223.816 137.28 224.175 136.602ZM225.266 135.112L226.33 135.591C225.838 137.147 225.053 138.384 224.042 139.355C224.947 139.887 226.037 140.286 227.274 140.512C226.915 140.858 226.49 141.496 226.263 141.922C224.894 141.603 223.736 141.084 222.779 140.393C221.781 141.058 220.651 141.563 219.441 141.922C219.241 141.51 218.869 140.911 218.576 140.592C219.667 140.326 220.677 139.9 221.582 139.329C220.943 138.65 220.425 137.866 219.999 136.961L221.183 136.602H219.308V135.179H224.973L225.266 135.112ZM232.94 138.969H230.293V140.1H232.94V138.969ZM228.87 141.869V137.786H234.443V141.749H232.94V141.284H230.293V141.869H228.87ZM233.685 132.825V131.841H229.522V132.825H230.879V132.107H232.328V132.825H233.685ZM232.355 129.54V130.657H235.148V132.931H234.456V133.942H232.328V134.501H234.27V135.551H232.328V136.123H235.002V137.334H228.165V136.123H230.879V135.551H228.91V134.501H230.879V133.942H228.777V132.931H228.125V130.657H230.839V129.54H232.355ZM237.209 130.87V138.304H235.706V130.87H237.209ZM238.46 129.699H239.989V139.954C239.989 140.831 239.829 141.284 239.297 141.523C238.779 141.789 237.954 141.842 236.864 141.842C236.797 141.39 236.571 140.659 236.345 140.206C237.116 140.246 237.874 140.233 238.14 140.233C238.366 140.233 238.46 140.153 238.46 139.94V129.699Z" fill="black"/>
<path d="M99.9063 159.952V166.958H99.0211V161.057L97.2362 161.708V160.909L99.7676 159.952H99.9063ZM102.62 166.489C102.62 166.339 102.666 166.213 102.758 166.111C102.854 166.005 102.991 165.953 103.17 165.953C103.348 165.953 103.484 166.005 103.577 166.111C103.672 166.213 103.72 166.339 103.72 166.489C103.72 166.635 103.672 166.76 103.577 166.862C103.484 166.964 103.348 167.015 103.17 167.015C102.991 167.015 102.854 166.964 102.758 166.862C102.666 166.76 102.62 166.635 102.62 166.489ZM108.003 159.952V166.958H107.118V161.057L105.333 161.708V160.909L107.864 159.952H108.003ZM112.928 162.744H121.827V163.537H112.928V162.744ZM125.688 166.242L126.344 166.556C125.551 167.016 124.326 167.467 123.355 167.732C123.228 167.595 122.983 167.31 122.816 167.183C123.816 166.977 124.992 166.634 125.688 166.242ZM129.667 163.361V162.704H124.757V163.361H129.667ZM129.667 164.508V163.831H124.757V164.508H129.667ZM129.667 165.664V164.978H124.757V165.664H129.667ZM130.392 162.214V166.144H124.051V162.214H130.392ZM127.971 166.644L128.54 166.262C129.618 166.595 130.784 167.016 131.499 167.33L130.754 167.722C130.117 167.408 129.049 166.997 127.971 166.644ZM127.422 161.283H129.392L129.441 160.676H127.501C127.471 160.891 127.442 161.097 127.422 161.283ZM124.933 160.676L124.855 161.283H126.746C126.776 161.097 126.795 160.891 126.825 160.676H124.933ZM126.942 159.598H125.08L125.002 160.166H126.883C126.913 159.97 126.923 159.784 126.942 159.598ZM129.48 160.166L129.529 159.598H127.618L127.56 160.166H129.48ZM130.206 160.117H131.529V160.725H130.157L130.068 161.773H124.1L124.237 160.725H122.797V160.117H124.316L124.453 159.118H130.284L130.206 160.117ZM132.93 163.312L132.362 163.116C132.626 162.469 132.803 161.401 132.871 160.607L133.42 160.686C133.371 161.489 133.185 162.597 132.93 163.312ZM133.773 167.702V158.755H134.498V167.702H133.773ZM134.567 160.558L135.076 160.323C135.37 160.852 135.674 161.548 135.792 161.96L135.243 162.224C135.135 161.803 134.841 161.097 134.567 160.558ZM138.869 166.673H141.319V167.369H135.341V166.673H138.144V164.223H136.066V163.547H138.144V161.519H136.713C136.517 162.107 136.291 162.616 136.027 163.038C135.88 162.94 135.556 162.783 135.38 162.704C135.948 161.852 136.34 160.539 136.566 159.206L137.271 159.323C137.173 159.833 137.056 160.343 136.919 160.823H138.144V158.794H138.869V160.823H141.084V161.519H138.869V163.547H140.868V164.223H138.869V166.673ZM150.756 163.528C150.756 165.586 149.404 166.958 147.081 167.261L146.621 166.536C146.934 166.507 147.238 166.458 147.463 166.409C148.718 166.125 149.953 165.194 149.953 163.498C149.953 162.018 149.002 160.793 147.336 160.656C147.209 161.568 147.022 162.567 146.748 163.479C146.15 165.497 145.376 166.526 144.465 166.526C143.592 166.526 142.72 165.527 142.72 163.91C142.72 161.783 144.612 159.921 147.003 159.921C149.296 159.921 150.756 161.538 150.756 163.528ZM143.485 163.841C143.485 165.076 144.053 165.625 144.494 165.625C144.955 165.625 145.474 164.968 145.974 163.312C146.219 162.499 146.415 161.568 146.523 160.666C144.641 160.901 143.485 162.508 143.485 163.841ZM157.018 165.635V166.654H158.341V165.635H157.018ZM158.341 163.459V162.459H157.018V163.459H158.341ZM158.341 165.066V164.027H157.018V165.066H158.341ZM154.755 165.87V162.891H153.49V165.87H154.755ZM161.027 166.654V167.281H157.018V167.702H156.332V163.057C156.166 163.224 155.989 163.371 155.813 163.518C155.725 163.4 155.519 163.194 155.372 163.057V166.507H153.49V167.271H152.893V164.116C152.726 164.459 152.55 164.782 152.344 165.066C152.265 164.9 152.06 164.547 151.932 164.39C152.648 163.351 153.059 161.783 153.314 160.088H152.207V159.421H155.646V160.088H154C153.892 160.842 153.745 161.577 153.559 162.263H155.372V162.93C156.195 162.303 156.862 161.43 157.352 160.392H156.303V161.421H155.666V159.755H157.626C157.753 159.431 157.861 159.098 157.949 158.755L158.645 158.892C158.557 159.186 158.469 159.48 158.371 159.755H160.978V161.421H160.321V160.392H158.116C157.881 160.911 157.626 161.401 157.322 161.842H158.518C158.684 161.47 158.861 161.019 158.959 160.686L159.645 160.852C159.488 161.185 159.321 161.538 159.174 161.842H160.723V162.459H159.027V163.459H160.566V164.027H159.027V165.066H160.566V165.635H159.027V166.654H161.027ZM164.182 158.784L164.868 158.99C164.584 159.696 164.251 160.392 163.869 161.029V167.683H163.173V162.097C162.84 162.567 162.477 162.989 162.124 163.351C162.046 163.194 161.84 162.812 161.713 162.646C162.683 161.715 163.624 160.264 164.182 158.784ZM165.878 159.872V161.666H169.513V159.872H165.878ZM170.778 164.194H168.455C169.102 165.223 170.092 166.213 171.032 166.722C170.876 166.85 170.64 167.114 170.513 167.301C169.641 166.732 168.7 165.713 168.034 164.645V167.712H167.308V164.674C166.622 165.752 165.642 166.732 164.692 167.281C164.564 167.105 164.349 166.84 164.182 166.703C165.192 166.203 166.23 165.233 166.887 164.194H164.466V163.528H167.308V162.312H165.192V159.216H170.239V162.312H168.034V163.528H170.778V164.194Z" fill="black"/>
<path d="M99.9063 178.627V185.632H99.0211V179.732L97.2362 180.383V179.584L99.7676 178.627H99.9063ZM102.62 185.163C102.62 185.013 102.666 184.887 102.758 184.785C102.854 184.68 102.991 184.627 103.17 184.627C103.348 184.627 103.484 184.68 103.577 184.785C103.672 184.887 103.72 185.013 103.72 185.163C103.72 185.31 103.672 185.435 103.577 185.537C103.484 185.639 103.348 185.69 103.17 185.69C102.991 185.69 102.854 185.639 102.758 185.537C102.666 185.435 102.62 185.31 102.62 185.163ZM109.658 184.905V185.632H105.098V184.996L107.381 182.455C107.661 182.142 107.878 181.878 108.032 181.661C108.188 181.441 108.296 181.244 108.357 181.072C108.421 180.897 108.453 180.718 108.453 180.536C108.453 180.306 108.405 180.099 108.309 179.914C108.217 179.726 108.079 179.576 107.898 179.464C107.716 179.353 107.496 179.297 107.237 179.297C106.928 179.297 106.669 179.357 106.462 179.479C106.258 179.597 106.105 179.763 106.003 179.976C105.901 180.19 105.85 180.436 105.85 180.713H104.964C104.964 180.321 105.05 179.962 105.223 179.637C105.395 179.311 105.65 179.053 105.988 178.861C106.326 178.667 106.743 178.569 107.237 178.569C107.677 178.569 108.054 178.648 108.367 178.804C108.679 178.957 108.918 179.174 109.084 179.455C109.253 179.732 109.338 180.058 109.338 180.431C109.338 180.635 109.303 180.842 109.233 181.053C109.166 181.26 109.072 181.468 108.95 181.675C108.832 181.882 108.693 182.087 108.534 182.288C108.378 182.488 108.21 182.686 108.032 182.881L106.165 184.905H109.658ZM113.147 185.163C113.147 185.013 113.193 184.887 113.286 184.785C113.381 184.68 113.519 184.627 113.697 184.627C113.876 184.627 114.011 184.68 114.104 184.785C114.2 184.887 114.247 185.013 114.247 185.163C114.247 185.31 114.2 185.435 114.104 185.537C114.011 185.639 113.876 185.69 113.697 185.69C113.519 185.69 113.381 185.639 113.286 185.537C113.193 185.435 113.147 185.31 113.147 185.163ZM120.285 178.772V179.429H115.542V178.772H117.609V177.459H118.305V178.772H120.285ZM120.324 181.556L119.716 181.899C119.53 181.379 119.03 180.585 118.55 180.017L119.119 179.723C119.609 180.282 120.128 181.046 120.324 181.556ZM116.688 179.772L117.374 179.958C117.031 180.791 116.473 181.644 115.914 182.202C115.796 182.085 115.512 181.869 115.355 181.771C115.894 181.271 116.394 180.517 116.688 179.772ZM118.57 181.428L119.285 181.575C119.099 182.212 118.864 182.8 118.589 183.339C119.079 183.78 119.501 184.221 119.775 184.574L119.315 185.172C119.06 184.819 118.678 184.398 118.237 183.966C117.609 184.956 116.816 185.76 115.855 186.358C115.767 186.22 115.512 185.917 115.355 185.789C116.335 185.231 117.129 184.447 117.717 183.467C117.276 183.075 116.806 182.683 116.375 182.349L116.806 181.85C117.198 182.144 117.629 182.496 118.05 182.849C118.256 182.408 118.433 181.938 118.57 181.428ZM124.156 179.684V180.037C124.068 184.162 123.979 185.525 123.666 185.936C123.489 186.191 123.303 186.269 122.999 186.299C122.705 186.328 122.225 186.318 121.745 186.299C121.735 186.103 121.657 185.809 121.539 185.613C122.059 185.662 122.519 185.672 122.705 185.672C122.872 185.672 122.97 185.642 123.058 185.515C123.284 185.231 123.391 183.947 123.47 180.37H122.039C121.921 182.888 121.49 185.084 119.912 186.416C119.795 186.26 119.55 186.015 119.373 185.907C120.843 184.711 121.235 182.692 121.343 180.37H120.157V179.684H121.373C121.392 178.988 121.392 178.263 121.392 177.538H122.098C122.098 178.263 122.088 178.988 122.068 179.684H124.156ZM134.103 182.8L133.564 183.261C133.093 182.849 132.123 182.261 131.359 181.869L131.868 181.458C132.613 181.82 133.593 182.398 134.103 182.8ZM133.054 179.468L133.691 179.801C133.191 180.252 132.564 180.703 132.064 181.017L131.545 180.703C132.025 180.38 132.682 179.85 133.054 179.468ZM128.115 180.046L128.389 180.223C128.644 179.899 128.909 179.507 129.095 179.194H125.694V178.537H129.35V177.44H130.075V178.537H133.819V179.194H129.556L129.81 179.292C129.507 179.713 129.144 180.164 128.83 180.507C129.105 180.703 129.369 180.899 129.575 181.075C129.967 180.625 130.33 180.174 130.604 179.782L131.182 180.056C130.604 180.781 129.84 181.634 129.134 182.31L130.82 182.222C130.634 181.957 130.438 181.703 130.242 181.477L130.771 181.242C131.251 181.781 131.79 182.506 132.006 183.006L131.447 183.3C131.378 183.143 131.28 182.947 131.163 182.751C129.918 182.839 128.674 182.918 127.733 182.986L127.635 182.369C127.85 182.359 128.105 182.349 128.37 182.34C128.625 182.095 128.899 181.82 129.173 181.526C128.791 181.193 128.223 180.781 127.752 180.478L128.115 180.046ZM127.752 180.654L127.243 181.095C126.919 180.781 126.253 180.321 125.704 180.007L126.194 179.605C126.733 179.89 127.419 180.34 127.752 180.654ZM127.821 181.565L127.958 182.114C127.184 182.477 126.38 182.869 125.724 183.153L125.361 182.565C125.988 182.34 126.91 181.948 127.821 181.565ZM130.075 182.986V183.741H134.093V184.417H130.075V186.407H129.35V184.417H125.4V183.741H129.35V182.986H130.075ZM138.248 181.703V179.654H136.19V181.703H138.248ZM136.19 184.701H138.248V182.349H136.19V184.701ZM137.013 177.41L137.797 177.557C137.631 178.037 137.454 178.576 137.288 178.998H138.915V185.358H136.19V186.132H135.524V178.998H136.621C136.768 178.527 136.945 177.871 137.013 177.41ZM143.707 178.968V179.341C143.55 183.81 143.423 185.319 143.031 185.799C142.815 186.073 142.59 186.162 142.256 186.191C141.913 186.23 141.355 186.211 140.806 186.181C140.786 185.966 140.698 185.672 140.561 185.466C141.198 185.525 141.786 185.525 142.011 185.525C142.207 185.525 142.315 185.505 142.413 185.378C142.737 185.035 142.884 183.545 143.011 179.645H140.522C140.247 180.301 139.944 180.899 139.601 181.36C139.473 181.242 139.16 181.046 139.003 180.948C139.659 180.086 140.189 178.733 140.502 177.391L141.198 177.557C141.08 178.037 140.943 178.508 140.777 178.968H143.707ZM142.158 183.378L141.541 183.761C141.247 183.173 140.59 182.202 140.051 181.497L140.62 181.164C141.169 181.859 141.845 182.8 142.158 183.378ZM148.862 177.851C148.773 178.204 148.636 178.802 148.479 179.37C148.989 179.292 149.518 179.174 150.018 179.008L150.038 179.743C149.518 179.89 148.901 180.017 148.254 180.105C147.774 181.487 146.902 183.182 146.118 184.241L145.363 183.849C146.176 182.898 147.009 181.33 147.46 180.184C147.166 180.203 146.872 180.213 146.588 180.213C146.225 180.213 145.814 180.203 145.441 180.184L145.392 179.449C145.755 179.498 146.176 179.517 146.588 179.517C146.941 179.517 147.313 179.498 147.695 179.468C147.842 178.919 147.98 178.302 147.999 177.773L148.862 177.851ZM148.323 184.652C148.323 185.113 148.695 185.427 149.459 185.427C150.273 185.427 150.547 184.995 150.547 184.456C150.547 184.329 150.547 184.182 150.537 184.015C150.224 183.917 149.881 183.868 149.528 183.868C148.813 183.868 148.323 184.202 148.323 184.652ZM151.174 180.879C151.155 181.281 151.155 181.585 151.165 181.938C151.174 182.3 151.214 182.937 151.233 183.545C152.076 183.849 152.762 184.329 153.272 184.76L152.85 185.427C152.429 185.054 151.9 184.613 151.263 184.3C151.272 184.456 151.272 184.594 151.272 184.711C151.272 185.495 150.773 186.132 149.557 186.132C148.479 186.132 147.597 185.691 147.597 184.721C147.597 183.819 148.45 183.251 149.557 183.251C149.891 183.251 150.214 183.28 150.518 183.349C150.479 182.545 150.43 181.575 150.41 180.879H151.174ZM153.134 181.144C152.605 180.693 151.547 180.086 150.89 179.792L151.292 179.194C151.998 179.507 153.115 180.144 153.575 180.497L153.134 181.144ZM155.927 178.91C156.251 178.949 156.682 178.968 156.996 178.968H161.827C162.062 178.968 162.356 178.959 162.552 178.949C162.542 179.174 162.523 179.478 162.523 179.713V184.77C162.523 185.123 162.552 185.564 162.562 185.721H161.68C161.69 185.613 161.69 185.407 161.7 185.172H156.907C156.506 185.172 156.065 185.191 155.8 185.211V184.319C156.055 184.349 156.476 184.378 156.888 184.378H161.7V179.752H157.005C156.643 179.752 156.153 179.772 155.927 179.782V178.91ZM166.306 178.331C166.56 178.371 166.874 178.38 167.188 178.38H171.039C171.353 178.38 171.696 178.371 171.931 178.331V179.145C171.696 179.125 171.362 179.115 171.029 179.115H167.188C166.884 179.115 166.57 179.125 166.306 179.145V178.331ZM172.646 180.919C172.597 181.007 172.538 181.134 172.519 181.203C172.254 182.173 171.813 183.192 171.088 183.986C170.059 185.113 168.834 185.691 167.58 186.034L166.972 185.338C168.364 185.054 169.589 184.427 170.422 183.545C171.019 182.918 171.411 182.085 171.588 181.379H166.384C166.149 181.379 165.776 181.389 165.424 181.409V180.585C165.786 180.625 166.119 180.644 166.384 180.644H171.549C171.774 180.644 171.98 180.625 172.088 180.566L172.646 180.919ZM181.094 181.712C181.613 182.34 182.397 183.565 182.789 184.27L182.064 184.672C181.682 183.908 180.947 182.683 180.427 182.065L181.094 181.712ZM176.997 182.036C176.586 182.879 175.665 184.123 175.116 184.721L174.44 184.27C175.086 183.663 175.929 182.496 176.311 181.703L176.997 182.036ZM181.211 177.89C181.456 178.233 181.79 178.802 181.995 179.204L181.466 179.439C181.27 179.037 180.957 178.478 180.692 178.106L181.211 177.89ZM182.368 177.606C182.623 177.969 182.985 178.547 183.171 178.91L182.642 179.145C182.427 178.723 182.123 178.194 181.848 177.832L182.368 177.606ZM179.153 178.077C179.124 178.214 179.095 178.567 179.095 178.782V179.782H181.682C181.917 179.782 182.24 179.762 182.485 179.733V180.546C182.221 180.527 181.927 180.527 181.692 180.527H179.095V185.27C179.095 185.789 178.84 186.054 178.252 186.054C177.84 186.054 177.252 186.024 176.86 185.985L176.792 185.201C177.213 185.28 177.664 185.319 177.919 185.319C178.183 185.319 178.301 185.201 178.301 184.946V180.527H175.576C175.282 180.527 175.008 180.536 174.743 180.556V179.733C175.018 179.762 175.263 179.782 175.576 179.782H178.301V178.772C178.301 178.557 178.271 178.224 178.232 178.077H179.153ZM185.817 185.319C185.886 185.162 185.915 185.035 185.915 184.839V179.233C185.915 178.978 185.866 178.537 185.827 178.341H186.797C186.758 178.586 186.729 178.949 186.729 179.233V184.79C188.601 184.319 190.874 183.026 192.089 181.448L192.53 182.134C191.256 183.712 189.238 184.927 186.797 185.632C186.69 185.662 186.543 185.711 186.386 185.809L185.817 185.319ZM194.441 181.389C194.735 181.409 195.255 181.438 195.804 181.438H201.174C201.664 181.438 202.017 181.409 202.232 181.389V182.349C202.036 182.34 201.625 182.3 201.184 182.3H195.804C195.265 182.3 194.745 182.32 194.441 182.349V181.389ZM206 178.106C206.578 178.429 207.705 179.174 208.127 179.488L207.666 180.154C207.196 179.801 206.137 179.096 205.559 178.763L206 178.106ZM204.53 185.113C205.608 184.927 206.823 184.535 207.813 183.966C209.44 183.035 210.734 181.761 211.527 180.38L211.998 181.183C211.155 182.506 209.793 183.77 208.235 184.692C207.245 185.26 205.892 185.721 204.981 185.907L204.53 185.113ZM204.52 180.311C205.099 180.625 206.245 181.32 206.676 181.634L206.226 182.32C205.745 181.967 204.677 181.281 204.089 180.977L204.52 180.311ZM215.036 180.252C215.222 180.272 215.781 180.291 216.035 180.291H219.828C220.044 180.291 220.298 180.282 220.426 180.272C220.416 180.38 220.416 180.585 220.416 180.772V185.652C220.416 185.809 220.426 186.044 220.436 186.181H219.661C219.671 186.093 219.671 185.946 219.671 185.789H215.732C215.418 185.789 215.075 185.809 214.918 185.809V185.025C215.075 185.044 215.389 185.064 215.722 185.064H219.671V183.32H216.133C215.79 183.32 215.447 183.329 215.251 183.339V182.585C215.438 182.594 215.79 182.614 216.124 182.614H219.671V180.987H216.035C215.781 180.987 215.212 181.007 215.036 181.017V180.252ZM224.875 178.449C225.571 178.91 226.825 179.929 227.374 180.478L226.757 181.095C226.267 180.585 225.042 179.537 224.316 179.047L224.875 178.449ZM224.032 185.015C225.747 184.76 227.021 184.162 227.952 183.584C229.461 182.634 230.657 181.183 231.225 179.978L231.696 180.811C231.029 182.036 229.883 183.369 228.403 184.3C227.423 184.917 226.188 185.515 224.552 185.819L224.032 185.015Z" fill="black"/>
</g>
</g>
</g>
<defs>
<clipPath id="clip0_89_37731">
<rect width="310" height="186" fill="white"/>
</clipPath>
<clipPath id="clip1_89_37731">
<path d="M24 22C24 18.6863 26.6863 16 30 16H680C683.314 16 686 18.6863 686 22V336.457C686 339.771 683.314 342.457 680 342.457H30C26.6863 342.457 24 339.771 24 336.457V22Z" fill="white"/>
</clipPath>
<clipPath id="clip2_89_37731">
<rect width="17.2354" height="21.8122" fill="white" transform="translate(56 123.625)"/>
</clipPath>
</defs>
</svg>
