<svg width="414" height="260" viewBox="0 0 414 260" fill="none" xmlns="http://www.w3.org/2000/svg">
<rect width="414" height="260" rx="16" fill="var(--_illustration-system-composition-background, #EFF2FC)"/>
<g style="mix-blend-mode:multiply">
<path d="M167.075 75L47.7 75L132.925 229L252.3 229L167.075 75Z" fill="var(--_illustration-system-composition-primary, #0A69CF)"/>
</g>
<g style="mix-blend-mode:multiply">
<rect x="122.571" y="33.7148" width="102.857" height="68.5714" fill="var(--_illustration-system-composition-secondary, #428CFE)"/>
</g>
<g style="mix-blend-mode:multiply">
<path fill-rule="evenodd" clip-rule="evenodd" d="M304.762 98.3023C317.259 110.799 337.52 110.799 350.017 98.3023L369.412 117.697C346.204 140.906 308.575 140.906 285.367 117.697C262.159 94.489 262.159 56.8609 285.367 33.6526L304.762 53.0475C292.265 65.5443 292.265 85.8056 304.762 98.3023Z" fill="var(--_illustration-system-composition-accent, #F84258)"/>
</g>
<g style="mix-blend-mode:multiply">
<path fill-rule="evenodd" clip-rule="evenodd" d="M270.681 206.288L288.006 196.285H268L268 187.714H288.006L270.681 177.711L274.966 170.288L292.289 180.289L282.288 162.967L289.711 158.681L299.714 176.007V156H308.286V176.005L318.288 158.68L325.711 162.965L315.708 180.292L333.034 170.288L337.32 177.711L319.995 187.714H340V196.285H319.995L337.32 206.288L333.034 213.711L315.707 203.707L325.711 221.035L318.288 225.321L308.286 207.996V228H299.714V207.994L289.711 225.319L282.288 221.033L292.291 203.709L274.966 213.711L270.681 206.288Z" fill="var(--_illustration-system-composition-tertiary-2, #00A3AF)"/>
</g>
<g style="mix-blend-mode:multiply">
<path d="M41.5999 192C41.5999 196.752 48.9682 200.002 50.6823 204.143C52.3964 208.283 49.6138 215.93 52.8416 219.158C56.0695 222.386 63.5714 219.547 67.8566 221.317C72.1418 223.087 75.2472 230.4 79.9999 230.4C84.7526 230.4 88.0027 223.031 92.1432 221.317C96.2837 219.603 103.93 222.386 107.158 219.158C110.386 215.93 107.548 208.428 109.317 204.143C111.087 199.858 118.4 196.752 118.4 192C118.4 187.247 111.032 183.997 109.317 179.856C107.603 175.716 110.386 168.069 107.158 164.841C103.93 161.614 96.4284 164.452 92.1432 162.682C87.858 160.912 84.7526 153.6 79.9999 153.6C75.2472 153.6 71.9971 160.968 67.8566 162.682C63.7161 164.396 56.0695 161.614 52.8416 164.841C49.6138 168.069 52.4521 175.571 50.6823 179.856C48.9126 184.142 41.5999 187.247 41.5999 192Z" fill="var(--_illustration-system-composition-tertiary-1, #8FAEFE)"/>
</g>
</svg>
