<svg width="310" height="186" viewBox="0 0 310 186" fill="none" xmlns="http://www.w3.org/2000/svg">
<g clip-path="url(#clip0_4709_36305)">
<rect width="310" height="186" rx="12" fill="var(--web-system-color-articleFigure-background, #F5F5F5)"/>
<path d="M260.175 133.935L220.915 156.605C211.665 161.945 195.515 161.275 184.835 155.105C174.155 148.935 172.995 139.615 182.245 134.275L221.505 111.605C230.755 106.265 246.905 106.935 257.585 113.105C268.265 119.275 269.425 128.595 260.175 133.935Z" fill="#0650A0"/>
<path d="M210.444 140.225L208.642 141.35L207.845 140.938L209.48 139.916C209.75 139.747 209.939 139.574 210.046 139.398C210.153 139.221 210.173 139.051 210.108 138.888C210.042 138.722 209.886 138.573 209.638 138.441C209.367 138.297 209.097 138.211 208.826 138.184C208.556 138.154 208.279 138.181 207.996 138.268C207.713 138.351 207.415 138.49 207.103 138.685L205.716 139.552L212.314 143.06L211.372 143.648L203.971 139.713L206.3 138.258C206.664 138.03 207.029 137.848 207.393 137.71C207.754 137.571 208.115 137.482 208.476 137.445C208.837 137.403 209.193 137.416 209.545 137.482C209.897 137.549 210.245 137.674 210.591 137.858C210.896 138.02 211.097 138.214 211.195 138.439C211.289 138.662 211.281 138.898 211.17 139.148C211.062 139.396 210.853 139.642 210.542 139.887L210.444 140.225ZM213.861 142.093L211.733 143.423L211.467 142.666L213.063 141.668C213.363 141.481 213.563 141.294 213.662 141.106C213.766 140.916 213.774 140.734 213.688 140.561C213.599 140.385 213.419 140.225 213.148 140.081C212.873 139.935 212.589 139.839 212.295 139.791C212 139.744 211.698 139.755 211.388 139.823C211.077 139.891 210.763 140.025 210.444 140.225L209.101 141.064L208.323 140.639L210.159 139.492L210.644 139.518C211.016 139.32 211.407 139.194 211.818 139.137C212.225 139.079 212.622 139.081 213.01 139.144C213.401 139.205 213.756 139.321 214.075 139.49C214.536 139.735 214.828 140.003 214.951 140.295C215.074 140.582 215.043 140.88 214.858 141.188C214.669 141.494 214.337 141.796 213.861 142.093ZM219.426 137.146L215.197 134.897L216.105 134.33L221.604 137.254L220.74 137.794L219.426 137.146ZM218.438 136.423L218.803 136.183C219.169 136.377 219.471 136.581 219.708 136.793C219.944 137.002 220.095 137.218 220.159 137.44C220.224 137.663 220.188 137.89 220.053 138.124C219.915 138.355 219.657 138.589 219.28 138.825C219.023 138.985 218.748 139.112 218.455 139.205C218.165 139.295 217.863 139.345 217.547 139.354C217.232 139.364 216.901 139.325 216.555 139.239C216.213 139.151 215.859 139.01 215.493 138.816L211.945 136.929L212.848 136.365L216.406 138.257C216.654 138.388 216.885 138.481 217.1 138.535C217.314 138.585 217.514 138.607 217.7 138.6C217.886 138.59 218.055 138.559 218.206 138.508C218.361 138.454 218.5 138.389 218.623 138.312C219.007 138.072 219.235 137.841 219.307 137.62C219.376 137.396 219.329 137.185 219.166 136.985C219.002 136.782 218.76 136.594 218.438 136.423ZM219.693 132.088L220.415 132.472L217.559 134.256L216.837 133.872L219.693 132.088ZM216.467 132.558L217.37 131.993L222.844 134.904C223.031 135.003 223.199 135.061 223.349 135.076C223.499 135.092 223.634 135.081 223.752 135.042C223.871 135.004 223.98 134.953 224.081 134.89C224.156 134.843 224.227 134.79 224.295 134.732C224.363 134.67 224.413 134.624 224.445 134.592L225.217 134.997C225.169 135.054 225.097 135.125 225 135.209C224.91 135.293 224.783 135.385 224.621 135.487C224.399 135.625 224.15 135.728 223.873 135.795C223.596 135.863 223.296 135.874 222.971 135.83C222.647 135.782 222.302 135.66 221.936 135.466L216.467 132.558ZM222.964 130.044L223.686 130.428L220.83 132.212L220.108 131.828L222.964 130.044ZM219.738 130.514L220.641 129.949L226.115 132.86C226.302 132.959 226.47 133.017 226.62 133.032C226.77 133.048 226.905 133.037 227.023 132.998C227.141 132.96 227.251 132.909 227.352 132.846C227.427 132.799 227.498 132.746 227.566 132.688C227.634 132.627 227.684 132.58 227.716 132.548L228.488 132.953C228.44 133.01 228.368 133.081 228.271 133.165C228.181 133.249 228.054 133.341 227.892 133.443C227.67 133.581 227.421 133.684 227.144 133.752C226.867 133.819 226.567 133.83 226.242 133.786C225.918 133.738 225.573 133.616 225.207 133.422L219.738 130.514ZM226.497 131.087L226.381 131.025C225.984 130.814 225.672 130.584 225.444 130.335C225.212 130.083 225.075 129.826 225.032 129.563C224.987 129.297 225.042 129.035 225.2 128.776C225.353 128.516 225.614 128.27 225.982 128.04C226.353 127.809 226.758 127.638 227.196 127.529C227.635 127.415 228.085 127.361 228.548 127.366C229.01 127.367 229.467 127.424 229.92 127.537C230.37 127.648 230.793 127.809 231.189 128.02L231.306 128.082C231.703 128.293 232.015 128.523 232.243 128.772C232.471 129.022 232.607 129.28 232.649 129.547C232.692 129.811 232.636 130.073 232.482 130.334C232.328 130.59 232.066 130.835 231.695 131.067C231.324 131.299 230.921 131.47 230.486 131.581C230.047 131.691 229.597 131.745 229.134 131.744C228.672 131.739 228.216 131.681 227.766 131.57C227.317 131.459 226.894 131.298 226.497 131.087ZM227.284 130.46L227.401 130.523C227.675 130.668 227.965 130.787 228.271 130.878C228.574 130.967 228.88 131.023 229.19 131.045C229.503 131.065 229.808 131.044 230.106 130.984C230.399 130.922 230.672 130.812 230.922 130.656C231.17 130.501 231.334 130.338 231.414 130.166C231.494 129.991 231.503 129.815 231.44 129.638C231.378 129.462 231.257 129.291 231.078 129.124C230.899 128.954 230.673 128.795 230.398 128.649L230.281 128.587C230.01 128.443 229.722 128.327 229.416 128.24C229.11 128.149 228.801 128.094 228.487 128.074C228.174 128.05 227.869 128.069 227.571 128.129C227.277 128.187 227.005 128.295 226.755 128.451C226.507 128.606 226.343 128.771 226.263 128.946C226.186 129.12 226.179 129.297 226.242 129.477C226.304 129.654 226.427 129.826 226.609 129.994C226.788 130.161 227.013 130.316 227.284 130.46ZM231.705 125.94L236.031 128.24L235.128 128.804L229.628 125.88L230.482 125.346L231.705 125.94ZM232.858 126.801L232.467 127.028C232.094 126.826 231.8 126.607 231.586 126.373C231.368 126.137 231.235 125.897 231.187 125.652C231.138 125.408 231.18 125.171 231.311 124.94C231.443 124.705 231.668 124.487 231.987 124.288C232.247 124.125 232.519 123.999 232.802 123.908C233.081 123.816 233.374 123.766 233.68 123.76C233.989 123.751 234.309 123.789 234.641 123.876C234.97 123.96 235.316 124.099 235.679 124.292L239.282 126.208L238.374 126.775L234.76 124.854C234.472 124.701 234.201 124.603 233.947 124.562C233.689 124.52 233.444 124.526 233.209 124.582C232.972 124.637 232.739 124.735 232.511 124.877C232.287 125.018 232.131 125.172 232.044 125.34C231.96 125.506 231.937 125.677 231.977 125.852C232.019 126.026 232.115 126.195 232.264 126.361C232.412 126.523 232.611 126.669 232.858 126.801Z" fill="white"/>
<path d="M260.175 99.9346L220.915 122.605C211.665 127.945 195.515 127.275 184.835 121.105C174.155 114.935 172.995 105.615 182.245 100.275L221.505 77.6046C230.755 72.2646 246.905 72.9346 257.585 79.1046C268.265 85.2746 269.425 94.5946 260.175 99.9346Z" fill="black" fill-opacity="0.1"/>
<path d="M203 87C203 89.2091 204.791 91 207 91C209.209 91 211 89.2091 211 87C211 84.7909 209.209 83 207 83C204.791 83 203 84.7909 203 87ZM207 48L206.25 48L206.25 87L207 87L207.75 87L207.75 48L207 48Z" fill="var(--web-system-color-articleFigure-foreground-primary, #8FAEFE)"/>
<path d="M140 32.5H277C278.933 32.5 280.5 34.067 280.5 36V48C280.5 49.933 278.933 51.5 277 51.5H140C138.067 51.5 136.5 49.933 136.5 48V36C136.5 34.067 138.067 32.5 140 32.5Z" fill="var(--web-system-color-articleFigure-foreground-tertiary, #EFF2FC)"/>
<path d="M140 32.5H277C278.933 32.5 280.5 34.067 280.5 36V48C280.5 49.933 278.933 51.5 277 51.5H140C138.067 51.5 136.5 49.933 136.5 48V36C136.5 34.067 138.067 32.5 140 32.5Z" stroke="var(--web-system-color-articleFigure-foreground-primary, #8FAEFE)"/>
<path d="M144.518 44.3184C144.518 44.1621 144.482 44.0176 144.412 43.8848C144.346 43.748 144.207 43.625 143.996 43.5156C143.789 43.4023 143.477 43.3047 143.059 43.2227C142.707 43.1484 142.389 43.0605 142.104 42.959C141.822 42.8574 141.582 42.7344 141.383 42.5898C141.188 42.4453 141.037 42.2754 140.932 42.0801C140.826 41.8848 140.773 41.6562 140.773 41.3945C140.773 41.1445 140.828 40.9082 140.938 40.6855C141.051 40.4629 141.209 40.2656 141.412 40.0938C141.619 39.9219 141.867 39.7871 142.156 39.6895C142.445 39.5918 142.768 39.543 143.123 39.543C143.631 39.543 144.064 39.6328 144.424 39.8125C144.783 39.9922 145.059 40.2324 145.25 40.5332C145.441 40.8301 145.537 41.1602 145.537 41.5234H144.453C144.453 41.3477 144.4 41.1777 144.295 41.0137C144.193 40.8457 144.043 40.707 143.844 40.5977C143.648 40.4883 143.408 40.4336 143.123 40.4336C142.822 40.4336 142.578 40.4805 142.391 40.5742C142.207 40.6641 142.072 40.7793 141.986 40.9199C141.904 41.0605 141.863 41.209 141.863 41.3652C141.863 41.4824 141.883 41.5879 141.922 41.6816C141.965 41.7715 142.039 41.8555 142.145 41.9336C142.25 42.0078 142.398 42.0781 142.59 42.1445C142.781 42.2109 143.025 42.2773 143.322 42.3438C143.842 42.4609 144.27 42.6016 144.605 42.7656C144.941 42.9297 145.191 43.1309 145.355 43.3691C145.52 43.6074 145.602 43.8965 145.602 44.2363C145.602 44.5137 145.543 44.7676 145.426 44.998C145.312 45.2285 145.146 45.4277 144.928 45.5957C144.713 45.7598 144.455 45.8887 144.154 45.9824C143.857 46.0723 143.523 46.1172 143.152 46.1172C142.594 46.1172 142.121 46.0176 141.734 45.8184C141.348 45.6191 141.055 45.3613 140.855 45.0449C140.656 44.7285 140.557 44.3945 140.557 44.043H141.646C141.662 44.3398 141.748 44.5762 141.904 44.752C142.061 44.9238 142.252 45.0469 142.479 45.1211C142.705 45.1914 142.93 45.2266 143.152 45.2266C143.449 45.2266 143.697 45.1875 143.896 45.1094C144.1 45.0312 144.254 44.9238 144.359 44.7871C144.465 44.6504 144.518 44.4941 144.518 44.3184ZM151.021 44.7695V37H152.111V46H151.115L151.021 44.7695ZM146.756 42.9004V42.7773C146.756 42.293 146.814 41.8535 146.932 41.459C147.053 41.0605 147.223 40.7188 147.441 40.4336C147.664 40.1484 147.928 39.9297 148.232 39.7773C148.541 39.6211 148.885 39.543 149.264 39.543C149.662 39.543 150.01 39.6133 150.307 39.7539C150.607 39.8906 150.861 40.0918 151.068 40.3574C151.279 40.6191 151.445 40.9355 151.566 41.3066C151.688 41.6777 151.771 42.0977 151.818 42.5664V43.1055C151.775 43.5703 151.691 43.9883 151.566 44.3594C151.445 44.7305 151.279 45.0469 151.068 45.3086C150.861 45.5703 150.607 45.7715 150.307 45.9121C150.006 46.0488 149.654 46.1172 149.252 46.1172C148.881 46.1172 148.541 46.0371 148.232 45.877C147.928 45.7168 147.664 45.4922 147.441 45.2031C147.223 44.9141 147.053 44.5742 146.932 44.1836C146.814 43.7891 146.756 43.3613 146.756 42.9004ZM147.846 42.7773V42.9004C147.846 43.2168 147.877 43.5137 147.939 43.791C148.006 44.0684 148.107 44.3125 148.244 44.5234C148.381 44.7344 148.555 44.9004 148.766 45.0215C148.977 45.1387 149.229 45.1973 149.521 45.1973C149.881 45.1973 150.176 45.1211 150.406 44.9688C150.641 44.8164 150.828 44.6152 150.969 44.3652C151.109 44.1152 151.219 43.8438 151.297 43.5508V42.1387C151.25 41.9238 151.182 41.7168 151.092 41.5176C151.006 41.3145 150.893 41.1348 150.752 40.9785C150.615 40.8184 150.445 40.6914 150.242 40.5977C150.043 40.5039 149.807 40.457 149.533 40.457C149.236 40.457 148.98 40.5195 148.766 40.6445C148.555 40.7656 148.381 40.9336 148.244 41.1484C148.107 41.3594 148.006 41.6055 147.939 41.8867C147.877 42.1641 147.846 42.4609 147.846 42.7773ZM157.572 37.4688L154.016 46.7324H153.084L156.646 37.4688H157.572ZM158.773 45.4258C158.773 45.2422 158.83 45.0879 158.943 44.9629C159.061 44.834 159.229 44.7695 159.447 44.7695C159.666 44.7695 159.832 44.834 159.945 44.9629C160.062 45.0879 160.121 45.2422 160.121 45.4258C160.121 45.6055 160.062 45.7578 159.945 45.8828C159.832 46.0078 159.666 46.0703 159.447 46.0703C159.229 46.0703 159.061 46.0078 158.943 45.8828C158.83 45.7578 158.773 45.6055 158.773 45.4258ZM161.938 45.4258C161.938 45.2422 161.994 45.0879 162.107 44.9629C162.225 44.834 162.393 44.7695 162.611 44.7695C162.83 44.7695 162.996 44.834 163.109 44.9629C163.227 45.0879 163.285 45.2422 163.285 45.4258C163.285 45.6055 163.227 45.7578 163.109 45.8828C162.996 46.0078 162.83 46.0703 162.611 46.0703C162.393 46.0703 162.225 46.0078 162.107 45.8828C161.994 45.7578 161.938 45.6055 161.938 45.4258ZM165.102 45.4258C165.102 45.2422 165.158 45.0879 165.271 44.9629C165.389 44.834 165.557 44.7695 165.775 44.7695C165.994 44.7695 166.16 44.834 166.273 44.9629C166.391 45.0879 166.449 45.2422 166.449 45.4258C166.449 45.6055 166.391 45.7578 166.273 45.8828C166.16 46.0078 165.994 46.0703 165.775 46.0703C165.557 46.0703 165.389 46.0078 165.271 45.8828C165.158 45.7578 165.102 45.6055 165.102 45.4258ZM172.021 37.4688L168.465 46.7324H167.533L171.096 37.4688H172.021ZM174.383 39.6602V46H173.293V39.6602H174.383ZM173.211 37.9785C173.211 37.8027 173.264 37.6543 173.369 37.5332C173.479 37.4121 173.639 37.3516 173.85 37.3516C174.057 37.3516 174.215 37.4121 174.324 37.5332C174.438 37.6543 174.494 37.8027 174.494 37.9785C174.494 38.1465 174.438 38.291 174.324 38.4121C174.215 38.5293 174.057 38.5879 173.85 38.5879C173.639 38.5879 173.479 38.5293 173.369 38.4121C173.264 38.291 173.211 38.1465 173.211 37.9785ZM177.207 41.0137V46H176.123V39.6602H177.148L177.207 41.0137ZM176.949 42.5898L176.498 42.5723C176.502 42.1387 176.566 41.7383 176.691 41.3711C176.816 41 176.992 40.6777 177.219 40.4043C177.445 40.1309 177.715 39.9199 178.027 39.7715C178.344 39.6191 178.693 39.543 179.076 39.543C179.389 39.543 179.67 39.5859 179.92 39.6719C180.17 39.7539 180.383 39.8867 180.559 40.0703C180.738 40.2539 180.875 40.4922 180.969 40.7852C181.062 41.0742 181.109 41.4277 181.109 41.8457V46H180.02V41.834C180.02 41.502 179.971 41.2363 179.873 41.0371C179.775 40.834 179.633 40.6875 179.445 40.5977C179.258 40.5039 179.027 40.457 178.754 40.457C178.484 40.457 178.238 40.5137 178.016 40.627C177.797 40.7402 177.607 40.8965 177.447 41.0957C177.291 41.2949 177.168 41.5234 177.078 41.7812C176.992 42.0352 176.949 42.3047 176.949 42.5898ZM185.41 39.6602V40.4922H181.982V39.6602H185.41ZM183.143 38.1191H184.227V44.4297C184.227 44.6445 184.26 44.8066 184.326 44.916C184.393 45.0254 184.479 45.0977 184.584 45.1328C184.689 45.168 184.803 45.1855 184.924 45.1855C185.014 45.1855 185.107 45.1777 185.205 45.1621C185.307 45.1426 185.383 45.127 185.434 45.1152L185.439 46C185.354 46.0273 185.24 46.0527 185.1 46.0762C184.963 46.1035 184.797 46.1172 184.602 46.1172C184.336 46.1172 184.092 46.0645 183.869 45.959C183.646 45.8535 183.469 45.6777 183.336 45.4316C183.207 45.1816 183.143 44.8457 183.143 44.4238V38.1191ZM189.312 46.1172C188.871 46.1172 188.471 46.043 188.111 45.8945C187.756 45.7422 187.449 45.5293 187.191 45.2559C186.938 44.9824 186.742 44.6582 186.605 44.2832C186.469 43.9082 186.4 43.498 186.4 43.0527V42.8066C186.4 42.291 186.477 41.832 186.629 41.4297C186.781 41.0234 186.988 40.6797 187.25 40.3984C187.512 40.1172 187.809 39.9043 188.141 39.7598C188.473 39.6152 188.816 39.543 189.172 39.543C189.625 39.543 190.016 39.6211 190.344 39.7773C190.676 39.9336 190.947 40.1523 191.158 40.4336C191.369 40.7109 191.525 41.0391 191.627 41.418C191.729 41.793 191.779 42.2031 191.779 42.6484V43.1348H187.045V42.25H190.695V42.168C190.68 41.8867 190.621 41.6133 190.52 41.3477C190.422 41.082 190.266 40.8633 190.051 40.6914C189.836 40.5195 189.543 40.4336 189.172 40.4336C188.926 40.4336 188.699 40.4863 188.492 40.5918C188.285 40.6934 188.107 40.8457 187.959 41.0488C187.811 41.252 187.695 41.5 187.613 41.793C187.531 42.0859 187.49 42.4238 187.49 42.8066V43.0527C187.49 43.3535 187.531 43.6367 187.613 43.9023C187.699 44.1641 187.822 44.3945 187.982 44.5938C188.146 44.793 188.344 44.9492 188.574 45.0625C188.809 45.1758 189.074 45.2324 189.371 45.2324C189.754 45.2324 190.078 45.1543 190.344 44.998C190.609 44.8418 190.842 44.6328 191.041 44.3711L191.697 44.8926C191.561 45.0996 191.387 45.2969 191.176 45.4844C190.965 45.6719 190.705 45.8242 190.396 45.9414C190.092 46.0586 189.73 46.1172 189.312 46.1172ZM194.129 40.6562V46H193.045V39.6602H194.1L194.129 40.6562ZM196.109 39.625L196.104 40.6328C196.014 40.6133 195.928 40.6016 195.846 40.5977C195.768 40.5898 195.678 40.5859 195.576 40.5859C195.326 40.5859 195.105 40.625 194.914 40.7031C194.723 40.7812 194.561 40.8906 194.428 41.0312C194.295 41.1719 194.189 41.3398 194.111 41.5352C194.037 41.7266 193.988 41.9375 193.965 42.168L193.66 42.3438C193.66 41.9609 193.697 41.6016 193.771 41.2656C193.85 40.9297 193.969 40.6328 194.129 40.375C194.289 40.1133 194.492 39.9102 194.738 39.7656C194.988 39.6172 195.285 39.543 195.629 39.543C195.707 39.543 195.797 39.5527 195.898 39.5723C196 39.5879 196.07 39.6055 196.109 39.625ZM200.615 44.916V41.6523C200.615 41.4023 200.564 41.1855 200.463 41.002C200.365 40.8145 200.217 40.6699 200.018 40.5684C199.818 40.4668 199.572 40.416 199.279 40.416C199.006 40.416 198.766 40.4629 198.559 40.5566C198.355 40.6504 198.195 40.7734 198.078 40.9258C197.965 41.0781 197.908 41.2422 197.908 41.418H196.824C196.824 41.1914 196.883 40.9668 197 40.7441C197.117 40.5215 197.285 40.3203 197.504 40.1406C197.727 39.957 197.992 39.8125 198.301 39.707C198.613 39.5977 198.961 39.543 199.344 39.543C199.805 39.543 200.211 39.6211 200.562 39.7773C200.918 39.9336 201.195 40.1699 201.395 40.4863C201.598 40.7988 201.699 41.1914 201.699 41.6641V44.6172C201.699 44.8281 201.717 45.0527 201.752 45.291C201.791 45.5293 201.848 45.7344 201.922 45.9062V46H200.791C200.736 45.875 200.693 45.709 200.662 45.502C200.631 45.291 200.615 45.0957 200.615 44.916ZM200.803 42.1562L200.814 42.918H199.719C199.41 42.918 199.135 42.9434 198.893 42.9941C198.65 43.041 198.447 43.1133 198.283 43.2109C198.119 43.3086 197.994 43.4316 197.908 43.5801C197.822 43.7246 197.779 43.8945 197.779 44.0898C197.779 44.2891 197.824 44.4707 197.914 44.6348C198.004 44.7988 198.139 44.9297 198.318 45.0273C198.502 45.1211 198.727 45.168 198.992 45.168C199.324 45.168 199.617 45.0977 199.871 44.957C200.125 44.8164 200.326 44.6445 200.475 44.4414C200.627 44.2383 200.709 44.041 200.721 43.8496L201.184 44.3711C201.156 44.5352 201.082 44.7168 200.961 44.916C200.84 45.1152 200.678 45.3066 200.475 45.4902C200.275 45.6699 200.037 45.8203 199.76 45.9414C199.486 46.0586 199.178 46.1172 198.834 46.1172C198.404 46.1172 198.027 46.0332 197.703 45.8652C197.383 45.6973 197.133 45.4727 196.953 45.1914C196.777 44.9062 196.689 44.5879 196.689 44.2363C196.689 43.8965 196.756 43.5977 196.889 43.3398C197.021 43.0781 197.213 42.8613 197.463 42.6895C197.713 42.5137 198.014 42.3809 198.365 42.291C198.717 42.2012 199.109 42.1562 199.543 42.1562H200.803ZM205.941 45.2266C206.199 45.2266 206.438 45.1738 206.656 45.0684C206.875 44.9629 207.055 44.8184 207.195 44.6348C207.336 44.4473 207.416 44.2344 207.436 43.9961H208.467C208.447 44.3711 208.32 44.7207 208.086 45.0449C207.855 45.3652 207.553 45.625 207.178 45.8242C206.803 46.0195 206.391 46.1172 205.941 46.1172C205.465 46.1172 205.049 46.0332 204.693 45.8652C204.342 45.6973 204.049 45.4668 203.814 45.1738C203.584 44.8809 203.41 44.5449 203.293 44.166C203.18 43.7832 203.123 43.3789 203.123 42.9531V42.707C203.123 42.2812 203.18 41.8789 203.293 41.5C203.41 41.1172 203.584 40.7793 203.814 40.4863C204.049 40.1934 204.342 39.9629 204.693 39.7949C205.049 39.627 205.465 39.543 205.941 39.543C206.438 39.543 206.871 39.6445 207.242 39.8477C207.613 40.0469 207.904 40.3203 208.115 40.668C208.33 41.0117 208.447 41.4023 208.467 41.8398H207.436C207.416 41.5781 207.342 41.3418 207.213 41.1309C207.088 40.9199 206.916 40.752 206.697 40.627C206.482 40.498 206.23 40.4336 205.941 40.4336C205.609 40.4336 205.33 40.5 205.104 40.6328C204.881 40.7617 204.703 40.9375 204.57 41.1602C204.441 41.3789 204.348 41.623 204.289 41.8926C204.234 42.1582 204.207 42.4297 204.207 42.707V42.9531C204.207 43.2305 204.234 43.5039 204.289 43.7734C204.344 44.043 204.436 44.2871 204.564 44.5059C204.697 44.7246 204.875 44.9004 205.098 45.0332C205.324 45.1621 205.605 45.2266 205.941 45.2266ZM212.34 39.6602V40.4922H208.912V39.6602H212.34ZM210.072 38.1191H211.156V44.4297C211.156 44.6445 211.189 44.8066 211.256 44.916C211.322 45.0254 211.408 45.0977 211.514 45.1328C211.619 45.168 211.732 45.1855 211.854 45.1855C211.943 45.1855 212.037 45.1777 212.135 45.1621C212.236 45.1426 212.312 45.127 212.363 45.1152L212.369 46C212.283 46.0273 212.17 46.0527 212.029 46.0762C211.893 46.1035 211.727 46.1172 211.531 46.1172C211.266 46.1172 211.021 46.0645 210.799 45.959C210.576 45.8535 210.398 45.6777 210.266 45.4316C210.137 45.1816 210.072 44.8457 210.072 44.4238V38.1191ZM214.789 39.6602V46H213.699V39.6602H214.789ZM213.617 37.9785C213.617 37.8027 213.67 37.6543 213.775 37.5332C213.885 37.4121 214.045 37.3516 214.256 37.3516C214.463 37.3516 214.621 37.4121 214.73 37.5332C214.844 37.6543 214.9 37.8027 214.9 37.9785C214.9 38.1465 214.844 38.291 214.73 38.4121C214.621 38.5293 214.463 38.5879 214.256 38.5879C214.045 38.5879 213.885 38.5293 213.775 38.4121C213.67 38.291 213.617 38.1465 213.617 37.9785ZM216.242 42.9004V42.7656C216.242 42.3086 216.309 41.8848 216.441 41.4941C216.574 41.0996 216.766 40.7578 217.016 40.4688C217.266 40.1758 217.568 39.9492 217.924 39.7891C218.279 39.625 218.678 39.543 219.119 39.543C219.564 39.543 219.965 39.625 220.32 39.7891C220.68 39.9492 220.984 40.1758 221.234 40.4688C221.488 40.7578 221.682 41.0996 221.814 41.4941C221.947 41.8848 222.014 42.3086 222.014 42.7656V42.9004C222.014 43.3574 221.947 43.7812 221.814 44.1719C221.682 44.5625 221.488 44.9043 221.234 45.1973C220.984 45.4863 220.682 45.7129 220.326 45.877C219.975 46.0371 219.576 46.1172 219.131 46.1172C218.686 46.1172 218.285 46.0371 217.93 45.877C217.574 45.7129 217.27 45.4863 217.016 45.1973C216.766 44.9043 216.574 44.5625 216.441 44.1719C216.309 43.7812 216.242 43.3574 216.242 42.9004ZM217.326 42.7656V42.9004C217.326 43.2168 217.363 43.5156 217.438 43.7969C217.512 44.0742 217.623 44.3203 217.771 44.5352C217.924 44.75 218.113 44.9199 218.34 45.0449C218.566 45.166 218.83 45.2266 219.131 45.2266C219.428 45.2266 219.688 45.166 219.91 45.0449C220.137 44.9199 220.324 44.75 220.473 44.5352C220.621 44.3203 220.732 44.0742 220.807 43.7969C220.885 43.5156 220.924 43.2168 220.924 42.9004V42.7656C220.924 42.4531 220.885 42.1582 220.807 41.8809C220.732 41.5996 220.619 41.3516 220.467 41.1367C220.318 40.918 220.131 40.7461 219.904 40.6211C219.682 40.4961 219.42 40.4336 219.119 40.4336C218.822 40.4336 218.561 40.4961 218.334 40.6211C218.111 40.7461 217.924 40.918 217.771 41.1367C217.623 41.3516 217.512 41.5996 217.438 41.8809C217.363 42.1582 217.326 42.4531 217.326 42.7656ZM224.457 41.0137V46H223.373V39.6602H224.398L224.457 41.0137ZM224.199 42.5898L223.748 42.5723C223.752 42.1387 223.816 41.7383 223.941 41.3711C224.066 41 224.242 40.6777 224.469 40.4043C224.695 40.1309 224.965 39.9199 225.277 39.7715C225.594 39.6191 225.943 39.543 226.326 39.543C226.639 39.543 226.92 39.5859 227.17 39.6719C227.42 39.7539 227.633 39.8867 227.809 40.0703C227.988 40.2539 228.125 40.4922 228.219 40.7852C228.312 41.0742 228.359 41.4277 228.359 41.8457V46H227.27V41.834C227.27 41.502 227.221 41.2363 227.123 41.0371C227.025 40.834 226.883 40.6875 226.695 40.5977C226.508 40.5039 226.277 40.457 226.004 40.457C225.734 40.457 225.488 40.5137 225.266 40.627C225.047 40.7402 224.857 40.8965 224.697 41.0957C224.541 41.2949 224.418 41.5234 224.328 41.7812C224.242 42.0352 224.199 42.3047 224.199 42.5898ZM233.779 37.4688L230.223 46.7324H229.291L232.854 37.4688H233.779ZM236.047 37V46H234.963V37H236.047ZM235.789 42.5898L235.338 42.5723C235.342 42.1387 235.406 41.7383 235.531 41.3711C235.656 41 235.832 40.6777 236.059 40.4043C236.285 40.1309 236.555 39.9199 236.867 39.7715C237.184 39.6191 237.533 39.543 237.916 39.543C238.229 39.543 238.51 39.5859 238.76 39.6719C239.01 39.7539 239.223 39.8867 239.398 40.0703C239.578 40.2539 239.715 40.4922 239.809 40.7852C239.902 41.0742 239.949 41.4277 239.949 41.8457V46H238.859V41.834C238.859 41.502 238.811 41.2363 238.713 41.0371C238.615 40.834 238.473 40.6875 238.285 40.5977C238.098 40.5039 237.867 40.457 237.594 40.457C237.324 40.457 237.078 40.5137 236.855 40.627C236.637 40.7402 236.447 40.8965 236.287 41.0957C236.131 41.2949 236.008 41.5234 235.918 41.7812C235.832 42.0352 235.789 42.3047 235.789 42.5898ZM241.285 42.9004V42.7656C241.285 42.3086 241.352 41.8848 241.484 41.4941C241.617 41.0996 241.809 40.7578 242.059 40.4688C242.309 40.1758 242.611 39.9492 242.967 39.7891C243.322 39.625 243.721 39.543 244.162 39.543C244.607 39.543 245.008 39.625 245.363 39.7891C245.723 39.9492 246.027 40.1758 246.277 40.4688C246.531 40.7578 246.725 41.0996 246.857 41.4941C246.99 41.8848 247.057 42.3086 247.057 42.7656V42.9004C247.057 43.3574 246.99 43.7812 246.857 44.1719C246.725 44.5625 246.531 44.9043 246.277 45.1973C246.027 45.4863 245.725 45.7129 245.369 45.877C245.018 46.0371 244.619 46.1172 244.174 46.1172C243.729 46.1172 243.328 46.0371 242.973 45.877C242.617 45.7129 242.312 45.4863 242.059 45.1973C241.809 44.9043 241.617 44.5625 241.484 44.1719C241.352 43.7812 241.285 43.3574 241.285 42.9004ZM242.369 42.7656V42.9004C242.369 43.2168 242.406 43.5156 242.48 43.7969C242.555 44.0742 242.666 44.3203 242.814 44.5352C242.967 44.75 243.156 44.9199 243.383 45.0449C243.609 45.166 243.873 45.2266 244.174 45.2266C244.471 45.2266 244.73 45.166 244.953 45.0449C245.18 44.9199 245.367 44.75 245.516 44.5352C245.664 44.3203 245.775 44.0742 245.85 43.7969C245.928 43.5156 245.967 43.2168 245.967 42.9004V42.7656C245.967 42.4531 245.928 42.1582 245.85 41.8809C245.775 41.5996 245.662 41.3516 245.51 41.1367C245.361 40.918 245.174 40.7461 244.947 40.6211C244.725 40.4961 244.463 40.4336 244.162 40.4336C243.865 40.4336 243.604 40.4961 243.377 40.6211C243.154 40.7461 242.967 40.918 242.814 41.1367C242.666 41.3516 242.555 41.5996 242.48 41.8809C242.406 42.1582 242.369 42.4531 242.369 42.7656ZM250.25 45.0215L251.984 39.6602H253.092L250.812 46H250.086L250.25 45.0215ZM248.803 39.6602L250.59 45.0508L250.713 46H249.986L247.689 39.6602H248.803ZM256.684 46.1172C256.242 46.1172 255.842 46.043 255.482 45.8945C255.127 45.7422 254.82 45.5293 254.562 45.2559C254.309 44.9824 254.113 44.6582 253.977 44.2832C253.84 43.9082 253.771 43.498 253.771 43.0527V42.8066C253.771 42.291 253.848 41.832 254 41.4297C254.152 41.0234 254.359 40.6797 254.621 40.3984C254.883 40.1172 255.18 39.9043 255.512 39.7598C255.844 39.6152 256.188 39.543 256.543 39.543C256.996 39.543 257.387 39.6211 257.715 39.7773C258.047 39.9336 258.318 40.1523 258.529 40.4336C258.74 40.7109 258.896 41.0391 258.998 41.418C259.1 41.793 259.15 42.2031 259.15 42.6484V43.1348H254.416V42.25H258.066V42.168C258.051 41.8867 257.992 41.6133 257.891 41.3477C257.793 41.082 257.637 40.8633 257.422 40.6914C257.207 40.5195 256.914 40.4336 256.543 40.4336C256.297 40.4336 256.07 40.4863 255.863 40.5918C255.656 40.6934 255.479 40.8457 255.33 41.0488C255.182 41.252 255.066 41.5 254.984 41.793C254.902 42.0859 254.861 42.4238 254.861 42.8066V43.0527C254.861 43.3535 254.902 43.6367 254.984 43.9023C255.07 44.1641 255.193 44.3945 255.354 44.5938C255.518 44.793 255.715 44.9492 255.945 45.0625C256.18 45.1758 256.445 45.2324 256.742 45.2324C257.125 45.2324 257.449 45.1543 257.715 44.998C257.98 44.8418 258.213 44.6328 258.412 44.3711L259.068 44.8926C258.932 45.0996 258.758 45.2969 258.547 45.4844C258.336 45.6719 258.076 45.8242 257.768 45.9414C257.463 46.0586 257.102 46.1172 256.684 46.1172ZM261.5 40.6562V46H260.416V39.6602H261.471L261.5 40.6562ZM263.48 39.625L263.475 40.6328C263.385 40.6133 263.299 40.6016 263.217 40.5977C263.139 40.5898 263.049 40.5859 262.947 40.5859C262.697 40.5859 262.477 40.625 262.285 40.7031C262.094 40.7812 261.932 40.8906 261.799 41.0312C261.666 41.1719 261.561 41.3398 261.482 41.5352C261.408 41.7266 261.359 41.9375 261.336 42.168L261.031 42.3438C261.031 41.9609 261.068 41.6016 261.143 41.2656C261.221 40.9297 261.34 40.6328 261.5 40.375C261.66 40.1133 261.863 39.9102 262.109 39.7656C262.359 39.6172 262.656 39.543 263 39.543C263.078 39.543 263.168 39.5527 263.27 39.5723C263.371 39.5879 263.441 39.6055 263.48 39.625ZM266.996 46.1172C266.555 46.1172 266.154 46.043 265.795 45.8945C265.439 45.7422 265.133 45.5293 264.875 45.2559C264.621 44.9824 264.426 44.6582 264.289 44.2832C264.152 43.9082 264.084 43.498 264.084 43.0527V42.8066C264.084 42.291 264.16 41.832 264.312 41.4297C264.465 41.0234 264.672 40.6797 264.934 40.3984C265.195 40.1172 265.492 39.9043 265.824 39.7598C266.156 39.6152 266.5 39.543 266.855 39.543C267.309 39.543 267.699 39.6211 268.027 39.7773C268.359 39.9336 268.631 40.1523 268.842 40.4336C269.053 40.7109 269.209 41.0391 269.311 41.418C269.412 41.793 269.463 42.2031 269.463 42.6484V43.1348H264.729V42.25H268.379V42.168C268.363 41.8867 268.305 41.6133 268.203 41.3477C268.105 41.082 267.949 40.8633 267.734 40.6914C267.52 40.5195 267.227 40.4336 266.855 40.4336C266.609 40.4336 266.383 40.4863 266.176 40.5918C265.969 40.6934 265.791 40.8457 265.643 41.0488C265.494 41.252 265.379 41.5 265.297 41.793C265.215 42.0859 265.174 42.4238 265.174 42.8066V43.0527C265.174 43.3535 265.215 43.6367 265.297 43.9023C265.383 44.1641 265.506 44.3945 265.666 44.5938C265.83 44.793 266.027 44.9492 266.258 45.0625C266.492 45.1758 266.758 45.2324 267.055 45.2324C267.438 45.2324 267.762 45.1543 268.027 44.998C268.293 44.8418 268.525 44.6328 268.725 44.3711L269.381 44.8926C269.244 45.0996 269.07 45.2969 268.859 45.4844C268.648 45.6719 268.389 45.8242 268.08 45.9414C267.775 46.0586 267.414 46.1172 266.996 46.1172ZM274.725 44.7695V37H275.814V46H274.818L274.725 44.7695ZM270.459 42.9004V42.7773C270.459 42.293 270.518 41.8535 270.635 41.459C270.756 41.0605 270.926 40.7188 271.145 40.4336C271.367 40.1484 271.631 39.9297 271.936 39.7773C272.244 39.6211 272.588 39.543 272.967 39.543C273.365 39.543 273.713 39.6133 274.01 39.7539C274.311 39.8906 274.564 40.0918 274.771 40.3574C274.982 40.6191 275.148 40.9355 275.27 41.3066C275.391 41.6777 275.475 42.0977 275.521 42.5664V43.1055C275.479 43.5703 275.395 43.9883 275.27 44.3594C275.148 44.7305 274.982 45.0469 274.771 45.3086C274.564 45.5703 274.311 45.7715 274.01 45.9121C273.709 46.0488 273.357 46.1172 272.955 46.1172C272.584 46.1172 272.244 46.0371 271.936 45.877C271.631 45.7168 271.367 45.4922 271.145 45.2031C270.926 44.9141 270.756 44.5742 270.635 44.1836C270.518 43.7891 270.459 43.3613 270.459 42.9004ZM271.549 42.7773V42.9004C271.549 43.2168 271.58 43.5137 271.643 43.791C271.709 44.0684 271.811 44.3125 271.947 44.5234C272.084 44.7344 272.258 44.9004 272.469 45.0215C272.68 45.1387 272.932 45.1973 273.225 45.1973C273.584 45.1973 273.879 45.1211 274.109 44.9688C274.344 44.8164 274.531 44.6152 274.672 44.3652C274.812 44.1152 274.922 43.8438 275 43.5508V42.1387C274.953 41.9238 274.885 41.7168 274.795 41.5176C274.709 41.3145 274.596 41.1348 274.455 40.9785C274.318 40.8184 274.148 40.6914 273.945 40.5977C273.746 40.5039 273.51 40.457 273.236 40.457C272.939 40.457 272.684 40.5195 272.469 40.6445C272.258 40.7656 272.084 40.9336 271.947 41.1484C271.811 41.3594 271.709 41.6055 271.643 41.8867C271.58 42.1641 271.549 42.4609 271.549 42.7773Z" fill="black"/>
<path d="M24 92.5C24 82.835 31.835 75 41.5 75H80.5C90.165 75 98 82.835 98 92.5C98 102.165 90.165 110 80.5 110H41.5C31.835 110 24 102.165 24 92.5Z" fill="#0650A0"/>
<path d="M47.6154 93.0044H45.4911L45.4796 92.1121H47.4081C47.7267 92.1121 48.0049 92.0584 48.2429 91.9509C48.4808 91.8434 48.665 91.6899 48.7955 91.4904C48.9298 91.2869 48.997 91.0452 48.997 90.765C48.997 90.458 48.9375 90.2085 48.8185 90.0166C48.7034 89.8209 48.5249 89.6789 48.2831 89.5906C48.0452 89.4985 47.742 89.4524 47.3736 89.4524H45.7386V96.9248H44.6276V88.5429H47.3736C47.8034 88.5429 48.1872 88.587 48.5249 88.6753C48.8627 88.7597 49.1486 88.894 49.3827 89.0782C49.6207 89.2586 49.801 89.4889 49.9238 89.7691C50.0467 90.0492 50.1081 90.385 50.1081 90.7765C50.1081 91.1219 50.0198 91.4347 49.8433 91.7149C49.6667 91.9912 49.4211 92.2176 49.1064 92.3942C48.7955 92.5707 48.4309 92.6839 48.0126 92.7338L47.6154 93.0044ZM47.5635 96.9248H45.0536L45.6811 96.021H47.5635C47.9166 96.021 48.216 95.9596 48.4616 95.8368C48.7111 95.714 48.9011 95.5412 49.0315 95.3186C49.162 95.0922 49.2273 94.8255 49.2273 94.5184C49.2273 94.2076 49.1716 93.9389 49.0603 93.7125C48.949 93.4861 48.7744 93.3114 48.5365 93.1886C48.2985 93.0658 47.9915 93.0044 47.6154 93.0044H46.0322L46.0437 92.1121H48.2083L48.4443 92.4345C48.8473 92.469 49.1889 92.5842 49.4691 92.7799C49.7492 92.9718 49.9622 93.2174 50.1081 93.5168C50.2577 93.8161 50.3326 94.1462 50.3326 94.5069C50.3326 95.0289 50.2174 95.4702 49.9872 95.831C49.7607 96.1879 49.4403 96.4604 49.0258 96.6485C48.6113 96.8327 48.1239 96.9248 47.5635 96.9248ZM55.6231 95.4856V90.6959H56.6939V96.9248H55.6749L55.6231 95.4856ZM55.8246 94.173L56.2679 94.1615C56.2679 94.576 56.2237 94.9598 56.1355 95.3129C56.051 95.6621 55.9129 95.9653 55.721 96.2225C55.5291 96.4796 55.2777 96.6811 54.9668 96.8269C54.656 96.9689 54.2779 97.0399 53.8327 97.0399C53.5295 97.0399 53.2513 96.9958 52.998 96.9075C52.7485 96.8193 52.5336 96.683 52.3532 96.4988C52.1729 96.3146 52.0328 96.0747 51.933 95.7792C51.837 95.4837 51.7891 95.1287 51.7891 94.7142V90.6959H52.8541V94.7257C52.8541 95.0059 52.8848 95.2381 52.9462 95.4223C53.0114 95.6027 53.0978 95.7466 53.2052 95.854C53.3165 95.9577 53.4394 96.0306 53.5737 96.0728C53.7118 96.115 53.8538 96.1361 53.9997 96.1361C54.4526 96.1361 54.8114 96.0498 55.0762 95.8771C55.341 95.7005 55.531 95.4645 55.6461 95.169C55.7651 94.8696 55.8246 94.5376 55.8246 94.173ZM60.9252 90.6959V91.5134H57.5574V90.6959H60.9252ZM58.6973 89.1819H59.7623V95.382C59.7623 95.5931 59.7949 95.7523 59.8601 95.8598C59.9254 95.9673 60.0098 96.0383 60.1134 96.0728C60.2171 96.1073 60.3284 96.1246 60.4473 96.1246C60.5356 96.1246 60.6277 96.1169 60.7237 96.1016C60.8235 96.0824 60.8983 96.067 60.9482 96.0555L60.9539 96.9248C60.8695 96.9517 60.7582 96.9766 60.62 96.9996C60.4857 97.0265 60.3226 97.0399 60.1307 97.0399C59.8697 97.0399 59.6299 96.9881 59.4111 96.8845C59.1924 96.7809 59.0177 96.6082 58.8872 96.3664C58.7606 96.1208 58.6973 95.7907 58.6973 95.3762V89.1819ZM64.7822 90.6959V91.5134H61.4145V90.6959H64.7822ZM62.5543 89.1819H63.6194V95.382C63.6194 95.5931 63.652 95.7523 63.7172 95.8598C63.7825 95.9673 63.8669 96.0383 63.9705 96.0728C64.0742 96.1073 64.1854 96.1246 64.3044 96.1246C64.3927 96.1246 64.4848 96.1169 64.5808 96.1016C64.6805 96.0824 64.7554 96.067 64.8053 96.0555L64.811 96.9248C64.7266 96.9517 64.6153 96.9766 64.4771 96.9996C64.3428 97.0265 64.1797 97.0399 63.9878 97.0399C63.7268 97.0399 63.487 96.9881 63.2682 96.8845C63.0494 96.7809 62.8748 96.6082 62.7443 96.3664C62.6177 96.1208 62.5543 95.7907 62.5543 95.3762V89.1819ZM65.6343 93.8794V93.747C65.6343 93.298 65.6995 92.8816 65.83 92.4978C65.9605 92.1102 66.1485 91.7744 66.3942 91.4904C66.6398 91.2025 66.9372 90.9799 67.2865 90.8226C67.6357 90.6614 68.0272 90.5808 68.4609 90.5808C68.8984 90.5808 69.2918 90.6614 69.641 90.8226C69.9941 90.9799 70.2935 91.2025 70.5391 91.4904C70.7885 91.7744 70.9785 92.1102 71.109 92.4978C71.2395 92.8816 71.3047 93.298 71.3047 93.747V93.8794C71.3047 94.3285 71.2395 94.7449 71.109 95.1287C70.9785 95.5125 70.7885 95.8483 70.5391 96.1361C70.2935 96.4201 69.996 96.6427 69.6468 96.8039C69.3014 96.9613 68.9099 97.0399 68.4724 97.0399C68.0349 97.0399 67.6415 96.9613 67.2922 96.8039C66.943 96.6427 66.6436 96.4201 66.3942 96.1361C66.1485 95.8483 65.9605 95.5125 65.83 95.1287C65.6995 94.7449 65.6343 94.3285 65.6343 93.8794ZM66.6993 93.747V93.8794C66.6993 94.1903 66.7357 94.4839 66.8086 94.7602C66.8816 95.0327 66.9909 95.2745 67.1368 95.4856C67.2865 95.6967 67.4726 95.8636 67.6952 95.9864C67.9178 96.1054 68.1769 96.1649 68.4724 96.1649C68.7641 96.1649 69.0193 96.1054 69.238 95.9864C69.4606 95.8636 69.6448 95.6967 69.7907 95.4856C69.9365 95.2745 70.0459 95.0327 70.1188 94.7602C70.1956 94.4839 70.234 94.1903 70.234 93.8794V93.747C70.234 93.44 70.1956 93.1502 70.1188 92.8777C70.0459 92.6014 69.9346 92.3577 69.7849 92.1466C69.6391 91.9317 69.4549 91.7628 69.2323 91.64C69.0135 91.5172 68.7564 91.4558 68.4609 91.4558C68.1692 91.4558 67.912 91.5172 67.6894 91.64C67.4707 91.7628 67.2865 91.9317 67.1368 92.1466C66.9909 92.3577 66.8816 92.6014 66.8086 92.8777C66.7357 93.1502 66.6993 93.44 66.6993 93.747ZM73.7053 92.0257V96.9248H72.6403V90.6959H73.6478L73.7053 92.0257ZM73.452 93.5743L73.0088 93.5571C73.0126 93.131 73.0759 92.7377 73.1987 92.3769C73.3215 92.0123 73.4943 91.6957 73.7168 91.427C73.9394 91.1584 74.2043 90.9511 74.5113 90.8053C74.8222 90.6556 75.1657 90.5808 75.5418 90.5808C75.8488 90.5808 76.1251 90.623 76.3708 90.7074C76.6164 90.788 76.8255 90.9185 76.9982 91.0989C77.1748 91.2793 77.3091 91.5134 77.4012 91.8012C77.4933 92.0852 77.5394 92.4326 77.5394 92.8432V96.9248H76.4686V92.8317C76.4686 92.5055 76.4206 92.2445 76.3247 92.0488C76.2287 91.8492 76.0887 91.7053 75.9044 91.617C75.7202 91.5249 75.4938 91.4788 75.2251 91.4788C74.9603 91.4788 74.7185 91.5345 74.4998 91.6458C74.2849 91.7571 74.0987 91.9106 73.9414 92.1063C73.7879 92.3021 73.667 92.5266 73.5787 92.7799C73.4943 93.0293 73.452 93.2942 73.452 93.5743Z" fill="white"/>
<g filter="url(#filter0_d_4709_36305)">
<path d="M88.7667 112.045L86.4462 115.291L85.0195 103.329L94.6655 110.546L90.6846 110.937L95.0141 118.436L93.0962 119.544L88.7667 112.045Z" fill="black"/>
<path d="M85.3193 102.929L94.9648 110.146L95.9971 110.917L94.7148 111.043L91.5049 111.359L95.4473 118.187L95.6973 118.619L95.2637 118.869L93.3467 119.977L92.9131 120.227L92.6631 119.794L88.7217 112.967L86.8525 115.582L86.1025 116.632L85.9502 115.351L84.5234 103.389L84.3848 102.229L85.3193 102.929Z" stroke="white"/>
</g>
<path d="M135 17H126C121.582 17 118 20.5817 118 25V85C118 89.4183 114.418 93 110 93H107" stroke="#AFAEAA"/>
<path d="M135 169H126C121.582 169 118 165.418 118 161V101C118 96.5817 114.418 93 110 93H108" stroke="#AFAEAA"/>
</g>
<defs>
<filter id="filter0_d_4709_36305" x="82.1756" y="101.131" width="16.7268" height="22.9275" filterUnits="userSpaceOnUse" color-interpolation-filters="sRGB">
<feFlood flood-opacity="0" result="BackgroundImageFix"/>
<feColorMatrix in="SourceAlpha" type="matrix" values="0 0 0 0 0 0 0 0 0 0 0 0 0 0 0 0 0 0 127 0" result="hardAlpha"/>
<feOffset dy="1.57436"/>
<feGaussianBlur stdDeviation="0.78718"/>
<feComposite in2="hardAlpha" operator="out"/>
<feColorMatrix type="matrix" values="0 0 0 0 0 0 0 0 0 0 0 0 0 0 0 0 0 0 0.15 0"/>
<feBlend mode="normal" in2="BackgroundImageFix" result="effect1_dropShadow_4709_36305"/>
<feBlend mode="normal" in="SourceGraphic" in2="effect1_dropShadow_4709_36305" result="shape"/>
</filter>
<clipPath id="clip0_4709_36305">
<rect width="310" height="186" rx="12" fill="white"/>
</clipPath>
</defs>
</svg>
