<svg width="310" height="186" viewBox="0 0 310 186" fill="none" xmlns="http://www.w3.org/2000/svg">
<g clip-path="url(#clip0_12495_56722)">
<rect width="310" height="186" rx="12" fill="var(--web-system-color-articleFigure-background, #F5F5F5)"/>
<path d="M260.175 133.935L220.915 156.605C211.665 161.945 195.515 161.275 184.835 155.105C174.155 148.935 172.995 139.615 182.245 134.275L221.505 111.605C230.755 106.265 246.905 106.935 257.585 113.105C268.265 119.275 269.425 128.595 260.175 133.935Z" fill="#0650A0"/>
<path d="M209.725 144.882L208.235 145.062C208.295 144.102 207.875 142.572 207.335 141.682L208.685 141.412C209.245 142.372 209.665 144.022 209.725 144.892V144.882ZM207.175 137.322L208.495 138.082L211.925 136.102C212.235 135.922 212.635 135.662 212.925 135.452L213.995 136.072C213.615 136.262 213.225 136.482 212.915 136.662L209.475 138.652L215.715 142.252C216.395 142.642 216.405 143.042 215.625 143.492C215.075 143.802 214.265 144.232 213.695 144.502L212.575 143.962C213.235 143.702 213.885 143.382 214.225 143.192C214.565 143.002 214.575 142.812 214.245 142.612L208.425 139.252L204.815 141.332C204.425 141.562 204.075 141.772 203.745 141.992L202.665 141.362C203.065 141.172 203.415 141.002 203.835 140.762L207.445 138.682L206.115 137.912C205.835 137.752 205.355 137.522 205.105 137.432L206.325 136.722C206.465 136.852 206.895 137.142 207.175 137.302V137.322ZM219.295 138.672L218.865 139.532C217.355 139.242 214.765 138.872 213.265 138.802L213.685 138.022C215.195 138.102 217.855 138.432 219.295 138.672ZM211.575 135.422L211.185 136.002C210.395 135.842 209.245 135.662 208.405 135.582L208.805 135.022C209.585 135.092 210.775 135.272 211.575 135.422ZM212.745 134.302L212.355 134.882C211.515 134.722 210.415 134.552 209.575 134.492L209.965 133.922C210.775 134.002 212.025 134.162 212.745 134.302Z" fill="white"/>
<path d="M219.455 130.128C219.535 130.258 219.595 130.408 219.645 130.558L223.165 128.528C223.515 128.328 223.755 128.128 223.895 127.958L225.265 127.758C225.325 127.928 225.525 128.178 225.645 128.338C226.495 129.218 227.305 130.498 227.635 131.828C228.585 131.748 229.505 131.678 230.255 131.628L230.375 132.588C229.635 132.608 228.745 132.668 227.785 132.728C227.905 134.128 227.495 135.738 226.115 137.478L224.375 137.558C225.895 135.908 226.375 134.258 226.295 132.858C224.685 133.008 223.035 133.198 221.685 133.378V132.568C223.025 132.358 224.615 132.148 226.155 131.988C225.875 130.848 225.145 129.668 224.345 128.908L219.955 131.448C220.285 132.598 220.395 133.998 219.935 135.408L218.395 135.528C219.245 133.438 218.635 131.558 218.075 130.528C217.975 130.318 217.725 129.938 217.475 129.698L219.035 129.228C219.145 129.548 219.355 129.938 219.455 130.148V130.128Z" fill="white"/>
<path d="M238.795 126.375C239.545 124.495 239.225 122.485 238.385 121.125L240.105 121.395C240.835 122.835 241.065 124.725 240.335 126.565C239.845 127.785 238.995 129.185 237.225 130.665L235.475 130.455C237.415 128.945 238.315 127.515 238.785 126.365L238.795 126.375ZM233.935 124.455V125.395C232.605 125.385 229.605 125.525 227.995 125.705L227.945 124.825C229.475 124.645 232.475 124.455 233.925 124.455H233.935Z" fill="white"/>
<path d="M260.175 99.9346L220.915 122.605C211.665 127.945 195.515 127.275 184.835 121.105C174.155 114.935 172.995 105.615 182.245 100.275L221.505 77.6046C230.755 72.2646 246.905 72.9346 257.585 79.1046C268.265 85.2746 269.425 94.5946 260.175 99.9346Z" fill="black" fill-opacity="0.1"/>
<path d="M203 87C203 89.2091 204.791 91 207 91C209.209 91 211 89.2091 211 87C211 84.7909 209.209 83 207 83C204.791 83 203 84.7909 203 87ZM206.25 48L206.25 87L207.75 87L207.75 48L206.25 48Z" fill="var(--web-system-color-articleFigure-foreground-primary, #8FAEFE)"/>
<path d="M136.5 36C136.5 34.067 138.067 32.5 140 32.5H277C278.933 32.5 280.5 34.067 280.5 36V48C280.5 49.933 278.933 51.5 277 51.5H140C138.067 51.5 136.5 49.933 136.5 48V36Z" fill="var(--web-system-color-articleFigure-foreground-tertiary, #EFF2FC)"/>
<path d="M136.5 36C136.5 34.067 138.067 32.5 140 32.5H277C278.933 32.5 280.5 34.067 280.5 36V48C280.5 49.933 278.933 51.5 277 51.5H140C138.067 51.5 136.5 49.933 136.5 48V36Z" stroke="var(--web-system-color-articleFigure-foreground-primary, #8FAEFE)"/>
<path d="M144.518 44.3184C144.518 44.1621 144.482 44.0176 144.412 43.8848C144.346 43.748 144.207 43.625 143.996 43.5156C143.789 43.4023 143.477 43.3047 143.059 43.2227C142.707 43.1484 142.389 43.0605 142.104 42.959C141.822 42.8574 141.582 42.7344 141.383 42.5898C141.188 42.4453 141.037 42.2754 140.932 42.0801C140.826 41.8848 140.773 41.6562 140.773 41.3945C140.773 41.1445 140.828 40.9082 140.938 40.6855C141.051 40.4629 141.209 40.2656 141.412 40.0938C141.619 39.9219 141.867 39.7871 142.156 39.6895C142.445 39.5918 142.768 39.543 143.123 39.543C143.631 39.543 144.064 39.6328 144.424 39.8125C144.783 39.9922 145.059 40.2324 145.25 40.5332C145.441 40.8301 145.537 41.1602 145.537 41.5234H144.453C144.453 41.3477 144.4 41.1777 144.295 41.0137C144.193 40.8457 144.043 40.707 143.844 40.5977C143.648 40.4883 143.408 40.4336 143.123 40.4336C142.822 40.4336 142.578 40.4805 142.391 40.5742C142.207 40.6641 142.072 40.7793 141.986 40.9199C141.904 41.0605 141.863 41.209 141.863 41.3652C141.863 41.4824 141.883 41.5879 141.922 41.6816C141.965 41.7715 142.039 41.8555 142.145 41.9336C142.25 42.0078 142.398 42.0781 142.59 42.1445C142.781 42.2109 143.025 42.2773 143.322 42.3438C143.842 42.4609 144.27 42.6016 144.605 42.7656C144.941 42.9297 145.191 43.1309 145.355 43.3691C145.52 43.6074 145.602 43.8965 145.602 44.2363C145.602 44.5137 145.543 44.7676 145.426 44.998C145.312 45.2285 145.146 45.4277 144.928 45.5957C144.713 45.7598 144.455 45.8887 144.154 45.9824C143.857 46.0723 143.523 46.1172 143.152 46.1172C142.594 46.1172 142.121 46.0176 141.734 45.8184C141.348 45.6191 141.055 45.3613 140.855 45.0449C140.656 44.7285 140.557 44.3945 140.557 44.043H141.646C141.662 44.3398 141.748 44.5762 141.904 44.752C142.061 44.9238 142.252 45.0469 142.479 45.1211C142.705 45.1914 142.93 45.2266 143.152 45.2266C143.449 45.2266 143.697 45.1875 143.896 45.1094C144.1 45.0312 144.254 44.9238 144.359 44.7871C144.465 44.6504 144.518 44.4941 144.518 44.3184ZM151.021 44.7695V37H152.111V46H151.115L151.021 44.7695ZM146.756 42.9004V42.7773C146.756 42.293 146.814 41.8535 146.932 41.459C147.053 41.0605 147.223 40.7188 147.441 40.4336C147.664 40.1484 147.928 39.9297 148.232 39.7773C148.541 39.6211 148.885 39.543 149.264 39.543C149.662 39.543 150.01 39.6133 150.307 39.7539C150.607 39.8906 150.861 40.0918 151.068 40.3574C151.279 40.6191 151.445 40.9355 151.566 41.3066C151.688 41.6777 151.771 42.0977 151.818 42.5664V43.1055C151.775 43.5703 151.691 43.9883 151.566 44.3594C151.445 44.7305 151.279 45.0469 151.068 45.3086C150.861 45.5703 150.607 45.7715 150.307 45.9121C150.006 46.0488 149.654 46.1172 149.252 46.1172C148.881 46.1172 148.541 46.0371 148.232 45.877C147.928 45.7168 147.664 45.4922 147.441 45.2031C147.223 44.9141 147.053 44.5742 146.932 44.1836C146.814 43.7891 146.756 43.3613 146.756 42.9004ZM147.846 42.7773V42.9004C147.846 43.2168 147.877 43.5137 147.939 43.791C148.006 44.0684 148.107 44.3125 148.244 44.5234C148.381 44.7344 148.555 44.9004 148.766 45.0215C148.977 45.1387 149.229 45.1973 149.521 45.1973C149.881 45.1973 150.176 45.1211 150.406 44.9688C150.641 44.8164 150.828 44.6152 150.969 44.3652C151.109 44.1152 151.219 43.8438 151.297 43.5508V42.1387C151.25 41.9238 151.182 41.7168 151.092 41.5176C151.006 41.3145 150.893 41.1348 150.752 40.9785C150.615 40.8184 150.445 40.6914 150.242 40.5977C150.043 40.5039 149.807 40.457 149.533 40.457C149.236 40.457 148.98 40.5195 148.766 40.6445C148.555 40.7656 148.381 40.9336 148.244 41.1484C148.107 41.3594 148.006 41.6055 147.939 41.8867C147.877 42.1641 147.846 42.4609 147.846 42.7773ZM157.572 37.4688L154.016 46.7324H153.084L156.646 37.4688H157.572ZM158.773 45.4258C158.773 45.2422 158.83 45.0879 158.943 44.9629C159.061 44.834 159.229 44.7695 159.447 44.7695C159.666 44.7695 159.832 44.834 159.945 44.9629C160.062 45.0879 160.121 45.2422 160.121 45.4258C160.121 45.6055 160.062 45.7578 159.945 45.8828C159.832 46.0078 159.666 46.0703 159.447 46.0703C159.229 46.0703 159.061 46.0078 158.943 45.8828C158.83 45.7578 158.773 45.6055 158.773 45.4258ZM161.938 45.4258C161.938 45.2422 161.994 45.0879 162.107 44.9629C162.225 44.834 162.393 44.7695 162.611 44.7695C162.83 44.7695 162.996 44.834 163.109 44.9629C163.227 45.0879 163.285 45.2422 163.285 45.4258C163.285 45.6055 163.227 45.7578 163.109 45.8828C162.996 46.0078 162.83 46.0703 162.611 46.0703C162.393 46.0703 162.225 46.0078 162.107 45.8828C161.994 45.7578 161.938 45.6055 161.938 45.4258ZM165.102 45.4258C165.102 45.2422 165.158 45.0879 165.271 44.9629C165.389 44.834 165.557 44.7695 165.775 44.7695C165.994 44.7695 166.16 44.834 166.273 44.9629C166.391 45.0879 166.449 45.2422 166.449 45.4258C166.449 45.6055 166.391 45.7578 166.273 45.8828C166.16 46.0078 165.994 46.0703 165.775 46.0703C165.557 46.0703 165.389 46.0078 165.271 45.8828C165.158 45.7578 165.102 45.6055 165.102 45.4258ZM172.021 37.4688L168.465 46.7324H167.533L171.096 37.4688H172.021ZM174.383 39.6602V46H173.293V39.6602H174.383ZM173.211 37.9785C173.211 37.8027 173.264 37.6543 173.369 37.5332C173.479 37.4121 173.639 37.3516 173.85 37.3516C174.057 37.3516 174.215 37.4121 174.324 37.5332C174.438 37.6543 174.494 37.8027 174.494 37.9785C174.494 38.1465 174.438 38.291 174.324 38.4121C174.215 38.5293 174.057 38.5879 173.85 38.5879C173.639 38.5879 173.479 38.5293 173.369 38.4121C173.264 38.291 173.211 38.1465 173.211 37.9785ZM177.207 41.0137V46H176.123V39.6602H177.148L177.207 41.0137ZM176.949 42.5898L176.498 42.5723C176.502 42.1387 176.566 41.7383 176.691 41.3711C176.816 41 176.992 40.6777 177.219 40.4043C177.445 40.1309 177.715 39.9199 178.027 39.7715C178.344 39.6191 178.693 39.543 179.076 39.543C179.389 39.543 179.67 39.5859 179.92 39.6719C180.17 39.7539 180.383 39.8867 180.559 40.0703C180.738 40.2539 180.875 40.4922 180.969 40.7852C181.062 41.0742 181.109 41.4277 181.109 41.8457V46H180.02V41.834C180.02 41.502 179.971 41.2363 179.873 41.0371C179.775 40.834 179.633 40.6875 179.445 40.5977C179.258 40.5039 179.027 40.457 178.754 40.457C178.484 40.457 178.238 40.5137 178.016 40.627C177.797 40.7402 177.607 40.8965 177.447 41.0957C177.291 41.2949 177.168 41.5234 177.078 41.7812C176.992 42.0352 176.949 42.3047 176.949 42.5898ZM185.41 39.6602V40.4922H181.982V39.6602H185.41ZM183.143 38.1191H184.227V44.4297C184.227 44.6445 184.26 44.8066 184.326 44.916C184.393 45.0254 184.479 45.0977 184.584 45.1328C184.689 45.168 184.803 45.1855 184.924 45.1855C185.014 45.1855 185.107 45.1777 185.205 45.1621C185.307 45.1426 185.383 45.127 185.434 45.1152L185.439 46C185.354 46.0273 185.24 46.0527 185.1 46.0762C184.963 46.1035 184.797 46.1172 184.602 46.1172C184.336 46.1172 184.092 46.0645 183.869 45.959C183.646 45.8535 183.469 45.6777 183.336 45.4316C183.207 45.1816 183.143 44.8457 183.143 44.4238V38.1191ZM189.312 46.1172C188.871 46.1172 188.471 46.043 188.111 45.8945C187.756 45.7422 187.449 45.5293 187.191 45.2559C186.938 44.9824 186.742 44.6582 186.605 44.2832C186.469 43.9082 186.4 43.498 186.4 43.0527V42.8066C186.4 42.291 186.477 41.832 186.629 41.4297C186.781 41.0234 186.988 40.6797 187.25 40.3984C187.512 40.1172 187.809 39.9043 188.141 39.7598C188.473 39.6152 188.816 39.543 189.172 39.543C189.625 39.543 190.016 39.6211 190.344 39.7773C190.676 39.9336 190.947 40.1523 191.158 40.4336C191.369 40.7109 191.525 41.0391 191.627 41.418C191.729 41.793 191.779 42.2031 191.779 42.6484V43.1348H187.045V42.25H190.695V42.168C190.68 41.8867 190.621 41.6133 190.52 41.3477C190.422 41.082 190.266 40.8633 190.051 40.6914C189.836 40.5195 189.543 40.4336 189.172 40.4336C188.926 40.4336 188.699 40.4863 188.492 40.5918C188.285 40.6934 188.107 40.8457 187.959 41.0488C187.811 41.252 187.695 41.5 187.613 41.793C187.531 42.0859 187.49 42.4238 187.49 42.8066V43.0527C187.49 43.3535 187.531 43.6367 187.613 43.9023C187.699 44.1641 187.822 44.3945 187.982 44.5938C188.146 44.793 188.344 44.9492 188.574 45.0625C188.809 45.1758 189.074 45.2324 189.371 45.2324C189.754 45.2324 190.078 45.1543 190.344 44.998C190.609 44.8418 190.842 44.6328 191.041 44.3711L191.697 44.8926C191.561 45.0996 191.387 45.2969 191.176 45.4844C190.965 45.6719 190.705 45.8242 190.396 45.9414C190.092 46.0586 189.73 46.1172 189.312 46.1172ZM194.129 40.6562V46H193.045V39.6602H194.1L194.129 40.6562ZM196.109 39.625L196.104 40.6328C196.014 40.6133 195.928 40.6016 195.846 40.5977C195.768 40.5898 195.678 40.5859 195.576 40.5859C195.326 40.5859 195.105 40.625 194.914 40.7031C194.723 40.7812 194.561 40.8906 194.428 41.0312C194.295 41.1719 194.189 41.3398 194.111 41.5352C194.037 41.7266 193.988 41.9375 193.965 42.168L193.66 42.3438C193.66 41.9609 193.697 41.6016 193.771 41.2656C193.85 40.9297 193.969 40.6328 194.129 40.375C194.289 40.1133 194.492 39.9102 194.738 39.7656C194.988 39.6172 195.285 39.543 195.629 39.543C195.707 39.543 195.797 39.5527 195.898 39.5723C196 39.5879 196.07 39.6055 196.109 39.625ZM200.615 44.916V41.6523C200.615 41.4023 200.564 41.1855 200.463 41.002C200.365 40.8145 200.217 40.6699 200.018 40.5684C199.818 40.4668 199.572 40.416 199.279 40.416C199.006 40.416 198.766 40.4629 198.559 40.5566C198.355 40.6504 198.195 40.7734 198.078 40.9258C197.965 41.0781 197.908 41.2422 197.908 41.418H196.824C196.824 41.1914 196.883 40.9668 197 40.7441C197.117 40.5215 197.285 40.3203 197.504 40.1406C197.727 39.957 197.992 39.8125 198.301 39.707C198.613 39.5977 198.961 39.543 199.344 39.543C199.805 39.543 200.211 39.6211 200.562 39.7773C200.918 39.9336 201.195 40.1699 201.395 40.4863C201.598 40.7988 201.699 41.1914 201.699 41.6641V44.6172C201.699 44.8281 201.717 45.0527 201.752 45.291C201.791 45.5293 201.848 45.7344 201.922 45.9062V46H200.791C200.736 45.875 200.693 45.709 200.662 45.502C200.631 45.291 200.615 45.0957 200.615 44.916ZM200.803 42.1562L200.814 42.918H199.719C199.41 42.918 199.135 42.9434 198.893 42.9941C198.65 43.041 198.447 43.1133 198.283 43.2109C198.119 43.3086 197.994 43.4316 197.908 43.5801C197.822 43.7246 197.779 43.8945 197.779 44.0898C197.779 44.2891 197.824 44.4707 197.914 44.6348C198.004 44.7988 198.139 44.9297 198.318 45.0273C198.502 45.1211 198.727 45.168 198.992 45.168C199.324 45.168 199.617 45.0977 199.871 44.957C200.125 44.8164 200.326 44.6445 200.475 44.4414C200.627 44.2383 200.709 44.041 200.721 43.8496L201.184 44.3711C201.156 44.5352 201.082 44.7168 200.961 44.916C200.84 45.1152 200.678 45.3066 200.475 45.4902C200.275 45.6699 200.037 45.8203 199.76 45.9414C199.486 46.0586 199.178 46.1172 198.834 46.1172C198.404 46.1172 198.027 46.0332 197.703 45.8652C197.383 45.6973 197.133 45.4727 196.953 45.1914C196.777 44.9062 196.689 44.5879 196.689 44.2363C196.689 43.8965 196.756 43.5977 196.889 43.3398C197.021 43.0781 197.213 42.8613 197.463 42.6895C197.713 42.5137 198.014 42.3809 198.365 42.291C198.717 42.2012 199.109 42.1562 199.543 42.1562H200.803ZM205.941 45.2266C206.199 45.2266 206.438 45.1738 206.656 45.0684C206.875 44.9629 207.055 44.8184 207.195 44.6348C207.336 44.4473 207.416 44.2344 207.436 43.9961H208.467C208.447 44.3711 208.32 44.7207 208.086 45.0449C207.855 45.3652 207.553 45.625 207.178 45.8242C206.803 46.0195 206.391 46.1172 205.941 46.1172C205.465 46.1172 205.049 46.0332 204.693 45.8652C204.342 45.6973 204.049 45.4668 203.814 45.1738C203.584 44.8809 203.41 44.5449 203.293 44.166C203.18 43.7832 203.123 43.3789 203.123 42.9531V42.707C203.123 42.2812 203.18 41.8789 203.293 41.5C203.41 41.1172 203.584 40.7793 203.814 40.4863C204.049 40.1934 204.342 39.9629 204.693 39.7949C205.049 39.627 205.465 39.543 205.941 39.543C206.438 39.543 206.871 39.6445 207.242 39.8477C207.613 40.0469 207.904 40.3203 208.115 40.668C208.33 41.0117 208.447 41.4023 208.467 41.8398H207.436C207.416 41.5781 207.342 41.3418 207.213 41.1309C207.088 40.9199 206.916 40.752 206.697 40.627C206.482 40.498 206.23 40.4336 205.941 40.4336C205.609 40.4336 205.33 40.5 205.104 40.6328C204.881 40.7617 204.703 40.9375 204.57 41.1602C204.441 41.3789 204.348 41.623 204.289 41.8926C204.234 42.1582 204.207 42.4297 204.207 42.707V42.9531C204.207 43.2305 204.234 43.5039 204.289 43.7734C204.344 44.043 204.436 44.2871 204.564 44.5059C204.697 44.7246 204.875 44.9004 205.098 45.0332C205.324 45.1621 205.605 45.2266 205.941 45.2266ZM212.34 39.6602V40.4922H208.912V39.6602H212.34ZM210.072 38.1191H211.156V44.4297C211.156 44.6445 211.189 44.8066 211.256 44.916C211.322 45.0254 211.408 45.0977 211.514 45.1328C211.619 45.168 211.732 45.1855 211.854 45.1855C211.943 45.1855 212.037 45.1777 212.135 45.1621C212.236 45.1426 212.312 45.127 212.363 45.1152L212.369 46C212.283 46.0273 212.17 46.0527 212.029 46.0762C211.893 46.1035 211.727 46.1172 211.531 46.1172C211.266 46.1172 211.021 46.0645 210.799 45.959C210.576 45.8535 210.398 45.6777 210.266 45.4316C210.137 45.1816 210.072 44.8457 210.072 44.4238V38.1191ZM214.789 39.6602V46H213.699V39.6602H214.789ZM213.617 37.9785C213.617 37.8027 213.67 37.6543 213.775 37.5332C213.885 37.4121 214.045 37.3516 214.256 37.3516C214.463 37.3516 214.621 37.4121 214.73 37.5332C214.844 37.6543 214.9 37.8027 214.9 37.9785C214.9 38.1465 214.844 38.291 214.73 38.4121C214.621 38.5293 214.463 38.5879 214.256 38.5879C214.045 38.5879 213.885 38.5293 213.775 38.4121C213.67 38.291 213.617 38.1465 213.617 37.9785ZM216.242 42.9004V42.7656C216.242 42.3086 216.309 41.8848 216.441 41.4941C216.574 41.0996 216.766 40.7578 217.016 40.4688C217.266 40.1758 217.568 39.9492 217.924 39.7891C218.279 39.625 218.678 39.543 219.119 39.543C219.564 39.543 219.965 39.625 220.32 39.7891C220.68 39.9492 220.984 40.1758 221.234 40.4688C221.488 40.7578 221.682 41.0996 221.814 41.4941C221.947 41.8848 222.014 42.3086 222.014 42.7656V42.9004C222.014 43.3574 221.947 43.7812 221.814 44.1719C221.682 44.5625 221.488 44.9043 221.234 45.1973C220.984 45.4863 220.682 45.7129 220.326 45.877C219.975 46.0371 219.576 46.1172 219.131 46.1172C218.686 46.1172 218.285 46.0371 217.93 45.877C217.574 45.7129 217.27 45.4863 217.016 45.1973C216.766 44.9043 216.574 44.5625 216.441 44.1719C216.309 43.7812 216.242 43.3574 216.242 42.9004ZM217.326 42.7656V42.9004C217.326 43.2168 217.363 43.5156 217.438 43.7969C217.512 44.0742 217.623 44.3203 217.771 44.5352C217.924 44.75 218.113 44.9199 218.34 45.0449C218.566 45.166 218.83 45.2266 219.131 45.2266C219.428 45.2266 219.688 45.166 219.91 45.0449C220.137 44.9199 220.324 44.75 220.473 44.5352C220.621 44.3203 220.732 44.0742 220.807 43.7969C220.885 43.5156 220.924 43.2168 220.924 42.9004V42.7656C220.924 42.4531 220.885 42.1582 220.807 41.8809C220.732 41.5996 220.619 41.3516 220.467 41.1367C220.318 40.918 220.131 40.7461 219.904 40.6211C219.682 40.4961 219.42 40.4336 219.119 40.4336C218.822 40.4336 218.561 40.4961 218.334 40.6211C218.111 40.7461 217.924 40.918 217.771 41.1367C217.623 41.3516 217.512 41.5996 217.438 41.8809C217.363 42.1582 217.326 42.4531 217.326 42.7656ZM224.457 41.0137V46H223.373V39.6602H224.398L224.457 41.0137ZM224.199 42.5898L223.748 42.5723C223.752 42.1387 223.816 41.7383 223.941 41.3711C224.066 41 224.242 40.6777 224.469 40.4043C224.695 40.1309 224.965 39.9199 225.277 39.7715C225.594 39.6191 225.943 39.543 226.326 39.543C226.639 39.543 226.92 39.5859 227.17 39.6719C227.42 39.7539 227.633 39.8867 227.809 40.0703C227.988 40.2539 228.125 40.4922 228.219 40.7852C228.312 41.0742 228.359 41.4277 228.359 41.8457V46H227.27V41.834C227.27 41.502 227.221 41.2363 227.123 41.0371C227.025 40.834 226.883 40.6875 226.695 40.5977C226.508 40.5039 226.277 40.457 226.004 40.457C225.734 40.457 225.488 40.5137 225.266 40.627C225.047 40.7402 224.857 40.8965 224.697 41.0957C224.541 41.2949 224.418 41.5234 224.328 41.7812C224.242 42.0352 224.199 42.3047 224.199 42.5898ZM233.779 37.4688L230.223 46.7324H229.291L232.854 37.4688H233.779ZM236.047 37V46H234.963V37H236.047ZM235.789 42.5898L235.338 42.5723C235.342 42.1387 235.406 41.7383 235.531 41.3711C235.656 41 235.832 40.6777 236.059 40.4043C236.285 40.1309 236.555 39.9199 236.867 39.7715C237.184 39.6191 237.533 39.543 237.916 39.543C238.229 39.543 238.51 39.5859 238.76 39.6719C239.01 39.7539 239.223 39.8867 239.398 40.0703C239.578 40.2539 239.715 40.4922 239.809 40.7852C239.902 41.0742 239.949 41.4277 239.949 41.8457V46H238.859V41.834C238.859 41.502 238.811 41.2363 238.713 41.0371C238.615 40.834 238.473 40.6875 238.285 40.5977C238.098 40.5039 237.867 40.457 237.594 40.457C237.324 40.457 237.078 40.5137 236.855 40.627C236.637 40.7402 236.447 40.8965 236.287 41.0957C236.131 41.2949 236.008 41.5234 235.918 41.7812C235.832 42.0352 235.789 42.3047 235.789 42.5898ZM241.285 42.9004V42.7656C241.285 42.3086 241.352 41.8848 241.484 41.4941C241.617 41.0996 241.809 40.7578 242.059 40.4688C242.309 40.1758 242.611 39.9492 242.967 39.7891C243.322 39.625 243.721 39.543 244.162 39.543C244.607 39.543 245.008 39.625 245.363 39.7891C245.723 39.9492 246.027 40.1758 246.277 40.4688C246.531 40.7578 246.725 41.0996 246.857 41.4941C246.99 41.8848 247.057 42.3086 247.057 42.7656V42.9004C247.057 43.3574 246.99 43.7812 246.857 44.1719C246.725 44.5625 246.531 44.9043 246.277 45.1973C246.027 45.4863 245.725 45.7129 245.369 45.877C245.018 46.0371 244.619 46.1172 244.174 46.1172C243.729 46.1172 243.328 46.0371 242.973 45.877C242.617 45.7129 242.312 45.4863 242.059 45.1973C241.809 44.9043 241.617 44.5625 241.484 44.1719C241.352 43.7812 241.285 43.3574 241.285 42.9004ZM242.369 42.7656V42.9004C242.369 43.2168 242.406 43.5156 242.48 43.7969C242.555 44.0742 242.666 44.3203 242.814 44.5352C242.967 44.75 243.156 44.9199 243.383 45.0449C243.609 45.166 243.873 45.2266 244.174 45.2266C244.471 45.2266 244.73 45.166 244.953 45.0449C245.18 44.9199 245.367 44.75 245.516 44.5352C245.664 44.3203 245.775 44.0742 245.85 43.7969C245.928 43.5156 245.967 43.2168 245.967 42.9004V42.7656C245.967 42.4531 245.928 42.1582 245.85 41.8809C245.775 41.5996 245.662 41.3516 245.51 41.1367C245.361 40.918 245.174 40.7461 244.947 40.6211C244.725 40.4961 244.463 40.4336 244.162 40.4336C243.865 40.4336 243.604 40.4961 243.377 40.6211C243.154 40.7461 242.967 40.918 242.814 41.1367C242.666 41.3516 242.555 41.5996 242.48 41.8809C242.406 42.1582 242.369 42.4531 242.369 42.7656ZM250.25 45.0215L251.984 39.6602H253.092L250.812 46H250.086L250.25 45.0215ZM248.803 39.6602L250.59 45.0508L250.713 46H249.986L247.689 39.6602H248.803ZM256.684 46.1172C256.242 46.1172 255.842 46.043 255.482 45.8945C255.127 45.7422 254.82 45.5293 254.562 45.2559C254.309 44.9824 254.113 44.6582 253.977 44.2832C253.84 43.9082 253.771 43.498 253.771 43.0527V42.8066C253.771 42.291 253.848 41.832 254 41.4297C254.152 41.0234 254.359 40.6797 254.621 40.3984C254.883 40.1172 255.18 39.9043 255.512 39.7598C255.844 39.6152 256.188 39.543 256.543 39.543C256.996 39.543 257.387 39.6211 257.715 39.7773C258.047 39.9336 258.318 40.1523 258.529 40.4336C258.74 40.7109 258.896 41.0391 258.998 41.418C259.1 41.793 259.15 42.2031 259.15 42.6484V43.1348H254.416V42.25H258.066V42.168C258.051 41.8867 257.992 41.6133 257.891 41.3477C257.793 41.082 257.637 40.8633 257.422 40.6914C257.207 40.5195 256.914 40.4336 256.543 40.4336C256.297 40.4336 256.07 40.4863 255.863 40.5918C255.656 40.6934 255.479 40.8457 255.33 41.0488C255.182 41.252 255.066 41.5 254.984 41.793C254.902 42.0859 254.861 42.4238 254.861 42.8066V43.0527C254.861 43.3535 254.902 43.6367 254.984 43.9023C255.07 44.1641 255.193 44.3945 255.354 44.5938C255.518 44.793 255.715 44.9492 255.945 45.0625C256.18 45.1758 256.445 45.2324 256.742 45.2324C257.125 45.2324 257.449 45.1543 257.715 44.998C257.98 44.8418 258.213 44.6328 258.412 44.3711L259.068 44.8926C258.932 45.0996 258.758 45.2969 258.547 45.4844C258.336 45.6719 258.076 45.8242 257.768 45.9414C257.463 46.0586 257.102 46.1172 256.684 46.1172ZM261.5 40.6562V46H260.416V39.6602H261.471L261.5 40.6562ZM263.48 39.625L263.475 40.6328C263.385 40.6133 263.299 40.6016 263.217 40.5977C263.139 40.5898 263.049 40.5859 262.947 40.5859C262.697 40.5859 262.477 40.625 262.285 40.7031C262.094 40.7812 261.932 40.8906 261.799 41.0312C261.666 41.1719 261.561 41.3398 261.482 41.5352C261.408 41.7266 261.359 41.9375 261.336 42.168L261.031 42.3438C261.031 41.9609 261.068 41.6016 261.143 41.2656C261.221 40.9297 261.34 40.6328 261.5 40.375C261.66 40.1133 261.863 39.9102 262.109 39.7656C262.359 39.6172 262.656 39.543 263 39.543C263.078 39.543 263.168 39.5527 263.27 39.5723C263.371 39.5879 263.441 39.6055 263.48 39.625ZM266.996 46.1172C266.555 46.1172 266.154 46.043 265.795 45.8945C265.439 45.7422 265.133 45.5293 264.875 45.2559C264.621 44.9824 264.426 44.6582 264.289 44.2832C264.152 43.9082 264.084 43.498 264.084 43.0527V42.8066C264.084 42.291 264.16 41.832 264.312 41.4297C264.465 41.0234 264.672 40.6797 264.934 40.3984C265.195 40.1172 265.492 39.9043 265.824 39.7598C266.156 39.6152 266.5 39.543 266.855 39.543C267.309 39.543 267.699 39.6211 268.027 39.7773C268.359 39.9336 268.631 40.1523 268.842 40.4336C269.053 40.7109 269.209 41.0391 269.311 41.418C269.412 41.793 269.463 42.2031 269.463 42.6484V43.1348H264.729V42.25H268.379V42.168C268.363 41.8867 268.305 41.6133 268.203 41.3477C268.105 41.082 267.949 40.8633 267.734 40.6914C267.52 40.5195 267.227 40.4336 266.855 40.4336C266.609 40.4336 266.383 40.4863 266.176 40.5918C265.969 40.6934 265.791 40.8457 265.643 41.0488C265.494 41.252 265.379 41.5 265.297 41.793C265.215 42.0859 265.174 42.4238 265.174 42.8066V43.0527C265.174 43.3535 265.215 43.6367 265.297 43.9023C265.383 44.1641 265.506 44.3945 265.666 44.5938C265.83 44.793 266.027 44.9492 266.258 45.0625C266.492 45.1758 266.758 45.2324 267.055 45.2324C267.438 45.2324 267.762 45.1543 268.027 44.998C268.293 44.8418 268.525 44.6328 268.725 44.3711L269.381 44.8926C269.244 45.0996 269.07 45.2969 268.859 45.4844C268.648 45.6719 268.389 45.8242 268.08 45.9414C267.775 46.0586 267.414 46.1172 266.996 46.1172ZM274.725 44.7695V37H275.814V46H274.818L274.725 44.7695ZM270.459 42.9004V42.7773C270.459 42.293 270.518 41.8535 270.635 41.459C270.756 41.0605 270.926 40.7188 271.145 40.4336C271.367 40.1484 271.631 39.9297 271.936 39.7773C272.244 39.6211 272.588 39.543 272.967 39.543C273.365 39.543 273.713 39.6133 274.01 39.7539C274.311 39.8906 274.564 40.0918 274.771 40.3574C274.982 40.6191 275.148 40.9355 275.27 41.3066C275.391 41.6777 275.475 42.0977 275.521 42.5664V43.1055C275.479 43.5703 275.395 43.9883 275.27 44.3594C275.148 44.7305 274.982 45.0469 274.771 45.3086C274.564 45.5703 274.311 45.7715 274.01 45.9121C273.709 46.0488 273.357 46.1172 272.955 46.1172C272.584 46.1172 272.244 46.0371 271.936 45.877C271.631 45.7168 271.367 45.4922 271.145 45.2031C270.926 44.9141 270.756 44.5742 270.635 44.1836C270.518 43.7891 270.459 43.3613 270.459 42.9004ZM271.549 42.7773V42.9004C271.549 43.2168 271.58 43.5137 271.643 43.791C271.709 44.0684 271.811 44.3125 271.947 44.5234C272.084 44.7344 272.258 44.9004 272.469 45.0215C272.68 45.1387 272.932 45.1973 273.225 45.1973C273.584 45.1973 273.879 45.1211 274.109 44.9688C274.344 44.8164 274.531 44.6152 274.672 44.3652C274.812 44.1152 274.922 43.8438 275 43.5508V42.1387C274.953 41.9238 274.885 41.7168 274.795 41.5176C274.709 41.3145 274.596 41.1348 274.455 40.9785C274.318 40.8184 274.148 40.6914 273.945 40.5977C273.746 40.5039 273.51 40.457 273.236 40.457C272.939 40.457 272.684 40.5195 272.469 40.6445C272.258 40.7656 272.084 40.9336 271.947 41.1484C271.811 41.3594 271.709 41.6055 271.643 41.8867C271.58 42.1641 271.549 42.4609 271.549 42.7773Z" fill="black"/>
<path d="M24 92.5C24 82.835 31.835 75 41.5 75H80.5C90.165 75 98 82.835 98 92.5C98 102.165 90.165 110 80.5 110H41.5C31.835 110 24 102.165 24 92.5Z" fill="#0650A0"/>
<path d="M54.5391 88.8339L53.9024 89.1169C53.643 88.6099 53.2776 87.9733 52.9474 87.537L53.5723 87.2659C53.8788 87.7021 54.3151 88.3977 54.5391 88.8339ZM53.1243 89.1876L52.4876 89.4706C52.2518 88.9872 51.8628 88.3152 51.5444 87.8672L52.1811 87.6078C52.4758 88.0322 52.8767 88.7042 53.1243 89.1876ZM46.2861 92.1941L47.1114 92.5949C46.6162 93.6089 45.5079 95.1062 44.8477 95.8372L44.0342 95.2831C44.8123 94.5521 45.8263 93.1491 46.2861 92.1941ZM52.7588 90.7793H49.6344V96.4856C49.6344 97.1105 49.3279 97.4288 48.6205 97.4288C48.1253 97.4288 47.4179 97.3935 46.9463 97.3463L46.852 96.4031C47.3708 96.4974 47.9131 96.5446 48.2196 96.5446C48.538 96.5446 48.6795 96.4031 48.6795 96.0966V90.7793H45.4018C45.0481 90.7793 44.718 90.7911 44.3997 90.8147V89.8243C44.7298 89.8597 45.0246 89.8832 45.4018 89.8832H48.6795V88.6689C48.6795 88.4095 48.6441 88.0086 48.5969 87.8318H49.7052C49.6698 87.9968 49.6344 88.4213 49.6344 88.6807V89.8832H52.747C53.03 89.8832 53.419 89.8715 53.7138 89.8243V90.8029C53.3955 90.7793 53.0418 90.7793 52.7588 90.7793ZM51.2379 92.6303L52.0396 92.2059C52.6645 92.9604 53.6077 94.4342 54.0793 95.2831L53.2068 95.7665C52.747 94.8468 51.8628 93.3731 51.2379 92.6303ZM64.6195 88.8929L65.3859 89.3645C65.2916 89.5295 65.1855 89.8125 65.1147 90.0011C64.82 91.0387 64.2187 92.3474 63.3934 93.5028C63.8414 93.7857 64.2423 94.0569 64.537 94.2691L63.8886 95.118C63.6056 94.894 63.2165 94.611 62.7685 94.3045C61.7074 95.5189 60.2219 96.6743 58.1468 97.4406L57.2979 96.7097C59.3494 96.0848 60.8821 94.9529 61.955 93.7739C61.0236 93.1727 60.0332 92.5832 59.373 92.2177L59.9743 91.5221C60.6581 91.8758 61.6485 92.4417 62.5681 92.9958C63.2873 91.9937 63.865 90.7793 64.089 89.8479H60.0804C59.3258 90.8972 58.2765 92.0526 56.956 92.9486L56.1661 92.3356C58.194 91.0858 59.4201 89.3173 59.9507 88.2444C60.0686 88.0322 60.2454 87.6078 60.328 87.3012L61.3891 87.6431C61.2004 87.9497 60.9882 88.3505 60.8703 88.5746C60.7996 88.716 60.717 88.8575 60.6227 89.0108H63.8414C64.1597 89.0108 64.4191 88.9754 64.6195 88.8929ZM69.5713 88.2798C70.4084 88.8339 71.9175 90.0601 72.5778 90.7203L71.835 91.4631C71.2455 90.85 69.7718 89.5885 68.8993 88.999L69.5713 88.2798ZM68.5574 96.1791C70.6206 95.8726 72.1533 95.1534 73.2734 94.4578C75.0891 93.3141 76.5274 91.5692 77.2113 90.119L77.7772 91.1212C76.9637 92.5949 75.596 94.1984 73.8157 95.3066C72.6367 96.0612 71.1512 96.7804 69.1823 97.1459L68.5574 96.1791Z" fill="white"/>
<g filter="url(#filter0_d_12495_56722)">
<path d="M88.7682 112.044L86.4477 115.29L85.021 103.328L94.667 110.545L90.686 110.936L95.0155 118.435L93.0977 119.543L88.7682 112.044Z" fill="black"/>
<path d="M91.5068 111.358L94.716 111.042L95.998 110.916L94.9665 110.144L85.3205 102.928L84.3863 102.229L84.5245 103.387L85.9512 115.349L86.104 116.631L86.8544 115.581L88.7234 112.966L92.6647 119.793L92.9147 120.226L93.3477 119.976L95.2655 118.868L95.6985 118.618L95.4485 118.185L91.5068 111.358Z" stroke="white"/>
</g>
<path d="M135 17H126C121.582 17 118 20.5817 118 25V85C118 89.4183 114.418 93 110 93H107" stroke="#AFAEAA"/>
<path d="M135 169H126C121.582 169 118 165.418 118 161V101C118 96.5817 114.418 93 110 93H108" stroke="#AFAEAA"/>
</g>
<defs>
<filter id="filter0_d_12495_56722" x="82.1771" y="101.133" width="16.7264" height="22.9222" filterUnits="userSpaceOnUse" color-interpolation-filters="sRGB">
<feFlood flood-opacity="0" result="BackgroundImageFix"/>
<feColorMatrix in="SourceAlpha" type="matrix" values="0 0 0 0 0 0 0 0 0 0 0 0 0 0 0 0 0 0 127 0" result="hardAlpha"/>
<feOffset dy="1.57436"/>
<feGaussianBlur stdDeviation="0.78718"/>
<feComposite in2="hardAlpha" operator="out"/>
<feColorMatrix type="matrix" values="0 0 0 0 0 0 0 0 0 0 0 0 0 0 0 0 0 0 0.15 0"/>
<feBlend mode="normal" in2="BackgroundImageFix" result="effect1_dropShadow_12495_56722"/>
<feBlend mode="normal" in="SourceGraphic" in2="effect1_dropShadow_12495_56722" result="shape"/>
</filter>
<clipPath id="clip0_12495_56722">
<rect width="310" height="186" rx="12" fill="white"/>
</clipPath>
</defs>
</svg>
