<svg width="310" height="186" viewBox="0 0 310 186" fill="none" xmlns="http://www.w3.org/2000/svg">
<rect width="310" height="186" rx="12" fill="var(--web-system-color-articleFigure-background, #F5F5F5)"/>
<rect x="40.5" y="20.5" width="229" height="147" rx="31.5" stroke="#C8C7C2"/>
<rect width="82" height="25" transform="translate(114 8)" fill="var(--web-system-color-articleFigure-background, #F5F5F5)"/>
<path d="M126.114 16.2727V25H125.057V16.2727H126.114ZM128.096 25V18.4545H129.068V19.4773H129.153C129.289 19.1278 129.51 18.8565 129.814 18.6634C130.118 18.4673 130.483 18.3693 130.909 18.3693C131.341 18.3693 131.7 18.4673 131.987 18.6634C132.277 18.8565 132.502 19.1278 132.664 19.4773H132.733C132.9 19.1392 133.152 18.8707 133.487 18.6719C133.822 18.4702 134.224 18.3693 134.693 18.3693C135.278 18.3693 135.757 18.5526 136.129 18.919C136.501 19.2827 136.687 19.8494 136.687 20.6193V25H135.681V20.6193C135.681 20.1364 135.549 19.7912 135.285 19.5838C135.021 19.3764 134.71 19.2727 134.352 19.2727C133.892 19.2727 133.535 19.4119 133.282 19.6903C133.029 19.9659 132.903 20.3153 132.903 20.7386V25H131.88V20.517C131.88 20.1449 131.76 19.8452 131.518 19.6179C131.277 19.3878 130.966 19.2727 130.585 19.2727C130.324 19.2727 130.079 19.3423 129.852 19.4815C129.627 19.6207 129.446 19.8139 129.306 20.0611C129.17 20.3054 129.102 20.5881 129.102 20.9091V25H128.096ZM138.526 27.4545V18.4545H139.498V19.4943H139.617C139.691 19.3807 139.793 19.2358 139.924 19.0597C140.057 18.8807 140.248 18.7216 140.495 18.5824C140.745 18.4403 141.083 18.3693 141.509 18.3693C142.06 18.3693 142.546 18.5071 142.966 18.7827C143.387 19.0582 143.715 19.4489 143.951 19.9545C144.186 20.4602 144.304 21.0568 144.304 21.7443C144.304 22.4375 144.186 23.0384 143.951 23.5469C143.715 24.0526 143.388 24.4446 142.971 24.723C142.553 24.9986 142.071 25.1364 141.526 25.1364C141.105 25.1364 140.769 25.0668 140.516 24.9276C140.263 24.7855 140.069 24.625 139.932 24.446C139.796 24.2642 139.691 24.1136 139.617 23.9943H139.532V27.4545H138.526ZM139.515 21.7273C139.515 22.2216 139.587 22.6577 139.732 23.0355C139.877 23.4105 140.088 23.7045 140.367 23.9176C140.645 24.1278 140.986 24.233 141.39 24.233C141.81 24.233 142.161 24.1222 142.442 23.9006C142.726 23.6761 142.939 23.375 143.081 22.9972C143.226 22.6165 143.299 22.1932 143.299 21.7273C143.299 21.267 143.228 20.8523 143.086 20.483C142.946 20.1108 142.735 19.8168 142.451 19.6009C142.169 19.3821 141.816 19.2727 141.39 19.2727C140.98 19.2727 140.637 19.3764 140.358 19.5838C140.08 19.7884 139.87 20.0753 139.728 20.4446C139.586 20.8111 139.515 21.2386 139.515 21.7273ZM145.838 25V18.4545H146.81V19.4432H146.878C146.998 19.1193 147.213 18.8565 147.526 18.6548C147.838 18.4531 148.191 18.3523 148.583 18.3523C148.657 18.3523 148.749 18.3537 148.86 18.3565C148.971 18.3594 149.054 18.3636 149.111 18.3693V19.392C149.077 19.3835 148.999 19.3707 148.877 19.3537C148.757 19.3338 148.631 19.3239 148.498 19.3239C148.179 19.3239 147.895 19.3906 147.645 19.5241C147.398 19.6548 147.202 19.8366 147.057 20.0696C146.915 20.2997 146.844 20.5625 146.844 20.858V25H145.838ZM152.848 25.1364C152.218 25.1364 151.674 24.9972 151.216 24.7188C150.762 24.4375 150.411 24.0455 150.164 23.5426C149.919 23.0369 149.797 22.4489 149.797 21.7784C149.797 21.108 149.919 20.517 150.164 20.0057C150.411 19.4915 150.755 19.0909 151.195 18.804C151.638 18.5142 152.155 18.3693 152.746 18.3693C153.087 18.3693 153.424 18.4261 153.756 18.5398C154.088 18.6534 154.391 18.8381 154.664 19.0938C154.936 19.3466 155.154 19.6818 155.316 20.0994C155.478 20.517 155.559 21.0312 155.559 21.642V22.0682H150.513V21.1989H154.536C154.536 20.8295 154.462 20.5 154.314 20.2102C154.169 19.9205 153.962 19.6918 153.692 19.5241C153.425 19.3565 153.11 19.2727 152.746 19.2727C152.346 19.2727 151.999 19.3722 151.706 19.571C151.417 19.767 151.194 20.0227 151.037 20.3381C150.881 20.6534 150.803 20.9915 150.803 21.3523V21.9318C150.803 22.4261 150.888 22.8452 151.059 23.1889C151.232 23.5298 151.472 23.7898 151.779 23.9688C152.086 24.1449 152.442 24.233 152.848 24.233C153.113 24.233 153.351 24.196 153.564 24.1222C153.78 24.0455 153.966 23.9318 154.123 23.7812C154.279 23.6278 154.4 23.4375 154.485 23.2102L155.456 23.483C155.354 23.8125 155.182 24.1023 154.941 24.3523C154.699 24.5994 154.401 24.7926 154.046 24.9318C153.691 25.0682 153.292 25.1364 152.848 25.1364ZM161.725 19.9205L160.821 20.1761C160.765 20.0256 160.681 19.8793 160.57 19.7372C160.462 19.5923 160.314 19.473 160.127 19.3793C159.939 19.2855 159.699 19.2386 159.407 19.2386C159.006 19.2386 158.672 19.331 158.405 19.5156C158.141 19.6974 158.009 19.929 158.009 20.2102C158.009 20.4602 158.1 20.6577 158.282 20.8026C158.463 20.9474 158.748 21.0682 159.134 21.1648L160.105 21.4034C160.691 21.5455 161.127 21.7628 161.414 22.0554C161.701 22.3452 161.844 22.7187 161.844 23.1761C161.844 23.5511 161.736 23.8864 161.52 24.1818C161.307 24.4773 161.009 24.7102 160.625 24.8807C160.242 25.0511 159.796 25.1364 159.287 25.1364C158.62 25.1364 158.067 24.9915 157.63 24.7017C157.192 24.4119 156.915 23.9886 156.799 23.4318L157.753 23.1932C157.844 23.5455 158.016 23.8097 158.269 23.9858C158.525 24.1619 158.858 24.25 159.27 24.25C159.739 24.25 160.111 24.1506 160.387 23.9517C160.665 23.75 160.804 23.5085 160.804 23.2273C160.804 23 160.725 22.8097 160.566 22.6562C160.407 22.5 160.162 22.3835 159.833 22.3068L158.742 22.0511C158.142 21.9091 157.702 21.6889 157.421 21.3906C157.142 21.0895 157.003 20.7131 157.003 20.2614C157.003 19.892 157.107 19.5653 157.314 19.2812C157.525 18.9972 157.81 18.7741 158.171 18.6122C158.534 18.4503 158.946 18.3693 159.407 18.3693C160.054 18.3693 160.563 18.5114 160.932 18.7955C161.304 19.0795 161.569 19.4545 161.725 19.9205ZM167.994 19.9205L167.091 20.1761C167.034 20.0256 166.95 19.8793 166.839 19.7372C166.732 19.5923 166.584 19.473 166.396 19.3793C166.209 19.2855 165.969 19.2386 165.676 19.2386C165.276 19.2386 164.942 19.331 164.675 19.5156C164.411 19.6974 164.278 19.929 164.278 20.2102C164.278 20.4602 164.369 20.6577 164.551 20.8026C164.733 20.9474 165.017 21.0682 165.403 21.1648L166.375 21.4034C166.96 21.5455 167.396 21.7628 167.683 22.0554C167.97 22.3452 168.114 22.7187 168.114 23.1761C168.114 23.5511 168.006 23.8864 167.79 24.1818C167.577 24.4773 167.278 24.7102 166.895 24.8807C166.511 25.0511 166.065 25.1364 165.557 25.1364C164.889 25.1364 164.337 24.9915 163.899 24.7017C163.462 24.4119 163.185 23.9886 163.068 23.4318L164.023 23.1932C164.114 23.5455 164.286 23.8097 164.538 23.9858C164.794 24.1619 165.128 24.25 165.54 24.25C166.009 24.25 166.381 24.1506 166.656 23.9517C166.935 23.75 167.074 23.5085 167.074 23.2273C167.074 23 166.994 22.8097 166.835 22.6562C166.676 22.5 166.432 22.3835 166.102 22.3068L165.011 22.0511C164.412 21.9091 163.972 21.6889 163.69 21.3906C163.412 21.0895 163.273 20.7131 163.273 20.2614C163.273 19.892 163.376 19.5653 163.584 19.2812C163.794 18.9972 164.08 18.7741 164.44 18.6122C164.804 18.4503 165.216 18.3693 165.676 18.3693C166.324 18.3693 166.832 18.5114 167.202 18.7955C167.574 19.0795 167.838 19.4545 167.994 19.9205ZM169.627 25V18.4545H170.633V25H169.627ZM170.139 17.3636C169.943 17.3636 169.774 17.2969 169.632 17.1634C169.493 17.0298 169.423 16.8693 169.423 16.6818C169.423 16.4943 169.493 16.3338 169.632 16.2003C169.774 16.0668 169.943 16 170.139 16C170.335 16 170.502 16.0668 170.642 16.2003C170.784 16.3338 170.855 16.4943 170.855 16.6818C170.855 16.8693 170.784 17.0298 170.642 17.1634C170.502 17.2969 170.335 17.3636 170.139 17.3636ZM175.134 25.1364C174.543 25.1364 174.025 24.9957 173.579 24.7145C173.136 24.4332 172.789 24.0398 172.539 23.5341C172.292 23.0284 172.168 22.4375 172.168 21.7614C172.168 21.0795 172.292 20.4844 172.539 19.9759C172.789 19.4673 173.136 19.0724 173.579 18.7912C174.025 18.5099 174.543 18.3693 175.134 18.3693C175.725 18.3693 176.242 18.5099 176.685 18.7912C177.131 19.0724 177.478 19.4673 177.725 19.9759C177.975 20.4844 178.1 21.0795 178.1 21.7614C178.1 22.4375 177.975 23.0284 177.725 23.5341C177.478 24.0398 177.131 24.4332 176.685 24.7145C176.242 24.9957 175.725 25.1364 175.134 25.1364ZM175.134 24.233C175.583 24.233 175.952 24.1179 176.242 23.8878C176.532 23.6577 176.746 23.3551 176.886 22.9801C177.025 22.6051 177.094 22.1989 177.094 21.7614C177.094 21.3239 177.025 20.9162 176.886 20.5384C176.746 20.1605 176.532 19.8551 176.242 19.6222C175.952 19.3892 175.583 19.2727 175.134 19.2727C174.685 19.2727 174.316 19.3892 174.026 19.6222C173.737 19.8551 173.522 20.1605 173.383 20.5384C173.244 20.9162 173.174 21.3239 173.174 21.7614C173.174 22.1989 173.244 22.6051 173.383 22.9801C173.522 23.3551 173.737 23.6577 174.026 23.8878C174.316 24.1179 174.685 24.233 175.134 24.233ZM180.641 21.0625V25H179.635V18.4545H180.607V19.4773H180.692C180.846 19.1449 181.078 18.8778 181.391 18.6761C181.703 18.4716 182.107 18.3693 182.601 18.3693C183.044 18.3693 183.432 18.4602 183.765 18.642C184.097 18.821 184.355 19.0938 184.54 19.4602C184.725 19.8239 184.817 20.2841 184.817 20.8409V25H183.811V20.9091C183.811 20.3949 183.678 19.9943 183.411 19.7074C183.144 19.4176 182.777 19.2727 182.311 19.2727C181.99 19.2727 181.703 19.3423 181.451 19.4815C181.201 19.6207 181.003 19.8239 180.858 20.0909C180.713 20.358 180.641 20.6818 180.641 21.0625Z" fill="black"/>
<path d="M85.0568 49V40.2727H88.108C88.7159 40.2727 89.2173 40.3778 89.6122 40.5881C90.0071 40.7955 90.3011 41.0753 90.4943 41.4276C90.6875 41.777 90.7841 42.1648 90.7841 42.5909C90.7841 42.9659 90.7173 43.2756 90.5838 43.5199C90.4531 43.7642 90.2798 43.9574 90.0639 44.0994C89.8509 44.2415 89.6193 44.3466 89.3693 44.4148V44.5C89.6364 44.517 89.9048 44.6108 90.1747 44.7812C90.4446 44.9517 90.6705 45.196 90.8523 45.5142C91.0341 45.8324 91.125 46.2216 91.125 46.6818C91.125 47.1193 91.0256 47.5128 90.8267 47.8622C90.6278 48.2116 90.3139 48.4886 89.8849 48.6932C89.456 48.8977 88.8977 49 88.2102 49H85.0568ZM86.1136 48.0625H88.2102C88.9006 48.0625 89.3906 47.929 89.6804 47.6619C89.973 47.392 90.1193 47.0653 90.1193 46.6818C90.1193 46.3864 90.044 46.1136 89.8935 45.8636C89.7429 45.6108 89.5284 45.4091 89.25 45.2585C88.9716 45.1051 88.642 45.0284 88.2614 45.0284H86.1136V48.0625ZM86.1136 44.108H88.0739C88.392 44.108 88.679 44.0455 88.9347 43.9205C89.1932 43.7955 89.3977 43.6193 89.5483 43.392C89.7017 43.1648 89.7784 42.8977 89.7784 42.5909C89.7784 42.2074 89.6449 41.8821 89.3778 41.6151C89.1108 41.3452 88.6875 41.2102 88.108 41.2102H86.1136V44.108ZM92.7251 49V42.4545H93.6967V43.4432H93.7649C93.8842 43.1193 94.1001 42.8565 94.4126 42.6548C94.7251 42.4531 95.0774 42.3523 95.4695 42.3523C95.5433 42.3523 95.6357 42.3537 95.7464 42.3565C95.8572 42.3594 95.9411 42.3636 95.9979 42.3693V43.392C95.9638 43.3835 95.8857 43.3707 95.7635 43.3537C95.6442 43.3338 95.5178 43.3239 95.3842 43.3239C95.0661 43.3239 94.782 43.3906 94.532 43.5241C94.2848 43.6548 94.0888 43.8366 93.9439 44.0696C93.8018 44.2997 93.7308 44.5625 93.7308 44.858V49H92.7251ZM99.1161 49.1534C98.7013 49.1534 98.3249 49.0753 97.9869 48.919C97.6488 48.7599 97.3803 48.5312 97.1815 48.233C96.9826 47.9318 96.8832 47.5682 96.8832 47.142C96.8832 46.767 96.957 46.4631 97.1048 46.2301C97.2525 45.9943 97.4499 45.8097 97.6971 45.6761C97.9442 45.5426 98.217 45.4432 98.5153 45.3778C98.8164 45.3097 99.119 45.2557 99.4229 45.2159C99.8207 45.1648 100.143 45.1264 100.39 45.1009C100.64 45.0724 100.822 45.0256 100.936 44.9602C101.052 44.8949 101.11 44.7812 101.11 44.6193V44.5852C101.11 44.1648 100.995 43.8381 100.765 43.6051C100.538 43.3722 100.193 43.2557 99.7298 43.2557C99.2496 43.2557 98.8732 43.3608 98.6005 43.571C98.3278 43.7812 98.136 44.0057 98.0252 44.2443L97.0707 43.9034C97.2411 43.5057 97.4684 43.196 97.7525 42.9744C98.0394 42.75 98.3519 42.5937 98.69 42.5057C99.0309 42.4148 99.3661 42.3693 99.6957 42.3693C99.9059 42.3693 100.147 42.3949 100.42 42.446C100.696 42.4943 100.961 42.5952 101.217 42.7486C101.475 42.902 101.69 43.1335 101.86 43.4432C102.031 43.7528 102.116 44.1676 102.116 44.6875V49H101.11V48.1136H101.059C100.991 48.2557 100.877 48.4077 100.718 48.5696C100.559 48.7315 100.348 48.8693 100.083 48.983C99.8192 49.0966 99.4968 49.1534 99.1161 49.1534ZM99.2695 48.25C99.6673 48.25 100.002 48.1719 100.275 48.0156C100.551 47.8594 100.758 47.6577 100.897 47.4105C101.039 47.1634 101.11 46.9034 101.11 46.6307V45.7102C101.068 45.7614 100.974 45.8082 100.829 45.8509C100.687 45.8906 100.522 45.9261 100.335 45.9574C100.15 45.9858 99.9698 46.0114 99.7937 46.0341C99.6204 46.054 99.4798 46.071 99.3718 46.0852C99.1104 46.1193 98.8661 46.1747 98.6388 46.2514C98.4144 46.3253 98.2326 46.4375 98.0934 46.5881C97.957 46.7358 97.8888 46.9375 97.8888 47.1932C97.8888 47.5426 98.0181 47.8068 98.2766 47.9858C98.538 48.1619 98.869 48.25 99.2695 48.25ZM104.957 45.0625V49H103.952V42.4545H104.923V43.4773H105.009C105.162 43.1449 105.395 42.8778 105.707 42.6761C106.02 42.4716 106.423 42.3693 106.918 42.3693C107.361 42.3693 107.749 42.4602 108.081 42.642C108.413 42.821 108.672 43.0938 108.857 43.4602C109.041 43.8239 109.134 44.2841 109.134 44.8409V49H108.128V44.9091C108.128 44.3949 107.994 43.9943 107.727 43.7074C107.46 43.4176 107.094 43.2727 106.628 43.2727C106.307 43.2727 106.02 43.3423 105.767 43.4815C105.517 43.6207 105.32 43.8239 105.175 44.0909C105.03 44.358 104.957 44.6818 104.957 45.0625ZM113.443 49.1364C112.897 49.1364 112.416 48.9986 111.998 48.723C111.581 48.4446 111.254 48.0526 111.018 47.5469C110.782 47.0384 110.664 46.4375 110.664 45.7443C110.664 45.0568 110.782 44.4602 111.018 43.9545C111.254 43.4489 111.582 43.0582 112.002 42.7827C112.423 42.5071 112.909 42.3693 113.46 42.3693C113.886 42.3693 114.223 42.4403 114.47 42.5824C114.72 42.7216 114.91 42.8807 115.041 43.0597C115.174 43.2358 115.278 43.3807 115.352 43.4943H115.437V40.2727H116.443V49H115.471V47.9943H115.352C115.278 48.1136 115.173 48.2642 115.037 48.446C114.9 48.625 114.706 48.7855 114.453 48.9276C114.2 49.0668 113.863 49.1364 113.443 49.1364ZM113.579 48.233C113.983 48.233 114.324 48.1278 114.602 47.9176C114.88 47.7045 115.092 47.4105 115.237 47.0355C115.382 46.6577 115.454 46.2216 115.454 45.7273C115.454 45.2386 115.383 44.8111 115.241 44.4446C115.099 44.0753 114.889 43.7884 114.61 43.5838C114.332 43.3764 113.988 43.2727 113.579 43.2727C113.153 43.2727 112.798 43.3821 112.514 43.6009C112.233 43.8168 112.021 44.1108 111.879 44.483C111.74 44.8523 111.67 45.267 111.67 45.7273C111.67 46.1932 111.741 46.6165 111.883 46.9972C112.028 47.375 112.241 47.6761 112.522 47.9006C112.806 48.1222 113.159 48.233 113.579 48.233Z" fill="black"/>
<circle opacity="0.3" cx="101" cy="108" r="50" fill="var(--web-system-color-articleFigure-foreground-primary, #8FAEFE)"/>
<path d="M80.3244 93V84.2727H83.2733C83.9579 84.2727 84.5176 84.3963 84.9522 84.6435C85.3897 84.8878 85.7136 85.2188 85.9238 85.6364C86.1341 86.054 86.2392 86.5199 86.2392 87.0341C86.2392 87.5483 86.1341 88.0156 85.9238 88.4361C85.7164 88.8565 85.3954 89.1918 84.9608 89.4418C84.5261 89.6889 83.9693 89.8125 83.2903 89.8125H81.1767V88.875H83.2562C83.725 88.875 84.1014 88.794 84.3855 88.6321C84.6696 88.4702 84.8755 88.2514 85.0034 87.9759C85.1341 87.6974 85.1994 87.3835 85.1994 87.0341C85.1994 86.6847 85.1341 86.3722 85.0034 86.0966C84.8755 85.821 84.6681 85.6051 84.3812 85.4489C84.0943 85.2898 83.7136 85.2102 83.2392 85.2102H81.3812V93H80.3244ZM87.8052 93V86.4545H88.7768V87.4432H88.845C88.9643 87.1193 89.1802 86.8565 89.4927 86.6548C89.8052 86.4531 90.1575 86.3523 90.5495 86.3523C90.6234 86.3523 90.7157 86.3537 90.8265 86.3565C90.9373 86.3594 91.0211 86.3636 91.0779 86.3693V87.392C91.0439 87.3835 90.9657 87.3707 90.8436 87.3537C90.7243 87.3338 90.5978 87.3239 90.4643 87.3239C90.1461 87.3239 89.862 87.3906 89.612 87.5241C89.3649 87.6548 89.1689 87.8366 89.024 88.0696C88.8819 88.2997 88.8109 88.5625 88.8109 88.858V93H87.8052ZM92.2701 93V86.4545H93.2757V93H92.2701ZM92.7814 85.3636C92.5854 85.3636 92.4164 85.2969 92.2743 85.1634C92.1351 85.0298 92.0655 84.8693 92.0655 84.6818C92.0655 84.4943 92.1351 84.3338 92.2743 84.2003C92.4164 84.0668 92.5854 84 92.7814 84C92.9775 84 93.1451 84.0668 93.2843 84.2003C93.4263 84.3338 93.4973 84.4943 93.4973 84.6818C93.4973 84.8693 93.4263 85.0298 93.2843 85.1634C93.1451 85.2969 92.9775 85.3636 92.7814 85.3636ZM95.1177 93V86.4545H96.0893V87.4773H96.1745C96.3109 87.1278 96.5311 86.8565 96.835 86.6634C97.139 86.4673 97.5041 86.3693 97.9302 86.3693C98.362 86.3693 98.7214 86.4673 99.0083 86.6634C99.2981 86.8565 99.524 87.1278 99.6859 87.4773H99.7541C99.9217 87.1392 100.173 86.8707 100.508 86.6719C100.844 86.4702 101.246 86.3693 101.714 86.3693C102.3 86.3693 102.778 86.5526 103.15 86.919C103.523 87.2827 103.709 87.8494 103.709 88.6193V93H102.703V88.6193C102.703 88.1364 102.571 87.7912 102.307 87.5838C102.042 87.3764 101.731 87.2727 101.373 87.2727C100.913 87.2727 100.557 87.4119 100.304 87.6903C100.051 87.9659 99.9245 88.3153 99.9245 88.7386V93H98.9018V88.517C98.9018 88.1449 98.7811 87.8452 98.5396 87.6179C98.2981 87.3878 97.987 87.2727 97.6064 87.2727C97.345 87.2727 97.1007 87.3423 96.8734 87.4815C96.649 87.6207 96.4672 87.8139 96.3279 88.0611C96.1916 88.3054 96.1234 88.5881 96.1234 88.9091V93H95.1177ZM107.474 93.1534C107.059 93.1534 106.682 93.0753 106.344 92.919C106.006 92.7599 105.738 92.5312 105.539 92.233C105.34 91.9318 105.241 91.5682 105.241 91.142C105.241 90.767 105.314 90.4631 105.462 90.2301C105.61 89.9943 105.807 89.8097 106.055 89.6761C106.302 89.5426 106.574 89.4432 106.873 89.3778C107.174 89.3097 107.476 89.2557 107.78 89.2159C108.178 89.1648 108.501 89.1264 108.748 89.1009C108.998 89.0724 109.18 89.0256 109.293 88.9602C109.41 88.8949 109.468 88.7812 109.468 88.6193V88.5852C109.468 88.1648 109.353 87.8381 109.123 87.6051C108.895 87.3722 108.55 87.2557 108.087 87.2557C107.607 87.2557 107.231 87.3608 106.958 87.571C106.685 87.7812 106.493 88.0057 106.383 88.2443L105.428 87.9034C105.599 87.5057 105.826 87.196 106.11 86.9744C106.397 86.75 106.709 86.5937 107.047 86.5057C107.388 86.4148 107.724 86.3693 108.053 86.3693C108.263 86.3693 108.505 86.3949 108.778 86.446C109.053 86.4943 109.319 86.5952 109.574 86.7486C109.833 86.902 110.047 87.1335 110.218 87.4432C110.388 87.7528 110.474 88.1676 110.474 88.6875V93H109.468V92.1136H109.417C109.349 92.2557 109.235 92.4077 109.076 92.5696C108.917 92.7315 108.705 92.8693 108.441 92.983C108.177 93.0966 107.854 93.1534 107.474 93.1534ZM107.627 92.25C108.025 92.25 108.36 92.1719 108.633 92.0156C108.908 91.8594 109.116 91.6577 109.255 91.4105C109.397 91.1634 109.468 90.9034 109.468 90.6307V89.7102C109.425 89.7614 109.331 89.8082 109.187 89.8509C109.045 89.8906 108.88 89.9261 108.692 89.9574C108.508 89.9858 108.327 90.0114 108.151 90.0341C107.978 90.054 107.837 90.071 107.729 90.0852C107.468 90.1193 107.224 90.1747 106.996 90.2514C106.772 90.3253 106.59 90.4375 106.451 90.5881C106.314 90.7358 106.246 90.9375 106.246 91.1932C106.246 91.5426 106.376 91.8068 106.634 91.9858C106.895 92.1619 107.226 92.25 107.627 92.25ZM112.309 93V86.4545H113.281V87.4432H113.349C113.468 87.1193 113.684 86.8565 113.997 86.6548C114.309 86.4531 114.661 86.3523 115.053 86.3523C115.127 86.3523 115.22 86.3537 115.33 86.3565C115.441 86.3594 115.525 86.3636 115.582 86.3693V87.392C115.548 87.3835 115.47 87.3707 115.347 87.3537C115.228 87.3338 115.102 87.3239 114.968 87.3239C114.65 87.3239 114.366 87.3906 114.116 87.5241C113.869 87.6548 113.673 87.8366 113.528 88.0696C113.386 88.2997 113.315 88.5625 113.315 88.858V93H112.309ZM117.621 95.4545C117.45 95.4545 117.298 95.4403 117.165 95.4119C117.031 95.3864 116.939 95.3608 116.888 95.3352L117.144 94.4489C117.388 94.5114 117.604 94.5341 117.791 94.517C117.979 94.5 118.145 94.4162 118.29 94.2656C118.438 94.1179 118.573 93.8778 118.695 93.5455L118.882 93.0341L116.462 86.4545H117.553L119.36 91.6705H119.428L121.235 86.4545H122.325L119.547 93.9545C119.422 94.2926 119.267 94.5724 119.083 94.794C118.898 95.0185 118.683 95.1847 118.439 95.2926C118.198 95.4006 117.925 95.4545 117.621 95.4545Z" fill="black"/>
<path d="M76.2905 105.455C76.2393 105.023 76.032 104.688 75.6683 104.449C75.3047 104.21 74.8587 104.091 74.3303 104.091C73.9439 104.091 73.6058 104.153 73.3161 104.278C73.0291 104.403 72.8047 104.575 72.6428 104.794C72.4837 105.013 72.4041 105.261 72.4041 105.54C72.4041 105.773 72.4595 105.973 72.5703 106.141C72.6839 106.305 72.8288 106.443 73.005 106.554C73.1811 106.662 73.3658 106.751 73.5589 106.822C73.7521 106.891 73.9297 106.946 74.0916 106.989L74.978 107.227C75.2053 107.287 75.4581 107.369 75.7365 107.474C76.0178 107.58 76.2862 107.723 76.5419 107.905C76.8004 108.084 77.0135 108.314 77.1811 108.595C77.3487 108.876 77.4325 109.222 77.4325 109.631C77.4325 110.102 77.3089 110.528 77.0618 110.909C76.8175 111.29 76.4595 111.592 75.9879 111.817C75.5192 112.041 74.9496 112.153 74.2791 112.153C73.6541 112.153 73.1129 112.053 72.6555 111.851C72.201 111.649 71.843 111.368 71.5817 111.007C71.3232 110.646 71.1768 110.227 71.1428 109.75H72.2337C72.2621 110.08 72.3729 110.352 72.5661 110.568C72.7621 110.781 73.0092 110.94 73.3075 111.045C73.6087 111.148 73.9325 111.199 74.2791 111.199C74.6825 111.199 75.0447 111.134 75.3658 111.003C75.6868 110.869 75.9411 110.685 76.1286 110.449C76.3161 110.21 76.4098 109.932 76.4098 109.614C76.4098 109.324 76.3288 109.088 76.1669 108.906C76.005 108.724 75.7919 108.577 75.5277 108.463C75.2635 108.349 74.978 108.25 74.6712 108.165L73.5973 107.858C72.9155 107.662 72.3757 107.382 71.978 107.018C71.5803 106.655 71.3814 106.179 71.3814 105.591C71.3814 105.102 71.5135 104.676 71.7777 104.312C72.0447 103.946 72.4027 103.662 72.8516 103.46C73.3033 103.256 73.8075 103.153 74.3643 103.153C74.9268 103.153 75.4268 103.254 75.8643 103.456C76.3018 103.655 76.6484 103.928 76.9041 104.274C77.1626 104.621 77.299 105.014 77.3132 105.455H76.2905ZM81.7781 112.136C81.1474 112.136 80.6033 111.997 80.146 111.719C79.6914 111.438 79.3406 111.045 79.0934 110.543C78.8491 110.037 78.7269 109.449 78.7269 108.778C78.7269 108.108 78.8491 107.517 79.0934 107.006C79.3406 106.491 79.6843 106.091 80.1246 105.804C80.5678 105.514 81.0849 105.369 81.6758 105.369C82.0167 105.369 82.3533 105.426 82.6857 105.54C83.0181 105.653 83.3207 105.838 83.5934 106.094C83.8661 106.347 84.0835 106.682 84.2454 107.099C84.4073 107.517 84.4883 108.031 84.4883 108.642V109.068H79.4428V108.199H83.4656C83.4656 107.83 83.3917 107.5 83.244 107.21C83.0991 106.92 82.8917 106.692 82.6218 106.524C82.3548 106.357 82.0394 106.273 81.6758 106.273C81.2752 106.273 80.9286 106.372 80.636 106.571C80.3462 106.767 80.1232 107.023 79.967 107.338C79.8107 107.653 79.7326 107.991 79.7326 108.352V108.932C79.7326 109.426 79.8178 109.845 79.9883 110.189C80.1616 110.53 80.4016 110.79 80.7085 110.969C81.0153 111.145 81.3718 111.233 81.7781 111.233C82.0423 111.233 82.2809 111.196 82.494 111.122C82.7099 111.045 82.896 110.932 83.0522 110.781C83.2085 110.628 83.3292 110.437 83.4144 110.21L84.386 110.483C84.2837 110.812 84.1119 111.102 83.8704 111.352C83.6289 111.599 83.3306 111.793 82.9755 111.932C82.6204 112.068 82.2212 112.136 81.7781 112.136ZM88.6772 112.136C88.0636 112.136 87.5352 111.991 87.092 111.702C86.6488 111.412 86.3079 111.013 86.0692 110.504C85.8306 109.996 85.7113 109.415 85.7113 108.761C85.7113 108.097 85.8335 107.51 86.0778 107.001C86.3249 106.49 86.6687 106.091 87.109 105.804C87.5522 105.514 88.0692 105.369 88.6602 105.369C89.1204 105.369 89.5352 105.455 89.9045 105.625C90.2738 105.795 90.5763 106.034 90.8121 106.341C91.0479 106.648 91.1942 107.006 91.2511 107.415H90.2454C90.1687 107.116 89.9982 106.852 89.734 106.622C89.4727 106.389 89.1204 106.273 88.6772 106.273C88.2852 106.273 87.9414 106.375 87.646 106.58C87.3533 106.781 87.1246 107.067 86.9599 107.436C86.7979 107.803 86.717 108.233 86.717 108.727C86.717 109.233 86.7965 109.673 86.9556 110.048C87.1175 110.423 87.3448 110.714 87.6374 110.922C87.9329 111.129 88.2795 111.233 88.6772 111.233C88.9386 111.233 89.1758 111.188 89.3888 111.097C89.6019 111.006 89.7823 110.875 89.93 110.705C90.0778 110.534 90.1829 110.33 90.2454 110.091H91.2511C91.1942 110.477 91.0536 110.825 90.8292 111.135C90.6076 111.442 90.3136 111.686 89.9471 111.868C89.5835 112.047 89.1602 112.136 88.6772 112.136ZM95.3803 112.136C94.7894 112.136 94.271 111.996 93.8249 111.714C93.3817 111.433 93.0352 111.04 92.7852 110.534C92.538 110.028 92.4144 109.437 92.4144 108.761C92.4144 108.08 92.538 107.484 92.7852 106.976C93.0352 106.467 93.3817 106.072 93.8249 105.791C94.271 105.51 94.7894 105.369 95.3803 105.369C95.9712 105.369 96.4883 105.51 96.9315 105.791C97.3775 106.072 97.7241 106.467 97.9712 106.976C98.2212 107.484 98.3462 108.08 98.3462 108.761C98.3462 109.437 98.2212 110.028 97.9712 110.534C97.7241 111.04 97.3775 111.433 96.9315 111.714C96.4883 111.996 95.9712 112.136 95.3803 112.136ZM95.3803 111.233C95.8292 111.233 96.1985 111.118 96.4883 110.888C96.7781 110.658 96.9925 110.355 97.1317 109.98C97.271 109.605 97.3406 109.199 97.3406 108.761C97.3406 108.324 97.271 107.916 97.1317 107.538C96.9925 107.161 96.7781 106.855 96.4883 106.622C96.1985 106.389 95.8292 106.273 95.3803 106.273C94.9315 106.273 94.5621 106.389 94.2724 106.622C93.9826 106.855 93.7681 107.161 93.6289 107.538C93.4897 107.916 93.4201 108.324 93.4201 108.761C93.4201 109.199 93.4897 109.605 93.6289 109.98C93.7681 110.355 93.9826 110.658 94.2724 110.888C94.5621 111.118 94.9315 111.233 95.3803 111.233ZM100.887 108.062V112H99.8814V105.455H100.853V106.477H100.938C101.092 106.145 101.325 105.878 101.637 105.676C101.95 105.472 102.353 105.369 102.847 105.369C103.29 105.369 103.678 105.46 104.011 105.642C104.343 105.821 104.602 106.094 104.786 106.46C104.971 106.824 105.063 107.284 105.063 107.841V112H104.058V107.909C104.058 107.395 103.924 106.994 103.657 106.707C103.39 106.418 103.023 106.273 102.558 106.273C102.237 106.273 101.95 106.342 101.697 106.482C101.447 106.621 101.249 106.824 101.104 107.091C100.96 107.358 100.887 107.682 100.887 108.062ZM109.373 112.136C108.827 112.136 108.346 111.999 107.928 111.723C107.51 111.445 107.184 111.053 106.948 110.547C106.712 110.038 106.594 109.438 106.594 108.744C106.594 108.057 106.712 107.46 106.948 106.955C107.184 106.449 107.512 106.058 107.932 105.783C108.353 105.507 108.838 105.369 109.39 105.369C109.816 105.369 110.152 105.44 110.4 105.582C110.65 105.722 110.84 105.881 110.971 106.06C111.104 106.236 111.208 106.381 111.282 106.494H111.367V103.273H112.373V112H111.401V110.994H111.282C111.208 111.114 111.103 111.264 110.966 111.446C110.83 111.625 110.635 111.786 110.382 111.928C110.13 112.067 109.793 112.136 109.373 112.136ZM109.509 111.233C109.912 111.233 110.253 111.128 110.532 110.918C110.81 110.705 111.022 110.411 111.167 110.036C111.311 109.658 111.384 109.222 111.384 108.727C111.384 108.239 111.313 107.811 111.171 107.445C111.029 107.075 110.819 106.788 110.54 106.584C110.262 106.376 109.918 106.273 109.509 106.273C109.083 106.273 108.728 106.382 108.444 106.601C108.162 106.817 107.951 107.111 107.809 107.483C107.669 107.852 107.6 108.267 107.6 108.727C107.6 109.193 107.671 109.616 107.813 109.997C107.958 110.375 108.171 110.676 108.452 110.901C108.736 111.122 109.088 111.233 109.509 111.233ZM116.28 112.153C115.865 112.153 115.489 112.075 115.151 111.919C114.813 111.76 114.544 111.531 114.346 111.233C114.147 110.932 114.047 110.568 114.047 110.142C114.047 109.767 114.121 109.463 114.269 109.23C114.417 108.994 114.614 108.81 114.861 108.676C115.108 108.543 115.381 108.443 115.679 108.378C115.98 108.31 116.283 108.256 116.587 108.216C116.985 108.165 117.307 108.126 117.554 108.101C117.804 108.072 117.986 108.026 118.1 107.96C118.216 107.895 118.275 107.781 118.275 107.619V107.585C118.275 107.165 118.159 106.838 117.929 106.605C117.702 106.372 117.357 106.256 116.894 106.256C116.414 106.256 116.037 106.361 115.765 106.571C115.492 106.781 115.3 107.006 115.189 107.244L114.235 106.903C114.405 106.506 114.632 106.196 114.917 105.974C115.203 105.75 115.516 105.594 115.854 105.506C116.195 105.415 116.53 105.369 116.86 105.369C117.07 105.369 117.311 105.395 117.584 105.446C117.86 105.494 118.125 105.595 118.381 105.749C118.64 105.902 118.854 106.134 119.025 106.443C119.195 106.753 119.28 107.168 119.28 107.688V112H118.275V111.114H118.223C118.155 111.256 118.042 111.408 117.882 111.57C117.723 111.732 117.512 111.869 117.248 111.983C116.983 112.097 116.661 112.153 116.28 112.153ZM116.434 111.25C116.831 111.25 117.167 111.172 117.439 111.016C117.715 110.859 117.922 110.658 118.061 110.411C118.203 110.163 118.275 109.903 118.275 109.631V108.71C118.232 108.761 118.138 108.808 117.993 108.851C117.851 108.891 117.686 108.926 117.499 108.957C117.314 108.986 117.134 109.011 116.958 109.034C116.784 109.054 116.644 109.071 116.536 109.085C116.275 109.119 116.03 109.175 115.803 109.251C115.578 109.325 115.397 109.437 115.257 109.588C115.121 109.736 115.053 109.937 115.053 110.193C115.053 110.543 115.182 110.807 115.441 110.986C115.702 111.162 116.033 111.25 116.434 111.25ZM121.116 112V105.455H122.087V106.443H122.156C122.275 106.119 122.491 105.857 122.803 105.655C123.116 105.453 123.468 105.352 123.86 105.352C123.934 105.352 124.026 105.354 124.137 105.357C124.248 105.359 124.332 105.364 124.388 105.369V106.392C124.354 106.384 124.276 106.371 124.154 106.354C124.035 106.334 123.908 106.324 123.775 106.324C123.457 106.324 123.173 106.391 122.923 106.524C122.675 106.655 122.479 106.837 122.335 107.07C122.192 107.3 122.121 107.562 122.121 107.858V112H121.116ZM126.428 114.455C126.257 114.455 126.105 114.44 125.972 114.412C125.838 114.386 125.746 114.361 125.695 114.335L125.95 113.449C126.195 113.511 126.411 113.534 126.598 113.517C126.786 113.5 126.952 113.416 127.097 113.266C127.244 113.118 127.379 112.878 127.501 112.545L127.689 112.034L125.268 105.455H126.359L128.166 110.67H128.234L130.041 105.455H131.132L128.354 112.955C128.229 113.293 128.074 113.572 127.889 113.794C127.705 114.018 127.49 114.185 127.246 114.293C127.004 114.401 126.732 114.455 126.428 114.455Z" fill="black"/>
<path d="M79.6186 123.21V122.273H86.1641V123.21H83.4197V131H82.3629V123.21H79.6186ZM89.4538 131.136C88.8232 131.136 88.2791 130.997 87.8217 130.719C87.3672 130.438 87.0163 130.045 86.7692 129.543C86.5249 129.037 86.4027 128.449 86.4027 127.778C86.4027 127.108 86.5249 126.517 86.7692 126.006C87.0163 125.491 87.3601 125.091 87.8004 124.804C88.2436 124.514 88.7607 124.369 89.3516 124.369C89.6925 124.369 90.0291 124.426 90.3615 124.54C90.6939 124.653 90.9964 124.838 91.2692 125.094C91.5419 125.347 91.7592 125.682 91.9212 126.099C92.0831 126.517 92.1641 127.031 92.1641 127.642V128.068H87.1186V127.199H91.1413C91.1413 126.83 91.0675 126.5 90.9197 126.21C90.7749 125.92 90.5675 125.692 90.2976 125.524C90.0305 125.357 89.7152 125.273 89.3516 125.273C88.951 125.273 88.6044 125.372 88.3118 125.571C88.022 125.767 87.799 126.023 87.6428 126.338C87.4865 126.653 87.4084 126.991 87.4084 127.352V127.932C87.4084 128.426 87.4936 128.845 87.6641 129.189C87.8374 129.53 88.0774 129.79 88.3842 129.969C88.6911 130.145 89.0476 130.233 89.4538 130.233C89.718 130.233 89.9567 130.196 90.1697 130.122C90.3857 130.045 90.5717 129.932 90.728 129.781C90.8842 129.628 91.005 129.437 91.0902 129.21L92.0618 129.483C91.9595 129.812 91.7876 130.102 91.5462 130.352C91.3047 130.599 91.0064 130.793 90.6513 130.932C90.2962 131.068 89.897 131.136 89.4538 131.136ZM93.6939 131V124.455H94.6655V125.443H94.7337C94.853 125.119 95.0689 124.857 95.3814 124.655C95.6939 124.453 96.0462 124.352 96.4382 124.352C96.5121 124.352 96.6044 124.354 96.7152 124.357C96.826 124.359 96.9098 124.364 96.9666 124.369V125.392C96.9325 125.384 96.8544 125.371 96.7322 125.354C96.6129 125.334 96.4865 125.324 96.353 125.324C96.0348 125.324 95.7507 125.391 95.5007 125.524C95.2536 125.655 95.0575 125.837 94.9126 126.07C94.7706 126.3 94.6996 126.562 94.6996 126.858V131H93.6939ZM101.415 124.455V125.307H98.0234V124.455H101.415ZM99.0121 122.886H100.018V129.125C100.018 129.409 100.059 129.622 100.141 129.764C100.227 129.903 100.335 129.997 100.465 130.045C100.599 130.091 100.739 130.114 100.887 130.114C100.998 130.114 101.089 130.108 101.16 130.097C101.231 130.082 101.288 130.071 101.33 130.062L101.535 130.966C101.467 130.991 101.371 131.017 101.249 131.043C101.127 131.071 100.972 131.085 100.785 131.085C100.501 131.085 100.222 131.024 99.9496 130.902C99.6797 130.78 99.4553 130.594 99.2763 130.344C99.1001 130.094 99.0121 129.778 99.0121 129.398V122.886ZM102.928 131V124.455H103.934V131H102.928ZM103.44 123.364C103.244 123.364 103.075 123.297 102.933 123.163C102.793 123.03 102.724 122.869 102.724 122.682C102.724 122.494 102.793 122.334 102.933 122.2C103.075 122.067 103.244 122 103.44 122C103.636 122 103.803 122.067 103.942 122.2C104.085 122.334 104.156 122.494 104.156 122.682C104.156 122.869 104.085 123.03 103.942 123.163C103.803 123.297 103.636 123.364 103.44 123.364ZM107.702 131.153C107.287 131.153 106.911 131.075 106.573 130.919C106.235 130.76 105.966 130.531 105.767 130.233C105.569 129.932 105.469 129.568 105.469 129.142C105.469 128.767 105.543 128.463 105.691 128.23C105.838 127.994 106.036 127.81 106.283 127.676C106.53 127.543 106.803 127.443 107.101 127.378C107.402 127.31 107.705 127.256 108.009 127.216C108.407 127.165 108.729 127.126 108.976 127.101C109.226 127.072 109.408 127.026 109.522 126.96C109.638 126.895 109.696 126.781 109.696 126.619V126.585C109.696 126.165 109.581 125.838 109.351 125.605C109.124 125.372 108.779 125.256 108.316 125.256C107.836 125.256 107.459 125.361 107.186 125.571C106.914 125.781 106.722 126.006 106.611 126.244L105.657 125.903C105.827 125.506 106.054 125.196 106.338 124.974C106.625 124.75 106.938 124.594 107.276 124.506C107.617 124.415 107.952 124.369 108.282 124.369C108.492 124.369 108.733 124.395 109.006 124.446C109.282 124.494 109.547 124.595 109.803 124.749C110.061 124.902 110.276 125.134 110.446 125.443C110.617 125.753 110.702 126.168 110.702 126.688V131H109.696V130.114H109.645C109.577 130.256 109.463 130.408 109.304 130.57C109.145 130.732 108.934 130.869 108.669 130.983C108.405 131.097 108.083 131.153 107.702 131.153ZM107.855 130.25C108.253 130.25 108.588 130.172 108.861 130.016C109.137 129.859 109.344 129.658 109.483 129.411C109.625 129.163 109.696 128.903 109.696 128.631V127.71C109.654 127.761 109.56 127.808 109.415 127.851C109.273 127.891 109.108 127.926 108.921 127.957C108.736 127.986 108.556 128.011 108.38 128.034C108.206 128.054 108.066 128.071 107.958 128.085C107.696 128.119 107.452 128.175 107.225 128.251C107 128.325 106.819 128.437 106.679 128.588C106.543 128.736 106.475 128.937 106.475 129.193C106.475 129.543 106.604 129.807 106.863 129.986C107.124 130.162 107.455 130.25 107.855 130.25ZM112.538 131V124.455H113.509V125.443H113.577C113.697 125.119 113.913 124.857 114.225 124.655C114.538 124.453 114.89 124.352 115.282 124.352C115.356 124.352 115.448 124.354 115.559 124.357C115.67 124.359 115.754 124.364 115.81 124.369V125.392C115.776 125.384 115.698 125.371 115.576 125.354C115.457 125.334 115.33 125.324 115.197 125.324C114.879 125.324 114.594 125.391 114.344 125.524C114.097 125.655 113.901 125.837 113.756 126.07C113.614 126.3 113.543 126.562 113.543 126.858V131H112.538ZM117.849 133.455C117.679 133.455 117.527 133.44 117.393 133.412C117.26 133.386 117.168 133.361 117.116 133.335L117.372 132.449C117.616 132.511 117.832 132.534 118.02 132.517C118.207 132.5 118.374 132.416 118.518 132.266C118.666 132.118 118.801 131.878 118.923 131.545L119.111 131.034L116.69 124.455H117.781L119.588 129.67H119.656L121.463 124.455H122.554L119.776 131.955C119.651 132.293 119.496 132.572 119.311 132.794C119.126 133.018 118.912 133.185 118.668 133.293C118.426 133.401 118.153 133.455 117.849 133.455Z" fill="black"/>
<circle opacity="0.3" cx="209" cy="108" r="50" fill="var(--web-system-color-articleFigure-foreground-secondary, #64CCD3)"/>
<path d="M188.326 93V84.2727H191.275C191.96 84.2727 192.52 84.3963 192.954 84.6435C193.392 84.8878 193.716 85.2188 193.926 85.6364C194.136 86.054 194.241 86.5199 194.241 87.0341C194.241 87.5483 194.136 88.0156 193.926 88.4361C193.718 88.8565 193.397 89.1918 192.963 89.4418C192.528 89.6889 191.971 89.8125 191.292 89.8125H189.179V88.875H191.258C191.727 88.875 192.103 88.794 192.387 88.6321C192.672 88.4702 192.877 88.2514 193.005 87.9759C193.136 87.6974 193.201 87.3835 193.201 87.0341C193.201 86.6847 193.136 86.3722 193.005 86.0966C192.877 85.821 192.67 85.6051 192.383 85.4489C192.096 85.2898 191.716 85.2102 191.241 85.2102H189.383V93H188.326ZM198.396 93.1364C197.805 93.1364 197.287 92.9957 196.841 92.7145C196.397 92.4332 196.051 92.0398 195.801 91.5341C195.554 91.0284 195.43 90.4375 195.43 89.7614C195.43 89.0795 195.554 88.4844 195.801 87.9759C196.051 87.4673 196.397 87.0724 196.841 86.7912C197.287 86.5099 197.805 86.3693 198.396 86.3693C198.987 86.3693 199.504 86.5099 199.947 86.7912C200.393 87.0724 200.74 87.4673 200.987 87.9759C201.237 88.4844 201.362 89.0795 201.362 89.7614C201.362 90.4375 201.237 91.0284 200.987 91.5341C200.74 92.0398 200.393 92.4332 199.947 92.7145C199.504 92.9957 198.987 93.1364 198.396 93.1364ZM198.396 92.233C198.845 92.233 199.214 92.1179 199.504 91.8878C199.794 91.6577 200.008 91.3551 200.147 90.9801C200.287 90.6051 200.356 90.1989 200.356 89.7614C200.356 89.3239 200.287 88.9162 200.147 88.5384C200.008 88.1605 199.794 87.8551 199.504 87.6222C199.214 87.3892 198.845 87.2727 198.396 87.2727C197.947 87.2727 197.578 87.3892 197.288 87.6222C196.998 87.8551 196.784 88.1605 196.645 88.5384C196.505 88.9162 196.436 89.3239 196.436 89.7614C196.436 90.1989 196.505 90.6051 196.645 90.9801C196.784 91.3551 196.998 91.6577 197.288 91.8878C197.578 92.1179 197.947 92.233 198.396 92.233ZM207.533 87.9205L206.63 88.1761C206.573 88.0256 206.489 87.8793 206.379 87.7372C206.271 87.5923 206.123 87.473 205.935 87.3793C205.748 87.2855 205.508 87.2386 205.215 87.2386C204.815 87.2386 204.481 87.331 204.214 87.5156C203.95 87.6974 203.817 87.929 203.817 88.2102C203.817 88.4602 203.908 88.6577 204.09 88.8026C204.272 88.9474 204.556 89.0682 204.942 89.1648L205.914 89.4034C206.499 89.5455 206.935 89.7628 207.222 90.0554C207.509 90.3452 207.653 90.7187 207.653 91.1761C207.653 91.5511 207.545 91.8864 207.329 92.1818C207.116 92.4773 206.817 92.7102 206.434 92.8807C206.05 93.0511 205.604 93.1364 205.096 93.1364C204.428 93.1364 203.876 92.9915 203.438 92.7017C203.001 92.4119 202.724 91.9886 202.607 91.4318L203.562 91.1932C203.653 91.5455 203.825 91.8097 204.077 91.9858C204.333 92.1619 204.667 92.25 205.079 92.25C205.548 92.25 205.92 92.1506 206.195 91.9517C206.474 91.75 206.613 91.5085 206.613 91.2273C206.613 91 206.533 90.8097 206.374 90.6562C206.215 90.5 205.971 90.3835 205.641 90.3068L204.55 90.0511C203.951 89.9091 203.511 89.6889 203.229 89.3906C202.951 89.0895 202.812 88.7131 202.812 88.2614C202.812 87.892 202.915 87.5653 203.123 87.2812C203.333 86.9972 203.619 86.7741 203.979 86.6122C204.343 86.4503 204.755 86.3693 205.215 86.3693C205.863 86.3693 206.371 86.5114 206.741 86.7955C207.113 87.0795 207.377 87.4545 207.533 87.9205ZM209.167 93V86.4545H210.172V93H209.167ZM209.678 85.3636C209.482 85.3636 209.313 85.2969 209.171 85.1634C209.032 85.0298 208.962 84.8693 208.962 84.6818C208.962 84.4943 209.032 84.3338 209.171 84.2003C209.313 84.0668 209.482 84 209.678 84C209.874 84 210.042 84.0668 210.181 84.2003C210.323 84.3338 210.394 84.4943 210.394 84.6818C210.394 84.8693 210.323 85.0298 210.181 85.1634C210.042 85.2969 209.874 85.3636 209.678 85.3636ZM214.861 86.4545V87.3068H211.469V86.4545H214.861ZM212.457 84.8864H213.463V91.125C213.463 91.4091 213.504 91.6222 213.587 91.7642C213.672 91.9034 213.78 91.9972 213.911 92.0455C214.044 92.0909 214.185 92.1136 214.332 92.1136C214.443 92.1136 214.534 92.108 214.605 92.0966C214.676 92.0824 214.733 92.071 214.776 92.0625L214.98 92.9659C214.912 92.9915 214.817 93.017 214.695 93.0426C214.572 93.071 214.418 93.0852 214.23 93.0852C213.946 93.0852 213.668 93.0241 213.395 92.902C213.125 92.7798 212.901 92.5938 212.722 92.3438C212.545 92.0938 212.457 91.7784 212.457 91.3977V84.8864ZM216.374 93V86.4545H217.379V93H216.374ZM216.885 85.3636C216.689 85.3636 216.52 85.2969 216.378 85.1634C216.239 85.0298 216.169 84.8693 216.169 84.6818C216.169 84.4943 216.239 84.3338 216.378 84.2003C216.52 84.0668 216.689 84 216.885 84C217.081 84 217.249 84.0668 217.388 84.2003C217.53 84.3338 217.601 84.4943 217.601 84.6818C217.601 84.8693 217.53 85.0298 217.388 85.1634C217.249 85.2969 217.081 85.3636 216.885 85.3636ZM224.574 86.4545L222.153 93H221.13L218.71 86.4545H219.801L221.608 91.6705H221.676L223.483 86.4545H224.574ZM228.411 93.1364C227.78 93.1364 227.236 92.9972 226.779 92.7188C226.324 92.4375 225.973 92.0455 225.726 91.5426C225.482 91.0369 225.36 90.4489 225.36 89.7784C225.36 89.108 225.482 88.517 225.726 88.0057C225.973 87.4915 226.317 87.0909 226.757 86.804C227.201 86.5142 227.718 86.3693 228.309 86.3693C228.65 86.3693 228.986 86.4261 229.319 86.5398C229.651 86.6534 229.953 86.8381 230.226 87.0938C230.499 87.3466 230.716 87.6818 230.878 88.0994C231.04 88.517 231.121 89.0312 231.121 89.642V90.0682H226.076V89.1989H230.098C230.098 88.8295 230.025 88.5 229.877 88.2102C229.732 87.9205 229.525 87.6918 229.255 87.5241C228.988 87.3565 228.672 87.2727 228.309 87.2727C227.908 87.2727 227.561 87.3722 227.269 87.571C226.979 87.767 226.756 88.0227 226.6 88.3381C226.444 88.6534 226.365 88.9915 226.365 89.3523V89.9318C226.365 90.4261 226.451 90.8452 226.621 91.1889C226.794 91.5298 227.034 91.7898 227.341 91.9688C227.648 92.1449 228.005 92.233 228.411 92.233C228.675 92.233 228.914 92.196 229.127 92.1222C229.343 92.0455 229.529 91.9318 229.685 91.7812C229.841 91.6278 229.962 91.4375 230.047 91.2102L231.019 91.483C230.917 91.8125 230.745 92.1023 230.503 92.3523C230.262 92.5994 229.963 92.7926 229.608 92.9318C229.253 93.0682 228.854 93.1364 228.411 93.1364Z" fill="black"/>
<path d="M192.112 103.273V112H191.089L186.334 105.148H186.248V112H185.192V103.273H186.214L190.987 110.142H191.072V103.273H192.112ZM196.835 112.136C196.204 112.136 195.66 111.997 195.203 111.719C194.748 111.438 194.397 111.045 194.15 110.543C193.906 110.037 193.784 109.449 193.784 108.778C193.784 108.108 193.906 107.517 194.15 107.006C194.397 106.491 194.741 106.091 195.181 105.804C195.624 105.514 196.142 105.369 196.732 105.369C197.073 105.369 197.41 105.426 197.742 105.54C198.075 105.653 198.377 105.838 198.65 106.094C198.923 106.347 199.14 106.682 199.302 107.099C199.464 107.517 199.545 108.031 199.545 108.642V109.068H194.499V108.199H198.522C198.522 107.83 198.448 107.5 198.301 107.21C198.156 106.92 197.948 106.692 197.678 106.524C197.411 106.357 197.096 106.273 196.732 106.273C196.332 106.273 195.985 106.372 195.693 106.571C195.403 106.767 195.18 107.023 195.024 107.338C194.867 107.653 194.789 107.991 194.789 108.352V108.932C194.789 109.426 194.874 109.845 195.045 110.189C195.218 110.53 195.458 110.79 195.765 110.969C196.072 111.145 196.428 111.233 196.835 111.233C197.099 111.233 197.338 111.196 197.551 111.122C197.767 111.045 197.953 110.932 198.109 110.781C198.265 110.628 198.386 110.437 198.471 110.21L199.443 110.483C199.34 110.812 199.169 111.102 198.927 111.352C198.686 111.599 198.387 111.793 198.032 111.932C197.677 112.068 197.278 112.136 196.835 112.136ZM203.717 114.591C203.231 114.591 202.813 114.528 202.464 114.403C202.115 114.281 201.823 114.119 201.59 113.918C201.36 113.719 201.177 113.506 201.041 113.278L201.842 112.716C201.933 112.835 202.048 112.972 202.187 113.125C202.326 113.281 202.517 113.416 202.758 113.53C203.002 113.646 203.322 113.705 203.717 113.705C204.245 113.705 204.681 113.577 205.025 113.321C205.369 113.065 205.541 112.665 205.541 112.119V110.79H205.455C205.382 110.909 205.276 111.057 205.14 111.233C205.007 111.406 204.813 111.561 204.561 111.697C204.311 111.831 203.972 111.898 203.546 111.898C203.018 111.898 202.544 111.773 202.123 111.523C201.705 111.273 201.374 110.909 201.13 110.432C200.889 109.955 200.768 109.375 200.768 108.693C200.768 108.023 200.886 107.439 201.122 106.942C201.357 106.442 201.686 106.055 202.106 105.783C202.526 105.507 203.012 105.369 203.563 105.369C203.99 105.369 204.328 105.44 204.578 105.582C204.83 105.722 205.024 105.881 205.157 106.06C205.294 106.236 205.399 106.381 205.472 106.494H205.575V105.455H206.546V112.188C206.546 112.75 206.419 113.207 206.163 113.56C205.91 113.915 205.569 114.175 205.14 114.339C204.714 114.507 204.24 114.591 203.717 114.591ZM203.683 110.994C204.086 110.994 204.427 110.902 204.705 110.717C204.984 110.533 205.195 110.267 205.34 109.92C205.485 109.574 205.558 109.159 205.558 108.676C205.558 108.205 205.487 107.788 205.345 107.428C205.203 107.067 204.992 106.784 204.714 106.58C204.436 106.375 204.092 106.273 203.683 106.273C203.257 106.273 202.901 106.381 202.617 106.597C202.336 106.812 202.124 107.102 201.982 107.466C201.843 107.83 201.774 108.233 201.774 108.676C201.774 109.131 201.845 109.533 201.987 109.882C202.132 110.229 202.345 110.501 202.626 110.7C202.91 110.896 203.262 110.994 203.683 110.994ZM210.313 112.153C209.899 112.153 209.522 112.075 209.184 111.919C208.846 111.76 208.578 111.531 208.379 111.233C208.18 110.932 208.08 110.568 208.08 110.142C208.08 109.767 208.154 109.463 208.302 109.23C208.45 108.994 208.647 108.81 208.894 108.676C209.142 108.543 209.414 108.443 209.713 108.378C210.014 108.31 210.316 108.256 210.62 108.216C211.018 108.165 211.34 108.126 211.588 108.101C211.838 108.072 212.019 108.026 212.133 107.96C212.249 107.895 212.308 107.781 212.308 107.619V107.585C212.308 107.165 212.193 106.838 211.963 106.605C211.735 106.372 211.39 106.256 210.927 106.256C210.447 106.256 210.07 106.361 209.798 106.571C209.525 106.781 209.333 107.006 209.222 107.244L208.268 106.903C208.438 106.506 208.666 106.196 208.95 105.974C209.237 105.75 209.549 105.594 209.887 105.506C210.228 105.415 210.563 105.369 210.893 105.369C211.103 105.369 211.345 105.395 211.617 105.446C211.893 105.494 212.159 105.595 212.414 105.749C212.673 105.902 212.887 106.134 213.058 106.443C213.228 106.753 213.313 107.168 213.313 107.688V112H212.308V111.114H212.257C212.188 111.256 212.075 111.408 211.916 111.57C211.757 111.732 211.545 111.869 211.281 111.983C211.017 112.097 210.694 112.153 210.313 112.153ZM210.467 111.25C210.865 111.25 211.2 111.172 211.472 111.016C211.748 110.859 211.955 110.658 212.095 110.411C212.237 110.163 212.308 109.903 212.308 109.631V108.71C212.265 108.761 212.171 108.808 212.026 108.851C211.884 108.891 211.72 108.926 211.532 108.957C211.347 108.986 211.167 109.011 210.991 109.034C210.818 109.054 210.677 109.071 210.569 109.085C210.308 109.119 210.063 109.175 209.836 109.251C209.612 109.325 209.43 109.437 209.291 109.588C209.154 109.736 209.086 109.937 209.086 110.193C209.086 110.543 209.215 110.807 209.474 110.986C209.735 111.162 210.066 111.25 210.467 111.25ZM217.996 105.455V106.307H214.604V105.455H217.996ZM215.592 103.886H216.598V110.125C216.598 110.409 216.639 110.622 216.721 110.764C216.807 110.903 216.915 110.997 217.045 111.045C217.179 111.091 217.319 111.114 217.467 111.114C217.578 111.114 217.669 111.108 217.74 111.097C217.811 111.082 217.868 111.071 217.91 111.062L218.115 111.966C218.047 111.991 217.952 112.017 217.829 112.043C217.707 112.071 217.552 112.085 217.365 112.085C217.081 112.085 216.802 112.024 216.53 111.902C216.26 111.78 216.035 111.594 215.856 111.344C215.68 111.094 215.592 110.778 215.592 110.398V103.886ZM219.508 112V105.455H220.514V112H219.508ZM220.02 104.364C219.824 104.364 219.655 104.297 219.513 104.163C219.373 104.03 219.304 103.869 219.304 103.682C219.304 103.494 219.373 103.334 219.513 103.2C219.655 103.067 219.824 103 220.02 103C220.216 103 220.383 103.067 220.523 103.2C220.665 103.334 220.736 103.494 220.736 103.682C220.736 103.869 220.665 104.03 220.523 104.163C220.383 104.297 220.216 104.364 220.02 104.364ZM227.708 105.455L225.288 112H224.265L221.845 105.455H222.936L224.742 110.67H224.811L226.617 105.455H227.708ZM231.546 112.136C230.915 112.136 230.371 111.997 229.914 111.719C229.459 111.438 229.108 111.045 228.861 110.543C228.617 110.037 228.494 109.449 228.494 108.778C228.494 108.108 228.617 107.517 228.861 107.006C229.108 106.491 229.452 106.091 229.892 105.804C230.335 105.514 230.852 105.369 231.443 105.369C231.784 105.369 232.121 105.426 232.453 105.54C232.786 105.653 233.088 105.838 233.361 106.094C233.634 106.347 233.851 106.682 234.013 107.099C234.175 107.517 234.256 108.031 234.256 108.642V109.068H229.21V108.199H233.233C233.233 107.83 233.159 107.5 233.012 107.21C232.867 106.92 232.659 106.692 232.389 106.524C232.122 106.357 231.807 106.273 231.443 106.273C231.043 106.273 230.696 106.372 230.404 106.571C230.114 106.767 229.891 107.023 229.735 107.338C229.578 107.653 229.5 107.991 229.5 108.352V108.932C229.5 109.426 229.585 109.845 229.756 110.189C229.929 110.53 230.169 110.79 230.476 110.969C230.783 111.145 231.139 111.233 231.546 111.233C231.81 111.233 232.048 111.196 232.262 111.122C232.477 111.045 232.664 110.932 232.82 110.781C232.976 110.628 233.097 110.437 233.182 110.21L234.154 110.483C234.051 110.812 233.879 111.102 233.638 111.352C233.396 111.599 233.098 111.793 232.743 111.932C232.388 112.068 231.989 112.136 231.546 112.136Z" fill="black"/>
<path d="M198.432 122.273V131H197.41L192.654 124.148H192.569V131H191.512V122.273H192.535L197.307 129.142H197.393V122.273H198.432ZM203.07 131.136C202.479 131.136 201.96 130.996 201.514 130.714C201.071 130.433 200.725 130.04 200.475 129.534C200.227 129.028 200.104 128.437 200.104 127.761C200.104 127.08 200.227 126.484 200.475 125.976C200.725 125.467 201.071 125.072 201.514 124.791C201.96 124.51 202.479 124.369 203.07 124.369C203.661 124.369 204.178 124.51 204.621 124.791C205.067 125.072 205.414 125.467 205.661 125.976C205.911 126.484 206.036 127.08 206.036 127.761C206.036 128.437 205.911 129.028 205.661 129.534C205.414 130.04 205.067 130.433 204.621 130.714C204.178 130.996 203.661 131.136 203.07 131.136ZM203.07 130.233C203.519 130.233 203.888 130.118 204.178 129.888C204.468 129.658 204.682 129.355 204.821 128.98C204.96 128.605 205.03 128.199 205.03 127.761C205.03 127.324 204.96 126.916 204.821 126.538C204.682 126.161 204.468 125.855 204.178 125.622C203.888 125.389 203.519 125.273 203.07 125.273C202.621 125.273 202.252 125.389 201.962 125.622C201.672 125.855 201.458 126.161 201.318 126.538C201.179 126.916 201.11 127.324 201.11 127.761C201.11 128.199 201.179 128.605 201.318 128.98C201.458 129.355 201.672 129.658 201.962 129.888C202.252 130.118 202.621 130.233 203.07 130.233ZM210.417 124.455V125.307H207.025V124.455H210.417ZM208.014 122.886H209.02V129.125C209.02 129.409 209.061 129.622 209.143 129.764C209.229 129.903 209.336 129.997 209.467 130.045C209.601 130.091 209.741 130.114 209.889 130.114C210 130.114 210.091 130.108 210.162 130.097C210.233 130.082 210.29 130.071 210.332 130.062L210.537 130.966C210.469 130.991 210.373 131.017 210.251 131.043C210.129 131.071 209.974 131.085 209.787 131.085C209.503 131.085 209.224 131.024 208.952 130.902C208.682 130.78 208.457 130.594 208.278 130.344C208.102 130.094 208.014 129.778 208.014 129.398V122.886ZM211.93 131V124.455H212.936V131H211.93ZM212.442 123.364C212.246 123.364 212.077 123.297 211.934 123.163C211.795 123.03 211.726 122.869 211.726 122.682C211.726 122.494 211.795 122.334 211.934 122.2C212.077 122.067 212.246 122 212.442 122C212.638 122 212.805 122.067 212.944 122.2C213.086 122.334 213.157 122.494 213.157 122.682C213.157 122.869 213.086 123.03 212.944 123.163C212.805 123.297 212.638 123.364 212.442 123.364ZM217.437 131.136C216.823 131.136 216.295 130.991 215.852 130.702C215.409 130.412 215.068 130.013 214.829 129.504C214.59 128.996 214.471 128.415 214.471 127.761C214.471 127.097 214.593 126.51 214.838 126.001C215.085 125.49 215.428 125.091 215.869 124.804C216.312 124.514 216.829 124.369 217.42 124.369C217.88 124.369 218.295 124.455 218.664 124.625C219.034 124.795 219.336 125.034 219.572 125.341C219.808 125.648 219.954 126.006 220.011 126.415H219.005C218.928 126.116 218.758 125.852 218.494 125.622C218.232 125.389 217.88 125.273 217.437 125.273C217.045 125.273 216.701 125.375 216.406 125.58C216.113 125.781 215.884 126.067 215.72 126.436C215.558 126.803 215.477 127.233 215.477 127.727C215.477 128.233 215.556 128.673 215.715 129.048C215.877 129.423 216.105 129.714 216.397 129.922C216.693 130.129 217.039 130.233 217.437 130.233C217.698 130.233 217.936 130.188 218.149 130.097C218.362 130.006 218.542 129.875 218.69 129.705C218.838 129.534 218.943 129.33 219.005 129.091H220.011C219.954 129.477 219.813 129.825 219.589 130.135C219.367 130.442 219.073 130.686 218.707 130.868C218.343 131.047 217.92 131.136 217.437 131.136ZM224.225 131.136C223.595 131.136 223.051 130.997 222.593 130.719C222.139 130.438 221.788 130.045 221.541 129.543C221.296 129.037 221.174 128.449 221.174 127.778C221.174 127.108 221.296 126.517 221.541 126.006C221.788 125.491 222.132 125.091 222.572 124.804C223.015 124.514 223.532 124.369 224.123 124.369C224.464 124.369 224.801 124.426 225.133 124.54C225.465 124.653 225.768 124.838 226.041 125.094C226.313 125.347 226.531 125.682 226.693 126.099C226.855 126.517 226.936 127.031 226.936 127.642V128.068H221.89V127.199H225.913C225.913 126.83 225.839 126.5 225.691 126.21C225.546 125.92 225.339 125.692 225.069 125.524C224.802 125.357 224.487 125.273 224.123 125.273C223.722 125.273 223.376 125.372 223.083 125.571C222.794 125.767 222.57 126.023 222.414 126.338C222.258 126.653 222.18 126.991 222.18 127.352V127.932C222.18 128.426 222.265 128.845 222.436 129.189C222.609 129.53 222.849 129.79 223.156 129.969C223.463 130.145 223.819 130.233 224.225 130.233C224.49 130.233 224.728 130.196 224.941 130.122C225.157 130.045 225.343 129.932 225.499 129.781C225.656 129.628 225.776 129.437 225.862 129.21L226.833 129.483C226.731 129.812 226.559 130.102 226.318 130.352C226.076 130.599 225.778 130.793 225.423 130.932C225.068 131.068 224.669 131.136 224.225 131.136Z" fill="black"/>
<path d="M208.784 40.2727H209.841V46.0511C209.841 46.6477 209.7 47.1804 209.419 47.6491C209.141 48.1151 208.747 48.483 208.239 48.7528C207.73 49.0199 207.134 49.1534 206.449 49.1534C205.764 49.1534 205.168 49.0199 204.659 48.7528C204.151 48.483 203.756 48.1151 203.474 47.6491C203.196 47.1804 203.057 46.6477 203.057 46.0511V40.2727H204.114V45.9659C204.114 46.392 204.207 46.7713 204.395 47.1037C204.582 47.4332 204.849 47.6932 205.196 47.8835C205.545 48.071 205.963 48.1648 206.449 48.1648C206.935 48.1648 207.352 48.071 207.702 47.8835C208.051 47.6932 208.318 47.4332 208.503 47.1037C208.69 46.7713 208.784 46.392 208.784 45.9659V40.2727ZM213.008 40.2727V49H211.951V40.2727H213.008Z" fill="black"/>
</svg>
