<svg width="24" height="24" viewBox="0 0 24 24" fill="none" xmlns="http://www.w3.org/2000/svg">
<path fill-rule="evenodd" clip-rule="evenodd" d="M3.02502 5.53115C3.02502 5.06171 3.40558 4.68115 3.87502 4.68115H20.125C20.5945 4.68115 20.975 5.06171 20.975 5.53115V15.7499C20.975 16.2193 20.5945 16.5999 20.125 16.5999H16.5V15.3999H19.775V5.88115H4.22502V15.3999H7.50002V16.5999H3.87502C3.40558 16.5999 3.02502 16.2193 3.02502 15.7499V5.53115ZM12 14.3628L9.49614 18.1187H14.5039L12 14.3628ZM11.3123 13.2311C11.6395 12.7403 12.3606 12.7403 12.6878 13.2311L15.8894 18.0336C16.2556 18.5829 15.8619 19.3187 15.2017 19.3187H8.79836C8.13819 19.3187 7.74442 18.5829 8.11062 18.0336L11.3123 13.2311Z" fill="black"/>
</svg>
