<svg width="24" height="24" viewBox="0 0 24 24" fill="none" xmlns="http://www.w3.org/2000/svg">
<path fill-rule="evenodd" clip-rule="evenodd" d="M13.2776 4.00701C12.8258 3.2038 11.6741 3.19041 11.2038 3.98289L2.77161 18.1908C2.2978 18.9892 2.87318 19.9997 3.80154 19.9997L20.2251 19.9997C21.1411 19.9997 21.718 19.0133 21.269 18.2149L13.2776 4.00701ZM3.80566 18.7997L12.2337 4.59883L20.2211 18.7997L3.80566 18.7997ZM11.647 7.99971V14.3974H12.847V7.99971H11.647ZM13.047 16.7974C13.047 16.3556 12.6888 15.9974 12.247 15.9974C11.8052 15.9974 11.447 16.3556 11.447 16.7974C11.447 17.2392 11.8052 17.5974 12.247 17.5974C12.6888 17.5974 13.047 17.2392 13.047 16.7974Z" fill="black"/>
</svg>
