<svg width="24" height="24" viewBox="0 0 24 24" fill="none" xmlns="http://www.w3.org/2000/svg">
<path fill-rule="evenodd" clip-rule="evenodd" d="M12.8 2.05665V3.26101C17.2713 3.66514 20.7749 7.42343 20.7749 12C20.7749 16.5766 17.2713 20.3349 12.8 20.739V21.9434C17.9349 21.5359 21.9749 17.2398 21.9749 12C21.9749 6.7603 17.9349 2.46416 12.8 2.05665ZM3.2249 12C3.2249 16.5767 6.72856 20.335 11.2 20.7391V21.9434C6.06495 21.536 2.0249 17.2398 2.0249 12C2.0249 6.76027 6.06495 2.46411 11.2 2.05664V3.261C6.72856 3.66508 3.2249 7.4234 3.2249 12ZM11.3999 6.10001V14.1H12.5999V6.10001H11.3999ZM12.8 17.0999C12.8 16.6581 12.4418 16.2999 12 16.2999C11.5581 16.2999 11.2 16.6581 11.2 17.0999C11.2 17.5417 11.5581 17.8999 12 17.8999C12.4418 17.8999 12.8 17.5417 12.8 17.0999Z" fill="black"/>
</svg>
