<svg width="24" height="24" viewBox="0 0 24 24" fill="none" xmlns="http://www.w3.org/2000/svg">
<path fill-rule="evenodd" clip-rule="evenodd" d="M11.3999 2.09208C10.0445 2.36969 9.02502 3.56905 9.02502 5.00653C9.02502 6.44401 10.0445 7.64337 11.3999 7.92098V6.67753C10.7149 6.43149 10.225 5.77622 10.225 5.00653C10.225 4.23684 10.7149 3.58157 11.3999 3.33554V2.09208ZM12.5999 6.6776C13.285 6.43162 13.775 5.7763 13.775 5.00653C13.775 4.23677 13.285 3.58145 12.5999 3.33547V2.09204C13.9554 2.36958 14.975 3.56898 14.975 5.00653C14.975 6.44404 13.9555 7.64343 12.6 7.921V20.6876C16.9682 20.3926 20.4599 16.901 20.7548 12.5328H19V11.3328H21.375H21.975V11.9328C21.975 17.4418 17.5091 21.9078 12 21.9078C6.49098 21.9078 2.02502 17.4418 2.02502 11.9328V11.3328H2.62502H5.00002V12.5328H3.24522C3.54018 16.901 7.03184 20.3926 11.4 20.6876V7.9328H12.5999V6.6776Z" fill="black"/>
</svg>
