<svg width="24" height="24" viewBox="0 0 24 24" fill="none" xmlns="http://www.w3.org/2000/svg">
<path fill-rule="evenodd" clip-rule="evenodd" d="M7.62502 4.6502C6.09243 4.6502 4.85002 5.89261 4.85002 7.4252C4.85002 8.95779 6.09243 10.2002 7.62502 10.2002C9.15761 10.2002 10.4 8.95779 10.4 7.4252C10.4 5.89261 9.15761 4.6502 7.62502 4.6502ZM3.65002 7.4252C3.65002 5.22986 5.42969 3.4502 7.62502 3.4502C9.82036 3.4502 11.6 5.22986 11.6 7.4252C11.6 9.62053 9.82036 11.4002 7.62502 11.4002C5.42969 11.4002 3.65002 9.62053 3.65002 7.4252ZM16.375 4.6502C14.8424 4.6502 13.6 5.89261 13.6 7.4252C13.6 8.95779 14.8424 10.2002 16.375 10.2002C17.9076 10.2002 19.15 8.95779 19.15 7.4252C19.15 5.89261 17.9076 4.6502 16.375 4.6502ZM12.4 7.4252C12.4 5.22986 14.1797 3.4502 16.375 3.4502C18.5704 3.4502 20.35 5.22986 20.35 7.4252C20.35 9.62053 18.5704 11.4002 16.375 11.4002C14.1797 11.4002 12.4 9.62053 12.4 7.4252ZM7.62502 13.8002C6.09243 13.8002 4.85002 15.0426 4.85002 16.5752C4.85002 18.1078 6.09243 19.3502 7.62502 19.3502C9.15761 19.3502 10.4 18.1078 10.4 16.5752C10.4 15.0426 9.15761 13.8002 7.62502 13.8002ZM3.65002 16.5752C3.65002 14.3799 5.42969 12.6002 7.62502 12.6002C9.82036 12.6002 11.6 14.3799 11.6 16.5752C11.6 18.7706 9.82036 20.5502 7.62502 20.5502C5.42969 20.5502 3.65002 18.7706 3.65002 16.5752ZM16.375 13.8002C14.8424 13.8002 13.6 15.0426 13.6 16.5752C13.6 18.1078 14.8424 19.3502 16.375 19.3502C17.9076 19.3502 19.15 18.1078 19.15 16.5752C19.15 15.0426 17.9076 13.8002 16.375 13.8002ZM12.4 16.5752C12.4 14.3799 14.1797 12.6002 16.375 12.6002C18.5704 12.6002 20.35 14.3799 20.35 16.5752C20.35 18.7706 18.5704 20.5502 16.375 20.5502C14.1797 20.5502 12.4 18.7706 12.4 16.5752Z" fill="black"/>
</svg>
