<svg width="24" height="24" viewBox="0 0 24 24" fill="none" xmlns="http://www.w3.org/2000/svg">
<path fill-rule="evenodd" clip-rule="evenodd" d="M3.65002 4.3002C3.65002 3.83075 4.03058 3.4502 4.50002 3.4502H10.75C11.2195 3.4502 11.6 3.83075 11.6 4.3002V10.5502C11.6 11.0196 11.2195 11.4002 10.75 11.4002H4.50002C4.03058 11.4002 3.65002 11.0196 3.65002 10.5502V4.3002ZM4.85002 4.6502V10.2002H10.4V4.6502H4.85002ZM12.4 4.3002C12.4 3.83075 12.7806 3.4502 13.25 3.4502H19.5C19.9695 3.4502 20.35 3.83075 20.35 4.3002V10.5502C20.35 11.0196 19.9695 11.4002 19.5 11.4002H13.25C12.7806 11.4002 12.4 11.0196 12.4 10.5502V4.3002ZM13.6 4.6502V10.2002H19.15V4.6502H13.6ZM3.65002 13.4502C3.65002 12.9808 4.03058 12.6002 4.50002 12.6002H10.75C11.2195 12.6002 11.6 12.9808 11.6 13.4502V19.7002C11.6 20.1697 11.2195 20.5502 10.75 20.5502H4.50002C4.03058 20.5502 3.65002 20.1697 3.65002 19.7002V13.4502ZM4.85002 13.8002V19.3502H10.4V13.8002H4.85002ZM12.4 13.4502C12.4 12.9808 12.7806 12.6002 13.25 12.6002H19.5C19.9695 12.6002 20.35 12.9808 20.35 13.4502V19.7002C20.35 20.1697 19.9695 20.5502 19.5 20.5502H13.25C12.7806 20.5502 12.4 20.1697 12.4 19.7002V13.4502ZM13.6 13.8002V19.3502H19.15V13.8002H13.6Z" fill="black"/>
</svg>
