<svg width="24" height="24" viewBox="0 0 24 24" fill="none" xmlns="http://www.w3.org/2000/svg">
<path fill-rule="evenodd" clip-rule="evenodd" d="M3.72502 5.0999V8.8999H20.275V5.0999H3.72502ZM2.52502 4.7499C2.52502 4.28046 2.90558 3.8999 3.37502 3.8999H20.625C21.0945 3.8999 21.475 4.28046 21.475 4.7499V9.2499C21.475 9.71934 21.0945 10.0999 20.625 10.0999H3.37502C2.90558 10.0999 2.52502 9.71934 2.52502 9.2499V4.7499ZM4.72502 18.8999V11.6999H3.52502V19.2499C3.52502 19.7193 3.90558 20.0999 4.37502 20.0999H19.625C20.0945 20.0999 20.475 19.7193 20.475 19.2499V11.6999H19.275V18.8999H4.72502ZM15 13.5999H9.00002V12.3999H15V13.5999Z" fill="black"/>
</svg>
