<svg width="24" height="24" viewBox="0 0 24 24" fill="none" xmlns="http://www.w3.org/2000/svg">
<path fill-rule="evenodd" clip-rule="evenodd" d="M12.8001 3.26101V2.05665C17.935 2.46416 21.975 6.7603 21.975 12C21.975 17.2398 17.935 21.5359 12.8001 21.9434V20.739C17.2714 20.3349 20.775 16.5766 20.775 12C20.775 7.42343 17.2714 3.66514 12.8001 3.26101ZM11.2001 20.7391C6.72868 20.335 3.22502 16.5767 3.22502 12C3.22502 7.4234 6.72868 3.66508 11.2001 3.261V2.05664C6.06507 2.46411 2.02502 6.76027 2.02502 12C2.02502 17.2398 6.06507 21.536 11.2001 21.9434V20.7391ZM11.3996 14.5513L8.66781 11.8195L7.81928 12.668L11.3988 16.2476C11.7308 16.5795 12.269 16.5795 12.6009 16.2476L16.181 12.6675L15.3324 11.819L12.5996 14.5519L12.6001 7.99969L11.4001 7.99959L11.3996 14.5513Z" fill="black"/>
</svg>
