<svg width="24" height="24" viewBox="0 0 24 24" fill="none" xmlns="http://www.w3.org/2000/svg">
<path fill-rule="evenodd" clip-rule="evenodd" d="M17.2214 8.67253L14.9731 6.42421L15.8216 5.57568L18.9174 8.67149C19.2494 9.00343 19.2494 9.54162 18.9174 9.87357L15.8212 12.9698L14.9727 12.1213L17.2214 9.87253H11.2899V8.67253H17.2214ZM9.69469 9.87247C8.69649 9.87247 7.73917 10.269 7.03333 10.9748C6.32749 11.6807 5.93096 12.638 5.93096 13.6362C5.93096 14.6344 6.32749 15.5917 7.03333 16.2976C7.73917 17.0034 8.69649 17.3999 9.69469 17.3999V18.5999C8.37823 18.5999 7.11568 18.077 6.1848 17.1461C5.25392 16.2152 4.73096 14.9527 4.73096 13.6362C4.73096 12.3197 5.25392 11.0572 6.1848 10.1263C7.11568 9.19543 8.37823 8.67247 9.69469 8.67247V9.87247ZM15.3671 18.5999H11.2899V17.3999H15.3671V18.5999Z" fill="black"/>
</svg>
