<svg width="24" height="24" viewBox="0 0 24 24" fill="none" xmlns="http://www.w3.org/2000/svg">
<path fill-rule="evenodd" clip-rule="evenodd" d="M14.1264 5.08294C14.4584 4.751 14.9965 4.751 15.3285 5.08294L18.4243 8.17875L17.5758 9.02727L15.3276 6.77908L15.3276 12.7099H14.1276L14.1276 6.77884L11.8787 9.02772L11.0302 8.17919L14.1264 5.08294ZM6.60002 8.63328L6.60002 12.7099H5.40002L5.40002 8.63328H6.60002ZM6.85394 17.8156C5.92306 16.8847 5.4001 15.6221 5.4001 14.3057H6.6001C6.6001 15.3039 6.99663 16.2612 7.70247 16.967C8.40831 17.6729 9.36563 18.0694 10.3638 18.0694C11.362 18.0694 12.3194 17.6729 13.0252 16.967C13.731 16.2612 14.1276 15.3039 14.1276 14.3057H15.3276C15.3276 15.6221 14.8046 16.8847 13.8737 17.8156C12.9428 18.7465 11.6803 19.2694 10.3638 19.2694C9.04737 19.2694 7.78482 18.7465 6.85394 17.8156Z" fill="black"/>
</svg>
