<svg width="24" height="24" viewBox="0 0 24 24" fill="none" xmlns="http://www.w3.org/2000/svg">
<path fill-rule="evenodd" clip-rule="evenodd" d="M12.8001 3.26101V2.05665C17.935 2.46416 21.975 6.7603 21.975 12C21.975 17.2398 17.935 21.5359 12.8001 21.9434V20.739C17.2714 20.3349 20.775 16.5766 20.775 12C20.775 7.42343 17.2714 3.66514 12.8001 3.26101ZM11.2001 20.7391C6.72868 20.335 3.22502 16.5767 3.22502 12C3.22502 7.4234 6.72868 3.66508 11.2001 3.261V2.05664C6.06507 2.46411 2.02502 6.76027 2.02502 12C2.02502 17.2398 6.06507 21.536 11.2001 21.9434V20.7391ZM7.75208 11.3989L11.3316 7.81938L12.1801 8.66791L9.44837 11.3997L16.0001 11.4002L16 12.6002L9.44781 12.5997L12.1807 15.3325L11.3321 16.1811L7.75208 12.601C7.42013 12.2691 7.42013 11.7309 7.75208 11.3989Z" fill="black"/>
</svg>
