<svg width="24" height="24" viewBox="0 0 24 24" fill="none" xmlns="http://www.w3.org/2000/svg">
<path fill-rule="evenodd" clip-rule="evenodd" d="M5.083 8.67149L8.17881 5.57568L9.02734 6.42421L6.77902 8.67253H12.7096V9.87253H6.77902L9.02778 12.1213L8.17925 12.9698L5.083 9.87357C4.75106 9.54162 4.75106 9.00343 5.083 8.67149ZM14.3057 8.67247C15.6222 8.67247 16.8848 9.19543 17.8156 10.1263C18.7465 11.0572 19.2695 12.3197 19.2695 13.6362C19.2695 14.9527 18.7465 16.2152 17.8156 17.1461C16.8848 18.077 15.6222 18.5999 14.3057 18.5999V17.3999C15.3039 17.3999 16.2613 17.0034 16.9671 16.2976C17.6729 15.5917 18.0695 14.6344 18.0695 13.6362C18.0695 12.638 17.6729 11.6807 16.9671 10.9748C16.2613 10.269 15.3039 9.87247 14.3057 9.87247V8.67247ZM8.63334 17.3999H12.7096V18.5999H8.63334V17.3999Z" fill="black"/>
</svg>
