<svg width="24" height="24" viewBox="0 0 24 24" fill="none" xmlns="http://www.w3.org/2000/svg">
<path fill-rule="evenodd" clip-rule="evenodd" d="M10.3638 5.93047C9.36563 5.93047 8.40831 6.327 7.70247 7.03284C6.99663 7.73868 6.6001 8.696 6.6001 9.6942H5.4001C5.4001 8.37774 5.92306 7.11519 6.85394 6.18431C7.78482 5.25343 9.04737 4.73047 10.3638 4.73047C11.6803 4.73047 12.9428 5.25343 13.8737 6.18431C14.8046 7.11519 15.3276 8.37774 15.3276 9.6942H14.1276C14.1276 8.696 13.731 7.73868 13.0252 7.03284C12.3194 6.327 11.362 5.93047 10.3638 5.93047ZM5.40002 15.3666L5.40002 11.29H6.60002L6.60002 15.3666H5.40002ZM14.1276 17.221V11.29H15.3276V17.2208L17.5758 14.9726L18.4243 15.8211L15.3285 18.9169C14.9965 19.2489 14.4584 19.2489 14.1264 18.9169L11.0302 15.8207L11.8787 14.9722L14.1276 17.221Z" fill="black"/>
</svg>
