<svg width="24" height="24" viewBox="0 0 24 24" fill="none" xmlns="http://www.w3.org/2000/svg">
<path fill-rule="evenodd" clip-rule="evenodd" d="M4.40002 4.2499C4.40002 3.78046 4.78058 3.3999 5.25002 3.3999H18.75C19.2195 3.3999 19.6 3.78046 19.6 4.2499V19.7499C19.6 20.2193 19.2195 20.5999 18.75 20.5999H5.25002C4.78058 20.5999 4.40002 20.2193 4.40002 19.7499V4.2499ZM5.60002 4.5999V19.3999H18.4V4.5999H5.60002ZM10.0996 8.0999C9.60258 8.0999 9.19963 8.50285 9.19963 8.9999C9.19963 9.49696 9.60258 9.8999 10.0996 9.8999C10.5967 9.8999 10.9996 9.49696 10.9996 8.9999C10.9996 8.50285 10.5967 8.0999 10.0996 8.0999ZM7.99963 8.9999C7.99963 7.8401 8.93984 6.8999 10.0996 6.8999C11.2594 6.8999 12.1996 7.8401 12.1996 8.9999C12.1996 10.1597 11.2594 11.0999 10.0996 11.0999C8.93984 11.0999 7.99963 10.1597 7.99963 8.9999ZM16 14.0999H8.00002V12.8999H16V14.0999ZM16 17.0999H8.00002V15.8999H16V17.0999Z" fill="black"/>
</svg>
