<svg width="24" height="24" viewBox="0 0 24 24" fill="none" xmlns="http://www.w3.org/2000/svg">
<path fill-rule="evenodd" clip-rule="evenodd" d="M12.8001 3.26101V2.05665C17.935 2.46416 21.975 6.7603 21.975 12C21.975 17.2398 17.935 21.5359 12.8001 21.9434V20.739C15.1604 20.5257 17.251 19.3778 18.6989 17.6682C17.2946 17.2624 16.1786 16.1623 15.6813 14.7588C14.8421 15.8768 13.5055 16.6 12 16.6C9.45951 16.6 7.40002 14.5405 7.40002 12C7.40002 9.45952 9.45951 7.40003 12 7.40003C14.5405 7.40003 16.6 9.45952 16.6 12V13.1142C16.6 14.9312 17.8733 16.3834 19.4696 16.6074C20.2973 15.2683 20.775 13.69 20.775 12C20.775 7.42343 17.2714 3.66514 12.8001 3.26101ZM11.2001 20.7391C6.72868 20.335 3.22502 16.5767 3.22502 12C3.22502 7.4234 6.72868 3.66508 11.2001 3.261V2.05664C6.06507 2.46411 2.02502 6.76027 2.02502 12C2.02502 17.2398 6.06507 21.536 11.2001 21.9434V20.7391ZM15.4 12C15.4 10.1223 13.8778 8.60003 12 8.60003C10.1223 8.60003 8.60002 10.1223 8.60002 12C8.60002 13.8778 10.1223 15.4 12 15.4C13.8778 15.4 15.4 13.8778 15.4 12Z" fill="black"/>
</svg>
