<svg width="24" height="24" viewBox="0 0 24 24" fill="none" xmlns="http://www.w3.org/2000/svg">
<path fill-rule="evenodd" clip-rule="evenodd" d="M13.899 3.68019C14.5618 3.40562 15.2912 3.33379 15.9949 3.47376C16.6986 3.61373 17.345 3.95923 17.8523 4.46656C18.3596 4.97389 18.7051 5.62027 18.8451 6.32395C18.9851 7.02764 18.9132 7.75703 18.6387 8.41989C18.4555 8.86215 18.1875 9.26154 17.8523 9.59677L17.0038 8.74825C17.2281 8.5239 17.4074 8.25663 17.53 7.96067C17.7137 7.51708 17.7618 7.02897 17.6681 6.55806C17.5745 6.08715 17.3433 5.65459 17.0038 5.31508C16.6643 4.97558 16.2317 4.74437 15.7608 4.6507C15.2899 4.55703 14.8018 4.60511 14.3582 4.78885C14.0622 4.91143 13.7949 5.09074 13.5706 5.31509L12.7221 4.46655C13.0573 4.13133 13.4567 3.86338 13.899 3.68019ZM6.69831 10.4902L11.5915 5.59705L12.44 6.44558L7.54683 11.3387L6.69831 10.4902ZM13.7328 7.7384L14.5813 8.58693L8.55498 14.6133C8.47052 14.6978 8.40303 14.7984 8.35689 14.9098C8.28772 15.0767 8.26963 15.2605 8.30489 15.4377C8.34015 15.615 8.42718 15.7778 8.55498 15.9056C8.68277 16.0334 8.8456 16.1204 9.02286 16.1557C9.20012 16.191 9.38386 16.1729 9.55083 16.1037C9.65432 16.0608 9.74849 15.9996 9.82906 15.9234L15.8734 9.87897L16.722 10.7275L10.6956 16.7539C10.6864 16.763 10.6775 16.7723 10.6682 16.7813L10.5709 16.8785L10.566 16.8736C10.4002 17.0138 10.2128 17.1284 10.0101 17.2124C9.6238 17.3724 9.19879 17.4142 8.78875 17.3326C8.37871 17.2511 8.00207 17.0498 7.70645 16.7541C7.41083 16.4585 7.20951 16.0819 7.12794 15.6718C7.04638 15.2618 7.08824 14.8368 7.24823 14.4505C7.33224 14.2477 7.44684 14.0604 7.58706 13.8946L7.58185 13.8894L13.7328 7.7384ZM6.41338 12.4722C6.04914 12.8365 5.75802 13.2704 5.55899 13.7509C5.26067 14.4711 5.18262 15.2636 5.3347 16.0282C5.48678 16.7927 5.86216 17.495 6.41338 18.0463C6.96459 18.5975 7.66689 18.9729 8.43145 19.1249C9.19601 19.277 9.98849 19.199 10.7087 18.9006C11.1892 18.7016 11.6231 18.4105 11.9874 18.0463L12.8359 18.8948C12.3608 19.3699 11.7947 19.7497 11.1679 20.0093C10.2284 20.3984 9.19467 20.5003 8.19734 20.3019C7.2 20.1035 6.28389 19.6138 5.56485 18.8948C4.84581 18.1757 4.35614 17.2596 4.15775 16.2623C3.95937 15.265 4.06119 14.2312 4.45033 13.2917C4.70996 12.6649 5.08972 12.0988 5.56484 11.6237L6.41338 12.4722ZM13.1209 16.9129L18.0141 12.0197L18.8626 12.8682L13.9694 17.7614L13.1209 16.9129Z" fill="black"/>
</svg>
