<svg width="24" height="24" viewBox="0 0 24 24" fill="none" xmlns="http://www.w3.org/2000/svg">
<path fill-rule="evenodd" clip-rule="evenodd" d="M11.2 3.04982C8.18084 3.44198 5.849 6.02332 5.849 9.14929C5.849 10.8723 6.55728 12.4296 7.69861 13.5462V20.0983C7.69861 20.7987 8.49825 21.1985 9.05861 20.7783L11.9993 18.5728L14.94 20.7783C15.5003 21.1985 16.3 20.7987 16.3 20.0983V13.5476C17.4422 12.4309 18.1511 10.8731 18.1511 9.14929C18.1511 6.02327 15.8191 3.44189 12.8 3.0498V4.26255C15.154 4.64495 16.9511 6.68725 16.9511 9.14929C16.9511 11.6111 15.1538 13.6541 12.8 14.0361V15.2487C12.8301 15.2448 12.8603 15.2406 12.8903 15.2363C13.6865 15.1208 14.4332 14.8528 15.1 14.4631V19.3983L12.5093 17.4553C12.2071 17.2286 11.7915 17.2286 11.4893 17.4553L8.89861 19.3983V14.4622C9.56576 14.8524 10.313 15.1207 11.1097 15.2363C11.1397 15.2406 11.1698 15.2448 11.2 15.2487V14.0361C8.84619 13.654 7.049 11.611 7.049 9.14929C7.049 6.6873 8.84602 4.64503 11.2 4.26258V3.04982Z" fill="black"/>
</svg>
