<svg width="24" height="24" viewBox="0 0 24 24" fill="none" xmlns="http://www.w3.org/2000/svg">
<path fill-rule="evenodd" clip-rule="evenodd" d="M2.40002 7.7499C2.40002 7.28046 2.78058 6.8999 3.25002 6.8999H16.75C17.2195 6.8999 17.6 7.28046 17.6 7.7499V16.2499C17.6 16.7193 17.2195 17.0999 16.75 17.0999H3.25002C2.78058 17.0999 2.40002 16.7193 2.40002 16.2499V7.7499ZM3.60002 8.0999V15.8999H16.4V8.0999H3.60002ZM20.4 10.5999H19.1996V9.3999H20.75C21.2195 9.3999 21.6 9.78046 21.6 10.2499V13.7499C21.6 14.2193 21.2195 14.5999 20.75 14.5999H19.1996V13.3999H20.4V10.5999Z" fill="black"/>
</svg>
