<svg width="24" height="24" viewBox="0 0 24 24" fill="none" xmlns="http://www.w3.org/2000/svg">
<path fill-rule="evenodd" clip-rule="evenodd" d="M9.77477 7.1855C10.1821 6.6192 11.0762 6.90734 11.0762 7.60491V10.5701C11.0762 10.6729 11.1143 10.7611 11.1742 10.8217C11.2386 10.8869 11.3244 10.9222 11.4123 10.9222C11.4123 10.9222 11.4123 10.9222 11.4123 10.9222L13.062 10.9221C13.6473 10.9221 13.9869 11.5846 13.6452 12.0597L10.2289 16.8107C9.8216 17.3771 8.92743 17.089 8.92743 16.3914V13.4262C8.92743 13.325 8.88936 13.2363 8.82849 13.1747C8.76388 13.1093 8.67854 13.0743 8.59088 13.0743H6.94067C6.35536 13.0743 6.01579 12.4117 6.35755 11.9366L9.77477 7.1855ZM9.87617 9.09965L7.88052 11.8743H8.59088C9.00208 11.8743 9.39405 12.0397 9.68219 12.3314C9.97408 12.6268 10.1274 13.0225 10.1274 13.4262V14.8963L12.1223 12.1222L11.4124 12.1222C11.0014 12.1222 10.6088 11.9569 10.3205 11.665C10.0276 11.3685 9.87617 10.9723 9.87617 10.5701V9.09965ZM10.7486 7.88666C10.7485 7.88682 10.7487 7.8865 10.7486 7.88666V7.88666ZM3.60002 8.1001H7.17002V6.9001H3.25002C2.78058 6.9001 2.40002 7.28066 2.40002 7.7501V16.2501C2.40002 16.7195 2.78058 17.1001 3.25002 17.1001H7.33002V15.9001H3.60002V8.1001ZM16.4 8.1001H12.68V6.9001H16.75C17.2195 6.9001 17.6 7.28066 17.6 7.7501V16.2501C17.6 16.7195 17.2195 17.1001 16.75 17.1001H12.2V15.9001H16.4V8.1001ZM20.3996 10.6001H19.1992V9.4001H20.7496C21.2191 9.4001 21.5996 9.78066 21.5996 10.2501V13.7501C21.5996 14.2195 21.2191 14.6001 20.7496 14.6001H19.1992V13.4001H20.3996V10.6001Z" fill="black"/>
</svg>
