<svg width="24" height="24" viewBox="0 0 24 24" fill="none" xmlns="http://www.w3.org/2000/svg">
<path fill-rule="evenodd" clip-rule="evenodd" d="M2.54846 5.6499H3.74846V13.9626H11.8493V7.23067H17.01V8.43067H13.0493V13.9626H20.2516V11.6701H21.4516V18.3502H20.2516V15.1626H3.74846V18.3502H2.54846V5.6499ZM7.7899 8.43057C6.88195 8.43057 6.14592 9.1666 6.14592 10.0745C6.14592 10.9825 6.88195 11.7185 7.7899 11.7185C8.69784 11.7185 9.43387 10.9825 9.43387 10.0745C9.43387 9.1666 8.69784 8.43057 7.7899 8.43057ZM4.94592 10.0745C4.94592 8.50386 6.21921 7.23057 7.7899 7.23057C9.36058 7.23057 10.6339 8.50386 10.6339 10.0745C10.6339 11.6452 9.36058 12.9185 7.7899 12.9185C6.21921 12.9185 4.94592 11.6452 4.94592 10.0745ZM20.2514 10.0745C20.2514 9.1666 19.5154 8.43057 18.6074 8.43057V7.23057C20.1781 7.23057 21.4514 8.50386 21.4514 10.0745H20.2514Z" fill="black"/>
</svg>
