<svg width="24" height="24" viewBox="0 0 24 24" fill="none" xmlns="http://www.w3.org/2000/svg">
<path fill-rule="evenodd" clip-rule="evenodd" d="M6.04419 9.15603C5.62406 10.0359 5.40001 11.0064 5.40001 12H6.60001C6.60001 11.3335 6.72325 10.6796 6.9571 10.0689L6.04419 9.15603ZM16.5509 17.4H16.5514L7.78096 8.62959C7.78089 8.62968 7.78082 8.62976 7.78076 8.62985L6.9279 7.77699C6.92797 7.77691 6.92804 7.77683 6.92811 7.77675L3.09039 3.93903L3.93869 3.09073L20.909 20.061L20.0607 20.9093L17.7514 18.6H17.7509L16.5509 17.4ZM14.2882 17.4L6.19091 17.4C6.45598 16.9852 6.60001 16.5 6.60001 16L6.60001 13.6H5.40001L5.40001 16C5.40001 16.3713 5.25251 16.7274 4.98996 16.99C4.72741 17.2525 4.37131 17.4 4.00001 17.4V18.6L15.4882 18.6L14.2882 17.4ZM18.6 15.4893V13.6H17.4V14.2893L18.6 15.4893ZM10.0681 6.95742C10.679 6.72337 11.3332 6.60002 12 6.60002C13.4322 6.60002 14.8057 7.16895 15.8184 8.18165C16.8311 9.19434 17.4 10.5679 17.4 12H18.6C18.6 10.2496 17.9047 8.57086 16.6669 7.33312C15.4292 6.09538 13.7504 5.40002 12 5.40002C11.0061 5.40002 10.0353 5.6242 9.15527 6.04456L10.0681 6.95742ZM12 2C11.3104 2 10.6491 2.27393 10.1615 2.76152C9.67394 3.24912 9.40001 3.91044 9.40001 4.6H10.6C10.6 4.2287 10.7475 3.8726 11.0101 3.61005C11.2726 3.3475 11.6287 3.2 12 3.2C12.3713 3.2 12.7274 3.3475 12.99 3.61005C13.2525 3.8726 13.4 4.2287 13.4 4.6H14.6C14.6 3.91044 14.3261 3.24912 13.8385 2.76152C13.3509 2.27393 12.6896 2 12 2ZM13.4 19.4C13.4 20.1732 12.7732 20.8 12 20.8C11.2268 20.8 10.6 20.1732 10.6 19.4H9.40001C9.40001 20.836 10.5641 22 12 22C13.4359 22 14.6 20.836 14.6 19.4H13.4Z" fill="black"/>
</svg>
