<svg width="24" height="24" viewBox="0 0 24 24" fill="none" xmlns="http://www.w3.org/2000/svg">
<path fill-rule="evenodd" clip-rule="evenodd" d="M10.1615 2.76152C10.6491 2.27393 11.3104 2 12 2C12.6896 2 13.3509 2.27393 13.8385 2.76152C14.3261 3.24912 14.6 3.91044 14.6 4.6H13.4C13.4 4.2287 13.2525 3.8726 12.99 3.61005C12.7274 3.3475 12.3713 3.2 12 3.2C11.6287 3.2 11.2726 3.3475 11.0101 3.61005C10.7475 3.8726 10.6 4.2287 10.6 4.6H9.4C9.4 3.91044 9.67393 3.24912 10.1615 2.76152ZM7.3331 7.33312C8.57084 6.09538 10.2496 5.40002 12 5.40002C13.7504 5.40002 15.4292 6.09538 16.6669 7.33312C17.9046 8.57086 18.6 10.2496 18.6 12H17.4C17.4 10.5679 16.8311 9.19434 15.8184 8.18165C14.8057 7.16895 13.4322 6.60002 12 6.60002C10.5678 6.60002 9.19432 7.16895 8.18162 8.18165C7.16893 9.19434 6.6 10.5679 6.6 12H5.4C5.4 10.2496 6.09536 8.57086 7.3331 7.33312ZM6.6 13.6L6.6 16C6.6 16.5 6.45598 16.9852 6.1909 17.4H17.8091C17.544 16.9852 17.4 16.5 17.4 16V13.6H18.6V16C18.6 16.3713 18.7475 16.7274 19.0101 16.99C19.2726 17.2525 19.6287 17.4 20 17.4V18.6H4V17.4C4.3713 17.4 4.7274 17.2525 4.98995 16.99C5.2525 16.7274 5.4 16.3713 5.4 16L5.4 13.6H6.6ZM10.6 19.4C10.6 20.1732 11.2268 20.8 12 20.8C12.7732 20.8 13.4 20.1732 13.4 19.4H14.6C14.6 20.836 13.4359 22 12 22C10.5641 22 9.4 20.836 9.4 19.4H10.6Z" fill="black"/>
</svg>
