<svg width="24" height="24" viewBox="0 0 24 24" fill="none" xmlns="http://www.w3.org/2000/svg">
<path fill-rule="evenodd" clip-rule="evenodd" d="M11.438 4.82617L15.4867 4.82794C15.8896 4.82811 16.237 5.11103 16.3187 5.50549L17.1841 9.68249L17.1847 9.68536L17.5958 11.622L16.4219 11.8712L16.1303 10.4971L5.81545 12.287C5.29567 12.3772 4.82012 11.977 4.82012 11.4495V9.23617H3.44031V8.03617H7.40031V9.23617H6.02012V11.0335L15.8839 9.32188L15.2014 6.02781L11.4375 6.02617L11.438 4.82617ZM16.2537 16.6242H14.996C15.3547 18.088 16.6755 19.1742 18.2499 19.1742C19.8243 19.1742 21.1451 18.088 21.5038 16.6242H20.2461C19.9287 17.4154 19.1546 17.9742 18.2499 17.9742C17.3452 17.9742 16.5711 17.4154 16.2537 16.6242ZM20.2461 15.0242H21.5038C21.1451 13.5603 19.8243 12.4741 18.2499 12.4741C16.6754 12.4741 15.3547 13.5603 14.996 15.0242H16.2536C16.571 14.2329 17.3452 13.6741 18.2499 13.6741C19.1546 13.6741 19.9288 14.2329 20.2461 15.0242ZM5.41924 14.3354C4.70141 14.3354 4.08068 14.7512 3.78466 15.355H2.50696C2.85752 14.0756 4.02859 13.1354 5.41924 13.1354C6.80989 13.1354 7.98095 14.0756 8.33152 15.355H7.05381C6.7578 14.7512 6.13707 14.3354 5.41924 14.3354ZM2.50705 16.955H3.78484C4.08092 17.5586 4.70155 17.9742 5.41924 17.9742C6.13693 17.9742 6.75756 17.5586 7.05364 16.955H8.33142C7.98074 18.2342 6.80976 19.1742 5.41924 19.1742C4.02871 19.1742 2.85774 18.2342 2.50705 16.955Z" fill="black"/>
</svg>
