<svg width="24" height="24" viewBox="0 0 24 24" fill="none" xmlns="http://www.w3.org/2000/svg">
<path fill-rule="evenodd" clip-rule="evenodd" d="M11.481 2.25H14.731C15.2004 2.25 15.581 2.63056 15.581 3.1V4.25H17.381V5.45H15.581V8.25H17.196C17.5697 8.25 17.8995 8.49404 18.0088 8.85137L20.4559 16.8514C20.623 17.3977 20.2144 17.95 19.6431 17.95H3.26923C2.75196 17.95 2.35462 17.4919 2.42777 16.9798L3.35634 10.4798C3.41616 10.061 3.7748 9.75 4.1978 9.75H8.84718C9.13138 9.75 9.39678 9.89204 9.55442 10.1285L11.3021 12.75H14.381V3.45H11.481V2.25ZM15.581 9.45V13.1C15.581 13.5694 15.2004 13.95 14.731 13.95H11.1148C10.8306 13.95 10.5652 13.808 10.4075 13.5715L8.65986 10.95H4.50135L3.67278 16.75H19.17L16.9371 9.45H15.581ZM18.981 4.25C19.6705 4.25 20.3319 4.52393 20.8195 5.01152C21.307 5.49912 21.581 6.16044 21.581 6.85C21.581 7.53956 21.307 8.20088 20.8195 8.68848C20.3319 9.17607 19.6705 9.45 18.981 9.45V8.25C19.3523 8.25 19.7084 8.1025 19.9709 7.83995C20.2335 7.5774 20.381 7.2213 20.381 6.85C20.381 6.4787 20.2335 6.1226 19.9709 5.86005C19.7084 5.5975 19.3523 5.45 18.981 5.45V4.25ZM4.83098 19.15C4.83098 19.9232 5.45778 20.55 6.23097 20.55C7.00417 20.55 7.63097 19.9232 7.63097 19.15H8.83097C8.83097 20.5859 7.66691 21.75 6.23097 21.75C4.79503 21.75 3.63098 20.5859 3.63098 19.15H4.83098ZM14.831 19.15C14.831 19.9232 15.4578 20.55 16.231 20.55C17.0042 20.55 17.631 19.9232 17.631 19.15H18.831C18.831 20.5859 17.6669 21.75 16.231 21.75C14.795 21.75 13.631 20.5859 13.631 19.15H14.831Z" fill="black"/>
</svg>
