<svg width="24" height="24" viewBox="0 0 24 24" fill="none" xmlns="http://www.w3.org/2000/svg">
<path fill-rule="evenodd" clip-rule="evenodd" d="M12.6 5.44863V10.5516L15.1515 8.0001L12.6 5.44863ZM11.4 10.5516V4.60366C11.4 3.84639 12.3156 3.46715 12.851 4.00262L16.2475 7.39906C16.5794 7.73101 16.5794 8.2692 16.2475 8.60114L12.8485 12.0001L16.2475 15.3991C16.5794 15.731 16.5794 16.2692 16.2475 16.6011L12.851 19.9976C12.3156 20.5331 11.4 20.1538 11.4 19.3966V13.4486L8.42427 16.4244L7.57574 15.5758L11.1515 12.0001L7.57574 8.42437L8.42427 7.57584L11.4 10.5516ZM12.6 13.4486V18.5516L15.1515 16.0001L12.6 13.4486Z" fill="black"/>
</svg>
