<svg width="24" height="24" viewBox="0 0 24 24" fill="none" xmlns="http://www.w3.org/2000/svg">
<path fill-rule="evenodd" clip-rule="evenodd" d="M5.90002 3.3999H9.90002V4.5999H7.10002V11.3999H9.90002V12.5999H7.10002V19.3999H11.9V20.5999H5.90002V3.3999ZM13.9042 5.59574C13.2666 4.95812 12.4018 4.5999 11.5 4.5999V3.3999C12.72 3.3999 13.89 3.88454 14.7527 4.74721C15.6154 5.60988 16.1 6.77991 16.1 7.9999C16.1 9.2199 15.6154 10.3899 14.7527 11.2526C14.6645 11.3408 14.5731 11.425 14.4788 11.5052C15.3335 11.6913 16.1246 12.1191 16.7527 12.7472C17.6154 13.6099 18.1 14.7799 18.1 15.9999C18.1 17.2199 17.6154 18.3899 16.7527 19.2526C15.89 20.1153 14.72 20.5999 13.5 20.5999V19.3999C14.4018 19.3999 15.2666 19.0417 15.9042 18.4041C16.5418 17.7664 16.9 16.9016 16.9 15.9999C16.9 15.0982 16.5418 14.2334 15.9042 13.5957C15.2666 12.9581 14.4018 12.5999 13.5 12.5999L11.5 12.5999V11.3999C12.4018 11.3999 13.2666 11.0417 13.9042 10.4041C14.5418 9.76644 14.9 8.90164 14.9 7.9999C14.9 7.09817 14.5418 6.23336 13.9042 5.59574Z" fill="black"/>
</svg>
