<svg width="24" height="24" viewBox="0 0 24 24" fill="none" xmlns="http://www.w3.org/2000/svg">
<path fill-rule="evenodd" clip-rule="evenodd" d="M4.40002 4.2499C4.40002 3.78046 4.78058 3.3999 5.25002 3.3999H18.75C19.2195 3.3999 19.6 3.78046 19.6 4.2499V19.7499C19.6 20.2193 19.2195 20.5999 18.75 20.5999H8.60002V19.3999H18.4V16.5999H8.60002V15.3999H18.4V4.5999H5.60002V15.809C6.01487 15.5439 6.50002 15.3999 7.00002 15.3999V16.5999C6.62872 16.5999 6.27263 16.7474 6.01007 17.01C5.74752 17.2725 5.60002 17.6286 5.60002 17.9999C5.60002 18.3712 5.74752 18.7273 6.01008 18.9899C6.27263 19.2524 6.62872 19.3999 7.00002 19.3999V20.5999C6.31046 20.5999 5.64914 20.326 5.16155 19.8384C4.67395 19.3508 4.40002 18.6895 4.40002 17.9999V4.2499Z" fill="black"/>
</svg>
