<svg width="24" height="24" viewBox="0 0 24 24" fill="none" xmlns="http://www.w3.org/2000/svg">
<path fill-rule="evenodd" clip-rule="evenodd" d="M3.60002 5.39995L3.60002 17.2H10C10.5 17.2 10.9852 17.344 11.4 17.609L11.4 6.79995C11.4 6.42865 11.2525 6.07255 10.99 5.81C10.7274 5.54745 10.3713 5.39995 10 5.39995L3.60002 5.39995ZM12 5.13862C11.9491 5.07737 11.8953 5.01824 11.8385 4.96147C11.3509 4.47388 10.6896 4.19995 10 4.19995L3.25002 4.19995C2.78058 4.19995 2.40002 4.58051 2.40002 5.04995L2.40002 17.55C2.40002 18.0194 2.78058 18.4 3.25002 18.4H10C10.3713 18.4 10.7274 18.5475 10.99 18.81C11.2525 19.0726 11.4 19.4286 11.4 19.8H12.6C12.6 19.4286 12.7475 19.0726 13.0101 18.81C13.2726 18.5475 13.6287 18.4 14 18.4H20.75C21.2195 18.4 21.6 18.0194 21.6 17.55L21.6 5.04995C21.6 4.58051 21.2195 4.19995 20.75 4.19995L14 4.19995C13.3105 4.19995 12.6491 4.47388 12.1615 4.96147C12.1048 5.01824 12.0509 5.07737 12 5.13862ZM12.6 17.609C13.0149 17.344 13.5 17.2 14 17.2H20.4L20.4 5.39995L14 5.39995C13.6287 5.39995 13.2726 5.54745 13.0101 5.81C12.7475 6.07255 12.6 6.42865 12.6 6.79995L12.6 17.609Z" fill="black"/>
</svg>
