<svg width="24" height="24" viewBox="0 0 24 24" fill="none" xmlns="http://www.w3.org/2000/svg">
<path fill-rule="evenodd" clip-rule="evenodd" d="M8.74733 3.94741C9.61 3.08474 10.78 2.6001 12 2.6001C13.22 2.6001 14.39 3.08474 15.2527 3.94741C16.1154 4.81007 16.6 5.9801 16.6 7.2001H15.4C15.4 6.29836 15.0418 5.43356 14.4042 4.79593C13.7666 4.15831 12.9018 3.8001 12 3.8001C11.0983 3.8001 10.2335 4.15831 9.59586 4.79593C8.95824 5.43356 8.60002 6.29836 8.60002 7.2001H7.40002C7.40002 5.9801 7.88467 4.81007 8.74733 3.94741ZM4.10002 10.0001V19.8001H19.9V10.0001H4.10002ZM2.90002 9.65012C2.90002 9.18068 3.28058 8.80012 3.75002 8.80012H20.25C20.7195 8.80012 21.1 9.18068 21.1 9.65012V20.1501C21.1 20.6196 20.7195 21.0001 20.25 21.0001H3.75002C3.28058 21.0001 2.90002 20.6196 2.90002 20.1501V9.65012ZM6.90002 18.2001V11.6001H8.10002V18.2001H6.90002ZM15.9 18.2001V11.6001H17.1V18.2001H15.9Z" fill="black"/>
</svg>
