<svg width="24" height="24" viewBox="0 0 24 24" fill="none" xmlns="http://www.w3.org/2000/svg">
<path fill-rule="evenodd" clip-rule="evenodd" d="M9.54873 3.02074C10.1864 2.38312 11.0512 2.0249 11.9529 2.0249C12.8546 2.0249 13.7194 2.38312 14.3571 3.02074C14.9947 3.65836 15.3529 4.52317 15.3529 5.4249H14.1529C14.1529 4.84143 13.9211 4.28185 13.5085 3.86927C13.0959 3.45669 12.5364 3.2249 11.9529 3.2249C11.3694 3.2249 10.8098 3.45669 10.3973 3.86927C9.98468 4.28185 9.75289 4.84143 9.75289 5.4249H8.55289C8.55289 4.52317 8.91111 3.65836 9.54873 3.02074ZM7.55114 8.00743C8.73401 6.82456 10.3383 6.16003 12.0112 6.16003C13.684 6.16003 15.2883 6.82456 16.4712 8.00743C17.0107 8.54695 17.4424 9.17413 17.7524 9.85551C18.3728 9.84406 18.9655 9.5926 19.4051 9.15298C19.8552 8.70289 20.108 8.09244 20.108 7.45592H21.308C21.308 8.4107 20.9287 9.32637 20.2536 10.0015C19.6841 10.5711 18.9433 10.9301 18.1523 11.0284C18.262 11.4964 18.3186 11.979 18.3186 12.4675H17.1186C17.1186 11.1129 16.5805 9.81379 15.6227 8.85596C14.6648 7.89813 13.3657 7.36003 12.0112 7.36003C10.6566 7.36003 9.3575 7.89813 8.39967 8.85596C7.44184 9.81379 6.90373 11.1129 6.90373 12.4675H5.70373C5.70373 11.9794 5.7603 11.4972 5.8698 11.0296C5.07528 10.9329 4.33093 10.5733 3.75913 10.0015C3.084 9.32637 2.70471 8.4107 2.70471 7.45592H3.90471C3.90471 8.09244 4.15757 8.70289 4.60766 9.15298C5.04953 9.59485 5.64597 9.84662 6.26989 9.85566C6.57988 9.17423 7.01159 8.54699 7.55114 8.00743ZM3.29299 13.4675H6.29299V14.6675H3.29299V13.4675ZM17.708 13.4675H20.708V14.6675H17.708V13.4675ZM12.6118 15.3816V19.5167H11.4118V15.3816H12.6118ZM6.90391 15.6675C6.90391 17.022 7.44201 18.3211 8.39984 19.279C9.35767 20.2368 10.6568 20.7749 12.0113 20.7749C13.3659 20.7749 14.665 20.2368 15.6228 19.279C16.5807 18.3211 17.1188 17.022 17.1188 15.6675H18.3188C18.3188 16.152 18.263 16.6308 18.1551 17.0953C18.945 17.1941 19.6847 17.553 20.2536 18.1219C20.9287 18.797 21.308 19.7127 21.308 20.6674H20.108C20.108 20.0309 19.8552 19.4205 19.4051 18.9704C18.9667 18.532 18.3763 18.2808 17.7578 18.268C17.4474 18.9538 17.0139 19.585 16.4714 20.1275C15.2885 21.3104 13.6842 21.9749 12.0113 21.9749C10.3385 21.9749 8.73419 21.3104 7.55131 20.1275C7.00873 19.5849 6.5752 18.9537 6.26485 18.2678C5.64276 18.2781 5.04834 18.5297 4.60766 18.9704C4.15757 19.4205 3.90471 20.0309 3.90471 20.6674H2.70471C2.70471 19.7127 3.084 18.797 3.75913 18.1219C4.33034 17.5506 5.07375 17.1912 5.86734 17.0941C5.75957 16.63 5.70391 16.1516 5.70391 15.6675H6.90391Z" fill="black"/>
</svg>
