<svg width="24" height="24" viewBox="0 0 24 24" fill="none" xmlns="http://www.w3.org/2000/svg">
<path fill-rule="evenodd" clip-rule="evenodd" d="M6.67275 4.24297V4.24299C6.26677 4.24299 5.87741 4.40427 5.59033 4.69134C5.30326 4.97842 5.14198 5.36778 5.14198 5.77377H3.94198C3.94198 5.04952 4.22968 4.35494 4.7418 3.84282C5.20341 3.38121 5.81327 3.10193 6.45947 3.05133V3.04297H17.5387V3.05118C18.1856 3.1014 18.7961 3.38077 19.2582 3.84282C19.7703 4.35494 20.058 5.04952 20.058 5.77377H18.858C18.858 5.36778 18.6967 4.97842 18.4096 4.69134C18.1226 4.40427 17.7332 4.24299 17.3272 4.24299V4.24297H6.67275ZM5.14198 7.37021V16.3602H3.94198V8.57022H3.27172V11.3795H2.07172V8.22022C2.07172 7.75078 2.45227 7.37022 2.92172 7.37022H3.94198V7.37021H5.14198ZM18.8574 16.3602V7.37021H20.0574V7.37022H21.0783C21.5477 7.37022 21.9283 7.75078 21.9283 8.22022V11.3795H20.7283V8.57022H20.0574V16.3602H18.8574ZM17.5387 12.168H6.45947V10.968H17.5387V12.168ZM8.16108 14.2988C7.90405 14.2988 7.69569 14.5071 7.69569 14.7641C7.69569 15.0212 7.90405 15.2295 8.16108 15.2295C8.4181 15.2295 8.62647 15.0212 8.62647 14.7641C8.62647 14.5071 8.4181 14.2988 8.16108 14.2988ZM6.49569 14.7641C6.49569 13.8444 7.24131 13.0988 8.16108 13.0988C9.08085 13.0988 9.82647 13.8444 9.82647 14.7641C9.82647 15.6839 9.08085 16.4295 8.16108 16.4295C7.24131 16.4295 6.49569 15.6839 6.49569 14.7641ZM15.9423 14.2988C15.6853 14.2988 15.4769 14.5071 15.4769 14.7641C15.4769 15.0212 15.6853 15.2295 15.9423 15.2295C16.1994 15.2295 16.4077 15.0212 16.4077 14.7641C16.4077 14.5071 16.1994 14.2988 15.9423 14.2988ZM14.2769 14.7641C14.2769 13.8444 15.0226 13.0988 15.9423 13.0988C16.8621 13.0988 17.6077 13.8444 17.6077 14.7641C17.6077 15.6839 16.8621 16.4295 15.9423 16.4295C15.0226 16.4295 14.2769 15.6839 14.2769 14.7641ZM7.69891 18.5604V20.1075C7.69891 20.5769 7.31835 20.9575 6.84891 20.9575H4.79198C4.32254 20.9575 3.94198 20.5769 3.94198 20.1075V17.9604H5.14198V19.7575H6.49891V18.2104C6.49891 17.7409 6.87947 17.3604 7.34891 17.3604H16.6504C17.1198 17.3604 17.5004 17.7409 17.5004 18.2104V19.7575H18.8573V17.9604H20.0573V20.1075C20.0573 20.5769 19.6767 20.9575 19.2073 20.9575H17.1504C16.6809 20.9575 16.3004 20.5769 16.3004 20.1075V18.5604H7.69891Z" fill="black"/>
</svg>
