<svg width="24" height="24" viewBox="0 0 24 24" fill="none" xmlns="http://www.w3.org/2000/svg">
<path fill-rule="evenodd" clip-rule="evenodd" d="M7.60002 3.39995V5.39995H8.90002V3.39995H7.60002ZM6.40002 3.04995C6.40002 2.58051 6.78058 2.19995 7.25002 2.19995H9.25002C9.71947 2.19995 10.1 2.58051 10.1 3.04995V3.79993H13.9V3.04995C13.9 2.58051 14.2806 2.19995 14.75 2.19995H16.75C17.2195 2.19995 17.6 2.58051 17.6 3.04995V3.79993H20.1496C20.6191 3.79993 20.9996 4.18048 20.9996 4.64993V9.59992H19.7996V4.99993H17.6V5.74995C17.6 6.21939 17.2195 6.59995 16.75 6.59995H14.75C14.2806 6.59995 13.9 6.21939 13.9 5.74995V4.99993H10.1V5.74995C10.1 6.21939 9.71947 6.59995 9.25002 6.59995H7.25002C6.78058 6.59995 6.40002 6.21939 6.40002 5.74995V4.99993H4.19963V9.59992H2.99963V4.64993C2.99963 4.18048 3.38019 3.79993 3.84963 3.79993H6.40002V3.04995ZM15.1 3.39995V5.39995H16.4V3.39995H15.1ZM18.5991 10.9999L5.40041 10.9999V9.7999L18.5991 9.7999V10.9999ZM4.19963 20.5999V11.1999H2.99963V20.9499C2.99963 21.4194 3.38019 21.7999 3.84963 21.7999H20.1496C20.6191 21.7999 20.9996 21.4194 20.9996 20.9499V11.1999H19.7996V20.5999H4.19963Z" fill="black"/>
</svg>
