<svg width="24" height="24" viewBox="0 0 24 24" fill="none" xmlns="http://www.w3.org/2000/svg">
<path fill-rule="evenodd" clip-rule="evenodd" d="M3.78821 6.8999H2.85012C2.38068 6.8999 2.00012 7.28046 2.00012 7.7499V20.2499C2.00012 20.7193 2.38068 21.0999 2.85012 21.0999H17.9882L16.7882 19.8999H3.20012V8.0999H4.98821L3.78821 6.8999ZM8.23454 11.3462C7.84739 11.999 7.62512 12.761 7.62512 13.5749C7.62512 15.9912 9.58388 17.9499 12.0001 17.9499C12.8141 17.9499 13.5761 17.7276 14.2288 17.3405L13.3417 16.4534C12.9342 16.6437 12.4796 16.7499 12.0001 16.7499C10.2466 16.7499 8.82512 15.3284 8.82512 13.5749C8.82512 13.0955 8.93139 12.6409 9.12165 12.2333L8.23454 11.3462ZM14.5787 15.4277C14.5788 15.4276 14.5789 15.4275 14.579 15.4274L10.1476 10.9961C10.1475 10.9962 10.1474 10.9962 10.1473 10.9963L9.29068 10.1396C9.29077 10.1396 9.29086 10.1395 9.29095 10.1394L3.09041 3.93888L3.93869 3.09059L20.909 20.0609L20.0605 20.9094L19.0509 19.8999H19.0514L15.4356 16.2841C15.4355 16.2842 15.4355 16.2843 15.4354 16.2844L14.5787 15.4277ZM8.12802 5.01717L9.00408 5.89323C9.15999 5.60242 9.35878 5.33331 9.59635 5.09574C10.234 4.45812 11.0988 4.0999 12.0005 4.0999C12.9023 4.0999 13.7671 4.45812 14.4047 5.09574C15.0423 5.73336 15.4005 6.59817 15.4005 7.4999H16.6005C16.6005 6.27991 16.1159 5.10988 15.2532 4.24721C14.3905 3.38454 13.2205 2.8999 12.0005 2.8999C10.7805 2.8999 9.61049 3.38454 8.74782 4.24721C8.51233 4.48271 8.305 4.7411 8.12802 5.01717ZM12.3225 9.21161L16.3634 13.2526C16.2062 11.0933 14.4818 9.36885 12.3225 9.21161ZM20.8001 17.6893L22.0001 18.8893V7.7499C22.0001 7.28046 21.6196 6.8999 21.1501 6.8999H18.2005V8.0999H20.8001V17.6893Z" fill="black"/>
</svg>
