<svg width="24" height="24" viewBox="0 0 24 24" fill="none" xmlns="http://www.w3.org/2000/svg">
<path fill-rule="evenodd" clip-rule="evenodd" d="M12.0005 2.8999C10.7805 2.8999 9.61049 3.38454 8.74782 4.24721C7.88515 5.10988 7.40051 6.27991 7.40051 7.4999H8.60051C8.60051 6.59817 8.95873 5.73336 9.59635 5.09574C10.234 4.45812 11.0988 4.0999 12.0005 4.0999C12.9023 4.0999 13.7671 4.45812 14.4047 5.09574C15.0423 5.73336 15.4005 6.59817 15.4005 7.4999H16.6005C16.6005 6.27991 16.1159 5.10988 15.2532 4.24721C14.3905 3.38454 13.2205 2.8999 12.0005 2.8999ZM5.8052 8.0999H3.20012V19.8999H20.8001V8.0999H18.2005V6.8999H21.1501C21.6196 6.8999 22.0001 7.28046 22.0001 7.7499V20.2499C22.0001 20.7193 21.6196 21.0999 21.1501 21.0999H2.85012C2.38068 21.0999 2.00012 20.7193 2.00012 20.2499V7.7499C2.00012 7.28046 2.38068 6.8999 2.85012 6.8999H5.8052V8.0999ZM12.8 16.6483C14.1663 16.2937 15.1751 15.0521 15.1751 13.5749C15.1751 12.0977 14.1663 10.8561 12.8 10.5015V9.27286C14.8343 9.64869 16.3751 11.4319 16.3751 13.5749C16.3751 15.718 14.8343 17.5011 12.8 17.877V16.6483ZM11.2 10.5016C9.83382 10.8563 8.82512 12.0978 8.82512 13.5749C8.82512 15.052 9.83382 16.2936 11.2 16.6482V17.8769C9.16584 17.501 7.62512 15.7179 7.62512 13.5749C7.62512 11.432 9.16584 9.64886 11.2 9.27292V10.5016Z" fill="black"/>
</svg>
