<svg width="24" height="24" viewBox="0 0 24 24" fill="none" xmlns="http://www.w3.org/2000/svg">
<path fill-rule="evenodd" clip-rule="evenodd" d="M6.44317 5.2249L4.60002 11.2151V15.5299H3.40002V11.1625C3.40002 11.0778 3.41269 10.9935 3.43761 10.9125L4.01108 11.089L3.43761 10.9125L5.37226 4.62493C5.482 4.26828 5.81151 4.0249 6.18467 4.0249H17.8154C18.1885 4.0249 18.5181 4.26827 18.6278 4.62493L20.5624 10.9125C20.5874 10.9935 20.6 11.0778 20.6 11.1625V15.5299H19.4V11.2151L17.5569 5.2249H6.44317ZM18.199 11.7249H5.79983V10.5249H18.199V11.7249ZM7.50002 13.7249C7.27911 13.7249 7.10002 13.904 7.10002 14.1249C7.10002 14.3458 7.27911 14.5249 7.50002 14.5249C7.72094 14.5249 7.90002 14.3458 7.90002 14.1249C7.90002 13.904 7.72094 13.7249 7.50002 13.7249ZM5.90002 14.1249C5.90002 13.2412 6.61637 12.5249 7.50002 12.5249C8.38368 12.5249 9.10002 13.2412 9.10002 14.1249C9.10002 15.0086 8.38368 15.7249 7.50002 15.7249C6.61637 15.7249 5.90002 15.0086 5.90002 14.1249ZM16.5 13.7249C16.2791 13.7249 16.1 13.904 16.1 14.1249C16.1 14.3458 16.2791 14.5249 16.5 14.5249C16.7209 14.5249 16.9 14.3458 16.9 14.1249C16.9 13.904 16.7209 13.7249 16.5 13.7249ZM14.9 14.1249C14.9 13.2412 15.6164 12.5249 16.5 12.5249C17.3837 12.5249 18.1 13.2412 18.1 14.1249C18.1 15.0086 17.3837 15.7249 16.5 15.7249C15.6164 15.7249 14.9 15.0086 14.9 14.1249ZM7.00002 17.7249V19.1249C7.00002 19.5943 6.61947 19.9749 6.15002 19.9749H4.25002C3.78058 19.9749 3.40002 19.5943 3.40002 19.1249V17.1249H4.60002V18.7749H5.80002V17.3749C5.80002 16.9055 6.18058 16.5249 6.65002 16.5249H17.3496C17.8191 16.5249 18.1996 16.9055 18.1996 17.3749V18.7749H19.3996V17.1249H20.5996V19.1249C20.5996 19.5943 20.2191 19.9749 19.7496 19.9749H17.8496C17.3802 19.9749 16.9996 19.5943 16.9996 19.1249V17.7249H7.00002Z" fill="black"/>
</svg>
