<svg width="24" height="24" viewBox="0 0 24 24" fill="none" xmlns="http://www.w3.org/2000/svg">
<path fill-rule="evenodd" clip-rule="evenodd" d="M3.20078 5.7049C3.20078 5.26031 3.56119 4.8999 4.00578 4.8999L19.995 4.89991C20.4396 4.89991 20.8 5.26032 20.8 5.70491V17.6949C20.8 18.1395 20.4396 18.4999 19.995 18.4999L11.3306 18.4999L11.3306 17.2999L19.6 17.2999V6.09991L4.40078 6.0999V10.0698H3.20078V5.7049ZM3.2002 11.9699C4.93187 11.9699 6.59262 12.6578 7.81709 13.8823C9.04157 15.1068 9.72948 16.7675 9.72948 18.4992H8.52948C8.52948 17.0858 7.968 15.7303 6.96857 14.7308C5.96913 13.7314 4.61361 13.1699 3.2002 13.1699V11.9699ZM3.2002 14.8063C4.17978 14.8063 5.11925 15.1954 5.81192 15.8881C6.50459 16.5808 6.89373 17.5202 6.89373 18.4998H5.69373C5.69373 17.8385 5.43102 17.2042 4.96339 16.7366C4.49576 16.269 3.86152 16.0063 3.2002 16.0063V14.8063Z" fill="black"/>
</svg>
