<svg width="24" height="24" viewBox="0 0 24 24" fill="none" xmlns="http://www.w3.org/2000/svg">
<path fill-rule="evenodd" clip-rule="evenodd" d="M11.2 2.68384C11.1818 2.68538 11.1637 2.68698 11.1456 2.68864C9.39394 2.84831 7.71836 3.50008 6.30812 4.5822C4.50849 5.9631 3.27224 7.95115 2.8297 10.1759C2.40219 12.3252 2.74356 14.5538 3.78977 16.4737L3.08287 19.9339C2.96326 20.5194 3.48063 21.0368 4.06614 20.9172L7.52635 20.2103C8.66885 20.8329 9.92064 21.2058 11.2 21.3157V20.1107C10.0818 20.0003 8.98994 19.6592 7.99669 19.099C7.82403 19.0016 7.61895 18.9666 7.41822 19.0076L4.36966 19.6304L4.99246 16.5818C5.03347 16.3811 4.99842 16.176 4.90105 16.0034C3.9442 14.3067 3.62627 12.3223 4.00665 10.4101C4.39239 8.47079 5.46997 6.7379 7.03863 5.53422C8.25398 4.60165 9.69388 4.03635 11.2 3.88884V2.68384ZM12.8 20.1107C13.0641 20.0846 13.3277 20.0456 13.59 19.9934C15.5293 19.6077 17.2622 18.5301 18.4658 16.9614C19.6695 15.3928 20.2619 13.44 20.1326 11.467C20.0032 9.49398 19.1611 7.63526 17.7629 6.23713C16.428 4.90222 14.6732 4.07412 12.8 3.8894V2.68434C12.8162 2.68573 12.8324 2.68716 12.8486 2.68863C15.0236 2.8868 17.0636 3.84071 18.6115 5.3886C20.2155 6.99259 21.1816 9.12499 21.33 11.3885C21.4784 13.652 20.7988 15.8923 19.4179 17.6919C18.037 19.4916 16.0489 20.7278 13.8241 21.1704C13.4842 21.238 13.1423 21.2864 12.8 21.3158V20.1107Z" fill="black"/>
</svg>
