<svg width="24" height="24" viewBox="0 0 24 24" fill="none" xmlns="http://www.w3.org/2000/svg">
<path fill-rule="evenodd" clip-rule="evenodd" d="M12 3.25643L4.60002 5.47642V11.8H3.40002V5.21601C3.40002 4.84064 3.64624 4.50972 4.00578 4.40186L11.7558 2.07686C11.9151 2.02907 12.0849 2.02907 12.2443 2.07686L19.9943 4.40186L19.8219 4.97655L19.9943 4.40186C20.3538 4.50972 20.6 4.84064 20.6 5.21601V11.8H19.4V5.47642L12 3.25643ZM16.9243 9.40681L11.1718 15.1594C10.8398 15.4913 10.3016 15.4913 9.96967 15.1594L7.07576 12.2655L7.92429 11.4169L10.5707 14.0634L16.0757 8.55829L16.9243 9.40681ZM4.60002 13.4C4.60002 17.4869 7.91312 20.8 12 20.8C16.0869 20.8 19.4 17.4869 19.4 13.4H20.6C20.6 18.1497 16.7497 22 12 22C7.25038 22 3.40002 18.1497 3.40002 13.4H4.60002Z" fill="black"/>
</svg>
