<svg width="24" height="24" viewBox="0 0 24 24" fill="none" xmlns="http://www.w3.org/2000/svg">
<path fill-rule="evenodd" clip-rule="evenodd" d="M12.8001 3.261V2.05664C17.9351 2.46403 21.9753 6.76023 21.9753 12C21.9753 17.2399 17.9351 21.536 12.8001 21.9434V20.7391C17.2715 20.3351 20.7753 16.5767 20.7753 12C20.7753 7.42336 17.2715 3.66501 12.8001 3.261ZM11.2001 20.739C6.72879 20.3349 3.22527 16.5766 3.22527 12C3.22527 7.42349 6.72879 3.66523 11.2001 3.26104V2.05667C6.06519 2.46425 2.02527 6.76036 2.02527 12C2.02527 17.2397 6.06519 21.5358 11.2001 21.9434V20.739ZM11.1515 12L8.02012 8.86865L8.86865 8.02012L12 11.1515L15.1314 8.02012L15.98 8.86865L12.8486 12L15.98 15.1314L15.1314 15.98L12 12.8486L8.86865 15.98L8.02012 15.1314L11.1515 12Z" fill="black"/>
</svg>
