<svg width="24" height="24" viewBox="0 0 24 24" fill="none" xmlns="http://www.w3.org/2000/svg">
<path fill-rule="evenodd" clip-rule="evenodd" d="M7.50227 2.24896C7.66167 2.08955 7.87787 2 8.10331 2H15.8962C16.1216 2 16.3378 2.08955 16.4972 2.24894L21.7512 7.50252C21.9106 7.66192 22.0001 7.87814 22.0001 8.10358V15.8965C22.0001 16.1219 21.9106 16.3381 21.7512 16.4975L16.4972 21.7511C16.3378 21.9105 16.1216 22 15.8962 22H8.10331C7.87788 22 7.66168 21.9105 7.50227 21.7511L2.24872 16.4975C2.08931 16.3381 1.99976 16.1219 1.99976 15.8965V8.10358C1.99976 7.87815 2.08931 7.66194 2.24871 7.50254L7.50227 2.24896ZM15.7512 3.2H8.24828L3.19976 8.24855V15.7515L8.24828 20.8H15.7512L20.8001 15.7515V8.24856L15.7512 3.2ZM11.1511 12L8.01973 8.86859L8.86826 8.02007L11.9997 11.1515L15.1311 8.02007L15.9796 8.86859L12.8482 12L15.9796 15.1314L15.1311 15.9799L11.9997 12.8485L8.86826 15.9799L8.01973 15.1314L11.1511 12Z" fill="black"/>
</svg>
