<svg width="24" height="24" viewBox="0 0 24 24" fill="none" xmlns="http://www.w3.org/2000/svg">
<path fill-rule="evenodd" clip-rule="evenodd" d="M2.52502 3.3749C2.52502 2.90546 2.90558 2.5249 3.37502 2.5249H20.625C21.0945 2.5249 21.475 2.90546 21.475 3.3749V20.6249C21.475 21.0943 21.0945 21.4749 20.625 21.4749H3.37502C2.90558 21.4749 2.52502 21.0943 2.52502 20.6249V3.3749ZM3.72502 3.7249V20.2749H20.275V3.7249H3.72502ZM11.1515 11.9999L8.0201 8.8685L8.86862 8.01997L12 11.1514L15.1314 8.01997L15.98 8.8685L12.8486 11.9999L15.98 15.1313L15.1314 15.9798L12 12.8484L8.86862 15.9798L8.0201 15.1313L11.1515 11.9999Z" fill="black"/>
</svg>
