<svg width="24" height="24" viewBox="0 0 24 24" fill="none" xmlns="http://www.w3.org/2000/svg">
<path fill-rule="evenodd" clip-rule="evenodd" d="M2.03027 15.8998C2.03027 12.9503 4.31054 10.5333 7.20436 10.3157L7.63027 10.7416V11.4998C5.20022 11.4998 3.23027 13.4697 3.23027 15.8998C3.23027 18.3297 5.19996 20.2995 7.62979 20.2998V21.4998C4.53721 21.4995 2.03027 18.9924 2.03027 15.8998ZM10.7799 15.8998C10.7799 15.2943 10.876 14.7113 11.0538 14.1651L12.0428 15.1542C12.0015 15.3965 11.9799 15.6456 11.9799 15.8998H10.7799ZM16.4395 20.2999C16.6732 20.2968 16.9024 20.2755 17.1259 20.2373L18.1149 21.2263C17.5687 21.4041 16.9855 21.5003 16.3799 21.5003V21.4998H16.3798V20.2998H16.4395V20.2999ZM18.7557 19.6043L19.6198 20.4684C19.6198 20.4684 19.6198 20.4684 19.6199 20.4684L20.0609 20.9094L20.9094 20.0609L3.93886 3.09033L3.09033 3.93886L6.06581 6.91434C6.0658 6.91436 6.06579 6.91438 6.06579 6.9144L7.06614 7.91476C7.06615 7.91473 7.06615 7.91471 7.06615 7.91468L11.8117 12.6602C11.8116 12.6602 11.8116 12.6602 11.8116 12.6602L12.6757 13.5243C12.6757 13.5243 12.6757 13.5243 12.6757 13.5243L18.7558 19.6043C18.7558 19.6043 18.7557 19.6043 18.7557 19.6043ZM21.9799 15.9003C21.9799 16.767 21.783 17.5878 21.4314 18.3203L20.5159 17.4048C20.6867 16.9354 20.7799 16.4287 20.7799 15.9003C20.7799 13.4702 18.8099 11.5003 16.3799 11.5003H16.3798V10.3003H16.3799C19.4727 10.3003 21.9799 12.8075 21.9799 15.9003ZM14.7798 10.5322V11.6686L13.9598 10.8487C14.2225 10.7226 14.4964 10.6165 14.7798 10.5322ZM12.0049 3.69976C10.5748 3.69976 9.28502 4.3001 8.3737 5.26251L7.52491 4.41373C8.65362 3.23428 10.2435 2.49976 12.0049 2.49976C15.4291 2.49976 18.2049 5.27559 18.2049 8.69976H17.0049C17.0049 5.93833 14.7663 3.69976 12.0049 3.69976ZM9.22978 21.4998H14.7798V20.2998H9.22978V21.4998Z" fill="black"/>
</svg>
