<svg width="24" height="24" viewBox="0 0 24 24" fill="none" xmlns="http://www.w3.org/2000/svg">
<path fill-rule="evenodd" clip-rule="evenodd" d="M5.805 8.69976C5.805 5.27559 8.58083 2.49976 12.005 2.49976C15.4292 2.49976 18.205 5.27559 18.205 8.69976H17.005C17.005 5.93833 14.7664 3.69976 12.005 3.69976C9.24358 3.69976 7.005 5.93833 7.005 8.69976H5.805ZM2.0304 15.8998C2.0304 12.807 4.5376 10.2998 7.6304 10.2998V11.4998C5.20034 11.4998 3.2304 13.4697 3.2304 15.8998C3.2304 18.3297 5.20008 20.2995 7.62991 20.2998V21.4998C4.53734 21.4995 2.0304 18.9924 2.0304 15.8998ZM9.22991 21.4998H14.7799V20.2998H9.22991V21.4998ZM16.4396 20.2998H16.3799V21.4998H16.38V21.5003C19.4728 21.5003 21.98 18.9931 21.98 15.9003C21.98 12.8075 19.4728 10.3003 16.38 10.3003H16.3799V11.5003H16.38C18.8101 11.5003 20.78 13.4702 20.78 15.9003C20.78 18.3104 18.8422 20.268 16.4396 20.2999V20.2998ZM14.7799 11.8002V10.5322C12.4668 11.2205 10.7801 13.3629 10.7801 15.8998H11.9801C11.9801 14.0343 13.141 12.4401 14.7799 11.8002Z" fill="black"/>
</svg>
