<svg width="24" height="24" viewBox="0 0 24 24" fill="none" xmlns="http://www.w3.org/2000/svg">
<path fill-rule="evenodd" clip-rule="evenodd" d="M7.42833 4.9915C7.05703 4.9915 6.70093 5.139 6.43838 5.40155C6.17583 5.66411 6.02833 6.0202 6.02833 6.3915C6.02833 6.76281 6.17583 7.1189 6.43838 7.38145C6.70093 7.644 7.05703 7.7915 7.42833 7.7915V8.9915C6.73877 8.9915 6.07745 8.71758 5.58985 8.22998C5.10226 7.74239 4.82833 7.08107 4.82833 6.3915C4.82833 5.70194 5.10226 5.04062 5.58985 4.55303C6.07745 4.06543 6.73877 3.7915 7.42833 3.7915V4.9915ZM11.0284 4.9915C10.6571 4.9915 10.301 5.139 10.0385 5.40155C9.77593 5.66411 9.62843 6.0202 9.62843 6.3915C9.62843 6.76281 9.77593 7.1189 10.0385 7.38145C10.301 7.644 10.6571 7.7915 11.0284 7.7915V8.9915C10.3389 8.9915 9.67755 8.71758 9.18995 8.22998C8.70236 7.74239 8.42843 7.08107 8.42843 6.3915C8.42843 5.70194 8.70236 5.04062 9.18995 4.55303C9.67754 4.06543 10.3389 3.7915 11.0284 3.7915V4.9915ZM14.6285 4.9915C14.2572 4.9915 13.9011 5.139 13.6386 5.40155C13.376 5.66411 13.2285 6.0202 13.2285 6.3915C13.2285 6.76281 13.376 7.1189 13.6386 7.38145C13.9011 7.644 14.2572 7.7915 14.6285 7.7915V8.9915C13.939 8.9915 13.2776 8.71758 12.79 8.22998C12.3025 7.74239 12.0285 7.08107 12.0285 6.3915C12.0285 5.70194 12.3025 5.04062 12.79 4.55303C13.2776 4.06543 13.939 3.7915 14.6285 3.7915V4.9915ZM16.94 11.6941H3.11011V10.4941H16.94V11.6941ZM19.6858 13.0941C19.6858 12.3209 19.059 11.6941 18.2858 11.6941V10.4941C19.7217 10.4941 20.8858 11.6582 20.8858 13.0941C20.8858 14.5301 19.7217 15.6941 18.2858 15.6941V14.4941C19.059 14.4941 19.6858 13.8673 19.6858 13.0941ZM4.31422 13.2942C4.31422 16.4501 6.87259 19.0084 10.0285 19.0084C13.1844 19.0084 15.7428 16.4501 15.7428 13.2942H16.9428C16.9428 17.1128 13.8472 20.2084 10.0285 20.2084C6.20985 20.2084 3.11422 17.1128 3.11422 13.2942H4.31422Z" fill="black"/>
</svg>
