<svg width="24" height="24" viewBox="0 0 24 24" fill="none" xmlns="http://www.w3.org/2000/svg">
<path fill-rule="evenodd" clip-rule="evenodd" d="M5.39993 2.47072C3.68975 2.80812 2.40002 4.31604 2.40002 6.12519C2.40002 7.93434 3.68975 9.44225 5.39993 9.77966V8.54453C4.35881 8.23294 3.60002 7.26768 3.60002 6.12519C3.60002 4.9827 4.35881 4.01743 5.39993 3.70585V2.47072ZM6.59993 8.65019H8.65002V6.12519C8.65002 4.893 7.76742 3.86696 6.59993 3.64478V2.43018C8.43293 2.66342 9.85002 4.22881 9.85002 6.12519V8.65019H14.15V6.12519V6.00019H14.1521C14.2127 4.16047 15.6074 2.65838 17.3999 2.4302V3.64482C16.2325 3.86708 15.35 4.89307 15.35 6.12519V8.65019H17.3999V9.85019H15.35V14.1502H17.3999V15.3502H15.35V17.8752C15.35 19.1073 16.2325 20.1333 17.3999 20.3556V21.5702C15.567 21.3368 14.15 19.7715 14.15 17.8752V15.3502H9.85002V17.8752V18.0002H9.84797C9.7873 19.84 8.3925 21.3421 6.59993 21.5702V20.3556C7.76742 20.1334 8.65002 19.1074 8.65002 17.8752V15.3502H6.59993V14.1502H8.65002V9.85019H6.59993V8.65019ZM5.39993 14.2207C3.68975 14.5581 2.40002 16.066 2.40002 17.8752C2.40002 19.6843 3.68975 21.1923 5.39993 21.5297V20.2945C4.35881 19.9829 3.60002 19.0177 3.60002 17.8752C3.60002 16.7327 4.35881 15.7674 5.39993 15.4558V14.2207ZM20.4 6.12519C20.4 7.26775 19.6411 8.23307 18.5999 8.54459V9.7797C20.3102 9.44237 21.6 7.93441 21.6 6.12519C21.6 4.31597 20.3102 2.80801 18.5999 2.47068V3.70579C19.6411 4.01731 20.4 4.98263 20.4 6.12519ZM18.5999 15.4558V14.2207C20.3102 14.558 21.6 16.066 21.6 17.8752C21.6 19.6844 20.3102 21.1924 18.5999 21.5297V20.2946C19.6411 19.9831 20.4 19.0177 20.4 17.8752C20.4 16.7326 19.6411 15.7673 18.5999 15.4558ZM9.85002 9.85019V14.1502H14.15V9.85019H9.85002Z" fill="black"/>
</svg>
