<svg width="24" height="24" viewBox="0 0 24 24" fill="none" xmlns="http://www.w3.org/2000/svg">
<path fill-rule="evenodd" clip-rule="evenodd" d="M16.4145 4.63632C17.2346 3.81621 18.5643 3.81622 19.3844 4.63632C20.2045 5.45642 20.2045 6.78606 19.3844 7.60616L19.3451 7.64545L18.4966 6.79692L18.5358 6.75764C18.8873 6.40616 18.8873 5.83632 18.5358 5.48484C18.1844 5.13337 17.6145 5.13337 17.263 5.48484L16.8388 5.06058L17.263 5.48485L17.2238 5.52413L16.3752 4.6756L16.4145 4.63632ZM5.60002 5.59992H13.8V4.39992H5.25002C4.78058 4.39992 4.40002 4.78048 4.40002 5.24992V18.7499C4.40002 19.2194 4.78058 19.5999 5.25002 19.5999H18.75C19.2195 19.5999 19.6 19.2194 19.6 18.7499V10.1999H18.4V18.3999H5.60002V5.59992ZM9.64675 13.1011L16.3438 6.40408L15.4953 5.55555L8.69462 12.3562C8.53366 12.5172 8.44399 12.736 8.44569 12.9636L8.45878 14.7183C8.46225 15.1827 8.83793 15.5584 9.30242 15.5619L11.0571 15.575C11.2847 15.5767 11.5035 15.487 11.6645 15.3261L18.4651 8.5254L17.6166 7.67687L10.9195 14.3739L9.65618 14.3645L9.64675 13.1011Z" fill="black"/>
</svg>
