<svg width="24" height="24" viewBox="0 0 24 24" fill="none" xmlns="http://www.w3.org/2000/svg">
<path fill-rule="evenodd" clip-rule="evenodd" d="M12.8001 3.26101V2.05665C17.935 2.46416 21.975 6.7603 21.975 12C21.975 17.2398 17.935 21.5359 12.8001 21.9434V20.739C17.2714 20.3349 20.775 16.5766 20.775 12C20.775 7.42343 17.2714 3.66514 12.8001 3.26101ZM11.2001 20.7391C6.72868 20.335 3.22502 16.5767 3.22502 12C3.22502 7.4234 6.72868 3.66508 11.2001 3.261V2.05664C6.06507 2.46411 2.02502 6.76027 2.02502 12C2.02502 17.2398 6.06507 21.536 11.2001 21.9434V20.7391ZM14.7742 8.21283C15.4824 7.91893 16.1871 8.63918 15.8777 9.34083L14.0095 13.5782C13.9227 13.7749 13.7647 13.9315 13.5671 14.0163L9.27657 15.8584C8.57101 16.1613 7.85726 15.4475 8.16018 14.742L10.0009 10.4544C10.0883 10.2509 10.2517 10.0895 10.4562 10.0046L14.7742 8.21283ZM14.4273 9.65598L11.0475 11.0585L9.60868 14.4099L12.9671 12.968L14.4273 9.65598Z" fill="black"/>
</svg>
