<svg width="24" height="24" viewBox="0 0 24 24" fill="none" xmlns="http://www.w3.org/2000/svg">
<path fill-rule="evenodd" clip-rule="evenodd" d="M6.6006 4.2499C6.6006 3.78046 6.98116 3.3999 7.4506 3.3999H19.75C20.2195 3.3999 20.6 3.78046 20.6 4.2499V16.5499C20.6 17.0193 20.2195 17.3999 19.75 17.3999H18.6004V16.1999H19.4V4.5999H7.8006V5.3999H6.6006V4.2499ZM3.40002 7.4499C3.40002 6.98046 3.78058 6.5999 4.25002 6.5999H16.5494C17.0189 6.5999 17.3994 6.98046 17.3994 7.4499V19.7499C17.3994 20.2193 17.0189 20.5999 16.5494 20.5999H4.25002C3.78058 20.5999 3.40002 20.2193 3.40002 19.7499V7.4499ZM4.60002 7.7999V19.3999H16.1994V7.7999H4.60002Z" fill="black"/>
</svg>
