<svg width="24" height="24" viewBox="0 0 24 24" fill="none" xmlns="http://www.w3.org/2000/svg">
<path fill-rule="evenodd" clip-rule="evenodd" d="M12.6358 4.7305L18.9996 4.73047L18.9996 5.93047L12.6249 5.9305C12.6246 5.9305 12.6252 5.9305 12.6249 5.9305C11.6309 5.93359 10.6775 6.32978 9.97441 7.03285C9.26921 7.73806 8.87275 8.69431 8.87204 9.69155L8.87204 17.221L11.1209 14.9722L11.9694 15.8207L8.8732 18.9169C8.54126 19.2489 8.00307 19.2489 7.67112 18.9169L4.57532 15.8211L5.42385 14.9726L7.67204 17.2208L7.67204 9.69422C7.67204 9.69319 7.67204 9.69217 7.67204 9.69115V9.49996H7.67584C7.72459 8.25409 8.24089 7.06932 9.12589 6.18433C10.0534 5.25683 11.3102 4.73429 12.6214 4.7305L12.6358 4.7305Z" fill="black"/>
</svg>
