<svg width="24" height="24" viewBox="0 0 24 24" fill="none" xmlns="http://www.w3.org/2000/svg">
<path fill-rule="evenodd" clip-rule="evenodd" d="M18.6698 7.67236L9.68988 7.67236L9.68988 8.87236L18.6698 8.87236L18.6698 7.67236Z" fill="black"/>
<path fill-rule="evenodd" clip-rule="evenodd" d="M17.8214 8.27253L14.9731 5.42421L15.8216 4.57568L18.9174 7.67149C19.2494 8.00343 19.2494 8.54162 18.9174 8.87357L15.8212 11.9698L14.9727 11.1213L17.8214 8.27253ZM9.6947 8.87241C8.6965 8.87241 7.73918 9.26894 7.03334 9.97478C6.33026 10.6779 5.93407 11.6305 5.93099 12.6245C5.93099 12.6247 5.93099 12.625 5.93099 12.6253L5.93096 19L4.73096 18.9999L4.73099 12.6361H4.73097L4.73099 12.6236V12.6236L4.73099 12.6218C4.73477 11.3105 5.25731 10.0538 6.18482 9.12625C7.1157 8.19537 8.37824 7.67241 9.6947 7.67241V8.87241Z" fill="black"/>
</svg>
