<svg width="24" height="24" viewBox="0 0 24 24" fill="none" xmlns="http://www.w3.org/2000/svg">
<path fill-rule="evenodd" clip-rule="evenodd" d="M4.73056 11.3638L4.73053 5.00001L5.93053 5L5.93056 11.3747C5.93056 11.3744 5.93056 11.3749 5.93056 11.3747C5.93364 12.3686 6.32983 13.3221 7.03292 14.0252C7.73875 14.731 8.69607 15.1275 9.69428 15.1275H17.2211L14.9722 12.8787L15.8208 12.0301L18.917 15.1264C19.2489 15.4583 19.2489 15.9965 18.917 16.3285L15.8212 19.4243L14.9727 18.5757L17.2209 16.3275H9.49996V16.3237C8.25411 16.275 7.06937 15.7587 6.18439 14.8737C5.25688 13.9462 4.73434 12.6894 4.73057 11.3781L4.73056 11.3764L4.73056 11.3638Z" fill="black"/>
</svg>
