<svg width="24" height="24" viewBox="0 0 24 24" fill="none" xmlns="http://www.w3.org/2000/svg">
<path fill-rule="evenodd" clip-rule="evenodd" d="M5.083 7.67149L8.17881 4.57568L9.02734 5.42421L6.77914 7.67241L14.3057 7.67241C14.3062 7.67241 14.3068 7.67241 14.3073 7.67241C14.3082 7.67241 14.3091 7.67241 14.31 7.67241C15.625 7.67355 16.8858 8.19639 17.8156 9.12625C18.7431 10.0538 19.2657 11.3105 19.2694 12.6218L19.2694 12.6236V12.6238L19.2695 12.6361H19.2694L19.2695 18.9999L18.0695 19L18.0694 12.6253C18.0694 12.625 18.0694 12.6247 18.0694 12.6243C18.0663 11.6304 17.6701 10.6778 16.9671 9.97478C16.2616 9.26926 15.3048 8.87276 14.3071 8.87241C14.3066 8.87241 14.3062 8.87241 14.3057 8.87241H6.7789L9.02778 11.1213L8.17925 11.9698L5.083 8.87357C4.75106 8.54162 4.75106 8.00343 5.083 7.67149Z" fill="black"/>
</svg>
