<svg width="24" height="24" viewBox="0 0 24 24" fill="none" xmlns="http://www.w3.org/2000/svg">
<path fill-rule="evenodd" clip-rule="evenodd" d="M18.0694 11.3747L18.0695 5L19.2695 5.00001L19.2694 11.3638V11.3762L19.2694 11.3781C19.2657 12.6894 18.7431 13.9462 17.8156 14.8737C16.9306 15.7587 15.7459 16.275 14.5 16.3237V16.3275H6.77914L9.02734 18.5757L8.17881 19.4243L5.083 16.3285C4.75106 15.9965 4.75106 15.4583 5.083 15.1264L8.17925 12.0301L9.02778 12.8787L6.7789 15.1275H14.3057C15.3039 15.1275 16.2613 14.731 16.9671 14.0252C17.6701 13.3221 18.0663 12.3686 18.0694 11.3747C18.0694 11.375 18.0694 11.3743 18.0694 11.3747Z" fill="black"/>
</svg>
