<svg width="24" height="24" viewBox="0 0 24 24" fill="none" xmlns="http://www.w3.org/2000/svg">
<path fill-rule="evenodd" clip-rule="evenodd" d="M8.87247 6.77884L11.1213 9.02772L11.9699 8.17919L8.87363 5.08294C8.54168 4.751 8.00349 4.751 7.67155 5.08294L4.57574 8.17875L5.42427 9.02727L7.67247 6.77908L7.67247 14.3057C7.67247 14.3069 7.67247 14.3082 7.67247 14.3095V14.4999H7.67627C7.72502 15.7458 8.24132 16.9306 9.12631 17.8156C10.0538 18.7431 11.3106 19.2656 12.6219 19.2694L12.6236 19.2694H12.6239L12.6362 19.2694V19.2694L19 19.2694L19 18.0694L12.6254 18.0694C12.6251 18.0694 12.6247 18.0694 12.6244 18.0694C11.6305 18.0663 10.6779 17.6701 9.97484 16.967C9.26978 16.262 8.87334 15.306 8.87247 14.309L8.87247 6.77884Z" fill="black"/>
</svg>
