<svg width="24" height="24" viewBox="0 0 24 24" fill="none" xmlns="http://www.w3.org/2000/svg">
<path fill-rule="evenodd" clip-rule="evenodd" d="M11.3747 5.9305L5 5.93047L5.00001 4.73047L11.3638 4.7305L11.3781 4.7305C12.6894 4.73429 13.9462 5.25683 14.8737 6.18433C15.7587 7.06932 16.275 8.25409 16.3237 9.49996H16.3275V17.2208L18.5757 14.9726L19.4243 15.8211L16.3285 18.9169C15.9965 19.2489 15.4583 19.2489 15.1264 18.9169L12.0301 15.8207L12.8787 14.9722L15.1275 17.221V9.69422C15.1275 8.69601 14.731 7.73869 14.0252 7.03285C13.3221 6.32978 12.3687 5.93359 11.3747 5.9305C11.375 5.9305 11.3744 5.9305 11.3747 5.9305Z" fill="black"/>
</svg>
