<svg width="24" height="24" viewBox="0 0 24 24" fill="none" xmlns="http://www.w3.org/2000/svg">
<path fill-rule="evenodd" clip-rule="evenodd" d="M15.1264 5.08294C15.4583 4.751 15.9965 4.751 16.3285 5.08294L19.4243 8.17875L18.5757 9.02727L16.3275 6.77908V14.4999H16.3237C16.275 15.7458 15.7587 16.9306 14.8737 17.8156C13.9462 18.7431 12.6894 19.2656 11.3781 19.2694L11.3764 19.2694L11.3638 19.2694L5.00001 19.2694L5 18.0694L11.3746 18.0694C11.3743 18.0694 11.375 18.0694 11.3746 18.0694C12.3686 18.0663 13.3221 17.6701 14.0252 16.967C14.731 16.2612 15.1275 15.3039 15.1275 14.3057V6.77884L12.8787 9.02772L12.0301 8.17919L15.1264 5.08294Z" fill="black"/>
</svg>
