<svg width="24" height="24" viewBox="0 0 24 24" fill="none" xmlns="http://www.w3.org/2000/svg">
<path fill-rule="evenodd" clip-rule="evenodd" d="M9.4 4.4V2H10.6V4.4H13.4V2H14.6V4.4H18.75C19.2194 4.4 19.6 4.78056 19.6 5.25V9.4H22V10.6H19.6V13.4H22V14.6H19.6V18.75C19.6 19.2194 19.2194 19.6 18.75 19.6H14.6V22H13.4V19.6H10.6V22H9.4V19.6H5.25C4.78056 19.6 4.4 19.2194 4.4 18.75V14.6H2V13.4H4.4V10.6H2V9.4H4.4V5.25C4.4 4.78056 4.78056 4.4 5.25 4.4H9.4ZM5.6 5.6V18.4H18.4V5.6H5.6ZM8.4 9.25C8.4 8.78056 8.78056 8.4 9.25 8.4H14.75C15.2194 8.4 15.6 8.78056 15.6 9.25V14.75C15.6 15.2194 15.2194 15.6 14.75 15.6H9.25C8.78056 15.6 8.4 15.2194 8.4 14.75V9.25ZM9.6 9.6V14.4H14.4V9.6H9.6Z" fill="black"/>
</svg>
