<svg width="24" height="24" viewBox="0 0 24 24" fill="none" xmlns="http://www.w3.org/2000/svg">
<path fill-rule="evenodd" clip-rule="evenodd" d="M2.40002 5.7499C2.40002 5.28046 2.78058 4.8999 3.25002 4.8999H20.75C21.2195 4.8999 21.6 5.28046 21.6 5.7499V8.29989H20.4V6.0999H3.60002V8.29989H2.40002V5.7499ZM20.4 9.89989V17.8999H3.60002V9.89989H2.40002V18.2499C2.40002 18.7193 2.78058 19.0999 3.25002 19.0999H20.75C21.2195 19.0999 21.6 18.7193 21.6 18.2499V9.89989H20.4ZM19 8.49871H5.00002V7.29871H19V8.49871ZM19 10.9011H5.00002V9.70105H19V10.9011ZM16.1999 14.4999C16.1999 14.9418 16.5581 15.2999 16.9999 15.2999C17.4418 15.2999 17.7999 14.9418 17.7999 14.4999H18.9999C18.9999 15.6045 18.1045 16.4999 16.9999 16.4999C15.8954 16.4999 14.9999 15.6045 14.9999 14.4999H16.1999Z" fill="black"/>
</svg>
