<svg width="24" height="24" viewBox="0 0 24 24" fill="none" xmlns="http://www.w3.org/2000/svg">
<path fill-rule="evenodd" clip-rule="evenodd" d="M12 3.70756L5.1321 8.00001L12 12.2925L18.8679 8.00001L12 3.70756ZM19.4 9.08256L12.6 13.3326V19.9175L19.4 15.6675V9.08256ZM11.4 19.9175V13.3326L4.60002 9.08256V15.6675L11.4 19.9175ZM11.5495 2.57403C11.8252 2.40176 12.1749 2.40176 12.4505 2.57403L20.318 7.49121C20.4935 7.60086 20.6 7.79314 20.6 8.00001V15.8615C20.6 16.1545 20.449 16.4269 20.2005 16.5822L12.318 21.5088C12.1235 21.6304 11.8766 21.6304 11.682 21.5088L3.79952 16.5822C3.551 16.4269 3.40002 16.1545 3.40002 15.8615V8.00001C3.40002 7.79314 3.5066 7.60086 3.68203 7.49121L11.5495 2.57403Z" fill="black"/>
</svg>
