<svg width="24" height="24" viewBox="0 0 24 24" fill="none" xmlns="http://www.w3.org/2000/svg">
<path fill-rule="evenodd" clip-rule="evenodd" d="M16.25 4.5999C15.4768 4.5999 14.85 5.2267 14.85 5.9999C14.85 6.7731 15.4768 7.3999 16.25 7.3999C17.0232 7.3999 17.65 6.7731 17.65 5.9999C17.65 5.2267 17.0232 4.5999 16.25 4.5999ZM13.65 5.9999C13.65 4.56396 14.814 3.3999 16.25 3.3999C17.6859 3.3999 18.85 4.56396 18.85 5.9999C18.85 7.43584 17.6859 8.5999 16.25 8.5999C14.814 8.5999 13.65 7.43584 13.65 5.9999ZM12.7981 9.66661C13.4372 11.3309 15.1184 12.4424 16.9831 12.2792L16.8785 11.0838C15.4304 11.2105 14.1371 10.2496 13.8069 8.87791C13.7292 8.55503 13.4885 8.33253 13.2247 8.24251C12.956 8.1508 12.6065 8.18063 12.3441 8.43521L8.52495 12.1398C8.2438 12.4125 8.21931 12.787 8.32333 13.0641C8.4256 13.3366 8.67563 13.5871 9.03384 13.6361C10.933 13.8959 12.3965 15.5257 12.3965 17.4964H13.5965C13.5965 15.1329 11.9881 13.1459 9.80603 12.5689L12.7981 9.66661ZM5.74998 14.6739C4.84531 14.6739 4.07114 15.2326 3.75375 16.0239H2.49611C2.8548 14.56 4.17555 13.4739 5.74998 13.4739C7.32442 13.4739 8.64517 14.56 9.00386 16.0239H7.74621C7.42882 15.2326 6.65465 14.6739 5.74998 14.6739ZM2.49609 17.6239H3.75373C4.07111 18.4151 4.84529 18.9739 5.74998 18.9739C6.65467 18.9739 7.42886 18.4151 7.74623 17.6239H9.00387C8.6452 19.0878 7.32443 20.1739 5.74998 20.1739C4.17553 20.1739 2.85476 19.0878 2.49609 17.6239ZM16.2537 17.6239H14.9961C15.3548 19.0878 16.6755 20.1739 18.25 20.1739C19.8244 20.1739 21.1452 19.0878 21.5039 17.6239H20.2462C19.9289 18.4151 19.1547 18.9739 18.25 18.9739C17.3453 18.9739 16.5711 18.4151 16.2537 17.6239ZM20.2462 16.0239H21.5039C21.1452 14.56 19.8244 13.4739 18.25 13.4739C16.6755 13.4739 15.3548 14.56 14.9961 16.0239H16.2538C16.5711 15.2326 17.3453 14.6739 18.25 14.6739C19.1546 14.6739 19.9288 15.2326 20.2462 16.0239Z" fill="black"/>
</svg>
