<svg width="24" height="24" viewBox="0 0 24 24" fill="none" xmlns="http://www.w3.org/2000/svg">
<path fill-rule="evenodd" clip-rule="evenodd" d="M5.31438 5.92849C5.31443 5.85575 5.35819 5.69106 5.65832 5.45452C5.95185 5.22318 6.41377 4.9886 7.03805 4.78049C8.28034 4.36636 10.0347 4.0999 12 4.0999C13.9654 4.0999 15.7197 4.36636 16.962 4.78049C17.5863 4.9886 18.0482 5.22318 18.3417 5.45452C18.642 5.69119 18.6857 5.85593 18.6857 5.92861V5.93184C18.6843 6.00616 18.6375 6.16947 18.3418 6.40255C18.0482 6.63388 17.5863 6.86845 16.962 7.07654C15.7197 7.49064 13.9654 7.75706 12 7.75706C10.0347 7.75706 8.28033 7.49064 7.03804 7.07654C6.41376 6.86845 5.95184 6.63388 5.65831 6.40255C5.35802 6.1659 5.31438 6.00117 5.31438 5.92849ZM4.11438 5.92849C4.11443 5.3306 4.4785 4.85648 4.91553 4.51204C5.35935 4.16226 5.96438 3.87349 6.65855 3.64208C8.05315 3.17717 9.94161 2.8999 12 2.8999C14.0585 2.8999 15.9469 3.17717 17.3415 3.64208C18.0357 3.87349 18.6407 4.16226 19.0845 4.51205C19.5216 4.85648 19.8856 5.3306 19.8857 5.92849H19.8857C19.8857 5.93165 19.8857 5.93481 19.8857 5.93797V12H19.8857C19.8857 12.0032 19.8857 12.0063 19.8857 12.0095V18.0713H19.8857C19.8857 18.6693 19.5216 19.1434 19.0845 19.4879C18.6407 19.8376 18.0357 20.1264 17.3415 20.3578C15.9469 20.8227 14.0585 21.0999 12 21.0999C9.94162 21.0999 8.05316 20.8227 6.65856 20.3578C5.9644 20.1264 5.35936 19.8376 4.91554 19.4879C4.47852 19.1435 4.11444 18.6693 4.11438 18.0715C4.11438 18.0714 4.11438 18.0714 4.11438 18.0713V12V5.92861C4.11438 5.92857 4.11438 5.92853 4.11438 5.92849ZM5.31438 13.6899V18.0713C5.31438 18.0714 5.31438 18.0714 5.31438 18.0715C5.31444 18.1442 5.35824 18.3089 5.65831 18.5454C5.95184 18.7767 6.41376 19.0113 7.03804 19.2194C8.28033 19.6335 10.0347 19.8999 12 19.8999C13.9654 19.8999 15.7197 19.6335 16.962 19.2194C17.5863 19.0113 18.0482 18.7767 18.3418 18.5454C18.6418 18.3089 18.6856 18.1442 18.6857 18.0715H18.6857V13.69C18.3031 13.92 17.8458 14.1184 17.3415 14.2865C15.9469 14.7514 14.0585 15.0286 12 15.0286C9.94162 15.0286 8.05316 14.7514 6.65856 14.2865C6.15425 14.1184 5.69697 13.92 5.31438 13.6899ZM18.6857 12.0034C18.6843 12.0777 18.6375 12.241 18.3418 12.4741C18.0482 12.7054 17.5863 12.94 16.962 13.1481C15.7197 13.5622 13.9654 13.8286 12 13.8286C10.0347 13.8286 8.28033 13.5622 7.03804 13.1481C6.41376 12.94 5.95184 12.7054 5.65831 12.4741C5.35802 12.2374 5.31438 12.0727 5.31438 12V7.61841C5.69697 7.84847 6.15425 8.04685 6.65856 8.21496C8.05316 8.67983 9.94162 8.95706 12 8.95706C14.0585 8.95706 15.9469 8.67983 17.3415 8.21496C17.8458 8.04686 18.3031 7.84848 18.6857 7.61842V12.0034Z" fill="black"/>
</svg>
