<svg width="24" height="24" viewBox="0 0 24 24" fill="none" xmlns="http://www.w3.org/2000/svg">
<path fill-rule="evenodd" clip-rule="evenodd" d="M8.5025 5.64886C8.6619 5.48946 8.8781 5.3999 9.10354 5.3999H20.75C21.2194 5.3999 21.6 5.78046 21.6 6.2499V17.7499C21.6 18.2193 21.2194 18.5999 20.75 18.5999H9.10354C8.87811 18.5999 8.66191 18.5103 8.5025 18.3509L8.92676 17.9267L8.5025 18.3509L2.7525 12.6009C2.42055 12.269 2.42056 11.7308 2.7525 11.3989L8.5025 5.64886ZM9.24851 6.5999L3.84851 11.9999L9.24851 17.3999H20.4V6.5999H9.24851ZM3.60129 11.7527C3.6012 11.7526 3.60111 11.7525 3.60103 11.7524L3.35354 11.9999L3.60103 11.7524L3.60129 11.7527ZM9.35076 6.49766C9.35085 6.49757 9.35094 6.49748 9.35103 6.49739L9.10354 6.2499L9.35103 6.49739L9.35076 6.49766ZM14 11.1514L16.5757 8.57564L17.4243 9.42417L14.8485 11.9999L17.4243 14.5756L16.5757 15.4242L14 12.8484L11.4243 15.4242L10.5757 14.5756L13.1515 11.9999L10.5757 9.42417L11.4243 8.57564L14 11.1514Z" fill="black"/>
</svg>
