<svg width="24" height="24" viewBox="0 0 24 24" fill="none" xmlns="http://www.w3.org/2000/svg">
<path fill-rule="evenodd" clip-rule="evenodd" d="M2.02502 12C2.02502 6.7603 6.06502 2.46416 11.2 2.05665V3.26101C6.72863 3.66514 3.22502 7.42343 3.22502 12C3.22502 16.5766 6.72863 20.3349 11.2 20.739V21.9434C6.06502 21.5359 2.02502 17.2398 2.02502 12ZM12.8 21.9434C17.935 21.536 21.975 17.2398 21.975 12C21.975 6.76027 17.935 2.46411 12.8 2.05664V3.261C17.2714 3.66508 20.775 7.4234 20.775 12C20.775 16.5767 17.2714 20.335 12.8 20.7391V21.9434ZM12 9.22503C10.4674 9.22503 9.22502 10.4674 9.22502 12C9.22502 13.5326 10.4674 14.775 12 14.775C13.5326 14.775 14.775 13.5326 14.775 12C14.775 10.4674 13.5326 9.22503 12 9.22503ZM8.02502 12C8.02502 9.8047 9.80469 8.02503 12 8.02503C14.1954 8.02503 15.975 9.8047 15.975 12C15.975 14.1954 14.1954 15.975 12 15.975C9.80469 15.975 8.02502 14.1954 8.02502 12Z" fill="black"/>
</svg>
