<svg width="24" height="24" viewBox="0 0 24 24" fill="none" xmlns="http://www.w3.org/2000/svg">
<path fill-rule="evenodd" clip-rule="evenodd" d="M9.15 6.37513C9.15 5.00698 10.1141 3.86399 11.3999 3.58842V4.83765C10.7854 5.0777 10.35 5.67557 10.35 6.37513C10.35 7.07469 10.7854 7.67256 11.3999 7.91261V9.16184C10.1141 8.88627 9.15 7.74328 9.15 6.37513ZM13.65 6.37513C13.65 7.07476 13.2146 7.67269 12.5999 7.91269V9.16188C13.8859 8.88638 14.85 7.74335 14.85 6.37513C14.85 5.00691 13.8859 3.86388 12.5999 3.58838V4.83757C13.2146 5.07757 13.65 5.6755 13.65 6.37513ZM3 12.6001V11.4001H21V12.6001H3ZM11.3999 16.0877C10.7854 16.3277 10.35 16.9256 10.35 17.6251C10.35 18.3247 10.7854 18.9226 11.3999 19.1626V20.4118C10.1141 20.1363 9.15 18.9933 9.15 17.6251C9.15 16.257 10.1141 15.114 11.3999 14.8384V16.0877ZM12.5999 19.1627C13.2146 18.9227 13.65 18.3248 13.65 17.6251C13.65 16.9255 13.2146 16.3276 12.5999 16.0876V14.8384C13.8859 15.1139 14.85 16.2569 14.85 17.6251C14.85 18.9934 13.8859 20.1364 12.5999 20.4119V19.1627Z" fill="black"/>
</svg>
