<svg width="24" height="24" viewBox="0 0 24 24" fill="none" xmlns="http://www.w3.org/2000/svg">
<path fill-rule="evenodd" clip-rule="evenodd" d="M10.272 5.10001H9.75013C8.75557 5.10001 7.80174 5.49509 7.09847 6.19836C6.39521 6.90162 6.00012 7.85545 6.00012 8.85001C6.00012 9.84458 6.39521 10.7984 7.09847 11.5017C7.80174 12.2049 8.75557 12.6 9.75013 12.6H10.272V11.4H9.75013C9.07383 11.4 8.42522 11.1314 7.947 10.6531C7.46878 10.1749 7.20012 9.52632 7.20012 8.85001C7.20012 8.17371 7.46878 7.5251 7.947 7.04689C8.42522 6.56867 9.07383 6.30001 9.75013 6.30001H10.272V5.10001ZM10.272 17.7H6.60012V18.9H10.272V17.7ZM13.7105 18.9H14.1241C15.1447 18.9 16.128 18.5104 16.8565 17.8099C17.5858 17.1086 18.0002 16.1524 18.0002 15.15C18.0002 14.1477 17.5858 13.1914 16.8565 12.4901C16.158 11.8185 15.2253 11.4327 14.2501 11.402V11.4L14.1271 11.4L14.1267 11.4H13.7105V12.6L14.1262 12.6L14.1267 12.6H14.1273C14.8433 12.6008 15.5253 12.8749 16.0248 13.3551C16.5242 13.8353 16.8001 14.4815 16.8001 15.15C16.8001 15.8186 16.5242 16.4647 16.0248 16.9449C15.5246 17.4259 14.8413 17.7 14.1241 17.7H13.7105V18.9ZM13.7105 6.30001H17.4001V5.10001H13.7105V6.30001ZM11.472 3H12.5105V21H11.472V3Z" fill="black"/>
</svg>
