<svg width="24" height="24" viewBox="0 0 24 24" fill="none" xmlns="http://www.w3.org/2000/svg">
<path fill-rule="evenodd" clip-rule="evenodd" d="M11.4006 14.5514L8.18208 11.3332L7.33359 12.1817L11.3996 16.2474C11.3996 16.2474 11.3996 16.2474 11.3996 16.2474C11.7315 16.5793 12.2697 16.5793 12.6017 16.2474L16.6673 12.1818L15.8188 11.3332L12.6006 14.5514L12.6003 2.00049L11.4003 2.00051L11.4006 14.5514ZM5.79517 5.79526C4.56796 7.02247 3.73222 8.58602 3.39364 10.2882C3.05505 11.9904 3.22883 13.7548 3.89299 15.3582C4.55714 16.9616 5.68186 18.3321 7.1249 19.2963C8.56794 20.2605 10.2645 20.7751 12 20.7751C13.7356 20.7751 15.4321 20.2605 16.8752 19.2963C18.3182 18.3321 19.4429 16.9616 20.1071 15.3582C20.7712 13.7548 20.945 11.9904 20.6064 10.2882C20.2678 8.58603 19.4321 7.02247 18.2049 5.79526L19.0534 4.94674C20.4484 6.34177 21.3985 8.11914 21.7834 10.0541C22.1682 11.9891 21.9707 13.9947 21.2157 15.8174C20.4607 17.6401 19.1822 19.198 17.5418 20.294C15.9015 21.3901 13.9729 21.9751 12 21.9751C10.0272 21.9751 8.09859 21.3901 6.45821 20.294C4.81783 19.198 3.53931 17.6401 2.78433 15.8174C2.02935 13.9947 1.83181 11.9891 2.2167 10.0541C2.60158 8.11914 3.55161 6.34176 4.94664 4.94674L5.79517 5.79526Z" fill="black"/>
</svg>
