<svg width="24" height="24" viewBox="0 0 24 24" fill="none" xmlns="http://www.w3.org/2000/svg">
<path fill-rule="evenodd" clip-rule="evenodd" d="M11.3985 3.75189C11.7305 3.41994 12.2687 3.41994 12.6006 3.75189L15.7106 6.86189L14.8621 7.71042L11.9996 4.8479L9.1366 7.71087L8.28807 6.86234L11.3985 3.75189ZM3.75207 11.3989L6.86208 8.28889L7.7106 9.13742L4.84809 11.9999L7.71105 14.8629L6.86252 15.7114L3.75207 12.601C3.42013 12.269 3.42013 11.7308 3.75207 11.3989ZM19.152 11.9999L16.2894 9.13742L17.138 8.28889L20.248 11.3989C20.5799 11.7308 20.5799 12.269 20.248 12.601L17.1375 15.7114L16.289 14.8629L19.152 11.9999ZM12 11.1998C11.5582 11.1998 11.2 11.558 11.2 11.9998C11.2 12.4417 11.5582 12.7998 12 12.7998C12.4418 12.7998 12.8 12.4417 12.8 11.9998C12.8 11.558 12.4418 11.1998 12 11.1998ZM10 11.9998C10 10.8953 10.8955 9.99984 12 9.99984C13.1046 9.99984 14 10.8953 14 11.9998C14 13.1044 13.1046 13.9998 12 13.9998C10.8955 13.9998 10 13.1044 10 11.9998ZM11.9996 19.1518L9.1366 16.2888L8.28807 17.1373L11.3985 20.2478C11.7305 20.5797 12.2687 20.5797 12.6006 20.2478L15.7106 17.1378L14.8621 16.2893L11.9996 19.1518Z" fill="black"/>
</svg>
