<svg width="24" height="24" viewBox="0 0 24 24" fill="none" xmlns="http://www.w3.org/2000/svg">
<path fill-rule="evenodd" clip-rule="evenodd" d="M14.2901 5.14238C15.1687 4.26374 16.5933 4.26374 17.4719 5.14238C18.3506 6.02103 18.3506 7.4456 17.4719 8.32425L17.3423 8.45387L16.4938 7.60535L16.6234 7.47572L17.0477 7.89998L16.6234 7.47572C17.0334 7.0657 17.0334 6.40093 16.6234 5.99091C16.2134 5.58089 15.5486 5.58089 15.1386 5.99091L15.009 6.12054L14.1605 5.27201L14.2901 5.14238L14.7143 5.56665L14.2901 5.14238ZM6.03915 15.0904L13.8802 7.24935L13.0317 6.40082L5.09201 14.3405C4.93822 14.4942 4.84923 14.7011 4.84336 14.9185L4.78836 16.9533L4.78836 16.9533C4.7752 17.4406 5.17371 17.8391 5.66102 17.826L7.69579 17.771C7.9132 17.7651 8.12008 17.6761 8.27387 17.5223L16.2135 9.58268L15.365 8.73415L7.52396 16.5752L5.99791 16.6164L6.03915 15.0904ZM19.7855 20.2H4.78546V19H19.7855V20.2Z" fill="black"/>
</svg>
