<svg width="24" height="24" viewBox="0 0 24 24" fill="none" xmlns="http://www.w3.org/2000/svg">
<path fill-rule="evenodd" clip-rule="evenodd" d="M14.4003 3.3999H19.75C20.2195 3.3999 20.6 3.78044 20.6 4.24987C20.6 4.24988 20.6 4.24989 20.6 4.24991L20.6003 9.59991L19.4003 9.59997L19.4001 5.44933L12.4249 12.4242L11.5764 11.5756L18.5525 4.5999H14.4003V3.3999ZM12.0005 4.59994C7.91354 4.59994 4.60045 7.91303 4.60045 11.9999C4.60045 16.0868 7.91354 19.3999 12.0005 19.3999C16.0874 19.3999 19.4005 16.0868 19.4005 11.9999H20.6005C20.6005 16.7496 16.7501 20.5999 12.0005 20.5999C7.2508 20.5999 3.40045 16.7496 3.40045 11.9999C3.40045 7.25029 7.2508 3.39994 12.0005 3.39994V4.59994Z" fill="black"/>
</svg>
