<svg width="24" height="24" viewBox="0 0 24 24" fill="none" xmlns="http://www.w3.org/2000/svg">
<path fill-rule="evenodd" clip-rule="evenodd" d="M4.89121 8.00237C3.11869 9.8029 2.02502 12.2737 2.02502 14.9999H3.22502C3.22502 12.6051 4.18439 10.4343 5.73977 8.85093L4.89121 8.00237ZM8.79702 9.64544C8.79703 9.64543 8.79704 9.64541 8.79705 9.6454L6.96436 7.81271C6.96435 7.81272 6.96433 7.81273 6.96432 7.81274L6.1044 6.95282C6.10441 6.95281 6.10443 6.9528 6.10444 6.95279L4.57583 5.42418L5.42432 4.57568L19.4954 18.6467L18.6469 19.4952L16.8627 17.7111C16.8627 17.7111 16.8627 17.7111 16.8627 17.7111L15.976 16.8245C15.9761 16.8245 15.9761 16.8244 15.9761 16.8244L14.3545 15.2029C14.3545 15.2029 14.3545 15.2029 14.3545 15.2029L13.4918 14.3402C13.4918 14.3402 13.4918 14.3402 13.4919 14.3402L9.65973 10.5081C9.65972 10.5081 9.65971 10.5081 9.6597 10.5081L8.79702 9.64544ZM8.10273 11.2139C8.05176 11.468 8.02502 11.7308 8.02502 11.9999C8.02502 14.1952 9.80469 15.9749 12 15.9749C12.2691 15.9749 12.532 15.9482 12.786 15.8972L11.6407 14.7519C10.3955 14.5909 9.40907 13.6044 9.24808 12.3592L8.10273 11.2139ZM14.3465 17.4576C13.5995 17.6644 12.8125 17.7749 11.9996 17.7749C9.10012 17.7749 6.52902 16.3692 4.93032 14.1995L3.96426 14.9114C5.77939 17.3748 8.70271 18.9749 11.9996 18.9749C13.1576 18.9749 14.2695 18.7775 15.3035 18.4146L14.3465 17.4576ZM19.1086 15.9972C19.4425 15.6581 19.7522 15.2952 20.035 14.9114L19.069 14.1995C18.8218 14.535 18.5514 14.8522 18.2601 15.1487L19.1086 15.9972ZM15.8973 12.7859C15.9483 12.5318 15.975 12.269 15.975 11.9999C15.975 9.80457 14.1954 8.0249 12 8.0249C11.7309 8.0249 11.4681 8.05164 11.214 8.10261L12.3593 9.24795C13.6046 9.40894 14.591 10.3954 14.752 11.6406L15.8973 12.7859ZM9.65353 6.54215C10.4004 6.33539 11.1873 6.2249 12 6.2249C16.8463 6.2249 20.775 10.1536 20.775 14.9999H21.975C21.975 9.49086 17.5091 5.0249 12 5.0249C10.8421 5.0249 9.73032 5.22219 8.69637 5.58498L9.65353 6.54215Z" fill="black"/>
</svg>
