<svg width="24" height="24" viewBox="0 0 24 24" fill="none" xmlns="http://www.w3.org/2000/svg">
<path fill-rule="evenodd" clip-rule="evenodd" d="M3.22502 14.9999C3.22502 10.1536 7.15373 6.2249 12 6.2249C16.8463 6.2249 20.775 10.1536 20.775 14.9999H21.975C21.975 9.49086 17.5091 5.0249 12 5.0249C6.49098 5.0249 2.02502 9.49086 2.02502 14.9999H3.22502ZM12.6001 14.7098C13.8442 14.4356 14.775 13.3264 14.775 11.9999C14.775 10.6734 13.8442 9.56422 12.6001 9.28996V8.0699C14.5107 8.35922 15.975 10.0086 15.975 11.9999C15.975 13.9912 14.5107 15.6406 12.6001 15.9299V14.7098ZM11.4001 9.28992C10.1559 9.5641 9.22502 10.6733 9.22502 11.9999C9.22502 13.3265 10.1559 14.4357 11.4001 14.7099V15.9299C9.48943 15.6407 8.02502 13.9913 8.02502 11.9999C8.02502 10.0085 9.48943 8.35911 11.4001 8.06987V9.28992ZM11.9996 17.7749C9.10012 17.7749 6.52902 16.3692 4.93032 14.1995L3.96426 14.9114C5.77939 17.3748 8.70271 18.9749 11.9996 18.9749C15.2966 18.9749 18.2199 17.3748 20.035 14.9114L19.069 14.1995C17.4703 16.3692 14.8992 17.7749 11.9996 17.7749Z" fill="black"/>
</svg>
