<svg width="24" height="24" viewBox="0 0 24 24" fill="none" xmlns="http://www.w3.org/2000/svg">
<path fill-rule="evenodd" clip-rule="evenodd" d="M10.2486 4.5999L5.60002 9.24843V19.3999H18.4V4.5999H10.2486ZM9.50254 3.64886C9.66194 3.48945 9.87814 3.3999 10.1036 3.3999H18.75C19.2195 3.3999 19.6 3.78046 19.6 4.2499V19.7499C19.6 20.2193 19.2195 20.5999 18.75 20.5999H5.25002C4.78058 20.5999 4.40002 20.2193 4.40002 19.7499V9.10346C4.40002 8.87802 4.48958 8.66182 4.64898 8.50241L9.50254 3.64886ZM11.6 6.19632V9.7499C11.6 10.2193 11.2195 10.5999 10.75 10.5999H7.19648V9.3999H10.4V6.19632H11.6Z" fill="black"/>
</svg>
