<svg width="24" height="24" viewBox="0 0 24 24" fill="none" xmlns="http://www.w3.org/2000/svg">
<path fill-rule="evenodd" clip-rule="evenodd" d="M9.50254 3.64886C9.66194 3.48946 9.87814 3.3999 10.1036 3.3999H18.75C19.2195 3.3999 19.6 3.78046 19.6 4.2499V19.7499C19.6 20.2193 19.2195 20.5999 18.75 20.5999H5.25002C4.78058 20.5999 4.40002 20.2193 4.40002 19.7499V9.10346C4.40002 8.87802 4.48958 8.66182 4.64898 8.50242L9.50254 3.64886ZM10.2486 4.5999L5.60002 9.24843V19.3999H18.4V4.5999H10.2486ZM5.49778 9.35067L5.49751 9.35094L5.25002 9.10346L5.49751 9.35094C5.4976 9.35085 5.49769 9.35076 5.49778 9.35067ZM10.3508 4.49767C10.3509 4.49758 10.351 4.49748 10.3511 4.49739L10.1036 4.2499L10.3511 4.49739L10.3508 4.49767ZM11.3999 13.5517L9.60616 11.758L8.75763 12.6065L11.3983 15.2472C11.7303 15.5791 12.2684 15.5791 12.6004 15.2472L15.2407 12.6069L14.3922 11.7583L12.5999 13.5506L12.5995 8.99961L11.3995 8.9997L11.3999 13.5517Z" fill="black"/>
</svg>
