<svg width="24" height="24" viewBox="0 0 24 24" fill="none" xmlns="http://www.w3.org/2000/svg">
<path fill-rule="evenodd" clip-rule="evenodd" d="M2.52502 3.3749C2.52502 2.90546 2.90558 2.5249 3.37502 2.5249H20.625C21.0945 2.5249 21.475 2.90546 21.475 3.3749V20.6249C21.475 21.0943 21.0945 21.4749 20.625 21.4749H3.37502C2.90558 21.4749 2.52502 21.0943 2.52502 20.6249V3.3749ZM3.72502 3.7249V6.8999H6.40003V3.7249H3.72502ZM7.60003 3.7249L7.60002 11.3999H16.4V3.7249H7.60003ZM17.6 3.7249V6.8999H20.275V3.7249H17.6ZM20.275 8.0999H17.6V11.3999H20.275V8.0999ZM20.275 12.5999H17.6V15.3999H20.275V12.5999ZM20.275 16.5999H17.6V20.2749H20.275V16.5999ZM16.4 20.2749V12.5999H7.60002L7.60002 20.2749H16.4ZM6.40002 20.2749L6.40002 16.5999H3.72502V20.2749H6.40002ZM3.72502 15.3999H6.40002V12.5999H3.72502V15.3999ZM3.72502 11.3999H6.40002L6.40003 8.0999H3.72502V11.3999Z" fill="black"/>
</svg>
