<svg width="24" height="24" viewBox="0 0 24 24" fill="none" xmlns="http://www.w3.org/2000/svg">
<path fill-rule="evenodd" clip-rule="evenodd" d="M10.2879 3.39366C10.5908 3.33341 10.8952 3.28945 11.2001 3.26154V2.05713C10.817 2.08795 10.4343 2.14103 10.0538 2.21671C7.56985 2.7108 5.36685 4.13122 3.89167 6.18983C2.41648 8.24845 1.77958 10.7911 2.11015 13.302C2.44072 15.813 3.71401 18.1042 5.67174 19.7108C7.25265 21.0082 9.18429 21.7808 11.2001 21.943V20.7386C9.46159 20.5795 7.79857 19.9039 6.43301 18.7832C4.7108 17.3698 3.59069 15.3543 3.29988 13.1454C3.00908 10.9365 3.56937 8.69977 4.86708 6.8888C6.1648 5.07784 8.10278 3.8283 10.2879 3.39366ZM12.8001 20.7385V21.9429C15.2717 21.744 17.5827 20.6312 19.2802 18.8189C21.0115 16.9704 21.9748 14.5326 21.9748 12H20.7748C20.7748 14.228 19.9274 16.3725 18.4044 17.9986C16.9332 19.5693 14.938 20.5427 12.8001 20.7385ZM16.6336 4.5483C15.4635 3.82071 14.1494 3.38521 12.8001 3.2616V2.05719C14.3723 2.18376 15.9056 2.68251 17.2673 3.52925C18.4104 4.24009 19.387 5.16787 20.1497 6.24847V4.00008H21.3497V7.68758C21.3497 8.19154 20.9411 8.60008 20.4372 8.60008H16.7497V7.40008H19.4725C18.7657 6.25201 17.7978 5.27224 16.6336 4.5483ZM8.89996 15.3516L8.89996 8.64851H10.1V15.3516H8.89996ZM12.7248 9.85008H15.1496V8.65008H12.3748C11.9053 8.65008 11.5248 9.03064 11.5248 9.50008V11.7501C11.5248 12.2195 11.9053 12.6001 12.3748 12.6001H14.0248V14.1501H11.5996V15.3501H14.3748C14.8442 15.3501 15.2248 14.9695 15.2248 14.5001V12.2501C15.2248 11.7806 14.8442 11.4001 14.3748 11.4001H12.7248V9.85008Z" fill="black"/>
</svg>
