<svg width="24" height="24" viewBox="0 0 24 24" fill="none" xmlns="http://www.w3.org/2000/svg">
<path fill-rule="evenodd" clip-rule="evenodd" d="M12.8001 3.2616V2.05719C14.3723 2.18376 15.9056 2.68251 17.2673 3.52925C18.4104 4.24009 19.387 5.16787 20.1497 6.24847V4.00008H21.3497V7.68758C21.3497 8.19154 20.9411 8.60008 20.4372 8.60008H16.7497V7.40008H19.4725C18.7657 6.25201 17.7978 5.27224 16.6336 4.5483C15.4635 3.82071 14.1494 3.38521 12.8001 3.2616ZM11.2001 2.05713V3.26154C10.8952 3.28945 10.5908 3.33341 10.2879 3.39366C8.10278 3.8283 6.1648 5.07784 4.86708 6.8888C3.56937 8.69977 3.00908 10.9365 3.29988 13.1454C3.59069 15.3543 4.7108 17.3698 6.43301 18.7832C7.79857 19.9039 9.46159 20.5795 11.2001 20.7386V21.943C9.18429 21.7808 7.25265 21.0082 5.67174 19.7108C3.71401 18.1042 2.44072 15.813 2.11015 13.302C1.77958 10.7911 2.41648 8.24845 3.89167 6.18983C5.36685 4.13122 7.56985 2.7108 10.0538 2.21671C10.4343 2.14103 10.817 2.08795 11.2001 2.05713ZM12.8001 21.9429C15.2717 21.744 17.5827 20.6312 19.2802 18.8189C21.0115 16.9704 21.9748 14.5326 21.9748 12H20.7748C20.7748 14.228 19.9274 16.3725 18.4044 17.9986C16.9332 19.5693 14.938 20.5427 12.8001 20.7385V21.9429ZM10.3083 9.85008H14.75V8.65008H9.84914C9.43998 8.65008 9.1083 8.98176 9.1083 9.39092V11.8592C9.1083 12.2684 9.43999 12.6001 9.84914 12.6001H13.6916V14.1501H9.24996V15.3501H14.1508C14.5599 15.3501 14.8916 15.0184 14.8916 14.6092V12.1409C14.8916 11.7318 14.5599 11.4001 14.1508 11.4001H10.3083V9.85008Z" fill="black"/>
</svg>
