<svg width="24" height="24" viewBox="0 0 24 24" fill="none" xmlns="http://www.w3.org/2000/svg">
<path fill-rule="evenodd" clip-rule="evenodd" d="M19.1305 11.2383V6.5H20.3305V17.5H19.1305V12.7617L12.4129 17.2401C11.8481 17.6167 11.0914 17.2118 11.0914 16.5329V13.1732L4.99105 17.2401L4.65823 16.7409L4.99105 17.2401C4.42618 17.6167 3.66956 17.2118 3.66956 16.5329V7.46713C3.66956 6.78824 4.42618 6.3833 4.99105 6.75989L11.0914 10.8268V7.46713C11.0914 6.78824 11.8481 6.3833 12.4129 6.75989L19.1305 11.2383ZM10.6879 12L4.86956 8.12111V15.8789L10.6879 12ZM12.2914 8.12111L18.1098 12L12.2914 15.8789V8.12111Z" fill="black"/>
</svg>
