<svg width="24" height="24" viewBox="0 0 24 24" fill="none" xmlns="http://www.w3.org/2000/svg">
<path fill-rule="evenodd" clip-rule="evenodd" d="M2.02502 12C2.02502 6.7603 6.06502 2.46416 11.2 2.05665V3.26101C6.72863 3.66514 3.22502 7.42343 3.22502 12C3.22502 16.5766 6.72863 20.3349 11.2 20.739V21.9434C6.06502 21.5359 2.02502 17.2398 2.02502 12ZM12.8 21.9434C17.935 21.536 21.975 17.2398 21.975 12C21.975 6.76027 17.935 2.46411 12.8 2.05664V3.261C17.2714 3.66508 20.775 7.4234 20.775 12C20.775 16.5767 17.2714 20.335 12.8 20.7391V21.9434ZM8.50002 8.60003C8.27911 8.60003 8.10002 8.77912 8.10002 9.00003C8.10002 9.22094 8.27911 9.40003 8.50002 9.40003C8.72094 9.40003 8.90002 9.22094 8.90002 9.00003C8.90002 8.77912 8.72094 8.60003 8.50002 8.60003ZM6.90002 9.00003C6.90002 8.11637 7.61637 7.40003 8.50002 7.40003C9.38368 7.40003 10.1 8.11637 10.1 9.00003C10.1 9.88369 9.38368 10.6 8.50002 10.6C7.61637 10.6 6.90002 9.88369 6.90002 9.00003ZM15.5 8.60003C15.2791 8.60003 15.1 8.77912 15.1 9.00003C15.1 9.22094 15.2791 9.40003 15.5 9.40003C15.7209 9.40003 15.9 9.22094 15.9 9.00003C15.9 8.77912 15.7209 8.60003 15.5 8.60003ZM13.9 9.00003C13.9 8.11637 14.6164 7.40003 15.5 7.40003C16.3837 7.40003 17.1 8.11637 17.1 9.00003C17.1 9.88369 16.3837 10.6 15.5 10.6C14.6164 10.6 13.9 9.88369 13.9 9.00003ZM7.40002 17C7.40002 14.4595 9.45951 12.4 12 12.4C14.5405 12.4 16.6 14.4595 16.6 17H15.4C15.4 15.1223 13.8778 13.6 12 13.6C10.1223 13.6 8.60002 15.1223 8.60002 17H7.40002Z" fill="black"/>
</svg>
