<svg width="24" height="24" viewBox="0 0 24 24" fill="none" xmlns="http://www.w3.org/2000/svg">
<path fill-rule="evenodd" clip-rule="evenodd" d="M3.86556 5.78591C3.41422 5.23042 3.80952 4.3999 4.52525 4.3999H19.4748C20.1905 4.3999 20.5858 5.23042 20.1345 5.78591L14.1 13.2129V17.8661C14.1 18.1503 13.958 18.4157 13.7215 18.5733L11.2215 20.24C10.6566 20.6166 9.90001 20.2117 9.90001 19.5328V13.2129L3.86556 5.78591ZM5.26059 5.5999L10.9097 12.5527C11.0328 12.7042 11.1 12.8934 11.1 13.0887V18.8788L12.9 17.6788V13.0887C12.9 12.8934 12.9672 12.7042 13.0903 12.5527L18.7394 5.5999H5.26059Z" fill="black"/>
</svg>
