<svg width="24" height="24" viewBox="0 0 24 24" fill="none" xmlns="http://www.w3.org/2000/svg">
<path fill-rule="evenodd" clip-rule="evenodd" d="M10.2491 2C9.77967 2 9.39912 2.38056 9.39912 2.85V4.52089C8.44374 4.85296 7.57207 5.36262 6.82349 6.00992L5.375 5.17363C4.96845 4.93891 4.44859 5.0782 4.21387 5.48475L2.46387 8.51584C2.22915 8.92239 2.36845 9.44224 2.775 9.67696L4.22238 10.5126C4.19685 10.6468 4.1747 10.7823 4.15604 10.9188C4.10766 11.2726 4.08271 11.6337 4.08271 12.0003C4.08271 12.3668 4.10766 12.7279 4.15604 13.0818C4.17473 13.2185 4.1969 13.3541 4.22248 13.4885L2.77574 14.3237C2.36919 14.5585 2.22989 15.0783 2.46462 15.4849L4.21462 18.5159C4.44934 18.9225 4.96919 19.0618 5.37574 18.8271L6.8239 17.991C7.57239 18.6381 8.44391 19.1476 9.39912 19.4796V21.1505C9.39912 21.6199 9.77967 22.0005 10.2491 22.0005H13.7491C14.2186 22.0005 14.5991 21.6199 14.5991 21.1505L14.5991 19.4796C15.5545 19.1476 16.4262 18.6379 17.1748 17.9905L18.6235 18.8269C19.03 19.0616 19.5499 18.9223 19.7846 18.5158L21.5346 15.4847C21.7693 15.0781 21.63 14.5583 21.2235 14.3236L19.7759 13.4878C19.8676 13.0056 19.9155 12.5083 19.9155 12.0003C19.9155 11.4923 19.8676 10.9951 19.7759 10.5129L21.2242 9.67673C21.6308 9.44201 21.7701 8.92216 21.5353 8.51561L19.7853 5.48452C19.5506 5.07798 19.0308 4.93868 18.6242 5.1734L17.175 6.01012C16.4263 5.36273 15.5546 4.853 14.5991 4.52089L14.5991 2.85C14.5991 2.38056 14.2186 2 13.7491 2H10.2491ZM10.5991 4.77161V3.2H13.3991L13.3991 4.77161C13.3991 5.15516 13.6531 5.47859 14.0016 5.58728C14.9608 5.88646 15.8284 6.39532 16.5503 7.06091C16.8188 7.30844 17.2258 7.36639 17.5578 7.17474L18.9211 6.38763L20.3211 8.8125L18.959 9.59889C18.6273 9.79041 18.474 10.1714 18.5537 10.5274C18.6595 11.0008 18.7155 11.4937 18.7155 12.0003C18.7155 12.5069 18.6595 12.9998 18.5536 13.4733C18.474 13.8292 18.6273 14.2103 18.959 14.4018L20.3204 15.1878L18.9204 17.6127L17.5577 16.8259C17.2257 16.6343 16.8187 16.6922 16.5502 16.9397C15.8283 17.6053 14.9608 18.1141 14.0016 18.4133C13.6531 18.5219 13.3991 18.8454 13.3991 19.2289L13.3991 20.8005H10.5991V19.2289C10.5991 18.8454 10.3451 18.522 9.99663 18.4133C9.03766 18.1142 8.17032 17.6055 7.44847 16.9401C7.17997 16.6926 6.77297 16.6347 6.44106 16.8264L5.07885 17.6128L3.67885 15.188L5.03936 14.4025C5.37113 14.2109 5.52439 13.8298 5.44473 13.4738C5.40398 13.2917 5.37062 13.1067 5.34498 12.9192C5.30395 12.6191 5.28271 12.3123 5.28271 12.0003C5.28271 11.6882 5.30395 11.3815 5.34498 11.0813C5.37059 10.894 5.40392 10.7091 5.44463 10.5271C5.52426 10.1712 5.37099 9.79012 5.03925 9.59858L3.6781 8.81273L5.0781 6.38786L6.44067 7.17453C6.7726 7.36618 7.17962 7.30824 7.44812 7.06072C8.17004 6.39523 9.03751 5.88643 9.99663 5.58728C10.3451 5.47859 10.5991 5.15516 10.5991 4.77161ZM12.8022 15.2739C14.2762 14.914 15.3701 13.5848 15.3701 12C15.3701 10.4152 14.2762 9.08593 12.8022 8.72604V7.50015C14.9437 7.87932 16.5701 9.74972 16.5701 12C16.5701 14.2502 14.9437 16.1206 12.8022 16.4998V15.2739ZM11.2022 8.72498C9.72613 9.08332 8.63007 10.4137 8.63007 12C8.63007 13.5863 9.72613 14.9166 11.2022 15.275V16.5006C9.05867 16.1232 7.43007 14.2518 7.43007 12C7.43007 9.74819 9.05867 7.87678 11.2022 7.49938V8.72498Z" fill="black"/>
</svg>
