<svg width="24" height="24" viewBox="0 0 24 24" fill="none" xmlns="http://www.w3.org/2000/svg">
<path fill-rule="evenodd" clip-rule="evenodd" d="M9.74209 3.8499C8.82637 3.8499 8.08403 4.59224 8.08403 5.50796C8.08403 6.42368 8.82637 7.16602 9.74209 7.16602C10.6578 7.16602 11.4002 6.42368 11.4002 5.50796C11.4002 4.59224 10.6578 3.8499 9.74209 3.8499ZM12.0002 3.75581C11.4773 3.08289 10.6603 2.6499 9.74209 2.6499C8.16363 2.6499 6.88403 3.9295 6.88403 5.50796C6.88403 6.40559 7.29783 7.20656 7.94508 7.73053H4.902C4.43256 7.73053 4.052 8.11109 4.052 8.58053V12.2203C4.052 12.6897 4.43256 13.0703 4.902 13.0703H19.0982C19.5676 13.0703 19.9482 12.6897 19.9482 12.2203V8.58053C19.9482 8.11109 19.5676 7.73053 19.0982 7.73053H16.0557C16.703 7.20656 17.1168 6.40559 17.1168 5.50796C17.1168 3.9295 15.8372 2.6499 14.2587 2.6499C13.3406 2.6499 12.5233 3.08286 12.0002 3.75581ZM12.4615 7.73053C12.2903 7.59198 12.1355 7.43406 12.0002 7.26011C11.8651 7.43406 11.7103 7.59198 11.5391 7.73053H12.4615ZM12.6002 5.50796C12.6002 6.42352 13.3428 7.16602 14.2587 7.16602C15.1744 7.16602 15.9168 6.42368 15.9168 5.50796C15.9168 4.59224 15.1744 3.8499 14.2587 3.8499C13.3428 3.8499 12.6002 4.59241 12.6002 5.50796ZM5.252 8.93053V11.8703H11.3996V8.93053H5.252ZM12.5996 8.93053V11.8703H18.7482V8.93053H12.5996ZM6.0811 20.1499V14.2919H4.8811V20.4999C4.8811 20.9693 5.26166 21.3499 5.7311 21.3499H18.2714C18.7408 21.3499 19.1214 20.9693 19.1214 20.4999V14.2919H17.9214V20.1499H12.5995V14.2919H11.3995V20.1499H6.0811Z" fill="black"/>
</svg>
