<svg width="24" height="24" viewBox="0 0 24 24" fill="none" xmlns="http://www.w3.org/2000/svg">
<path fill-rule="evenodd" clip-rule="evenodd" d="M2 11.3999H2.04275C2.04275 11.3999 2.04275 11.3999 2.04275 11.3999H3.24519C3.24519 11.3999 3.24519 11.3999 3.24519 11.3999H5.61038L5.6104 11.3999H6.92358L6.92356 11.3999H11.4V11.3999L12.6 11.3999V11.3999H17.0767L17.0767 11.3999H18.3899L18.3899 11.3999H20.7548C20.7548 11.3999 20.7548 11.3999 20.7548 11.3999H21.9572C21.9572 11.3999 21.9573 11.3999 21.9573 11.3999H21.9999V12.5999L2 12.5999V11.3999ZM2.26842 9.79985H3.50307C4.2287 6.98931 6.31198 4.72458 9.01173 3.74685L6.32151 9.79985H7.63469L10.5001 3.35258C10.7953 3.30174 11.0955 3.26565 11.4 3.24509V9.79985H12.6V3.24509C12.9046 3.26566 13.2049 3.30177 13.5002 3.35264L16.3656 9.79985H17.6788L14.9886 3.74698C17.6882 4.72478 19.7713 6.98943 20.4969 9.79985H21.7316C20.7297 5.34933 16.7531 2.0249 12 2.0249C7.2469 2.0249 3.27026 5.34933 2.26842 9.79985ZM21.7316 14.1999H20.497C19.7714 17.0102 17.6884 19.2748 14.989 20.2527L17.6789 14.1999H16.3657L13.5005 20.6471C13.2051 20.698 12.9047 20.7341 12.6 20.7547V14.1999L11.4 14.1999V20.7547C11.0954 20.7341 10.7951 20.698 10.4998 20.6472L7.63457 14.1999H6.3214L9.01141 20.2528C6.31179 19.275 4.22862 17.0103 3.50305 14.1999H2.2684C3.2702 18.6504 7.24686 21.9749 12 21.9749C16.7531 21.9749 20.7298 18.6504 21.7316 14.1999Z" fill="black"/>
</svg>
