<svg width="24" height="24" viewBox="0 0 24 24" fill="none" xmlns="http://www.w3.org/2000/svg">
<path fill-rule="evenodd" clip-rule="evenodd" d="M6.19991 6.75566C5.05791 6.75566 4.13213 7.68144 4.13213 8.82344C4.13213 9.96545 5.05791 10.8912 6.19991 10.8912C6.98315 10.8912 7.66468 10.4558 8.01559 9.81371C8.00521 9.93387 7.9999 10.0555 7.9999 10.1783C7.9999 10.6099 8.06535 11.0263 8.18687 11.418C7.63628 11.8402 6.94741 12.0912 6.19991 12.0912C4.39516 12.0912 2.93213 10.6282 2.93213 8.82344C2.93213 7.0187 4.39516 5.55566 6.19991 5.55566C7.47044 5.55566 8.57162 6.28076 9.1122 7.33971C8.74703 7.73393 8.45695 8.19871 8.2647 8.71131C8.20646 7.62145 7.30429 6.75566 6.19991 6.75566ZM17.4428 12.0912C16.9407 12.0912 16.4651 11.978 16.04 11.7757C16.196 11.3989 16.2985 10.9944 16.338 10.5716C16.6576 10.774 17.0365 10.8912 17.4428 10.8912C18.5848 10.8912 19.5106 9.96545 19.5106 8.82344C19.5106 7.68144 18.5848 6.75566 17.4428 6.75566C16.6627 6.75566 15.9834 7.18769 15.6313 7.82554C15.3969 7.48221 15.1127 7.17563 14.789 6.91622C15.3823 6.09219 16.3499 5.55566 17.4428 5.55566C19.2476 5.55566 20.7106 7.0187 20.7106 8.82344C20.7106 10.6282 19.2476 12.0912 17.4428 12.0912ZM2.3999 17.1603C2.3999 14.8644 4.26107 13.0032 6.55694 13.0032C7.68123 13.0032 8.70073 13.4496 9.44859 14.1739C9.09947 14.3848 8.77789 14.6366 8.4905 14.9228C7.97179 14.4742 7.29578 14.2032 6.55694 14.2032C4.92381 14.2032 3.5999 15.5271 3.5999 17.1603H2.3999ZM17.4426 14.2032C16.7651 14.2032 16.1405 14.431 15.6415 14.8147C15.3411 14.5333 15.0064 14.2882 14.6443 14.0862C15.3826 13.4137 16.3644 13.0032 17.4426 13.0032C19.7385 13.0032 21.5996 14.8644 21.5996 17.1603H20.3996C20.3996 15.5271 19.0757 14.2032 17.4426 14.2032ZM10.1087 10.1784C10.1087 9.03642 11.0345 8.11064 12.1765 8.11064C13.3185 8.11064 14.2443 9.03642 14.2443 10.1784C14.2443 11.3204 13.3185 12.2462 12.1765 12.2462C11.0345 12.2462 10.1087 11.3204 10.1087 10.1784ZM12.1765 6.91064C10.3717 6.91064 8.90869 8.37368 8.90869 10.1784C8.90869 11.9832 10.3717 13.4462 12.1765 13.4462C13.9812 13.4462 15.4443 11.9832 15.4443 10.1784C15.4443 8.37368 13.9812 6.91064 12.1765 6.91064ZM9.22002 18.5144C9.22002 16.8813 10.5439 15.5574 12.1771 15.5574C13.8102 15.5574 15.1341 16.8813 15.1341 18.5144H16.3341C16.3341 16.2185 14.4729 14.3574 12.1771 14.3574C9.88119 14.3574 8.02002 16.2185 8.02002 18.5144H9.22002Z" fill="black"/>
</svg>
