<svg width="24" height="24" viewBox="0 0 24 24" fill="none" xmlns="http://www.w3.org/2000/svg">
<path fill-rule="evenodd" clip-rule="evenodd" d="M4.40002 4.2499C4.40002 3.78046 4.78058 3.3999 5.25002 3.3999H18.75C19.2195 3.3999 19.6 3.78046 19.6 4.2499V19.7499C19.6 20.2193 19.2195 20.5999 18.75 20.5999H5.25002C4.78058 20.5999 4.40002 20.2193 4.40002 19.7499V4.2499ZM5.60002 4.5999V13.3999H18.4V4.5999H5.60002ZM18.4 14.5999H5.60002V19.3999H18.4V14.5999ZM11.6026 16.5999C11.3816 16.5999 11.2026 16.779 11.2026 16.9999C11.2026 17.2208 11.3816 17.3999 11.6026 17.3999C11.8235 17.3999 12.0026 17.2208 12.0026 16.9999C12.0026 16.779 11.8235 16.5999 11.6026 16.5999ZM10.0026 16.9999C10.0026 16.1162 10.7189 15.3999 11.6026 15.3999C12.4862 15.3999 13.2026 16.1162 13.2026 16.9999C13.2026 17.8836 12.4862 18.5999 11.6026 18.5999C10.7189 18.5999 10.0026 17.8836 10.0026 16.9999ZM15.8006 16.5999C15.5796 16.5999 15.4006 16.779 15.4006 16.9999C15.4006 17.2208 15.5796 17.3999 15.8006 17.3999C16.0215 17.3999 16.2006 17.2208 16.2006 16.9999C16.2006 16.779 16.0215 16.5999 15.8006 16.5999ZM14.2006 16.9999C14.2006 16.1162 14.9169 15.3999 15.8006 15.3999C16.6842 15.3999 17.4006 16.1162 17.4006 16.9999C17.4006 17.8836 16.6842 18.5999 15.8006 18.5999C14.9169 18.5999 14.2006 17.8836 14.2006 16.9999Z" fill="black"/>
</svg>
