<svg width="24" height="24" viewBox="0 0 24 24" fill="none" xmlns="http://www.w3.org/2000/svg">
<path fill-rule="evenodd" clip-rule="evenodd" d="M4.94664 5.63181C6.81731 3.76114 9.35449 2.71021 12 2.71021C14.6456 2.71021 17.1827 3.76114 19.0534 5.63181C20.9234 7.50177 21.975 10.0238 21.975 12.6704V17.94C21.975 19.7901 20.4752 21.29 18.625 21.29V20.09C19.8124 20.09 20.775 19.1274 20.775 17.94C20.775 16.7526 19.8124 15.79 18.625 15.79V14.59C19.4434 14.59 20.1932 14.8834 20.775 15.3708V12.6704C20.775 10.3441 19.8512 8.12669 18.2049 6.48034C16.5593 4.83471 14.3273 3.91021 12 3.91021C9.67275 3.91021 7.44079 4.83471 5.79516 6.48034C4.14882 8.12669 3.22502 10.3441 3.22502 12.6704V15.3708C3.80683 14.8834 4.55666 14.59 5.37502 14.59V15.79C4.18761 15.79 3.22502 16.7526 3.22502 17.94C3.22502 19.1274 4.18761 20.09 5.37502 20.09V21.29C3.52487 21.29 2.02502 19.7901 2.02502 17.94V12.6704C2.02502 10.0238 3.07667 7.50177 4.94664 5.63181ZM8.18002 21.2896H6.98002L6.98002 14.5904H8.18002L8.18002 21.2896ZM17.23 21.2896H16.03V14.5904H17.23V21.2896Z" fill="black"/>
</svg>
