<svg width="24" height="24" viewBox="0 0 24 24" fill="none" xmlns="http://www.w3.org/2000/svg">
<path fill-rule="evenodd" clip-rule="evenodd" d="M7.29811 2.91504C4.36992 2.91504 1.99615 5.28881 1.99615 8.217V8.51504H3.19616V8.217C3.19616 5.95155 5.03266 4.11504 7.29811 4.11504C9.56358 4.11504 11.4002 5.95156 11.4002 8.217V8.51504H12.6002V8.217C12.6002 5.95155 14.4367 4.11504 16.7021 4.11504C18.9676 4.11504 20.8041 5.95155 20.8041 8.217V8.51504H20.8001L22 8.51505V8.54493C22 8.53497 22.0001 8.52501 22.0001 8.51504H22.0041V8.217C22.0041 5.28881 19.6303 2.91504 16.7021 2.91504C14.6587 2.91504 12.8853 4.07102 12.0002 5.7647C11.115 4.07101 9.34151 2.91504 7.29811 2.91504ZM21.8001 10.115H20.5528C20.3053 10.8965 19.8776 11.6171 19.295 12.2146L12 19.6965L4.5175 12.0255C3.98925 11.4839 3.60603 10.827 3.39236 10.115H2.15085C2.39214 11.1431 2.90942 12.0955 3.65848 12.8634L11.4533 20.8545C11.7531 21.1619 12.2472 21.1618 12.5469 20.8544L20.1542 13.0523C20.9579 12.228 21.5212 11.2127 21.8001 10.115Z" fill="black"/>
</svg>
