<svg width="24" height="24" viewBox="0 0 24 24" fill="none" xmlns="http://www.w3.org/2000/svg">
<path fill-rule="evenodd" clip-rule="evenodd" d="M11.5495 2.57403C11.8252 2.40176 12.1749 2.40176 12.4505 2.57403L20.2005 7.41778L19.8825 7.92657L20.2005 7.41778C20.449 7.5731 20.6 7.8455 20.6 8.13857V15.8615C20.6 16.1545 20.449 16.4269 20.2005 16.5822L12.4505 21.426C12.1749 21.5983 11.8252 21.5983 11.5495 21.426L3.79952 16.5822C3.551 16.4269 3.40002 16.1545 3.40002 15.8615V8.13857C3.40002 7.8455 3.551 7.5731 3.79952 7.41778L4.11752 7.92657L4.11889 7.92876M12 3.70756L4.60002 8.33256V15.6675L12 20.2925L19.4 15.6675V8.33256L12 3.70756ZM12.1851 20.4082L12.1855 20.4084L12 20.7052L12.1855 20.4084C12.1854 20.4083 12.1853 20.4082 12.1851 20.4082ZM11.5495 2.57403L3.79953 7.41778L11.5495 2.57403ZM3.79953 7.41778L4.11752 7.92657L3.79953 7.41778Z" fill="black"/>
</svg>
