<svg width="24" height="24" viewBox="0 0 24 24" fill="none" xmlns="http://www.w3.org/2000/svg">
<path fill-rule="evenodd" clip-rule="evenodd" d="M12.8001 3.26158V2.05716C13.183 2.08799 13.5655 2.14105 13.9458 2.2167C16.4297 2.71079 18.6327 4.1312 20.1079 6.18982C21.5831 8.24843 22.22 10.7911 21.8894 13.302C21.5589 15.813 20.2856 18.1041 18.3279 19.7108C16.7471 21.0081 14.8157 21.7807 12.8001 21.9429V20.7385C14.5384 20.5793 16.2012 19.9038 17.5666 18.7832C19.2888 17.3698 20.4089 15.3543 20.6997 13.1454C20.9905 10.9365 20.4302 8.69975 19.1325 6.88879C17.8348 5.07783 15.8968 3.82829 13.7117 3.39364C13.409 3.33344 13.1047 3.28949 12.8001 3.26158ZM11.2001 20.7385C9.06191 20.5429 7.06654 19.5695 5.59522 17.9986C4.07223 16.3725 3.22478 14.228 3.22478 12H2.02478C2.02478 14.5326 2.98812 16.9704 4.71939 18.8189C6.41697 20.6314 8.72825 21.7442 11.2001 21.9429V20.7385ZM11.2001 2.05713V3.26154C9.85053 3.38507 8.53621 3.82059 7.36598 4.54829C6.20179 5.27223 5.23384 6.25199 4.52709 7.40006H7.24993V8.60006H3.49993C3.03049 8.60006 2.64993 8.21951 2.64993 7.75006V4.00006H3.84993V6.24846C4.61255 5.16786 5.5892 4.24007 6.7323 3.52924C8.09415 2.68239 9.62768 2.18363 11.2001 2.05713ZM11.3999 11.8965V6.00006H12.5999V11.7515L16.4242 15.5758L15.5757 16.4243L11.6489 12.4976C11.4895 12.3381 11.3999 12.1219 11.3999 11.8965Z" fill="black"/>
</svg>
