<svg width="24" height="24" viewBox="0 0 24 24" fill="none" xmlns="http://www.w3.org/2000/svg">
<path fill-rule="evenodd" clip-rule="evenodd" d="M11.9948 3.52666L4.19982 10.503L4.20018 20.5927H8.42028V18.3927H9.62028V20.9427C9.62028 21.4121 9.23972 21.7927 8.77028 21.7927H3.85019C3.38077 21.7927 3.00021 21.4121 3.00019 20.9427L2.99982 10.3465C2.99981 10.0957 3.11113 9.86164 3.29469 9.7027L11.4388 2.41384L11.4455 2.4082C11.7657 2.13804 12.2419 2.13839 12.5606 2.423M11.9948 3.52666L19.8002 10.4985V20.5927H15.5785V18.3927H14.3785V20.9427C14.3785 21.4121 14.7591 21.7927 15.2285 21.7927H20.1502C20.6196 21.7927 21.0002 21.4121 21.0002 20.9427V10.3418C21.0002 10.0998 20.897 9.86916 20.7164 9.7079L12.5606 2.423M8.42028 16.4302C8.42028 14.4535 10.0227 12.8511 11.9994 12.8511C13.9761 12.8511 15.5785 14.4535 15.5785 16.4302V16.7877H14.3785V16.4302C14.3785 15.1163 13.3134 14.0511 11.9994 14.0511C10.6855 14.0511 9.62028 15.1163 9.62028 16.4302V16.7877H8.42028V16.4302Z" fill="black"/>
</svg>
