<svg width="24" height="24" viewBox="0 0 24 24" fill="none" xmlns="http://www.w3.org/2000/svg">
<path fill-rule="evenodd" clip-rule="evenodd" d="M2 4.2499C2 3.78046 2.38056 3.3999 2.85 3.3999H21.1C21.5694 3.3999 21.95 3.78046 21.95 4.2499V19.7499C21.95 20.2193 21.5694 20.5999 21.1 20.5999H2.85C2.38056 20.5999 2 20.2193 2 19.7499V4.2499ZM3.2 4.5999V19.3999H20.75V4.5999H3.2ZM15.2002 8.29988C14.4822 8.29988 13.9002 8.88191 13.9002 9.59988C13.9002 10.3178 14.4822 10.8999 15.2002 10.8999C15.9182 10.8999 16.5002 10.3178 16.5002 9.59988C16.5002 8.88191 15.9182 8.29988 15.2002 8.29988ZM12.7002 9.59988C12.7002 8.21917 13.8195 7.09988 15.2002 7.09988C16.5809 7.09988 17.7002 8.21917 17.7002 9.59988C17.7002 10.9806 16.5809 12.0999 15.2002 12.0999C13.8195 12.0999 12.7002 10.9806 12.7002 9.59988ZM10.5597 14.262C9.49008 13.6991 8.16875 14.0194 7.47568 15.0096L5.49193 17.8439L4.5088 17.1559L6.49256 14.3215C7.53216 12.8362 9.51415 12.3557 11.1185 13.2001L18.2798 16.9689L17.7209 18.0309L10.5597 14.262Z" fill="black"/>
</svg>
