<svg width="24" height="24" viewBox="0 0 24 24" fill="none" xmlns="http://www.w3.org/2000/svg">
<path fill-rule="evenodd" clip-rule="evenodd" d="M2.52502 4.7499C2.52502 4.28046 2.90558 3.8999 3.37502 3.8999H20.625C21.0945 3.8999 21.475 4.28046 21.475 4.7499V11.5799H20.275V5.0999H3.72502V11.5799H2.52502V4.7499ZM4.93045 11.7749L8.37519 11.7756C8.84457 11.7757 9.22503 12.1562 9.22503 12.6256V12.7799C9.22503 14.3125 10.4674 15.5549 12 15.5549C13.5326 15.5549 14.775 14.3125 14.775 12.7799V12.6256C14.775 12.1562 15.1555 11.7757 15.6249 11.7756L19.0802 11.7749L19.0804 12.9749L15.9703 12.9755C15.8683 15.08 14.1298 16.7549 12 16.7549C9.87027 16.7549 8.13172 15.08 8.02975 12.9755L4.93021 12.9749L4.93045 11.7749ZM3.72502 18.8999V13.1799H2.52502V19.2499C2.52502 19.7193 2.90558 20.0999 3.37502 20.0999H20.625C21.0945 20.0999 21.475 19.7193 21.475 19.2499V13.1799H20.275V18.8999H3.72502Z" fill="black"/>
</svg>
