<svg width="24" height="24" viewBox="0 0 24 24" fill="none" xmlns="http://www.w3.org/2000/svg">
<path fill-rule="evenodd" clip-rule="evenodd" d="M12.8002 2.05665V3.26101C17.2715 3.66514 20.7751 7.42343 20.7751 12C20.7751 16.5766 17.2715 20.3349 12.8002 20.739V21.9434C17.9352 21.5359 21.9751 17.2398 21.9751 12C21.9751 6.7603 17.9352 2.46416 12.8002 2.05665ZM3.22515 12C3.22515 16.5767 6.7288 20.335 11.2002 20.7391V21.9434C6.06519 21.536 2.02515 17.2398 2.02515 12C2.02515 6.76027 6.06519 2.46411 11.2002 2.05664V3.261C6.7288 3.66508 3.22515 7.4234 3.22515 12ZM12.6 17.6V9.60002H11.4V17.6H12.6ZM12.8 7.2C12.8 6.75817 12.4418 6.4 12 6.4C11.5581 6.4 11.2 6.75817 11.2 7.2C11.2 7.64183 11.5581 8 12 8C12.4418 8 12.8 7.64183 12.8 7.2Z" fill="black"/>
</svg>
