<svg width="24" height="24" viewBox="0 0 24 24" fill="none" xmlns="http://www.w3.org/2000/svg">
<path fill-rule="evenodd" clip-rule="evenodd" d="M13.9349 3.37354C11.164 3.71019 9.01738 6.07059 9.01738 8.93237C9.01738 10.2627 9.48127 11.4847 10.2561 12.4454L7.65006 15.0515L5.50157 17.2L3.78278 18.9188L4.6313 19.7673L5.92583 18.4728L8.07976 20.6267L8.92829 19.7782L6.77436 17.6243L8.07433 16.3243L10.2283 18.4782L11.0768 17.6297L8.92286 15.4758L11.1047 13.2939C11.8985 13.9341 12.8707 14.3619 13.9349 14.4912V13.2798C11.829 12.9518 10.2174 11.1303 10.2174 8.93237C10.2174 6.73444 11.829 4.91291 13.9349 4.58498V3.37354ZM15.5349 13.2366C17.5246 12.8145 19.0174 11.0478 19.0174 8.93237C19.0174 6.81697 17.5246 5.05024 15.5349 4.62818V3.40717C18.1912 3.84499 20.2174 6.15206 20.2174 8.93237C20.2174 11.7127 18.1912 14.0198 15.5349 14.4576V13.2366Z" fill="black"/>
</svg>
