<svg width="24" height="24" viewBox="0 0 24 24" fill="none" xmlns="http://www.w3.org/2000/svg">
<path fill-rule="evenodd" clip-rule="evenodd" d="M11.6512 3.79313C11.873 3.69331 12.127 3.69331 12.3488 3.79313L20.2206 7.33543C20.8988 7.64065 20.8857 8.60826 20.1993 8.8949L12.3276 12.1825C12.1179 12.2701 11.882 12.2701 11.6724 12.1825L3.80062 8.8949C3.11429 8.60826 3.10112 7.64065 3.77939 7.33543L11.6512 3.79313ZM12 4.95207L5.00771 8.09859L12 11.0189L18.9922 8.09859L12 4.95207ZM12 14.5432L3.71817 11.3102L3.28179 12.4281L11.6852 15.7085L11.9034 15.1496L11.6852 15.7085C11.8876 15.7875 12.1123 15.7875 12.3148 15.7085L20.7182 12.4281L20.2818 11.3102L12 14.5432ZM12 18.0614L3.71817 14.8284L3.28179 15.9462L11.6852 19.2267C11.8876 19.3057 12.1123 19.3057 12.3148 19.2267L20.7182 15.9462L20.2818 14.8284L12 18.0614ZM11.8788 18.1087L11.8784 18.1089L11.8788 18.1087Z" fill="black"/>
</svg>
