<svg width="24" height="24" viewBox="0 0 24 24" fill="none" xmlns="http://www.w3.org/2000/svg">
<path fill-rule="evenodd" clip-rule="evenodd" d="M2.40002 4.2499C2.40002 3.78046 2.78058 3.3999 3.25002 3.3999H20.75C21.2195 3.3999 21.6 3.78046 21.6 4.2499V19.7499C21.6 20.2193 21.2195 20.5999 20.75 20.5999H3.25002C2.78058 20.5999 2.40002 20.2193 2.40002 19.7499V4.2499ZM3.60002 4.5999V11.2999L11.4 11.2999V4.5999H3.60002ZM12.6 4.5999V11.2999L20.4 11.2999V4.5999H12.6ZM20.4 12.4999L12.6 12.4999V19.3999H20.4V12.4999ZM11.4 19.3999V12.4999L3.60002 12.4999V19.3999H11.4Z" fill="black"/>
</svg>
