<svg width="24" height="24" viewBox="0 0 24 24" fill="none" xmlns="http://www.w3.org/2000/svg">
<path fill-rule="evenodd" clip-rule="evenodd" d="M2.40002 4.2499C2.40002 3.78046 2.78058 3.3999 3.25002 3.3999H20.75C21.2195 3.3999 21.6 3.78046 21.6 4.2499V19.7499C21.6 20.2193 21.2195 20.5999 20.75 20.5999H3.25002C2.78058 20.5999 2.40002 20.2193 2.40002 19.7499V4.2499ZM3.60002 4.5999V8.3999L8.40002 8.3999V4.5999H3.60002ZM9.60002 4.5999V8.3999L14.4 8.3999V4.5999H9.60002ZM15.6 4.5999V8.3999L20.4 8.3999V4.5999H15.6ZM20.4 9.5999L15.6 9.5999V14.0815L20.4 14.0815V9.5999ZM20.4 15.2815L15.6 15.2815V19.3999H20.4V15.2815ZM14.4 19.3999V15.2815H9.60002V19.3999H14.4ZM8.40002 19.3999V15.2815L3.60002 15.2815V19.3999H8.40002ZM3.60002 14.0815L8.40002 14.0815V9.5999L3.60002 9.5999V14.0815ZM9.60002 9.5999V14.0815H14.4V9.5999L9.60002 9.5999Z" fill="black"/>
</svg>
