<svg width="24" height="24" viewBox="0 0 24 24" fill="none" xmlns="http://www.w3.org/2000/svg">
<path fill-rule="evenodd" clip-rule="evenodd" d="M2.02502 12C2.02502 6.7603 6.06502 2.46416 11.2 2.05665V3.26101C9.30702 3.4321 7.5875 4.20435 6.23385 5.38534L9.64555 8.79704C10.3046 8.31177 11.1188 8.02503 12 8.02503C12.8085 8.02503 13.5605 8.26637 14.1881 8.68093L17.6137 5.25533C16.2844 4.14774 14.6226 3.42571 12.8 3.261V2.05664C17.935 2.46411 21.975 6.76027 21.975 12C21.975 17.2398 17.935 21.536 12.8 21.9434V20.7391C14.693 20.568 16.4125 19.7957 17.7662 18.6147L14.3545 15.203C13.6955 15.6883 12.8812 15.975 12 15.975C11.0465 15.975 10.1714 15.6393 9.48649 15.0796L6.0846 18.4815C7.46006 19.7375 9.23674 20.5616 11.2 20.739V21.9434C6.06502 21.5359 2.02502 17.2398 2.02502 12ZM5.38532 6.23387C4.03994 7.77595 3.22502 9.79282 3.22502 12C3.22502 14.1352 3.98763 16.0923 5.25532 17.6137L8.68093 14.1881C8.26636 13.5605 8.02502 12.8085 8.02502 12C8.02502 11.1188 8.31176 10.3046 8.79702 9.64557L5.38532 6.23387ZM18.4815 6.08461L15.0796 9.4865C15.6393 10.1714 15.975 11.0465 15.975 12C15.975 12.8812 15.6883 13.6955 15.203 14.3545L18.6147 17.7662C19.9601 16.2241 20.775 14.2072 20.775 12C20.775 9.72088 19.9061 7.64468 18.4815 6.08461ZM12 9.22503C10.4674 9.22503 9.22502 10.4674 9.22502 12C9.22502 13.5326 10.4674 14.775 12 14.775C13.5326 14.775 14.775 13.5326 14.775 12C14.775 10.4674 13.5326 9.22503 12 9.22503Z" fill="black"/>
</svg>
