<svg width="24" height="24" viewBox="0 0 24 24" fill="none" xmlns="http://www.w3.org/2000/svg">
<path fill-rule="evenodd" clip-rule="evenodd" d="M12.0668 2.34485C12.55 1.68115 13.6002 2.02297 13.6002 2.84396L13.6002 9.02467C13.6002 9.39875 13.7419 9.74848 13.9964 10.003C14.2558 10.2625 14.6078 10.4082 14.9747 10.4082H18.4547C19.1479 10.4082 19.5482 11.1948 19.1402 11.7552L11.9339 21.655C11.4507 22.3188 10.4004 21.977 10.4004 21.1559L10.4004 14.9754C10.4004 14.6029 10.2579 14.2526 10.0023 13.9971C9.74286 13.7376 9.39094 13.5918 9.024 13.5918H5.5441C4.85087 13.5918 4.45057 12.8052 4.85861 12.2448L12.0668 2.34485L12.5518 2.69801L12.0668 2.34485ZM12.4002 3.92559L6.23592 12.3918H9.024C9.70921 12.3918 10.3663 12.664 10.8509 13.1485C11.3393 13.6369 11.6004 14.2958 11.6004 14.9754L11.6004 20.0741L17.763 11.6082H14.9747C14.2895 11.6082 13.6324 11.336 13.1479 10.8515C12.6584 10.3621 12.4002 9.70275 12.4002 9.02467L12.4002 3.92559Z" fill="black"/>
</svg>
