<svg width="24" height="24" viewBox="0 0 24 24" fill="none" xmlns="http://www.w3.org/2000/svg">
<path fill-rule="evenodd" clip-rule="evenodd" d="M9.73747 4.9287C12.3149 2.35124 16.4938 2.35124 19.0713 4.9287C21.6487 7.50616 21.6487 11.685 19.0713 14.2625L18.5622 14.7716L17.7136 13.9231L18.2228 13.414C20.3316 11.3052 20.3316 7.88606 18.2228 5.77723C16.1139 3.6684 12.6948 3.6684 10.586 5.77723L10.0769 6.28635L9.22836 5.43782L9.73747 4.9287ZM8.94531 7.41792L7.41796 8.94527L6.56943 8.09674L8.09678 6.56939L8.94531 7.41792ZM15.2527 9.59581L9.59583 15.2527L8.7473 14.4041L14.4042 8.74729L15.2527 9.59581ZM4.9287 9.73747L5.43782 9.22835L6.28635 10.0769L5.77723 10.586C3.6684 12.6948 3.6684 16.1139 5.77723 18.2228C7.88606 20.3316 11.3052 20.3316 13.414 18.2228L13.9231 17.7136L14.7716 18.5622L14.2625 19.0713C11.6851 21.6487 7.50616 21.6487 4.9287 19.0713C2.35124 16.4938 2.35124 12.3149 4.9287 9.73747ZM17.4306 15.9032L15.9032 17.4306L15.0547 16.582L16.5821 15.0547L17.4306 15.9032Z" fill="black"/>
</svg>
