<svg width="24" height="24" viewBox="0 0 24 24" fill="none" xmlns="http://www.w3.org/2000/svg">
<path fill-rule="evenodd" clip-rule="evenodd" d="M5.32492 6.2998L5.32492 8.8998H5.92492L5.92492 6.2998H5.32492ZM6.36167 10.6998H4.43989V11.2998H6.31167V11.6998H4.88984C4.58609 11.6998 4.33984 11.9461 4.33984 12.2498V12.7498C4.33984 13.0536 4.58609 13.2998 4.88984 13.2998H6.80995V12.6998H4.93984V12.2998H6.36167C6.66543 12.2998 6.91167 12.0536 6.91167 11.7498V11.2498C6.91167 10.9461 6.66543 10.6998 6.36167 10.6998ZM6.36167 15.0999H4.43989V15.6999H6.31167V16.0999H4.43989V16.6999H6.31167V17.0999H4.43986V17.6999H6.36167C6.66543 17.6999 6.91167 17.4536 6.91167 17.1499V15.6499C6.91167 15.3461 6.66543 15.0999 6.36167 15.0999ZM20.0001 6.99976L8.83008 6.99976V8.19976L20.0001 8.19976V6.99976ZM20.0001 11.3998L8.83008 11.3998V12.5998L20.0001 12.5998V11.3998ZM20.0001 15.7998H8.83008V16.9998H20.0001V15.7998Z" fill="black"/>
</svg>
