<svg width="24" height="24" viewBox="0 0 24 24" fill="none" xmlns="http://www.w3.org/2000/svg">
<path fill-rule="evenodd" clip-rule="evenodd" d="M5.626 7.2C5.40509 7.2 5.226 7.37909 5.226 7.6C5.226 7.82091 5.40509 8 5.626 8C5.84691 8 6.026 7.82091 6.026 7.6C6.026 7.37909 5.84691 7.2 5.626 7.2ZM4.026 7.6C4.026 6.71634 4.74235 6 5.626 6C6.50966 6 7.226 6.71634 7.226 7.6C7.226 8.48366 6.50966 9.2 5.626 9.2C4.74235 9.2 4.026 8.48366 4.026 7.6ZM8.83001 7L20 7V8.2L8.83001 8.2V7ZM5.626 11.6C5.40509 11.6 5.226 11.7791 5.226 12C5.226 12.2209 5.40509 12.4 5.626 12.4C5.84691 12.4 6.026 12.2209 6.026 12C6.026 11.7791 5.84691 11.6 5.626 11.6ZM4.026 12C4.026 11.1164 4.74235 10.4 5.626 10.4C6.50966 10.4 7.226 11.1164 7.226 12C7.226 12.8837 6.50966 13.6 5.626 13.6C4.74235 13.6 4.026 12.8837 4.026 12ZM8.83001 11.4L20 11.4V12.6L8.83001 12.6V11.4ZM5.626 16C5.40509 16 5.226 16.1791 5.226 16.4C5.226 16.621 5.40509 16.8 5.626 16.8C5.84691 16.8 6.026 16.621 6.026 16.4C6.026 16.1791 5.84691 16 5.626 16ZM4.026 16.4C4.026 15.5164 4.74235 14.8 5.626 14.8C6.50966 14.8 7.226 15.5164 7.226 16.4C7.226 17.2837 6.50966 18 5.626 18C4.74235 18 4.026 17.2837 4.026 16.4ZM8.83001 15.8H20V17H8.83001V15.8Z" fill="black"/>
</svg>
