<svg width="24" height="24" viewBox="0 0 24 24" fill="none" xmlns="http://www.w3.org/2000/svg">
<path fill-rule="evenodd" clip-rule="evenodd" d="M12.6 2V6.99998H11.4V2H12.6ZM5.35318 4.50469L8.42423 7.57574L7.57571 8.42427L4.50466 5.35322L5.35318 4.50469ZM19.4953 5.35325L16.4243 8.42427L15.5758 7.57574L18.6468 4.50472L19.4953 5.35325ZM21.9996 12.5999L17 12.5999V11.3999L21.9996 11.3999V12.5999ZM7 12.5999L2 12.5999V11.3999L7 11.3999V12.5999ZM16.4242 15.5752L19.4972 18.6444L18.6492 19.4934L15.5762 16.4243L16.4242 15.5752ZM8.42452 16.4244L5.35219 19.4946L4.50395 18.6458L7.57628 15.5755L8.42452 16.4244ZM12.6 17V21.9998H11.4V17H12.6Z" fill="black"/>
</svg>
