<svg width="24" height="24" viewBox="0 0 24 24" fill="none" xmlns="http://www.w3.org/2000/svg">
<path fill-rule="evenodd" clip-rule="evenodd" d="M8.74733 3.34731C9.61 2.48464 10.78 2 12 2C13.22 2 14.39 2.48464 15.2527 3.34731C16.1154 4.20998 16.6 5.38 16.6 6.6V9.79999H15.4V6.6C15.4 5.69826 15.0418 4.83346 14.4042 4.19584C13.7666 3.55821 12.9018 3.2 12 3.2C11.0983 3.2 10.2335 3.55821 9.59586 4.19584C8.95824 4.83346 8.60002 5.69826 8.60002 6.6V9.79999H7.40002V6.6C7.40002 5.38 7.88467 4.20998 8.74733 3.34731ZM4.60002 10.4H5.80002V9.19998H4.25002C3.78058 9.19998 3.40002 9.58053 3.40002 10.05V21.15C3.40002 21.6194 3.78058 22 4.25002 22H19.75C20.2195 22 20.6 21.6194 20.6 21.15V10.05C20.6 9.58053 20.2195 9.19998 19.75 9.19998H18.2V10.4H19.4V20.8H4.60002V10.4ZM13.8 10.4H10.2002V9.2H13.8V10.4ZM12.0045 14.8001C11.5627 14.8001 11.2045 15.1582 11.2045 15.6001C11.2045 16.0419 11.5627 16.4001 12.0045 16.4001C12.4463 16.4001 12.8045 16.0419 12.8045 15.6001C12.8045 15.1582 12.4463 14.8001 12.0045 14.8001ZM10.0045 15.6001C10.0045 14.4955 10.8999 13.6001 12.0045 13.6001C13.1091 13.6001 14.0045 14.4955 14.0045 15.6001C14.0045 16.7046 13.1091 17.6001 12.0045 17.6001C10.8999 17.6001 10.0045 16.7046 10.0045 15.6001Z" fill="black"/>
</svg>
