<svg width="24" height="24" viewBox="0 0 24 24" fill="none" xmlns="http://www.w3.org/2000/svg">
<path fill-rule="evenodd" clip-rule="evenodd" d="M10.079 2.21657C12.0139 1.83169 14.0196 2.02922 15.8423 2.78421C17.665 3.53919 19.2228 4.81771 20.3189 6.45809C21.415 8.09847 22 10.027 22 11.9999C22 13.9728 21.415 15.9013 20.3189 17.5417C19.2228 19.1821 17.665 20.4606 15.8423 21.2156C14.0196 21.9706 12.0139 22.1681 10.079 21.7832C8.14402 21.3983 6.36664 20.4483 4.97162 19.0533L5.82015 18.2048C7.04735 19.432 8.61091 20.2677 10.3131 20.6063C12.0153 20.9449 13.7796 20.7711 15.383 20.1069C16.9865 19.4428 18.3569 18.3181 19.3211 16.875C20.2854 15.432 20.8 13.7354 20.8 11.9999C20.8 10.2644 20.2854 8.56782 19.3211 7.12478C18.3569 5.68174 16.9865 4.55702 15.383 3.89286C13.7796 3.22871 12.0153 3.05493 10.3131 3.39352C8.61091 3.7321 7.04735 4.56784 5.82015 5.79504L4.97162 4.94651C6.36665 3.55149 8.14402 2.60146 10.079 2.21657ZM10.3843 7.57563L14.1671 11.3585C14.499 11.6904 14.499 12.2286 14.1671 12.5605L10.3842 16.3438L9.53568 15.4953L12.4307 12.5999L2 12.5999V11.3999L12.5115 11.3999L9.53572 8.42416L10.3843 7.57563Z" fill="black"/>
</svg>
