<svg width="24" height="24" viewBox="0 0 24 24" fill="none" xmlns="http://www.w3.org/2000/svg">
<path fill-rule="evenodd" clip-rule="evenodd" d="M13.7119 3.39352C12.0098 3.05493 10.2454 3.22871 8.64197 3.89286C7.03855 4.55702 5.66809 5.68174 4.70388 7.12478C3.73967 8.56782 3.22502 10.2644 3.22502 11.9999C3.22502 13.7354 3.73967 15.432 4.70388 16.875C5.66809 18.3181 7.03855 19.4428 8.64197 20.1069C10.2454 20.7711 12.0098 20.9449 13.7119 20.6063C15.4141 20.2677 16.9777 19.432 18.2049 18.2048L19.0534 19.0533C17.6584 20.4483 15.881 21.3983 13.946 21.7832C12.0111 22.1681 10.0054 21.9706 8.18275 21.2156C6.36006 20.4606 4.80218 19.1821 3.70611 17.5417C2.61005 15.9013 2.02502 13.9728 2.02502 11.9999C2.02502 10.027 2.61005 8.09847 3.70611 6.45809C4.80218 4.81771 6.36006 3.53919 8.18275 2.78421C10.0054 2.02922 12.0111 1.83169 13.946 2.21657C15.881 2.60146 17.6584 3.55149 19.0534 4.94651L18.2049 5.79504C16.9777 4.56784 15.4141 3.7321 13.7119 3.39352ZM18.0743 7.57563L21.8571 11.3585C22.1891 11.6904 22.1891 12.2286 21.8571 12.5605L18.0743 16.3438L17.2257 15.4953L20.1208 12.5999L11 12.5999L11 11.3999L20.2015 11.3999L17.2258 8.42416L18.0743 7.57563Z" fill="black"/>
</svg>
