<svg width="24" height="24" viewBox="0 0 24 24" fill="none" xmlns="http://www.w3.org/2000/svg">
<path fill-rule="evenodd" clip-rule="evenodd" d="M9.2262 2.03735C5.17268 2.42821 2.00354 5.84405 2.00354 10.0001C2.00354 14.1561 5.17268 17.5719 9.2262 17.9628V16.7561C5.83673 16.3704 3.20354 13.4927 3.20354 10.0001C3.20354 6.5074 5.83673 3.62974 9.2262 3.24402V2.03735ZM10.8262 16.7508C14.1938 16.3447 16.8035 13.4772 16.8035 10.0001C16.8035 6.52298 14.1938 3.65543 10.8262 3.24933V2.04185C14.858 2.4537 18.0035 5.85954 18.0035 10.0001C18.0035 14.1406 14.858 17.5464 10.8262 17.9583V16.7508ZM16.3609 17.2095L21.1425 21.9911L21.991 21.1426L17.2094 16.361L16.3609 17.2095Z" fill="black"/>
</svg>
