<svg width="24" height="24" viewBox="0 0 24 24" fill="none" xmlns="http://www.w3.org/2000/svg">
<path fill-rule="evenodd" clip-rule="evenodd" d="M9.39686 3.77811C9.13371 3.6441 8.81987 3.65627 8.56789 3.81026L9.39686 3.77811ZM9.02666 4.93623L4.60002 7.6414V18.6896L8.40002 16.4096V6.74934H9.60002V16.3785L14.9738 19.0654L19.4 16.4096V5.31918L15.6 7.6414V17.2493H14.4V7.67267L9.02666 4.93623ZM14.9734 6.61801L19.3068 3.96982C19.8732 3.62368 20.6 4.03132 20.6 4.69511V16.6078C20.6 16.9064 20.4434 17.1831 20.1873 17.3367L15.4264 20.1932C15.1772 20.3428 14.8689 20.3546 14.6089 20.2246L9.02629 17.4333L4.68735 20.0367C4.1208 20.3766 3.40002 19.9685 3.40002 19.3078V7.44511C3.40002 7.14899 3.55413 6.87422 3.80679 6.71982L8.56789 3.81026L9.39686 3.77811M9.39686 3.77811L14.9734 6.61801L9.39686 3.77811Z" fill="black"/>
</svg>
