<svg width="24" height="24" viewBox="0 0 24 24" fill="none" xmlns="http://www.w3.org/2000/svg">
<path fill-rule="evenodd" clip-rule="evenodd" d="M15.9 3.3999L17.5 3.3999C19.2121 3.3999 20.6 4.78782 20.6 6.4999V8.0999H19.4V6.4999C19.4 5.45056 18.5494 4.5999 17.5 4.5999L15.9 4.5999V3.3999ZM6.50002 4.5999C5.45068 4.5999 4.60002 5.45056 4.60002 6.4999V8.0999H3.40002L3.40002 6.4999C3.40002 4.78782 4.78794 3.3999 6.50002 3.3999L8.10002 3.3999V4.5999L6.50002 4.5999ZM4.60002 15.8999V17.4999C4.60002 18.5492 5.45068 19.3999 6.50002 19.3999H8.10002V20.5999H6.50002C4.78794 20.5999 3.40002 19.212 3.40002 17.4999L3.40002 15.8999H4.60002ZM20.6 15.8999V17.4999C20.6 19.212 19.2121 20.5999 17.5 20.5999H15.9V19.3999H17.5C18.5494 19.3999 19.4 18.5492 19.4 17.4999V15.8999H20.6Z" fill="black"/>
</svg>
