<svg width="24" height="24" viewBox="0 0 24 24" fill="none" xmlns="http://www.w3.org/2000/svg">
<path fill-rule="evenodd" clip-rule="evenodd" d="M1.99963 4.2499C1.99963 3.78046 2.38019 3.3999 2.84963 3.3999H21.0996C21.5691 3.3999 21.9496 3.78046 21.9496 4.2499V19.7499C21.9496 20.2193 21.5691 20.5999 21.0996 20.5999H2.84963C2.38019 20.5999 1.99963 20.2193 1.99963 19.7499V4.2499ZM3.19963 4.5999V19.3999H20.7496V4.5999H3.19963ZM10.1 9.60524V14.3946L14.2907 11.9999L10.1 9.60524ZM8.90002 9.00213C8.90002 8.34948 9.60508 7.94031 10.1717 8.26412L15.4179 11.2619C15.9889 11.5882 15.9889 12.4116 15.4179 12.7379L10.1717 15.7357C9.60509 16.0595 8.90002 15.6503 8.90002 14.9977V9.00213Z" fill="black"/>
</svg>
