<svg width="24" height="24" viewBox="0 0 24 24" fill="none" xmlns="http://www.w3.org/2000/svg">
<path fill-rule="evenodd" clip-rule="evenodd" d="M6.81604 9.36205V10.6099H8.01604V10.5621L6.81604 9.36205ZM14.4778 15.3268C14.4779 15.3267 14.478 15.3266 14.4781 15.3265L8.01604 8.86448V8.865L6.81604 7.665V7.66448L3.09046 3.93889L3.93872 3.09062L20.909 20.0609L20.0607 20.9092L18.579 19.4274C18.5789 19.4275 18.5788 19.4276 18.5787 19.4277L17.7291 18.5781C17.7292 18.578 17.7293 18.5779 17.7294 18.5779L15.3309 16.1793C15.3308 16.1794 15.3307 16.1795 15.3306 16.1796L14.4778 15.3268ZM13.3933 15.9393C12.9518 16.1041 12.4805 16.1908 12.0003 16.1908C10.9436 16.1908 9.93023 15.771 9.18306 15.0239C8.43589 14.2767 8.01614 13.2633 8.01614 12.2067H6.81614C6.81614 13.5816 7.36232 14.9002 8.33453 15.8724C9.30674 16.8446 10.6253 17.3908 12.0003 17.3908C12.8073 17.3908 13.5949 17.2026 14.3045 16.8505L13.3933 15.9393ZM16.7751 19.3212C15.3733 20.262 13.7132 20.7749 12.0003 20.7749C9.72785 20.7749 7.54849 19.8722 5.94163 18.2653C4.33478 16.6585 3.43206 14.4791 3.43206 12.2067H2.23206C2.23206 14.7974 3.26121 17.282 5.09311 19.1139C6.92501 20.9458 9.40959 21.9749 12.0003 21.9749C14.0328 21.9749 16 21.3415 17.6379 20.1839L16.7751 19.3212ZM20.1449 17.5997C21.196 16.0123 21.7685 14.139 21.7685 12.2067H20.5685C20.5685 13.8188 20.1142 15.3841 19.2765 16.7313L20.1449 17.5997ZM16.7738 14.2286C17.0422 13.595 17.1844 12.9082 17.1844 12.2067H15.9844C15.9844 12.576 15.9331 12.9401 15.8345 13.2893L16.7738 14.2286ZM8.29347 5.74831C8.49193 5.24472 8.79281 4.78198 9.18296 4.39182C9.93013 3.64466 10.9435 3.2249 12.0002 3.2249C13.0568 3.2249 14.0702 3.64466 14.8174 4.39182C15.5645 5.13899 15.9843 6.15237 15.9843 7.20902V10.6099H17.1843V7.20902C17.1843 5.83411 16.6381 4.51551 15.6659 3.5433C14.6937 2.57108 13.3751 2.0249 12.0002 2.0249C10.6252 2.0249 9.30664 2.57108 8.33443 3.54329C7.94963 3.9281 7.63156 4.36718 7.38769 4.84253L8.29347 5.74831Z" fill="black"/>
</svg>
