<svg width="24" height="24" viewBox="0 0 24 24" fill="none" xmlns="http://www.w3.org/2000/svg">
<path fill-rule="evenodd" clip-rule="evenodd" d="M8.33413 3.54329C9.30634 2.57108 10.6249 2.0249 11.9999 2.0249C13.3748 2.0249 14.6934 2.57108 15.6656 3.5433C16.6378 4.51551 17.184 5.83411 17.184 7.20902V10.6099H15.984V7.20902C15.984 6.15237 15.5642 5.13899 14.817 4.39182C14.0699 3.64466 13.0565 3.2249 11.9999 3.2249C10.9432 3.2249 9.92982 3.64466 9.18266 4.39182C8.43549 5.13899 8.01573 6.15237 8.01573 7.20902V10.6099H6.81573V7.20902C6.81573 5.83411 7.36192 4.51551 8.33413 3.54329ZM14.817 15.0239C15.5642 14.2767 15.984 13.2633 15.984 12.2067H17.184C17.184 13.5816 16.6378 14.9002 15.6656 15.8724C14.6934 16.8446 13.3748 17.3908 11.9999 17.3908C10.6249 17.3908 9.30634 16.8446 8.33413 15.8724C7.36192 14.9002 6.81573 13.5816 6.81573 12.2067H8.01573C8.01573 13.2633 8.43549 14.2767 9.18266 15.0239C9.92982 15.771 10.9432 16.1908 11.9999 16.1908C13.0565 16.1908 14.0699 15.771 14.817 15.0239ZM18.0586 18.2653C19.6655 16.6585 20.5682 14.4791 20.5682 12.2067H21.7682C21.7682 14.7974 20.7391 17.282 18.9072 19.1139C17.0753 20.9458 14.5907 21.9749 12 21.9749C9.40929 21.9749 6.9247 20.9458 5.0928 19.1139C3.2609 17.282 2.23175 14.7974 2.23175 12.2067H3.43175C3.43175 14.4791 4.33447 16.6585 5.94133 18.2653C7.54818 19.8722 9.72755 20.7749 12 20.7749C14.2724 20.7749 16.4518 19.8722 18.0586 18.2653Z" fill="black"/>
</svg>
