<svg width="24" height="24" viewBox="0 0 24 24" fill="none" xmlns="http://www.w3.org/2000/svg">
<path fill-rule="evenodd" clip-rule="evenodd" d="M10.7001 6V7.6C10.7001 9.31208 9.3122 10.7 7.60012 10.7H6.00012V9.5H7.60012C8.64946 9.5 9.50012 8.64934 9.50012 7.6V6H10.7001ZM14.6 6L14.6 7.6C14.6 8.64934 15.4507 9.5 16.5 9.5H18.1V10.7H16.5C14.7879 10.7 13.4 9.31208 13.4 7.6L13.4 6H14.6ZM6.00012 13.4H7.60012C9.3122 13.4 10.7001 14.7879 10.7001 16.5V18.1H9.50012V16.5C9.50012 15.4506 8.64946 14.6 7.60012 14.6H6.00012V13.4ZM16.5 14.6C15.4507 14.6 14.6 15.4506 14.6 16.5L14.6 18.1H13.4L13.4 16.5C13.4 14.7879 14.7879 13.4 16.5 13.4H18.1V14.6H16.5Z" fill="black"/>
</svg>
