<svg width="24" height="24" viewBox="0 0 24 24" fill="none" xmlns="http://www.w3.org/2000/svg">
<path fill-rule="evenodd" clip-rule="evenodd" d="M11.1645 3.29108C11.3207 3.54434 11.3462 3.89397 11.1554 4.1901C10.5266 5.16609 10.1617 6.32777 10.1617 7.5765C10.1617 11.0349 12.9653 13.8384 16.4236 13.8384C17.6722 13.8384 18.8338 13.4736 19.8097 12.845C20.1058 12.6542 20.4555 12.6797 20.7087 12.8359C20.9683 12.996 21.1576 13.3164 21.0845 13.691C20.2599 17.9133 16.5414 21.0998 12.0774 21.0998C7.00889 21.0998 2.90002 16.991 2.90002 11.9224C2.90002 7.45821 6.08687 3.73965 10.3094 2.91526C10.6841 2.84212 11.0045 3.03149 11.1645 3.29108ZM9.71806 4.29949C6.46405 5.30537 4.10002 8.33838 4.10002 11.9224C4.10002 16.3282 7.67164 19.8998 12.0774 19.8998C15.6613 19.8998 18.6942 17.536 19.7002 14.2823C18.7107 14.7666 17.5984 15.0384 16.4236 15.0384C12.3025 15.0384 8.9617 11.6976 8.9617 7.5765C8.9617 6.40161 9.23362 5.28907 9.71806 4.29949Z" fill="black"/>
</svg>
