<svg width="24" height="24" viewBox="0 0 24 24" fill="none" xmlns="http://www.w3.org/2000/svg">
<path fill-rule="evenodd" clip-rule="evenodd" d="M18.1762 4.13652H12.8213V17.2645C12.8213 19.0972 11.5234 20.6268 9.79667 20.9843V19.746C10.8538 19.4166 11.6213 18.4302 11.6213 17.2645C11.6213 16.0989 10.8538 15.1125 9.79667 14.783V13.5447C10.4939 13.6891 11.1211 14.0245 11.6213 14.4938V3.78652C11.6213 3.31708 12.0018 2.93652 12.4713 2.93652H18.1762V4.13652ZM8.19667 13.5558C6.49577 13.9328 5.22375 15.4501 5.22375 17.2645C5.22375 19.0789 6.49577 20.5962 8.19667 20.9733V19.7293C7.16627 19.3842 6.42375 18.4111 6.42375 17.2645C6.42375 16.118 7.16627 15.1448 8.19667 14.7997V13.5558Z" fill="black"/>
</svg>
