<svg width="24" height="24" viewBox="0 0 24 24" fill="none" xmlns="http://www.w3.org/2000/svg">
<path fill-rule="evenodd" clip-rule="evenodd" d="M9.62742 4.13652V17.2645C9.62742 19.0982 8.32822 20.6284 6.60012 20.9849V19.7469C7.65868 19.4182 8.42742 18.4311 8.42742 17.2645C8.42742 16.0979 7.65868 15.1108 6.60012 14.7822V13.5441C7.29838 13.6882 7.92662 14.0239 8.42742 14.4938V3.78652C8.42742 3.31708 8.80798 2.93652 9.27742 2.93652H21.1299C21.5993 2.93652 21.9799 3.31708 21.9799 3.78652V17.2645C21.9799 19.088 20.695 20.6115 18.9812 20.9789V19.7378C20.025 19.4004 20.7799 18.4206 20.7799 17.2645C20.7799 16.1084 20.025 15.1286 18.9812 14.7912V13.5502C19.668 13.6974 20.286 14.0303 20.7799 14.4938V4.13652H9.62742ZM17.3812 13.5501C15.6673 13.9175 14.3824 15.4409 14.3824 17.2645C14.3824 19.0881 15.6673 20.6116 17.3812 20.9789V19.7378C16.3374 19.4005 15.5824 18.4207 15.5824 17.2645C15.5824 16.1084 16.3374 15.1286 17.3812 14.7912V13.5501ZM5.00012 19.7284V20.9727C3.30058 20.5946 2.02991 19.0779 2.02991 17.2645C2.02991 15.4511 3.30058 13.9345 5.00012 13.5564V14.8006C3.97112 15.1465 3.22991 16.119 3.22991 17.2645C3.22991 18.4101 3.97112 19.3825 5.00012 19.7284Z" fill="black"/>
</svg>
