<svg width="24" height="24" viewBox="0 0 24 24" fill="none" xmlns="http://www.w3.org/2000/svg">
<path fill-rule="evenodd" clip-rule="evenodd" d="M7.50263 2.24896C7.66204 2.08955 7.87824 2 8.10368 2H15.8966C16.122 2 16.3382 2.08955 16.4976 2.24894L21.7515 7.50252C21.9109 7.66193 22.0005 7.87814 22.0005 8.10358V15.8965C22.0005 16.1219 21.911 16.3381 21.7515 16.4975L16.4976 21.7511C16.3382 21.9105 16.122 22 15.8966 22H8.10368C7.87824 22 7.66204 21.9105 7.50263 21.7511L2.24908 16.4975C2.08968 16.3381 2.00012 16.1219 2.00012 15.8965V8.10358C2.00012 7.87814 2.08967 7.66194 2.24908 7.50254L7.50263 2.24896ZM8.24865 3.2L3.20012 8.24855V15.7515L8.24865 20.8H15.7516L20.8005 15.7515V8.24856L15.7516 3.2H8.24865Z" fill="black"/>
</svg>
