<svg width="24" height="24" viewBox="0 0 24 24" fill="none" xmlns="http://www.w3.org/2000/svg">
<path fill-rule="evenodd" clip-rule="evenodd" d="M11.5495 2.55156C11.8252 2.3793 12.1749 2.3793 12.4505 2.55157L20.318 7.46875C20.4935 7.5784 20.6 7.77068 20.6 7.97755V15.839C20.6 16.1321 20.449 16.4045 20.2005 16.5598L12.318 21.4864C12.1235 21.608 11.8766 21.608 11.682 21.4864L3.79952 16.5598C3.551 16.4045 3.40002 16.1321 3.40002 15.839V7.97755C3.40002 7.77068 3.5066 7.5784 3.68203 7.46875L11.5495 2.55156ZM12 3.6851L10.1321 4.85255L17 9.145L18.8679 7.97755L12 3.6851ZM19.4 9.0601L12.6 13.3101V19.895L19.4 15.645V9.0601ZM11.4 19.895V13.3101L4.60002 9.0601V15.645L11.4 19.895ZM5.1321 7.97755L12 12.27L13.8679 11.1026L7.00002 6.8101L5.1321 7.97755ZM8.1321 6.10255L15 10.395L15.8679 9.85255L9.00002 5.5601L8.1321 6.10255Z" fill="black"/>
</svg>
