<svg width="24" height="24" viewBox="0 0 24 24" fill="none" xmlns="http://www.w3.org/2000/svg">
<path fill-rule="evenodd" clip-rule="evenodd" d="M12.8001 3.261V2.05664C17.9351 2.46403 21.9753 6.76023 21.9753 12C21.9753 17.2399 17.9351 21.536 12.8001 21.9434V20.7391C17.2715 20.3351 20.7753 16.5767 20.7753 12C20.7753 7.42336 17.2715 3.66501 12.8001 3.261ZM11.2001 20.739C6.72879 20.3349 3.22527 16.5766 3.22527 12C3.22527 7.42349 6.72879 3.66523 11.2001 3.26104V2.05667C6.06519 2.46425 2.02527 6.76036 2.02527 12C2.02527 17.2397 6.06519 21.5358 11.2001 21.9434V20.739ZM8.02488 8.83596C8.02488 8.38809 8.38795 8.02502 8.83582 8.02502H10.6639C11.1118 8.02502 11.4749 8.38809 11.4749 8.83596V15.1641C11.4749 15.6119 11.1118 15.975 10.6639 15.975H8.83582C8.38795 15.975 8.02488 15.6119 8.02488 15.1641V8.83596ZM9.22488 9.22502V14.775H10.2749V9.22502H9.22488ZM12.5249 8.83596C12.5249 8.38809 12.888 8.02502 13.3358 8.02502H15.1639C15.6118 8.02502 15.9749 8.38809 15.9749 8.83596V15.1641C15.9749 15.6119 15.6118 15.975 15.1639 15.975H13.3358C12.888 15.975 12.5249 15.6119 12.5249 15.1641V8.83596ZM13.7249 9.22502V14.775H14.7749V9.22502H13.7249Z" fill="black"/>
</svg>
