<svg width="24" height="24" viewBox="0 0 24 24" fill="none" xmlns="http://www.w3.org/2000/svg">
<path fill-rule="evenodd" clip-rule="evenodd" d="M5.40002 6.2499C5.40002 5.78046 5.78058 5.3999 6.25002 5.3999H9.75002C10.2195 5.3999 10.6 5.78046 10.6 6.2499V17.7499C10.6 18.2193 10.2195 18.5999 9.75002 18.5999H6.25002C5.78058 18.5999 5.40002 18.2193 5.40002 17.7499V6.2499ZM6.60002 6.5999V17.3999H9.40002V6.5999H6.60002ZM13.4 6.2499C13.4 5.78046 13.7806 5.3999 14.25 5.3999H17.75C18.2195 5.3999 18.6 5.78046 18.6 6.2499V17.7499C18.6 18.2193 18.2195 18.5999 17.75 18.5999H14.25C13.7806 18.5999 13.4 18.2193 13.4 17.7499V6.2499ZM14.6 6.5999V17.3999H17.4V6.5999H14.6Z" fill="black"/>
</svg>
