<svg width="24" height="24" viewBox="0 0 24 24" fill="none" xmlns="http://www.w3.org/2000/svg">
<path fill-rule="evenodd" clip-rule="evenodd" d="M4.31839 4.42599C4.47365 4.27074 4.70131 4.21269 4.91195 4.27464L16.7786 7.76482C17.0979 7.85875 17.3331 8.1305 17.3802 8.46007L18.0363 13.0527L19.4858 14.5023C19.8178 14.8342 19.8178 15.3724 19.4858 15.7043L15.5967 19.5934C15.2648 19.9254 14.7266 19.9254 14.3947 19.5934L12.9451 18.1439L8.35246 17.4878C8.02289 17.4407 7.75115 17.2055 7.65721 16.8862L4.16703 5.01956C4.10508 4.80891 4.16313 4.58125 4.31839 4.42599ZM14.0765 17.5782L14.9957 18.4974L18.3898 15.1033L17.4706 14.1841L14.0765 17.5782ZM16.8342 13.1234L16.2241 8.85256L6.83074 6.08981L10.461 9.72008C11.2569 9.28925 12.2724 9.41017 12.9451 10.0828C13.7652 10.9029 13.7652 12.2326 12.9451 13.0527C12.125 13.8728 10.7953 13.8728 9.97524 13.0527C9.30257 12.38 9.18165 11.3645 9.61247 10.5686L5.98221 6.93834L8.74495 16.3317L13.0158 16.9418L16.8342 13.1234ZM12.0966 10.9314C11.7451 10.5799 11.1752 10.5799 10.8238 10.9314C10.4723 11.2828 10.4723 11.8527 10.8238 12.2042C11.1752 12.5556 11.7451 12.5556 12.0966 12.2042C12.448 11.8527 12.448 11.2828 12.0966 10.9314Z" fill="black"/>
</svg>
