<svg width="24" height="24" viewBox="0 0 24 24" fill="none" xmlns="http://www.w3.org/2000/svg">
<path fill-rule="evenodd" clip-rule="evenodd" d="M15.3943 5.2117C16.3316 4.27445 17.8512 4.27445 18.7884 5.2117C19.7257 6.14896 19.7257 7.66856 18.7884 8.60582L18.647 8.74724L17.7985 7.89871L17.9399 7.75729C18.4085 7.28866 18.4085 6.52886 17.9399 6.06023C17.4713 5.5916 16.7115 5.5916 16.2428 6.06023L16.1014 6.20165L15.2529 5.35313L15.3943 5.2117ZM6.30027 16.0028L14.97 7.33302L14.1215 6.4845L5.35313 15.2529C5.19934 15.4067 5.11035 15.6136 5.10448 15.831L5.04359 18.0839C5.03042 18.5712 5.42894 18.9697 5.91624 18.9565L8.16916 18.8957C8.38657 18.8898 8.59345 18.8008 8.74724 18.647L17.5156 9.87861L16.6671 9.03008L7.99733 17.6999L6.25313 17.747L6.30027 16.0028Z" fill="black"/>
</svg>
