<svg width="24" height="24" viewBox="0 0 24 24" fill="none" xmlns="http://www.w3.org/2000/svg">
<path fill-rule="evenodd" clip-rule="evenodd" d="M4.40002 7.5002C4.40002 6.06476 5.37565 4.85719 6.69998 4.50442V5.77635C6.0504 6.07833 5.60002 6.73667 5.60002 7.5002C5.60002 8.26372 6.0504 8.92206 6.69998 9.22405V10.496C5.37565 10.1432 4.40002 8.93564 4.40002 7.5002ZM9.40002 7.5002C9.40002 8.26376 8.94961 8.92213 8.29998 9.22409V10.496C9.62435 10.1433 10.6 8.93567 10.6 7.5002C10.6 6.06472 9.62435 4.85713 8.29998 4.50439V5.7763C8.94961 6.07827 9.40002 6.73663 9.40002 7.5002ZM4.57576 18.5759L18.5758 4.57593L19.4243 5.42446L5.42429 19.4245L4.57576 18.5759ZM15.7 14.7764C15.0504 15.0783 14.6 15.7367 14.6 16.5002C14.6 17.2637 15.0504 17.9221 15.7 18.224V19.496C14.3757 19.1432 13.4 17.9356 13.4 16.5002C13.4 15.0648 14.3757 13.8572 15.7 13.5044V14.7764ZM17.3 18.2241C17.9496 17.9221 18.4 17.2638 18.4 16.5002C18.4 15.7366 17.9496 15.0783 17.3 14.7763V13.5044C18.6243 13.8571 19.6 15.0647 19.6 16.5002C19.6 17.9357 18.6243 19.1433 17.3 19.496V18.2241Z" fill="black"/>
</svg>
