<svg width="24" height="24" viewBox="0 0 24 24" fill="none" xmlns="http://www.w3.org/2000/svg">
<path fill-rule="evenodd" clip-rule="evenodd" d="M6.37626 4.00262C6.7082 3.67068 7.24639 3.67068 7.57834 4.00262L10.4068 6.83105C10.7387 7.16299 10.7387 7.70118 10.4068 8.03313L9.12334 9.31656L14.6388 14.832L15.9222 13.5486C16.2541 13.2166 16.7923 13.2166 17.1243 13.5486L19.9527 16.377C20.2847 16.7089 20.2847 17.2471 19.9527 17.5791L19.7035 17.8283L18.8549 16.9798L18.8567 16.978L16.5232 14.6446L15.2398 15.928C14.9079 16.26 14.3697 16.2599 14.0377 15.928L8.02732 9.9176C7.69538 9.58565 7.69538 9.04746 8.02732 8.71552L9.31075 7.43209L6.9773 5.09864L6.97553 5.1004L6.127 4.25188L6.37626 4.00262ZM3.79779 8.22758C3.79779 7.17335 4.21659 6.16229 4.96204 5.41683L5.81057 6.26536C5.29016 6.78578 4.99779 7.49161 4.99779 8.22758C4.99779 8.96356 5.29016 9.66939 5.81057 10.1898L5.81064 10.1899L13.7642 18.1459L12.9155 18.9943L4.96204 11.0383C4.96202 11.0383 4.962 11.0383 4.96198 11.0383C4.21656 10.2928 3.79779 9.28179 3.79779 8.22758ZM15.7277 18.9575C16.4637 18.9575 17.1696 18.6652 17.69 18.1448L18.5385 18.9933C17.793 19.7387 16.782 20.1575 15.7277 20.1575C14.6735 20.1575 13.6625 19.7387 12.917 18.9933L13.7655 18.1448C14.2859 18.6652 14.9918 18.9575 15.7277 18.9575Z" fill="black"/>
</svg>
