<svg width="24" height="24" viewBox="0 0 24 24" fill="none" xmlns="http://www.w3.org/2000/svg">
<path fill-rule="evenodd" clip-rule="evenodd" d="M12.3278 12.5208L19.4953 5.3533L18.6468 4.50477L11.4793 11.6723L10.6307 12.5208L9.38626 13.7653L8.53773 14.6138L4.50469 18.6469L5.35322 19.4954L9.38626 15.4624L10.2348 14.6138L11.4793 13.3694L12.3278 12.5208ZM12.6106 14.5007L13.4592 13.6522L14.639 14.832L15.9224 13.5486L16.3466 13.9728L15.9224 13.5486C16.2543 13.2166 16.7925 13.2166 17.1245 13.5486L19.9529 16.377C20.2848 16.7089 20.2848 17.2471 19.9529 17.5791L19.7036 17.8283L18.8551 16.9798L18.8569 16.978L16.5234 14.6446L15.24 15.928C14.908 16.2599 14.3699 16.2599 14.0379 15.928L12.6106 14.5007ZM11.3662 15.7452L10.5176 16.5937L12.9175 18.9936L12.9176 18.9937L12.9189 18.995L13.0758 19.1519L13.0803 19.1474C13.8067 19.7962 14.7487 20.1575 15.7279 20.1575C16.7822 20.1575 17.7932 19.7387 18.5387 18.9933L17.6901 18.1448C17.1697 18.6652 16.4639 18.9575 15.7279 18.9575C14.9921 18.9575 14.2864 18.6653 13.766 18.1451L11.3662 15.7452ZM7.40636 13.4825L8.25489 12.6339L5.81075 10.1898C5.29034 9.66939 4.99797 8.96356 4.99797 8.22758C4.99797 7.49161 5.29034 6.78578 5.81075 6.26536L4.96223 5.41683C4.21677 6.16229 3.79797 7.17335 3.79797 8.22758C3.79797 9.28182 4.21677 10.2929 4.96223 11.0383L7.40636 13.4825ZM9.49937 11.3895L10.3479 10.5409L9.12352 9.31656L10.4069 8.03313C10.7389 7.70118 10.7389 7.16299 10.4069 6.83105L7.57852 4.00262C7.24657 3.67068 6.70838 3.67068 6.37644 4.00262L6.12718 4.25188L6.97571 5.1004L6.97748 5.09864L9.31093 7.43209L8.0275 8.71552C7.69556 9.04746 7.69556 9.58565 8.0275 9.9176L9.49937 11.3895Z" fill="black"/>
</svg>
