<svg width="24" height="24" viewBox="0 0 24 24" fill="none" xmlns="http://www.w3.org/2000/svg">
<path fill-rule="evenodd" clip-rule="evenodd" d="M9.7999 2.26846C5.34927 3.2706 2.02509 7.24661 2.02509 11.9999C2.02509 17.5089 6.49104 21.9749 12.0001 21.9749C16.7535 21.9749 20.7295 18.6506 21.7315 14.1999C21.7293 14.1999 21.7271 14.1999 21.7249 14.1999H20.4972C19.5211 17.9813 16.0864 20.7749 12.0001 20.7749C7.15379 20.7749 3.22509 16.8462 3.22509 11.9999C3.22509 7.91362 6.01861 4.47901 9.79989 3.50286V2.27491C9.79989 2.27276 9.79989 2.27061 9.7999 2.26846ZM20.491 11.3999H20.755C20.4602 7.03184 16.9682 3.5399 12.6002 3.24506V3.50033C12.6 3.50438 12.5999 3.50845 12.5999 3.51255V3.64607V10.9999V11.1499C12.5999 11.154 12.6 11.1581 12.6002 11.1622V11.3999H12.8461C12.8473 11.3999 12.8486 11.3999 12.8499 11.3999H12.9999H20.3537H20.4872C20.4885 11.3999 20.4898 11.3999 20.491 11.3999ZM21.972 11.7569C21.966 11.5075 21.9509 11.2604 21.927 11.0158C21.4644 6.29245 17.7074 2.53539 12.984 2.07284C12.7446 2.0494 12.5028 2.03442 12.2588 2.02821C11.779 2.01989 11.4002 2.40996 11.4002 2.87488L11.4002 11.7499C11.4002 12.2193 11.7807 12.5999 12.2502 12.5999L21.1252 12.5999C21.585 12.5999 21.9717 12.2293 21.972 11.7569Z" fill="black"/>
</svg>
