<svg width="24" height="24" viewBox="0 0 24 24" fill="none" xmlns="http://www.w3.org/2000/svg">
<path fill-rule="evenodd" clip-rule="evenodd" d="M16.9508 5.32781C14.2166 2.59359 9.78355 2.59359 7.04933 5.32781C5.82947 6.54768 5.15384 8.10569 5.02246 9.70013H3.81897C3.95264 7.79796 4.74659 5.9335 6.20081 4.47928C9.40365 1.27644 14.5965 1.27644 17.7993 4.47928C19.2536 5.9335 20.0475 7.79796 20.1812 9.70013H18.9777C18.8463 8.10569 18.1707 6.54768 16.9508 5.32781ZM18.927 11.3001C18.7161 12.7379 18.0574 14.1227 16.9508 15.2293L12.0001 20.18L7.04934 15.2293C5.94279 14.1227 5.28407 12.7379 5.07317 11.3001H3.86217C4.08019 13.0468 4.85974 14.7367 6.20081 16.0778L11.5725 21.4495C11.8086 21.6856 12.1915 21.6856 12.4276 21.4495L17.7993 16.0778C19.1404 14.7367 19.9199 13.0468 20.138 11.3001H18.927ZM12.0001 9.10011C11.2269 9.10011 10.6001 9.72691 10.6001 10.5001C10.6001 11.2733 11.2269 11.9001 12.0001 11.9001C12.7733 11.9001 13.4001 11.2733 13.4001 10.5001C13.4001 9.72691 12.7733 9.10011 12.0001 9.10011ZM9.40007 10.5001C9.40007 9.06417 10.5641 7.90011 12.0001 7.90011C13.436 7.90011 14.6001 9.06417 14.6001 10.5001C14.6001 11.936 13.436 13.1001 12.0001 13.1001C10.5641 13.1001 9.40007 11.936 9.40007 10.5001Z" fill="black"/>
</svg>
