<svg width="24" height="24" viewBox="0 0 24 24" fill="none" xmlns="http://www.w3.org/2000/svg">
<mask id="mask0_13279_42549" style="mask-type:alpha" maskUnits="userSpaceOnUse" x="2" y="2" width="20" height="20">
<path d="M2 4C2 2.89543 2.89543 2 4 2H20C21.1046 2 22 2.89543 22 4V20C22 21.1046 21.1046 22 20 22H4C2.89543 22 2 21.1046 2 20V4Z" fill="#D9D9D9"/>
</mask>
<g mask="url(#mask0_13279_42549)">
<path fill-rule="evenodd" clip-rule="evenodd" d="M23.0961 -0.0839694C19.1192 -3.42099 13.1901 -2.90226 9.85308 1.07465L8.93383 0.3033C12.6968 -4.18129 19.3829 -4.76624 23.8674 -1.00322L23.0961 -0.0839694ZM-4.95198 2.22796C-0.97508 5.56497 4.95402 5.04625 8.29104 1.06934L9.21029 1.84069C5.44727 6.32528 -1.23874 6.91023 -5.72333 3.14721L-4.95198 2.22796ZM24.5602 5.38014C20.5833 2.04312 14.6542 2.56185 11.3172 6.53876L10.3979 5.76741C14.161 1.28282 20.847 0.697869 25.3316 4.46089L24.5602 5.38014ZM-3.48787 7.69207C0.489031 11.0291 6.41813 10.5104 9.75515 6.53345L10.6744 7.3048C6.91138 11.7894 0.225376 12.3743 -4.25922 8.61132L-3.48787 7.69207ZM26.0243 10.8443C22.0474 7.50724 16.1183 8.02597 12.7813 12.0029L11.862 11.2315C15.6251 6.74693 22.3111 6.16198 26.7957 9.925L26.0243 10.8443ZM-2.02376 13.1562C1.95314 16.4932 7.88225 15.9745 11.2193 11.9976L12.1385 12.7689C8.3755 17.2535 1.68949 17.8385 -2.7951 14.0754L-2.02376 13.1562ZM27.4884 16.3084C23.5115 12.9713 17.5824 13.4901 14.2454 17.467L13.3262 16.6956C17.0892 12.211 23.7752 11.6261 28.2598 15.3891L27.4884 16.3084ZM-0.559649 18.6203C3.41725 21.9573 9.34636 21.4386 12.6834 17.4617L13.6026 18.233C9.83961 22.7176 3.1536 23.3026 -1.33099 19.5395L-0.559649 18.6203ZM28.9528 21.7725C24.9759 18.4355 19.0468 18.9542 15.7098 22.9311L14.7905 22.1597C18.5535 17.6752 25.2395 17.0902 29.7241 20.8532L28.9528 21.7725ZM0.904707 24.0844C4.88161 27.4214 10.8107 26.9027 14.1477 22.9258L15.067 23.6971C11.304 28.1817 4.61795 28.7667 0.133362 25.0037L0.904707 24.0844Z" fill="black"/>
</g>
</svg>
