<svg width="24" height="24" viewBox="0 0 24 24" fill="none" xmlns="http://www.w3.org/2000/svg">
<path fill-rule="evenodd" clip-rule="evenodd" d="M10.1615 2.79131C10.6491 2.30371 11.3105 2.02979 12 2.02979C12.6896 2.02979 13.3509 2.30371 13.8385 2.79131C14.3261 3.2789 14.6 3.94022 14.6 4.62979H13.4C13.4 4.25848 13.2525 3.90239 12.99 3.63984C12.7274 3.37728 12.3713 3.22979 12 3.22979C11.6287 3.22979 11.2726 3.37728 11.0101 3.63984C10.7475 3.90239 10.6 4.25848 10.6 4.62978H9.40002C9.40002 3.94022 9.67395 3.2789 10.1615 2.79131ZM9.40002 8.52978V6.22977H10.6V8.70478C10.6 8.97233 10.4741 9.22426 10.26 9.38479L4.60002 13.6298V14.9973L9.48123 13.3703C10.0316 13.1868 10.6 13.5965 10.6 14.1766V18.2048C10.6 18.4723 10.4741 18.7243 10.26 18.8848L8.60002 20.1298V20.5613L11.7939 19.7629C11.9292 19.729 12.0708 19.729 12.2062 19.7629L15.4 20.5613V20.1298L13.74 18.8848C13.526 18.7243 13.4 18.4723 13.4 18.2048V14.1766C13.4 13.5965 13.9684 13.1868 14.5188 13.3703L19.4 14.9973V13.6298L13.74 9.38479C13.526 9.22426 13.4 8.97233 13.4 8.70478V6.22977H14.6V8.52979L20.26 12.7748C20.4741 12.9353 20.6 13.1872 20.6 13.4548V15.4829C20.6 16.0631 20.0316 16.4728 19.4812 16.2893L14.6 14.6622V18.0298L16.26 19.2748C16.4741 19.4353 16.6 19.6872 16.6 19.9548V21.0096C16.6 21.5626 16.0803 21.9683 15.5439 21.8342L12 20.9482L8.45618 21.8342C7.91971 21.9683 7.40002 21.5626 7.40002 21.0096V19.9548C7.40002 19.6872 7.52599 19.4353 7.74002 19.2748L9.40002 18.0298V14.6622L4.51882 16.2893C3.96842 16.4728 3.40002 16.0631 3.40002 15.4829V13.4548C3.40002 13.1872 3.52599 12.9353 3.74002 12.7748L9.40002 8.52978ZM9.54002 17.9248L9.53956 17.9251L9.54002 17.9248ZM12.0849 20.927C12.0847 20.9271 12.0845 20.9271 12.0844 20.9272L12.0849 20.927ZM14.4604 8.42509C14.4603 8.42499 14.4602 8.42489 14.46 8.42478L14.25 8.70478L14.46 8.42478L14.4604 8.42509ZM19.5396 13.7345C19.5397 13.7346 19.5399 13.7347 19.54 13.7348L19.75 13.4548L19.54 13.7348L19.5396 13.7345ZM4.46057 13.7344L4.46002 13.7348L4.25002 13.4548L4.46002 13.7348C4.4602 13.7347 4.46038 13.7345 4.46057 13.7344Z" fill="black"/>
</svg>
