<svg width="24" height="24" viewBox="0 0 24 24" fill="none" xmlns="http://www.w3.org/2000/svg">
<path fill-rule="evenodd" clip-rule="evenodd" d="M12.8001 3.261V2.05664C17.9351 2.46403 21.9753 6.76023 21.9753 12C21.9753 17.2399 17.9351 21.536 12.8001 21.9434V20.7391C17.2715 20.3351 20.7753 16.5767 20.7753 12C20.7753 7.42336 17.2715 3.66501 12.8001 3.261ZM11.2001 20.739C6.72879 20.3349 3.22527 16.5766 3.22527 12C3.22527 7.42349 6.72879 3.66523 11.2001 3.26104V2.05667C6.06519 2.46425 2.02527 6.76036 2.02527 12C2.02527 17.2397 6.06519 21.5358 11.2001 21.9434V20.739ZM10.3813 9.49613V14.5039L14.1371 12L10.3813 9.49613ZM9.1813 8.79835C9.1813 8.13818 9.91706 7.74442 10.4664 8.11061L15.2688 11.3123C15.7596 11.6394 15.7596 12.3606 15.2688 12.6878L10.4664 15.8894C9.91706 16.2556 9.1813 15.8619 9.1813 15.2017V8.79835Z" fill="black"/>
</svg>
