<svg width="24" height="24" viewBox="0 0 24 24" fill="none" xmlns="http://www.w3.org/2000/svg">
<path fill-rule="evenodd" clip-rule="evenodd" d="M6.40002 3.4999C6.40002 3.03046 6.78058 2.6499 7.25002 2.6499H16.75C17.2195 2.6499 17.6 3.03046 17.6 3.4999V5.5499H16.4V3.8499H7.60002V5.5499H6.40002V3.4999ZM2.40002 7.9999C2.40002 7.53046 2.78058 7.1499 3.25002 7.1499H20.75C21.2195 7.1499 21.6 7.53046 21.6 7.9999V17.4823C21.6 17.9518 21.2195 18.3323 20.75 18.3323H19.2V17.1323H20.4V8.3499H3.60002V17.1382L4.80588 17.1499L4.79417 18.3499L3.24174 18.3347C2.77555 18.3302 2.40002 17.951 2.40002 17.4848V7.9999ZM16.3996 9.54751C16.3996 9.98934 16.7578 10.3475 17.1996 10.3475C17.6415 10.3475 17.9996 9.98934 17.9996 9.54751H19.1996C19.1996 10.6521 18.3042 11.5475 17.1996 11.5475C16.0951 11.5475 15.1996 10.6521 15.1996 9.54751H16.3996ZM6.40002 15.9999C6.40002 15.5305 6.78058 15.1499 7.25002 15.1499H16.75C17.2195 15.1499 17.6 15.5305 17.6 15.9999V20.4999C17.6 20.9693 17.2195 21.3499 16.75 21.3499H7.25002C6.78058 21.3499 6.40002 20.9693 6.40002 20.4999V15.9999ZM7.60002 16.3499V20.1499H16.4V16.3499H7.60002Z" fill="black"/>
</svg>
