<svg width="24" height="24" viewBox="0 0 24 24" fill="none" xmlns="http://www.w3.org/2000/svg">
<path fill-rule="evenodd" clip-rule="evenodd" d="M12.8002 2.05665V3.26101C17.2715 3.66514 20.7751 7.42343 20.7751 12C20.7751 16.5766 17.2715 20.3349 12.8002 20.739V21.9434C17.9352 21.5359 21.9751 17.2398 21.9751 12C21.9751 6.7603 17.9352 2.46416 12.8002 2.05665ZM3.22515 12C3.22515 16.5767 6.7288 20.335 11.2002 20.7391V21.9434C6.06519 21.536 2.02515 17.2398 2.02515 12C2.02515 6.76027 6.06519 2.46411 11.2002 2.05664V3.261C6.7288 3.66508 3.22515 7.4234 3.22515 12ZM11.7822 6.15001C11.1064 6.15001 10.4425 6.3279 9.85722 6.66581C9.27194 7.00372 8.78593 7.48973 8.44802 8.07501L9.48725 8.67501C9.71983 8.27216 10.0544 7.93762 10.4572 7.70504C10.8601 7.47245 11.317 7.35001 11.7822 7.35001C12.2474 7.35001 12.7044 7.47245 13.1072 7.70504C13.5101 7.93763 13.8446 8.27216 14.0772 8.67501C14.3098 9.07786 14.4322 9.53483 14.4322 10C14.4322 10.4652 14.3098 10.9222 14.0772 11.325C13.8446 11.7279 13.5101 12.0624 13.1072 12.295C12.7044 12.5276 12.2474 12.65 11.7822 12.65V13.85C12.458 13.85 13.1219 13.6721 13.7072 13.3342C14.2925 12.9963 14.7785 12.5103 15.1164 11.925C15.4543 11.3397 15.6322 10.6758 15.6322 10C15.6322 9.32419 15.4543 8.66028 15.1164 8.07501C14.7785 7.48973 14.2925 7.00372 13.7072 6.66581C13.1219 6.3279 12.458 6.15001 11.7822 6.15001ZM12.8 16.45C12.8 16.0082 12.4418 15.65 12 15.65C11.5581 15.65 11.2 16.0082 11.2 16.45C11.2 16.8918 11.5581 17.25 12 17.25C12.4418 17.25 12.8 16.8918 12.8 16.45Z" fill="black"/>
</svg>
