<svg width="24" height="24" viewBox="0 0 24 24" fill="none" xmlns="http://www.w3.org/2000/svg">
<path fill-rule="evenodd" clip-rule="evenodd" d="M7.99942 7.22881C6.73404 7.22881 5.5205 7.73148 4.62574 8.62623C3.73099 9.52098 3.22832 10.7345 3.22832 11.9999C3.22832 13.2653 3.73099 14.4788 4.62574 15.3736C5.5205 16.2683 6.73404 16.771 7.99942 16.771V17.971C6.41578 17.971 4.89701 17.3419 3.77721 16.2221C2.65742 15.1023 2.02832 13.5835 2.02832 11.9999C2.02832 10.4163 2.65742 8.8975 3.77721 7.7777C4.89701 6.6579 6.41578 6.02881 7.99942 6.02881V7.22881ZM16.0234 6.02881C17.607 6.02881 19.1258 6.6579 20.2456 7.7777C21.3654 8.8975 21.9945 10.4163 21.9945 11.9999C21.9945 13.5835 21.3654 15.1023 20.2456 16.2221C19.1258 17.3419 17.607 17.971 16.0234 17.971V16.771C17.2888 16.771 18.5023 16.2683 19.3971 15.3736C20.2918 14.4788 20.7945 13.2653 20.7945 11.9999C20.7945 10.7345 20.2918 9.52098 19.3971 8.62623C18.5023 7.73148 17.2888 7.22881 16.0234 7.22881V6.02881ZM7.99997 9.7976C7.41588 9.7976 6.85571 10.0296 6.4427 10.4426C6.02969 10.8557 5.79766 11.4158 5.79766 11.9999C5.79766 12.584 6.02969 13.1442 6.4427 13.5572C6.85571 13.9702 7.41588 14.2022 7.99997 14.2022V15.4022C7.09762 15.4022 6.23223 15.0438 5.59417 14.4057C4.95611 13.7676 4.59766 12.9023 4.59766 11.9999C4.59766 11.0976 4.95611 10.2322 5.59417 9.59411C6.23223 8.95605 7.09762 8.5976 7.99997 8.5976V9.7976ZM16.0229 8.5976C16.9252 8.5976 17.7906 8.95605 18.4286 9.59411C19.0667 10.2322 19.4252 11.0976 19.4252 11.9999C19.4252 12.9023 19.0667 13.7676 18.4286 14.4057C17.7906 15.0438 16.9252 15.4022 16.0229 15.4022V14.2022C16.6069 14.2022 17.1671 13.9702 17.5801 13.5572C17.9931 13.1442 18.2252 12.584 18.2252 11.9999C18.2252 11.4158 17.9931 10.8556 17.5801 10.4426C17.1671 10.0296 16.6069 9.7976 16.0229 9.7976V8.5976ZM12 10.5999C11.2268 10.5999 10.6 11.2267 10.6 11.9999C10.6 12.7731 11.2268 13.3999 12 13.3999C12.7732 13.3999 13.4 12.7731 13.4 11.9999C13.4 11.2267 12.7732 10.5999 12 10.5999ZM9.39997 11.9999C9.39997 10.564 10.564 9.3999 12 9.3999C13.4359 9.3999 14.6 10.564 14.6 11.9999C14.6 13.4358 13.4359 14.5999 12 14.5999C10.564 14.5999 9.39997 13.4358 9.39997 11.9999Z" fill="black"/>
</svg>
