<svg width="24" height="24" viewBox="0 0 24 24" fill="none" xmlns="http://www.w3.org/2000/svg">
<path fill-rule="evenodd" clip-rule="evenodd" d="M12.8001 3.261V2.05664C17.9351 2.46403 21.9753 6.76023 21.9753 12C21.9753 17.2399 17.9351 21.536 12.8001 21.9434V20.7391C17.2715 20.3351 20.7753 16.5767 20.7753 12C20.7753 7.42336 17.2715 3.66501 12.8001 3.261ZM11.2001 20.739C6.72879 20.3349 3.22527 16.5766 3.22527 12C3.22527 7.42349 6.72879 3.66523 11.2001 3.26104V2.05667C6.06519 2.46425 2.02527 6.76036 2.02527 12C2.02527 17.2397 6.06519 21.5358 11.2001 21.9434V20.739ZM12 9.22503C10.4674 9.22503 9.22497 10.4674 9.22497 12C9.22497 13.5326 10.4674 14.775 12 14.775C13.5326 14.775 14.775 13.5326 14.775 12C14.775 10.4674 13.5326 9.22503 12 9.22503ZM8.02497 12C8.02497 9.8047 9.80464 8.02503 12 8.02503C14.1953 8.02503 15.975 9.8047 15.975 12C15.975 14.1954 14.1953 15.975 12 15.975C9.80464 15.975 8.02497 14.1954 8.02497 12Z" fill="black"/>
</svg>
