<svg width="24" height="24" viewBox="0 0 24 24" fill="none" xmlns="http://www.w3.org/2000/svg">
<path fill-rule="evenodd" clip-rule="evenodd" d="M11.2003 2.06445C9.62784 2.19093 8.09423 2.68969 6.73232 3.53658C5.58925 4.24739 4.61265 5.17513 3.85004 6.25567V3.99974H2.65004V7.68724C2.65004 8.1912 3.05858 8.59974 3.56254 8.59974H7.25004V7.39974H4.53183C5.23817 6.25497 6.20439 5.27796 7.366 4.55563C8.53629 3.82789 9.8507 3.39237 11.2003 3.26886V2.06445ZM11.2003 20.8885C10.8846 20.8608 10.5693 20.8159 10.2557 20.7535C8.07055 20.3189 6.13257 19.0693 4.83486 17.2584C3.53714 15.4474 2.97685 13.2106 3.26766 11.0018L2.07792 10.8451C1.74735 13.3561 2.38426 15.8987 3.85944 17.9573C5.33462 20.016 7.53762 21.4364 10.0216 21.9305C10.4128 22.0083 10.8064 22.0622 11.2003 22.0926V20.8885ZM12.8003 22.0873V20.8825C14.1383 20.755 15.4407 20.3206 16.6014 19.5989C17.8151 18.8442 18.8155 17.8114 19.529 16.5997H16.8116V15.3997H20.4991C21.003 15.3997 21.4116 15.8083 21.4116 16.3122V19.9997H20.2116V17.763C19.4358 18.9017 18.4258 19.8775 17.2351 20.6179C15.8828 21.4588 14.3612 21.9565 12.8003 22.0873ZM12.8003 3.26895V2.06452C13.1831 2.09535 13.5656 2.14841 13.9458 2.22404C16.4298 2.71813 18.6328 4.13855 20.1079 6.19716C21.5831 8.25578 22.22 10.7984 21.8895 13.3094L20.6997 13.1527C20.9905 10.9439 20.4302 8.7071 19.1325 6.89613C17.8348 5.08517 15.8968 3.83563 13.7117 3.40099C13.4091 3.34079 13.1049 3.29686 12.8003 3.26895Z" fill="black"/>
</svg>
