<svg width="24" height="24" viewBox="0 0 24 24" fill="none" xmlns="http://www.w3.org/2000/svg">
<path fill-rule="evenodd" clip-rule="evenodd" d="M5.76574 3.82389C6.32609 3.40363 7.12574 3.80345 7.12574 4.50389V9.2296C7.12574 9.92096 6.34428 10.3231 5.78169 9.92127L2.55437 7.61605C2.08654 7.28188 2.07849 6.58933 2.53843 6.24437L5.76574 3.82389ZM5.92574 5.20389L3.64094 6.91748L5.92574 8.54948V5.20389ZM8.72982 6.34121H14.0478C16.9026 6.34121 19.217 8.65555 19.217 11.5104V12.3154H18.017V11.5104C18.017 9.31829 16.2399 7.54121 14.0478 7.54121H8.72982V6.34121ZM5.50934 11.6836V12.6527C5.50934 14.8449 7.28641 16.6219 9.47855 16.6219H15.2701V17.8219H9.47855C6.62367 17.8219 4.30934 15.5076 4.30934 12.6527V11.6836H5.50934ZM18.0747 15.4505V18.7961L20.3595 17.0825L18.0747 15.4505ZM16.8747 14.7704C16.8747 14.079 17.6561 13.6769 18.2187 14.0787L21.446 16.384C21.9139 16.7181 21.9219 17.4107 21.462 17.7556L18.2347 20.1761C17.6743 20.5964 16.8747 20.1965 16.8747 19.4961V14.7704Z" fill="black"/>
</svg>
