<svg width="24" height="24" viewBox="0 0 24 24" fill="none" xmlns="http://www.w3.org/2000/svg">
<path fill-rule="evenodd" clip-rule="evenodd" d="M12.8003 3.26162V2.0572C13.1831 2.08803 13.5656 2.14109 13.9458 2.21672C16.4297 2.71081 18.6327 4.13122 20.1079 6.18984C21.5831 8.24845 22.22 10.7911 21.8894 13.3021C21.5589 15.813 20.2856 18.1042 18.3279 19.7108C16.7472 21.0081 14.8158 21.7806 12.8003 21.9429V20.7385C14.5385 20.5793 16.2012 19.9037 17.5666 18.7832C19.2888 17.3698 20.4089 15.3543 20.6997 13.1454C20.9905 10.9366 20.4302 8.69977 19.1325 6.88881C17.8348 5.07785 15.8968 3.82831 13.7117 3.39366C13.4091 3.33347 13.1049 3.28953 12.8003 3.26162ZM11.2003 20.7386C9.06206 20.543 7.0666 19.5695 5.59522 17.9986C4.07223 16.3725 3.22478 14.228 3.22478 12.0001H2.02478C2.02478 14.5327 2.98812 16.9704 4.71939 18.8189C6.41703 20.6314 8.7284 21.7442 11.2003 21.943V20.7386ZM11.2003 2.05713V3.26154C9.85069 3.38504 8.53628 3.82057 7.36598 4.5483C6.20179 5.27225 5.23384 6.25201 4.52709 7.40008H7.24993V8.60008H3.56243C3.05847 8.60008 2.64993 8.19155 2.64993 7.68758V4.00008H3.84993V6.24848C4.61256 5.16788 5.5892 4.24009 6.7323 3.52926C8.09422 2.68237 9.62784 2.1836 11.2003 2.05713ZM10.3083 9.85008H14.7499V8.65008H9.84911C9.43995 8.65008 9.10827 8.98177 9.10827 9.39093V11.8592C9.10827 12.2684 9.43995 12.6001 9.84911 12.6001H13.6916V14.1501H9.24993V15.3501H14.1508C14.5599 15.3501 14.8916 15.0184 14.8916 14.6092V12.1409C14.8916 11.7318 14.5599 11.4001 14.1508 11.4001H10.3083V9.85008Z" fill="black"/>
</svg>
