<svg width="24" height="24" viewBox="0 0 24 24" fill="none" xmlns="http://www.w3.org/2000/svg">
<path fill-rule="evenodd" clip-rule="evenodd" d="M11.3176 6.75991C11.8825 6.38333 12.6391 6.78826 12.6391 7.46715V10.8268L18.7395 6.75991C19.3043 6.38333 20.061 6.78826 20.061 7.46715V16.5329C20.061 17.2118 19.3043 17.6167 18.7395 17.2401L12.6391 13.1732V16.5329C12.6391 17.2118 11.8825 17.6167 11.3176 17.2401L4.51828 12.7073C4.0136 12.3708 4.0136 11.6292 4.51827 11.2928L4.8511 11.792L4.85473 11.7975M4.8511 11.792L4.51828 11.2928L11.3176 6.75991M13.0426 12L18.861 15.8789V8.12113L13.0426 12ZM11.4391 8.12113L5.62074 12L11.4391 15.8789V8.12113Z" fill="black"/>
</svg>
