<svg width="24" height="24" viewBox="0 0 24 24" fill="none" xmlns="http://www.w3.org/2000/svg">
<path fill-rule="evenodd" clip-rule="evenodd" d="M12.8001 3.26158V2.05716C13.183 2.08799 13.5655 2.14105 13.9458 2.2167C16.4297 2.71079 18.6327 4.1312 20.1079 6.18982C21.5831 8.24843 22.22 10.7911 21.8894 13.302C21.5589 15.813 20.2856 18.1041 18.3279 19.7108C16.7471 21.0081 14.8157 21.7807 12.8001 21.9429V20.7385C14.5384 20.5793 16.2012 19.9038 17.5666 18.7832C19.2888 17.3698 20.4089 15.3543 20.6997 13.1454C20.9905 10.9365 20.4302 8.69975 19.1325 6.88879C17.8348 5.07783 15.8968 3.82829 13.7117 3.39364C13.409 3.33344 13.1047 3.28949 12.8001 3.26158ZM11.2001 20.7385C9.06191 20.5429 7.06654 19.5695 5.59522 17.9986C4.07223 16.3725 3.22478 14.228 3.22478 12H2.02478C2.02478 14.5326 2.98812 16.9704 4.71939 18.8189C6.41697 20.6314 8.72825 21.7442 11.2001 21.9429V20.7385ZM11.2001 2.05713V3.26154C9.85053 3.38507 8.53621 3.82059 7.36598 4.54829C6.20179 5.27223 5.23384 6.25199 4.52709 7.40006H7.24993V8.60006H3.56243C3.05847 8.60006 2.64993 8.19152 2.64993 7.68756V4.00006H3.84993V6.24846C4.61255 5.16786 5.5892 4.24007 6.7323 3.52924C8.09415 2.68239 9.62768 2.18363 11.2001 2.05713ZM8.89993 15.3516L8.89993 8.6485H10.0999L10.0999 15.3516H8.89993ZM12.7251 9.85006H15.1499V8.65006H12.3751C11.9057 8.65006 11.5251 9.03062 11.5251 9.50006V11.7501C11.5251 12.2195 11.9057 12.6001 12.3751 12.6001H14.0251V14.1501H11.5999V15.3501H14.3751C14.8446 15.3501 15.2251 14.9695 15.2251 14.5001V12.2501C15.2251 11.7806 14.8446 11.4001 14.3751 11.4001H12.7251V9.85006Z" fill="black"/>
</svg>
