<svg width="24" height="24" viewBox="0 0 24 24" fill="none" xmlns="http://www.w3.org/2000/svg">
<path fill-rule="evenodd" clip-rule="evenodd" d="M12.8001 2.05716V3.26158C13.1047 3.28949 13.409 3.33344 13.7117 3.39364C15.8968 3.82829 17.8348 5.07783 19.1325 6.88879C20.4302 8.69975 20.9905 10.9365 20.6997 13.1454C20.4089 15.3543 19.2888 17.3698 17.5666 18.7832C16.2012 19.9038 14.5384 20.5793 12.8001 20.7385V21.9429C14.8157 21.7807 16.7471 21.0081 18.3279 19.7108C20.2856 18.1041 21.5589 15.813 21.8894 13.302C22.22 10.7911 21.5831 8.24843 20.1079 6.18982C18.6327 4.1312 16.4297 2.71079 13.9458 2.2167C13.5655 2.14105 13.183 2.08799 12.8001 2.05716ZM11.2001 3.26154V2.05713C9.62768 2.18363 8.09415 2.68239 6.7323 3.52924C5.5892 4.24007 4.61255 5.16786 3.84993 6.24846V4.00007H2.64993V7.68756C2.64993 8.19152 3.05847 8.60006 3.56243 8.60006H7.24993V7.40006H4.52709C5.23384 6.25199 6.20179 5.27223 7.36598 4.54829C8.53621 3.82059 9.85053 3.38507 11.2001 3.26154ZM11.2001 20.7385V21.9429C8.72825 21.7442 6.41697 20.6314 4.71939 18.8189C2.98812 16.9704 2.02478 14.5326 2.02478 12H3.22478C3.22478 14.228 4.07223 16.3725 5.59522 17.9986C7.06654 19.5695 9.06191 20.5429 11.2001 20.7385ZM8.82474 15.3516L8.82474 8.6485H10.0247L10.0247 15.3516H8.82474ZM12.4251 9.85006V14.1501H13.9751V9.85006H12.4251ZM11.2251 9.50006C11.2251 9.03062 11.6057 8.65006 12.0751 8.65006H14.3251C14.7946 8.65006 15.1751 9.03062 15.1751 9.50006V14.5001C15.1751 14.9695 14.7946 15.3501 14.3251 15.3501H12.0751C11.6057 15.3501 11.2251 14.9695 11.2251 14.5001V9.50006Z" fill="black"/>
</svg>
