<svg width="24" height="24" viewBox="0 0 24 24" fill="none" xmlns="http://www.w3.org/2000/svg">
<path fill-rule="evenodd" clip-rule="evenodd" d="M15.738 8.26193C12.6249 5.14883 8.40259 3.3999 4 3.3999V4.5999C8.08433 4.5999 12.0014 6.2224 14.8894 9.11046C17.7775 11.9985 19.4 15.9156 19.4 19.9999H20.6C20.6 15.5973 18.8511 11.375 15.738 8.26193ZM12.2024 11.7975C10.027 9.62204 7.07651 8.3999 4 8.3999V9.5999C6.75825 9.5999 9.40353 10.6956 11.3539 12.646C13.3043 14.5964 14.4 17.2416 14.4 19.9999H15.6C15.6 16.9234 14.3779 13.9729 12.2024 11.7975ZM7.45 18.6875C8.06466 18.4475 8.5001 17.8495 8.5001 17.1499C8.5001 16.4503 8.06466 15.8523 7.45 15.6123V14.3631C8.73595 14.6386 9.7001 15.7817 9.7001 17.1499C9.7001 18.5181 8.73595 19.6612 7.45 19.9367V18.6875ZM6.25 15.6124C5.63545 15.8525 5.2001 16.4503 5.2001 17.1499C5.2001 17.8495 5.63545 18.4473 6.25 18.6874V19.9366C4.96415 19.661 4.0001 18.5181 4.0001 17.1499C4.0001 15.7817 4.96415 14.6388 6.25 14.3632V15.6124Z" fill="black"/>
</svg>
