<svg width="24" height="24" viewBox="0 0 24 24" fill="none" xmlns="http://www.w3.org/2000/svg">
<path fill-rule="evenodd" clip-rule="evenodd" d="M13.7247 3.95195C12.9515 3.95195 12.3247 4.57875 12.3247 5.35195C12.3247 6.12515 12.9515 6.75195 13.7247 6.75195C14.4979 6.75195 15.1247 6.12515 15.1247 5.35195C15.1247 4.57875 14.4979 3.95195 13.7247 3.95195ZM11.1247 5.35195C11.1247 3.91601 12.2887 2.75195 13.7247 2.75195C15.1606 2.75195 16.3247 3.91601 16.3247 5.35195C16.3247 6.78789 15.1606 7.95195 13.7247 7.95195C12.2887 7.95195 11.1247 6.78789 11.1247 5.35195ZM12.7171 9.61933C10.84 9.41986 9.04454 10.6098 8.5406 12.4905L7.38149 12.1799C8.11074 9.4583 10.9084 7.84314 13.63 8.57239L14.0747 8.69154V9.15194C14.0747 11.0285 15.5957 12.5497 17.4722 12.5497V13.7497C15.7474 13.7497 14.2445 12.7999 13.4579 11.3948L12.2532 15.611C14.6984 15.9859 16.5712 18.0985 16.5712 20.6485H15.3712C15.3712 18.6383 13.849 16.9836 11.8944 16.7743C11.0249 18.9315 8.64753 20.126 6.36243 19.4708L6.69319 18.3173C8.49769 18.8347 10.38 17.7915 10.8977 15.9871C10.8977 15.9871 10.8978 15.9871 10.8978 15.9871C10.8978 15.9871 10.8978 15.987 10.8978 15.9869C10.8978 15.9868 10.8979 15.9867 10.8979 15.9866L12.0368 11.9876L12.0402 11.9886L12.7171 9.61933Z" fill="black"/>
</svg>
