<svg width="24" height="24" viewBox="0 0 24 24" fill="none" xmlns="http://www.w3.org/2000/svg">
<path fill-rule="evenodd" clip-rule="evenodd" d="M11.3517 4.1316C11.8635 3.52795 12.85 3.88988 12.85 4.68129V13.4803C12.85 13.9498 12.4695 14.3303 12 14.3303H4.53975C3.81569 14.3303 3.42317 13.4829 3.89141 12.9306L11.3517 4.1316ZM11.65 5.63531L5.29536 13.1303H11.65V5.63531ZM3.7235 17.2287C3.37499 16.6623 3.78244 15.9332 4.44741 15.9332H19.5526C20.2176 15.9332 20.6251 16.6623 20.2765 17.2287L18.4509 20.1953C18.2962 20.4467 18.0222 20.5998 17.727 20.5998H6.27305C5.97788 20.5998 5.70384 20.4467 5.54914 20.1953L3.7235 17.2287ZM5.07376 17.1332L6.46863 19.3998H17.5314L18.9263 17.1332H5.07376Z" fill="black"/>
</svg>
