<svg width="24" height="24" viewBox="0 0 24 24" fill="none" xmlns="http://www.w3.org/2000/svg">
<path fill-rule="evenodd" clip-rule="evenodd" d="M4.60002 4.5999V19.3999H7.40002V14.2856C7.40002 13.7964 7.79657 13.3999 8.28574 13.3999H15.7143C16.2035 13.3999 16.6 13.7964 16.6 14.2856V19.3999H19.4V7.677L16.3229 4.5999H4.60002ZM15.4 19.3999V14.5999H8.60002V19.3999H15.4ZM3.40002 4.28562C3.40002 3.79645 3.79657 3.3999 4.28574 3.3999H16.4531C16.688 3.3999 16.9133 3.49322 17.0794 3.65932L20.3406 6.92053C20.5067 7.08663 20.6 7.31192 20.6 7.54682V19.7142C20.6 20.2034 20.2035 20.5999 19.7143 20.5999H4.28574C3.79657 20.5999 3.40002 20.2034 3.40002 19.7142V4.28562ZM13.6 6.1999C13.6 7.91198 12.2121 9.2999 10.5 9.2999C8.78794 9.2999 7.40002 7.91198 7.40002 6.1999H8.60002C8.60002 7.24924 9.45068 8.0999 10.5 8.0999C11.5494 8.0999 12.4 7.24924 12.4 6.1999H13.6Z" fill="black"/>
</svg>
