<svg width="24" height="24" viewBox="0 0 24 24" fill="none" xmlns="http://www.w3.org/2000/svg">
<path fill-rule="evenodd" clip-rule="evenodd" d="M11.4672 2.14818C11.7777 1.89983 12.2188 1.89983 12.5292 2.14818L15.1956 4.28128L18.5904 4.65847C18.9855 4.70237 19.2974 5.01429 19.3413 5.40941L19.7184 8.8036L21.8518 11.4703C22.1002 11.7807 22.1002 12.2218 21.8518 12.5323L19.7179 15.1996L19.3411 18.5913C19.2972 18.9864 18.9852 19.2983 18.5901 19.3422L15.1951 19.7195L12.5292 21.8522C12.2188 22.1005 11.7777 22.1005 11.4672 21.8522L8.80109 19.7192L5.40805 19.3422C5.01293 19.2983 4.70102 18.9864 4.65712 18.5913L4.28003 15.1976L2.14781 12.5323C1.89946 12.2218 1.89946 11.7807 2.14781 11.4703L4.2795 8.80568L4.65687 5.40941C4.70077 5.01429 5.01268 4.70237 5.4078 4.65847L8.8006 4.28149L11.4672 2.14818ZM11.9982 3.26013L9.47104 5.28189C9.34541 5.3824 9.19382 5.44519 9.03392 5.46295L5.81861 5.82021L5.46096 9.039C5.4432 9.19891 5.38041 9.35049 5.2799 9.47612L3.25977 12.0013L5.28043 14.5271C5.38094 14.6528 5.44373 14.8043 5.46149 14.9642L5.81885 18.1805L9.0344 18.5378C9.19431 18.5555 9.34589 18.6183 9.47153 18.7188L11.9982 20.7402L14.5247 18.7191C14.6503 18.6186 14.8019 18.5558 14.9618 18.538L18.1793 18.1805L18.5365 14.9663C18.5542 14.8064 18.617 14.6548 18.7175 14.5292L20.7398 12.0013L18.718 9.47404C18.6175 9.3484 18.5547 9.19682 18.537 9.03691L18.1796 5.82021L14.9623 5.46274C14.8024 5.44497 14.6508 5.38218 14.5252 5.28167L11.9982 3.26013Z" fill="black"/>
</svg>
