<svg width="24" height="24" viewBox="0 0 24 24" fill="none" xmlns="http://www.w3.org/2000/svg">
<path fill-rule="evenodd" clip-rule="evenodd" d="M2.52502 5.2499C2.52502 4.78046 2.90558 4.3999 3.37502 4.3999H20.625C21.0945 4.3999 21.475 4.78046 21.475 5.2499V10.7499C21.475 11.2193 21.0945 11.5999 20.625 11.5999H3.37502C2.90558 11.5999 2.52502 11.2193 2.52502 10.7499V5.2499ZM3.72502 5.5999V10.3999H20.275V5.5999H3.72502ZM6.25002 7.5999C6.02911 7.5999 5.85002 7.77899 5.85002 7.9999C5.85002 8.22082 6.02911 8.3999 6.25002 8.3999C6.47094 8.3999 6.65002 8.22082 6.65002 7.9999C6.65002 7.77899 6.47094 7.5999 6.25002 7.5999ZM4.65002 7.9999C4.65002 7.11625 5.36637 6.3999 6.25002 6.3999C7.13368 6.3999 7.85002 7.11625 7.85002 7.9999C7.85002 8.88356 7.13368 9.5999 6.25002 9.5999C5.36637 9.5999 4.65002 8.88356 4.65002 7.9999ZM2.52502 13.2499C2.52502 12.7805 2.90558 12.3999 3.37502 12.3999H20.625C21.0945 12.3999 21.475 12.7805 21.475 13.2499V18.7499C21.475 19.2193 21.0945 19.5999 20.625 19.5999H3.37502C2.90558 19.5999 2.52502 19.2193 2.52502 18.7499V13.2499ZM3.72502 13.5999V18.3999H20.275V13.5999H3.72502ZM6.25002 15.5999C6.02911 15.5999 5.85002 15.779 5.85002 15.9999C5.85002 16.2208 6.02911 16.3999 6.25002 16.3999C6.47094 16.3999 6.65002 16.2208 6.65002 15.9999C6.65002 15.779 6.47094 15.5999 6.25002 15.5999ZM4.65002 15.9999C4.65002 15.1162 5.36637 14.3999 6.25002 14.3999C7.13368 14.3999 7.85002 15.1162 7.85002 15.9999C7.85002 16.8836 7.13368 17.5999 6.25002 17.5999C5.36637 17.5999 4.65002 16.8836 4.65002 15.9999Z" fill="black"/>
</svg>
