<svg width="24" height="24" viewBox="0 0 24 24" fill="none" xmlns="http://www.w3.org/2000/svg">
<path fill-rule="evenodd" clip-rule="evenodd" d="M11.3996 3.06584C11.7315 2.73391 12.2697 2.73391 12.6017 3.06585L16.6673 7.13144L15.8188 7.97998L12.6 4.76126L12.6 15.3128H11.4L11.4 4.7624L8.18208 7.98006L7.33359 7.13149L11.3996 3.06586C11.3996 3.06585 11.3996 3.06585 11.3996 3.06584ZM20.1071 14.6708C20.5502 13.601 20.775 12.4596 20.775 11.3127L21.975 11.3127C21.975 12.6164 21.7195 13.9139 21.2157 15.13C20.4607 16.9527 19.1822 18.5106 17.5418 19.6066C15.9015 20.7027 13.9729 21.2877 12 21.2877C10.0272 21.2877 8.09859 20.7027 6.45821 19.6066C4.81783 18.5106 3.53931 16.9527 2.78433 15.13C2.28061 13.9139 2.02503 12.6164 2.02502 11.3127L3.22502 11.3127C3.22503 12.4596 3.44986 13.601 3.89299 14.6708C4.55714 16.2742 5.68186 17.6447 7.1249 18.6089C8.56794 19.5731 10.2645 20.0877 12 20.0877C13.7356 20.0877 15.4321 19.5731 16.8752 18.6089C18.3182 17.6447 19.4429 16.2742 20.1071 14.6708Z" fill="black"/>
</svg>
