<svg width="24" height="24" viewBox="0 0 24 24" fill="none" xmlns="http://www.w3.org/2000/svg">
<path fill-rule="evenodd" clip-rule="evenodd" d="M16.6428 4.68588C15.7592 4.68588 15.0428 5.40223 15.0428 6.28588C15.0428 7.16953 15.7592 7.88588 16.6428 7.88588C17.5265 7.88588 18.2428 7.16953 18.2428 6.28588C18.2428 5.40223 17.5265 4.68588 16.6428 4.68588ZM13.6714 6.28588C13.6714 4.6448 15.0017 3.31445 16.6428 3.31445C18.2839 3.31445 19.6143 4.6448 19.6143 6.28588C19.6143 7.92696 18.2839 9.25731 16.6428 9.25731C15.7763 9.25731 14.9963 8.88637 14.4532 8.29461L9.24591 11.301C9.29997 11.5252 9.32861 11.7593 9.32861 12.0001C9.32861 12.2409 9.29996 12.4751 9.24589 12.6993L14.4532 15.7057C14.9964 15.114 15.7763 14.743 16.6428 14.743C18.2839 14.743 19.6143 16.0734 19.6143 17.7145C19.6143 19.3555 18.2839 20.6859 16.6428 20.6859C15.0017 20.6859 13.6714 19.3555 13.6714 17.7145C13.6714 17.433 13.7105 17.1607 13.7836 16.9027L8.6226 13.923C8.07756 14.5645 7.2649 14.9715 6.35718 14.9715C4.7161 14.9715 3.38574 13.6412 3.38574 12.0001C3.38574 10.359 4.7161 9.02869 6.35718 9.02869C7.26493 9.02869 8.07762 9.43574 8.62266 10.0773L13.7836 7.0976C13.7105 6.83959 13.6714 6.56731 13.6714 6.28588ZM6.35718 10.4001C5.47352 10.4001 4.75717 11.1165 4.75717 12.0001C4.75717 12.8838 5.47352 13.6001 6.35718 13.6001C7.24084 13.6001 7.95718 12.8838 7.95718 12.0001C7.95718 11.1165 7.24084 10.4001 6.35718 10.4001ZM16.6428 16.1145C15.7592 16.1145 15.0428 16.8308 15.0428 17.7145C15.0428 18.5981 15.7592 19.3145 16.6428 19.3145C17.5265 19.3145 18.2428 18.5981 18.2428 17.7145C18.2428 16.8308 17.5265 16.1145 16.6428 16.1145Z" fill="black"/>
</svg>
