<svg width="24" height="24" viewBox="0 0 24 24" fill="none" xmlns="http://www.w3.org/2000/svg">
<path fill-rule="evenodd" clip-rule="evenodd" d="M3.39997 6.51106V11.8H4.59997V7.71106L3.39997 6.51106ZM16.307 19.4181C15.0938 20.2879 13.6067 20.8 12 20.8C7.91306 20.8 4.59997 17.4869 4.59997 13.4H3.39997C3.39997 18.1496 7.25032 22 12 22C13.9385 22 15.7272 21.3586 17.1654 20.2765L16.307 19.4181ZM19.1012 18.2525C19.1012 18.2525 19.1011 18.2526 19.1011 18.2526L20.9095 20.061L20.0611 20.9094L3.09064 3.93899L3.93906 3.09057L4.96313 4.11464L4.96329 4.11459L5.92701 5.07831L5.92685 5.07836L18.2353 17.3868C18.2353 17.3867 18.2353 17.3867 18.2354 17.3867L19.1012 18.2525ZM19.9047 16.7932C20.3521 15.7521 20.6 14.605 20.6 13.4H19.4C19.4 14.2651 19.2515 15.0956 18.9787 15.8672L19.9047 16.7932ZM7.66758 4.55614L12 3.25643L19.4 5.47642V11.8H20.6V5.21601C20.6 4.84064 20.3537 4.50972 19.9942 4.40186L12.2442 2.07686C12.0849 2.02907 11.915 2.02907 11.7557 2.07686L6.70386 3.59242L7.66758 4.55614Z" fill="black"/>
</svg>
