<svg width="24" height="24" viewBox="0 0 24 24" fill="none" xmlns="http://www.w3.org/2000/svg">
<path fill-rule="evenodd" clip-rule="evenodd" d="M9.00297 3.11035C8.3134 3.11035 7.65209 3.38428 7.16449 3.87187C6.6769 4.35947 6.40297 5.02079 6.40297 5.71035H7.60297C7.60297 5.33905 7.75047 4.98295 8.01302 4.7204C8.27557 4.45785 8.63166 4.31035 9.00297 4.31035C9.37427 4.31035 9.73037 4.45785 9.99292 4.7204C10.2555 4.98295 10.403 5.33905 10.403 5.71035H11.603C11.603 5.02079 11.329 4.35947 10.8414 3.87187C10.3539 3.38428 9.69253 3.11035 9.00297 3.11035ZM6.60297 10.1104V7.71038H15.5705L16.4338 10.3001L17.5722 9.92066L16.6292 7.09158C16.5135 6.74449 16.1886 6.51038 15.8228 6.51038H6.25297C5.78353 6.51038 5.40297 6.89093 5.40297 7.36038V10.1104H6.60297ZM3.17646 11.008V11.008L3.17176 11.008C2.64265 11.0121 2.24587 11.4935 2.34281 12.0137L3.40626 17.7202L4.58595 17.5004L3.59967 12.208H15.628H20.3036L18.8012 17.4449L19.9547 17.7758L21.6132 11.9947C21.646 11.8804 21.6635 11.7337 21.622 11.5753C21.5786 11.4094 21.4825 11.278 21.3664 11.1868C21.1618 11.0262 20.9237 11.008 20.7962 11.008H15.628H3.17646ZM8.24906 15.9329C7.59265 15.9329 6.96313 16.1937 6.49897 16.6578C6.17904 16.9778 5.95574 17.3763 5.84787 17.808H7.12402C7.1827 17.698 7.25771 17.5962 7.3475 17.5064C7.58661 17.2673 7.91091 17.1329 8.24906 17.1329C8.58721 17.1329 8.91151 17.2673 9.15062 17.5064C9.24041 17.5962 9.31543 17.698 9.3741 17.808H10.6503C10.5424 17.3763 10.3191 16.9778 9.99915 16.6578C9.535 16.1937 8.90547 15.9329 8.24906 15.9329ZM10.8741 19.008C10.9328 19.118 11.0077 19.2197 11.0975 19.3095C11.3366 19.5486 11.6609 19.6829 11.9991 19.6829C12.3372 19.6829 12.6615 19.5486 12.9006 19.3095C12.9904 19.2197 13.0654 19.118 13.124 19.008H14.4002C14.2923 19.4397 14.069 19.8381 13.7491 20.158C13.285 20.6222 12.6555 20.8829 11.9991 20.8829C11.3427 20.8829 10.7131 20.6222 10.249 20.158C9.92907 19.8381 9.70579 19.4397 9.5979 19.008H10.8741ZM6.90022 19.008H5.62403C5.56536 19.118 5.49037 19.2197 5.40062 19.3095C5.16151 19.5486 4.83721 19.6829 4.49906 19.6829C4.16091 19.6829 3.83661 19.5486 3.5975 19.3095C3.50775 19.2197 3.43276 19.118 3.3741 19.008H2.0979C2.20579 19.4397 2.42907 19.8381 2.74897 20.158C3.21313 20.6222 3.84265 20.8829 4.49906 20.8829C5.15547 20.8829 5.785 20.6222 6.24915 20.158C6.56905 19.8381 6.79233 19.4397 6.90022 19.008ZM14.624 17.808H13.3479C13.4557 17.3763 13.679 16.9778 13.999 16.6578C14.4631 16.1937 15.0926 15.9329 15.7491 15.9329C16.4055 15.9329 17.035 16.1937 17.4991 16.6578C17.8191 16.9778 18.0424 17.3763 18.1503 17.808H16.8741C16.8154 17.698 16.7404 17.5962 16.6506 17.5064C16.4115 17.2673 16.0872 17.1329 15.7491 17.1329C15.4109 17.1329 15.0866 17.2673 14.8475 17.5064C14.7577 17.5962 14.6827 17.698 14.624 17.808ZM17.0979 19.008C17.2058 19.4397 17.4291 19.8381 17.749 20.158C18.2131 20.6222 18.8426 20.8829 19.4991 20.8829C20.1555 20.8829 20.785 20.6222 21.2491 20.158C21.569 19.8381 21.7923 19.4397 21.9002 19.008H20.624C20.5654 19.118 20.4904 19.2197 20.4006 19.3095C20.1615 19.5486 19.8372 19.6829 19.4991 19.6829C19.1609 19.6829 18.8366 19.5486 18.5975 19.3095C18.5077 19.2197 18.4328 19.118 18.3741 19.008H17.0979Z" fill="black"/>
</svg>
