<svg width="24" height="24" viewBox="0 0 24 24" fill="none" xmlns="http://www.w3.org/2000/svg">
<path fill-rule="evenodd" clip-rule="evenodd" d="M3.98239 4.2851C3.65934 3.96205 3.2212 3.78057 2.76434 3.78057V2.58057C3.53946 2.58057 4.28283 2.88848 4.83092 3.43657C5.37901 3.98466 5.68692 4.72803 5.68692 5.50315H4.48692C4.48692 5.04629 4.30544 4.60815 3.98239 4.2851ZM4.48692 7.95249C4.48692 7.48305 4.86748 7.10249 5.33692 7.10249H20.4442C20.9971 7.10249 21.4029 7.62217 21.2688 8.15864L19.0712 16.949C18.9766 17.3274 18.6366 17.5928 18.2466 17.5928H5.33692C4.86748 17.5928 4.48692 17.2123 4.48692 16.7428V7.95249ZM5.68692 8.30249V16.3928H17.9733L19.9959 8.30249H5.68692ZM6.26798 19.1932C6.26798 19.7597 6.72725 20.219 7.29379 20.219C7.86032 20.219 8.31959 19.7597 8.31959 19.1932H9.51959C9.51959 20.4224 8.52307 21.419 7.29379 21.419C6.06451 21.419 5.06798 20.4224 5.06798 19.1932H6.26798ZM14.6293 19.1932C14.6293 19.7597 15.0886 20.219 15.6551 20.219C16.2216 20.219 16.6809 19.7597 16.6809 19.1932H17.8809C17.8809 20.4224 16.8844 21.419 15.6551 21.419C14.4258 21.419 13.4293 20.4224 13.4293 19.1932H14.6293Z" fill="black"/>
</svg>
