<svg width="24" height="24" viewBox="0 0 24 24" fill="none" xmlns="http://www.w3.org/2000/svg">
<path fill-rule="evenodd" clip-rule="evenodd" d="M8.5968 3.43474C9.4995 2.53203 10.7238 2.0249 12.0004 2.0249C13.277 2.0249 14.5014 2.53203 15.4041 3.43474C16.3068 4.33744 16.8139 5.56176 16.8139 6.83838V9.15581H15.6139V6.83838C15.6139 5.88002 15.2332 4.96092 14.5555 4.28326C13.8779 3.60561 12.9588 3.2249 12.0004 3.2249C11.0421 3.2249 10.123 3.60561 9.44532 4.28326C8.76767 4.96092 8.38696 5.88002 8.38696 6.83838V9.15581H7.18696V6.83838C7.18696 5.56176 7.69409 4.33744 8.5968 3.43474ZM5.22686 9.7558H5.5899V8.5558H4.87686C4.40741 8.5558 4.02686 8.93636 4.02686 9.4058V21.1249C4.02686 21.5943 4.40741 21.9749 4.87686 21.9749H19.124C19.5935 21.9749 19.974 21.5943 19.974 21.1249V9.4058C19.974 8.93636 19.5935 8.5558 19.124 8.5558H18.4099V9.7558H18.774V20.7749H5.22686V9.7558ZM14.01 9.75582H9.98999V8.55582H14.01V9.75582ZM8.38691 10.7558C8.38691 12.7515 10.0047 14.3693 12.0004 14.3693C13.9961 14.3693 15.6139 12.7515 15.6139 10.7558H16.8139C16.8139 13.4142 14.6588 15.5693 12.0004 15.5693C9.34198 15.5693 7.18691 13.4142 7.18691 10.7558H8.38691Z" fill="black"/>
</svg>
