<svg width="24" height="24" viewBox="0 0 24 24" fill="none" xmlns="http://www.w3.org/2000/svg">
<path fill-rule="evenodd" clip-rule="evenodd" d="M17.7311 4.10096V7.77816L20.2423 5.89471L17.7311 4.10096ZM16.5311 3.42083C16.5311 2.72946 17.3126 2.32731 17.8751 2.72917L21.3288 5.19616C21.7967 5.53033 21.8047 6.22287 21.3448 6.56782L17.8911 9.15816C17.3307 9.57843 16.5311 9.17861 16.5311 8.47817V3.42083ZM2.21832 5.05445C4.0603 5.05445 5.82682 5.78619 7.12929 7.08869C7.74344 7.70286 8.23068 8.4202 8.57416 9.19998C8.91763 8.4202 9.40488 7.70286 10.019 7.08869C11.3215 5.78619 13.088 5.05445 14.93 5.05445V6.25445C13.4063 6.25445 11.945 6.85976 10.8676 7.93721C9.79014 9.01466 9.18485 10.476 9.18485 11.9998C9.18485 13.5235 9.79014 14.9849 10.8676 16.0623C11.945 17.1398 13.4063 17.7451 14.93 17.7451V18.9451C13.088 18.9451 11.3215 18.2133 10.019 16.9108C9.40488 16.2967 8.91763 15.5793 8.57416 14.7995C8.23068 15.5793 7.74343 16.2967 7.12929 16.9108C5.82682 18.2133 4.06029 18.9451 2.21832 18.9451V17.7451C3.74202 17.7451 5.20332 17.1398 6.28075 16.0623C7.35817 14.9849 7.96347 13.5235 7.96347 11.9998C7.96347 10.476 7.35817 9.01466 6.28075 7.93721C5.20332 6.85976 3.74203 6.25445 2.21832 6.25445V5.05445ZM17.7331 16.1872V19.8644L20.2443 17.981L17.7331 16.1872ZM20.6333 18.2589C20.6331 18.2588 20.6329 18.2586 20.6327 18.2585L20.6333 18.2589ZM16.5331 15.5071C16.5331 14.8157 17.3145 14.4136 17.8771 14.8154L21.3308 17.2824C21.7986 17.6166 21.8067 18.3091 21.3468 18.6541L17.8931 21.2444C17.3327 21.6647 16.5331 21.2649 16.5331 20.5644V15.5071Z" fill="black"/>
</svg>
