<svg width="24" height="24" viewBox="0 0 24 24" fill="none" xmlns="http://www.w3.org/2000/svg">
<path fill-rule="evenodd" clip-rule="evenodd" d="M12.7998 3.261V2.05664C17.935 2.46392 21.9753 6.76016 21.9753 12.0001C21.9753 17.24 17.935 21.5362 12.7998 21.9435V20.7391C14.6929 20.5681 16.4125 19.7959 17.7663 18.6149L5.38544 6.23405C4.04014 7.7761 3.22527 9.79292 3.22527 12.0001C3.22527 16.5765 6.72867 20.3347 11.1998 20.739V21.9434C6.06506 21.5357 2.02527 17.2397 2.02527 12.0001C2.02527 6.76046 6.06506 2.46441 11.1998 2.05671V3.26108C9.30696 3.43224 7.58753 4.20451 6.23395 5.3855L18.6148 17.7664C19.9603 16.2243 20.7753 14.2073 20.7753 12.0001C20.7753 7.42329 17.2714 3.6649 12.7998 3.261Z" fill="black"/>
</svg>
