<svg width="24" height="24" viewBox="0 0 24 24" fill="none" xmlns="http://www.w3.org/2000/svg">
<path fill-rule="evenodd" clip-rule="evenodd" d="M7.60002 2.49756L7.64366 13.0972L6.44367 13.1021L6.40003 2.5025L7.60002 2.49756ZM19.4 6.09946C19.4 7.21777 18.6352 8.15743 17.6 8.42385V9.64968C19.3027 9.36405 20.6 7.88326 20.6 6.09946C20.6 4.31565 19.3027 2.83486 17.6 2.54923V3.77506C18.6352 4.04148 19.4 4.98114 19.4 6.09946ZM14.6001 6.09945C14.6001 4.98116 15.3649 4.04151 16.4 3.77507V2.54924C14.6974 2.8349 13.4001 4.31567 13.4001 6.09945C13.4001 7.88324 14.6974 9.36401 16.4 9.64967V8.42384C15.3649 8.1574 14.6001 7.21775 14.6001 6.09945ZM17.0001 2.49945L17.0455 2.49974L16.9546 2.49974L17.0001 2.49945ZM17.6 10.8978L17.6437 21.4974L16.4437 21.5023L16.4 10.9027L17.6 10.8978ZM6.44885 15.5751C5.41372 15.8415 4.64885 16.7811 4.64885 17.8995C4.64885 19.0178 5.41372 19.9575 6.44885 20.2239V21.4497C4.74622 21.1641 3.44885 19.6833 3.44885 17.8995C3.44885 16.1157 4.74622 14.6349 6.44885 14.3492V15.5751ZM7.64885 20.2239C8.68399 19.9575 9.44885 19.0178 9.44885 17.8995C9.44885 16.7812 8.68399 15.8415 7.64885 15.5751V14.3492C9.35148 14.6349 10.6489 16.1157 10.6489 17.8995C10.6489 19.6833 9.35148 21.1641 7.64885 21.4497V20.2239ZM7.09905 14.2998C7.08234 14.2996 7.06561 14.2994 7.04885 14.2994C7.03209 14.2994 7.01536 14.2996 6.99865 14.2998L7.09905 14.2998Z" fill="black"/>
</svg>
