<svg width="24" height="24" viewBox="0 0 24 24" fill="none" xmlns="http://www.w3.org/2000/svg">
<path fill-rule="evenodd" clip-rule="evenodd" d="M5.59963 5.5999C4.55465 5.5999 3.66565 6.26775 3.33619 7.1999L2.08884 7.1999C2.45261 5.59671 3.88636 4.3999 5.59963 4.3999C7.31291 4.3999 8.74666 5.59671 9.11043 7.1999L7.86308 7.1999C7.53361 6.26775 6.64462 5.5999 5.59963 5.5999ZM2.08885 8.7999H3.33621C3.66569 9.73202 4.55467 10.3998 5.59963 10.3998C6.6446 10.3998 7.53358 9.73202 7.86306 8.7999H9.11042C8.74662 10.4031 7.31289 11.5998 5.59963 11.5998C3.88638 11.5998 2.45264 10.4031 2.08885 8.7999ZM2.00002 7.94629L2.00002 8.05345C1.99976 8.03563 1.99963 8.01777 1.99963 7.99987C1.99963 7.98198 1.99976 7.96412 2.00002 7.94629ZM10.7975 7.39991L20.9975 7.35627L21.0026 8.55626L10.8026 8.5999L10.7975 7.39991ZM16.136 16.7513H14.8886C15.2524 18.3546 16.6861 19.5514 18.3995 19.5514C20.1128 19.5514 21.5466 18.3546 21.9103 16.7513H20.663C20.3335 17.6835 19.4445 18.3514 18.3995 18.3514C17.3544 18.3514 16.4654 17.6835 16.136 16.7513ZM20.6629 15.1513H21.9103C21.5464 13.5482 20.1127 12.3514 18.3995 12.3514C16.6862 12.3514 15.2525 13.5482 14.8887 15.1513H16.136C16.4656 14.2192 17.3545 13.5514 18.3995 13.5514C19.4444 13.5514 20.3334 14.2192 20.6629 15.1513ZM14.7998 16.005V15.8978C14.7996 15.9157 14.7994 15.9335 14.7994 15.9514C14.7994 15.9693 14.7996 15.9872 14.7998 16.005ZM2.99746 15.3999L13.1975 15.3563L13.2026 16.5563L3.00259 16.5999L2.99746 15.3999Z" fill="black"/>
</svg>
