<svg width="24" height="24" viewBox="0 0 24 24" fill="none" xmlns="http://www.w3.org/2000/svg">
<path fill-rule="evenodd" clip-rule="evenodd" d="M5.54065 2.8749C5.54065 2.40546 5.92121 2.0249 6.39065 2.0249H17.6094C18.0788 2.0249 18.4594 2.40546 18.4594 2.8749V4.2199H17.2594V3.2249H6.74065V4.2199H5.54065V2.8749ZM14 5.61992H10V4.41992H14V5.61992ZM6.74065 20.7749V5.8199H5.54065V21.1249C5.54065 21.5943 5.92121 21.9749 6.39065 21.9749H17.6094C18.0788 21.9749 18.4594 21.5943 18.4594 21.1249V5.8199H17.2594V20.7749H6.74065ZM12 17.2249C11.572 17.2249 11.225 17.5719 11.225 17.9999C11.225 18.4279 11.572 18.7749 12 18.7749C12.428 18.7749 12.775 18.4279 12.775 17.9999C12.775 17.5719 12.428 17.2249 12 17.2249ZM10.025 17.9999C10.025 16.9091 10.9093 16.0249 12 16.0249C13.0908 16.0249 13.975 16.9091 13.975 17.9999C13.975 19.0907 13.0908 19.9749 12 19.9749C10.9093 19.9749 10.025 19.0907 10.025 17.9999Z" fill="black"/>
</svg>
