<svg width="24" height="24" viewBox="0 0 24 24" fill="none" xmlns="http://www.w3.org/2000/svg">
<path fill-rule="evenodd" clip-rule="evenodd" d="M6.25002 3.3999C5.78058 3.3999 5.40002 3.78046 5.40002 4.2499V19.7499C5.40002 20.2193 5.78058 20.5999 6.25002 20.5999H17.75C18.2195 20.5999 18.6 20.2193 18.6 19.7499V4.2499C18.6 3.78046 18.2195 3.3999 17.75 3.3999H6.25002ZM6.60002 19.3999V4.5999H17.4V19.3999H6.60002ZM11.6 7.4999C11.6 7.27899 11.7791 7.0999 12 7.0999C12.2209 7.0999 12.4 7.27899 12.4 7.4999C12.4 7.72082 12.2209 7.8999 12 7.8999C11.7791 7.8999 11.6 7.72082 11.6 7.4999ZM12 5.8999C11.1164 5.8999 10.4 6.61625 10.4 7.4999C10.4 8.38356 11.1164 9.0999 12 9.0999C12.8837 9.0999 13.6 8.38356 13.6 7.4999C13.6 6.61625 12.8837 5.8999 12 5.8999ZM12.5999 16.8243C13.6351 16.5579 14.4 15.6182 14.4 14.4999C14.4 13.3816 13.6351 12.4419 12.5999 12.1755V10.9497C14.3026 11.2353 15.6 12.7161 15.6 14.4999C15.6 16.2837 14.3026 17.7645 12.5999 18.0501V16.8243ZM11.3999 12.1755C10.3648 12.442 9.60002 13.3816 9.60002 14.4999C9.60002 15.6182 10.3648 16.5578 11.3999 16.8243V18.0501C9.69735 17.7644 8.40002 16.2837 8.40002 14.4999C8.40002 12.7161 9.69735 11.2354 11.3999 10.9497V12.1755Z" fill="black"/>
</svg>
