<svg width="24" height="24" viewBox="0 0 24 24" fill="none" xmlns="http://www.w3.org/2000/svg">
<path fill-rule="evenodd" clip-rule="evenodd" d="M10.5472 3.23572C11.055 1.89872 12.946 1.89775 13.4551 3.23422L15.2912 8.05413L20.2906 8.41432C21.6928 8.51535 22.2523 10.2772 21.1651 11.1687L17.0297 14.5599L19.1824 19.5592C19.7852 20.959 18.2241 22.3007 16.9308 21.4945L12.0121 18.4283L7.48269 21.4689C6.23386 22.3072 4.64065 21.0613 5.15326 19.6472L6.9912 14.577L2.84308 11.1755C1.75415 10.2825 2.3175 8.51766 3.7224 8.42076L8.70879 8.07683L10.5472 3.23572ZM11.8138 18.3047L11.8144 18.305L11.8138 18.3047ZM15.3729 8.26863L15.3731 8.26922L15.0357 8.39777L15.3731 8.26922C15.3731 8.26902 15.373 8.26882 15.3729 8.26863ZM12.3337 3.66141C12.2174 3.35592 11.7851 3.35615 11.6691 3.66175L9.74854 8.71899C9.6323 9.02506 9.34864 9.23554 9.02202 9.25807L3.80498 9.61792C3.48386 9.64007 3.35509 10.0435 3.60399 10.2476L7.94971 13.8111C8.2248 14.0367 8.32769 14.4113 8.20645 14.7457L6.28142 20.0561C6.16425 20.3794 6.52841 20.6642 6.81386 20.4725L11.5373 17.3017C11.5373 17.3017 11.5373 17.3017 11.5373 17.3017C11.8116 17.1176 12.1683 17.1116 12.4487 17.2863L17.5656 20.4761C17.8612 20.6604 18.218 20.3537 18.0803 20.0338L15.82 14.7848C15.6721 14.4413 15.7694 14.0414 16.0586 13.8043L16.439 14.2683L16.0586 13.8043L20.4042 10.2408C20.6527 10.037 20.5248 9.63431 20.2043 9.61121L14.9754 9.23449C14.6501 9.21105 14.3679 9.00118 14.2518 8.6964L12.3337 3.66141Z" fill="black"/>
</svg>
