<svg width="24" height="24" viewBox="0 0 24 24" fill="none" xmlns="http://www.w3.org/2000/svg">
<path fill-rule="evenodd" clip-rule="evenodd" d="M14.7514 19.4001L19.4 14.7516V4.6001H4.59998V19.4001H14.7514ZM15.4975 20.3511C15.3381 20.5105 15.1219 20.6001 14.8964 20.6001H4.24998C3.78053 20.6001 3.39997 20.2195 3.39997 19.7501V4.2501C3.39997 3.78065 3.78053 3.4001 4.24998 3.4001H19.75C20.2194 3.4001 20.6 3.78065 20.6 4.2501V14.8965C20.6 15.122 20.5104 15.3382 20.351 15.4976L15.4975 20.3511ZM13.4 17.7892V14.2501C13.4 13.7807 13.7805 13.4001 14.25 13.4001H17.8V14.6001H14.6V17.7892H13.4Z" fill="black"/>
</svg>
