<svg width="24" height="24" viewBox="0 0 24 24" fill="none" xmlns="http://www.w3.org/2000/svg">
<path fill-rule="evenodd" clip-rule="evenodd" d="M12.8001 3.261V2.05664C17.9351 2.46403 21.9753 6.76023 21.9753 12C21.9753 17.2399 17.9351 21.536 12.8001 21.9434V20.7391C17.2715 20.3351 20.7753 16.5767 20.7753 12C20.7753 7.42336 17.2715 3.66501 12.8001 3.261ZM11.2001 20.739C6.72879 20.3349 3.22527 16.5766 3.22527 12C3.22527 7.42349 6.72879 3.66523 11.2001 3.26104V2.05667C6.06519 2.46425 2.02527 6.76036 2.02527 12C2.02527 17.2397 6.06519 21.5358 11.2001 21.9434V20.739ZM8.02497 8.87503C8.02497 8.40559 8.40553 8.02503 8.87497 8.02503H15.125C15.5944 8.02503 15.975 8.40559 15.975 8.87503V15.125C15.975 15.5945 15.5944 15.975 15.125 15.975H8.87497C8.40553 15.975 8.02497 15.5945 8.02497 15.125V8.87503ZM9.22497 9.22503V14.775H14.775V9.22503H9.22497Z" fill="black"/>
</svg>
