<svg width="24" height="24" viewBox="0 0 24 24" fill="none" xmlns="http://www.w3.org/2000/svg">
<path fill-rule="evenodd" clip-rule="evenodd" d="M12.5999 4.4V2H11.3999V4.4H12.5999ZM7.04993 6.20175L5.35287 4.50469L4.50434 5.35322L6.2014 7.05028L7.04993 6.20175ZM19.4949 5.35325L18.6464 4.50472L16.9493 6.20178L17.7978 7.0503L19.4949 5.35325ZM12.8005 15.9453C14.6399 15.5741 16.0249 13.9488 16.0249 12C16.0249 10.0512 14.6399 8.42585 12.8005 8.05461V6.83593C15.3062 7.22124 17.2249 9.38653 17.2249 12C17.2249 14.6134 15.3062 16.7787 12.8005 17.164V15.9453ZM11.2005 8.05435C9.36052 8.4251 7.9749 10.0507 7.9749 12C7.9749 13.9492 9.36052 15.5749 11.2005 15.9456V17.1642C8.69429 16.7795 6.7749 14.6139 6.7749 12C6.7749 9.38609 8.69429 7.2205 11.2005 6.83574V8.05435ZM2 12.5999L4.4 12.5999L4.4 11.3999L2 11.3999V12.5999ZM19.5998 12.5999H21.9998V11.3999H19.5998V12.5999ZM19.4952 18.6466L17.7982 16.9495L16.9497 17.798L18.6467 19.4951L19.4952 18.6466ZM5.35304 19.4951L7.05009 17.7981L6.20156 16.9495L4.50451 18.6466L5.35304 19.4951ZM12.6001 21.9998V19.5998H11.4001V21.9998H12.6001Z" fill="black"/>
</svg>
