<svg width="24" height="24" viewBox="0 0 24 24" fill="none" xmlns="http://www.w3.org/2000/svg">
<path fill-rule="evenodd" clip-rule="evenodd" d="M5.56877 3.2249V20.7749H18.4313V3.2249H5.56877ZM4.36877 2.8749C4.36877 2.40546 4.74933 2.0249 5.21877 2.0249H18.7813C19.2507 2.0249 19.6313 2.40546 19.6313 2.8749V21.1249C19.6313 21.5943 19.2507 21.9749 18.7813 21.9749H5.21877C4.74933 21.9749 4.36877 21.5943 4.36877 21.1249V2.8749ZM12 17.2249C11.572 17.2249 11.225 17.5719 11.225 17.9999C11.225 18.4279 11.572 18.7749 12 18.7749C12.428 18.7749 12.775 18.4279 12.775 17.9999C12.775 17.5719 12.428 17.2249 12 17.2249ZM10.025 17.9999C10.025 16.9091 10.9093 16.0249 12 16.0249C13.0908 16.0249 13.975 16.9091 13.975 17.9999C13.975 19.0907 13.0908 19.9749 12 19.9749C10.9093 19.9749 10.025 19.0907 10.025 17.9999Z" fill="black"/>
</svg>
