<svg width="24" height="24" viewBox="0 0 24 24" fill="none" xmlns="http://www.w3.org/2000/svg">
<path fill-rule="evenodd" clip-rule="evenodd" d="M3.84991 4.56376C3.86191 4.10627 4.23397 3.7404 4.69159 3.73608L11.2327 3.67435C11.4609 3.6722 11.6804 3.7619 11.8418 3.92328L20.0761 12.1576C20.408 12.4895 20.408 13.0277 20.0761 13.3597L13.3586 20.0772C13.0266 20.4091 12.4884 20.4091 12.1565 20.0772L3.92395 11.8446C3.75907 11.6797 3.66917 11.4544 3.67528 11.2213L3.84991 4.56376ZM5.04064 4.93284L4.87881 11.1024L12.7575 18.9812L18.9801 12.7586L11.0971 4.87569L5.04064 4.93284Z" fill="black"/>
<path fill-rule="evenodd" clip-rule="evenodd" d="M7.5872 7.58816C7.43099 7.74437 7.43099 7.99763 7.5872 8.15384C7.74341 8.31005 7.99668 8.31005 8.15289 8.15384C8.3091 7.99763 8.3091 7.74437 8.15289 7.58816C7.99668 7.43195 7.74341 7.43195 7.5872 7.58816ZM6.73868 9.00237C6.11384 8.37753 6.11384 7.36447 6.73868 6.73963C7.36351 6.11479 8.37658 6.11479 9.00142 6.73963C9.62626 7.36447 9.62626 8.37753 9.00142 9.00237C8.37658 9.62721 7.36351 9.62721 6.73868 9.00237Z" fill="black"/>
</svg>
