<svg width="24" height="24" viewBox="0 0 24 24" fill="none" xmlns="http://www.w3.org/2000/svg">
<path fill-rule="evenodd" clip-rule="evenodd" d="M2.02502 12C2.02502 6.76023 6.06515 2.46403 11.2002 2.05664V3.261C6.72875 3.66501 3.22502 7.42336 3.22502 12C3.22502 16.5767 6.72875 20.3351 11.2002 20.7391V21.9434C6.06515 21.536 2.02502 17.2399 2.02502 12ZM12.8002 21.9434C17.9351 21.5358 21.975 17.2397 21.975 12C21.975 6.76036 17.9351 2.46425 12.8002 2.05667V3.26104C17.2715 3.66523 20.775 7.42349 20.775 12C20.775 16.5766 17.2715 20.3349 12.8002 20.739V21.9434ZM12.0001 6.72505C9.08682 6.72505 6.72512 9.08674 6.72512 12C6.72512 14.9133 9.08682 17.275 12.0001 17.275C14.9134 17.275 17.2751 14.9133 17.2751 12C17.2751 9.08674 14.9134 6.72505 12.0001 6.72505ZM5.52512 12C5.52512 8.424 8.42408 5.52505 12.0001 5.52505C15.5762 5.52505 18.4751 8.424 18.4751 12C18.4751 15.5761 15.5762 18.475 12.0001 18.475C8.42408 18.475 5.52512 15.5761 5.52512 12ZM12.0001 10.225C11.0198 10.225 10.2251 11.0197 10.2251 12C10.2251 12.9804 11.0198 13.775 12.0001 13.775C12.9804 13.775 13.7751 12.9804 13.7751 12C13.7751 11.0197 12.9804 10.225 12.0001 10.225ZM9.02512 12C9.02512 10.357 10.3571 9.02505 12.0001 9.02505C13.6432 9.02505 14.9751 10.357 14.9751 12C14.9751 13.6431 13.6432 14.975 12.0001 14.975C10.3571 14.975 9.02512 13.6431 9.02512 12Z" fill="black"/>
</svg>
