<svg width="24" height="24" viewBox="0 0 24 24" fill="none" xmlns="http://www.w3.org/2000/svg">
<path fill-rule="evenodd" clip-rule="evenodd" d="M9.8787 3.70387C10.4413 3.14127 11.2044 2.8252 12 2.8252C12.7957 2.8252 13.5587 3.14127 14.1213 3.70388C14.684 4.26648 15 5.02955 15 5.8252H13.8C13.8 5.34781 13.6104 4.88997 13.2728 4.5524C12.9353 4.21484 12.4774 4.0252 12 4.0252C11.5226 4.0252 11.0648 4.21484 10.7272 4.5524C10.3897 4.88997 10.2 5.34781 10.2 5.82519H9.00002C9.00002 5.02955 9.3161 4.26648 9.8787 3.70387ZM6.44317 6.4252H7.80081V5.2252H6.18467C5.81151 5.2252 5.482 5.46857 5.37226 5.82522L3.43761 12.1128L4.01108 12.2893L3.43761 12.1128C3.41269 12.1938 3.40002 12.2781 3.40002 12.3628V16.7302H4.60002V12.4154L6.44317 6.4252ZM17.5569 6.4252H16.2031V5.2252H17.8154C18.1885 5.2252 18.5181 5.46857 18.6278 5.82522L20.5624 12.1128C20.5874 12.1938 20.6 12.2781 20.6 12.3628V16.7302H19.4V12.4154L17.5569 6.4252ZM18.199 12.9252H5.79983V11.7252H18.199V12.9252ZM7.50002 14.9252C7.27911 14.9252 7.10002 15.1043 7.10002 15.3252C7.10002 15.5461 7.27911 15.7252 7.50002 15.7252C7.72094 15.7252 7.90002 15.5461 7.90002 15.3252C7.90002 15.1043 7.72094 14.9252 7.50002 14.9252ZM5.90002 15.3252C5.90002 14.4415 6.61637 13.7252 7.50002 13.7252C8.38368 13.7252 9.10002 14.4415 9.10002 15.3252C9.10002 16.2089 8.38368 16.9252 7.50002 16.9252C6.61637 16.9252 5.90002 16.2089 5.90002 15.3252ZM16.5 14.9252C16.2791 14.9252 16.1 15.1043 16.1 15.3252C16.1 15.5461 16.2791 15.7252 16.5 15.7252C16.7209 15.7252 16.9 15.5461 16.9 15.3252C16.9 15.1043 16.7209 14.9252 16.5 14.9252ZM14.9 15.3252C14.9 14.4415 15.6164 13.7252 16.5 13.7252C17.3837 13.7252 18.1 14.4415 18.1 15.3252C18.1 16.2089 17.3837 16.9252 16.5 16.9252C15.6164 16.9252 14.9 16.2089 14.9 15.3252ZM7.00002 18.9252V20.3252C7.00002 20.7946 6.61947 21.1752 6.15002 21.1752H4.25002C3.78058 21.1752 3.40002 20.7946 3.40002 20.3252V18.3252H4.60002V19.9752H5.80002V18.5752C5.80002 18.1058 6.18058 17.7252 6.65002 17.7252H17.3496C17.8191 17.7252 18.1996 18.1058 18.1996 18.5752V19.9752H19.3996V18.3252H20.5996V20.3252C20.5996 20.7946 20.2191 21.1752 19.7496 21.1752H17.8496C17.3802 21.1752 16.9996 20.7946 16.9996 20.3252V18.9252H7.00002Z" fill="black"/>
</svg>
