<svg width="24" height="24" viewBox="0 0 24 24" fill="none" xmlns="http://www.w3.org/2000/svg">
<path fill-rule="evenodd" clip-rule="evenodd" d="M13.7971 6.0999C13.43 6.0999 13.1041 6.3348 12.988 6.68306L11.3242 11.6747C11.2395 11.9286 11.0019 12.0999 10.7342 12.0999H9.44988V17.8999H18.7164L19.5752 10.5999H15.2612C14.9236 10.5999 14.65 10.3263 14.65 9.98868V6.95275C14.65 6.48173 14.2681 6.0999 13.7971 6.0999ZM11.8496 6.30358C12.129 5.46532 12.9135 4.8999 13.7971 4.8999C14.9309 4.8999 15.85 5.81899 15.85 6.95275V9.3999H19.9688C20.4776 9.3999 20.8725 9.8439 20.813 10.3492L19.8718 18.3492C19.8215 18.7773 19.4587 19.0999 19.0277 19.0999H8.24988V10.8999H10.3175L11.8496 6.30358ZM7.25002 12.0999C6.4809 12.0999 5.74327 12.4054 5.19941 12.9493C4.65556 13.4931 4.35002 14.2308 4.35002 14.9999C4.35002 15.769 4.65556 16.5067 5.19941 17.0505C5.74327 17.5944 6.4809 17.8999 7.25002 17.8999V19.0999C6.16264 19.0999 5.11979 18.6679 4.35089 17.899C3.58199 17.1301 3.15002 16.0873 3.15002 14.9999C3.15002 13.9125 3.58199 12.8697 4.35089 12.1008C5.11979 11.3319 6.16264 10.8999 7.25002 10.8999V12.0999Z" fill="black"/>
</svg>
