<svg width="24" height="24" viewBox="0 0 24 24" fill="none" xmlns="http://www.w3.org/2000/svg">
<path fill-rule="evenodd" clip-rule="evenodd" d="M5.26811 6.0999L4.40929 13.3999H8.72334C9.06089 13.3999 9.33456 13.6735 9.33456 14.0111V17.0471C9.33456 17.5181 9.7164 17.8999 10.1874 17.8999C10.5545 17.8999 10.8804 17.665 10.9965 17.3167L12.6604 12.3251C12.745 12.0712 12.9826 11.8999 13.2503 11.8999H14.5347V6.0999H5.26811ZM4.1127 5.65058C4.16306 5.22252 4.52585 4.8999 4.95688 4.8999H15.7347V13.0999H13.667L12.1349 17.6962C11.8555 18.5345 11.071 19.0999 10.1874 19.0999C9.05365 19.0999 8.13456 18.1808 8.13456 17.0471V14.5999H4.0157C3.5069 14.5999 3.11207 14.1559 3.17152 13.6506L4.1127 5.65058ZM13.7988 12.7046C13.7987 12.7047 13.7988 12.7045 13.7988 12.7046V12.7046ZM18.7851 6.94929C18.2413 6.40544 17.5036 6.0999 16.7345 6.0999V4.8999C17.8219 4.8999 18.8648 5.33187 19.6337 6.10077C20.4026 6.86966 20.8345 7.91252 20.8345 8.9999C20.8345 10.0873 20.4026 11.1301 19.6337 11.899C18.8648 12.6679 17.8219 13.0999 16.7345 13.0999V11.8999C17.5036 11.8999 18.2413 11.5944 18.7851 11.0505C19.329 10.5067 19.6345 9.76903 19.6345 8.9999C19.6345 8.23078 19.329 7.49315 18.7851 6.94929Z" fill="black"/>
</svg>
