<svg width="24" height="24" viewBox="0 0 24 24" fill="none" xmlns="http://www.w3.org/2000/svg">
<path fill-rule="evenodd" clip-rule="evenodd" d="M17.3728 3.88366C15.1462 2.79584 12.3821 3.17611 10.5304 5.02781C8.79919 6.75898 8.35423 9.28771 9.19231 11.4287L4.92608 15.695L5.77461 16.5435L10.2042 12.1139C10.4619 11.8562 10.5178 11.4759 10.381 11.1633C9.61636 9.41579 9.95015 7.30507 11.3789 5.87634C12.7273 4.52793 14.6832 4.1549 16.3676 4.75981L13.0698 8.05758C12.7379 8.38953 12.7379 8.92772 13.0698 9.25966L14.7415 10.9313C15.0734 11.2633 15.6116 11.2633 15.9436 10.9313L19.2414 7.63352C19.8463 9.31792 19.4733 11.2739 18.1249 12.6223C16.6961 14.0511 14.5853 14.3849 12.8377 13.6201C12.5251 13.4833 12.1448 13.5392 11.8871 13.797L7.45758 18.2265L8.30611 19.075L12.5723 14.8088C14.7133 15.647 17.2422 15.2021 18.9734 13.4708C20.8251 11.6191 21.2054 8.85494 20.1175 6.62828C19.8521 6.08502 19.157 6.02086 18.7688 6.40906L15.3425 9.83529L14.1659 8.65862L17.5921 5.23241C17.9803 4.8442 17.9161 4.14907 17.3728 3.88366ZM7.17474 20.2064L6.32621 19.3578L6.311 19.373C5.84626 19.8378 5.09276 19.8378 4.62802 19.373C4.16328 18.9083 4.16328 18.1548 4.62802 17.6901L4.64324 17.6749L3.79471 16.8263L3.7795 16.8415C2.84613 17.7749 2.84612 19.2882 3.77949 20.2216C4.71286 21.1549 6.22616 21.1549 7.15952 20.2216L7.17474 20.2064Z" fill="black"/>
</svg>
