<svg width="24" height="24" viewBox="0 0 24 24" fill="none" xmlns="http://www.w3.org/2000/svg">
<path fill-rule="evenodd" clip-rule="evenodd" d="M6.50002 3V3.00547C5.83883 3.04736 5.21309 3.32858 4.74184 3.79983C4.22972 4.31195 3.94202 5.00653 3.94202 5.73078H5.14202C5.14202 5.32479 5.30329 4.93543 5.59037 4.64835C5.87745 4.36128 6.26681 4.2 6.67279 4.2H17.3273C17.7332 4.2 18.1226 4.36128 18.4097 4.64835C18.6968 4.93543 18.858 5.32479 18.858 5.73078H20.058C20.058 5.00653 19.7703 4.31195 19.2582 3.79983C18.7461 3.28771 18.0515 3 17.3273 3H6.50002ZM11.3994 10.2554H6.74031V11.4554H17.2603V10.2554H12.5994V5.77654H11.3994V10.2554ZM5.14231 17.3338V7.30654H3.94231V17.6838C3.94231 18.1532 4.32286 18.5338 4.79231 18.5338H19.2077C19.6772 18.5338 20.0577 18.1532 20.0577 17.6838V7.30654H18.8577V17.3338H5.14231ZM8.16112 14.2558C7.90409 14.2558 7.69573 14.4641 7.69573 14.7212C7.69573 14.9782 7.90409 15.1865 8.16112 15.1865C8.41814 15.1865 8.6265 14.9782 8.6265 14.7212C8.6265 14.4641 8.41814 14.2558 8.16112 14.2558ZM6.49573 14.7212C6.49573 13.8014 7.24135 13.0558 8.16112 13.0558C9.08088 13.0558 9.8265 13.8014 9.8265 14.7212C9.8265 15.6409 9.08088 16.3865 8.16112 16.3865C7.24135 16.3865 6.49573 15.6409 6.49573 14.7212ZM15.9424 14.2558C15.6853 14.2558 15.477 14.4641 15.477 14.7212C15.477 14.9782 15.6853 15.1865 15.9424 15.1865C16.1994 15.1865 16.4078 14.9782 16.4078 14.7212C16.4078 14.4641 16.1994 14.2558 15.9424 14.2558ZM14.277 14.7212C14.277 13.8014 15.0226 13.0558 15.9424 13.0558C16.8621 13.0558 17.6078 13.8014 17.6078 14.7212C17.6078 15.6409 16.8621 16.3865 15.9424 16.3865C15.0226 16.3865 14.277 15.6409 14.277 14.7212ZM6.46002 19.7572H17.54V20.9572H6.46002V19.7572Z" fill="black"/>
</svg>
