<svg width="24" height="24" viewBox="0 0 24 24" fill="none" xmlns="http://www.w3.org/2000/svg">
<path fill-rule="evenodd" clip-rule="evenodd" d="M9.45442 3.08444C10.1295 2.40931 11.0452 2.03003 12 2.03003C12.9548 2.03003 13.8705 2.40931 14.5456 3.08444C15.2207 3.75958 15.6 4.67525 15.6 5.63003H14.4C14.4 4.99351 14.1471 4.38306 13.6971 3.93297C13.247 3.48289 12.6365 3.23003 12 3.23003C11.3635 3.23003 10.753 3.48289 10.3029 3.93297C9.85286 4.38306 9.6 4.99351 9.6 5.63003H8.4C8.4 4.67525 8.77928 3.75958 9.45442 3.08444ZM21 7.23004V8.43004H3V7.23004H21ZM17.3998 20.8L17.3963 10.0302L18.5963 10.0298L18.5999 21.1497C18.6001 21.6193 18.2195 22 17.7499 22H6.25C5.78056 22 5.4 21.6194 5.4 21.15L5.40018 10.03L6.60018 10.03L6.60001 20.8H17.3998ZM9.4002 17.5L9.4 11.5L10.6 11.5L10.6002 17.5L9.4002 17.5ZM13.3998 17.5L13.4 11.5L14.6 11.5L14.5998 17.5L13.3998 17.5Z" fill="black"/>
</svg>
