<svg width="24" height="24" viewBox="0 0 24 24" fill="none" xmlns="http://www.w3.org/2000/svg">
<path fill-rule="evenodd" clip-rule="evenodd" d="M2.14978 5.5502C2.14978 5.08075 2.53034 4.7002 2.99978 4.7002H14.2998C14.7692 4.7002 15.1498 5.08075 15.1498 5.5502V15.0502C15.1498 15.5196 14.7692 15.9002 14.2998 15.9002H2.99978C2.53034 15.9002 2.14978 15.5196 2.14978 15.0502V5.5502ZM3.34978 5.9002V14.7002H13.9498V5.9002H3.34978ZM17.4006 8.9002H15.95V7.7002H19.5769C19.9312 7.7002 20.2484 7.91998 20.3728 8.25174L21.8502 12.1914V15.0502C21.8502 15.5196 21.4696 15.9002 21.0002 15.9002H15.95V14.7002H20.6502V12.9002H18.2506C17.7811 12.9002 17.4006 12.5196 17.4006 12.0502V8.9002ZM18.6006 8.9002V11.7002H20.3844L19.3344 8.9002H18.6006ZM4.84978 16.6996C4.84978 17.4728 5.47658 18.0996 6.24978 18.0996C7.02298 18.0996 7.64978 17.4728 7.64978 16.6996H8.84978C8.84978 18.1355 7.68572 19.2996 6.24978 19.2996C4.81384 19.2996 3.64978 18.1355 3.64978 16.6996H4.84978ZM14.8498 16.6996C14.8498 17.4728 15.4766 18.0996 16.2498 18.0996C17.023 18.0996 17.6498 17.4728 17.6498 16.6996H18.8498C18.8498 18.1355 17.6857 19.2996 16.2498 19.2996C14.8138 19.2996 13.6498 18.1355 13.6498 16.6996H14.8498Z" fill="black"/>
</svg>
