<svg width="24" height="24" viewBox="0 0 24 24" fill="none" xmlns="http://www.w3.org/2000/svg">
<path fill-rule="evenodd" clip-rule="evenodd" d="M5.21179 5.41187C7.01214 3.61152 9.45394 2.6001 12 2.6001C14.5461 2.6001 16.9879 3.61152 18.7882 5.41187C20.5256 7.14928 21.5283 9.48405 21.5963 11.9334C21.6098 12.4201 21.215 12.8001 20.75 12.8001H12.6L12.6 16.2001H11.4L11.4 12.8001H3.25002C2.78499 12.8001 2.39021 12.4201 2.40372 11.9334C2.47171 9.48405 3.47439 7.14928 5.21179 5.41187ZM12 3.8001C9.7722 3.8001 7.63563 4.6851 6.06032 6.2604C4.62704 7.69368 3.76521 9.59159 3.62146 11.6001L20.3786 11.6001C20.2348 9.59159 19.373 7.69368 17.9397 6.2604C16.3644 4.68509 14.2278 3.8001 12 3.8001ZM12.4544 20.3457C11.7793 19.6705 11.4 18.7549 11.4 17.8001H12.6C12.6 18.4366 12.8529 19.047 13.303 19.4971C13.753 19.9472 14.3635 20.2001 15 20.2001C15.6365 20.2001 16.247 19.9472 16.6971 19.4971C17.1472 19.047 17.4 18.4366 17.4 17.8001H18.6C18.6 18.7549 18.2207 19.6705 17.5456 20.3457C16.8705 21.0208 15.9548 21.4001 15 21.4001C14.0452 21.4001 13.1296 21.0208 12.4544 20.3457Z" fill="black"/>
</svg>
