<svg width="24" height="24" viewBox="0 0 24 24" fill="none" xmlns="http://www.w3.org/2000/svg">
<path fill-rule="evenodd" clip-rule="evenodd" d="M5.73125 9.60998L5.73125 3.72998H6.93125L6.93125 9.60998H5.73125ZM17.0689 9.60998V3.72998H18.2689V9.60998H17.0689ZM6.93125 11.213C6.93125 12.5574 7.46531 13.8468 8.41594 14.7974C9.36657 15.748 10.6559 16.2821 12.0003 16.2821C13.3447 16.2821 14.634 15.748 15.5847 14.7974C16.5353 13.8468 17.0694 12.5574 17.0694 11.213H18.2694C18.2694 12.8757 17.6089 14.4703 16.4332 15.6459C15.2575 16.8216 13.663 17.4821 12.0003 17.4821C10.3376 17.4821 8.74309 16.8216 7.56741 15.6459C6.39174 14.4703 5.73125 12.8757 5.73125 11.213H6.93125ZM19.174 20.28H4.82617V19.08H19.174V20.28Z" fill="black"/>
</svg>
