<svg width="24" height="24" viewBox="0 0 24 24" fill="none" xmlns="http://www.w3.org/2000/svg">
<path fill-rule="evenodd" clip-rule="evenodd" d="M7.00108 7.90424C7.00108 5.14039 9.24173 2.8999 12.0056 2.8999C14.7696 2.8999 17.0102 5.14039 17.0102 7.90424H15.8102C15.8102 5.80319 14.1069 4.0999 12.0056 4.0999C9.90441 4.0999 8.20108 5.80319 8.20108 7.90424H7.00108ZM2.40002 13.5667C2.40002 11.0634 4.42939 9.03422 6.93267 9.03422V10.2342C5.09207 10.2342 3.60002 11.7262 3.60002 13.5667C3.60002 15.134 4.68271 16.45 6.14183 16.8049L5.85827 17.9709C3.87386 17.4883 2.40002 15.7003 2.40002 13.5667ZM20.3327 13.5675C20.3327 11.727 18.8406 10.235 17 10.235V9.03501C19.5033 9.03501 21.5327 11.0642 21.5327 13.5675C21.5327 15.6732 20.0971 17.4422 18.1522 17.952L17.8479 16.7912C19.2782 16.4163 20.3327 15.1142 20.3327 13.5675ZM11.5317 12.1589C11.812 11.8786 12.2665 11.8786 12.5468 12.1589L16.22 15.832L15.3715 16.6806L12.6373 13.9464L12.6378 20.5L11.4378 20.5001L11.4373 13.9504L8.70749 16.6801L7.85897 15.8315L11.5317 12.1589Z" fill="black"/>
</svg>
