<svg width="24" height="24" viewBox="0 0 24 24" fill="none" xmlns="http://www.w3.org/2000/svg">
<path fill-rule="evenodd" clip-rule="evenodd" d="M12.8001 3.26101V2.05665C17.935 2.46416 21.975 6.7603 21.975 12C21.975 17.2398 17.935 21.5359 12.8001 21.9434V20.739C17.2714 20.3349 20.775 16.5766 20.775 12C20.775 7.42343 17.2714 3.66514 12.8001 3.26101ZM11.2001 20.7391C6.72868 20.335 3.22502 16.5767 3.22502 12C3.22502 7.4234 6.72868 3.66508 11.2001 3.261V2.05664C6.06507 2.46411 2.02502 6.76027 2.02502 12C2.02502 17.2398 6.06507 21.536 11.2001 21.9434V20.7391ZM12 6.72503C10.6745 6.72503 9.60002 7.79955 9.60002 9.12503C9.60002 10.4505 10.6745 11.525 12 11.525C13.3255 11.525 14.4 10.4505 14.4 9.12503C14.4 7.79955 13.3255 6.72503 12 6.72503ZM8.40002 9.12503C8.40002 7.13681 10.0118 5.52503 12 5.52503C13.9882 5.52503 15.6 7.13681 15.6 9.12503C15.6 11.1133 13.9882 12.725 12 12.725C10.0118 12.725 8.40002 11.1133 8.40002 9.12503ZM12 15.1C10.1223 15.1 8.60002 16.6223 8.60002 18.5H7.40002C7.40002 15.9595 9.45951 13.9 12 13.9C14.5405 13.9 16.6 15.9595 16.6 18.5H15.4C15.4 16.6223 13.8778 15.1 12 15.1Z" fill="black"/>
</svg>
