<svg width="24" height="24" viewBox="0 0 24 24" fill="none" xmlns="http://www.w3.org/2000/svg">
<path fill-rule="evenodd" clip-rule="evenodd" d="M9.98709 5.221C8.30915 5.221 6.9489 6.58124 6.9489 8.25919C6.9489 9.93713 8.30915 11.2974 9.98709 11.2974C11.665 11.2974 13.0253 9.93713 13.0253 8.25919C13.0253 6.58124 11.665 5.221 9.98709 5.221ZM5.7489 8.25919C5.7489 5.9185 7.6464 4.021 9.98709 4.021C12.3278 4.021 14.2253 5.9185 14.2253 8.25919C14.2253 10.5999 12.3278 12.4974 9.98709 12.4974C7.6464 12.4974 5.7489 10.5999 5.7489 8.25919ZM16.3886 12.4001V10.0001H17.5886V12.4001H19.9886V13.6001H17.5886V16.0001H16.3886V13.6001H13.9886V12.4001H16.3886ZM9.98689 15.2228C7.34849 15.2228 5.20964 17.3617 5.20964 20.0001H4.00964C4.00964 16.6989 6.68575 14.0228 9.98689 14.0228C13.288 14.0228 15.9641 16.6989 15.9641 20.0001H14.7641C14.7641 17.3617 12.6253 15.2228 9.98689 15.2228Z" fill="black"/>
</svg>
