<svg width="24" height="24" viewBox="0 0 24 24" fill="none" xmlns="http://www.w3.org/2000/svg">
<path fill-rule="evenodd" clip-rule="evenodd" d="M14.1864 10.7482C14.1271 11.1628 14.0259 11.5639 13.8872 11.9471C14.4746 12.2301 15.1333 12.3887 15.829 12.3887C18.3025 12.3887 20.3078 10.3835 20.3078 7.90994C20.3078 5.43637 18.3025 3.43115 15.829 3.43115C14.3234 3.43115 12.9914 4.17401 12.1794 5.31319C12.4892 5.5852 12.7711 5.88823 13.0202 6.21743C13.5943 5.26676 14.6374 4.63115 15.829 4.63115C17.6398 4.63115 19.1078 6.09912 19.1078 7.90994C19.1078 9.72076 17.6398 11.1887 15.829 11.1887C15.2304 11.1887 14.6694 11.0284 14.1864 10.7482ZM15.8287 15.4595C14.763 15.4595 13.782 15.8241 13.0043 16.4359C12.6936 16.1659 12.36 15.9215 12.0069 15.7061C13.0245 14.8061 14.3625 14.2595 15.8287 14.2595C19.0163 14.2595 21.6004 16.8435 21.6004 20.0312H20.4004C20.4004 17.5063 18.3535 15.4595 15.8287 15.4595Z" fill="black"/>
<path fill-rule="evenodd" clip-rule="evenodd" d="M8.17186 6.60111C6.36104 6.60111 4.89308 8.06908 4.89308 9.8799C4.89308 11.6907 6.36104 13.1587 8.17186 13.1587C9.98269 13.1587 11.4507 11.6907 11.4507 9.8799C11.4507 8.06908 9.98269 6.60111 8.17186 6.60111ZM3.69308 9.8799C3.69308 7.40634 5.6983 5.40111 8.17186 5.40111C10.6454 5.40111 12.6507 7.40634 12.6507 9.8799C12.6507 12.3535 10.6454 14.3587 8.17186 14.3587C5.6983 14.3587 3.69308 12.3535 3.69308 9.8799ZM8.17186 17.4282C5.64697 17.4282 3.60015 19.475 3.60015 21.9999H2.40015C2.40015 18.8123 4.98423 16.2282 8.17186 16.2282C11.3595 16.2282 13.9436 18.8123 13.9436 21.9999H12.7436C12.7436 19.475 10.6968 17.4282 8.17186 17.4282Z" fill="black"/>
</svg>
