<svg width="24" height="24" viewBox="0 0 24 24" fill="none" xmlns="http://www.w3.org/2000/svg">
<path fill-rule="evenodd" clip-rule="evenodd" d="M9.98685 5.221C8.3089 5.221 6.94866 6.58124 6.94866 8.25919C6.94866 9.93713 8.3089 11.2974 9.98685 11.2974C11.6648 11.2974 13.025 9.93713 13.025 8.25919C13.025 6.58124 11.6648 5.221 9.98685 5.221ZM5.74866 8.25919C5.74866 5.9185 7.64616 4.021 9.98685 4.021C12.3275 4.021 14.225 5.9185 14.225 8.25919C14.225 10.5999 12.3275 12.4974 9.98685 12.4974C7.64616 12.4974 5.74866 10.5999 5.74866 8.25919ZM16.9883 12.1516L15.2912 10.4545L14.4427 11.303L16.1398 13.0001L14.4427 14.6971L15.2912 15.5457L16.9883 13.8486L18.6854 15.5457L19.5339 14.6971L17.8368 13.0001L19.5339 11.303L18.6854 10.4545L16.9883 12.1516ZM9.98665 15.2228C7.34825 15.2228 5.2094 17.3617 5.2094 20.0001H4.0094C4.0094 16.6989 6.6855 14.0228 9.98665 14.0228C13.2878 14.0228 15.9639 16.6989 15.9639 20.0001H14.7639C14.7639 17.3617 12.625 15.2228 9.98665 15.2228Z" fill="black"/>
</svg>
