<svg width="24" height="24" viewBox="0 0 24 24" fill="none" xmlns="http://www.w3.org/2000/svg">
<path fill-rule="evenodd" clip-rule="evenodd" d="M11.9985 5.221C10.3206 5.221 8.96033 6.58124 8.96033 8.25919C8.96033 9.93713 10.3206 11.2974 11.9985 11.2974C13.6765 11.2974 15.0367 9.93713 15.0367 8.25919C15.0367 6.58124 13.6765 5.221 11.9985 5.221ZM7.76033 8.25919C7.76033 5.9185 9.65783 4.021 11.9985 4.021C14.3392 4.021 16.2367 5.9185 16.2367 8.25919C16.2367 10.5999 14.3392 12.4974 11.9985 12.4974C9.65783 12.4974 7.76033 10.5999 7.76033 8.25919ZM11.9987 15.2228C9.36033 15.2228 7.22148 17.3617 7.22148 20.0001H6.02148C6.02148 16.699 8.69759 14.0228 11.9987 14.0228C15.2999 14.0228 17.976 16.699 17.976 20.0001H16.776C16.776 17.3617 14.6371 15.2228 11.9987 15.2228Z" fill="black"/>
</svg>
