<svg width="24" height="24" viewBox="0 0 24 24" fill="none" xmlns="http://www.w3.org/2000/svg">
<path fill-rule="evenodd" clip-rule="evenodd" d="M2.75138 5.69041C2.62051 5.83992 2.5412 6.03571 2.5412 6.25002V17.75C2.5412 18.2195 2.92176 18.6 3.3912 18.6H14.8912C15.1055 18.6 15.3013 18.5207 15.4508 18.3898L14.461 17.4H3.7412V6.68023L2.75138 5.69041ZM14.5412 15.7832V15.7819L5.35934 6.60002H5.35805L4.15805 5.40002H4.15934L2.69924 3.93992L3.54713 3.09204L20.5161 20.061L19.6682 20.9089L15.7412 16.9819V16.9832L14.5412 15.7832ZM15.7412 13.5891V6.25002C15.7412 5.78058 15.3606 5.40002 14.8912 5.40002H7.55216L8.75216 6.60002H14.5412V12.3891L15.7412 13.5891ZM21.4587 7.5193C21.4587 6.8071 20.6354 6.41068 20.0786 6.85487L16.9654 9.33878L17.7138 10.2768L20.2587 8.2463V15.7537L17.7138 13.7232L16.9654 14.6613L20.0786 17.1452C20.6354 17.5894 21.4587 17.1929 21.4587 16.4807V7.5193Z" fill="black"/>
</svg>
