<svg width="24" height="24" viewBox="0 0 24 24" fill="none" xmlns="http://www.w3.org/2000/svg">
<path fill-rule="evenodd" clip-rule="evenodd" d="M2.5412 6.2499C2.5412 5.78046 2.92176 5.3999 3.3912 5.3999H14.8912C15.3606 5.3999 15.7412 5.78046 15.7412 6.2499V17.7499C15.7412 18.2193 15.3606 18.5999 14.8912 18.5999H3.3912C2.92176 18.5999 2.5412 18.2193 2.5412 17.7499V6.2499ZM3.7412 6.5999V17.3999H14.5412V6.5999H3.7412ZM20.0786 6.85475C20.6354 6.41056 21.4587 6.80698 21.4587 7.51919V16.4806C21.4587 17.1928 20.6354 17.5892 20.0786 17.1451L16.9654 14.6611L17.7138 13.7231L20.2587 15.7536V8.24619L17.7138 10.2767L16.9654 9.33867L20.0786 6.85475Z" fill="black"/>
</svg>
