<svg width="24" height="24" viewBox="0 0 24 24" fill="none" xmlns="http://www.w3.org/2000/svg">
<path fill-rule="evenodd" clip-rule="evenodd" d="M16.7422 8.10547C14.9302 8.47562 13.567 10.0786 13.567 12C13.567 13.0796 13.9974 14.0586 14.696 14.775H9.22108C9.91964 14.0586 10.35 13.0796 10.35 12C10.35 10.0787 8.98689 8.47571 7.17498 8.1055V9.34201C8.3176 9.68542 9.15002 10.7455 9.15002 12C9.15002 13.2545 8.3176 14.3145 7.17498 14.6579V15.975H16.7422V14.658C15.5995 14.3146 14.767 13.2545 14.767 12C14.767 10.7454 15.5995 9.68533 16.7422 9.34197V8.10547ZM18.3422 14.6579C19.4847 14.3144 20.317 13.2544 20.317 12C20.317 10.7456 19.4847 9.68557 18.3422 9.34209V8.10555C20.154 8.47585 21.517 10.0787 21.517 12C21.517 13.9212 20.154 15.5241 18.3422 15.8944V14.6579ZM2.40002 12C2.40002 10.0787 3.76311 8.47577 5.57498 8.10552V9.34204C4.4324 9.68548 3.60002 10.7455 3.60002 12C3.60002 13.2544 4.4324 14.3145 5.57498 14.6579V15.8944C3.76311 15.5242 2.40002 13.9213 2.40002 12Z" fill="black"/>
</svg>
