<svg width="24" height="24" viewBox="0 0 24 24" fill="none" xmlns="http://www.w3.org/2000/svg">
<path fill-rule="evenodd" clip-rule="evenodd" d="M13.2244 5.28101L8.27788 9.403L8.27788 9.403C8.12512 9.53029 7.93258 9.6 7.73373 9.6H7.22002V8.4H7.60702L13.0303 3.88076C13.5839 3.41941 14.4244 3.81309 14.4244 4.53375V19.4663C14.4244 20.1869 13.5839 20.5806 13.0303 20.1192L7.60702 15.6H7.22002V14.4H7.73373C7.93258 14.4 8.12513 14.4697 8.27788 14.597L13.2244 18.719V5.28101ZM5.62502 9.6C4.9885 9.6 4.37806 9.85286 3.92797 10.3029C3.47788 10.753 3.22502 11.3635 3.22502 12C3.22502 12.6365 3.47788 13.247 3.92797 13.6971C4.37806 14.1471 4.9885 14.4 5.62502 14.4V15.6C4.67024 15.6 3.75457 15.2207 3.07944 14.5456C2.40431 13.8705 2.02502 12.9548 2.02502 12C2.02502 11.0452 2.40431 10.1295 3.07944 9.45442C3.75457 8.77929 4.67024 8.4 5.62502 8.4V9.6ZM18.1134 12L15.9713 9.85786L16.8198 9.00933L18.962 11.1515L21.1041 9.00933L21.9526 9.85786L19.8105 12L21.9526 14.1421L21.1041 14.9907L18.962 12.8485L16.8198 14.9907L15.9713 14.1421L18.1134 12Z" fill="black"/>
</svg>
