<svg width="24" height="24" viewBox="0 0 24 24" fill="none" xmlns="http://www.w3.org/2000/svg">
<path fill-rule="evenodd" clip-rule="evenodd" d="M13.2244 5.28101L8.27788 9.403L8.27788 9.403C8.12512 9.53029 7.93258 9.6 7.73373 9.6H7.22002V8.4H7.60702L13.0303 3.88076C13.5839 3.41941 14.4244 3.81309 14.4244 4.53375V19.4663C14.4244 20.1869 13.5839 20.5806 13.0303 20.1192L7.60702 15.6H7.22002V14.4H7.73373C7.93258 14.4 8.12513 14.4697 8.27788 14.597L13.2244 18.719V5.28101ZM16.0235 6.02891C17.6071 6.0289 19.1259 6.658 20.2457 7.7778C21.3655 8.8976 21.9946 10.4164 21.9946 12C21.9946 13.5836 21.3655 15.1024 20.2457 16.2222C19.1259 17.342 17.6071 17.9711 16.0235 17.9711V16.7711C17.2888 16.7711 18.5024 16.2684 19.3971 15.3737C20.2919 14.4789 20.7946 13.2654 20.7946 12C20.7946 10.7346 20.2919 9.52108 19.3971 8.62633C18.5024 7.73157 17.2888 7.22891 16.0235 7.22891V6.02891ZM5.62502 9.6C4.9885 9.6 4.37806 9.85286 3.92797 10.3029C3.47788 10.753 3.22502 11.3635 3.22502 12C3.22502 12.6365 3.47788 13.247 3.92797 13.6971C4.37806 14.1471 4.9885 14.4 5.62502 14.4V15.6C4.67024 15.6 3.75457 15.2207 3.07944 14.5456C2.40431 13.8705 2.02502 12.9548 2.02502 12C2.02502 11.0452 2.40431 10.1295 3.07944 9.45442C3.75457 8.77929 4.67024 8.4 5.62502 8.4V9.6ZM16.023 8.5977C16.9253 8.5977 17.7907 8.95616 18.4288 9.59421C19.0668 10.2323 19.4253 11.0977 19.4253 12C19.4253 12.9024 19.0668 13.7678 18.4288 14.4058C17.7907 15.0439 16.9253 15.4023 16.023 15.4023V14.2023C16.6071 14.2023 17.1673 13.9703 17.5803 13.5573C17.9933 13.1443 18.2253 12.5841 18.2253 12C18.2253 11.4159 17.9933 10.8558 17.5803 10.4427C17.1673 10.0297 16.6071 9.7977 16.023 9.7977V8.5977Z" fill="black"/>
</svg>
