<svg width="24" height="24" viewBox="0 0 24 24" fill="none" xmlns="http://www.w3.org/2000/svg">
<path fill-rule="evenodd" clip-rule="evenodd" d="M14.3998 5.28101L9.45327 9.403L9.45327 9.403C9.30051 9.53029 9.10797 9.6 8.90912 9.6H8.40041V8.4H8.78241L14.2056 3.88076C14.7593 3.41941 15.5998 3.81309 15.5998 4.53375V19.4663C15.5998 20.1869 14.7593 20.5806 14.2056 20.1192L8.78241 15.6H8.40041V14.4H8.90912C9.10797 14.4 9.30052 14.4697 9.45327 14.597L14.3998 18.719V5.28101ZM6.79983 9.6C6.16331 9.6 5.55286 9.85286 5.10277 10.3029C4.65269 10.753 4.39983 11.3635 4.39983 12C4.39983 12.6365 4.65269 13.247 5.10277 13.6971C5.55286 14.1471 6.16331 14.4 6.79983 14.4V15.6C5.84505 15.6 4.92938 15.2207 4.25424 14.5456C3.57911 13.8705 3.19983 12.9548 3.19983 12C3.19983 11.0452 3.57911 10.1295 4.25424 9.45442C4.92938 8.77929 5.84505 8.4 6.79983 8.4V9.6ZM17.2002 8.4C18.155 8.4 19.0707 8.77929 19.7458 9.45442C20.4209 10.1295 20.8002 11.0452 20.8002 12C20.8002 12.9548 20.4209 13.8705 19.7458 14.5456C19.0707 15.2207 18.155 15.6 17.2002 15.6V14.4C17.8367 14.4 18.4472 14.1471 18.8973 13.6971C19.3474 13.247 19.6002 12.6365 19.6002 12C19.6002 11.3635 19.3474 10.753 18.8973 10.3029C18.4472 9.85286 17.8367 9.6 17.2002 9.6V8.4Z" fill="black"/>
</svg>
