<svg width="24" height="24" viewBox="0 0 24 24" fill="none" xmlns="http://www.w3.org/2000/svg">
<path fill-rule="evenodd" clip-rule="evenodd" d="M16.5994 5.28101L11.6529 9.403C11.5001 9.53029 11.3076 9.6 11.1087 9.6H10.1993V8.4H10.982L16.4053 3.88076C16.9589 3.41941 17.7994 3.81309 17.7994 4.53375V19.4663C17.7994 20.1869 16.9589 20.5806 16.4053 20.1192L10.982 15.6H10.1992V14.4H11.1087C11.3076 14.4 11.5001 14.4697 11.6529 14.597L16.5994 18.719V5.28101ZM10.8847 15.5189L10.885 15.5192L10.8847 15.5189ZM9.00002 9.6C8.3635 9.6 7.75306 9.85286 7.30297 10.3029C6.85288 10.753 6.60002 11.3635 6.60002 12C6.60002 12.6365 6.85288 13.247 7.30297 13.6971C7.75306 14.1471 8.3635 14.4 9.00002 14.4V15.6C8.04524 15.6 7.12957 15.2207 6.45444 14.5456C5.77931 13.8705 5.40002 12.9548 5.40002 12C5.40002 11.0452 5.77931 10.1295 6.45444 9.45442C7.12957 8.77929 8.04524 8.4 9.00002 8.4V9.6Z" fill="black"/>
</svg>
