<svg width="24" height="24" viewBox="0 0 24 24" fill="none" xmlns="http://www.w3.org/2000/svg">
<path fill-rule="evenodd" clip-rule="evenodd" d="M11.5 3.5999C10.7268 3.5999 10.1 4.2267 10.1 4.9999C10.1 5.7731 10.7268 6.3999 11.5 6.3999C12.2732 6.3999 12.9 5.7731 12.9 4.9999C12.9 4.2267 12.2732 3.5999 11.5 3.5999ZM8.90002 4.9999C8.90002 3.56396 10.0641 2.3999 11.5 2.3999C12.936 2.3999 14.1 3.56396 14.1 4.9999C14.1 6.43584 12.936 7.5999 11.5 7.5999C10.0641 7.5999 8.90002 6.43584 8.90002 4.9999ZM10.9 9.40133C9.06851 9.45423 7.60002 10.9556 7.60002 12.7999H6.40002C6.40002 10.2928 8.40569 8.25415 10.9 8.20096V8.19989H12.1V8.29989C12.1 10.4538 13.8461 12.1999 16 12.1999V13.3999C14.4355 13.3999 13.0356 12.6954 12.1 11.5864V15.2317C14.9107 15.531 17.1 17.9098 17.1 20.7999H15.9C15.9 18.5598 14.2261 16.7107 12.0608 16.4353C11.748 18.9521 9.6015 20.8999 7.00002 20.8999V19.6999C9.15393 19.6999 10.9 17.9538 10.9 15.7999V9.40133Z" fill="black"/>
</svg>
