<svg width="24" height="24" viewBox="0 0 24 24" fill="none" xmlns="http://www.w3.org/2000/svg">
<path fill-rule="evenodd" clip-rule="evenodd" d="M9.63905 3.3499L9.27956 6.22594C9.87499 5.94491 10.5209 5.75326 11.2 5.66832V6.88004C8.71833 7.2647 6.81877 9.41047 6.81877 11.9999C6.81877 14.5893 8.71833 16.7351 11.2 17.1198V18.3315C10.5209 18.2465 9.87499 18.0549 9.27956 17.7739L9.63905 20.6499H14.361L14.7205 17.7739C14.125 18.0549 13.4791 18.2466 12.8 18.3315V17.1198C15.2817 16.7352 17.1813 14.5894 17.1813 11.9999C17.1813 9.41043 15.2817 7.26464 12.8 6.88003V5.66831C13.4791 5.75324 14.125 5.94489 14.7205 6.22594L14.361 3.3499H9.63905ZM16.0334 7.05475L15.5217 2.96102C15.4638 2.49764 15.0699 2.1499 14.6029 2.1499H9.39715C8.93015 2.1499 8.53624 2.49764 8.47832 2.96103L7.96662 7.05475C6.53366 8.22492 5.61877 10.0056 5.61877 11.9999C5.61877 13.9942 6.53366 15.7749 7.96662 16.9451L8.47832 21.0388C8.53624 21.5022 8.93015 21.8499 9.39715 21.8499H14.6029C15.0699 21.8499 15.4638 21.5022 15.5217 21.0388L16.0334 16.9451C17.4664 15.7749 18.3813 13.9942 18.3813 11.9999C18.3813 10.0056 17.4664 8.22492 16.0334 7.05475ZM11.4 11.8802V8.53115H12.6V11.7514L14.7368 13.8881L13.8883 14.7367L11.6604 12.5088C11.4937 12.3421 11.4 12.116 11.4 11.8802Z" fill="black"/>
</svg>
