<svg width="24" height="24" viewBox="0 0 24 24" fill="none" xmlns="http://www.w3.org/2000/svg">
<path fill-rule="evenodd" clip-rule="evenodd" d="M3.57574 10.0759C6.08712 7.5645 8.85153 6.58643 12 6.58643C15.1597 6.58643 18.19 7.84162 20.4243 10.0759L19.5758 10.9244C17.5666 8.91519 14.8415 7.78643 12 7.78643C9.14734 7.78643 6.69521 8.65346 4.42427 10.9244L3.57574 10.0759ZM6.57574 13.0759C8.19044 11.4612 9.97674 10.8291 12 10.8291C14.0345 10.8291 15.9857 11.6373 17.4243 13.0759L16.5758 13.9244C15.3622 12.7108 13.7163 12.0291 12 12.0291C10.2726 12.0291 8.79853 12.5501 7.42427 13.9244L6.57574 13.0759ZM10.8244 14.8272C11.4737 14.1779 12.5263 14.1779 13.1756 14.8272C13.8248 15.4764 13.8248 16.5291 13.1756 17.1783C12.5263 17.8275 11.4737 17.8275 10.8244 17.1783C10.1752 16.5291 10.1752 15.4764 10.8244 14.8272ZM12.327 15.6757C12.1464 15.4951 11.8536 15.4951 11.673 15.6757C11.4924 15.8563 11.4924 16.1492 11.673 16.3298C11.8536 16.5104 12.1464 16.5104 12.327 16.3298C12.5077 16.1492 12.5077 15.8563 12.327 15.6757Z" fill="black"/>
</svg>
