<svg width="24" height="24" viewBox="0 0 24 24" fill="none" xmlns="http://www.w3.org/2000/svg">
<path fill-rule="evenodd" clip-rule="evenodd" d="M5.41976 8.53146C4.78947 8.96384 4.17539 9.47607 3.57574 10.0757L4.42427 10.9242C5.0301 10.3184 5.64882 9.8125 6.2846 9.39631L5.41976 8.53146ZM10.1749 11.0238C10.175 11.0238 10.1751 11.0238 10.1752 11.0237L7.75461 8.60311C7.7545 8.60316 7.75439 8.6032 7.75428 8.60325L6.84932 7.69828C6.84942 7.69823 6.84953 7.69818 6.84963 7.69813L4.50468 5.35318L5.35297 4.50488L19.4949 18.6468L18.6466 19.4951L11.2188 12.0673C11.2186 12.0673 11.2185 12.0673 11.2183 12.0673L10.1749 11.0238ZM8.5176 11.6293C7.84248 11.9795 7.19643 12.455 6.57574 13.0757L7.42427 13.9242C8.06202 13.2865 8.72125 12.8325 9.41733 12.529L8.5176 11.6293ZM11.3572 14.4689C11.1635 14.55 10.9821 14.6694 10.8244 14.827C10.1752 15.4763 10.1752 16.5289 10.8244 17.1781C11.4737 17.8274 12.5263 17.8274 13.1756 17.1781C13.3332 17.0205 13.4526 16.8391 13.5337 16.6454L11.3572 14.4689ZM16.8054 13.6946L17.4243 13.0757C16.5398 12.1912 15.4615 11.545 14.2893 11.1785L16.8054 13.6946ZM10.9395 7.82871C11.287 7.80006 11.6403 7.78627 12 7.78627C14.8415 7.78627 17.5666 8.91503 19.5758 10.9242L20.4243 10.0757C18.19 7.84146 15.1597 6.58627 12 6.58627C11.2674 6.58627 10.5556 6.63922 9.86296 6.75213L10.9395 7.82871ZM11.673 15.6755C11.8536 15.4949 12.1464 15.4949 12.327 15.6755C12.5077 15.8562 12.5077 16.149 12.327 16.3296C12.1464 16.5102 11.8536 16.5102 11.673 16.3296C11.4924 16.149 11.4924 15.8562 11.673 15.6755Z" fill="black"/>
</svg>
