<svg width="24" height="24" viewBox="0 0 24 24" fill="none" xmlns="http://www.w3.org/2000/svg">
<path fill-rule="evenodd" clip-rule="evenodd" d="M2.00354 10.0001C2.00354 5.84405 5.17268 2.42821 9.2262 2.03735V3.24402C5.83673 3.62974 3.20354 6.5074 3.20354 10.0001C3.20354 13.4927 5.83673 16.3704 9.2262 16.7561V17.9628C5.17268 17.5719 2.00354 14.1561 2.00354 10.0001ZM10.8262 17.9583C14.858 17.5464 18.0035 14.1406 18.0035 10.0001C18.0035 5.85954 14.858 2.4537 10.8262 2.04185V3.24933C14.1938 3.65543 16.8035 6.52298 16.8035 10.0001C16.8035 13.4772 14.1938 16.3447 10.8262 16.7508V17.9583ZM9.40002 9.40009V7.00009H10.6V9.40009H13V10.6001H10.6V13.0001H9.40002V10.6001H7.00002V9.40009H9.40002ZM21.1425 21.9911L16.3609 17.2095L17.2094 16.361L21.991 21.1426L21.1425 21.9911Z" fill="black"/>
</svg>
