<svg width="740" height="352" viewBox="0 0 740 352" fill="none" xmlns="http://www.w3.org/2000/svg">
<path d="M0 12C0 5.37259 5.37258 0 12 0H728C734.627 0 740 5.37258 740 12V340C740 346.627 734.627 352 728 352H12C5.37258 352 0 346.627 0 340V12Z" fill="var(--web-system-color-articleFigure-background, #F5F5F5)"/>
<rect width="48" height="240" rx="8" transform="matrix(-4.37114e-08 -1 -1 4.37114e-08 595 120)" fill="white"/>
<path d="M576.5 88C576.5 84.1086 575.577 82.1875 574.633 80.2158C573.702 78.2716 572.754 76.2804 572.677 72.5L363 72.5C358.858 72.5 355.5 75.8579 355.5 80L355.5 112C355.5 116.142 358.858 119.5 363 119.5L576.493 119.5C576.418 115.94 575.536 114.101 574.633 112.216C573.661 110.188 572.668 108.108 572.668 104C572.668 99.8916 573.661 97.8124 574.633 95.7842C575.577 93.8125 576.5 91.8914 576.5 88Z" fill="var(--web-system-color-articleFigure-foreground-tertiary, #EFF2FC)" stroke="var(--web-system-color-articleFigure-foreground-primary, #8FAEFE)" stroke-miterlimit="10"/>
<path d="M432.02 92.1797V100H430.983V92.1797H432.02ZM434.748 95.4292V100H433.754V94.1885H434.694L434.748 95.4292ZM434.512 96.874L434.098 96.8579C434.102 96.4604 434.161 96.0934 434.275 95.7568C434.39 95.4167 434.551 95.1213 434.759 94.8706C434.966 94.62 435.214 94.4266 435.5 94.2905C435.79 94.1509 436.111 94.0811 436.461 94.0811C436.748 94.0811 437.006 94.1204 437.235 94.1992C437.464 94.2744 437.659 94.3962 437.82 94.5645C437.985 94.7327 438.11 94.9512 438.196 95.2197C438.282 95.4847 438.325 95.8088 438.325 96.1919V100H437.326V96.1812C437.326 95.8768 437.281 95.6333 437.192 95.4507C437.102 95.2645 436.972 95.1302 436.8 95.0479C436.628 94.9619 436.417 94.9189 436.166 94.9189C435.919 94.9189 435.693 94.9709 435.489 95.0747C435.289 95.1785 435.115 95.3218 434.968 95.5044C434.825 95.687 434.712 95.8965 434.63 96.1328C434.551 96.3656 434.512 96.6126 434.512 96.874ZM440.828 91.75V100H439.834V91.75H440.828ZM440.592 96.874L440.178 96.8579C440.182 96.4604 440.241 96.0934 440.355 95.7568C440.47 95.4167 440.631 95.1213 440.839 94.8706C441.047 94.62 441.294 94.4266 441.58 94.2905C441.87 94.1509 442.191 94.0811 442.542 94.0811C442.828 94.0811 443.086 94.1204 443.315 94.1992C443.544 94.2744 443.739 94.3962 443.9 94.5645C444.065 94.7327 444.19 94.9512 444.276 95.2197C444.362 95.4847 444.405 95.8088 444.405 96.1919V100H443.406V96.1812C443.406 95.8768 443.361 95.6333 443.272 95.4507C443.182 95.2645 443.052 95.1302 442.88 95.0479C442.708 94.9619 442.497 94.9189 442.246 94.9189C441.999 94.9189 441.773 94.9709 441.569 95.0747C441.369 95.1785 441.195 95.3218 441.048 95.5044C440.905 95.687 440.792 95.8965 440.71 96.1328C440.631 96.3656 440.592 96.6126 440.592 96.874ZM448.305 100.107C447.9 100.107 447.533 100.039 447.204 99.9033C446.878 99.7637 446.597 99.5685 446.36 99.3179C446.128 99.0672 445.949 98.77 445.823 98.4263C445.698 98.0825 445.635 97.7065 445.635 97.2983V97.0728C445.635 96.6001 445.705 96.1794 445.845 95.8105C445.984 95.4382 446.174 95.123 446.414 94.8652C446.654 94.6074 446.926 94.4123 447.23 94.2798C447.535 94.1473 447.85 94.0811 448.176 94.0811C448.591 94.0811 448.949 94.1527 449.25 94.2959C449.554 94.4391 449.803 94.6396 449.997 94.8975C450.19 95.1517 450.333 95.4525 450.426 95.7998C450.519 96.1436 450.566 96.5195 450.566 96.9277V97.3735H446.226V96.5625H449.572V96.4873C449.558 96.2295 449.504 95.9788 449.411 95.7354C449.322 95.4919 449.178 95.2913 448.981 95.1338C448.785 94.9762 448.516 94.8975 448.176 94.8975C447.95 94.8975 447.743 94.9458 447.553 95.0425C447.363 95.1356 447.2 95.2752 447.064 95.4614C446.928 95.6476 446.822 95.875 446.747 96.1436C446.672 96.4121 446.634 96.7218 446.634 97.0728V97.2983C446.634 97.5741 446.672 97.8337 446.747 98.0771C446.826 98.3171 446.939 98.5283 447.085 98.7109C447.236 98.8936 447.417 99.0368 447.628 99.1406C447.843 99.2445 448.086 99.2964 448.358 99.2964C448.709 99.2964 449.007 99.2248 449.25 99.0815C449.493 98.9383 449.707 98.7467 449.889 98.5068L450.491 98.9849C450.365 99.1746 450.206 99.3555 450.013 99.5273C449.819 99.6992 449.581 99.8389 449.298 99.9463C449.019 100.054 448.688 100.107 448.305 100.107ZM452.72 95.1016V100H451.726V94.1885H452.693L452.72 95.1016ZM454.535 94.1562L454.53 95.0801C454.447 95.0622 454.369 95.0514 454.293 95.0479C454.222 95.0407 454.139 95.0371 454.046 95.0371C453.817 95.0371 453.615 95.0729 453.439 95.1445C453.264 95.2161 453.115 95.3164 452.994 95.4453C452.872 95.5742 452.775 95.7282 452.704 95.9072C452.636 96.0827 452.591 96.276 452.569 96.4873L452.29 96.6484C452.29 96.2975 452.324 95.9681 452.392 95.6602C452.464 95.3522 452.573 95.0801 452.72 94.8438C452.867 94.6038 453.053 94.4176 453.278 94.2852C453.507 94.1491 453.78 94.0811 454.095 94.0811C454.166 94.0811 454.249 94.09 454.342 94.1079C454.435 94.1222 454.499 94.1383 454.535 94.1562ZM456.533 94.1885V100H455.534V94.1885H456.533ZM455.459 92.647C455.459 92.4858 455.507 92.3498 455.604 92.2388C455.704 92.1278 455.851 92.0723 456.044 92.0723C456.234 92.0723 456.379 92.1278 456.479 92.2388C456.583 92.3498 456.635 92.4858 456.635 92.647C456.635 92.8009 456.583 92.9334 456.479 93.0444C456.379 93.1519 456.234 93.2056 456.044 93.2056C455.851 93.2056 455.704 93.1519 455.604 93.0444C455.507 92.9334 455.459 92.8009 455.459 92.647ZM460.562 94.1885V94.9512H457.419V94.1885H460.562ZM458.483 92.7759H459.477V98.5605C459.477 98.7575 459.507 98.9061 459.568 99.0063C459.629 99.1066 459.708 99.1729 459.804 99.2051C459.901 99.2373 460.005 99.2534 460.116 99.2534C460.198 99.2534 460.284 99.2463 460.374 99.2319C460.467 99.214 460.536 99.1997 460.583 99.189L460.588 100C460.51 100.025 460.406 100.048 460.277 100.07C460.152 100.095 459.999 100.107 459.82 100.107C459.577 100.107 459.353 100.059 459.149 99.9624C458.945 99.8657 458.782 99.7046 458.66 99.479C458.542 99.2498 458.483 98.9419 458.483 98.5552V92.7759ZM468.774 98.0234C468.774 97.8408 468.745 97.6797 468.688 97.54C468.634 97.3968 468.538 97.2679 468.398 97.1533C468.262 97.0387 468.072 96.9295 467.829 96.8257C467.589 96.7218 467.284 96.6162 466.916 96.5088C466.529 96.3942 466.18 96.2671 465.868 96.1274C465.557 95.9842 465.29 95.8213 465.068 95.6387C464.846 95.4561 464.676 95.2466 464.558 95.0103C464.439 94.7739 464.38 94.5036 464.38 94.1992C464.38 93.8949 464.443 93.6138 464.568 93.356C464.694 93.0981 464.873 92.8743 465.105 92.6846C465.342 92.4912 465.623 92.3408 465.949 92.2334C466.275 92.126 466.638 92.0723 467.039 92.0723C467.626 92.0723 468.124 92.1851 468.532 92.4106C468.944 92.6326 469.257 92.9245 469.472 93.2861C469.687 93.6442 469.794 94.0273 469.794 94.4355H468.763C468.763 94.1419 468.701 93.8823 468.575 93.6567C468.45 93.4276 468.26 93.2485 468.006 93.1196C467.752 92.9871 467.429 92.9209 467.039 92.9209C466.67 92.9209 466.366 92.9764 466.126 93.0874C465.886 93.1984 465.707 93.3488 465.589 93.5386C465.474 93.7284 465.417 93.945 465.417 94.1885C465.417 94.3532 465.451 94.5036 465.519 94.6396C465.591 94.7721 465.7 94.8957 465.847 95.0103C465.997 95.1248 466.187 95.2305 466.416 95.3271C466.649 95.4238 466.926 95.5169 467.249 95.6064C467.693 95.7318 468.076 95.8714 468.398 96.0254C468.72 96.1794 468.985 96.353 469.193 96.5464C469.404 96.7362 469.56 96.9528 469.66 97.1963C469.764 97.4362 469.816 97.7083 469.816 98.0127C469.816 98.3314 469.751 98.6196 469.623 98.8774C469.494 99.1353 469.309 99.3555 469.069 99.5381C468.829 99.7207 468.541 99.8621 468.205 99.9624C467.872 100.059 467.499 100.107 467.087 100.107C466.726 100.107 466.369 100.057 466.019 99.957C465.671 99.8568 465.354 99.7064 465.068 99.5059C464.785 99.3053 464.558 99.0583 464.386 98.7646C464.217 98.4674 464.133 98.1237 464.133 97.7334H465.165C465.165 98.002 465.216 98.2329 465.32 98.4263C465.424 98.616 465.566 98.7736 465.745 98.8989C465.927 99.0243 466.133 99.1174 466.362 99.1782C466.595 99.2355 466.837 99.2642 467.087 99.2642C467.449 99.2642 467.755 99.214 468.006 99.1138C468.257 99.0135 468.446 98.8703 468.575 98.6841C468.708 98.4979 468.774 98.2777 468.774 98.0234ZM473.398 100.107C472.994 100.107 472.627 100.039 472.297 99.9033C471.972 99.7637 471.69 99.5685 471.454 99.3179C471.221 99.0672 471.042 98.77 470.917 98.4263C470.792 98.0825 470.729 97.7065 470.729 97.2983V97.0728C470.729 96.6001 470.799 96.1794 470.938 95.8105C471.078 95.4382 471.268 95.123 471.508 94.8652C471.748 94.6074 472.02 94.4123 472.324 94.2798C472.629 94.1473 472.944 94.0811 473.27 94.0811C473.685 94.0811 474.043 94.1527 474.344 94.2959C474.648 94.4391 474.897 94.6396 475.09 94.8975C475.284 95.1517 475.427 95.4525 475.52 95.7998C475.613 96.1436 475.66 96.5195 475.66 96.9277V97.3735H471.32V96.5625H474.666V96.4873C474.652 96.2295 474.598 95.9788 474.505 95.7354C474.415 95.4919 474.272 95.2913 474.075 95.1338C473.878 94.9762 473.61 94.8975 473.27 94.8975C473.044 94.8975 472.836 94.9458 472.646 95.0425C472.457 95.1356 472.294 95.2752 472.158 95.4614C472.022 95.6476 471.916 95.875 471.841 96.1436C471.766 96.4121 471.728 96.7218 471.728 97.0728V97.2983C471.728 97.5741 471.766 97.8337 471.841 98.0771C471.92 98.3171 472.032 98.5283 472.179 98.7109C472.33 98.8936 472.51 99.0368 472.722 99.1406C472.937 99.2445 473.18 99.2964 473.452 99.2964C473.803 99.2964 474.1 99.2248 474.344 99.0815C474.587 98.9383 474.8 98.7467 474.983 98.5068L475.584 98.9849C475.459 99.1746 475.3 99.3555 475.106 99.5273C474.913 99.6992 474.675 99.8389 474.392 99.9463C474.113 100.054 473.782 100.107 473.398 100.107ZM477.813 95.1016V100H476.82V94.1885H477.787L477.813 95.1016ZM479.629 94.1562L479.624 95.0801C479.541 95.0622 479.462 95.0514 479.387 95.0479C479.316 95.0407 479.233 95.0371 479.14 95.0371C478.911 95.0371 478.709 95.0729 478.533 95.1445C478.358 95.2161 478.209 95.3164 478.087 95.4453C477.966 95.5742 477.869 95.7282 477.797 95.9072C477.729 96.0827 477.685 96.276 477.663 96.4873L477.384 96.6484C477.384 96.2975 477.418 95.9681 477.486 95.6602C477.557 95.3522 477.667 95.0801 477.813 94.8438C477.96 94.6038 478.146 94.4176 478.372 94.2852C478.601 94.1491 478.873 94.0811 479.188 94.0811C479.26 94.0811 479.342 94.09 479.436 94.1079C479.529 94.1222 479.593 94.1383 479.629 94.1562ZM482.852 100.107C482.447 100.107 482.08 100.039 481.75 99.9033C481.425 99.7637 481.144 99.5685 480.907 99.3179C480.674 99.0672 480.495 98.77 480.37 98.4263C480.245 98.0825 480.182 97.7065 480.182 97.2983V97.0728C480.182 96.6001 480.252 96.1794 480.392 95.8105C480.531 95.4382 480.721 95.123 480.961 94.8652C481.201 94.6074 481.473 94.4123 481.777 94.2798C482.082 94.1473 482.397 94.0811 482.723 94.0811C483.138 94.0811 483.496 94.1527 483.797 94.2959C484.101 94.4391 484.35 94.6396 484.543 94.8975C484.737 95.1517 484.88 95.4525 484.973 95.7998C485.066 96.1436 485.113 96.5195 485.113 96.9277V97.3735H480.773V96.5625H484.119V96.4873C484.105 96.2295 484.051 95.9788 483.958 95.7354C483.868 95.4919 483.725 95.2913 483.528 95.1338C483.331 94.9762 483.063 94.8975 482.723 94.8975C482.497 94.8975 482.289 94.9458 482.1 95.0425C481.91 95.1356 481.747 95.2752 481.611 95.4614C481.475 95.6476 481.369 95.875 481.294 96.1436C481.219 96.4121 481.181 96.7218 481.181 97.0728V97.2983C481.181 97.5741 481.219 97.8337 481.294 98.0771C481.373 98.3171 481.486 98.5283 481.632 98.7109C481.783 98.8936 481.964 99.0368 482.175 99.1406C482.39 99.2445 482.633 99.2964 482.905 99.2964C483.256 99.2964 483.553 99.2248 483.797 99.0815C484.04 98.9383 484.253 98.7467 484.436 98.5068L485.038 98.9849C484.912 99.1746 484.753 99.3555 484.56 99.5273C484.366 99.6992 484.128 99.8389 483.845 99.9463C483.566 100.054 483.235 100.107 482.852 100.107ZM487.267 95.4292V100H486.273V94.1885H487.213L487.267 95.4292ZM487.03 96.874L486.617 96.8579C486.62 96.4604 486.679 96.0934 486.794 95.7568C486.909 95.4167 487.07 95.1213 487.277 94.8706C487.485 94.62 487.732 94.4266 488.019 94.2905C488.309 94.1509 488.629 94.0811 488.98 94.0811C489.266 94.0811 489.524 94.1204 489.753 94.1992C489.983 94.2744 490.178 94.3962 490.339 94.5645C490.504 94.7327 490.629 94.9512 490.715 95.2197C490.801 95.4847 490.844 95.8088 490.844 96.1919V100H489.845V96.1812C489.845 95.8768 489.8 95.6333 489.71 95.4507C489.621 95.2645 489.49 95.1302 489.318 95.0479C489.146 94.9619 488.935 94.9189 488.685 94.9189C488.438 94.9189 488.212 94.9709 488.008 95.0747C487.807 95.1785 487.634 95.3218 487.487 95.5044C487.344 95.687 487.231 95.8965 487.148 96.1328C487.07 96.3656 487.03 96.6126 487.03 96.874ZM496.016 98.8721V91.75H497.015V100H496.102L496.016 98.8721ZM492.106 97.1587V97.0459C492.106 96.6019 492.16 96.1991 492.267 95.8374C492.378 95.4722 492.534 95.1589 492.734 94.8975C492.938 94.6361 493.18 94.4355 493.459 94.2959C493.742 94.1527 494.057 94.0811 494.405 94.0811C494.77 94.0811 495.089 94.1455 495.361 94.2744C495.637 94.3997 495.869 94.5841 496.059 94.8276C496.252 95.0675 496.405 95.3576 496.516 95.6978C496.627 96.0379 496.704 96.4229 496.747 96.8525V97.3467C496.707 97.7728 496.63 98.1559 496.516 98.4961C496.405 98.8363 496.252 99.1263 496.059 99.3662C495.869 99.6061 495.637 99.7905 495.361 99.9194C495.085 100.045 494.763 100.107 494.394 100.107C494.054 100.107 493.742 100.034 493.459 99.8872C493.18 99.7404 492.938 99.5345 492.734 99.2695C492.534 99.0046 492.378 98.693 492.267 98.335C492.16 97.9733 492.106 97.5812 492.106 97.1587ZM493.105 97.0459V97.1587C493.105 97.4487 493.134 97.7209 493.191 97.9751C493.252 98.2293 493.345 98.4531 493.47 98.6465C493.596 98.8398 493.755 98.992 493.948 99.103C494.142 99.2104 494.373 99.2642 494.641 99.2642C494.971 99.2642 495.241 99.1943 495.452 99.0547C495.667 98.915 495.839 98.7306 495.968 98.5015C496.097 98.2723 496.197 98.0234 496.269 97.7549V96.4604C496.226 96.2635 496.163 96.0737 496.081 95.8911C496.002 95.7049 495.898 95.5402 495.769 95.397C495.644 95.2502 495.488 95.1338 495.302 95.0479C495.119 94.9619 494.903 94.9189 494.652 94.9189C494.38 94.9189 494.145 94.9762 493.948 95.0908C493.755 95.2018 493.596 95.3558 493.47 95.5527C493.345 95.7461 493.252 95.9717 493.191 96.2295C493.134 96.4837 493.105 96.7559 493.105 97.0459ZM499.642 94.1885V100H498.643V94.1885H499.642ZM498.567 92.647C498.567 92.4858 498.616 92.3498 498.712 92.2388C498.813 92.1278 498.959 92.0723 499.153 92.0723C499.343 92.0723 499.488 92.1278 499.588 92.2388C499.692 92.3498 499.744 92.4858 499.744 92.647C499.744 92.8009 499.692 92.9334 499.588 93.0444C499.488 93.1519 499.343 93.2056 499.153 93.2056C498.959 93.2056 498.813 93.1519 498.712 93.0444C498.616 92.9334 498.567 92.8009 498.567 92.647ZM503.648 100.107C503.244 100.107 502.877 100.039 502.547 99.9033C502.222 99.7637 501.94 99.5685 501.704 99.3179C501.471 99.0672 501.292 98.77 501.167 98.4263C501.042 98.0825 500.979 97.7065 500.979 97.2983V97.0728C500.979 96.6001 501.049 96.1794 501.188 95.8105C501.328 95.4382 501.518 95.123 501.758 94.8652C501.998 94.6074 502.27 94.4123 502.574 94.2798C502.879 94.1473 503.194 94.0811 503.52 94.0811C503.935 94.0811 504.293 94.1527 504.594 94.2959C504.898 94.4391 505.147 94.6396 505.34 94.8975C505.534 95.1517 505.677 95.4525 505.77 95.7998C505.863 96.1436 505.91 96.5195 505.91 96.9277V97.3735H501.57V96.5625H504.916V96.4873C504.902 96.2295 504.848 95.9788 504.755 95.7354C504.665 95.4919 504.522 95.2913 504.325 95.1338C504.128 94.9762 503.86 94.8975 503.52 94.8975C503.294 94.8975 503.086 94.9458 502.896 95.0425C502.707 95.1356 502.544 95.2752 502.408 95.4614C502.272 95.6476 502.166 95.875 502.091 96.1436C502.016 96.4121 501.978 96.7218 501.978 97.0728V97.2983C501.978 97.5741 502.016 97.8337 502.091 98.0771C502.17 98.3171 502.282 98.5283 502.429 98.7109C502.58 98.8936 502.76 99.0368 502.972 99.1406C503.187 99.2445 503.43 99.2964 503.702 99.2964C504.053 99.2964 504.35 99.2248 504.594 99.0815C504.837 98.9383 505.05 98.7467 505.233 98.5068L505.834 98.9849C505.709 99.1746 505.55 99.3555 505.356 99.5273C505.163 99.6992 504.925 99.8389 504.642 99.9463C504.363 100.054 504.032 100.107 503.648 100.107ZM514.423 92.1797H515.454V97.4702C515.454 98.0575 515.323 98.5462 515.062 98.9365C514.801 99.3268 514.453 99.6204 514.02 99.8174C513.59 100.011 513.123 100.107 512.618 100.107C512.088 100.107 511.608 100.011 511.179 99.8174C510.753 99.6204 510.414 99.3268 510.164 98.9365C509.917 98.5462 509.793 98.0575 509.793 97.4702V92.1797H510.819V97.4702C510.819 97.8784 510.894 98.215 511.044 98.48C511.195 98.745 511.404 98.9419 511.673 99.0708C511.945 99.1997 512.26 99.2642 512.618 99.2642C512.98 99.2642 513.295 99.1997 513.563 99.0708C513.836 98.9419 514.047 98.745 514.197 98.48C514.348 98.215 514.423 97.8784 514.423 97.4702V92.1797ZM518.193 92.1797V100H517.157V92.1797H518.193Z" fill="black"/>
<rect x="-0.5" y="-0.5" width="47" height="239" rx="7.5" transform="matrix(-4.37114e-08 -1 -1 4.37114e-08 594 119)" stroke="var(--web-system-color-articleFigure-foreground-primary, #8FAEFE)"/>
<rect width="48" height="240" rx="8" transform="matrix(-4.37114e-08 -1 -1 4.37114e-08 595 184)" fill="white"/>
<path d="M404.5 152C404.5 148.108 403.582 146.187 402.642 144.215C401.715 142.271 400.772 140.28 400.695 136.5L363 136.5C358.858 136.5 355.5 139.858 355.5 144L355.5 176C355.5 180.142 358.858 183.5 363 183.5L404.493 183.5C404.418 179.94 403.54 178.1 402.642 176.215C401.675 174.187 400.687 172.108 400.687 168C400.687 163.892 401.675 161.813 402.642 159.785C403.582 157.813 404.5 155.892 404.5 152Z" fill="var(--web-system-color-articleFigure-foreground-tertiary, #EFF2FC)" stroke="var(--web-system-color-articleFigure-foreground-primary, #8FAEFE)" stroke-miterlimit="10"/>
<rect x="-0.5" y="-0.5" width="47" height="239" rx="7.5" transform="matrix(-4.37114e-08 -1 -1 4.37114e-08 594 183)" stroke="var(--web-system-color-articleFigure-foreground-primary, #8FAEFE)"/>
<path d="M428.147 164.143C426.145 164.143 424.638 162.592 424.638 159.974C424.638 157.367 426.167 155.783 428.213 155.783C429.192 155.783 429.962 156.267 430.424 156.784L429.874 157.444C429.456 156.993 428.917 156.674 428.224 156.674C426.695 156.674 425.683 157.928 425.683 159.941C425.683 161.976 426.651 163.252 428.191 163.252C428.961 163.252 429.544 162.911 430.061 162.35L430.622 162.988C429.984 163.725 429.192 164.143 428.147 164.143ZM433.646 164.143C432.392 164.143 431.831 163.329 431.831 161.811V158.027H432.832V161.69C432.832 162.801 433.162 163.274 433.954 163.274C434.57 163.274 434.999 162.977 435.571 162.262V158.027H436.572V164H435.736L435.659 163.065H435.626C435.065 163.714 434.471 164.143 433.646 164.143ZM440.152 164.143C439.305 164.143 438.491 163.791 437.919 163.318L438.414 162.658C438.931 163.076 439.47 163.362 440.185 163.362C440.977 163.362 441.362 162.944 441.362 162.427C441.362 161.822 440.658 161.547 439.998 161.294C439.162 160.986 438.216 160.579 438.216 159.567C438.216 158.621 438.975 157.873 440.273 157.873C441.01 157.873 441.659 158.181 442.132 158.544L441.648 159.193C441.23 158.885 440.812 158.665 440.273 158.665C439.525 158.665 439.184 159.061 439.184 159.523C439.184 160.095 439.833 160.304 440.504 160.557C441.373 160.887 442.33 161.239 442.33 162.372C442.33 163.34 441.56 164.143 440.152 164.143ZM445.37 164.143C444.094 164.143 443.665 163.351 443.665 162.152V158.841H442.774V158.082L443.709 158.027L443.83 156.355H444.666V158.027H446.283V158.841H444.666V162.174C444.666 162.911 444.897 163.329 445.59 163.329C445.799 163.329 446.074 163.252 446.272 163.175L446.47 163.923C446.129 164.033 445.733 164.143 445.37 164.143ZM449.795 164.143C448.332 164.143 447.023 162.999 447.023 161.019C447.023 159.028 448.332 157.873 449.795 157.873C451.258 157.873 452.567 159.028 452.567 161.019C452.567 162.999 451.258 164.143 449.795 164.143ZM449.795 163.307C450.829 163.307 451.533 162.394 451.533 161.019C451.533 159.644 450.829 158.709 449.795 158.709C448.761 158.709 448.068 159.644 448.068 161.019C448.068 162.394 448.761 163.307 449.795 163.307ZM454.145 164V158.027H454.97L455.058 158.896H455.091C455.608 158.324 456.235 157.873 456.95 157.873C457.863 157.873 458.358 158.313 458.6 159.017C459.216 158.346 459.843 157.873 460.569 157.873C461.801 157.873 462.384 158.687 462.384 160.216V164H461.383V160.348C461.383 159.226 461.031 158.753 460.272 158.753C459.81 158.753 459.326 159.05 458.765 159.666V164H457.764V160.348C457.764 159.226 457.412 158.753 456.653 158.753C456.202 158.753 455.696 159.05 455.146 159.666V164H454.145ZM468.669 164.143C467.393 164.143 466.964 163.351 466.964 162.152V158.841H466.073V158.082L467.008 158.027L467.129 156.355H467.965V158.027H469.582V158.841H467.965V162.174C467.965 162.911 468.196 163.329 468.889 163.329C469.098 163.329 469.373 163.252 469.571 163.175L469.769 163.923C469.428 164.033 469.032 164.143 468.669 164.143ZM473.095 164.143C471.632 164.143 470.323 162.999 470.323 161.019C470.323 159.028 471.632 157.873 473.095 157.873C474.558 157.873 475.867 159.028 475.867 161.019C475.867 162.999 474.558 164.143 473.095 164.143ZM473.095 163.307C474.129 163.307 474.833 162.394 474.833 161.019C474.833 159.644 474.129 158.709 473.095 158.709C472.061 158.709 471.368 159.644 471.368 161.019C471.368 162.394 472.061 163.307 473.095 163.307ZM477.445 164V155.244H478.435V161.184H478.457L481.02 158.027H482.131L480.129 160.425L482.395 164H481.306L479.557 161.118L478.435 162.427V164H477.445ZM485.708 164.143C484.124 164.143 482.848 162.988 482.848 161.019C482.848 159.083 484.157 157.873 485.543 157.873C487.061 157.873 487.919 158.973 487.919 160.678C487.919 160.898 487.897 161.107 487.875 161.25H483.849C483.915 162.526 484.696 163.34 485.829 163.34C486.412 163.34 486.885 163.164 487.325 162.867L487.688 163.527C487.16 163.868 486.522 164.143 485.708 164.143ZM483.838 160.535H487.039C487.039 159.325 486.489 158.676 485.554 158.676C484.707 158.676 483.959 159.358 483.838 160.535ZM489.39 164V158.027H490.215L490.303 158.885H490.336C490.908 158.324 491.524 157.873 492.338 157.873C493.592 157.873 494.164 158.687 494.164 160.216V164H493.163V160.348C493.163 159.226 492.822 158.753 492.03 158.753C491.414 158.753 490.996 159.061 490.391 159.666V164H489.39ZM497.677 164.143C496.83 164.143 496.016 163.791 495.444 163.318L495.939 162.658C496.456 163.076 496.995 163.362 497.71 163.362C498.502 163.362 498.887 162.944 498.887 162.427C498.887 161.822 498.183 161.547 497.523 161.294C496.687 160.986 495.741 160.579 495.741 159.567C495.741 158.621 496.5 157.873 497.798 157.873C498.535 157.873 499.184 158.181 499.657 158.544L499.173 159.193C498.755 158.885 498.337 158.665 497.798 158.665C497.05 158.665 496.709 159.061 496.709 159.523C496.709 160.095 497.358 160.304 498.029 160.557C498.898 160.887 499.855 161.239 499.855 162.372C499.855 163.34 499.085 164.143 497.677 164.143ZM504.083 161.855C504.083 162.746 504.776 163.34 505.678 163.34C506.228 163.34 506.756 163.087 507.218 162.691C506.426 161.998 505.667 161.151 505.095 160.282C504.523 160.744 504.083 161.228 504.083 161.855ZM505.029 157.675C505.029 158.115 505.172 158.61 505.414 159.105C506.151 158.61 506.789 158.115 506.789 157.4C506.789 156.927 506.569 156.509 506.019 156.509C505.414 156.509 505.029 157.004 505.029 157.675ZM510.001 163.307L509.726 164.143C509.165 163.989 508.538 163.681 507.889 163.219C507.273 163.78 506.514 164.143 505.557 164.143C504.094 164.143 503.104 163.208 503.104 161.91C503.104 160.832 503.863 160.15 504.688 159.578C504.358 158.929 504.16 158.28 504.16 157.697C504.16 156.619 504.908 155.783 506.019 155.783C507.02 155.783 507.603 156.443 507.603 157.378C507.603 158.434 506.679 159.116 505.788 159.765C506.316 160.601 507.064 161.415 507.834 162.042C508.34 161.382 508.725 160.579 508.978 159.655H509.902C509.594 160.722 509.132 161.701 508.494 162.537C509.033 162.922 509.55 163.186 510.001 163.307ZM516.011 164.143C514.427 164.143 513.206 162.999 513.206 161.019C513.206 159.028 514.559 157.873 516.088 157.873C516.869 157.873 517.408 158.203 517.837 158.577L517.32 159.248C516.968 158.929 516.605 158.709 516.121 158.709C515.043 158.709 514.251 159.644 514.251 161.019C514.251 162.394 514.999 163.307 516.099 163.307C516.649 163.307 517.133 163.054 517.507 162.713L517.936 163.384C517.408 163.868 516.726 164.143 516.011 164.143ZM521.306 164.143C519.843 164.143 518.534 162.999 518.534 161.019C518.534 159.028 519.843 157.873 521.306 157.873C522.769 157.873 524.078 159.028 524.078 161.019C524.078 162.999 522.769 164.143 521.306 164.143ZM521.306 163.307C522.34 163.307 523.044 162.394 523.044 161.019C523.044 159.644 522.34 158.709 521.306 158.709C520.272 158.709 519.579 159.644 519.579 161.019C519.579 162.394 520.272 163.307 521.306 163.307ZM525.656 164V158.027H526.481L526.569 158.896H526.602C527.119 158.324 527.746 157.873 528.461 157.873C529.374 157.873 529.869 158.313 530.111 159.017C530.727 158.346 531.354 157.873 532.08 157.873C533.312 157.873 533.895 158.687 533.895 160.216V164H532.894V160.348C532.894 159.226 532.542 158.753 531.783 158.753C531.321 158.753 530.837 159.05 530.276 159.666V164H529.275V160.348C529.275 159.226 528.923 158.753 528.164 158.753C527.713 158.753 527.207 159.05 526.657 159.666V164H525.656ZM535.839 166.519V158.027H536.664L536.752 158.709H536.785C537.324 158.269 537.995 157.873 538.688 157.873C540.228 157.873 541.064 159.083 541.064 160.92C541.064 162.966 539.843 164.143 538.468 164.143C537.929 164.143 537.357 163.89 536.818 163.45L536.84 164.495V166.519H535.839ZM538.303 163.307C539.293 163.307 540.019 162.416 540.019 160.931C540.019 159.611 539.579 158.72 538.446 158.72C537.94 158.72 537.423 159.006 536.84 159.545V162.68C537.379 163.142 537.907 163.307 538.303 163.307ZM544.981 164.143C543.518 164.143 542.209 162.999 542.209 161.019C542.209 159.028 543.518 157.873 544.981 157.873C546.444 157.873 547.753 159.028 547.753 161.019C547.753 162.999 546.444 164.143 544.981 164.143ZM544.981 163.307C546.015 163.307 546.719 162.394 546.719 161.019C546.719 159.644 546.015 158.709 544.981 158.709C543.947 158.709 543.254 159.644 543.254 161.019C543.254 162.394 543.947 163.307 544.981 163.307ZM549.331 164V158.027H550.156L550.244 158.885H550.277C550.849 158.324 551.465 157.873 552.279 157.873C553.533 157.873 554.105 158.687 554.105 160.216V164H553.104V160.348C553.104 159.226 552.763 158.753 551.971 158.753C551.355 158.753 550.937 159.061 550.332 159.666V164H549.331ZM558.465 164.143C556.881 164.143 555.605 162.988 555.605 161.019C555.605 159.083 556.914 157.873 558.3 157.873C559.818 157.873 560.676 158.973 560.676 160.678C560.676 160.898 560.654 161.107 560.632 161.25H556.606C556.672 162.526 557.453 163.34 558.586 163.34C559.169 163.34 559.642 163.164 560.082 162.867L560.445 163.527C559.917 163.868 559.279 164.143 558.465 164.143ZM556.595 160.535H559.796C559.796 159.325 559.246 158.676 558.311 158.676C557.464 158.676 556.716 159.358 556.595 160.535ZM562.147 164V158.027H562.972L563.06 158.885H563.093C563.665 158.324 564.281 157.873 565.095 157.873C566.349 157.873 566.921 158.687 566.921 160.216V164H565.92V160.348C565.92 159.226 565.579 158.753 564.787 158.753C564.171 158.753 563.753 159.061 563.148 159.666V164H562.147ZM570.752 164.143C569.476 164.143 569.047 163.351 569.047 162.152V158.841H568.156V158.082L569.091 158.027L569.212 156.355H570.048V158.027H571.665V158.841H570.048V162.174C570.048 162.911 570.279 163.329 570.972 163.329C571.181 163.329 571.456 163.252 571.654 163.175L571.852 163.923C571.511 164.033 571.115 164.143 570.752 164.143ZM574.462 164.143C573.615 164.143 572.801 163.791 572.229 163.318L572.724 162.658C573.241 163.076 573.78 163.362 574.495 163.362C575.287 163.362 575.672 162.944 575.672 162.427C575.672 161.822 574.968 161.547 574.308 161.294C573.472 160.986 572.526 160.579 572.526 159.567C572.526 158.621 573.285 157.873 574.583 157.873C575.32 157.873 575.969 158.181 576.442 158.544L575.958 159.193C575.54 158.885 575.122 158.665 574.583 158.665C573.835 158.665 573.494 159.061 573.494 159.523C573.494 160.095 574.143 160.304 574.814 160.557C575.683 160.887 576.64 161.239 576.64 162.372C576.64 163.34 575.87 164.143 574.462 164.143Z" fill="black"/>
<rect width="48" height="240" rx="8" transform="matrix(-4.37114e-08 -1 -1 4.37114e-08 595 248)" fill="white"/>
<path d="M526.5 216C526.5 212.109 525.578 210.188 524.634 208.216C523.703 206.272 522.756 204.28 522.679 200.5L363 200.5C358.858 200.5 355.5 203.858 355.5 208L355.5 240C355.5 244.142 358.858 247.5 363 247.5L526.493 247.5C526.418 243.94 525.536 242.101 524.634 240.216C523.663 238.188 522.67 236.108 522.67 232C522.67 227.892 523.663 225.812 524.634 223.784C525.578 221.812 526.5 219.891 526.5 216Z" fill="var(--web-system-color-articleFigure-foreground-tertiary, #EFF2FC)" stroke="var(--web-system-color-articleFigure-foreground-primary, #8FAEFE)" stroke-miterlimit="10"/>
<rect x="-0.5" y="-0.5" width="47" height="239" rx="7.5" transform="matrix(-4.37114e-08 -1 -1 4.37114e-08 594 247)" stroke="var(--web-system-color-articleFigure-foreground-primary, #8FAEFE)"/>
<rect width="48" height="240" rx="8" transform="matrix(-4.37114e-08 -1 -1 4.37114e-08 595 312)" fill="white"/>
<path d="M486.5 280C486.5 276.108 485.578 274.188 484.635 272.216C483.705 270.272 482.758 268.28 482.681 264.5L363 264.5C358.858 264.5 355.5 267.858 355.5 272L355.5 304C355.5 308.142 358.858 311.5 363 311.5L486.493 311.5C486.418 307.94 485.537 306.101 484.635 304.216C483.664 302.188 482.673 300.108 482.673 296C482.673 291.892 483.664 289.812 484.635 287.784C485.578 285.812 486.5 283.892 486.5 280Z" fill="var(--web-system-color-articleFigure-foreground-tertiary, #EFF2FC)" stroke="var(--web-system-color-articleFigure-foreground-primary, #8FAEFE)" stroke-miterlimit="10"/>
<rect x="-0.5" y="-0.5" width="47" height="239" rx="7.5" transform="matrix(-4.37114e-08 -1 -1 4.37114e-08 594 311)" stroke="var(--web-system-color-articleFigure-foreground-primary, #8FAEFE)"/>
<path d="M626.553 91.4688V100H625.416L621.121 93.4199V100H619.99V91.4688H621.121L625.434 98.0664V91.4688H626.553ZM631.023 100.117C630.582 100.117 630.182 100.043 629.822 99.8945C629.467 99.7422 629.16 99.5293 628.902 99.2559C628.648 98.9824 628.453 98.6582 628.316 98.2832C628.18 97.9082 628.111 97.498 628.111 97.0527V96.8066C628.111 96.291 628.188 95.832 628.34 95.4297C628.492 95.0234 628.699 94.6797 628.961 94.3984C629.223 94.1172 629.52 93.9043 629.852 93.7598C630.184 93.6152 630.527 93.543 630.883 93.543C631.336 93.543 631.727 93.6211 632.055 93.7773C632.387 93.9336 632.658 94.1523 632.869 94.4336C633.08 94.7109 633.236 95.0391 633.338 95.418C633.439 95.793 633.49 96.2031 633.49 96.6484V97.1348H628.756V96.25H632.406V96.168C632.391 95.8867 632.332 95.6133 632.23 95.3477C632.133 95.082 631.977 94.8633 631.762 94.6914C631.547 94.5195 631.254 94.4336 630.883 94.4336C630.637 94.4336 630.41 94.4863 630.203 94.5918C629.996 94.6934 629.818 94.8457 629.67 95.0488C629.521 95.252 629.406 95.5 629.324 95.793C629.242 96.0859 629.201 96.4238 629.201 96.8066V97.0527C629.201 97.3535 629.242 97.6367 629.324 97.9023C629.41 98.1641 629.533 98.3945 629.693 98.5938C629.857 98.793 630.055 98.9492 630.285 99.0625C630.52 99.1758 630.785 99.2324 631.082 99.2324C631.465 99.2324 631.789 99.1543 632.055 98.998C632.32 98.8418 632.553 98.6328 632.752 98.3711L633.408 98.8926C633.271 99.0996 633.098 99.2969 632.887 99.4844C632.676 99.6719 632.416 99.8242 632.107 99.9414C631.803 100.059 631.441 100.117 631.023 100.117ZM636.361 98.875L637.99 93.6602H638.705L638.564 94.6973L636.906 100H636.209L636.361 98.875ZM635.266 93.6602L636.654 98.9336L636.754 100H636.021L634.182 93.6602H635.266ZM640.264 98.8926L641.588 93.6602H642.666L640.826 100H640.1L640.264 98.8926ZM638.863 93.6602L640.457 98.7871L640.639 100H639.947L638.242 94.6855L638.102 93.6602H638.863ZM646.75 91H647.84V98.7695L647.746 100H646.75V91ZM652.123 96.7773V96.9004C652.123 97.3613 652.068 97.7891 651.959 98.1836C651.85 98.5742 651.689 98.9141 651.479 99.2031C651.268 99.4922 651.01 99.7168 650.705 99.877C650.4 100.037 650.051 100.117 649.656 100.117C649.254 100.117 648.9 100.049 648.596 99.9121C648.295 99.7715 648.041 99.5703 647.834 99.3086C647.627 99.0469 647.461 98.7305 647.336 98.3594C647.215 97.9883 647.131 97.5703 647.084 97.1055V96.5664C647.131 96.0977 647.215 95.6777 647.336 95.3066C647.461 94.9355 647.627 94.6191 647.834 94.3574C648.041 94.0918 648.295 93.8906 648.596 93.7539C648.896 93.6133 649.246 93.543 649.645 93.543C650.043 93.543 650.396 93.6211 650.705 93.7773C651.014 93.9297 651.271 94.1484 651.479 94.4336C651.689 94.7188 651.85 95.0605 651.959 95.459C652.068 95.8535 652.123 96.293 652.123 96.7773ZM651.033 96.9004V96.7773C651.033 96.4609 651.004 96.1641 650.945 95.8867C650.887 95.6055 650.793 95.3594 650.664 95.1484C650.535 94.9336 650.365 94.7656 650.154 94.6445C649.943 94.5195 649.684 94.457 649.375 94.457C649.102 94.457 648.863 94.5039 648.66 94.5977C648.461 94.6914 648.291 94.8184 648.15 94.9785C648.01 95.1348 647.895 95.3145 647.805 95.5176C647.719 95.7168 647.654 95.9238 647.611 96.1387V97.5508C647.674 97.8242 647.775 98.0879 647.916 98.3418C648.061 98.5918 648.252 98.7969 648.49 98.957C648.732 99.1172 649.031 99.1973 649.387 99.1973C649.68 99.1973 649.93 99.1387 650.137 99.0215C650.348 98.9004 650.518 98.7344 650.646 98.5234C650.779 98.3125 650.877 98.0684 650.939 97.791C651.002 97.5137 651.033 97.2168 651.033 96.9004ZM657.373 98.5352V93.6602H658.463V100H657.426L657.373 98.5352ZM657.578 97.1992L658.029 97.1875C658.029 97.6094 657.984 98 657.895 98.3594C657.809 98.7148 657.668 99.0234 657.473 99.2852C657.277 99.5469 657.021 99.752 656.705 99.9004C656.389 100.045 656.004 100.117 655.551 100.117C655.242 100.117 654.959 100.072 654.701 99.9824C654.447 99.8926 654.229 99.7539 654.045 99.5664C653.861 99.3789 653.719 99.1348 653.617 98.834C653.52 98.5332 653.471 98.1719 653.471 97.75V93.6602H654.555V97.7617C654.555 98.0469 654.586 98.2832 654.648 98.4707C654.715 98.6543 654.803 98.8008 654.912 98.9102C655.025 99.0156 655.15 99.0898 655.287 99.1328C655.428 99.1758 655.572 99.1973 655.721 99.1973C656.182 99.1973 656.547 99.1094 656.816 98.9336C657.086 98.7539 657.279 98.5137 657.396 98.2129C657.518 97.9082 657.578 97.5703 657.578 97.1992ZM663.807 98.3184C663.807 98.1621 663.771 98.0176 663.701 97.8848C663.635 97.748 663.496 97.625 663.285 97.5156C663.078 97.4023 662.766 97.3047 662.348 97.2227C661.996 97.1484 661.678 97.0605 661.393 96.959C661.111 96.8574 660.871 96.7344 660.672 96.5898C660.477 96.4453 660.326 96.2754 660.221 96.0801C660.115 95.8848 660.062 95.6562 660.062 95.3945C660.062 95.1445 660.117 94.9082 660.227 94.6855C660.34 94.4629 660.498 94.2656 660.701 94.0938C660.908 93.9219 661.156 93.7871 661.445 93.6895C661.734 93.5918 662.057 93.543 662.412 93.543C662.92 93.543 663.354 93.6328 663.713 93.8125C664.072 93.9922 664.348 94.2324 664.539 94.5332C664.73 94.8301 664.826 95.1602 664.826 95.5234H663.742C663.742 95.3477 663.689 95.1777 663.584 95.0137C663.482 94.8457 663.332 94.707 663.133 94.5977C662.938 94.4883 662.697 94.4336 662.412 94.4336C662.111 94.4336 661.867 94.4805 661.68 94.5742C661.496 94.6641 661.361 94.7793 661.275 94.9199C661.193 95.0605 661.152 95.209 661.152 95.3652C661.152 95.4824 661.172 95.5879 661.211 95.6816C661.254 95.7715 661.328 95.8555 661.434 95.9336C661.539 96.0078 661.688 96.0781 661.879 96.1445C662.07 96.2109 662.314 96.2773 662.611 96.3438C663.131 96.4609 663.559 96.6016 663.895 96.7656C664.23 96.9297 664.48 97.1309 664.645 97.3691C664.809 97.6074 664.891 97.8965 664.891 98.2363C664.891 98.5137 664.832 98.7676 664.715 98.998C664.602 99.2285 664.436 99.4277 664.217 99.5957C664.002 99.7598 663.744 99.8887 663.443 99.9824C663.146 100.072 662.812 100.117 662.441 100.117C661.883 100.117 661.41 100.018 661.023 99.8184C660.637 99.6191 660.344 99.3613 660.145 99.0449C659.945 98.7285 659.846 98.3945 659.846 98.043H660.936C660.951 98.3398 661.037 98.5762 661.193 98.752C661.35 98.9238 661.541 99.0469 661.768 99.1211C661.994 99.1914 662.219 99.2266 662.441 99.2266C662.738 99.2266 662.986 99.1875 663.186 99.1094C663.389 99.0312 663.543 98.9238 663.648 98.7871C663.754 98.6504 663.807 98.4941 663.807 98.3184ZM667.492 93.6602V100H666.402V93.6602H667.492ZM666.32 91.9785C666.32 91.8027 666.373 91.6543 666.479 91.5332C666.588 91.4121 666.748 91.3516 666.959 91.3516C667.166 91.3516 667.324 91.4121 667.434 91.5332C667.547 91.6543 667.604 91.8027 667.604 91.9785C667.604 92.1465 667.547 92.291 667.434 92.4121C667.324 92.5293 667.166 92.5879 666.959 92.5879C666.748 92.5879 666.588 92.5293 666.479 92.4121C666.373 92.291 666.32 92.1465 666.32 91.9785ZM670.316 95.0137V100H669.232V93.6602H670.258L670.316 95.0137ZM670.059 96.5898L669.607 96.5723C669.611 96.1387 669.676 95.7383 669.801 95.3711C669.926 95 670.102 94.6777 670.328 94.4043C670.555 94.1309 670.824 93.9199 671.137 93.7715C671.453 93.6191 671.803 93.543 672.186 93.543C672.498 93.543 672.779 93.5859 673.029 93.6719C673.279 93.7539 673.492 93.8867 673.668 94.0703C673.848 94.2539 673.984 94.4922 674.078 94.7852C674.172 95.0742 674.219 95.4277 674.219 95.8457V100H673.129V95.834C673.129 95.502 673.08 95.2363 672.982 95.0371C672.885 94.834 672.742 94.6875 672.555 94.5977C672.367 94.5039 672.137 94.457 671.863 94.457C671.594 94.457 671.348 94.5137 671.125 94.627C670.906 94.7402 670.717 94.8965 670.557 95.0957C670.4 95.2949 670.277 95.5234 670.188 95.7812C670.102 96.0352 670.059 96.3047 670.059 96.5898ZM678.496 100.117C678.055 100.117 677.654 100.043 677.295 99.8945C676.939 99.7422 676.633 99.5293 676.375 99.2559C676.121 98.9824 675.926 98.6582 675.789 98.2832C675.652 97.9082 675.584 97.498 675.584 97.0527V96.8066C675.584 96.291 675.66 95.832 675.812 95.4297C675.965 95.0234 676.172 94.6797 676.434 94.3984C676.695 94.1172 676.992 93.9043 677.324 93.7598C677.656 93.6152 678 93.543 678.355 93.543C678.809 93.543 679.199 93.6211 679.527 93.7773C679.859 93.9336 680.131 94.1523 680.342 94.4336C680.553 94.7109 680.709 95.0391 680.811 95.418C680.912 95.793 680.963 96.2031 680.963 96.6484V97.1348H676.229V96.25H679.879V96.168C679.863 95.8867 679.805 95.6133 679.703 95.3477C679.605 95.082 679.449 94.8633 679.234 94.6914C679.02 94.5195 678.727 94.4336 678.355 94.4336C678.109 94.4336 677.883 94.4863 677.676 94.5918C677.469 94.6934 677.291 94.8457 677.143 95.0488C676.994 95.252 676.879 95.5 676.797 95.793C676.715 96.0859 676.674 96.4238 676.674 96.8066V97.0527C676.674 97.3535 676.715 97.6367 676.797 97.9023C676.883 98.1641 677.006 98.3945 677.166 98.5938C677.33 98.793 677.527 98.9492 677.758 99.0625C677.992 99.1758 678.258 99.2324 678.555 99.2324C678.938 99.2324 679.262 99.1543 679.527 98.998C679.793 98.8418 680.025 98.6328 680.225 98.3711L680.881 98.8926C680.744 99.0996 680.57 99.2969 680.359 99.4844C680.148 99.6719 679.889 99.8242 679.58 99.9414C679.275 100.059 678.914 100.117 678.496 100.117ZM685.92 98.3184C685.92 98.1621 685.885 98.0176 685.814 97.8848C685.748 97.748 685.609 97.625 685.398 97.5156C685.191 97.4023 684.879 97.3047 684.461 97.2227C684.109 97.1484 683.791 97.0605 683.506 96.959C683.225 96.8574 682.984 96.7344 682.785 96.5898C682.59 96.4453 682.439 96.2754 682.334 96.0801C682.229 95.8848 682.176 95.6562 682.176 95.3945C682.176 95.1445 682.23 94.9082 682.34 94.6855C682.453 94.4629 682.611 94.2656 682.814 94.0938C683.021 93.9219 683.27 93.7871 683.559 93.6895C683.848 93.5918 684.17 93.543 684.525 93.543C685.033 93.543 685.467 93.6328 685.826 93.8125C686.186 93.9922 686.461 94.2324 686.652 94.5332C686.844 94.8301 686.939 95.1602 686.939 95.5234H685.855C685.855 95.3477 685.803 95.1777 685.697 95.0137C685.596 94.8457 685.445 94.707 685.246 94.5977C685.051 94.4883 684.811 94.4336 684.525 94.4336C684.225 94.4336 683.98 94.4805 683.793 94.5742C683.609 94.6641 683.475 94.7793 683.389 94.9199C683.307 95.0605 683.266 95.209 683.266 95.3652C683.266 95.4824 683.285 95.5879 683.324 95.6816C683.367 95.7715 683.441 95.8555 683.547 95.9336C683.652 96.0078 683.801 96.0781 683.992 96.1445C684.184 96.2109 684.428 96.2773 684.725 96.3438C685.244 96.4609 685.672 96.6016 686.008 96.7656C686.344 96.9297 686.594 97.1309 686.758 97.3691C686.922 97.6074 687.004 97.8965 687.004 98.2363C687.004 98.5137 686.945 98.7676 686.828 98.998C686.715 99.2285 686.549 99.4277 686.33 99.5957C686.115 99.7598 685.857 99.8887 685.557 99.9824C685.26 100.072 684.926 100.117 684.555 100.117C683.996 100.117 683.523 100.018 683.137 99.8184C682.75 99.6191 682.457 99.3613 682.258 99.0449C682.059 98.7285 681.959 98.3945 681.959 98.043H683.049C683.064 98.3398 683.15 98.5762 683.307 98.752C683.463 98.9238 683.654 99.0469 683.881 99.1211C684.107 99.1914 684.332 99.2266 684.555 99.2266C684.852 99.2266 685.1 99.1875 685.299 99.1094C685.502 99.0312 685.656 98.9238 685.762 98.7871C685.867 98.6504 685.92 98.4941 685.92 98.3184ZM692.119 98.3184C692.119 98.1621 692.084 98.0176 692.014 97.8848C691.947 97.748 691.809 97.625 691.598 97.5156C691.391 97.4023 691.078 97.3047 690.66 97.2227C690.309 97.1484 689.99 97.0605 689.705 96.959C689.424 96.8574 689.184 96.7344 688.984 96.5898C688.789 96.4453 688.639 96.2754 688.533 96.0801C688.428 95.8848 688.375 95.6562 688.375 95.3945C688.375 95.1445 688.43 94.9082 688.539 94.6855C688.652 94.4629 688.811 94.2656 689.014 94.0938C689.221 93.9219 689.469 93.7871 689.758 93.6895C690.047 93.5918 690.369 93.543 690.725 93.543C691.232 93.543 691.666 93.6328 692.025 93.8125C692.385 93.9922 692.66 94.2324 692.852 94.5332C693.043 94.8301 693.139 95.1602 693.139 95.5234H692.055C692.055 95.3477 692.002 95.1777 691.896 95.0137C691.795 94.8457 691.645 94.707 691.445 94.5977C691.25 94.4883 691.01 94.4336 690.725 94.4336C690.424 94.4336 690.18 94.4805 689.992 94.5742C689.809 94.6641 689.674 94.7793 689.588 94.9199C689.506 95.0605 689.465 95.209 689.465 95.3652C689.465 95.4824 689.484 95.5879 689.523 95.6816C689.566 95.7715 689.641 95.8555 689.746 95.9336C689.852 96.0078 690 96.0781 690.191 96.1445C690.383 96.2109 690.627 96.2773 690.924 96.3438C691.443 96.4609 691.871 96.6016 692.207 96.7656C692.543 96.9297 692.793 97.1309 692.957 97.3691C693.121 97.6074 693.203 97.8965 693.203 98.2363C693.203 98.5137 693.145 98.7676 693.027 98.998C692.914 99.2285 692.748 99.4277 692.529 99.5957C692.314 99.7598 692.057 99.8887 691.756 99.9824C691.459 100.072 691.125 100.117 690.754 100.117C690.195 100.117 689.723 100.018 689.336 99.8184C688.949 99.6191 688.656 99.3613 688.457 99.0449C688.258 98.7285 688.158 98.3945 688.158 98.043H689.248C689.264 98.3398 689.35 98.5762 689.506 98.752C689.662 98.9238 689.854 99.0469 690.08 99.1211C690.307 99.1914 690.531 99.2266 690.754 99.2266C691.051 99.2266 691.299 99.1875 691.498 99.1094C691.701 99.0312 691.855 98.9238 691.961 98.7871C692.066 98.6504 692.119 98.4941 692.119 98.3184Z" fill="black"/>
<path d="M620.2 165V156.204H622.816C624.604 156.204 625.84 156.804 625.84 158.352C625.84 159.228 625.372 159.996 624.544 160.26V160.32C625.6 160.524 626.344 161.22 626.344 162.42C626.344 164.148 624.976 165 623.008 165H620.2ZM621.316 159.948H622.624C624.136 159.948 624.748 159.384 624.748 158.496C624.748 157.464 624.04 157.08 622.672 157.08H621.316V159.948ZM621.316 164.112H622.852C624.364 164.112 625.252 163.572 625.252 162.384C625.252 161.292 624.388 160.8 622.852 160.8H621.316V164.112ZM629.887 165.156C628.519 165.156 627.907 164.268 627.907 162.612V158.484H628.999V162.48C628.999 163.692 629.359 164.208 630.223 164.208C630.895 164.208 631.363 163.884 631.987 163.104V158.484H633.079V165H632.167L632.083 163.98H632.047C631.435 164.688 630.787 165.156 629.887 165.156ZM636.984 165.156C636.06 165.156 635.172 164.772 634.548 164.256L635.088 163.536C635.652 163.992 636.24 164.304 637.02 164.304C637.884 164.304 638.304 163.848 638.304 163.284C638.304 162.624 637.536 162.324 636.816 162.048C635.904 161.712 634.872 161.268 634.872 160.164C634.872 159.132 635.7 158.316 637.116 158.316C637.92 158.316 638.628 158.652 639.144 159.048L638.616 159.756C638.16 159.42 637.704 159.18 637.116 159.18C636.3 159.18 635.928 159.612 635.928 160.116C635.928 160.74 636.636 160.968 637.368 161.244C638.316 161.604 639.36 161.988 639.36 163.224C639.36 164.28 638.52 165.156 636.984 165.156ZM640.893 165V158.484H641.985V165H640.893ZM641.445 157.14C641.013 157.14 640.689 156.84 640.689 156.432C640.689 155.988 641.013 155.724 641.445 155.724C641.877 155.724 642.201 155.988 642.201 156.432C642.201 156.84 641.877 157.14 641.445 157.14ZM644.198 165V158.484H645.098L645.194 159.42H645.23C645.854 158.808 646.526 158.316 647.414 158.316C648.782 158.316 649.406 159.204 649.406 160.872V165H648.314V161.016C648.314 159.792 647.942 159.276 647.078 159.276C646.406 159.276 645.95 159.612 645.29 160.272V165H644.198ZM654.162 165.156C652.434 165.156 651.042 163.896 651.042 161.748C651.042 159.636 652.47 158.316 653.982 158.316C655.638 158.316 656.574 159.516 656.574 161.376C656.574 161.616 656.55 161.844 656.526 162H652.134C652.206 163.392 653.058 164.28 654.294 164.28C654.93 164.28 655.446 164.088 655.926 163.764L656.322 164.484C655.746 164.856 655.05 165.156 654.162 165.156ZM652.122 161.22H655.614C655.614 159.9 655.014 159.192 653.994 159.192C653.07 159.192 652.254 159.936 652.122 161.22ZM659.882 165.156C658.958 165.156 658.07 164.772 657.446 164.256L657.986 163.536C658.55 163.992 659.138 164.304 659.918 164.304C660.782 164.304 661.202 163.848 661.202 163.284C661.202 162.624 660.434 162.324 659.714 162.048C658.802 161.712 657.77 161.268 657.77 160.164C657.77 159.132 658.598 158.316 660.014 158.316C660.818 158.316 661.526 158.652 662.042 159.048L661.514 159.756C661.058 159.42 660.602 159.18 660.014 159.18C659.198 159.18 658.826 159.612 658.826 160.116C658.826 160.74 659.534 160.968 660.266 161.244C661.214 161.604 662.258 161.988 662.258 163.224C662.258 164.28 661.418 165.156 659.882 165.156ZM665.496 165.156C664.572 165.156 663.684 164.772 663.06 164.256L663.6 163.536C664.164 163.992 664.752 164.304 665.532 164.304C666.396 164.304 666.816 163.848 666.816 163.284C666.816 162.624 666.048 162.324 665.328 162.048C664.416 161.712 663.384 161.268 663.384 160.164C663.384 159.132 664.212 158.316 665.628 158.316C666.432 158.316 667.14 158.652 667.656 159.048L667.128 159.756C666.672 159.42 666.215 159.18 665.628 159.18C664.812 159.18 664.44 159.612 664.44 160.116C664.44 160.74 665.148 160.968 665.88 161.244C666.828 161.604 667.872 161.988 667.872 163.224C667.872 164.28 667.032 165.156 665.496 165.156ZM673.276 161.424H675.94L675.52 160.08C675.196 159.084 674.92 158.124 674.632 157.104H674.584C674.308 158.136 674.02 159.084 673.708 160.08L673.276 161.424ZM677.056 165L676.216 162.312H673L672.148 165H671.02L674.008 156.204H675.244L678.232 165H677.056Z" fill="black"/>
<path d="M620.2 229V220.204H622.816C624.604 220.204 625.84 220.804 625.84 222.352C625.84 223.228 625.372 223.996 624.544 224.26V224.32C625.6 224.524 626.344 225.22 626.344 226.42C626.344 228.148 624.976 229 623.008 229H620.2ZM621.316 223.948H622.624C624.136 223.948 624.748 223.384 624.748 222.496C624.748 221.464 624.04 221.08 622.672 221.08H621.316V223.948ZM621.316 228.112H622.852C624.364 228.112 625.252 227.572 625.252 226.384C625.252 225.292 624.388 224.8 622.852 224.8H621.316V228.112ZM629.887 229.156C628.519 229.156 627.907 228.268 627.907 226.612V222.484H628.999V226.48C628.999 227.692 629.359 228.208 630.223 228.208C630.895 228.208 631.363 227.884 631.987 227.104V222.484H633.079V229H632.167L632.083 227.98H632.047C631.435 228.688 630.787 229.156 629.887 229.156ZM636.984 229.156C636.06 229.156 635.172 228.772 634.548 228.256L635.088 227.536C635.652 227.992 636.24 228.304 637.02 228.304C637.884 228.304 638.304 227.848 638.304 227.284C638.304 226.624 637.536 226.324 636.816 226.048C635.904 225.712 634.872 225.268 634.872 224.164C634.872 223.132 635.7 222.316 637.116 222.316C637.92 222.316 638.628 222.652 639.144 223.048L638.616 223.756C638.16 223.42 637.704 223.18 637.116 223.18C636.3 223.18 635.928 223.612 635.928 224.116C635.928 224.74 636.636 224.968 637.368 225.244C638.316 225.604 639.36 225.988 639.36 227.224C639.36 228.28 638.52 229.156 636.984 229.156ZM640.893 229V222.484H641.985V229H640.893ZM641.445 221.14C641.013 221.14 640.689 220.84 640.689 220.432C640.689 219.988 641.013 219.724 641.445 219.724C641.877 219.724 642.201 219.988 642.201 220.432C642.201 220.84 641.877 221.14 641.445 221.14ZM644.198 229V222.484H645.098L645.194 223.42H645.23C645.854 222.808 646.526 222.316 647.414 222.316C648.782 222.316 649.406 223.204 649.406 224.872V229H648.314V225.016C648.314 223.792 647.942 223.276 647.078 223.276C646.406 223.276 645.95 223.612 645.29 224.272V229H644.198ZM654.162 229.156C652.434 229.156 651.042 227.896 651.042 225.748C651.042 223.636 652.47 222.316 653.982 222.316C655.638 222.316 656.574 223.516 656.574 225.376C656.574 225.616 656.55 225.844 656.526 226H652.134C652.206 227.392 653.058 228.28 654.294 228.28C654.93 228.28 655.446 228.088 655.926 227.764L656.322 228.484C655.746 228.856 655.05 229.156 654.162 229.156ZM652.122 225.22H655.614C655.614 223.9 655.014 223.192 653.994 223.192C653.07 223.192 652.254 223.936 652.122 225.22ZM659.882 229.156C658.958 229.156 658.07 228.772 657.446 228.256L657.986 227.536C658.55 227.992 659.138 228.304 659.918 228.304C660.782 228.304 661.202 227.848 661.202 227.284C661.202 226.624 660.434 226.324 659.714 226.048C658.802 225.712 657.77 225.268 657.77 224.164C657.77 223.132 658.598 222.316 660.014 222.316C660.818 222.316 661.526 222.652 662.042 223.048L661.514 223.756C661.058 223.42 660.602 223.18 660.014 223.18C659.198 223.18 658.826 223.612 658.826 224.116C658.826 224.74 659.534 224.968 660.266 225.244C661.214 225.604 662.258 225.988 662.258 227.224C662.258 228.28 661.418 229.156 659.882 229.156ZM665.496 229.156C664.572 229.156 663.684 228.772 663.06 228.256L663.6 227.536C664.164 227.992 664.752 228.304 665.532 228.304C666.396 228.304 666.816 227.848 666.816 227.284C666.816 226.624 666.048 226.324 665.328 226.048C664.416 225.712 663.384 225.268 663.384 224.164C663.384 223.132 664.212 222.316 665.628 222.316C666.432 222.316 667.14 222.652 667.656 223.048L667.128 223.756C666.672 223.42 666.215 223.18 665.628 223.18C664.812 223.18 664.44 223.612 664.44 224.116C664.44 224.74 665.148 224.968 665.88 225.244C666.828 225.604 667.872 225.988 667.872 227.224C667.872 228.28 667.032 229.156 665.496 229.156ZM672.184 229V220.204H674.8C676.588 220.204 677.824 220.804 677.824 222.352C677.824 223.228 677.356 223.996 676.528 224.26V224.32C677.584 224.524 678.328 225.22 678.328 226.42C678.328 228.148 676.96 229 674.992 229H672.184ZM673.3 223.948H674.608C676.12 223.948 676.732 223.384 676.732 222.496C676.732 221.464 676.024 221.08 674.656 221.08H673.3V223.948ZM673.3 228.112H674.836C676.348 228.112 677.236 227.572 677.236 226.384C677.236 225.292 676.372 224.8 674.836 224.8H673.3V228.112Z" fill="black"/>
<path d="M620.2 293V284.204H622.816C624.604 284.204 625.84 284.804 625.84 286.352C625.84 287.228 625.372 287.996 624.544 288.26V288.32C625.6 288.524 626.344 289.22 626.344 290.42C626.344 292.148 624.976 293 623.008 293H620.2ZM621.316 287.948H622.624C624.136 287.948 624.748 287.384 624.748 286.496C624.748 285.464 624.04 285.08 622.672 285.08H621.316V287.948ZM621.316 292.112H622.852C624.364 292.112 625.252 291.572 625.252 290.384C625.252 289.292 624.388 288.8 622.852 288.8H621.316V292.112ZM629.887 293.156C628.519 293.156 627.907 292.268 627.907 290.612V286.484H628.999V290.48C628.999 291.692 629.359 292.208 630.223 292.208C630.895 292.208 631.363 291.884 631.987 291.104V286.484H633.079V293H632.167L632.083 291.98H632.047C631.435 292.688 630.787 293.156 629.887 293.156ZM636.984 293.156C636.06 293.156 635.172 292.772 634.548 292.256L635.088 291.536C635.652 291.992 636.24 292.304 637.02 292.304C637.884 292.304 638.304 291.848 638.304 291.284C638.304 290.624 637.536 290.324 636.816 290.048C635.904 289.712 634.872 289.268 634.872 288.164C634.872 287.132 635.7 286.316 637.116 286.316C637.92 286.316 638.628 286.652 639.144 287.048L638.616 287.756C638.16 287.42 637.704 287.18 637.116 287.18C636.3 287.18 635.928 287.612 635.928 288.116C635.928 288.74 636.636 288.968 637.368 289.244C638.316 289.604 639.36 289.988 639.36 291.224C639.36 292.28 638.52 293.156 636.984 293.156ZM640.893 293V286.484H641.985V293H640.893ZM641.445 285.14C641.013 285.14 640.689 284.84 640.689 284.432C640.689 283.988 641.013 283.724 641.445 283.724C641.877 283.724 642.201 283.988 642.201 284.432C642.201 284.84 641.877 285.14 641.445 285.14ZM644.198 293V286.484H645.098L645.194 287.42H645.23C645.854 286.808 646.526 286.316 647.414 286.316C648.782 286.316 649.406 287.204 649.406 288.872V293H648.314V289.016C648.314 287.792 647.942 287.276 647.078 287.276C646.406 287.276 645.95 287.612 645.29 288.272V293H644.198ZM654.162 293.156C652.434 293.156 651.042 291.896 651.042 289.748C651.042 287.636 652.47 286.316 653.982 286.316C655.638 286.316 656.574 287.516 656.574 289.376C656.574 289.616 656.55 289.844 656.526 290H652.134C652.206 291.392 653.058 292.28 654.294 292.28C654.93 292.28 655.446 292.088 655.926 291.764L656.322 292.484C655.746 292.856 655.05 293.156 654.162 293.156ZM652.122 289.22H655.614C655.614 287.9 655.014 287.192 653.994 287.192C653.07 287.192 652.254 287.936 652.122 289.22ZM659.882 293.156C658.958 293.156 658.07 292.772 657.446 292.256L657.986 291.536C658.55 291.992 659.138 292.304 659.918 292.304C660.782 292.304 661.202 291.848 661.202 291.284C661.202 290.624 660.434 290.324 659.714 290.048C658.802 289.712 657.77 289.268 657.77 288.164C657.77 287.132 658.598 286.316 660.014 286.316C660.818 286.316 661.526 286.652 662.042 287.048L661.514 287.756C661.058 287.42 660.602 287.18 660.014 287.18C659.198 287.18 658.826 287.612 658.826 288.116C658.826 288.74 659.534 288.968 660.266 289.244C661.214 289.604 662.258 289.988 662.258 291.224C662.258 292.28 661.418 293.156 659.882 293.156ZM665.496 293.156C664.572 293.156 663.684 292.772 663.06 292.256L663.6 291.536C664.164 291.992 664.752 292.304 665.532 292.304C666.396 292.304 666.816 291.848 666.816 291.284C666.816 290.624 666.048 290.324 665.328 290.048C664.416 289.712 663.384 289.268 663.384 288.164C663.384 287.132 664.212 286.316 665.628 286.316C666.432 286.316 667.14 286.652 667.656 287.048L667.128 287.756C666.672 287.42 666.215 287.18 665.628 287.18C664.812 287.18 664.44 287.612 664.44 288.116C664.44 288.74 665.148 288.968 665.88 289.244C666.828 289.604 667.872 289.988 667.872 291.224C667.872 292.28 667.032 293.156 665.496 293.156ZM675.508 293.156C673.324 293.156 671.68 291.464 671.68 288.608C671.68 285.764 673.348 284.036 675.58 284.036C676.648 284.036 677.488 284.564 677.992 285.128L677.392 285.848C676.936 285.356 676.348 285.008 675.592 285.008C673.924 285.008 672.82 286.376 672.82 288.572C672.82 290.792 673.876 292.184 675.556 292.184C676.396 292.184 677.032 291.812 677.596 291.2L678.208 291.896C677.512 292.7 676.648 293.156 675.508 293.156Z" fill="black"/>
<path d="M386.2 45V36.204H388.408C391.108 36.204 392.56 37.776 392.56 40.572C392.56 43.356 391.108 45 388.456 45H386.2ZM387.316 44.088H388.312C390.388 44.088 391.408 42.792 391.408 40.572C391.408 38.34 390.388 37.104 388.312 37.104H387.316V44.088ZM396.97 45.156C395.242 45.156 393.85 43.896 393.85 41.748C393.85 39.636 395.278 38.316 396.79 38.316C398.446 38.316 399.382 39.516 399.382 41.376C399.382 41.616 399.358 41.844 399.334 42H394.942C395.014 43.392 395.866 44.28 397.102 44.28C397.738 44.28 398.254 44.088 398.734 43.764L399.13 44.484C398.554 44.856 397.858 45.156 396.97 45.156ZM394.93 41.22H398.422C398.422 39.9 397.822 39.192 396.802 39.192C395.878 39.192 395.062 39.936 394.93 41.22ZM402.691 45.156C401.767 45.156 400.879 44.772 400.255 44.256L400.795 43.536C401.359 43.992 401.947 44.304 402.727 44.304C403.591 44.304 404.011 43.848 404.011 43.284C404.011 42.624 403.243 42.324 402.523 42.048C401.611 41.712 400.579 41.268 400.579 40.164C400.579 39.132 401.407 38.316 402.823 38.316C403.627 38.316 404.335 38.652 404.851 39.048L404.323 39.756C403.867 39.42 403.411 39.18 402.823 39.18C402.007 39.18 401.635 39.612 401.635 40.116C401.635 40.74 402.343 40.968 403.075 41.244C404.023 41.604 405.067 41.988 405.067 43.224C405.067 44.28 404.227 45.156 402.691 45.156ZM406.6 45V38.484H407.692V45H406.6ZM407.152 37.14C406.72 37.14 406.396 36.84 406.396 36.432C406.396 35.988 406.72 35.724 407.152 35.724C407.584 35.724 407.908 35.988 407.908 36.432C407.908 36.84 407.584 37.14 407.152 37.14ZM412.101 48C410.505 48 409.401 47.376 409.401 46.248C409.401 45.696 409.761 45.168 410.373 44.772V44.724C410.025 44.52 409.773 44.172 409.773 43.656C409.773 43.116 410.169 42.684 410.505 42.444V42.396C410.073 42.048 409.653 41.424 409.653 40.644C409.653 39.216 410.781 38.316 412.101 38.316C412.461 38.316 412.785 38.4 413.013 38.484H415.281V39.324H413.949C414.261 39.624 414.477 40.104 414.477 40.668C414.477 42.06 413.421 42.936 412.101 42.936C411.777 42.936 411.417 42.852 411.129 42.708C410.889 42.912 410.709 43.128 410.709 43.488C410.709 43.908 410.973 44.196 411.849 44.196H413.121C414.633 44.196 415.389 44.676 415.389 45.744C415.389 46.956 414.117 48 412.101 48ZM412.101 42.192C412.845 42.192 413.481 41.592 413.481 40.644C413.481 39.696 412.869 39.12 412.101 39.12C411.333 39.12 410.709 39.684 410.709 40.644C410.709 41.592 411.345 42.192 412.101 42.192ZM412.257 47.256C413.505 47.256 414.333 46.596 414.333 45.912C414.333 45.312 413.865 45.108 413.001 45.108H411.873C411.633 45.108 411.321 45.072 411.033 45C410.565 45.336 410.361 45.72 410.361 46.104C410.361 46.8 411.069 47.256 412.257 47.256ZM416.667 45V38.484H417.567L417.663 39.42H417.699C418.323 38.808 418.995 38.316 419.883 38.316C421.251 38.316 421.875 39.204 421.875 40.872V45H420.783V41.016C420.783 39.792 420.411 39.276 419.547 39.276C418.875 39.276 418.419 39.612 417.759 40.272V45H416.667ZM428.39 45.156C427.466 45.156 426.578 44.772 425.954 44.256L426.494 43.536C427.058 43.992 427.646 44.304 428.426 44.304C429.29 44.304 429.71 43.848 429.71 43.284C429.71 42.624 428.942 42.324 428.222 42.048C427.31 41.712 426.278 41.268 426.278 40.164C426.278 39.132 427.106 38.316 428.522 38.316C429.326 38.316 430.034 38.652 430.55 39.048L430.022 39.756C429.566 39.42 429.11 39.18 428.522 39.18C427.706 39.18 427.334 39.612 427.334 40.116C427.334 40.74 428.042 40.968 428.774 41.244C429.722 41.604 430.766 41.988 430.766 43.224C430.766 44.28 429.926 45.156 428.39 45.156ZM432.407 47.808C432.095 47.808 431.843 47.76 431.639 47.676L431.855 46.8C431.987 46.848 432.179 46.908 432.347 46.908C433.091 46.908 433.559 46.308 433.823 45.504L433.967 45.012L431.351 38.484H432.491L433.823 42.108C434.015 42.672 434.243 43.344 434.447 43.932H434.507C434.687 43.344 434.879 42.684 435.059 42.108L436.223 38.484H437.291L434.831 45.54C434.375 46.824 433.703 47.808 432.407 47.808ZM440.261 45.156C439.337 45.156 438.449 44.772 437.825 44.256L438.365 43.536C438.929 43.992 439.517 44.304 440.297 44.304C441.161 44.304 441.581 43.848 441.581 43.284C441.581 42.624 440.813 42.324 440.093 42.048C439.181 41.712 438.149 41.268 438.149 40.164C438.149 39.132 438.977 38.316 440.393 38.316C441.197 38.316 441.905 38.652 442.421 39.048L441.893 39.756C441.437 39.42 440.981 39.18 440.393 39.18C439.577 39.18 439.205 39.612 439.205 40.116C439.205 40.74 439.913 40.968 440.645 41.244C441.593 41.604 442.637 41.988 442.637 43.224C442.637 44.28 441.797 45.156 440.261 45.156ZM445.953 45.156C444.561 45.156 444.093 44.292 444.093 42.984V39.372H443.121V38.544L444.141 38.484L444.273 36.66H445.185V38.484H446.949V39.372H445.185V43.008C445.185 43.812 445.437 44.268 446.193 44.268C446.421 44.268 446.721 44.184 446.937 44.1L447.153 44.916C446.781 45.036 446.349 45.156 445.953 45.156ZM450.877 45.156C449.149 45.156 447.757 43.896 447.757 41.748C447.757 39.636 449.185 38.316 450.697 38.316C452.353 38.316 453.289 39.516 453.289 41.376C453.289 41.616 453.265 41.844 453.241 42H448.849C448.921 43.392 449.773 44.28 451.009 44.28C451.645 44.28 452.161 44.088 452.641 43.764L453.037 44.484C452.461 44.856 451.765 45.156 450.877 45.156ZM448.837 41.22H452.329C452.329 39.9 451.729 39.192 450.709 39.192C449.785 39.192 448.969 39.936 448.837 41.22ZM454.893 45V38.484H455.793L455.889 39.432H455.925C456.489 38.808 457.173 38.316 457.953 38.316C458.949 38.316 459.489 38.796 459.753 39.564C460.425 38.832 461.109 38.316 461.901 38.316C463.245 38.316 463.881 39.204 463.881 40.872V45H462.789V41.016C462.789 39.792 462.405 39.276 461.577 39.276C461.073 39.276 460.545 39.6 459.933 40.272V45H458.841V41.016C458.841 39.792 458.457 39.276 457.629 39.276C457.137 39.276 456.585 39.6 455.985 40.272V45H454.893ZM471.854 35.508L471.614 36.336C471.374 36.228 471.11 36.168 470.882 36.168C470.258 36.168 469.958 36.612 469.958 37.452V38.484H471.338V39.372H469.958V45H468.866V39.372H467.978V38.544L468.866 38.484V37.44C468.866 36.12 469.466 35.292 470.762 35.292C471.158 35.292 471.542 35.376 471.854 35.508ZM474.991 45.156C473.395 45.156 471.967 43.908 471.967 41.748C471.967 39.576 473.395 38.316 474.991 38.316C476.587 38.316 478.015 39.576 478.015 41.748C478.015 43.908 476.587 45.156 474.991 45.156ZM474.991 44.244C476.119 44.244 476.887 43.248 476.887 41.748C476.887 40.248 476.119 39.228 474.991 39.228C473.863 39.228 473.107 40.248 473.107 41.748C473.107 43.248 473.863 44.244 474.991 44.244ZM479.737 45V38.484H480.637L480.733 39.672H480.769C481.225 38.844 481.885 38.316 482.617 38.316C482.905 38.316 483.109 38.352 483.313 38.46L483.109 39.42C482.893 39.336 482.737 39.312 482.473 39.312C481.933 39.312 481.261 39.696 480.829 40.812V45H479.737ZM489.701 45.156C487.973 45.156 486.581 43.896 486.581 41.748C486.581 39.636 488.009 38.316 489.521 38.316C491.177 38.316 492.113 39.516 492.113 41.376C492.113 41.616 492.089 41.844 492.065 42H487.673C487.745 43.392 488.597 44.28 489.833 44.28C490.469 44.28 490.985 44.088 491.465 43.764L491.861 44.484C491.285 44.856 490.589 45.156 489.701 45.156ZM487.661 41.22H491.153C491.153 39.9 490.553 39.192 489.533 39.192C488.609 39.192 487.793 39.936 487.661 41.22ZM495.03 45.156C493.938 45.156 493.122 44.484 493.122 43.308C493.122 41.892 494.358 41.184 497.13 40.872C497.13 40.032 496.854 39.228 495.786 39.228C495.03 39.228 494.346 39.576 493.83 39.924L493.398 39.168C493.998 38.784 494.922 38.316 495.966 38.316C497.55 38.316 498.222 39.384 498.222 40.992V45H497.322L497.226 44.22H497.19C496.566 44.736 495.834 45.156 495.03 45.156ZM495.342 44.28C495.978 44.28 496.494 43.98 497.13 43.416V41.592C494.934 41.856 494.19 42.396 494.19 43.236C494.19 43.98 494.694 44.28 495.342 44.28ZM502.871 45.156C501.143 45.156 499.811 43.908 499.811 41.748C499.811 39.576 501.287 38.316 502.955 38.316C503.807 38.316 504.395 38.676 504.863 39.084L504.299 39.816C503.915 39.468 503.519 39.228 502.991 39.228C501.815 39.228 500.951 40.248 500.951 41.748C500.951 43.248 501.767 44.244 502.967 44.244C503.567 44.244 504.095 43.968 504.503 43.596L504.971 44.328C504.395 44.856 503.651 45.156 502.871 45.156ZM506.409 45V35.448H507.501V38.064L507.465 39.408C508.065 38.808 508.737 38.316 509.625 38.316C510.993 38.316 511.617 39.204 511.617 40.872V45H510.525V41.016C510.525 39.792 510.153 39.276 509.289 39.276C508.617 39.276 508.161 39.612 507.501 40.272V45H506.409ZM519.249 45.156C518.649 45.156 517.965 44.856 517.389 44.328H517.353L517.257 45H516.381V35.448H517.473V38.064L517.437 39.24C518.025 38.724 518.757 38.316 519.477 38.316C521.169 38.316 522.081 39.636 522.081 41.628C522.081 43.872 520.749 45.156 519.249 45.156ZM519.069 44.244C520.149 44.244 520.941 43.272 520.941 41.652C520.941 40.212 520.461 39.24 519.225 39.24C518.673 39.24 518.097 39.552 517.473 40.14V43.56C518.049 44.064 518.637 44.244 519.069 44.244ZM525.695 45.156C524.327 45.156 523.715 44.268 523.715 42.612V38.484H524.807V42.48C524.807 43.692 525.167 44.208 526.031 44.208C526.703 44.208 527.171 43.884 527.795 43.104V38.484H528.887V45H527.975L527.891 43.98H527.855C527.243 44.688 526.595 45.156 525.695 45.156ZM532.792 45.156C531.868 45.156 530.98 44.772 530.356 44.256L530.896 43.536C531.46 43.992 532.048 44.304 532.828 44.304C533.692 44.304 534.112 43.848 534.112 43.284C534.112 42.624 533.344 42.324 532.624 42.048C531.712 41.712 530.68 41.268 530.68 40.164C530.68 39.132 531.508 38.316 532.924 38.316C533.728 38.316 534.436 38.652 534.952 39.048L534.424 39.756C533.968 39.42 533.512 39.18 532.924 39.18C532.108 39.18 531.736 39.612 531.736 40.116C531.736 40.74 532.444 40.968 533.176 41.244C534.124 41.604 535.168 41.988 535.168 43.224C535.168 44.28 534.328 45.156 532.792 45.156ZM536.702 45V38.484H537.794V45H536.702ZM537.254 37.14C536.822 37.14 536.498 36.84 536.498 36.432C536.498 35.988 536.822 35.724 537.254 35.724C537.686 35.724 538.01 35.988 538.01 36.432C538.01 36.84 537.686 37.14 537.254 37.14ZM540.006 45V38.484H540.906L541.002 39.42H541.038C541.662 38.808 542.334 38.316 543.222 38.316C544.59 38.316 545.214 39.204 545.214 40.872V45H544.122V41.016C544.122 39.792 543.75 39.276 542.886 39.276C542.214 39.276 541.758 39.612 541.098 40.272V45H540.006ZM549.97 45.156C548.242 45.156 546.85 43.896 546.85 41.748C546.85 39.636 548.278 38.316 549.79 38.316C551.446 38.316 552.382 39.516 552.382 41.376C552.382 41.616 552.358 41.844 552.334 42H547.942C548.014 43.392 548.866 44.28 550.102 44.28C550.738 44.28 551.254 44.088 551.734 43.764L552.13 44.484C551.554 44.856 550.858 45.156 549.97 45.156ZM547.93 41.22H551.422C551.422 39.9 550.822 39.192 549.802 39.192C548.878 39.192 548.062 39.936 547.93 41.22ZM555.691 45.156C554.767 45.156 553.879 44.772 553.255 44.256L553.795 43.536C554.359 43.992 554.947 44.304 555.727 44.304C556.591 44.304 557.011 43.848 557.011 43.284C557.011 42.624 556.243 42.324 555.523 42.048C554.611 41.712 553.579 41.268 553.579 40.164C553.579 39.132 554.407 38.316 555.823 38.316C556.627 38.316 557.335 38.652 557.851 39.048L557.323 39.756C556.867 39.42 556.411 39.18 555.823 39.18C555.007 39.18 554.635 39.612 554.635 40.116C554.635 40.74 555.343 40.968 556.075 41.244C557.023 41.604 558.067 41.988 558.067 43.224C558.067 44.28 557.227 45.156 555.691 45.156ZM561.304 45.156C560.38 45.156 559.492 44.772 558.868 44.256L559.408 43.536C559.972 43.992 560.56 44.304 561.34 44.304C562.204 44.304 562.624 43.848 562.624 43.284C562.624 42.624 561.856 42.324 561.136 42.048C560.224 41.712 559.192 41.268 559.192 40.164C559.192 39.132 560.02 38.316 561.436 38.316C562.24 38.316 562.948 38.652 563.464 39.048L562.936 39.756C562.48 39.42 562.024 39.18 561.436 39.18C560.62 39.18 560.248 39.612 560.248 40.116C560.248 40.74 560.956 40.968 561.688 41.244C562.636 41.604 563.68 41.988 563.68 43.224C563.68 44.28 562.84 45.156 561.304 45.156Z" fill="black"/>
<path d="M123.279 68.8438C123.279 68.6445 123.248 68.4688 123.186 68.3164C123.127 68.1602 123.021 68.0195 122.869 67.8945C122.721 67.7695 122.514 67.6504 122.248 67.5371C121.986 67.4238 121.654 67.3086 121.252 67.1914C120.83 67.0664 120.449 66.9277 120.109 66.7754C119.77 66.6191 119.479 66.4414 119.236 66.2422C118.994 66.043 118.809 65.8145 118.68 65.5566C118.551 65.2988 118.486 65.0039 118.486 64.6719C118.486 64.3398 118.555 64.0332 118.691 63.752C118.828 63.4707 119.023 63.2266 119.277 63.0195C119.535 62.8086 119.842 62.6445 120.197 62.5273C120.553 62.4102 120.949 62.3516 121.387 62.3516C122.027 62.3516 122.57 62.4746 123.016 62.7207C123.465 62.9629 123.807 63.2812 124.041 63.6758C124.275 64.0664 124.393 64.4844 124.393 64.9297H123.268C123.268 64.6094 123.199 64.3262 123.062 64.0801C122.926 63.8301 122.719 63.6348 122.441 63.4941C122.164 63.3496 121.812 63.2773 121.387 63.2773C120.984 63.2773 120.652 63.3379 120.391 63.459C120.129 63.5801 119.934 63.7441 119.805 63.9512C119.68 64.1582 119.617 64.3945 119.617 64.6602C119.617 64.8398 119.654 65.0039 119.729 65.1523C119.807 65.2969 119.926 65.4316 120.086 65.5566C120.25 65.6816 120.457 65.7969 120.707 65.9023C120.961 66.0078 121.264 66.1094 121.615 66.207C122.1 66.3438 122.518 66.4961 122.869 66.6641C123.221 66.832 123.51 67.0215 123.736 67.2324C123.967 67.4395 124.137 67.6758 124.246 67.9414C124.359 68.2031 124.416 68.5 124.416 68.832C124.416 69.1797 124.346 69.4941 124.205 69.7754C124.064 70.0566 123.863 70.2969 123.602 70.4961C123.34 70.6953 123.025 70.8496 122.658 70.959C122.295 71.0645 121.889 71.1172 121.439 71.1172C121.045 71.1172 120.656 71.0625 120.273 70.9531C119.895 70.8438 119.549 70.6797 119.236 70.4609C118.928 70.2422 118.68 69.9727 118.492 69.6523C118.309 69.3281 118.217 68.9531 118.217 68.5273H119.342C119.342 68.8203 119.398 69.0723 119.512 69.2832C119.625 69.4902 119.779 69.6621 119.975 69.7988C120.174 69.9355 120.398 70.0371 120.648 70.1035C120.902 70.166 121.166 70.1973 121.439 70.1973C121.834 70.1973 122.168 70.1426 122.441 70.0332C122.715 69.9238 122.922 69.7676 123.062 69.5645C123.207 69.3613 123.279 69.1211 123.279 68.8438ZM128.324 71.1172C127.883 71.1172 127.482 71.043 127.123 70.8945C126.768 70.7422 126.461 70.5293 126.203 70.2559C125.949 69.9824 125.754 69.6582 125.617 69.2832C125.48 68.9082 125.412 68.498 125.412 68.0527V67.8066C125.412 67.291 125.488 66.832 125.641 66.4297C125.793 66.0234 126 65.6797 126.262 65.3984C126.523 65.1172 126.82 64.9043 127.152 64.7598C127.484 64.6152 127.828 64.543 128.184 64.543C128.637 64.543 129.027 64.6211 129.355 64.7773C129.688 64.9336 129.959 65.1523 130.17 65.4336C130.381 65.7109 130.537 66.0391 130.639 66.418C130.74 66.793 130.791 67.2031 130.791 67.6484V68.1348H126.057V67.25H129.707V67.168C129.691 66.8867 129.633 66.6133 129.531 66.3477C129.434 66.082 129.277 65.8633 129.062 65.6914C128.848 65.5195 128.555 65.4336 128.184 65.4336C127.938 65.4336 127.711 65.4863 127.504 65.5918C127.297 65.6934 127.119 65.8457 126.971 66.0488C126.822 66.252 126.707 66.5 126.625 66.793C126.543 67.0859 126.502 67.4238 126.502 67.8066V68.0527C126.502 68.3535 126.543 68.6367 126.625 68.9023C126.711 69.1641 126.834 69.3945 126.994 69.5938C127.158 69.793 127.355 69.9492 127.586 70.0625C127.82 70.1758 128.086 70.2324 128.383 70.2324C128.766 70.2324 129.09 70.1543 129.355 69.998C129.621 69.8418 129.854 69.6328 130.053 69.3711L130.709 69.8926C130.572 70.0996 130.398 70.2969 130.188 70.4844C129.977 70.6719 129.717 70.8242 129.408 70.9414C129.104 71.0586 128.742 71.1172 128.324 71.1172ZM133.141 65.6562V71H132.057V64.6602H133.111L133.141 65.6562ZM135.121 64.625L135.115 65.6328C135.025 65.6133 134.939 65.6016 134.857 65.5977C134.779 65.5898 134.689 65.5859 134.588 65.5859C134.338 65.5859 134.117 65.625 133.926 65.7031C133.734 65.7812 133.572 65.8906 133.439 66.0312C133.307 66.1719 133.201 66.3398 133.123 66.5352C133.049 66.7266 133 66.9375 132.977 67.168L132.672 67.3438C132.672 66.9609 132.709 66.6016 132.783 66.2656C132.861 65.9297 132.98 65.6328 133.141 65.375C133.301 65.1133 133.504 64.9102 133.75 64.7656C134 64.6172 134.297 64.543 134.641 64.543C134.719 64.543 134.809 64.5527 134.91 64.5723C135.012 64.5879 135.082 64.6055 135.121 64.625ZM138.637 71.1172C138.195 71.1172 137.795 71.043 137.436 70.8945C137.08 70.7422 136.773 70.5293 136.516 70.2559C136.262 69.9824 136.066 69.6582 135.93 69.2832C135.793 68.9082 135.725 68.498 135.725 68.0527V67.8066C135.725 67.291 135.801 66.832 135.953 66.4297C136.105 66.0234 136.312 65.6797 136.574 65.3984C136.836 65.1172 137.133 64.9043 137.465 64.7598C137.797 64.6152 138.141 64.543 138.496 64.543C138.949 64.543 139.34 64.6211 139.668 64.7773C140 64.9336 140.271 65.1523 140.482 65.4336C140.693 65.7109 140.85 66.0391 140.951 66.418C141.053 66.793 141.104 67.2031 141.104 67.6484V68.1348H136.369V67.25H140.02V67.168C140.004 66.8867 139.945 66.6133 139.844 66.3477C139.746 66.082 139.59 65.8633 139.375 65.6914C139.16 65.5195 138.867 65.4336 138.496 65.4336C138.25 65.4336 138.023 65.4863 137.816 65.5918C137.609 65.6934 137.432 65.8457 137.283 66.0488C137.135 66.252 137.02 66.5 136.938 66.793C136.855 67.0859 136.814 67.4238 136.814 67.8066V68.0527C136.814 68.3535 136.855 68.6367 136.938 68.9023C137.023 69.1641 137.146 69.3945 137.307 69.5938C137.471 69.793 137.668 69.9492 137.898 70.0625C138.133 70.1758 138.398 70.2324 138.695 70.2324C139.078 70.2324 139.402 70.1543 139.668 69.998C139.934 69.8418 140.166 69.6328 140.365 69.3711L141.021 69.8926C140.885 70.0996 140.711 70.2969 140.5 70.4844C140.289 70.6719 140.029 70.8242 139.721 70.9414C139.416 71.0586 139.055 71.1172 138.637 71.1172ZM143.453 66.0137V71H142.369V64.6602H143.395L143.453 66.0137ZM143.195 67.5898L142.744 67.5723C142.748 67.1387 142.812 66.7383 142.938 66.3711C143.062 66 143.238 65.6777 143.465 65.4043C143.691 65.1309 143.961 64.9199 144.273 64.7715C144.59 64.6191 144.939 64.543 145.322 64.543C145.635 64.543 145.916 64.5859 146.166 64.6719C146.416 64.7539 146.629 64.8867 146.805 65.0703C146.984 65.2539 147.121 65.4922 147.215 65.7852C147.309 66.0742 147.355 66.4277 147.355 66.8457V71H146.266V66.834C146.266 66.502 146.217 66.2363 146.119 66.0371C146.021 65.834 145.879 65.6875 145.691 65.5977C145.504 65.5039 145.273 65.457 145 65.457C144.73 65.457 144.484 65.5137 144.262 65.627C144.043 65.7402 143.854 65.8965 143.693 66.0957C143.537 66.2949 143.414 66.5234 143.324 66.7812C143.238 67.0352 143.195 67.3047 143.195 67.5898ZM152.998 69.7695V62H154.088V71H153.092L152.998 69.7695ZM148.732 67.9004V67.7773C148.732 67.293 148.791 66.8535 148.908 66.459C149.029 66.0605 149.199 65.7188 149.418 65.4336C149.641 65.1484 149.904 64.9297 150.209 64.7773C150.518 64.6211 150.861 64.543 151.24 64.543C151.639 64.543 151.986 64.6133 152.283 64.7539C152.584 64.8906 152.838 65.0918 153.045 65.3574C153.256 65.6191 153.422 65.9355 153.543 66.3066C153.664 66.6777 153.748 67.0977 153.795 67.5664V68.1055C153.752 68.5703 153.668 68.9883 153.543 69.3594C153.422 69.7305 153.256 70.0469 153.045 70.3086C152.838 70.5703 152.584 70.7715 152.283 70.9121C151.982 71.0488 151.631 71.1172 151.229 71.1172C150.857 71.1172 150.518 71.0371 150.209 70.877C149.904 70.7168 149.641 70.4922 149.418 70.2031C149.199 69.9141 149.029 69.5742 148.908 69.1836C148.791 68.7891 148.732 68.3613 148.732 67.9004ZM149.822 67.7773V67.9004C149.822 68.2168 149.854 68.5137 149.916 68.791C149.982 69.0684 150.084 69.3125 150.221 69.5234C150.357 69.7344 150.531 69.9004 150.742 70.0215C150.953 70.1387 151.205 70.1973 151.498 70.1973C151.857 70.1973 152.152 70.1211 152.383 69.9688C152.617 69.8164 152.805 69.6152 152.945 69.3652C153.086 69.1152 153.195 68.8438 153.273 68.5508V67.1387C153.227 66.9238 153.158 66.7168 153.068 66.5176C152.982 66.3145 152.869 66.1348 152.729 65.9785C152.592 65.8184 152.422 65.6914 152.219 65.5977C152.02 65.5039 151.783 65.457 151.51 65.457C151.213 65.457 150.957 65.5195 150.742 65.6445C150.531 65.7656 150.357 65.9336 150.221 66.1484C150.084 66.3594 149.982 66.6055 149.916 66.8867C149.854 67.1641 149.822 67.4609 149.822 67.7773ZM156.953 64.6602V71H155.863V64.6602H156.953ZM155.781 62.9785C155.781 62.8027 155.834 62.6543 155.939 62.5332C156.049 62.4121 156.209 62.3516 156.42 62.3516C156.627 62.3516 156.785 62.4121 156.895 62.5332C157.008 62.6543 157.064 62.8027 157.064 62.9785C157.064 63.1465 157.008 63.291 156.895 63.4121C156.785 63.5293 156.627 63.5879 156.42 63.5879C156.209 63.5879 156.049 63.5293 155.939 63.4121C155.834 63.291 155.781 63.1465 155.781 62.9785ZM161.324 71.1172C160.883 71.1172 160.482 71.043 160.123 70.8945C159.768 70.7422 159.461 70.5293 159.203 70.2559C158.949 69.9824 158.754 69.6582 158.617 69.2832C158.48 68.9082 158.412 68.498 158.412 68.0527V67.8066C158.412 67.291 158.488 66.832 158.641 66.4297C158.793 66.0234 159 65.6797 159.262 65.3984C159.523 65.1172 159.82 64.9043 160.152 64.7598C160.484 64.6152 160.828 64.543 161.184 64.543C161.637 64.543 162.027 64.6211 162.355 64.7773C162.688 64.9336 162.959 65.1523 163.17 65.4336C163.381 65.7109 163.537 66.0391 163.639 66.418C163.74 66.793 163.791 67.2031 163.791 67.6484V68.1348H159.057V67.25H162.707V67.168C162.691 66.8867 162.633 66.6133 162.531 66.3477C162.434 66.082 162.277 65.8633 162.062 65.6914C161.848 65.5195 161.555 65.4336 161.184 65.4336C160.938 65.4336 160.711 65.4863 160.504 65.5918C160.297 65.6934 160.119 65.8457 159.971 66.0488C159.822 66.252 159.707 66.5 159.625 66.793C159.543 67.0859 159.502 67.4238 159.502 67.8066V68.0527C159.502 68.3535 159.543 68.6367 159.625 68.9023C159.711 69.1641 159.834 69.3945 159.994 69.5938C160.158 69.793 160.355 69.9492 160.586 70.0625C160.82 70.1758 161.086 70.2324 161.383 70.2324C161.766 70.2324 162.09 70.1543 162.355 69.998C162.621 69.8418 162.854 69.6328 163.053 69.3711L163.709 69.8926C163.572 70.0996 163.398 70.2969 163.188 70.4844C162.977 70.6719 162.717 70.8242 162.408 70.9414C162.104 71.0586 161.742 71.1172 161.324 71.1172ZM173.078 62.4688H174.203V68.2402C174.203 68.8809 174.061 69.4141 173.775 69.8398C173.49 70.2656 173.111 70.5859 172.639 70.8008C172.17 71.0117 171.66 71.1172 171.109 71.1172C170.531 71.1172 170.008 71.0117 169.539 70.8008C169.074 70.5859 168.705 70.2656 168.432 69.8398C168.162 69.4141 168.027 68.8809 168.027 68.2402V62.4688H169.146V68.2402C169.146 68.6855 169.229 69.0527 169.393 69.3418C169.557 69.6309 169.785 69.8457 170.078 69.9863C170.375 70.127 170.719 70.1973 171.109 70.1973C171.504 70.1973 171.848 70.127 172.141 69.9863C172.438 69.8457 172.668 69.6309 172.832 69.3418C172.996 69.0527 173.078 68.6855 173.078 68.2402V62.4688ZM177.191 62.4688V71H176.061V62.4688H177.191Z" fill="black"/>
<rect x="73.5" y="104.5" width="155" height="34" fill="white"/>
<rect x="73.5" y="104.5" width="155" height="34" stroke="var(--web-system-color-articleFigure-foreground-primary, #8FAEFE)"/>
<path opacity="0.3" d="M90.75 120H107.25" stroke="var(--web-system-color-articleFigure-foreground-primary, #8FAEFE)" stroke-width="3"/>
<path opacity="0.3" d="M142.75 120H159.25" stroke="var(--web-system-color-articleFigure-foreground-primary, #8FAEFE)" stroke-width="3"/>
<path d="M194.75 120H211.25" stroke="var(--web-system-color-articleFigure-foreground-primary, #8FAEFE)" stroke-width="3"/>
<path fill-rule="evenodd" clip-rule="evenodd" d="M229 139H177V136H229V139Z" fill="var(--web-system-color-articleFigure-foreground-primary, #8FAEFE)"/>
<rect x="60.5" y="123.5" width="62.5" height="107" fill="white"/>
<rect x="60.5" y="123.5" width="62.5" height="107" stroke="var(--web-system-color-articleFigure-foreground-primary, #8FAEFE)"/>
<path d="M74 131.5C77.0376 131.5 79.5 133.962 79.5 137C79.5 140.038 77.0376 142.5 74 142.5C70.9624 142.5 68.5 140.038 68.5 137C68.5 133.962 70.9624 131.5 74 131.5Z" fill="white" stroke="var(--web-system-color-articleFigure-foreground-primary, #8FAEFE)"/>
<path d="M74 134.5C75.3807 134.5 76.5 135.619 76.5 137C76.5 138.381 75.3807 139.5 74 139.5C72.6193 139.5 71.5 138.381 71.5 137C71.5 135.619 72.6193 134.5 74 134.5Z" fill="var(--web-system-color-articleFigure-foreground-primary, #8FAEFE)" stroke="var(--web-system-color-articleFigure-foreground-primary, #8FAEFE)"/>
<path d="M88 134H115.5" stroke="var(--web-system-color-articleFigure-foreground-primary, #8FAEFE)" stroke-width="3"/>
<path opacity="0.3" d="M88 141H108.5" stroke="var(--web-system-color-articleFigure-foreground-primary, #8FAEFE)" stroke-width="3"/>
<path d="M74 151.5C77.0376 151.5 79.5 153.962 79.5 157C79.5 160.038 77.0376 162.5 74 162.5C70.9624 162.5 68.5 160.038 68.5 157C68.5 153.962 70.9624 151.5 74 151.5Z" fill="white" stroke="var(--web-system-color-articleFigure-foreground-primary, #8FAEFE)"/>
<path d="M88 154H115.5" stroke="var(--web-system-color-articleFigure-foreground-primary, #8FAEFE)" stroke-width="3"/>
<path opacity="0.3" d="M88 161H108.5" stroke="var(--web-system-color-articleFigure-foreground-primary, #8FAEFE)" stroke-width="3"/>
<path d="M74 171.5C77.0376 171.5 79.5 173.962 79.5 177C79.5 180.038 77.0376 182.5 74 182.5C70.9624 182.5 68.5 180.038 68.5 177C68.5 173.962 70.9624 171.5 74 171.5Z" fill="white" stroke="var(--web-system-color-articleFigure-foreground-primary, #8FAEFE)"/>
<path d="M88 174H115.5" stroke="var(--web-system-color-articleFigure-foreground-primary, #8FAEFE)" stroke-width="3"/>
<path opacity="0.3" d="M88 181H108.5" stroke="var(--web-system-color-articleFigure-foreground-primary, #8FAEFE)" stroke-width="3"/>
<path d="M74 191.5C77.0376 191.5 79.5 193.962 79.5 197C79.5 200.038 77.0376 202.5 74 202.5C70.9624 202.5 68.5 200.038 68.5 197C68.5 193.962 70.9624 191.5 74 191.5Z" fill="white" stroke="var(--web-system-color-articleFigure-foreground-primary, #8FAEFE)"/>
<path d="M88 194H115.5" stroke="var(--web-system-color-articleFigure-foreground-primary, #8FAEFE)" stroke-width="3"/>
<path opacity="0.3" d="M88 201H108.5" stroke="var(--web-system-color-articleFigure-foreground-primary, #8FAEFE)" stroke-width="3"/>
<path d="M74 211.5C77.0376 211.5 79.5 213.962 79.5 217C79.5 220.038 77.0376 222.5 74 222.5C70.9624 222.5 68.5 220.038 68.5 217C68.5 213.962 70.9624 211.5 74 211.5Z" fill="white" stroke="var(--web-system-color-articleFigure-foreground-primary, #8FAEFE)"/>
<path d="M88 214H115.5" stroke="var(--web-system-color-articleFigure-foreground-primary, #8FAEFE)" stroke-width="3"/>
<path opacity="0.3" d="M88 221H108.5" stroke="var(--web-system-color-articleFigure-foreground-primary, #8FAEFE)" stroke-width="3"/>
<path d="M142 150.5H234C235.933 150.5 237.5 152.067 237.5 154V166C237.5 167.933 235.933 169.5 234 169.5H142C140.067 169.5 138.5 167.933 138.5 166V154C138.5 152.067 140.067 150.5 142 150.5Z" fill="white" stroke="var(--web-system-color-articleFigure-foreground-primary, #8FAEFE)"/>
<path d="M220.5 158.5L224.5 162.5L228.5 158.5" stroke="var(--web-system-color-articleFigure-foreground-primary, #8FAEFE)" stroke-width="1.5"/>
<path d="M142 169.5H234C235.933 169.5 237.5 171.067 237.5 173V253C237.5 254.933 235.933 256.5 234 256.5H142C140.067 256.5 138.5 254.933 138.5 253V173C138.5 171.067 140.067 169.5 142 169.5Z" fill="white" stroke="var(--web-system-color-articleFigure-foreground-primary, #8FAEFE)"/>
<path opacity="0.3" d="M146 183H230" stroke="var(--web-system-color-articleFigure-foreground-primary, #8FAEFE)" stroke-width="3"/>
<path opacity="0.3" d="M146 203H230" stroke="var(--web-system-color-articleFigure-foreground-primary, #8FAEFE)" stroke-width="3"/>
<path opacity="0.3" d="M146 223H230" stroke="var(--web-system-color-articleFigure-foreground-primary, #8FAEFE)" stroke-width="3"/>
<path opacity="0.3" d="M146 243H230" stroke="var(--web-system-color-articleFigure-foreground-primary, #8FAEFE)" stroke-width="3"/>
<path d="M97 217.5H141C146.247 217.5 150.5 221.753 150.5 227C150.5 232.247 146.247 236.5 141 236.5H97C91.7533 236.5 87.5 232.247 87.5 227C87.5 221.753 91.7533 217.5 97 217.5Z" fill="var(--web-system-color-articleFigure-foreground-primary, #8FAEFE)" stroke="var(--web-system-color-articleFigure-foreground-primary, #8FAEFE)"/>
<path d="M97 245.5H141C146.247 245.5 150.5 249.753 150.5 255C150.5 260.247 146.247 264.5 141 264.5H97C91.7533 264.5 87.5 260.247 87.5 255C87.5 249.753 91.7533 245.5 97 245.5Z" fill="white" stroke="var(--web-system-color-articleFigure-foreground-primary, #8FAEFE)"/>
<path d="M257 192L315 192" stroke="var(--sd-reference-color-scale-gray-400, #AFAEAA)"/>
<path d="M315 160H355" stroke="var(--sd-reference-color-scale-gray-400, #AFAEAA)"/>
<path d="M315 224H355" stroke="var(--sd-reference-color-scale-gray-400, #AFAEAA)"/>
<path d="M355 96L319 96C316.791 96 315 97.7909 315 100L315 284C315 286.209 316.791 288 319 288L355 288" stroke="var(--sd-reference-color-scale-gray-400, #AFAEAA)"/>
</svg>
