<svg width="366" height="200" viewBox="0 0 366 200" fill="none" xmlns="http://www.w3.org/2000/svg">
<g clip-path="url(#clip0_12038_32349)">
<path d="M0 16C0 7.16344 7.16344 0 16 0H350C358.837 0 366 7.16344 366 16V184C366 192.837 358.837 200 350 200H16C7.16344 200 0 192.837 0 184V16Z" fill="var(--web-system-color-articleFigure-foreground-tertiary, #EFF2FC)"/>
<path fill-rule="evenodd" clip-rule="evenodd" d="M280.91 13.0903C315.919 -22.1569 363.45 -42 413.058 -42C462.667 -42 510.198 -22.1568 545.207 13.0904C580.208 48.3299 599.831 96.0772 599.831 145.816L533.052 145.816C533.052 113.643 520.355 82.8318 497.827 60.15C475.306 37.4759 444.809 24.7792 413.058 24.7792C381.307 24.7792 350.811 37.4759 328.29 60.15C305.761 82.8318 293.064 113.643 293.064 145.816L226.285 145.816C226.285 96.0772 245.908 48.3299 280.91 13.0903Z" stroke="var(--web-system-color-articleFigure-foreground-primary, #8FAEFE)" stroke-width="4"/>
<path d="M19.2451 66.4297H-121.55L-9.79537 268.47H131L19.2451 66.4297Z" stroke="var(--web-system-color-articleFigure-foreground-primary, #8FAEFE)" stroke-width="4"/>
<rect x="19.8203" y="-42.2109" width="223.458" height="108.388" stroke="var(--web-system-color-articleFigure-foreground-primary, #8FAEFE)" stroke-width="4"/>
<rect x="226.242" y="145.57" width="332.242" height="169.444" stroke="var(--web-system-color-articleFigure-foreground-secondary, #64CCD3)" stroke-width="4"/>
<path d="M63.7484 112.599L64.7484 114.331L71.2125 110.599H63.7484V112.599ZM49.4897 120.831L48.4897 119.099L46.7576 120.099L47.7576 121.831L49.4897 120.831ZM47.2831 112.599H45.2831V114.599H47.2831V112.599ZM47.2831 99.9375V97.9375H45.2831V99.9375H47.2831ZM63.7476 99.9375V101.937H71.2117L64.7476 98.2054L63.7476 99.9375ZM49.4872 91.7043L47.7552 90.7043L46.7552 92.4363L48.4872 93.4363L49.4872 91.7043ZM55.8178 80.7394L56.8178 79.0073L55.0858 78.0073L54.0858 79.7394L55.8178 80.7394ZM70.0807 88.9741L69.0807 90.7061L75.5448 94.4382L71.8128 87.9741L70.0807 88.9741ZM61.8483 74.7151L60.8483 72.9831L59.1163 73.9831L60.1163 75.7151L61.8483 74.7151ZM72.8132 68.3845L74.5453 67.3845L73.5453 65.6525L71.8132 66.6525L72.8132 68.3845ZM81.0465 82.645L79.3145 83.645L83.0465 90.1091V82.645H81.0465ZM81.0465 66.1797V64.1797H79.0465V66.1797H81.0465ZM93.7077 66.1797H95.7077V64.1797H93.7077V66.1797ZM93.7077 82.6366H91.7077V90.1007L95.4398 83.6366L93.7077 82.6366ZM101.937 68.3828L102.937 66.6508L101.205 65.6508L100.205 67.3828L101.937 68.3828ZM112.902 74.7134L114.634 75.7134L115.634 73.9814L113.902 72.9814L112.902 74.7134ZM104.669 88.973L102.937 87.973L99.2052 94.4371L105.669 90.705L104.669 88.973ZM118.925 80.7422L120.657 79.7422L119.657 78.0101L117.925 79.0101L118.925 80.7422ZM125.256 91.7071L126.256 93.4392L127.988 92.4391L126.988 90.7071L125.256 91.7071ZM111.001 99.9375L110.001 98.2054L103.536 101.938H111.001V99.9375ZM127.461 99.9375H129.461V97.9375H127.461V99.9375ZM127.461 112.599V114.599H129.461V112.599H127.461ZM111 112.599V110.599H103.536L110 114.331L111 112.599ZM125.254 120.828L126.986 121.828L127.986 120.096L126.254 119.096L125.254 120.828ZM118.923 131.793L117.923 133.525L119.655 134.525L120.655 132.793L118.923 131.793ZM104.672 123.565L105.672 121.833L99.2076 118.101L102.94 124.565L104.672 123.565ZM112.902 137.82L113.902 139.552L115.634 138.552L114.634 136.82L112.902 137.82ZM101.937 144.151L100.205 145.151L101.205 146.883L102.937 145.883L101.937 144.151ZM93.7077 129.897L95.4398 128.897L91.7077 122.433V129.897H93.7077ZM93.7077 146.357V148.357H95.7077V146.357H93.7077ZM81.0465 146.357H79.0465V148.357H81.0465V146.357ZM81.0465 129.889H83.0465V122.425L79.3145 128.889L81.0465 129.889ZM72.8133 144.149L71.8133 145.881L73.5454 146.881L74.5454 145.149L72.8133 144.149ZM61.8484 137.819L60.1163 136.819L59.1163 138.551L60.8484 139.551L61.8484 137.819ZM70.0783 123.564L71.8104 124.564L75.5424 118.1L69.0783 121.832L70.0783 123.564ZM55.8203 131.796L54.0882 132.796L55.0882 134.528L56.8203 133.528L55.8203 131.796ZM62.7484 110.867L48.4897 119.099L50.4897 122.563L64.7484 114.331L62.7484 110.867ZM47.2831 114.599H63.7484V110.599H47.2831V114.599ZM45.2831 99.9375V112.599H49.2831V99.9375H45.2831ZM63.7476 97.9375H47.2831V101.937H63.7476V97.9375ZM64.7476 98.2054L50.4872 89.9722L48.4872 93.4363L62.7476 101.67L64.7476 98.2054ZM51.2193 92.7043L57.5499 81.7394L54.0858 79.7394L47.7552 90.7043L51.2193 92.7043ZM54.8178 82.4714L69.0807 90.7061L71.0807 87.242L56.8178 79.0073L54.8178 82.4714ZM60.1163 75.7151L68.3487 89.9741L71.8128 87.9741L63.5804 73.7151L60.1163 75.7151ZM71.8132 66.6525L60.8483 72.9831L62.8483 76.4472L73.8132 70.1166L71.8132 66.6525ZM82.7786 81.645L74.5453 67.3845L71.0812 69.3845L79.3145 83.645L82.7786 81.645ZM79.0465 66.1797V82.645H83.0465V66.1797H79.0465ZM93.7077 64.1797H81.0465V68.1797H93.7077V64.1797ZM95.7077 82.6366V66.1797H91.7077V82.6366H95.7077ZM100.205 67.3828L91.9757 81.6366L95.4398 83.6366L103.669 69.3828L100.205 67.3828ZM113.902 72.9814L102.937 66.6508L100.937 70.1149L111.902 76.4455L113.902 72.9814ZM106.401 89.973L114.634 75.7134L111.17 73.7134L102.937 87.973L106.401 89.973ZM117.925 79.0101L103.669 87.2409L105.669 90.705L119.925 82.4742L117.925 79.0101ZM126.988 90.7071L120.657 79.7422L117.193 81.7422L123.524 92.7071L126.988 90.7071ZM112.001 101.67L126.256 93.4392L124.256 89.975L110.001 98.2054L112.001 101.67ZM127.461 97.9375H111.001V101.938H127.461V97.9375ZM129.461 112.599V99.9375H125.461V112.599H129.461ZM111 114.599H127.461V110.599H111V114.599ZM110 114.331L124.254 122.56L126.254 119.096L112 110.867L110 114.331ZM123.522 119.828L117.191 130.793L120.655 132.793L126.986 121.828L123.522 119.828ZM119.923 130.061L105.672 121.833L103.672 125.297L117.923 133.525L119.923 130.061ZM114.634 136.82L106.404 122.565L102.94 124.565L111.17 138.82L114.634 136.82ZM102.937 145.883L113.902 139.552L111.902 136.088L100.937 142.419L102.937 145.883ZM91.9757 130.897L100.205 145.151L103.669 143.151L95.4398 128.897L91.9757 130.897ZM95.7077 146.357V129.897H91.7077V146.357H95.7077ZM81.0465 148.357H93.7077V144.357H81.0465V148.357ZM79.0465 129.889V146.357H83.0465V129.889H79.0465ZM74.5454 145.149L82.7786 130.889L79.3145 128.889L71.0813 143.149L74.5454 145.149ZM60.8484 139.551L71.8133 145.881L73.8133 142.417L62.8484 136.087L60.8484 139.551ZM68.3463 122.564L60.1163 136.819L63.5805 138.819L71.8104 124.564L68.3463 122.564ZM56.8203 133.528L71.0783 125.296L69.0783 121.832L54.8203 130.064L56.8203 133.528ZM47.7576 121.831L54.0882 132.796L57.5523 130.796L51.2217 119.831L47.7576 121.831Z" fill="var(--web-system-color-articleFigure-foreground-secondary, #64CCD3)"/>
<circle cx="178" cy="117" r="50" stroke="var(--web-system-color-articleFigure-foreground-primary, #8FAEFE)" stroke-width="4"/>
<circle cx="117.5" cy="173.5" r="32.5" stroke="var(--web-system-color-articleFigure-foreground-primary, #8FAEFE)" stroke-width="4"/>
</g>
<defs>
<clipPath id="clip0_12038_32349">
<path d="M0 16C0 7.16344 7.16344 0 16 0H350C358.837 0 366 7.16344 366 16V184C366 192.837 358.837 200 350 200H16C7.16344 200 0 192.837 0 184V16Z" fill="white"/>
</clipPath>
</defs>
</svg>
