<svg width="740" height="352" viewBox="0 0 740 352" fill="none" xmlns="http://www.w3.org/2000/svg">
<path d="M0 12C0 5.37259 5.37258 0 12 0H728C734.627 0 740 5.37258 740 12V340C740 346.627 734.627 352 728 352H12C5.37258 352 0 346.627 0 340V12Z" fill="var(--web-system-color-articleFigure-background, #F5F5F5)"/>
<rect width="48" height="240" rx="8" transform="matrix(-4.37114e-08 -1 -1 4.37114e-08 595 120)" fill="white"/>
<path d="M576.5 88C576.5 84.1136 575.58 82.1926 574.637 80.2236L574.633 80.216C573.702 78.2717 572.75 76.2806 572.673 72.5L363 72.5C358.858 72.5 355.5 75.8579 355.5 80L355.5 112C355.5 116.142 358.858 119.5 363 119.5L576.495 119.5C576.419 115.945 575.539 114.106 574.637 112.224L574.633 112.216C573.662 110.188 572.668 108.109 572.668 104C572.668 99.8914 573.662 97.8123 574.633 95.784L574.637 95.7764C575.58 93.8073 576.5 91.8864 576.5 88Z" fill="var(--web-system-color-articleFigure-foreground-tertiary, #EFF2FC)" stroke="var(--web-system-color-articleFigure-foreground-primary, #8FAEFE)" stroke-miterlimit="10"/>
<path d="M435.076 99.0234C435.076 98.8408 435.047 98.6797 434.99 98.54C434.936 98.3968 434.839 98.2679 434.7 98.1533C434.564 98.0387 434.374 97.9295 434.13 97.8257C433.89 97.7218 433.586 97.6162 433.217 97.5088C432.831 97.3942 432.481 97.2671 432.17 97.1274C431.858 96.9842 431.592 96.8213 431.37 96.6387C431.148 96.4561 430.978 96.2466 430.859 96.0103C430.741 95.7739 430.682 95.5036 430.682 95.1992C430.682 94.8949 430.745 94.6138 430.87 94.356C430.995 94.0981 431.174 93.8743 431.407 93.6846C431.644 93.4912 431.925 93.3408 432.25 93.2334C432.576 93.126 432.94 93.0723 433.341 93.0723C433.928 93.0723 434.426 93.1851 434.834 93.4106C435.246 93.6326 435.559 93.9245 435.774 94.2861C435.989 94.6442 436.096 95.0273 436.096 95.4355H435.065C435.065 95.1419 435.002 94.8823 434.877 94.6567C434.752 94.4276 434.562 94.2485 434.308 94.1196C434.053 93.9871 433.731 93.9209 433.341 93.9209C432.972 93.9209 432.668 93.9764 432.428 94.0874C432.188 94.1984 432.009 94.3488 431.891 94.5386C431.776 94.7284 431.719 94.945 431.719 95.1885C431.719 95.3532 431.753 95.5036 431.821 95.6396C431.892 95.7721 432.002 95.8957 432.148 96.0103C432.299 96.1248 432.489 96.2305 432.718 96.3271C432.951 96.4238 433.228 96.5169 433.55 96.6064C433.994 96.7318 434.377 96.8714 434.7 97.0254C435.022 97.1794 435.287 97.353 435.495 97.5464C435.706 97.7362 435.862 97.9528 435.962 98.1963C436.066 98.4362 436.118 98.7083 436.118 99.0127C436.118 99.3314 436.053 99.6196 435.924 99.8774C435.795 100.135 435.611 100.355 435.371 100.538C435.131 100.721 434.843 100.862 434.506 100.962C434.173 101.059 433.801 101.107 433.389 101.107C433.028 101.107 432.671 101.057 432.32 100.957C431.973 100.857 431.656 100.706 431.37 100.506C431.087 100.305 430.859 100.058 430.688 99.7646C430.519 99.4674 430.435 99.1237 430.435 98.7334H431.466C431.466 99.002 431.518 99.2329 431.622 99.4263C431.726 99.616 431.867 99.7736 432.046 99.8989C432.229 100.024 432.435 100.117 432.664 100.178C432.897 100.236 433.139 100.264 433.389 100.264C433.751 100.264 434.057 100.214 434.308 100.114C434.558 100.014 434.748 99.8703 434.877 99.6841C435.009 99.4979 435.076 99.2777 435.076 99.0234ZM439.7 101.107C439.296 101.107 438.929 101.039 438.599 100.903C438.273 100.764 437.992 100.569 437.756 100.318C437.523 100.067 437.344 99.77 437.219 99.4263C437.093 99.0825 437.031 98.7065 437.031 98.2983V98.0728C437.031 97.6001 437.101 97.1794 437.24 96.8105C437.38 96.4382 437.57 96.123 437.81 95.8652C438.049 95.6074 438.322 95.4123 438.626 95.2798C438.93 95.1473 439.245 95.0811 439.571 95.0811C439.987 95.0811 440.345 95.1527 440.646 95.2959C440.95 95.4391 441.199 95.6396 441.392 95.8975C441.585 96.1517 441.729 96.4525 441.822 96.7998C441.915 97.1436 441.961 97.5195 441.961 97.9277V98.3735H437.622V97.5625H440.968V97.4873C440.953 97.2295 440.9 96.9788 440.807 96.7354C440.717 96.4919 440.574 96.2913 440.377 96.1338C440.18 95.9762 439.911 95.8975 439.571 95.8975C439.346 95.8975 439.138 95.9458 438.948 96.0425C438.758 96.1356 438.596 96.2752 438.459 96.4614C438.323 96.6476 438.218 96.875 438.143 97.1436C438.067 97.4121 438.03 97.7218 438.03 98.0728V98.2983C438.03 98.5741 438.067 98.8337 438.143 99.0771C438.221 99.3171 438.334 99.5283 438.481 99.7109C438.631 99.8936 438.812 100.037 439.023 100.141C439.238 100.244 439.482 100.296 439.754 100.296C440.105 100.296 440.402 100.225 440.646 100.082C440.889 99.9383 441.102 99.7467 441.285 99.5068L441.886 99.9849C441.761 100.175 441.602 100.355 441.408 100.527C441.215 100.699 440.977 100.839 440.694 100.946C440.415 101.054 440.083 101.107 439.7 101.107ZM444.115 96.1016V101H443.122V95.1885H444.088L444.115 96.1016ZM445.931 95.1562L445.925 96.0801C445.843 96.0622 445.764 96.0514 445.689 96.0479C445.617 96.0407 445.535 96.0371 445.442 96.0371C445.213 96.0371 445.01 96.0729 444.835 96.1445C444.66 96.2161 444.511 96.3164 444.389 96.4453C444.267 96.5742 444.171 96.7282 444.099 96.9072C444.031 97.0827 443.986 97.276 443.965 97.4873L443.686 97.6484C443.686 97.2975 443.72 96.9681 443.788 96.6602C443.859 96.3522 443.968 96.0801 444.115 95.8438C444.262 95.6038 444.448 95.4176 444.674 95.2852C444.903 95.1491 445.175 95.0811 445.49 95.0811C445.562 95.0811 445.644 95.09 445.737 95.1079C445.83 95.1222 445.895 95.1383 445.931 95.1562ZM449.153 101.107C448.749 101.107 448.382 101.039 448.052 100.903C447.726 100.764 447.445 100.569 447.209 100.318C446.976 100.067 446.797 99.77 446.672 99.4263C446.547 99.0825 446.484 98.7065 446.484 98.2983V98.0728C446.484 97.6001 446.554 97.1794 446.693 96.8105C446.833 96.4382 447.023 96.123 447.263 95.8652C447.503 95.6074 447.775 95.4123 448.079 95.2798C448.383 95.1473 448.699 95.0811 449.024 95.0811C449.44 95.0811 449.798 95.1527 450.099 95.2959C450.403 95.4391 450.652 95.6396 450.845 95.8975C451.039 96.1517 451.182 96.4525 451.275 96.7998C451.368 97.1436 451.415 97.5195 451.415 97.9277V98.3735H447.075V97.5625H450.421V97.4873C450.407 97.2295 450.353 96.9788 450.26 96.7354C450.17 96.4919 450.027 96.2913 449.83 96.1338C449.633 95.9762 449.365 95.8975 449.024 95.8975C448.799 95.8975 448.591 95.9458 448.401 96.0425C448.212 96.1356 448.049 96.2752 447.913 96.4614C447.777 96.6476 447.671 96.875 447.596 97.1436C447.521 97.4121 447.483 97.7218 447.483 98.0728V98.2983C447.483 98.5741 447.521 98.8337 447.596 99.0771C447.674 99.3171 447.787 99.5283 447.934 99.7109C448.084 99.8936 448.265 100.037 448.477 100.141C448.691 100.244 448.935 100.296 449.207 100.296C449.558 100.296 449.855 100.225 450.099 100.082C450.342 99.9383 450.555 99.7467 450.738 99.5068L451.339 99.9849C451.214 100.175 451.055 100.355 450.861 100.527C450.668 100.699 450.43 100.839 450.147 100.946C449.868 101.054 449.536 101.107 449.153 101.107ZM453.568 96.4292V101H452.575V95.1885H453.515L453.568 96.4292ZM453.332 97.874L452.918 97.8579C452.922 97.4604 452.981 97.0934 453.096 96.7568C453.21 96.4167 453.371 96.1213 453.579 95.8706C453.787 95.62 454.034 95.4266 454.32 95.2905C454.61 95.1509 454.931 95.0811 455.282 95.0811C455.568 95.0811 455.826 95.1204 456.055 95.1992C456.284 95.2744 456.479 95.3962 456.641 95.5645C456.805 95.7327 456.931 95.9512 457.017 96.2197C457.103 96.4847 457.146 96.8088 457.146 97.1919V101H456.146V97.1812C456.146 96.8768 456.102 96.6333 456.012 96.4507C455.923 96.2645 455.792 96.1302 455.62 96.0479C455.448 95.9619 455.237 95.9189 454.986 95.9189C454.739 95.9189 454.514 95.9709 454.31 96.0747C454.109 96.1785 453.935 96.3218 453.789 96.5044C453.645 96.687 453.533 96.8965 453.45 97.1328C453.371 97.3656 453.332 97.6126 453.332 97.874ZM462.318 99.8721V92.75H463.317V101H462.404L462.318 99.8721ZM458.408 98.1587V98.0459C458.408 97.6019 458.461 97.1991 458.569 96.8374C458.68 96.4722 458.836 96.1589 459.036 95.8975C459.24 95.6361 459.482 95.4355 459.761 95.2959C460.044 95.1527 460.359 95.0811 460.707 95.0811C461.072 95.0811 461.39 95.1455 461.663 95.2744C461.938 95.3997 462.171 95.5841 462.361 95.8276C462.554 96.0675 462.706 96.3576 462.817 96.6978C462.928 97.0379 463.005 97.4229 463.048 97.8525V98.3467C463.009 98.7728 462.932 99.1559 462.817 99.4961C462.706 99.8363 462.554 100.126 462.361 100.366C462.171 100.606 461.938 100.791 461.663 100.919C461.387 101.045 461.065 101.107 460.696 101.107C460.356 101.107 460.044 101.034 459.761 100.887C459.482 100.74 459.24 100.535 459.036 100.27C458.836 100.005 458.68 99.693 458.569 99.335C458.461 98.9733 458.408 98.5812 458.408 98.1587ZM459.407 98.0459V98.1587C459.407 98.4487 459.435 98.7209 459.493 98.9751C459.554 99.2293 459.647 99.4531 459.772 99.6465C459.897 99.8398 460.057 99.992 460.25 100.103C460.443 100.21 460.674 100.264 460.943 100.264C461.272 100.264 461.543 100.194 461.754 100.055C461.969 99.915 462.141 99.7306 462.27 99.5015C462.398 99.2723 462.499 99.0234 462.57 98.7549V97.4604C462.527 97.2635 462.465 97.0737 462.382 96.8911C462.304 96.7049 462.2 96.5402 462.071 96.397C461.945 96.2502 461.79 96.1338 461.604 96.0479C461.421 95.9619 461.204 95.9189 460.954 95.9189C460.681 95.9189 460.447 95.9762 460.25 96.0908C460.057 96.2018 459.897 96.3558 459.772 96.5527C459.647 96.7461 459.554 96.9717 459.493 97.2295C459.435 97.4837 459.407 97.7559 459.407 98.0459ZM465.943 95.1885V101H464.944V95.1885H465.943ZM464.869 93.647C464.869 93.4858 464.917 93.3498 465.014 93.2388C465.114 93.1278 465.261 93.0723 465.455 93.0723C465.644 93.0723 465.789 93.1278 465.89 93.2388C465.993 93.3498 466.045 93.4858 466.045 93.647C466.045 93.8009 465.993 93.9334 465.89 94.0444C465.789 94.1519 465.644 94.2056 465.455 94.2056C465.261 94.2056 465.114 94.1519 465.014 94.0444C464.917 93.9334 464.869 93.8009 464.869 93.647ZM469.95 101.107C469.546 101.107 469.179 101.039 468.849 100.903C468.523 100.764 468.242 100.569 468.006 100.318C467.773 100.067 467.594 99.77 467.469 99.4263C467.343 99.0825 467.281 98.7065 467.281 98.2983V98.0728C467.281 97.6001 467.351 97.1794 467.49 96.8105C467.63 96.4382 467.82 96.123 468.06 95.8652C468.299 95.6074 468.572 95.4123 468.876 95.2798C469.18 95.1473 469.495 95.0811 469.821 95.0811C470.237 95.0811 470.595 95.1527 470.896 95.2959C471.2 95.4391 471.449 95.6396 471.642 95.8975C471.835 96.1517 471.979 96.4525 472.072 96.7998C472.165 97.1436 472.211 97.5195 472.211 97.9277V98.3735H467.872V97.5625H471.218V97.4873C471.203 97.2295 471.15 96.9788 471.057 96.7354C470.967 96.4919 470.824 96.2913 470.627 96.1338C470.43 95.9762 470.161 95.8975 469.821 95.8975C469.596 95.8975 469.388 95.9458 469.198 96.0425C469.008 96.1356 468.846 96.2752 468.709 96.4614C468.573 96.6476 468.468 96.875 468.393 97.1436C468.317 97.4121 468.28 97.7218 468.28 98.0728V98.2983C468.28 98.5741 468.317 98.8337 468.393 99.0771C468.471 99.3171 468.584 99.5283 468.731 99.7109C468.881 99.8936 469.062 100.037 469.273 100.141C469.488 100.244 469.732 100.296 470.004 100.296C470.355 100.296 470.652 100.225 470.896 100.082C471.139 99.9383 471.352 99.7467 471.535 99.5068L472.136 99.9849C472.011 100.175 471.852 100.355 471.658 100.527C471.465 100.699 471.227 100.839 470.944 100.946C470.665 101.054 470.333 101.107 469.95 101.107ZM480.725 93.1797H481.756V98.4702C481.756 99.0575 481.625 99.5462 481.364 99.9365C481.102 100.327 480.755 100.62 480.322 100.817C479.892 101.011 479.425 101.107 478.92 101.107C478.39 101.107 477.91 101.011 477.48 100.817C477.054 100.62 476.716 100.327 476.465 99.9365C476.218 99.5462 476.095 99.0575 476.095 98.4702V93.1797H477.121V98.4702C477.121 98.8784 477.196 99.215 477.346 99.48C477.497 99.745 477.706 99.9419 477.975 100.071C478.247 100.2 478.562 100.264 478.92 100.264C479.282 100.264 479.597 100.2 479.865 100.071C480.137 99.9419 480.349 99.745 480.499 99.48C480.649 99.215 480.725 98.8784 480.725 98.4702V93.1797ZM484.495 93.1797V101H483.458V93.1797H484.495ZM490.533 92.299C490.467 92.629 490.379 93.058 490.214 93.575C491.336 93.52 492.535 93.421 493.569 93.234L493.558 94.048C492.469 94.224 491.105 94.312 489.906 94.356C489.653 94.939 489.29 95.566 488.916 96.061C489.334 95.797 489.972 95.654 490.445 95.654C491.16 95.654 491.743 96.006 491.919 96.644C492.667 96.281 493.338 96.017 493.91 95.753C494.24 95.61 494.504 95.489 494.812 95.324L495.175 96.149C494.889 96.226 494.493 96.38 494.196 96.501C493.58 96.732 492.799 97.051 491.963 97.447C491.974 98.085 491.985 99.02 491.996 99.559H491.149C491.171 99.141 491.182 98.426 491.182 97.843C490.159 98.382 489.444 98.965 489.444 99.691C489.444 100.549 490.302 100.681 491.435 100.681C492.293 100.681 493.47 100.582 494.438 100.417L494.416 101.297C493.58 101.407 492.359 101.495 491.402 101.495C489.829 101.495 488.564 101.154 488.564 99.812C488.564 98.514 489.873 97.7 491.16 97.029C491.05 96.556 490.654 96.347 490.159 96.347C489.466 96.347 488.762 96.688 488.267 97.15C487.948 97.447 487.64 97.854 487.266 98.294L486.518 97.744C487.904 96.402 488.641 95.269 489.059 94.378C488.894 94.378 488.729 94.378 488.575 94.378C488.102 94.378 487.376 94.356 486.771 94.312V93.487C487.354 93.564 488.124 93.608 488.63 93.608C488.861 93.608 489.114 93.608 489.356 93.597C489.51 93.124 489.609 92.629 489.631 92.222L490.533 92.299ZM505.955 92.717L506.67 92.97C506.351 93.751 505.944 94.708 505.603 95.291L505.031 95.082C505.35 94.455 505.746 93.432 505.955 92.717ZM503.601 94.961L502.952 95.203C502.842 94.609 502.534 93.707 502.204 93.036L502.798 92.816C503.161 93.498 503.491 94.367 503.601 94.961ZM504.041 100.351V97.139C503.568 98.184 502.93 99.24 502.292 99.845C502.226 99.614 502.039 99.284 501.907 99.086C502.6 98.459 503.348 97.293 503.766 96.226H502.105V95.489H504.041V92.024H504.778V95.489H506.813V96.226H504.778V96.578C505.262 97.018 506.516 98.305 506.802 98.635L506.307 99.273C506.032 98.855 505.317 98.008 504.778 97.392V100.351H504.041ZM497.485 98.03L498.156 98.151C498.002 99.185 497.76 100.23 497.408 100.934C497.287 100.846 496.968 100.703 496.814 100.648C497.155 99.977 497.364 98.987 497.485 98.03ZM499.608 98.173L500.18 97.997C500.455 98.624 500.664 99.449 500.73 99.988L500.114 100.164C500.081 99.625 499.861 98.8 499.608 98.173ZM499.41 95.511L499.982 95.291C500.4 96.017 500.785 96.974 500.917 97.59L500.29 97.854C500.257 97.656 500.191 97.414 500.103 97.15L499.289 97.205V101.836H498.574V97.249C497.969 97.293 497.408 97.326 496.913 97.359L496.836 96.622C497.078 96.611 497.353 96.6 497.639 96.589C497.848 96.314 498.068 96.006 498.288 95.665C497.969 95.17 497.419 94.532 496.913 94.059L497.353 93.553C497.463 93.652 497.584 93.773 497.694 93.883C498.046 93.256 498.442 92.409 498.662 91.804L499.366 92.068C498.992 92.827 498.519 93.729 498.134 94.334C498.354 94.576 498.552 94.818 498.706 95.027C499.135 94.345 499.531 93.63 499.817 93.047L500.488 93.344C499.894 94.367 499.08 95.621 498.376 96.545L499.85 96.468C499.718 96.138 499.564 95.808 499.41 95.511ZM507.022 100.56V101.297H501.797V101.825H501.038V92.233H501.797V100.56H507.022ZM510.619 94.73L511.125 94.928C510.707 97.678 509.695 99.79 508.43 100.912C508.309 100.736 508.001 100.439 507.825 100.318C508.936 99.35 509.816 97.656 510.223 95.511H508.155V94.763H510.476L510.619 94.73ZM513.314 97.942V99.042H515.635V99.735H513.314V100.857C513.314 101.363 513.193 101.594 512.819 101.726C512.456 101.858 511.818 101.869 510.872 101.869C510.828 101.649 510.685 101.308 510.564 101.088C511.323 101.121 512.038 101.11 512.236 101.099C512.445 101.088 512.511 101.033 512.511 100.846V99.735H510.311V99.042H512.511V97.942H510.927V97.271H512.511V96.204H511.147V95.522H512.511V94.235H513.116C513.721 93.938 514.348 93.542 514.843 93.157H509.497V92.409H515.701L515.888 92.365L516.449 92.772C515.646 93.575 514.447 94.367 513.314 94.873V95.522H514.843V96.204H513.314V97.271H515.008V97.942H513.314ZM517.285 94.686L517.934 95.203C517.406 95.819 516.724 96.545 516.152 97.073C516.603 98.437 517.241 99.559 518.121 100.23C517.934 100.384 517.648 100.692 517.516 100.923C516.009 99.658 515.228 97.304 514.81 94.543L515.547 94.422C515.646 95.071 515.767 95.709 515.932 96.314C516.427 95.797 516.955 95.17 517.285 94.686Z" fill="black"/>
<rect x="-0.5" y="-0.5" width="47" height="239" rx="7.5" transform="matrix(-4.37114e-08 -1 -1 4.37114e-08 594 119)" stroke="var(--web-system-color-articleFigure-foreground-primary, #8FAEFE)"/>
<rect width="48" height="240" rx="8" transform="matrix(-4.37114e-08 -1 -1 4.37114e-08 595 184)" fill="white"/>
<path d="M404.5 152C404.5 148.113 403.584 146.192 402.646 144.223L402.642 144.215C401.715 142.271 400.768 140.28 400.691 136.5L363 136.5C358.858 136.5 355.5 139.858 355.5 144L355.5 176C355.5 180.142 358.858 183.5 363 183.5L404.495 183.5C404.42 179.945 403.543 178.106 402.646 176.223L402.642 176.215C401.675 174.187 400.686 172.108 400.686 168C400.686 163.892 401.675 161.813 402.642 159.785L402.646 159.777C403.584 157.808 404.5 155.887 404.5 152Z" fill="var(--web-system-color-articleFigure-foreground-tertiary, #EFF2FC)" stroke="var(--web-system-color-articleFigure-foreground-primary, #8FAEFE)" stroke-miterlimit="10"/>
<rect x="-0.5" y="-0.5" width="47" height="239" rx="7.5" transform="matrix(-4.37114e-08 -1 -1 4.37114e-08 594 183)" stroke="var(--web-system-color-articleFigure-foreground-primary, #8FAEFE)"/>
<path d="M427.289 154.98L428.004 155.354C427.685 155.915 427.267 156.476 426.816 156.993C427.399 158.181 427.498 159.435 427.498 160.722C427.498 162.317 427.377 163.791 426.926 164.407C426.783 164.583 426.563 164.715 426.299 164.759C425.914 164.836 425.474 164.836 425.023 164.814C425.012 164.55 424.924 164.253 424.792 164.022C425.309 164.066 425.727 164.055 425.98 164.033C426.145 164.011 426.244 163.956 426.343 163.835C426.607 163.472 426.717 162.152 426.717 160.711V160.348C426.2 161.085 425.551 161.789 424.968 162.262C424.825 162.064 424.605 161.789 424.407 161.646C425.221 161.118 426.112 160.095 426.629 159.138C426.563 158.61 426.442 158.104 426.244 157.62C425.859 158.005 425.441 158.379 425.023 158.698C424.891 158.533 424.638 158.313 424.462 158.181C424.957 157.829 425.441 157.367 425.903 156.894C425.595 156.377 425.188 155.882 424.638 155.409L425.21 154.969C425.705 155.398 426.101 155.838 426.409 156.289C426.761 155.849 427.069 155.409 427.289 154.98ZM429.082 160.282H430.688V157.675H429.082V160.282ZM433.097 157.675H431.502V160.282H433.097V157.675ZM434.56 164.506L433.746 164.792C433.68 164.528 433.57 164.22 433.438 163.868C431.425 164.121 429.346 164.352 427.872 164.506L427.718 163.659C428.51 163.593 429.544 163.483 430.688 163.362V160.997H428.29V156.949H430.688V154.826H431.502V156.949H433.922V160.997H431.502V163.274L433.13 163.109C432.91 162.614 432.679 162.097 432.459 161.646L433.218 161.426C433.713 162.405 434.307 163.725 434.56 164.506ZM437.64 163.472H443.503V161.844H437.64V163.472ZM443.503 159.479H437.64V161.074H443.503V159.479ZM443.503 157.07H437.64V158.709H443.503V157.07ZM440.401 156.289H444.35V164.803H443.503V164.242H437.64V164.858H436.826V156.289H439.587C439.752 155.805 439.928 155.211 440.016 154.782L440.951 154.903C440.786 155.376 440.588 155.871 440.401 156.289ZM449.707 163.032V156.63C449.707 156.322 449.685 155.827 449.619 155.486H450.697C450.664 155.827 450.62 156.3 450.62 156.63C450.62 157.092 450.62 157.73 450.62 158.423C452.072 158.863 454.162 159.655 455.317 160.238L454.943 161.173C453.744 160.524 451.841 159.787 450.62 159.402C450.631 161.052 450.631 162.713 450.631 163.032C450.631 163.373 450.653 163.967 450.697 164.33H449.63C449.685 163.978 449.707 163.439 449.707 163.032ZM458.122 159.237C458.452 159.259 459.035 159.292 459.651 159.292H465.679C466.229 159.292 466.625 159.259 466.867 159.237V160.315C466.647 160.304 466.185 160.26 465.69 160.26H459.651C459.046 160.26 458.463 160.282 458.122 160.315V159.237ZM473.907 155.453C473.72 155.739 473.522 156.113 473.423 156.322C473.346 156.476 473.258 156.63 473.159 156.784H476.14C476.437 156.784 476.679 156.751 476.855 156.674L477.592 157.125C477.504 157.279 477.394 157.532 477.339 157.708C477.042 158.819 476.36 160.304 475.381 161.492C474.38 162.713 473.071 163.725 471.003 164.484L470.211 163.769C472.224 163.175 473.599 162.174 474.6 161.008C475.458 159.996 476.129 158.577 476.36 157.576H472.642C471.971 158.5 471.047 159.479 469.848 160.282L469.089 159.71C470.981 158.577 472.07 156.982 472.543 155.992C472.653 155.805 472.818 155.409 472.884 155.123L473.907 155.453ZM481.497 155.937C482.278 156.454 483.686 157.598 484.302 158.214L483.609 158.907C483.059 158.335 481.684 157.158 480.87 156.608L481.497 155.937ZM480.551 163.307C482.476 163.021 483.906 162.35 484.951 161.701C486.645 160.634 487.987 159.006 488.625 157.653L489.153 158.588C488.405 159.963 487.118 161.459 485.457 162.504C484.357 163.197 482.971 163.868 481.134 164.209L480.551 163.307ZM492.75 158.654C493.399 158.654 493.916 159.171 493.916 159.82C493.916 160.469 493.399 160.986 492.75 160.986C492.101 160.986 491.584 160.469 491.584 159.82C491.584 159.171 492.101 158.654 492.75 158.654ZM497.392 156.454C497.755 156.498 498.239 156.52 498.591 156.52H504.014C504.278 156.52 504.608 156.509 504.828 156.498C504.817 156.751 504.795 157.092 504.795 157.356V163.032C504.795 163.428 504.828 163.923 504.839 164.099H503.849C503.86 163.978 503.86 163.747 503.871 163.483H498.492C498.041 163.483 497.546 163.505 497.249 163.527V162.526C497.535 162.559 498.008 162.592 498.47 162.592H503.871V157.4H498.602C498.195 157.4 497.645 157.422 497.392 157.433V156.454ZM508.997 155.937C509.778 156.454 511.186 157.598 511.802 158.214L511.109 158.907C510.559 158.335 509.184 157.158 508.37 156.608L508.997 155.937ZM508.051 163.307C509.976 163.021 511.406 162.35 512.451 161.701C514.145 160.634 515.487 159.006 516.125 157.653L516.653 158.588C515.905 159.963 514.618 161.459 512.957 162.504C511.857 163.197 510.471 163.868 508.634 164.209L508.051 163.307ZM525.805 155.871C525.805 156.267 526.113 156.575 526.498 156.575C526.894 156.575 527.213 156.267 527.213 155.871C527.213 155.486 526.894 155.167 526.498 155.167C526.113 155.167 525.805 155.486 525.805 155.871ZM525.299 155.871C525.299 155.211 525.838 154.661 526.498 154.661C527.169 154.661 527.708 155.211 527.708 155.871C527.708 156.542 527.169 157.07 526.498 157.07C525.838 157.07 525.299 156.542 525.299 155.871ZM523.462 155.519C523.429 155.673 523.396 156.069 523.396 156.311V157.433H526.3C526.564 157.433 526.927 157.411 527.202 157.378V158.291C526.905 158.269 526.575 158.269 526.311 158.269H523.396V163.593C523.396 164.176 523.11 164.473 522.45 164.473C521.988 164.473 521.328 164.44 520.888 164.396L520.811 163.516C521.284 163.604 521.79 163.648 522.076 163.648C522.373 163.648 522.505 163.516 522.505 163.23V158.269H519.447C519.117 158.269 518.809 158.28 518.512 158.302V157.378C518.82 157.411 519.095 157.433 519.447 157.433H522.505V156.3C522.505 156.058 522.472 155.684 522.428 155.519H523.462ZM525.64 159.6C526.223 160.304 527.103 161.679 527.543 162.471L526.729 162.922C526.3 162.064 525.475 160.689 524.892 159.996L525.64 159.6ZM521.042 159.963C520.58 160.909 519.546 162.306 518.93 162.977L518.171 162.471C518.897 161.789 519.843 160.48 520.272 159.589L521.042 159.963ZM529.622 159.237C529.952 159.259 530.535 159.292 531.151 159.292H537.179C537.729 159.292 538.125 159.259 538.367 159.237V160.315C538.147 160.304 537.685 160.26 537.19 160.26H531.151C530.546 160.26 529.963 160.282 529.622 160.315V159.237ZM545.583 155.189C545.539 155.431 545.517 155.849 545.517 156.157V156.861H547.332C547.585 156.861 547.838 156.85 548.025 156.795L548.597 157.345C548.399 157.554 548.157 157.807 547.981 158.005C547.431 158.665 546.507 159.589 545.495 160.293C545.495 161.195 545.484 162.515 545.484 163.252C545.484 163.637 545.517 164.121 545.539 164.462H544.538C544.571 164.143 544.604 163.637 544.604 163.252C544.604 162.614 544.615 161.602 544.615 160.854C543.592 161.448 542.382 161.932 540.897 162.383L540.369 161.569C542.448 161.074 543.823 160.348 544.824 159.699C545.803 159.072 546.683 158.203 547.057 157.686H542.492C542.107 157.686 541.48 157.708 541.139 157.73V156.806C541.491 156.85 542.107 156.861 542.47 156.861H544.626V156.157C544.626 155.849 544.615 155.431 544.571 155.189H545.583ZM549.114 162.526C548.157 161.822 547.497 161.382 546.463 160.832L547.035 160.183C548.069 160.733 548.663 161.085 549.686 161.778L549.114 162.526ZM552.997 155.937C553.778 156.454 555.186 157.598 555.802 158.214L555.109 158.907C554.559 158.335 553.184 157.158 552.37 156.608L552.997 155.937ZM552.051 163.307C553.976 163.021 555.406 162.35 556.451 161.701C558.145 160.634 559.487 159.006 560.125 157.653L560.653 158.588C559.905 159.963 558.618 161.459 556.957 162.504C555.857 163.197 554.471 163.868 552.634 164.209L552.051 163.307ZM565.207 163.032V156.63C565.207 156.322 565.185 155.827 565.119 155.486H566.197C566.164 155.827 566.12 156.3 566.12 156.63C566.12 157.092 566.12 157.73 566.12 158.423C567.572 158.863 569.662 159.655 570.817 160.238L570.443 161.173C569.244 160.524 567.341 159.787 566.12 159.402C566.131 161.052 566.131 162.713 566.131 163.032C566.131 163.373 566.153 163.967 566.197 164.33H565.13C565.185 163.978 565.207 163.439 565.207 163.032Z" fill="black"/>
<rect width="48" height="240" rx="8" transform="matrix(-4.37114e-08 -1 -1 4.37114e-08 595 248)" fill="white"/>
<path d="M526.5 216C526.5 212.113 525.58 210.193 524.638 208.223L524.634 208.216C523.703 206.272 522.753 204.281 522.675 200.5L363 200.5C358.858 200.5 355.5 203.858 355.5 208L355.5 240C355.5 244.142 358.858 247.5 363 247.5L526.495 247.5C526.419 243.945 525.539 242.106 524.638 240.223L524.634 240.216C523.663 238.188 522.67 236.109 522.67 232C522.67 227.892 523.663 225.812 524.634 223.784L524.638 223.777C525.58 221.807 526.5 219.887 526.5 216Z" fill="var(--web-system-color-articleFigure-foreground-tertiary, #EFF2FC)" stroke="var(--web-system-color-articleFigure-foreground-primary, #8FAEFE)" stroke-miterlimit="10"/>
<rect x="-0.5" y="-0.5" width="47" height="239" rx="7.5" transform="matrix(-4.37114e-08 -1 -1 4.37114e-08 594 247)" stroke="var(--web-system-color-articleFigure-foreground-primary, #8FAEFE)"/>
<rect width="48" height="240" rx="8" transform="matrix(-4.37114e-08 -1 -1 4.37114e-08 595 312)" fill="white"/>
<path d="M486.5 280C486.5 276.113 485.581 274.192 484.639 272.223L484.635 272.216C483.705 270.271 482.755 268.281 482.677 264.5L363 264.5C358.858 264.5 355.5 267.858 355.5 272L355.5 304C355.5 308.142 358.858 311.5 363 311.5L486.495 311.5C486.419 307.945 485.54 306.106 484.639 304.223L484.635 304.216C483.665 302.188 482.672 300.108 482.672 296C482.672 291.892 483.665 289.812 484.635 287.784L484.639 287.777C485.581 285.808 486.5 283.887 486.5 280Z" fill="var(--web-system-color-articleFigure-foreground-tertiary, #EFF2FC)" stroke="var(--web-system-color-articleFigure-foreground-primary, #8FAEFE)" stroke-miterlimit="10"/>
<rect x="-0.5" y="-0.5" width="47" height="239" rx="7.5" transform="matrix(-4.37114e-08 -1 -1 4.37114e-08 594 311)" stroke="var(--web-system-color-articleFigure-foreground-primary, #8FAEFE)"/>
<path d="M625.036 91.216V91.96H619.78V91.216H621.988V90.004H622.852V91.216H625.036ZM623.656 93.88L622.936 93.724C623.152 93.244 623.428 92.5 623.536 91.984L624.352 92.176C624.124 92.776 623.884 93.448 623.656 93.88ZM621.712 93.712L620.968 93.916C620.92 93.448 620.728 92.728 620.5 92.188L621.196 92.008C621.448 92.548 621.652 93.256 621.712 93.712ZM624.748 98.524L624.22 99.184C623.968 98.884 623.356 98.296 622.852 97.84V100.888H621.988V97.744C621.4 98.668 620.656 99.52 619.984 100.048C619.84 99.844 619.576 99.556 619.384 99.4C620.248 98.836 621.196 97.756 621.796 96.7H619.648V95.944H621.988V94.684H619.612V93.928H625.18V94.684H622.852V95.944H625.084V96.7H622.852V96.988C623.308 97.324 624.472 98.272 624.748 98.524ZM630.472 93.976V94.816H629.128V100.84H628.252V94.816H626.464V95.116C626.464 96.904 626.236 99.304 624.556 100.972C624.448 100.78 624.124 100.468 623.92 100.348C625.444 98.86 625.612 96.784 625.612 95.104V90.928L626.26 91.132C627.484 90.868 628.828 90.484 629.596 90.1L630.316 90.76C629.296 91.216 627.796 91.576 626.464 91.84V93.976H630.472ZM636.328 98.464L635.716 99.124C635.416 98.668 634.696 97.768 634.144 97.12C633.868 98.476 633.292 99.796 632.092 100.78C631.984 100.588 631.696 100.276 631.492 100.132C633.016 98.992 633.412 97.144 633.508 95.512H631.564V94.708H633.544C633.544 94.54 633.544 94.372 633.544 94.204V92.74H631.816V91.948H633.544V90.088H634.372V91.948H636.064V92.74H634.372V94.204C634.372 94.372 634.372 94.54 634.372 94.708H636.28V95.512H634.336C634.324 95.74 634.3 95.98 634.276 96.208C634.78 96.712 636.028 98.116 636.328 98.464ZM637.552 95.056V96.256H640.972V95.056H637.552ZM637.552 93.148V94.324H640.972V93.148H637.552ZM637.552 91.24V92.404H640.972V91.24H637.552ZM640.708 99.916H641.464C641.728 99.916 641.776 99.736 641.812 98.332C641.98 98.476 642.328 98.608 642.556 98.668C642.484 100.3 642.268 100.708 641.56 100.708H640.588C639.76 100.708 639.592 100.444 639.592 99.604V97.06H638.524C638.308 98.872 637.696 100.18 635.656 100.9C635.572 100.708 635.332 100.384 635.152 100.228C636.976 99.64 637.492 98.536 637.684 97.06H636.724V90.424H641.836V97.06H640.408V99.604C640.408 99.88 640.456 99.916 640.708 99.916ZM652.288 98.416V97.516H649.408V98.416H652.288ZM649.408 95.968V96.808H652.288V95.968H649.408ZM645.94 93.844H648.52V92.98H645.94V93.844ZM652.096 92.98H649.408V93.844H652.096V92.98ZM654.412 96.808V97.516H653.176V99.64H652.288V99.1H649.408V99.928C649.408 100.48 649.24 100.684 648.88 100.816C648.508 100.948 647.884 100.96 646.888 100.96C646.84 100.732 646.696 100.408 646.576 100.204C647.296 100.228 648.016 100.216 648.22 100.216C648.448 100.204 648.52 100.132 648.52 99.928V99.1H644.644V98.416H648.52V97.516H643.612V96.808H648.52V95.968H644.752V95.308H648.52V94.468H645.088V92.356H648.52V91.66H643.84V90.928H648.52V89.968H649.408V90.928H654.184V91.66H649.408V92.356H652.984V94.468H649.408V95.308H653.176V96.808H654.412ZM662.788 92.848H659.26C659.512 93.22 659.764 93.724 659.86 94.048L659.476 94.132H662.296L662.176 94.096C662.38 93.748 662.62 93.256 662.788 92.848ZM666.232 98.068H662.248C663.34 98.932 664.996 99.64 666.532 99.964C666.328 100.156 666.052 100.504 665.932 100.756C664.324 100.3 662.572 99.4 661.42 98.296V100.912H660.544V98.356C659.392 99.4 657.64 100.264 656.068 100.72C655.948 100.492 655.684 100.156 655.492 99.964C656.98 99.628 658.648 98.908 659.728 98.068H655.804V97.312H660.544V96.424H656.932V95.74H660.544V94.864H656.332V94.132H658.948C658.84 93.772 658.6 93.292 658.36 92.932L658.78 92.848H655.852V92.08H657.76C657.592 91.6 657.172 90.88 656.812 90.34L657.568 90.088C657.976 90.628 658.408 91.372 658.588 91.852L657.976 92.08H659.452V89.956H660.28V92.08H661.708V89.956H662.548V92.08H664L663.556 91.936C663.868 91.432 664.252 90.652 664.468 90.112L665.38 90.352C665.044 90.964 664.66 91.624 664.324 92.08H666.184V92.848H663.784C663.544 93.304 663.28 93.772 663.04 94.132H665.764V94.864H661.42V95.74H665.176V96.424H661.42V97.312H666.232V98.068Z" fill="black"/>
<path d="M628.288 163.416V162.516H625.408V163.416H628.288ZM625.408 160.968V161.808H628.288V160.968H625.408ZM621.94 158.844H624.52V157.98H621.94V158.844ZM628.096 157.98H625.408V158.844H628.096V157.98ZM630.412 161.808V162.516H629.176V164.64H628.288V164.1H625.408V164.928C625.408 165.48 625.24 165.684 624.88 165.816C624.508 165.948 623.884 165.96 622.888 165.96C622.84 165.732 622.696 165.408 622.576 165.204C623.296 165.228 624.016 165.216 624.22 165.216C624.448 165.204 624.52 165.132 624.52 164.928V164.1H620.644V163.416H624.52V162.516H619.612V161.808H624.52V160.968H620.752V160.308H624.52V159.468H621.088V157.356H624.52V156.66H619.84V155.928H624.52V154.968H625.408V155.928H630.184V156.66H625.408V157.356H628.984V159.468H625.408V160.308H629.176V161.808H630.412ZM638.788 157.848H635.26C635.512 158.22 635.764 158.724 635.86 159.048L635.476 159.132H638.296L638.176 159.096C638.38 158.748 638.62 158.256 638.788 157.848ZM642.232 163.068H638.248C639.34 163.932 640.996 164.64 642.532 164.964C642.328 165.156 642.052 165.504 641.932 165.756C640.324 165.3 638.572 164.4 637.42 163.296V165.912H636.544V163.356C635.392 164.4 633.64 165.264 632.068 165.72C631.948 165.492 631.684 165.156 631.492 164.964C632.98 164.628 634.648 163.908 635.728 163.068H631.804V162.312H636.544V161.424H632.932V160.74H636.544V159.864H632.332V159.132H634.948C634.84 158.772 634.6 158.292 634.36 157.932L634.78 157.848H631.852V157.08H633.76C633.592 156.6 633.172 155.88 632.812 155.34L633.568 155.088C633.976 155.628 634.408 156.372 634.588 156.852L633.976 157.08H635.452V154.956H636.28V157.08H637.708V154.956H638.548V157.08H640L639.556 156.936C639.868 156.432 640.252 155.652 640.468 155.112L641.38 155.352C641.044 155.964 640.66 156.624 640.324 157.08H642.184V157.848H639.784C639.544 158.304 639.28 158.772 639.04 159.132H641.764V159.864H637.42V160.74H641.176V161.424H637.42V162.312H642.232V163.068ZM647.148 157.225L644.324 165H643.17L646.422 156.469H647.166L647.148 157.225ZM649.516 165L646.686 157.225L646.668 156.469H647.412L650.676 165H649.516ZM649.369 161.842V162.768H644.576V161.842H649.369Z" fill="black"/>
<path d="M628.288 227.416V226.516H625.408V227.416H628.288ZM625.408 224.968V225.808H628.288V224.968H625.408ZM621.94 222.844H624.52V221.98H621.94V222.844ZM628.096 221.98H625.408V222.844H628.096V221.98ZM630.412 225.808V226.516H629.176V228.64H628.288V228.1H625.408V228.928C625.408 229.48 625.24 229.684 624.88 229.816C624.508 229.948 623.884 229.96 622.888 229.96C622.84 229.732 622.696 229.408 622.576 229.204C623.296 229.228 624.016 229.216 624.22 229.216C624.448 229.204 624.52 229.132 624.52 228.928V228.1H620.644V227.416H624.52V226.516H619.612V225.808H624.52V224.968H620.752V224.308H624.52V223.468H621.088V221.356H624.52V220.66H619.84V219.928H624.52V218.968H625.408V219.928H630.184V220.66H625.408V221.356H628.984V223.468H625.408V224.308H629.176V225.808H630.412ZM638.788 221.848H635.26C635.512 222.22 635.764 222.724 635.86 223.048L635.476 223.132H638.296L638.176 223.096C638.38 222.748 638.62 222.256 638.788 221.848ZM642.232 227.068H638.248C639.34 227.932 640.996 228.64 642.532 228.964C642.328 229.156 642.052 229.504 641.932 229.756C640.324 229.3 638.572 228.4 637.42 227.296V229.912H636.544V227.356C635.392 228.4 633.64 229.264 632.068 229.72C631.948 229.492 631.684 229.156 631.492 228.964C632.98 228.628 634.648 227.908 635.728 227.068H631.804V226.312H636.544V225.424H632.932V224.74H636.544V223.864H632.332V223.132H634.948C634.84 222.772 634.6 222.292 634.36 221.932L634.78 221.848H631.852V221.08H633.76C633.592 220.6 633.172 219.88 632.812 219.34L633.568 219.088C633.976 219.628 634.408 220.372 634.588 220.852L633.976 221.08H635.452V218.956H636.28V221.08H637.708V218.956H638.548V221.08H640L639.556 220.936C639.868 220.432 640.252 219.652 640.468 219.112L641.38 219.352C641.044 219.964 640.66 220.624 640.324 221.08H642.184V221.848H639.784C639.544 222.304 639.28 222.772 639.04 223.132H641.764V223.864H637.42V224.74H641.176V225.424H637.42V226.312H642.232V227.068ZM647.031 225.01H644.869L644.857 224.102H646.82C647.145 224.102 647.428 224.047 647.67 223.938C647.912 223.828 648.1 223.672 648.232 223.469C648.369 223.262 648.438 223.016 648.438 222.73C648.438 222.418 648.377 222.164 648.256 221.969C648.139 221.77 647.957 221.625 647.711 221.535C647.469 221.441 647.16 221.395 646.785 221.395H645.121V229H643.99V220.469H646.785C647.223 220.469 647.613 220.514 647.957 220.604C648.301 220.689 648.592 220.826 648.83 221.014C649.072 221.197 649.256 221.432 649.381 221.717C649.506 222.002 649.568 222.344 649.568 222.742C649.568 223.094 649.479 223.412 649.299 223.697C649.119 223.979 648.869 224.209 648.549 224.389C648.232 224.568 647.861 224.684 647.436 224.734L647.031 225.01ZM646.979 229H644.424L645.062 228.08H646.979C647.338 228.08 647.643 228.018 647.893 227.893C648.146 227.768 648.34 227.592 648.473 227.365C648.605 227.135 648.672 226.863 648.672 226.551C648.672 226.234 648.615 225.961 648.502 225.73C648.389 225.5 648.211 225.322 647.969 225.197C647.727 225.072 647.414 225.01 647.031 225.01H645.42L645.432 224.102H647.635L647.875 224.43C648.285 224.465 648.633 224.582 648.918 224.781C649.203 224.977 649.42 225.227 649.568 225.531C649.721 225.836 649.797 226.172 649.797 226.539C649.797 227.07 649.68 227.52 649.445 227.887C649.215 228.25 648.889 228.527 648.467 228.719C648.045 228.906 647.549 229 646.979 229Z" fill="black"/>
<path d="M628.288 291.416V290.516H625.408V291.416H628.288ZM625.408 288.968V289.808H628.288V288.968H625.408ZM621.94 286.844H624.52V285.98H621.94V286.844ZM628.096 285.98H625.408V286.844H628.096V285.98ZM630.412 289.808V290.516H629.176V292.64H628.288V292.1H625.408V292.928C625.408 293.48 625.24 293.684 624.88 293.816C624.508 293.948 623.884 293.96 622.888 293.96C622.84 293.732 622.696 293.408 622.576 293.204C623.296 293.228 624.016 293.216 624.22 293.216C624.448 293.204 624.52 293.132 624.52 292.928V292.1H620.644V291.416H624.52V290.516H619.612V289.808H624.52V288.968H620.752V288.308H624.52V287.468H621.088V285.356H624.52V284.66H619.84V283.928H624.52V282.968H625.408V283.928H630.184V284.66H625.408V285.356H628.984V287.468H625.408V288.308H629.176V289.808H630.412ZM638.788 285.848H635.26C635.512 286.22 635.764 286.724 635.86 287.048L635.476 287.132H638.296L638.176 287.096C638.38 286.748 638.62 286.256 638.788 285.848ZM642.232 291.068H638.248C639.34 291.932 640.996 292.64 642.532 292.964C642.328 293.156 642.052 293.504 641.932 293.756C640.324 293.3 638.572 292.4 637.42 291.296V293.912H636.544V291.356C635.392 292.4 633.64 293.264 632.068 293.72C631.948 293.492 631.684 293.156 631.492 292.964C632.98 292.628 634.648 291.908 635.728 291.068H631.804V290.312H636.544V289.424H632.932V288.74H636.544V287.864H632.332V287.132H634.948C634.84 286.772 634.6 286.292 634.36 285.932L634.78 285.848H631.852V285.08H633.76C633.592 284.6 633.172 283.88 632.812 283.34L633.568 283.088C633.976 283.628 634.408 284.372 634.588 284.852L633.976 285.08H635.452V282.956H636.28V285.08H637.708V282.956H638.548V285.08H640L639.556 284.936C639.868 284.432 640.252 283.652 640.468 283.112L641.38 283.352C641.044 283.964 640.66 284.624 640.324 285.08H642.184V285.848H639.784C639.544 286.304 639.28 286.772 639.04 287.132H641.764V287.864H637.42V288.74H641.176V289.424H637.42V290.312H642.232V291.068ZM649.141 290.287H650.266C650.207 290.826 650.053 291.309 649.803 291.734C649.553 292.16 649.199 292.498 648.742 292.748C648.285 292.994 647.715 293.117 647.031 293.117C646.531 293.117 646.076 293.023 645.666 292.836C645.26 292.648 644.91 292.383 644.617 292.039C644.324 291.691 644.098 291.275 643.938 290.791C643.781 290.303 643.703 289.76 643.703 289.162V288.312C643.703 287.715 643.781 287.174 643.938 286.689C644.098 286.201 644.326 285.783 644.623 285.436C644.924 285.088 645.285 284.82 645.707 284.633C646.129 284.445 646.604 284.352 647.131 284.352C647.775 284.352 648.32 284.473 648.766 284.715C649.211 284.957 649.557 285.293 649.803 285.723C650.053 286.148 650.207 286.643 650.266 287.205H649.141C649.086 286.807 648.984 286.465 648.836 286.18C648.688 285.891 648.477 285.668 648.203 285.512C647.93 285.355 647.572 285.277 647.131 285.277C646.752 285.277 646.418 285.35 646.129 285.494C645.844 285.639 645.604 285.844 645.408 286.109C645.217 286.375 645.072 286.693 644.975 287.064C644.877 287.436 644.828 287.848 644.828 288.301V289.162C644.828 289.58 644.871 289.973 644.957 290.34C645.047 290.707 645.182 291.029 645.361 291.307C645.541 291.584 645.77 291.803 646.047 291.963C646.324 292.119 646.652 292.197 647.031 292.197C647.512 292.197 647.895 292.121 648.18 291.969C648.465 291.816 648.68 291.598 648.824 291.312C648.973 291.027 649.078 290.686 649.141 290.287Z" fill="black"/>
<path d="M424.592 42.48H419.348V44.616H424.592V42.48ZM418.46 45.972V41.652H425.516V45.936H424.592V45.42H419.348V45.972H418.46ZM419.96 37.008L419.864 37.116C420.44 37.788 421.196 38.412 422.06 38.952C422.972 38.388 423.788 37.728 424.388 37.008H419.96ZM425.204 36.168L425.816 36.588C425.12 37.692 424.088 38.64 422.9 39.444C424.292 40.2 425.924 40.788 427.58 41.112C427.376 41.316 427.136 41.688 427.004 41.928C425.264 41.532 423.56 40.848 422.072 39.948C420.416 40.884 418.556 41.568 416.828 41.976C416.756 41.736 416.552 41.364 416.396 41.172C417.98 40.836 419.72 40.236 421.268 39.42C420.524 38.892 419.852 38.316 419.3 37.68C418.688 38.256 418.04 38.76 417.392 39.156C417.248 38.988 416.912 38.652 416.708 38.496C418.208 37.68 419.66 36.336 420.5 34.86L421.352 35.16C421.136 35.52 420.896 35.88 420.632 36.216H425.048L425.204 36.168ZM437.288 43.416V42.516H434.408V43.416H437.288ZM434.408 40.968V41.808H437.288V40.968H434.408ZM430.94 38.844H433.52V37.98H430.94V38.844ZM437.096 37.98H434.408V38.844H437.096V37.98ZM439.412 41.808V42.516H438.176V44.64H437.288V44.1H434.408V44.928C434.408 45.48 434.24 45.684 433.88 45.816C433.508 45.948 432.884 45.96 431.888 45.96C431.84 45.732 431.696 45.408 431.576 45.204C432.296 45.228 433.016 45.216 433.22 45.216C433.448 45.204 433.52 45.132 433.52 44.928V44.1H429.644V43.416H433.52V42.516H428.612V41.808H433.52V40.968H429.752V40.308H433.52V39.468H430.088V37.356H433.52V36.66H428.84V35.928H433.52V34.968H434.408V35.928H439.184V36.66H434.408V37.356H437.984V39.468H434.408V40.308H438.176V41.808H439.412ZM447.788 37.848H444.26C444.512 38.22 444.764 38.724 444.86 39.048L444.476 39.132H447.296L447.176 39.096C447.38 38.748 447.62 38.256 447.788 37.848ZM451.232 43.068H447.248C448.34 43.932 449.996 44.64 451.532 44.964C451.328 45.156 451.052 45.504 450.932 45.756C449.324 45.3 447.572 44.4 446.42 43.296V45.912H445.544V43.356C444.392 44.4 442.64 45.264 441.068 45.72C440.948 45.492 440.684 45.156 440.492 44.964C441.98 44.628 443.648 43.908 444.728 43.068H440.804V42.312H445.544V41.424H441.932V40.74H445.544V39.864H441.332V39.132H443.948C443.84 38.772 443.6 38.292 443.36 37.932L443.78 37.848H440.852V37.08H442.76C442.592 36.6 442.172 35.88 441.812 35.34L442.568 35.088C442.976 35.628 443.408 36.372 443.588 36.852L442.976 37.08H444.452V34.956H445.28V37.08H446.708V34.956H447.548V37.08H449L448.556 36.936C448.868 36.432 449.252 35.652 449.468 35.112L450.38 35.352C450.044 35.964 449.66 36.624 449.324 37.08H451.184V37.848H448.784C448.544 38.304 448.28 38.772 448.04 39.132H450.764V39.864H446.42V40.74H450.176V41.424H446.42V42.312H451.232V43.068ZM453.2 45V36.192H455.408C458.108 36.192 459.56 37.776 459.56 40.572C459.56 43.356 458.108 45 455.456 45H453.2ZM454.316 44.088H455.312C457.388 44.088 458.408 42.792 458.408 40.572C458.408 38.34 457.388 37.104 455.312 37.104H454.316V44.088ZM463.97 45.156C462.242 45.156 460.85 43.896 460.85 41.748C460.85 39.636 462.278 38.316 463.79 38.316C465.446 38.316 466.382 39.516 466.382 41.376C466.382 41.616 466.358 41.844 466.334 42H461.942C462.014 43.392 462.866 44.28 464.102 44.28C464.738 44.28 465.254 44.088 465.734 43.764L466.13 44.484C465.554 44.856 464.858 45.156 463.97 45.156ZM461.93 41.208H465.422C465.422 39.9 464.822 39.192 463.802 39.192C462.878 39.192 462.062 39.936 461.93 41.208ZM469.691 45.156C468.767 45.156 467.879 44.772 467.255 44.256L467.795 43.536C468.359 43.992 468.947 44.304 469.727 44.304C470.591 44.304 471.011 43.848 471.011 43.284C471.011 42.612 470.243 42.324 469.523 42.048C468.611 41.712 467.615 41.268 467.615 40.164C467.615 39.132 468.455 38.316 469.871 38.316C470.675 38.316 471.383 38.652 471.887 39.048L471.359 39.756C470.915 39.42 470.459 39.18 469.883 39.18C469.055 39.18 468.671 39.612 468.671 40.116C468.671 40.74 469.343 40.968 470.075 41.244C471.023 41.604 472.067 41.988 472.067 43.224C472.067 44.28 471.227 45.156 469.691 45.156ZM473.6 45V38.484H474.692V45H473.6ZM474.152 37.14C473.72 37.14 473.42 36.852 473.42 36.408C473.42 35.988 473.72 35.7 474.152 35.7C474.584 35.7 474.884 35.988 474.884 36.408C474.884 36.852 474.584 37.14 474.152 37.14ZM479.101 48C477.505 48 476.413 47.376 476.413 46.248C476.413 45.696 476.761 45.168 477.373 44.772V44.724C477.025 44.52 476.773 44.172 476.773 43.656C476.773 43.116 477.169 42.684 477.505 42.444V42.396C477.073 42.048 476.653 41.424 476.653 40.644C476.653 39.216 477.781 38.316 479.101 38.316C479.461 38.316 479.785 38.4 480.013 38.484H482.281V39.324H480.949C481.261 39.624 481.477 40.104 481.477 40.668C481.477 42.06 480.421 42.936 479.101 42.936C478.777 42.936 478.417 42.852 478.129 42.708C477.889 42.912 477.709 43.128 477.709 43.488C477.709 43.908 477.973 44.196 478.849 44.196H480.121C481.633 44.196 482.401 44.676 482.401 45.744C482.401 46.956 481.117 48 479.101 48ZM479.101 42.192C479.845 42.192 480.493 41.592 480.493 40.644C480.493 39.696 479.869 39.12 479.101 39.12C478.333 39.12 477.709 39.684 477.709 40.644C477.709 41.592 478.345 42.192 479.101 42.192ZM479.257 47.256C480.505 47.256 481.333 46.596 481.333 45.912C481.333 45.312 480.865 45.108 480.001 45.108H478.873C478.633 45.108 478.321 45.072 478.033 45C477.565 45.336 477.373 45.72 477.373 46.104C477.373 46.8 478.081 47.256 479.257 47.256ZM483.667 45V38.484H484.567L484.663 39.42H484.699C485.323 38.808 485.995 38.316 486.883 38.316C488.251 38.316 488.875 39.204 488.875 40.872V45H487.783V41.016C487.783 39.792 487.411 39.276 486.547 39.276C485.875 39.276 485.419 39.612 484.759 40.272V45H483.667ZM496.23 45.156C494.982 45.156 493.914 44.652 493.146 43.848L493.818 43.092C494.442 43.752 495.33 44.184 496.242 44.184C497.394 44.184 498.09 43.608 498.09 42.744C498.09 41.844 497.454 41.556 496.626 41.184L495.354 40.632C494.538 40.284 493.566 39.66 493.566 38.376C493.566 37.02 494.742 36.036 496.338 36.036C497.382 36.036 498.306 36.48 498.93 37.128L498.342 37.836C497.802 37.332 497.154 37.008 496.338 37.008C495.342 37.008 494.694 37.512 494.694 38.304C494.694 39.156 495.462 39.48 496.146 39.768L497.406 40.308C498.426 40.752 499.218 41.352 499.218 42.66C499.218 44.052 498.066 45.156 496.23 45.156ZM500.954 47.808C500.642 47.808 500.39 47.76 500.186 47.676L500.402 46.8C500.534 46.848 500.726 46.908 500.894 46.908C501.638 46.908 502.106 46.308 502.37 45.504L502.514 45.012L499.898 38.484H501.038L502.37 42.108C502.562 42.672 502.79 43.344 502.994 43.932H503.054C503.234 43.344 503.426 42.684 503.606 42.108L504.77 38.484H505.838L503.378 45.54C502.934 46.824 502.25 47.808 500.954 47.808ZM508.808 45.156C507.884 45.156 506.996 44.772 506.372 44.256L506.912 43.536C507.476 43.992 508.064 44.304 508.844 44.304C509.708 44.304 510.128 43.848 510.128 43.284C510.128 42.612 509.36 42.324 508.64 42.048C507.728 41.712 506.732 41.268 506.732 40.164C506.732 39.132 507.572 38.316 508.988 38.316C509.792 38.316 510.5 38.652 511.004 39.048L510.476 39.756C510.032 39.42 509.576 39.18 509 39.18C508.172 39.18 507.788 39.612 507.788 40.116C507.788 40.74 508.46 40.968 509.192 41.244C510.14 41.604 511.184 41.988 511.184 43.224C511.184 44.28 510.344 45.156 508.808 45.156ZM514.5 45.156C513.108 45.156 512.64 44.28 512.64 42.984V39.372H511.668V38.544L512.688 38.484L512.82 36.648H513.732V38.484H515.496V39.372H513.732V43.008C513.732 43.812 513.984 44.268 514.74 44.268C514.968 44.268 515.268 44.184 515.484 44.1L515.7 44.916C515.328 45.036 514.896 45.156 514.5 45.156ZM519.423 45.156C517.695 45.156 516.303 43.896 516.303 41.748C516.303 39.636 517.731 38.316 519.243 38.316C520.899 38.316 521.835 39.516 521.835 41.376C521.835 41.616 521.811 41.844 521.787 42H517.395C517.467 43.392 518.319 44.28 519.555 44.28C520.191 44.28 520.707 44.088 521.187 43.764L521.583 44.484C521.007 44.856 520.311 45.156 519.423 45.156ZM517.383 41.208H520.875C520.875 39.9 520.275 39.192 519.255 39.192C518.331 39.192 517.515 39.936 517.383 41.208ZM523.44 45V38.484H524.34L524.436 39.432H524.472C525.036 38.808 525.72 38.316 526.5 38.316C527.496 38.316 528.036 38.796 528.3 39.564C528.972 38.832 529.656 38.316 530.448 38.316C531.792 38.316 532.428 39.204 532.428 40.872V45H531.336V41.016C531.336 39.792 530.952 39.276 530.124 39.276C529.62 39.276 529.092 39.6 528.48 40.272V45H527.388V41.016C527.388 39.792 527.004 39.276 526.176 39.276C525.684 39.276 525.132 39.6 524.532 40.272V45H523.44Z" fill="black"/>
<path d="M123.279 68.8438C123.279 68.6445 123.248 68.4688 123.186 68.3164C123.127 68.1602 123.021 68.0195 122.869 67.8945C122.721 67.7695 122.514 67.6504 122.248 67.5371C121.986 67.4238 121.654 67.3086 121.252 67.1914C120.83 67.0664 120.449 66.9277 120.109 66.7754C119.77 66.6191 119.479 66.4414 119.236 66.2422C118.994 66.043 118.809 65.8145 118.68 65.5566C118.551 65.2988 118.486 65.0039 118.486 64.6719C118.486 64.3398 118.555 64.0332 118.691 63.752C118.828 63.4707 119.023 63.2266 119.277 63.0195C119.535 62.8086 119.842 62.6445 120.197 62.5273C120.553 62.4102 120.949 62.3516 121.387 62.3516C122.027 62.3516 122.57 62.4746 123.016 62.7207C123.465 62.9629 123.807 63.2812 124.041 63.6758C124.275 64.0664 124.393 64.4844 124.393 64.9297H123.268C123.268 64.6094 123.199 64.3262 123.062 64.0801C122.926 63.8301 122.719 63.6348 122.441 63.4941C122.164 63.3496 121.812 63.2773 121.387 63.2773C120.984 63.2773 120.652 63.3379 120.391 63.459C120.129 63.5801 119.934 63.7441 119.805 63.9512C119.68 64.1582 119.617 64.3945 119.617 64.6602C119.617 64.8398 119.654 65.0039 119.729 65.1523C119.807 65.2969 119.926 65.4316 120.086 65.5566C120.25 65.6816 120.457 65.7969 120.707 65.9023C120.961 66.0078 121.264 66.1094 121.615 66.207C122.1 66.3438 122.518 66.4961 122.869 66.6641C123.221 66.832 123.51 67.0215 123.736 67.2324C123.967 67.4395 124.137 67.6758 124.246 67.9414C124.359 68.2031 124.416 68.5 124.416 68.832C124.416 69.1797 124.346 69.4941 124.205 69.7754C124.064 70.0566 123.863 70.2969 123.602 70.4961C123.34 70.6953 123.025 70.8496 122.658 70.959C122.295 71.0645 121.889 71.1172 121.439 71.1172C121.045 71.1172 120.656 71.0625 120.273 70.9531C119.895 70.8438 119.549 70.6797 119.236 70.4609C118.928 70.2422 118.68 69.9727 118.492 69.6523C118.309 69.3281 118.217 68.9531 118.217 68.5273H119.342C119.342 68.8203 119.398 69.0723 119.512 69.2832C119.625 69.4902 119.779 69.6621 119.975 69.7988C120.174 69.9355 120.398 70.0371 120.648 70.1035C120.902 70.166 121.166 70.1973 121.439 70.1973C121.834 70.1973 122.168 70.1426 122.441 70.0332C122.715 69.9238 122.922 69.7676 123.062 69.5645C123.207 69.3613 123.279 69.1211 123.279 68.8438ZM128.324 71.1172C127.883 71.1172 127.482 71.043 127.123 70.8945C126.768 70.7422 126.461 70.5293 126.203 70.2559C125.949 69.9824 125.754 69.6582 125.617 69.2832C125.48 68.9082 125.412 68.498 125.412 68.0527V67.8066C125.412 67.291 125.488 66.832 125.641 66.4297C125.793 66.0234 126 65.6797 126.262 65.3984C126.523 65.1172 126.82 64.9043 127.152 64.7598C127.484 64.6152 127.828 64.543 128.184 64.543C128.637 64.543 129.027 64.6211 129.355 64.7773C129.688 64.9336 129.959 65.1523 130.17 65.4336C130.381 65.7109 130.537 66.0391 130.639 66.418C130.74 66.793 130.791 67.2031 130.791 67.6484V68.1348H126.057V67.25H129.707V67.168C129.691 66.8867 129.633 66.6133 129.531 66.3477C129.434 66.082 129.277 65.8633 129.062 65.6914C128.848 65.5195 128.555 65.4336 128.184 65.4336C127.938 65.4336 127.711 65.4863 127.504 65.5918C127.297 65.6934 127.119 65.8457 126.971 66.0488C126.822 66.252 126.707 66.5 126.625 66.793C126.543 67.0859 126.502 67.4238 126.502 67.8066V68.0527C126.502 68.3535 126.543 68.6367 126.625 68.9023C126.711 69.1641 126.834 69.3945 126.994 69.5938C127.158 69.793 127.355 69.9492 127.586 70.0625C127.82 70.1758 128.086 70.2324 128.383 70.2324C128.766 70.2324 129.09 70.1543 129.355 69.998C129.621 69.8418 129.854 69.6328 130.053 69.3711L130.709 69.8926C130.572 70.0996 130.398 70.2969 130.188 70.4844C129.977 70.6719 129.717 70.8242 129.408 70.9414C129.104 71.0586 128.742 71.1172 128.324 71.1172ZM133.141 65.6562V71H132.057V64.6602H133.111L133.141 65.6562ZM135.121 64.625L135.115 65.6328C135.025 65.6133 134.939 65.6016 134.857 65.5977C134.779 65.5898 134.689 65.5859 134.588 65.5859C134.338 65.5859 134.117 65.625 133.926 65.7031C133.734 65.7812 133.572 65.8906 133.439 66.0312C133.307 66.1719 133.201 66.3398 133.123 66.5352C133.049 66.7266 133 66.9375 132.977 67.168L132.672 67.3438C132.672 66.9609 132.709 66.6016 132.783 66.2656C132.861 65.9297 132.98 65.6328 133.141 65.375C133.301 65.1133 133.504 64.9102 133.75 64.7656C134 64.6172 134.297 64.543 134.641 64.543C134.719 64.543 134.809 64.5527 134.91 64.5723C135.012 64.5879 135.082 64.6055 135.121 64.625ZM138.637 71.1172C138.195 71.1172 137.795 71.043 137.436 70.8945C137.08 70.7422 136.773 70.5293 136.516 70.2559C136.262 69.9824 136.066 69.6582 135.93 69.2832C135.793 68.9082 135.725 68.498 135.725 68.0527V67.8066C135.725 67.291 135.801 66.832 135.953 66.4297C136.105 66.0234 136.312 65.6797 136.574 65.3984C136.836 65.1172 137.133 64.9043 137.465 64.7598C137.797 64.6152 138.141 64.543 138.496 64.543C138.949 64.543 139.34 64.6211 139.668 64.7773C140 64.9336 140.271 65.1523 140.482 65.4336C140.693 65.7109 140.85 66.0391 140.951 66.418C141.053 66.793 141.104 67.2031 141.104 67.6484V68.1348H136.369V67.25H140.02V67.168C140.004 66.8867 139.945 66.6133 139.844 66.3477C139.746 66.082 139.59 65.8633 139.375 65.6914C139.16 65.5195 138.867 65.4336 138.496 65.4336C138.25 65.4336 138.023 65.4863 137.816 65.5918C137.609 65.6934 137.432 65.8457 137.283 66.0488C137.135 66.252 137.02 66.5 136.938 66.793C136.855 67.0859 136.814 67.4238 136.814 67.8066V68.0527C136.814 68.3535 136.855 68.6367 136.938 68.9023C137.023 69.1641 137.146 69.3945 137.307 69.5938C137.471 69.793 137.668 69.9492 137.898 70.0625C138.133 70.1758 138.398 70.2324 138.695 70.2324C139.078 70.2324 139.402 70.1543 139.668 69.998C139.934 69.8418 140.166 69.6328 140.365 69.3711L141.021 69.8926C140.885 70.0996 140.711 70.2969 140.5 70.4844C140.289 70.6719 140.029 70.8242 139.721 70.9414C139.416 71.0586 139.055 71.1172 138.637 71.1172ZM143.453 66.0137V71H142.369V64.6602H143.395L143.453 66.0137ZM143.195 67.5898L142.744 67.5723C142.748 67.1387 142.812 66.7383 142.938 66.3711C143.062 66 143.238 65.6777 143.465 65.4043C143.691 65.1309 143.961 64.9199 144.273 64.7715C144.59 64.6191 144.939 64.543 145.322 64.543C145.635 64.543 145.916 64.5859 146.166 64.6719C146.416 64.7539 146.629 64.8867 146.805 65.0703C146.984 65.2539 147.121 65.4922 147.215 65.7852C147.309 66.0742 147.355 66.4277 147.355 66.8457V71H146.266V66.834C146.266 66.502 146.217 66.2363 146.119 66.0371C146.021 65.834 145.879 65.6875 145.691 65.5977C145.504 65.5039 145.273 65.457 145 65.457C144.73 65.457 144.484 65.5137 144.262 65.627C144.043 65.7402 143.854 65.8965 143.693 66.0957C143.537 66.2949 143.414 66.5234 143.324 66.7812C143.238 67.0352 143.195 67.3047 143.195 67.5898ZM152.998 69.7695V62H154.088V71H153.092L152.998 69.7695ZM148.732 67.9004V67.7773C148.732 67.293 148.791 66.8535 148.908 66.459C149.029 66.0605 149.199 65.7188 149.418 65.4336C149.641 65.1484 149.904 64.9297 150.209 64.7773C150.518 64.6211 150.861 64.543 151.24 64.543C151.639 64.543 151.986 64.6133 152.283 64.7539C152.584 64.8906 152.838 65.0918 153.045 65.3574C153.256 65.6191 153.422 65.9355 153.543 66.3066C153.664 66.6777 153.748 67.0977 153.795 67.5664V68.1055C153.752 68.5703 153.668 68.9883 153.543 69.3594C153.422 69.7305 153.256 70.0469 153.045 70.3086C152.838 70.5703 152.584 70.7715 152.283 70.9121C151.982 71.0488 151.631 71.1172 151.229 71.1172C150.857 71.1172 150.518 71.0371 150.209 70.877C149.904 70.7168 149.641 70.4922 149.418 70.2031C149.199 69.9141 149.029 69.5742 148.908 69.1836C148.791 68.7891 148.732 68.3613 148.732 67.9004ZM149.822 67.7773V67.9004C149.822 68.2168 149.854 68.5137 149.916 68.791C149.982 69.0684 150.084 69.3125 150.221 69.5234C150.357 69.7344 150.531 69.9004 150.742 70.0215C150.953 70.1387 151.205 70.1973 151.498 70.1973C151.857 70.1973 152.152 70.1211 152.383 69.9688C152.617 69.8164 152.805 69.6152 152.945 69.3652C153.086 69.1152 153.195 68.8438 153.273 68.5508V67.1387C153.227 66.9238 153.158 66.7168 153.068 66.5176C152.982 66.3145 152.869 66.1348 152.729 65.9785C152.592 65.8184 152.422 65.6914 152.219 65.5977C152.02 65.5039 151.783 65.457 151.51 65.457C151.213 65.457 150.957 65.5195 150.742 65.6445C150.531 65.7656 150.357 65.9336 150.221 66.1484C150.084 66.3594 149.982 66.6055 149.916 66.8867C149.854 67.1641 149.822 67.4609 149.822 67.7773ZM156.953 64.6602V71H155.863V64.6602H156.953ZM155.781 62.9785C155.781 62.8027 155.834 62.6543 155.939 62.5332C156.049 62.4121 156.209 62.3516 156.42 62.3516C156.627 62.3516 156.785 62.4121 156.895 62.5332C157.008 62.6543 157.064 62.8027 157.064 62.9785C157.064 63.1465 157.008 63.291 156.895 63.4121C156.785 63.5293 156.627 63.5879 156.42 63.5879C156.209 63.5879 156.049 63.5293 155.939 63.4121C155.834 63.291 155.781 63.1465 155.781 62.9785ZM161.324 71.1172C160.883 71.1172 160.482 71.043 160.123 70.8945C159.768 70.7422 159.461 70.5293 159.203 70.2559C158.949 69.9824 158.754 69.6582 158.617 69.2832C158.48 68.9082 158.412 68.498 158.412 68.0527V67.8066C158.412 67.291 158.488 66.832 158.641 66.4297C158.793 66.0234 159 65.6797 159.262 65.3984C159.523 65.1172 159.82 64.9043 160.152 64.7598C160.484 64.6152 160.828 64.543 161.184 64.543C161.637 64.543 162.027 64.6211 162.355 64.7773C162.688 64.9336 162.959 65.1523 163.17 65.4336C163.381 65.7109 163.537 66.0391 163.639 66.418C163.74 66.793 163.791 67.2031 163.791 67.6484V68.1348H159.057V67.25H162.707V67.168C162.691 66.8867 162.633 66.6133 162.531 66.3477C162.434 66.082 162.277 65.8633 162.062 65.6914C161.848 65.5195 161.555 65.4336 161.184 65.4336C160.938 65.4336 160.711 65.4863 160.504 65.5918C160.297 65.6934 160.119 65.8457 159.971 66.0488C159.822 66.252 159.707 66.5 159.625 66.793C159.543 67.0859 159.502 67.4238 159.502 67.8066V68.0527C159.502 68.3535 159.543 68.6367 159.625 68.9023C159.711 69.1641 159.834 69.3945 159.994 69.5938C160.158 69.793 160.355 69.9492 160.586 70.0625C160.82 70.1758 161.086 70.2324 161.383 70.2324C161.766 70.2324 162.09 70.1543 162.355 69.998C162.621 69.8418 162.854 69.6328 163.053 69.3711L163.709 69.8926C163.572 70.0996 163.398 70.2969 163.188 70.4844C162.977 70.6719 162.717 70.8242 162.408 70.9414C162.104 71.0586 161.742 71.1172 161.324 71.1172ZM173.078 62.4688H174.203V68.2402C174.203 68.8809 174.061 69.4141 173.775 69.8398C173.49 70.2656 173.111 70.5859 172.639 70.8008C172.17 71.0117 171.66 71.1172 171.109 71.1172C170.531 71.1172 170.008 71.0117 169.539 70.8008C169.074 70.5859 168.705 70.2656 168.432 69.8398C168.162 69.4141 168.027 68.8809 168.027 68.2402V62.4688H169.146V68.2402C169.146 68.6855 169.229 69.0527 169.393 69.3418C169.557 69.6309 169.785 69.8457 170.078 69.9863C170.375 70.127 170.719 70.1973 171.109 70.1973C171.504 70.1973 171.848 70.127 172.141 69.9863C172.438 69.8457 172.668 69.6309 172.832 69.3418C172.996 69.0527 173.078 68.6855 173.078 68.2402V62.4688ZM177.191 62.4688V71H176.061V62.4688H177.191Z" fill="black"/>
<rect x="73.5" y="104.5" width="155" height="34" fill="white"/>
<rect x="73.5" y="104.5" width="155" height="34" stroke="var(--web-system-color-articleFigure-foreground-primary, #8FAEFE)"/>
<path opacity="0.3" d="M90.75 120H107.25" stroke="var(--web-system-color-articleFigure-foreground-primary, #8FAEFE)" stroke-width="3"/>
<path opacity="0.3" d="M142.75 120H159.25" stroke="var(--web-system-color-articleFigure-foreground-primary, #8FAEFE)" stroke-width="3"/>
<path d="M194.75 120H211.25" stroke="var(--web-system-color-articleFigure-foreground-primary, #8FAEFE)" stroke-width="3"/>
<path fill-rule="evenodd" clip-rule="evenodd" d="M229 139H177V136H229V139Z" fill="var(--web-system-color-articleFigure-foreground-primary, #8FAEFE)"/>
<rect x="60.5" y="123.5" width="62.5" height="107" fill="white"/>
<rect x="60.5" y="123.5" width="62.5" height="107" stroke="var(--web-system-color-articleFigure-foreground-primary, #8FAEFE)"/>
<path d="M74 142.5C70.9624 142.5 68.5 140.038 68.5 137C68.5 133.962 70.9624 131.5 74 131.5C77.0376 131.5 79.5 133.962 79.5 137C79.5 140.038 77.0376 142.5 74 142.5Z" fill="white" stroke="var(--web-system-color-articleFigure-foreground-primary, #8FAEFE)"/>
<path d="M74 139.5C72.6193 139.5 71.5 138.381 71.5 137C71.5 135.619 72.6193 134.5 74 134.5C75.3807 134.5 76.5 135.619 76.5 137C76.5 138.381 75.3807 139.5 74 139.5Z" fill="var(--web-system-color-articleFigure-foreground-primary, #8FAEFE)" stroke="var(--web-system-color-articleFigure-foreground-primary, #8FAEFE)"/>
<path d="M88 134H115.5" stroke="var(--web-system-color-articleFigure-foreground-primary, #8FAEFE)" stroke-width="3"/>
<path opacity="0.3" d="M88 141H108.5" stroke="var(--web-system-color-articleFigure-foreground-primary, #8FAEFE)" stroke-width="3"/>
<path d="M74 162.5C70.9624 162.5 68.5 160.038 68.5 157C68.5 153.962 70.9624 151.5 74 151.5C77.0376 151.5 79.5 153.962 79.5 157C79.5 160.038 77.0376 162.5 74 162.5Z" fill="white" stroke="var(--web-system-color-articleFigure-foreground-primary, #8FAEFE)"/>
<path d="M88 154H115.5" stroke="var(--web-system-color-articleFigure-foreground-primary, #8FAEFE)" stroke-width="3"/>
<path opacity="0.3" d="M88 161H108.5" stroke="var(--web-system-color-articleFigure-foreground-primary, #8FAEFE)" stroke-width="3"/>
<path d="M74 182.5C70.9624 182.5 68.5 180.038 68.5 177C68.5 173.962 70.9624 171.5 74 171.5C77.0376 171.5 79.5 173.962 79.5 177C79.5 180.038 77.0376 182.5 74 182.5Z" fill="white" stroke="var(--web-system-color-articleFigure-foreground-primary, #8FAEFE)"/>
<path d="M88 174H115.5" stroke="var(--web-system-color-articleFigure-foreground-primary, #8FAEFE)" stroke-width="3"/>
<path opacity="0.3" d="M88 181H108.5" stroke="var(--web-system-color-articleFigure-foreground-primary, #8FAEFE)" stroke-width="3"/>
<path d="M74 202.5C70.9624 202.5 68.5 200.038 68.5 197C68.5 193.962 70.9624 191.5 74 191.5C77.0376 191.5 79.5 193.962 79.5 197C79.5 200.038 77.0376 202.5 74 202.5Z" fill="white" stroke="var(--web-system-color-articleFigure-foreground-primary, #8FAEFE)"/>
<path d="M88 194H115.5" stroke="var(--web-system-color-articleFigure-foreground-primary, #8FAEFE)" stroke-width="3"/>
<path opacity="0.3" d="M88 201H108.5" stroke="var(--web-system-color-articleFigure-foreground-primary, #8FAEFE)" stroke-width="3"/>
<path d="M74 222.5C70.9624 222.5 68.5 220.038 68.5 217C68.5 213.962 70.9624 211.5 74 211.5C77.0376 211.5 79.5 213.962 79.5 217C79.5 220.038 77.0376 222.5 74 222.5Z" fill="white" stroke="var(--web-system-color-articleFigure-foreground-primary, #8FAEFE)"/>
<path d="M88 214H115.5" stroke="var(--web-system-color-articleFigure-foreground-primary, #8FAEFE)" stroke-width="3"/>
<path opacity="0.3" d="M88 221H108.5" stroke="var(--web-system-color-articleFigure-foreground-primary, #8FAEFE)" stroke-width="3"/>
<path d="M142 150.5H234C235.933 150.5 237.5 152.067 237.5 154V166C237.5 167.933 235.933 169.5 234 169.5H142C140.067 169.5 138.5 167.933 138.5 166V154C138.5 152.067 140.067 150.5 142 150.5Z" fill="white" stroke="var(--web-system-color-articleFigure-foreground-primary, #8FAEFE)"/>
<path d="M220.5 158.5L224.5 162.5L228.5 158.5" stroke="var(--web-system-color-articleFigure-foreground-primary, #8FAEFE)" stroke-width="1.5"/>
<path d="M142 169.5H234C235.933 169.5 237.5 171.067 237.5 173V253C237.5 254.933 235.933 256.5 234 256.5H142C140.067 256.5 138.5 254.933 138.5 253V173C138.5 171.067 140.067 169.5 142 169.5Z" fill="white" stroke="var(--web-system-color-articleFigure-foreground-primary, #8FAEFE)"/>
<path opacity="0.3" d="M146 183H230" stroke="var(--web-system-color-articleFigure-foreground-primary, #8FAEFE)" stroke-width="3"/>
<path opacity="0.3" d="M146 203H230" stroke="var(--web-system-color-articleFigure-foreground-primary, #8FAEFE)" stroke-width="3"/>
<path opacity="0.3" d="M146 223H230" stroke="var(--web-system-color-articleFigure-foreground-primary, #8FAEFE)" stroke-width="3"/>
<path opacity="0.3" d="M146 243H230" stroke="var(--web-system-color-articleFigure-foreground-primary, #8FAEFE)" stroke-width="3"/>
<path d="M97 217.5H141C146.247 217.5 150.5 221.753 150.5 227C150.5 232.247 146.247 236.5 141 236.5H97C91.7533 236.5 87.5 232.247 87.5 227C87.5 221.753 91.7533 217.5 97 217.5Z" fill="var(--web-system-color-articleFigure-foreground-primary, #8FAEFE)" stroke="var(--web-system-color-articleFigure-foreground-primary, #8FAEFE)"/>
<path d="M97 245.5H141C146.247 245.5 150.5 249.753 150.5 255C150.5 260.247 146.247 264.5 141 264.5H97C91.7533 264.5 87.5 260.247 87.5 255C87.5 249.753 91.7533 245.5 97 245.5Z" fill="white" stroke="var(--web-system-color-articleFigure-foreground-primary, #8FAEFE)"/>
<path d="M257 192L315 192" stroke="#AFAEAA"/>
<path d="M315 160H355" stroke="#AFAEAA"/>
<path d="M315 224H355" stroke="#AFAEAA"/>
<path d="M355 96L319 96C316.791 96 315 97.7909 315 100L315 284C315 286.209 316.791 288 319 288L355 288" stroke="#AFAEAA"/>
</svg>
