<svg width="366" height="200" viewBox="0 0 366 200" fill="none" xmlns="http://www.w3.org/2000/svg">
<g clip-path="url(#clip0_12038_32350)">
<path d="M0 16C0 7.16344 7.16344 0 16 0H350C358.837 0 366 7.16344 366 16V184C366 192.837 358.837 200 350 200H16C7.16344 200 0 192.837 0 184V16Z" fill="var(--web-system-color-articleFigure-foreground-tertiary, #EFF2FC)"/>
<path d="M121.5 122.07H61.288L8.91406 261.632H174.886C185.73 232.736 194.048 210.571 202.518 188C203.639 185.013 204.763 182.018 205.896 179" stroke="var(--web-system-color-articleFigure-foreground-secondary, #64CCD3)" stroke-width="4"/>
<path d="M134.544 12C152.067 -22.7159 188.05 -46.5234 229.593 -46.5234C288.359 -46.5234 335.999 1.11595 335.999 59.8821C335.999 73.1258 333.579 85.8044 329.158 97.5M260.002 161.879C250.367 164.747 240.16 166.288 229.593 166.288C202.266 166.288 177.345 155.986 158.502 139.055" stroke="var(--web-system-color-articleFigure-foreground-primary, #8FAEFE)" stroke-width="4"/>
<path d="M288.113 169.675C293.853 172.57 299.915 174.892 306.211 176.579C329.574 182.839 354.524 179.927 375.596 168.249C396.699 156.554 412.19 136.998 418.413 113.771L375.786 102.349C372.723 113.778 365.048 123.64 354.204 129.649C343.328 135.677 330.164 137.309 317.633 133.951C305.102 130.593 294.518 122.598 288.113 111.94C281.726 101.313 280.01 88.9361 283.073 77.5066L240.445 66.0845C234.221 89.3119 237.858 113.993 250.286 134.673C252.8 138.856 255.632 142.807 258.743 146.5" stroke="var(--web-system-color-articleFigure-foreground-secondary, #64CCD3)" stroke-width="4"/>
<path d="M59.5448 65.3076C71.784 61.006 85.0336 61.6313 96.3369 66.8136C107.607 71.9806 116.01 81.229 119.934 92.3923L161.568 77.7593C153.595 55.0729 136.662 36.7528 114.729 26.6973C92.8301 16.6571 67.731 15.6526 44.9117 23.6727C22.0924 31.6928 3.14072 48.1793 -7.66151 69.7128C-18.4801 91.279 -20.2283 116.165 -12.255 138.851L29.38 124.218" stroke="var(--web-system-color-articleFigure-foreground-primary, #8FAEFE)" stroke-width="4"/>
</g>
<defs>
<clipPath id="clip0_12038_32350">
<path d="M0 16C0 7.16344 7.16344 0 16 0H350C358.837 0 366 7.16344 366 16V184C366 192.837 358.837 200 350 200H16C7.16344 200 0 192.837 0 184V16Z" fill="white"/>
</clipPath>
</defs>
</svg>
