<svg width="668" height="138" viewBox="0 0 668 138" fill="none" xmlns="http://www.w3.org/2000/svg">
<g clip-path="url(#clip0_12120_54267)">
<rect width="668" height="138" fill="#F5F5F5"/>
<path d="M0 2H668M0 6H668M0 10H668M0 14H668M0 18H668M0 22H668M0 26H668M0 30H668M0 34H668M0 38H668M0 42H668M0 46H668M0 50H668M0 54H668M0 58H668M0 62H668M0 66H668M0 70H668M0 74H668M0 78H668M0 82H668M0 86H668M0 90H668M0 94H668M0 98H668M0 102H668M0 106H668M0 110H668M0 114H668M0 118H668M0 122H668M0 126H668M0 130H668M0 134H668M0 138H668M0 142H668M0 146H668M0 150H668M0 154H668M0 158H668M0 162H668M0 166H668M0 170H668M0 174H668M0 178H668M0 182H668M0 186H668M2 0V189M6 0V189M10 0V189M14 0V189M18 0V189M22 0V189M26 0V189M30 0V189M34 0V189M38 0V189M42 0V189M46 0V189M50 0V189M54 0V189M58 0V189M62 0V189M66 0V189M70 0V189M74 0V189M78 0V189M82 0V189M86 0V189M90 0V189M94 0V189M98 0V189M102 0V189M106 0V189M110 0V189M114 0V189M118 0V189M122 0V189M126 0V189M130 0V189M134 0V189M138 0V189M142 0V189M146 0V189M150 0V189M154 0V189M158 0V189M162 0V189M166 0V189M170 0V189M174 0V189M178 0V189M182 0V189M186 0V189M190 0V189M194 0V189M198 0V189M202 0V189M206 0V189M210 0V189M214 0V189M218 0V189M222 0V189M226 0V189M230 0V189M234 0V189M238 0V189M242 0V189M246 0V189M250 0V189M254 0V189M258 0V189M262 0V189M266 0V189M270 0V189M274 0V189M278 0V189M282 0V189M286 0V189M290 0V189M294 0V189M298 0V189M302 0V189M306 0V189M310 0V189M314 0V189M318 0V189M322 0V189M326 0V189M330 0V189M334 0V189M338 0V189M342 0V189M346 0V189M350 0V189M354 0V189M358 0V189M362 0V189M366 0V189M370 0V189M374 0V189M378 0V189M382 0V189M386 0V189M390 0V189M394 0V189M398 0V189M402 0V189M406 0V189M410 0V189M414 0V189M418 0V189M422 0V189M426 0V189M430 0V189M434 0V189M438 0V189M442 0V189M446 0V189M450 0V189M454 0V189M458 0V189M462 0V189M466 0V189M470 0V189M474 0V189M478 0V189M482 0V189M486 0V189M490 0V189M494 0V189M498 0V189M502 0V189M506 0V189M510 0V189M514 0V189M518 0V189M522 0V189M526 0V189M530 0V189M534 0V189M538 0V189M542 0V189M546 0V189M550 0V189M554 0V189M558 0V189M562 0V189M566 0V189M570 0V189M574 0V189M578 0V189M582 0V189M586 0V189M590 0V189M594 0V189M598 0V189M602 0V189M606 0V189M610 0V189M614 0V189M618 0V189M622 0V189M626 0V189M630 0V189M634 0V189M638 0V189M642 0V189M646 0V189M650 0V189M654 0V189M658 0V189M662 0V189M666 0V189" stroke="var(--web-system-color-articleFigure-foreground-secondary, #64CCD3)" stroke-width="0.1"/>
<path d="M74 76C74 74.8954 74.8954 74 76 74H98V98H74V76Z" fill="var(--sd-system-color-impression-primary, #0650A0)"/>
<path d="M138 70C138 67.7909 139.791 66 142 66H170V98H138V70Z" fill="var(--sd-system-color-impression-primary, #0650A0)"/>
<path d="M210 66C210 61.5817 213.582 58 218 58H250V98H210V66Z" fill="var(--sd-system-color-impression-primary, #0650A0)"/>
<path d="M290 62C290 55.3726 295.373 50 302 50H338V98H290V62Z" fill="var(--sd-system-color-impression-primary, #0650A0)"/>
<path d="M378 50C378 41.1634 385.163 34 394 34H442V98H378V50Z" fill="var(--sd-system-color-impression-primary, #0650A0)"/>
<path d="M482 58C482 35.9086 499.909 18 522 18H610V98H522C499.909 98 482 80.0914 482 58Z" fill="var(--sd-system-color-impression-primary, #0650A0)"/>
<path d="M59.3895 122.1C58.8162 122.1 58.3229 121.993 57.9095 121.78C57.4962 121.567 57.1762 121.257 56.9495 120.85C56.7295 120.437 56.6195 119.933 56.6195 119.34C56.6195 118.753 56.7262 118.253 56.9395 117.84C57.1529 117.42 57.4495 117.1 57.8295 116.88C58.2095 116.653 58.6529 116.54 59.1595 116.54C59.6262 116.54 60.0262 116.643 60.3595 116.85C60.6995 117.057 60.9595 117.35 61.1395 117.73C61.3262 118.103 61.4195 118.553 61.4195 119.08V119.49H57.5295C57.5429 119.957 57.6295 120.327 57.7895 120.6C57.9562 120.873 58.1795 121.07 58.4595 121.19C58.7462 121.303 59.0762 121.36 59.4495 121.36C59.7429 121.36 60.0329 121.32 60.3195 121.24C60.6062 121.16 60.8929 121.053 61.1795 120.92V121.72C60.8729 121.853 60.5662 121.95 60.2595 122.01C59.9529 122.07 59.6629 122.1 59.3895 122.1ZM60.5195 118.77C60.5062 118.457 60.4462 118.19 60.3395 117.97C60.2329 117.743 60.0795 117.57 59.8795 117.45C59.6862 117.33 59.4462 117.27 59.1595 117.27C58.7129 117.27 58.3495 117.407 58.0695 117.68C57.7962 117.947 57.6229 118.31 57.5495 118.77H60.5195ZM62.4656 122L64.4956 119.26L62.5656 116.64H63.5756L65.0156 118.65L66.4556 116.64H67.4656L65.5256 119.26L67.5556 122H66.5456L65.0156 119.87L63.4756 122H62.4656ZM72.0317 122.1C71.6517 122.1 71.3117 122.05 71.0117 121.95C70.7117 121.85 70.4717 121.673 70.2917 121.42C70.1184 121.167 70.0317 120.817 70.0317 120.37V117.39H68.5717V116.77L70.0317 116.61L70.2117 115.21H70.9317V116.64H73.0217V117.39H70.9317V120.2C70.9317 120.467 70.9684 120.687 71.0417 120.86C71.1217 121.033 71.2484 121.163 71.4217 121.25C71.5951 121.33 71.8184 121.37 72.0917 121.37C72.2651 121.37 72.4517 121.353 72.6517 121.32C72.8517 121.287 73.0251 121.253 73.1717 121.22V121.94C73.0117 121.98 72.8351 122.017 72.6417 122.05C72.4484 122.083 72.2451 122.1 72.0317 122.1ZM74.6278 122V121.4L76.2578 121.25V117.39L74.7878 117.26V116.64H76.9778L77.0978 117.62H77.1378C77.3245 117.267 77.5278 117 77.7478 116.82C77.9745 116.633 78.2711 116.54 78.6378 116.54C78.8645 116.54 79.0645 116.56 79.2378 116.6C79.4178 116.64 79.5811 116.693 79.7278 116.76L79.4878 117.55C79.3811 117.49 79.2545 117.44 79.1078 117.4C78.9611 117.353 78.8045 117.33 78.6378 117.33C78.3511 117.33 78.0978 117.42 77.8778 117.6C77.6578 117.78 77.4845 118.02 77.3578 118.32C77.2311 118.62 77.1678 118.95 77.1678 119.31V121.25L78.7278 121.4V122H74.6278ZM82.4639 122.1C81.9372 122.1 81.5106 121.97 81.1839 121.71C80.8639 121.45 80.7039 121.057 80.7039 120.53C80.7039 120.143 80.7972 119.823 80.9839 119.57C81.1706 119.31 81.4439 119.117 81.8039 118.99C82.1706 118.857 82.6139 118.783 83.1339 118.77L84.2839 118.74V118.52C84.2839 118.04 84.1639 117.713 83.9239 117.54C83.6839 117.36 83.3606 117.27 82.9539 117.27C82.6672 117.27 82.3939 117.307 82.1339 117.38C81.8739 117.453 81.6272 117.557 81.3939 117.69L81.0839 117.01C81.3372 116.883 81.6172 116.773 81.9239 116.68C82.2372 116.587 82.5972 116.54 83.0039 116.54C83.6772 116.54 84.1939 116.693 84.5539 117C84.9206 117.3 85.1039 117.77 85.1039 118.41V122H84.3839L84.2839 121.26H84.2439C84.0972 121.447 83.9339 121.603 83.7539 121.73C83.5806 121.85 83.3872 121.94 83.1739 122C82.9606 122.067 82.7239 122.1 82.4639 122.1ZM82.6139 121.37C82.9139 121.37 83.1906 121.317 83.4439 121.21C83.6972 121.097 83.9006 120.93 84.0539 120.71C84.2072 120.483 84.2839 120.2 84.2839 119.86V119.38L83.3239 119.41C82.8972 119.423 82.5539 119.477 82.2939 119.57C82.0339 119.657 81.8439 119.78 81.7239 119.94C81.6106 120.093 81.5539 120.28 81.5539 120.5C81.5539 120.807 81.6506 121.03 81.8439 121.17C82.0372 121.303 82.2939 121.37 82.6139 121.37ZM88.81 122.1C88.43 122.1 88.06 122.067 87.7 122C87.3467 121.927 87.0633 121.837 86.85 121.73V120.9C87.0967 121.007 87.3967 121.107 87.75 121.2C88.1033 121.287 88.4633 121.33 88.83 121.33C89.17 121.33 89.4533 121.283 89.68 121.19C89.9133 121.097 90.0867 120.957 90.2 120.77C90.3133 120.583 90.37 120.353 90.37 120.08C90.37 119.853 90.3233 119.673 90.23 119.54C90.1367 119.407 89.97 119.28 89.73 119.16C89.4967 119.033 89.1667 118.877 88.74 118.69C88.46 118.563 88.1867 118.423 87.92 118.27C87.6533 118.117 87.4333 117.913 87.26 117.66C87.0933 117.407 87.01 117.073 87.01 116.66C87.01 116.247 87.1 115.9 87.28 115.62C87.4667 115.34 87.73 115.127 88.07 114.98C88.41 114.833 88.8167 114.76 89.29 114.76C89.65 114.76 89.99 114.8 90.31 114.88C90.63 114.953 90.91 115.047 91.15 115.16L90.86 115.91C90.6333 115.803 90.38 115.72 90.1 115.66C89.82 115.593 89.5433 115.56 89.27 115.56C89.01 115.56 88.7767 115.597 88.57 115.67C88.37 115.743 88.2133 115.863 88.1 116.03C87.9867 116.19 87.93 116.407 87.93 116.68C87.93 116.913 87.9767 117.103 88.07 117.25C88.17 117.397 88.3267 117.527 88.54 117.64C88.7533 117.747 89.0267 117.873 89.36 118.02C89.74 118.18 90.0733 118.343 90.36 118.51C90.6533 118.67 90.88 118.87 91.04 119.11C91.2067 119.35 91.29 119.677 91.29 120.09C91.29 120.41 91.2367 120.693 91.13 120.94C91.03 121.187 90.8733 121.397 90.66 121.57C90.4533 121.743 90.1967 121.877 89.89 121.97C89.5833 122.057 89.2233 122.1 88.81 122.1ZM92.4961 122V116.64H93.1161L93.2461 117.23H93.2961C93.3828 117.05 93.4761 116.91 93.5761 116.81C93.6761 116.71 93.7828 116.64 93.8961 116.6C94.0161 116.56 94.1461 116.54 94.2861 116.54C94.5594 116.54 94.7694 116.607 94.9161 116.74C95.0694 116.867 95.1861 117.057 95.2661 117.31H95.2961C95.4094 117.063 95.5494 116.873 95.7161 116.74C95.8894 116.607 96.1161 116.54 96.3961 116.54C96.6694 116.54 96.8861 116.61 97.0461 116.75C97.2128 116.89 97.3294 117.103 97.3961 117.39C97.4694 117.677 97.5061 118.047 97.5061 118.5V122H96.7061V118.65C96.7061 118.37 96.6928 118.133 96.6661 117.94C96.6461 117.74 96.5994 117.587 96.5261 117.48C96.4528 117.373 96.3328 117.32 96.1661 117.32C96.0061 117.32 95.8694 117.397 95.7561 117.55C95.6428 117.697 95.5561 117.917 95.4961 118.21C95.4361 118.503 95.4061 118.873 95.4061 119.32V122H94.6061V118.65C94.6061 118.363 94.5894 118.123 94.5561 117.93C94.5228 117.73 94.4628 117.58 94.3761 117.48C94.2961 117.373 94.1728 117.32 94.0061 117.32C93.8328 117.32 93.6928 117.403 93.5861 117.57C93.4794 117.73 93.4028 117.96 93.3561 118.26C93.3161 118.553 93.2961 118.907 93.2961 119.32V122H92.4961ZM100.452 122.1C99.9255 122.1 99.4989 121.97 99.1722 121.71C98.8522 121.45 98.6922 121.057 98.6922 120.53C98.6922 120.143 98.7855 119.823 98.9722 119.57C99.1589 119.31 99.4322 119.117 99.7922 118.99C100.159 118.857 100.602 118.783 101.122 118.77L102.272 118.74V118.52C102.272 118.04 102.152 117.713 101.912 117.54C101.672 117.36 101.349 117.27 100.942 117.27C100.656 117.27 100.382 117.307 100.122 117.38C99.8622 117.453 99.6155 117.557 99.3822 117.69L99.0722 117.01C99.3255 116.883 99.6055 116.773 99.9122 116.68C100.226 116.587 100.586 116.54 100.992 116.54C101.666 116.54 102.182 116.693 102.542 117C102.909 117.3 103.092 117.77 103.092 118.41V122H102.372L102.272 121.26H102.232C102.086 121.447 101.922 121.603 101.742 121.73C101.569 121.85 101.376 121.94 101.162 122C100.949 122.067 100.712 122.1 100.452 122.1ZM100.602 121.37C100.902 121.37 101.179 121.317 101.432 121.21C101.686 121.097 101.889 120.93 102.042 120.71C102.196 120.483 102.272 120.2 102.272 119.86V119.38L101.312 119.41C100.886 119.423 100.542 119.477 100.282 119.57C100.022 119.657 99.8322 119.78 99.7122 119.94C99.5989 120.093 99.5422 120.28 99.5422 120.5C99.5422 120.807 99.6389 121.03 99.8322 121.17C100.026 121.303 100.282 121.37 100.602 121.37ZM104.788 122V121.4L106.748 121.25V115.15L104.848 115.02V114.4H107.648V121.25L109.388 121.4V122H104.788ZM110.784 122V121.4L112.744 121.25V115.15L110.844 115.02V114.4H113.644V121.25L115.384 121.4V122H110.784Z" fill="var(--web-system-color-articleFigure-foreground-onPrimary, #0A69CF)"/>
<path d="M141.8 122.1C141.466 122.1 141.146 122.07 140.84 122.01C140.54 121.95 140.28 121.867 140.06 121.76V120.93C140.293 121.037 140.55 121.137 140.83 121.23C141.116 121.317 141.456 121.36 141.85 121.36C142.29 121.36 142.6 121.293 142.78 121.16C142.966 121.02 143.06 120.82 143.06 120.56C143.06 120.42 143.026 120.307 142.96 120.22C142.9 120.127 142.78 120.033 142.6 119.94C142.42 119.847 142.156 119.727 141.81 119.58C141.463 119.427 141.166 119.283 140.92 119.15C140.673 119.017 140.483 118.86 140.35 118.68C140.216 118.493 140.15 118.257 140.15 117.97C140.15 117.65 140.23 117.387 140.39 117.18C140.556 116.967 140.793 116.807 141.1 116.7C141.413 116.593 141.783 116.54 142.21 116.54C142.503 116.54 142.783 116.567 143.05 116.62C143.316 116.673 143.593 116.76 143.88 116.88L143.61 117.58C143.343 117.467 143.096 117.39 142.87 117.35C142.65 117.31 142.43 117.29 142.21 117.29C141.796 117.29 141.493 117.343 141.3 117.45C141.113 117.557 141.02 117.723 141.02 117.95C141.02 118.097 141.06 118.22 141.14 118.32C141.226 118.42 141.363 118.517 141.55 118.61C141.743 118.703 141.996 118.817 142.31 118.95C142.663 119.097 142.963 119.233 143.21 119.36C143.456 119.487 143.643 119.64 143.77 119.82C143.896 119.993 143.96 120.233 143.96 120.54C143.96 120.88 143.876 121.167 143.71 121.4C143.55 121.627 143.31 121.8 142.99 121.92C142.67 122.04 142.273 122.1 141.8 122.1ZM145.506 122V116.64H146.126L146.256 117.23H146.306C146.393 117.05 146.486 116.91 146.586 116.81C146.686 116.71 146.793 116.64 146.906 116.6C147.026 116.56 147.156 116.54 147.296 116.54C147.569 116.54 147.779 116.607 147.926 116.74C148.079 116.867 148.196 117.057 148.276 117.31H148.306C148.419 117.063 148.559 116.873 148.726 116.74C148.899 116.607 149.126 116.54 149.406 116.54C149.679 116.54 149.896 116.61 150.056 116.75C150.223 116.89 150.339 117.103 150.406 117.39C150.479 117.677 150.516 118.047 150.516 118.5V122H149.716V118.65C149.716 118.37 149.703 118.133 149.676 117.94C149.656 117.74 149.609 117.587 149.536 117.48C149.463 117.373 149.343 117.32 149.176 117.32C149.016 117.32 148.879 117.397 148.766 117.55C148.653 117.697 148.566 117.917 148.506 118.21C148.446 118.503 148.416 118.873 148.416 119.32V122H147.616V118.65C147.616 118.363 147.599 118.123 147.566 117.93C147.533 117.73 147.473 117.58 147.386 117.48C147.306 117.373 147.183 117.32 147.016 117.32C146.843 117.32 146.703 117.403 146.596 117.57C146.489 117.73 146.413 117.96 146.366 118.26C146.326 118.553 146.306 118.907 146.306 119.32V122H145.506ZM153.462 122.1C152.935 122.1 152.509 121.97 152.182 121.71C151.862 121.45 151.702 121.057 151.702 120.53C151.702 120.143 151.795 119.823 151.982 119.57C152.169 119.31 152.442 119.117 152.802 118.99C153.169 118.857 153.612 118.783 154.132 118.77L155.282 118.74V118.52C155.282 118.04 155.162 117.713 154.922 117.54C154.682 117.36 154.359 117.27 153.952 117.27C153.665 117.27 153.392 117.307 153.132 117.38C152.872 117.453 152.625 117.557 152.392 117.69L152.082 117.01C152.335 116.883 152.615 116.773 152.922 116.68C153.235 116.587 153.595 116.54 154.002 116.54C154.675 116.54 155.192 116.693 155.552 117C155.919 117.3 156.102 117.77 156.102 118.41V122H155.382L155.282 121.26H155.242C155.095 121.447 154.932 121.603 154.752 121.73C154.579 121.85 154.385 121.94 154.172 122C153.959 122.067 153.722 122.1 153.462 122.1ZM153.612 121.37C153.912 121.37 154.189 121.317 154.442 121.21C154.695 121.097 154.899 120.93 155.052 120.71C155.205 120.483 155.282 120.2 155.282 119.86V119.38L154.322 119.41C153.895 119.423 153.552 119.477 153.292 119.57C153.032 119.657 152.842 119.78 152.722 119.94C152.609 120.093 152.552 120.28 152.552 120.5C152.552 120.807 152.649 121.03 152.842 121.17C153.035 121.303 153.292 121.37 153.612 121.37ZM157.798 122V121.4L159.758 121.25V115.15L157.858 115.02V114.4H160.658V121.25L162.398 121.4V122H157.798ZM163.794 122V121.4L165.754 121.25V115.15L163.854 115.02V114.4H166.654V121.25L168.394 121.4V122H163.794Z" fill="var(--web-system-color-articleFigure-foreground-onPrimary, #0A69CF)"/>
<path d="M212.512 122V116.64H213.132L213.262 117.23H213.312C213.398 117.05 213.492 116.91 213.592 116.81C213.692 116.71 213.798 116.64 213.912 116.6C214.032 116.56 214.162 116.54 214.302 116.54C214.575 116.54 214.785 116.607 214.932 116.74C215.085 116.867 215.202 117.057 215.282 117.31H215.312C215.425 117.063 215.565 116.873 215.732 116.74C215.905 116.607 216.132 116.54 216.412 116.54C216.685 116.54 216.902 116.61 217.062 116.75C217.228 116.89 217.345 117.103 217.412 117.39C217.485 117.677 217.522 118.047 217.522 118.5V122H216.722V118.65C216.722 118.37 216.708 118.133 216.682 117.94C216.662 117.74 216.615 117.587 216.542 117.48C216.468 117.373 216.348 117.32 216.182 117.32C216.022 117.32 215.885 117.397 215.772 117.55C215.658 117.697 215.572 117.917 215.512 118.21C215.452 118.503 215.422 118.873 215.422 119.32V122H214.622V118.65C214.622 118.363 214.605 118.123 214.572 117.93C214.538 117.73 214.478 117.58 214.392 117.48C214.312 117.373 214.188 117.32 214.022 117.32C213.848 117.32 213.708 117.403 213.602 117.57C213.495 117.73 213.418 117.96 213.372 118.26C213.332 118.553 213.312 118.907 213.312 119.32V122H212.512ZM221.378 122.1C220.804 122.1 220.311 121.993 219.898 121.78C219.484 121.567 219.164 121.257 218.938 120.85C218.718 120.437 218.608 119.933 218.608 119.34C218.608 118.753 218.714 118.253 218.928 117.84C219.141 117.42 219.438 117.1 219.818 116.88C220.198 116.653 220.641 116.54 221.148 116.54C221.614 116.54 222.014 116.643 222.348 116.85C222.688 117.057 222.948 117.35 223.128 117.73C223.314 118.103 223.408 118.553 223.408 119.08V119.49H219.518C219.531 119.957 219.618 120.327 219.778 120.6C219.944 120.873 220.168 121.07 220.448 121.19C220.734 121.303 221.064 121.36 221.438 121.36C221.731 121.36 222.021 121.32 222.308 121.24C222.594 121.16 222.881 121.053 223.168 120.92V121.72C222.861 121.853 222.554 121.95 222.248 122.01C221.941 122.07 221.651 122.1 221.378 122.1ZM222.508 118.77C222.494 118.457 222.434 118.19 222.328 117.97C222.221 117.743 222.068 117.57 221.868 117.45C221.674 117.33 221.434 117.27 221.148 117.27C220.701 117.27 220.338 117.407 220.058 117.68C219.784 117.947 219.611 118.31 219.538 118.77H222.508ZM226.744 122.1C226.417 122.1 226.117 122.043 225.844 121.93C225.577 121.817 225.347 121.643 225.154 121.41C224.961 121.177 224.811 120.883 224.704 120.53C224.604 120.177 224.554 119.763 224.554 119.29C224.554 118.697 224.637 118.197 224.804 117.79C224.977 117.377 225.234 117.067 225.574 116.86C225.914 116.647 226.337 116.54 226.844 116.54C227.091 116.54 227.307 116.573 227.494 116.64C227.687 116.707 227.851 116.8 227.984 116.92C228.124 117.033 228.234 117.167 228.314 117.32H228.374C228.367 117.253 228.357 117.177 228.344 117.09C228.337 116.997 228.331 116.903 228.324 116.81C228.317 116.71 228.314 116.617 228.314 116.53V114.4H229.204V122H228.464L228.364 121.28H228.324C228.224 121.44 228.101 121.583 227.954 121.71C227.814 121.83 227.644 121.927 227.444 122C227.251 122.067 227.017 122.1 226.744 122.1ZM226.914 121.37C227.387 121.37 227.737 121.207 227.964 120.88C228.197 120.547 228.314 120.097 228.314 119.53V119.33C228.314 118.937 228.271 118.587 228.184 118.28C228.097 117.967 227.954 117.72 227.754 117.54C227.554 117.36 227.284 117.27 226.944 117.27C226.477 117.27 226.114 117.443 225.854 117.79C225.601 118.137 225.474 118.667 225.474 119.38C225.474 120.04 225.591 120.537 225.824 120.87C226.064 121.203 226.427 121.37 226.914 121.37ZM230.8 122V121.4L232.71 121.25V117.39L230.96 117.26V116.64H233.61V121.25L235.4 121.4V122H230.8ZM233.07 115.67C232.897 115.67 232.747 115.617 232.62 115.51C232.5 115.403 232.44 115.247 232.44 115.04C232.44 114.82 232.5 114.66 232.62 114.56C232.747 114.453 232.897 114.4 233.07 114.4C233.243 114.4 233.39 114.453 233.51 114.56C233.637 114.66 233.7 114.82 233.7 115.04C233.7 115.247 233.637 115.403 233.51 115.51C233.39 115.617 233.243 115.67 233.07 115.67ZM238.606 122.1C237.973 122.1 237.503 121.943 237.196 121.63C236.896 121.31 236.746 120.837 236.746 120.21V116.64H237.646V120.07C237.646 120.497 237.733 120.82 237.906 121.04C238.086 121.26 238.393 121.37 238.826 121.37C239.199 121.37 239.493 121.293 239.706 121.14C239.919 120.98 240.069 120.753 240.156 120.46C240.249 120.167 240.296 119.813 240.296 119.4V116.64H241.196V122H240.476L240.346 121.28H240.296C240.169 121.48 240.023 121.64 239.856 121.76C239.689 121.88 239.503 121.967 239.296 122.02C239.089 122.073 238.859 122.1 238.606 122.1ZM242.492 122V116.64H243.112L243.242 117.23H243.292C243.379 117.05 243.472 116.91 243.572 116.81C243.672 116.71 243.779 116.64 243.892 116.6C244.012 116.56 244.142 116.54 244.282 116.54C244.556 116.54 244.766 116.607 244.912 116.74C245.066 116.867 245.182 117.057 245.262 117.31H245.292C245.406 117.063 245.546 116.873 245.712 116.74C245.886 116.607 246.112 116.54 246.392 116.54C246.666 116.54 246.882 116.61 247.042 116.75C247.209 116.89 247.326 117.103 247.392 117.39C247.466 117.677 247.502 118.047 247.502 118.5V122H246.702V118.65C246.702 118.37 246.689 118.133 246.662 117.94C246.642 117.74 246.596 117.587 246.522 117.48C246.449 117.373 246.329 117.32 246.162 117.32C246.002 117.32 245.866 117.397 245.752 117.55C245.639 117.697 245.552 117.917 245.492 118.21C245.432 118.503 245.402 118.873 245.402 119.32V122H244.602V118.65C244.602 118.363 244.586 118.123 244.552 117.93C244.519 117.73 244.459 117.58 244.372 117.48C244.292 117.373 244.169 117.32 244.002 117.32C243.829 117.32 243.689 117.403 243.582 117.57C243.476 117.73 243.399 117.96 243.352 118.26C243.312 118.553 243.292 118.907 243.292 119.32V122H242.492Z" fill="var(--web-system-color-articleFigure-foreground-onPrimary, #0A69CF)"/>
<path d="M299.81 122V121.4L301.77 121.25V115.15L299.87 115.02V114.4H302.67V121.25L304.41 121.4V122H299.81ZM307.466 122.1C306.939 122.1 306.513 121.97 306.186 121.71C305.866 121.45 305.706 121.057 305.706 120.53C305.706 120.143 305.799 119.823 305.986 119.57C306.173 119.31 306.446 119.117 306.806 118.99C307.173 118.857 307.616 118.783 308.136 118.77L309.286 118.74V118.52C309.286 118.04 309.166 117.713 308.926 117.54C308.686 117.36 308.363 117.27 307.956 117.27C307.669 117.27 307.396 117.307 307.136 117.38C306.876 117.453 306.629 117.557 306.396 117.69L306.086 117.01C306.339 116.883 306.619 116.773 306.926 116.68C307.239 116.587 307.599 116.54 308.006 116.54C308.679 116.54 309.196 116.693 309.556 117C309.923 117.3 310.106 117.77 310.106 118.41V122H309.386L309.286 121.26H309.246C309.099 121.447 308.936 121.603 308.756 121.73C308.583 121.85 308.389 121.94 308.176 122C307.963 122.067 307.726 122.1 307.466 122.1ZM307.616 121.37C307.916 121.37 308.193 121.317 308.446 121.21C308.699 121.097 308.903 120.93 309.056 120.71C309.209 120.483 309.286 120.2 309.286 119.86V119.38L308.326 119.41C307.899 119.423 307.556 119.477 307.296 119.57C307.036 119.657 306.846 119.78 306.726 119.94C306.613 120.093 306.556 120.28 306.556 120.5C306.556 120.807 306.653 121.03 306.846 121.17C307.039 121.303 307.296 121.37 307.616 121.37ZM311.622 122V121.4L313.252 121.25V117.39L311.782 117.26V116.64H313.972L314.092 117.62H314.132C314.319 117.267 314.522 117 314.742 116.82C314.969 116.633 315.265 116.54 315.632 116.54C315.859 116.54 316.059 116.56 316.232 116.6C316.412 116.64 316.575 116.693 316.722 116.76L316.482 117.55C316.375 117.49 316.249 117.44 316.102 117.4C315.955 117.353 315.799 117.33 315.632 117.33C315.345 117.33 315.092 117.42 314.872 117.6C314.652 117.78 314.479 118.02 314.352 118.32C314.225 118.62 314.162 118.95 314.162 119.31V121.25L315.722 121.4V122H311.622ZM319.758 124.45C319.391 124.45 319.045 124.413 318.718 124.34C318.398 124.273 318.101 124.183 317.828 124.07V123.27C318.095 123.423 318.401 123.537 318.748 123.61C319.101 123.69 319.428 123.73 319.728 123.73C320.335 123.73 320.758 123.587 320.998 123.3C321.238 123.02 321.358 122.633 321.358 122.14V121.95C321.358 121.87 321.358 121.793 321.358 121.72C321.365 121.647 321.375 121.533 321.388 121.38H321.348C321.161 121.653 320.941 121.843 320.688 121.95C320.441 122.05 320.141 122.1 319.788 122.1C319.081 122.1 318.531 121.86 318.138 121.38C317.745 120.893 317.548 120.217 317.548 119.35C317.548 118.477 317.741 117.79 318.128 117.29C318.521 116.79 319.058 116.54 319.738 116.54C320.098 116.54 320.401 116.6 320.648 116.72C320.895 116.833 321.115 117.027 321.308 117.3H321.358L321.478 116.64H322.198V122.14C322.198 122.647 322.111 123.07 321.938 123.41C321.765 123.757 321.498 124.017 321.138 124.19C320.778 124.363 320.318 124.45 319.758 124.45ZM319.958 121.37C320.178 121.37 320.375 121.337 320.548 121.27C320.728 121.197 320.878 121.087 320.998 120.94C321.125 120.787 321.221 120.597 321.288 120.37C321.355 120.137 321.388 119.86 321.388 119.54V119.33C321.388 118.843 321.328 118.45 321.208 118.15C321.095 117.843 320.928 117.62 320.708 117.48C320.488 117.34 320.228 117.27 319.928 117.27C319.421 117.27 319.051 117.45 318.818 117.81C318.585 118.163 318.468 118.667 318.468 119.32C318.468 119.987 318.588 120.497 318.828 120.85C319.075 121.197 319.451 121.37 319.958 121.37ZM326.364 122.1C325.791 122.1 325.297 121.993 324.884 121.78C324.471 121.567 324.151 121.257 323.924 120.85C323.704 120.437 323.594 119.933 323.594 119.34C323.594 118.753 323.701 118.253 323.914 117.84C324.127 117.42 324.424 117.1 324.804 116.88C325.184 116.653 325.627 116.54 326.134 116.54C326.601 116.54 327.001 116.643 327.334 116.85C327.674 117.057 327.934 117.35 328.114 117.73C328.301 118.103 328.394 118.553 328.394 119.08V119.49H324.504C324.517 119.957 324.604 120.327 324.764 120.6C324.931 120.873 325.154 121.07 325.434 121.19C325.721 121.303 326.051 121.36 326.424 121.36C326.717 121.36 327.007 121.32 327.294 121.24C327.581 121.16 327.867 121.053 328.154 120.92V121.72C327.847 121.853 327.541 121.95 327.234 122.01C326.927 122.07 326.637 122.1 326.364 122.1ZM327.494 118.77C327.481 118.457 327.421 118.19 327.314 117.97C327.207 117.743 327.054 117.57 326.854 117.45C326.661 117.33 326.421 117.27 326.134 117.27C325.687 117.27 325.324 117.407 325.044 117.68C324.771 117.947 324.597 118.31 324.524 118.77H327.494Z" fill="var(--web-system-color-articleFigure-foreground-onPrimary, #0A69CF)"/>
<path d="M383.39 122.1C382.816 122.1 382.323 121.993 381.91 121.78C381.496 121.567 381.176 121.257 380.95 120.85C380.73 120.437 380.62 119.933 380.62 119.34C380.62 118.753 380.726 118.253 380.94 117.84C381.153 117.42 381.45 117.1 381.83 116.88C382.21 116.653 382.653 116.54 383.16 116.54C383.626 116.54 384.026 116.643 384.36 116.85C384.7 117.057 384.96 117.35 385.14 117.73C385.326 118.103 385.42 118.553 385.42 119.08V119.49H381.53C381.543 119.957 381.63 120.327 381.79 120.6C381.956 120.873 382.18 121.07 382.46 121.19C382.746 121.303 383.076 121.36 383.45 121.36C383.743 121.36 384.033 121.32 384.32 121.24C384.606 121.16 384.893 121.053 385.18 120.92V121.72C384.873 121.853 384.566 121.95 384.26 122.01C383.953 122.07 383.663 122.1 383.39 122.1ZM384.52 118.77C384.506 118.457 384.446 118.19 384.34 117.97C384.233 117.743 384.08 117.57 383.88 117.45C383.686 117.33 383.446 117.27 383.16 117.27C382.713 117.27 382.35 117.407 382.07 117.68C381.796 117.947 381.623 118.31 381.55 118.77H384.52ZM386.466 122L388.496 119.26L386.566 116.64H387.576L389.016 118.65L390.456 116.64H391.466L389.526 119.26L391.556 122H390.546L389.016 119.87L387.476 122H386.466ZM396.032 122.1C395.652 122.1 395.312 122.05 395.012 121.95C394.712 121.85 394.472 121.673 394.292 121.42C394.118 121.167 394.032 120.817 394.032 120.37V117.39H392.572V116.77L394.032 116.61L394.212 115.21H394.932V116.64H397.022V117.39H394.932V120.2C394.932 120.467 394.968 120.687 395.042 120.86C395.122 121.033 395.248 121.163 395.422 121.25C395.595 121.33 395.818 121.37 396.092 121.37C396.265 121.37 396.452 121.353 396.652 121.32C396.852 121.287 397.025 121.253 397.172 121.22V121.94C397.012 121.98 396.835 122.017 396.642 122.05C396.448 122.083 396.245 122.1 396.032 122.1ZM398.628 122V121.4L400.258 121.25V117.39L398.788 117.26V116.64H400.978L401.098 117.62H401.138C401.324 117.267 401.528 117 401.748 116.82C401.974 116.633 402.271 116.54 402.638 116.54C402.864 116.54 403.064 116.56 403.238 116.6C403.418 116.64 403.581 116.693 403.728 116.76L403.488 117.55C403.381 117.49 403.254 117.44 403.108 117.4C402.961 117.353 402.804 117.33 402.638 117.33C402.351 117.33 402.098 117.42 401.878 117.6C401.658 117.78 401.484 118.02 401.358 118.32C401.231 118.62 401.168 118.95 401.168 119.31V121.25L402.728 121.4V122H398.628ZM406.464 122.1C405.937 122.1 405.511 121.97 405.184 121.71C404.864 121.45 404.704 121.057 404.704 120.53C404.704 120.143 404.797 119.823 404.984 119.57C405.171 119.31 405.444 119.117 405.804 118.99C406.171 118.857 406.614 118.783 407.134 118.77L408.284 118.74V118.52C408.284 118.04 408.164 117.713 407.924 117.54C407.684 117.36 407.361 117.27 406.954 117.27C406.667 117.27 406.394 117.307 406.134 117.38C405.874 117.453 405.627 117.557 405.394 117.69L405.084 117.01C405.337 116.883 405.617 116.773 405.924 116.68C406.237 116.587 406.597 116.54 407.004 116.54C407.677 116.54 408.194 116.693 408.554 117C408.921 117.3 409.104 117.77 409.104 118.41V122H408.384L408.284 121.26H408.244C408.097 121.447 407.934 121.603 407.754 121.73C407.581 121.85 407.387 121.94 407.174 122C406.961 122.067 406.724 122.1 406.464 122.1ZM406.614 121.37C406.914 121.37 407.191 121.317 407.444 121.21C407.697 121.097 407.901 120.93 408.054 120.71C408.207 120.483 408.284 120.2 408.284 119.86V119.38L407.324 119.41C406.897 119.423 406.554 119.477 406.294 119.57C406.034 119.657 405.844 119.78 405.724 119.94C405.611 120.093 405.554 120.28 405.554 120.5C405.554 120.807 405.651 121.03 405.844 121.17C406.037 121.303 406.294 121.37 406.614 121.37ZM411.15 122V114.86H412.05V121.17H415.15V122H411.15ZM418.456 122.1C417.929 122.1 417.503 121.97 417.176 121.71C416.856 121.45 416.696 121.057 416.696 120.53C416.696 120.143 416.789 119.823 416.976 119.57C417.163 119.31 417.436 119.117 417.796 118.99C418.163 118.857 418.606 118.783 419.126 118.77L420.276 118.74V118.52C420.276 118.04 420.156 117.713 419.916 117.54C419.676 117.36 419.353 117.27 418.946 117.27C418.659 117.27 418.386 117.307 418.126 117.38C417.866 117.453 417.619 117.557 417.386 117.69L417.076 117.01C417.329 116.883 417.609 116.773 417.916 116.68C418.229 116.587 418.589 116.54 418.996 116.54C419.669 116.54 420.186 116.693 420.546 117C420.913 117.3 421.096 117.77 421.096 118.41V122H420.376L420.276 121.26H420.236C420.089 121.447 419.926 121.603 419.746 121.73C419.573 121.85 419.379 121.94 419.166 122C418.953 122.067 418.716 122.1 418.456 122.1ZM418.606 121.37C418.906 121.37 419.183 121.317 419.436 121.21C419.689 121.097 419.893 120.93 420.046 120.71C420.199 120.483 420.276 120.2 420.276 119.86V119.38L419.316 119.41C418.889 119.423 418.546 119.477 418.286 119.57C418.026 119.657 417.836 119.78 417.716 119.94C417.603 120.093 417.546 120.28 417.546 120.5C417.546 120.807 417.643 121.03 417.836 121.17C418.029 121.303 418.286 121.37 418.606 121.37ZM422.612 122V121.4L424.242 121.25V117.39L422.772 117.26V116.64H424.962L425.082 117.62H425.122C425.309 117.267 425.512 117 425.732 116.82C425.959 116.633 426.256 116.54 426.622 116.54C426.849 116.54 427.049 116.56 427.222 116.6C427.402 116.64 427.566 116.693 427.712 116.76L427.472 117.55C427.366 117.49 427.239 117.44 427.092 117.4C426.946 117.353 426.789 117.33 426.622 117.33C426.336 117.33 426.082 117.42 425.862 117.6C425.642 117.78 425.469 118.02 425.342 118.32C425.216 118.62 425.152 118.95 425.152 119.31V121.25L426.712 121.4V122H422.612ZM430.748 124.45C430.382 124.45 430.035 124.413 429.708 124.34C429.388 124.273 429.092 124.183 428.818 124.07V123.27C429.085 123.423 429.392 123.537 429.738 123.61C430.092 123.69 430.418 123.73 430.718 123.73C431.325 123.73 431.748 123.587 431.988 123.3C432.228 123.02 432.348 122.633 432.348 122.14V121.95C432.348 121.87 432.348 121.793 432.348 121.72C432.355 121.647 432.365 121.533 432.378 121.38H432.338C432.152 121.653 431.932 121.843 431.678 121.95C431.432 122.05 431.132 122.1 430.778 122.1C430.072 122.1 429.522 121.86 429.128 121.38C428.735 120.893 428.538 120.217 428.538 119.35C428.538 118.477 428.732 117.79 429.118 117.29C429.512 116.79 430.048 116.54 430.728 116.54C431.088 116.54 431.392 116.6 431.638 116.72C431.885 116.833 432.105 117.027 432.298 117.3H432.348L432.468 116.64H433.188V122.14C433.188 122.647 433.102 123.07 432.928 123.41C432.755 123.757 432.488 124.017 432.128 124.19C431.768 124.363 431.308 124.45 430.748 124.45ZM430.948 121.37C431.168 121.37 431.365 121.337 431.538 121.27C431.718 121.197 431.868 121.087 431.988 120.94C432.115 120.787 432.212 120.597 432.278 120.37C432.345 120.137 432.378 119.86 432.378 119.54V119.33C432.378 118.843 432.318 118.45 432.198 118.15C432.085 117.843 431.918 117.62 431.698 117.48C431.478 117.34 431.218 117.27 430.918 117.27C430.412 117.27 430.042 117.45 429.808 117.81C429.575 118.163 429.458 118.667 429.458 119.32C429.458 119.987 429.578 120.497 429.818 120.85C430.065 121.197 430.442 121.37 430.948 121.37ZM437.354 122.1C436.781 122.1 436.288 121.993 435.874 121.78C435.461 121.567 435.141 121.257 434.914 120.85C434.694 120.437 434.584 119.933 434.584 119.34C434.584 118.753 434.691 118.253 434.904 117.84C435.118 117.42 435.414 117.1 435.794 116.88C436.174 116.653 436.618 116.54 437.124 116.54C437.591 116.54 437.991 116.643 438.324 116.85C438.664 117.057 438.924 117.35 439.104 117.73C439.291 118.103 439.384 118.553 439.384 119.08V119.49H435.494C435.508 119.957 435.594 120.327 435.754 120.6C435.921 120.873 436.144 121.07 436.424 121.19C436.711 121.303 437.041 121.36 437.414 121.36C437.708 121.36 437.998 121.32 438.284 121.24C438.571 121.16 438.858 121.053 439.144 120.92V121.72C438.838 121.853 438.531 121.95 438.224 122.01C437.918 122.07 437.628 122.1 437.354 122.1ZM438.484 118.77C438.471 118.457 438.411 118.19 438.304 117.97C438.198 117.743 438.044 117.57 437.844 117.45C437.651 117.33 437.411 117.27 437.124 117.27C436.678 117.27 436.314 117.407 436.034 117.68C435.761 117.947 435.588 118.31 435.514 118.77H438.484Z" fill="var(--web-system-color-articleFigure-foreground-onPrimary, #0A69CF)"/>
<path d="M536.418 122V117.39H534.668V116.77L536.418 116.64V116.03C536.418 115.603 536.498 115.27 536.658 115.03C536.824 114.783 537.054 114.61 537.348 114.51C537.641 114.403 537.981 114.35 538.368 114.35C538.661 114.35 538.918 114.37 539.138 114.41C539.358 114.45 539.548 114.497 539.708 114.55L539.508 115.24C539.374 115.2 539.208 115.167 539.008 115.14C538.808 115.107 538.611 115.09 538.418 115.09C538.071 115.09 537.801 115.163 537.608 115.31C537.414 115.457 537.318 115.737 537.318 116.15V116.64H539.338V117.39H537.318V122H536.418ZM542.614 122.1C541.981 122.1 541.511 121.943 541.204 121.63C540.904 121.31 540.754 120.837 540.754 120.21V116.64H541.654V120.07C541.654 120.497 541.741 120.82 541.914 121.04C542.094 121.26 542.401 121.37 542.834 121.37C543.207 121.37 543.501 121.293 543.714 121.14C543.927 120.98 544.077 120.753 544.164 120.46C544.257 120.167 544.304 119.813 544.304 119.4V116.64H545.204V122H544.484L544.354 121.28H544.304C544.177 121.48 544.031 121.64 543.864 121.76C543.697 121.88 543.511 121.967 543.304 122.02C543.097 122.073 542.867 122.1 542.614 122.1ZM546.8 122V121.4L548.76 121.25V115.15L546.86 115.02V114.4H549.66V121.25L551.4 121.4V122H546.8ZM552.796 122V121.4L554.756 121.25V115.15L552.856 115.02V114.4H555.656V121.25L557.396 121.4V122H552.796Z" fill="var(--web-system-color-articleFigure-foreground-onPrimary, #0A69CF)"/>
</g>
<defs>
<clipPath id="clip0_12120_54267">
<rect width="668" height="138" fill="white"/>
</clipPath>
</defs>
</svg>
