<svg width="172" height="172" viewBox="0 0 172 172" fill="none" xmlns="http://www.w3.org/2000/svg">
<rect width="172" height="172" rx="16" fill="#FFF7EE"/>
<g style="mix-blend-mode:multiply">
<g style="mix-blend-mode:multiply">
<rect x="37.9643" y="37" width="108.036" height="43.2143" fill="#94CEFF"/>
</g>
</g>
<g style="mix-blend-mode:multiply">
<g style="mix-blend-mode:multiply">
<rect x="25" y="55.1499" width="86.4286" height="44.0786" fill="#FED232"/>
</g>
</g>
<g style="mix-blend-mode:multiply">
<path d="M58.872 76.441C51.2723 80.8528 45.703 88.0777 43.3892 96.5264C41.0753 104.975 42.2066 113.955 46.534 121.492C50.8614 129.028 58.0305 134.504 66.4642 136.713C74.8979 138.923 83.9054 137.685 91.505 133.274" stroke="#E46C24" stroke-width="17.6082"/>
</g>
<path d="M118.936 75.0283V102.143" stroke="#4ECA53" stroke-width="4.33838"/>
<path d="M132.493 88.5859L105.379 88.5859" stroke="#4ECA53" stroke-width="4.33838"/>
<path d="M130.677 81.8071L107.195 95.3646" stroke="#4ECA53" stroke-width="4.33838"/>
<path d="M125.715 76.8447L112.157 100.327" stroke="#4ECA53" stroke-width="4.33838"/>
<path d="M125.715 100.327L112.157 76.8445" stroke="#4ECA53" stroke-width="4.33838"/>
<path d="M130.677 95.3643L107.195 81.8068" stroke="#4ECA53" stroke-width="4.33838"/>
</svg>
